<svg width="398" height="216" viewBox="0 0 398 216" fill="none" xmlns="http://www.w3.org/2000/svg">
    <g clip-path="url(#clip0_21_1587)">
        <path d="M372.79 180.396L374.031 186.659C374.125 187.138 374.223 187.625 374.329 188.108C375.367 187.892 376.442 187.952 377.45 188.283C376.651 189.431 375.934 190.636 375.307 191.887C376.089 194.311 377.237 196.551 379.159 198.171C380.442 199.229 381.975 199.936 383.61 200.225C385.244 200.514 386.925 200.375 388.491 199.821L388.436 199.573C390.502 195.542 389.379 190.459 386.812 186.736C385.502 184.899 383.95 183.25 382.199 181.833C380.464 180.379 378.589 179.076 376.731 177.789C376.314 177.5 375.821 177.343 375.314 177.338C374.808 177.333 374.311 177.48 373.888 177.76C373.465 178.04 373.135 178.44 372.939 178.91C372.743 179.379 372.692 179.897 372.79 180.396Z"
              fill="#E4E4E4"/>
        <path d="M388.049 214.889C388.572 211.062 389.109 207.186 388.743 203.318C388.417 199.883 387.375 196.527 385.253 193.776C384.126 192.319 382.755 191.07 381.202 190.086C380.797 189.829 380.425 190.474 380.828 190.73C383.515 192.438 385.594 194.96 386.764 197.932C388.056 201.237 388.264 204.84 388.039 208.351C387.905 210.474 387.619 212.583 387.332 214.69C387.308 214.786 387.322 214.886 387.371 214.972C387.419 215.057 387.498 215.121 387.591 215.149C387.686 215.175 387.787 215.162 387.873 215.113C387.958 215.065 388.021 214.984 388.048 214.889L388.049 214.889Z"
              fill="#F2F2F2"/>
        <path d="M228.878 2H392.122C392.886 2.00219 393.618 2.40464 394.157 3.11907C394.697 3.8335 395 4.80156 395 5.81087V150.197C394.999 151.205 394.695 152.171 394.156 152.884C393.616 153.597 392.885 153.998 392.122 154H228.878C228.115 153.998 227.384 153.597 226.844 152.884C226.305 152.171 226.001 151.205 226 150.197V5.81087C226 4.80156 226.303 3.8335 226.843 3.11907C227.382 2.40464 228.114 2.00219 228.878 2Z"
              fill="white"/>
        <path d="M383.565 22.927C365.352 22.6086 347.138 22.5629 328.922 22.7898C310.708 23.0181 292.5 23.5202 274.299 24.2963C264.085 24.7318 253.876 25.2535 243.67 25.8615C242.85 25.9102 242.853 24.6277 243.67 24.5791C261.854 23.4972 280.05 22.6877 298.26 22.1505C316.468 21.6148 334.68 21.353 352.898 21.3651C363.121 21.372 373.343 21.4651 383.565 21.6446C384.385 21.6589 384.387 22.9414 383.565 22.927V22.927Z"
              fill="#E6E6E6"/>
        <path d="M256.641 14.8859L248.677 14.2899C247.864 14.229 247.857 12.9461 248.677 13.0075L256.641 13.6035C257.455 13.6643 257.461 14.9472 256.641 14.8859Z"
              fill="#E6E6E6"/>
        <path d="M256.641 22.5804L248.677 21.9845C247.864 21.9236 247.857 20.6407 248.677 20.7021L256.641 21.298C257.455 21.3589 257.461 22.6418 256.641 22.5804Z"
              fill="#E6E6E6"/>
        <path d="M257.241 19.0666L245.918 20.1008C245.101 20.1755 245.106 18.8926 245.918 18.8184L257.241 17.7841C258.058 17.7095 258.053 18.9924 257.241 19.0666Z"
              fill="#E6E6E6"/>
        <path d="M378.852 13.1613C379.406 13.1579 379.948 13.3184 380.412 13.6229C380.876 13.9274 381.24 14.3623 381.46 14.8736C381.705 15.3739 381.781 15.9414 381.675 16.4892C381.57 17.0369 381.289 17.5349 380.875 17.9068C380.486 18.2394 380.02 18.4675 379.52 18.5697C379.019 18.6719 378.501 18.6449 378.014 18.4912C377.516 18.3163 377.084 17.9904 376.778 17.5584C376.472 17.1264 376.306 16.6096 376.304 16.0791C376.282 15.4905 376.44 14.9093 376.758 14.4145C377.076 13.9198 377.538 13.5354 378.08 13.3138C378.243 13.2692 378.417 13.2913 378.564 13.3752C378.711 13.4591 378.819 13.598 378.865 13.7616C378.905 13.9254 378.881 14.0985 378.798 14.2452C378.716 14.392 378.58 14.5012 378.419 14.5504C378.308 14.5936 378.521 14.4955 378.417 14.5523C378.374 14.5757 378.331 14.5968 378.289 14.6218C378.253 14.643 378.219 14.6662 378.185 14.6889C378.066 14.767 378.243 14.6316 378.167 14.7018C378.101 14.7627 378.035 14.8221 377.975 14.8893C377.953 14.9147 377.864 14.9854 377.933 14.936C377.986 14.8982 377.953 14.9071 377.933 14.9374C377.917 14.9605 377.901 14.9829 377.886 15.006C377.836 15.0817 377.791 15.1602 377.751 15.2413C377.741 15.2601 377.733 15.2792 377.723 15.2979C377.705 15.3329 377.679 15.342 377.721 15.2982C377.761 15.2564 377.736 15.2592 377.722 15.2995C377.712 15.326 377.702 15.3521 377.693 15.3787C377.663 15.4652 377.638 15.5533 377.617 15.6426C377.608 15.6839 377.601 15.7254 377.593 15.7669C377.564 15.9142 377.597 15.6754 377.59 15.7847C377.584 15.8761 377.577 15.9664 377.579 16.0581C377.58 16.1001 377.581 16.142 377.584 16.1838C377.586 16.2047 377.588 16.2255 377.589 16.2464C377.596 16.347 377.596 16.2096 377.582 16.2002C377.611 16.2856 377.631 16.3741 377.64 16.464C377.651 16.5038 377.665 16.5428 377.678 16.5823C377.722 16.7198 377.636 16.5073 377.683 16.6013C377.722 16.6821 377.766 16.7605 377.814 16.8363C377.834 16.868 377.913 16.9397 377.849 16.8898C377.779 16.8357 377.885 16.9289 377.908 16.9529C377.937 16.9837 377.967 17.0134 377.998 17.0421C378.018 17.0617 378.039 17.0802 378.061 17.0973C378.065 17.0953 377.955 17.0231 378.014 17.0613C378.09 17.1099 378.162 17.1619 378.242 17.2042C378.251 17.2091 378.353 17.2567 378.353 17.2583C378.357 17.241 378.222 17.2103 378.315 17.2406C378.334 17.2469 378.353 17.2546 378.373 17.2612C378.458 17.2899 378.544 17.3131 378.632 17.3306C378.652 17.3346 378.673 17.3366 378.693 17.3418C378.759 17.3589 378.63 17.3317 378.626 17.334C378.675 17.3319 378.724 17.3362 378.771 17.3469C378.862 17.3521 378.953 17.3521 379.043 17.3469C379.064 17.3457 379.085 17.3436 379.106 17.3423C379.154 17.3395 379.19 17.3043 379.125 17.3425C379.075 17.372 379.08 17.3505 379.124 17.3423C379.144 17.3384 379.165 17.3352 379.186 17.3313C379.275 17.3145 379.364 17.2926 379.451 17.266C379.498 17.2516 379.544 17.2349 379.59 17.2186C379.611 17.2127 379.63 17.2051 379.649 17.1959C379.649 17.1906 379.53 17.2534 379.593 17.2192C379.673 17.176 379.755 17.1398 379.833 17.0926C379.874 17.0674 379.914 17.0401 379.954 17.0131C379.972 17.0024 379.989 16.9902 380.005 16.9768C380.004 16.9714 379.906 17.0622 379.957 17.0132C380.022 16.9511 380.091 16.8956 380.153 16.8295C380.167 16.8144 380.18 16.7986 380.194 16.7834L380.207 16.7679C380.242 16.7254 380.243 16.7256 380.209 16.7685C380.176 16.7785 380.177 16.8158 380.209 16.7674C380.221 16.7501 380.233 16.7333 380.244 16.7161C380.296 16.6419 380.34 16.5626 380.376 16.4794C380.373 16.477 380.321 16.6337 380.361 16.5154C380.368 16.4931 380.377 16.4711 380.384 16.4487C380.399 16.4043 380.411 16.3593 380.423 16.3139C380.434 16.2689 380.439 16.2225 380.45 16.1777C380.469 16.1022 380.439 16.2373 380.443 16.2339C380.453 16.2234 380.449 16.1579 380.45 16.1422C380.455 16.0416 380.443 15.944 380.442 15.8439C380.44 15.7665 380.448 15.9043 380.45 15.9003C380.449 15.8771 380.445 15.8541 380.438 15.8322C380.426 15.7794 380.415 15.7267 380.401 15.6746C380.385 15.6149 380.366 15.5559 380.345 15.4976C380.337 15.4758 380.328 15.4543 380.32 15.4324C380.294 15.3518 380.374 15.5296 380.329 15.457C380.269 15.3571 380.224 15.249 380.159 15.1503C380.144 15.127 380.051 14.9967 380.1 15.0625C380.149 15.128 380.05 15.0038 380.031 14.9827C379.953 14.8951 379.861 14.8232 379.78 14.7394C379.732 14.6897 379.813 14.7638 379.818 14.7673C379.793 14.7492 379.769 14.7305 379.743 14.713C379.699 14.6823 379.654 14.6533 379.607 14.6259C379.555 14.5951 379.496 14.5721 379.445 14.5395C379.385 14.5009 379.491 14.5564 379.493 14.5576C379.465 14.5439 379.437 14.533 379.407 14.5248C379.358 14.5072 379.143 14.414 379.098 14.4432C379.1 14.4419 379.261 14.4562 379.131 14.4478C379.1 14.4458 379.069 14.4428 379.039 14.4415C378.976 14.4389 378.914 14.4405 378.852 14.4437C378.683 14.4426 378.522 14.3747 378.402 14.2547C378.283 14.1347 378.215 13.9723 378.214 13.8025C378.218 13.6336 378.286 13.4726 378.405 13.3531C378.524 13.2337 378.684 13.165 378.852 13.1613L378.852 13.1613Z"
              fill="#E6E6E6"/>
        <path d="M369.923 13.1612C370.477 13.1577 371.02 13.3183 371.483 13.6228C371.947 13.9272 372.311 14.3622 372.531 14.8734C372.776 15.3738 372.852 15.9413 372.747 16.489C372.641 17.0368 372.36 17.5347 371.946 17.9067C371.558 18.2393 371.091 18.4674 370.591 18.5696C370.091 18.6718 369.573 18.6448 369.086 18.4911C368.587 18.3161 368.155 17.9903 367.849 17.5583C367.543 17.1263 367.377 16.6095 367.375 16.079C367.353 15.4904 367.511 14.9092 367.829 14.4144C368.147 13.9196 368.609 13.5353 369.152 13.3137C369.315 13.2691 369.489 13.2912 369.636 13.3751C369.783 13.459 369.891 13.5979 369.936 13.7615C369.976 13.9253 369.953 14.0984 369.87 14.2451C369.787 14.3918 369.651 14.5011 369.491 14.5503C369.38 14.5934 369.592 14.4953 369.488 14.5522C369.446 14.5756 369.402 14.5967 369.36 14.6216C369.325 14.6428 369.291 14.6661 369.256 14.6888C369.137 14.7669 369.314 14.6314 369.238 14.7017C369.172 14.7626 369.107 14.822 369.047 14.8892C369.024 14.9146 368.935 14.9853 369.004 14.9359C369.057 14.8981 369.025 14.907 369.004 14.9373C368.989 14.9604 368.972 14.9827 368.957 15.0059C368.907 15.0816 368.862 15.1601 368.822 15.2412C368.812 15.2599 368.804 15.2791 368.794 15.2978C368.776 15.3328 368.751 15.3419 368.793 15.2981C368.833 15.2563 368.807 15.2591 368.793 15.2994C368.783 15.3259 368.773 15.352 368.764 15.3786C368.734 15.4651 368.709 15.5532 368.689 15.6425C368.679 15.6837 368.672 15.7252 368.664 15.7668C368.635 15.914 368.668 15.6752 368.661 15.7846C368.655 15.8759 368.649 15.9663 368.65 16.058C368.651 16.0999 368.653 16.1418 368.656 16.1837C368.657 16.2046 368.659 16.2254 368.661 16.2463C368.667 16.3469 368.668 16.2095 368.654 16.2001C368.683 16.2855 368.702 16.374 368.711 16.4639C368.723 16.5037 368.736 16.5427 368.749 16.5821C368.793 16.7197 368.707 16.5071 368.755 16.6012C368.793 16.6819 368.837 16.7604 368.885 16.8362C368.906 16.8679 368.984 16.9396 368.92 16.8897C368.85 16.8356 368.956 16.9288 368.979 16.9527C369.008 16.9835 369.038 17.0133 369.069 17.0419C369.089 17.0616 369.111 17.08 369.133 17.0972C369.137 17.0952 369.026 17.0229 369.086 17.0612C369.162 17.1098 369.233 17.1617 369.313 17.2041C369.322 17.209 369.425 17.2565 369.424 17.2582C369.428 17.2409 369.293 17.2102 369.386 17.2404C369.406 17.2468 369.425 17.2545 369.444 17.2611C369.529 17.2898 369.616 17.3129 369.703 17.3305C369.723 17.3345 369.745 17.3365 369.764 17.3417C369.83 17.3588 369.701 17.3316 369.697 17.3339C369.746 17.3318 369.795 17.3361 369.843 17.3468C369.933 17.352 370.024 17.352 370.114 17.3468C370.135 17.3455 370.156 17.3434 370.177 17.3422C370.226 17.3394 370.261 17.3042 370.197 17.3424C370.147 17.3719 370.151 17.3504 370.195 17.3422C370.216 17.3383 370.237 17.3351 370.257 17.3312C370.347 17.3143 370.435 17.2925 370.523 17.2658C370.569 17.2515 370.615 17.2348 370.662 17.2185C370.682 17.2126 370.701 17.205 370.72 17.1958C370.721 17.1905 370.601 17.2532 370.664 17.219C370.744 17.1759 370.826 17.1397 370.904 17.0925C370.946 17.0673 370.985 17.0399 371.026 17.013C371.043 17.0022 371.06 16.9901 371.076 16.9767C371.075 16.9712 370.977 17.0621 371.029 17.013C371.093 16.951 371.163 16.8955 371.224 16.8294C371.238 16.8143 371.251 16.7985 371.265 16.7833L371.279 16.7678C371.313 16.7253 371.314 16.7255 371.281 16.7684C371.247 16.7784 371.248 16.8157 371.28 16.7672C371.292 16.75 371.304 16.7332 371.315 16.7159C371.367 16.6417 371.411 16.5624 371.447 16.4793C371.444 16.4768 371.392 16.6336 371.432 16.5153C371.439 16.4929 371.448 16.471 371.455 16.4486C371.47 16.4041 371.483 16.3592 371.494 16.3138C371.505 16.2688 371.511 16.2224 371.522 16.1776C371.54 16.1021 371.511 16.2372 371.514 16.2338C371.525 16.2233 371.52 16.1578 371.521 16.1421C371.526 16.0415 371.515 15.9438 371.513 15.8438C371.512 15.7664 371.519 15.9042 371.521 15.9002C371.521 15.877 371.516 15.854 371.509 15.8321C371.497 15.7793 371.487 15.7266 371.472 15.6745C371.456 15.6147 371.438 15.5558 371.417 15.4975C371.409 15.4757 371.399 15.4542 371.392 15.4322C371.365 15.3517 371.445 15.5295 371.401 15.4569C371.34 15.357 371.295 15.2489 371.23 15.1502C371.215 15.1268 371.122 14.9966 371.172 15.0623C371.221 15.1278 371.121 15.0037 371.102 14.9826C371.024 14.895 370.932 14.8231 370.851 14.7392C370.803 14.6896 370.885 14.7637 370.889 14.7671C370.864 14.7491 370.84 14.7304 370.814 14.7128C370.77 14.6821 370.725 14.6531 370.678 14.6258C370.626 14.595 370.567 14.572 370.516 14.5394C370.456 14.5008 370.562 14.5563 370.564 14.5575C370.537 14.5438 370.508 14.5328 370.478 14.5247C370.429 14.5071 370.214 14.4139 370.169 14.4431C370.171 14.4417 370.332 14.4561 370.202 14.4477C370.171 14.4457 370.141 14.4427 370.11 14.4414C370.048 14.4388 369.986 14.4404 369.923 14.4436C369.754 14.4425 369.593 14.3746 369.474 14.2546C369.354 14.1346 369.287 13.9721 369.286 13.8024C369.289 13.6335 369.357 13.4725 369.476 13.353C369.595 13.2336 369.755 13.1648 369.923 13.1612L369.923 13.1612Z"
              fill="#E6E6E6"/>
        <path d="M360.996 13.1613C361.549 13.1579 362.092 13.3184 362.556 13.6229C363.019 13.9274 363.384 14.3623 363.603 14.8736C363.849 15.3739 363.924 15.9414 363.819 16.4892C363.713 17.0369 363.432 17.5349 363.019 17.9068C362.63 18.2394 362.163 18.4675 361.663 18.5697C361.163 18.6719 360.645 18.6449 360.158 18.4912C359.66 18.3163 359.228 17.9904 358.921 17.5584C358.615 17.1264 358.449 16.6096 358.447 16.0791C358.425 15.4905 358.584 14.9093 358.902 14.4145C359.219 13.9198 359.681 13.5354 360.224 13.3138C360.387 13.2692 360.561 13.2913 360.708 13.3752C360.855 13.4591 360.963 13.598 361.008 13.7616C361.049 13.9254 361.025 14.0985 360.942 14.2452C360.859 14.392 360.723 14.5012 360.563 14.5504C360.452 14.5936 360.664 14.4955 360.561 14.5523C360.518 14.5757 360.475 14.5968 360.433 14.6218C360.397 14.643 360.363 14.6662 360.328 14.6889C360.209 14.767 360.386 14.6316 360.31 14.7018C360.244 14.7627 360.179 14.8221 360.119 14.8893C360.096 14.9147 360.007 14.9854 360.076 14.936C360.129 14.8982 360.097 14.9071 360.076 14.9374C360.061 14.9605 360.045 14.9829 360.029 15.006C359.98 15.0817 359.935 15.1602 359.894 15.2413C359.885 15.2601 359.876 15.2792 359.867 15.2979C359.849 15.3329 359.823 15.342 359.865 15.2982C359.905 15.2564 359.879 15.2592 359.865 15.2995C359.856 15.326 359.845 15.3521 359.836 15.3787C359.806 15.4652 359.781 15.5533 359.761 15.6426C359.752 15.6839 359.744 15.7254 359.736 15.7669C359.708 15.9142 359.74 15.6754 359.733 15.7847C359.728 15.8761 359.721 15.9664 359.722 16.0581C359.723 16.1001 359.725 16.142 359.728 16.1838C359.729 16.2047 359.732 16.2255 359.733 16.2464C359.74 16.347 359.74 16.2096 359.726 16.2002C359.755 16.2856 359.774 16.3741 359.784 16.464C359.795 16.5038 359.808 16.5428 359.821 16.5823C359.866 16.7198 359.78 16.5073 359.827 16.6013C359.866 16.6821 359.909 16.7605 359.957 16.8363C359.978 16.868 360.056 16.9397 359.992 16.8898C359.923 16.8357 360.029 16.9289 360.051 16.9529C360.08 16.9837 360.11 17.0134 360.142 17.0421C360.162 17.0617 360.183 17.0802 360.205 17.0973C360.209 17.0953 360.098 17.0231 360.158 17.0613C360.234 17.1099 360.306 17.1619 360.385 17.2042C360.395 17.2091 360.497 17.2567 360.496 17.2583C360.501 17.241 360.365 17.2103 360.458 17.2406C360.478 17.2469 360.497 17.2546 360.516 17.2612C360.601 17.2899 360.688 17.3131 360.776 17.3306C360.796 17.3346 360.817 17.3366 360.837 17.3418C360.903 17.3589 360.774 17.3317 360.77 17.334C360.818 17.3319 360.867 17.3362 360.915 17.3469C361.005 17.3521 361.096 17.3521 361.187 17.3469C361.208 17.3457 361.228 17.3436 361.249 17.3423C361.298 17.3395 361.334 17.3043 361.269 17.3425C361.219 17.372 361.223 17.3505 361.267 17.3423C361.288 17.3384 361.309 17.3352 361.329 17.3313C361.419 17.3145 361.508 17.2926 361.595 17.266C361.642 17.2516 361.688 17.2349 361.734 17.2186C361.754 17.2127 361.774 17.2051 361.793 17.1959C361.793 17.1906 361.673 17.2534 361.736 17.2192C361.816 17.176 361.898 17.1398 361.976 17.0926C362.018 17.0674 362.058 17.0401 362.098 17.0131C362.116 17.0024 362.133 16.9902 362.148 16.9768C362.147 16.9714 362.05 17.0622 362.101 17.0132C362.166 16.9511 362.235 16.8956 362.296 16.8295C362.31 16.8144 362.323 16.7986 362.337 16.7834L362.351 16.7679C362.386 16.7254 362.386 16.7256 362.353 16.7685C362.319 16.7785 362.321 16.8158 362.353 16.7674C362.364 16.7501 362.376 16.7333 362.388 16.7161C362.439 16.6419 362.484 16.5626 362.519 16.4794C362.516 16.477 362.464 16.6337 362.504 16.5154C362.512 16.4931 362.52 16.4711 362.527 16.4487C362.542 16.4043 362.555 16.3593 362.566 16.3139C362.577 16.2689 362.583 16.2225 362.594 16.1777C362.613 16.1022 362.583 16.2373 362.586 16.2339C362.597 16.2234 362.593 16.1579 362.593 16.1422C362.598 16.0416 362.587 15.944 362.585 15.8439C362.584 15.7665 362.592 15.9043 362.593 15.9003C362.593 15.8771 362.589 15.8541 362.581 15.8322C362.57 15.7794 362.559 15.7267 362.545 15.6746C362.529 15.6149 362.51 15.5559 362.489 15.4976C362.481 15.4758 362.471 15.4543 362.464 15.4324C362.437 15.3518 362.517 15.5296 362.473 15.457C362.412 15.3571 362.367 15.249 362.303 15.1503C362.288 15.127 362.195 14.9967 362.244 15.0625C362.293 15.128 362.194 15.0038 362.175 14.9827C362.096 14.8951 362.004 14.8232 361.923 14.7394C361.876 14.6897 361.957 14.7638 361.962 14.7673C361.937 14.7492 361.912 14.7305 361.887 14.713C361.842 14.6823 361.797 14.6533 361.751 14.6259C361.698 14.5951 361.639 14.5721 361.588 14.5395C361.529 14.5009 361.634 14.5564 361.636 14.5576C361.609 14.5439 361.58 14.533 361.551 14.5248C361.501 14.5072 361.287 14.414 361.242 14.4432C361.244 14.4419 361.405 14.4562 361.274 14.4478C361.244 14.4458 361.213 14.4428 361.182 14.4415C361.12 14.4389 361.058 14.4405 360.996 14.4437C360.827 14.4426 360.665 14.3747 360.546 14.2547C360.426 14.1347 360.359 13.9723 360.358 13.8025C360.361 13.6336 360.43 13.4726 360.549 13.3531C360.667 13.2337 360.828 13.165 360.996 13.1613L360.996 13.1613Z"
              fill="#E6E6E6"/>
        <path d="M232.015 155.172H388.431C390.409 155.17 392.305 154.379 393.704 152.973C395.103 151.567 395.889 149.66 395.892 147.672V7.50101C395.889 5.5123 395.103 3.60569 393.704 2.19946C392.305 0.793228 390.409 0.00223005 388.431 0H232.015C230.037 0.00223005 228.141 0.793228 226.742 2.19946C225.343 3.60569 224.557 5.5123 224.555 7.50101V147.672C224.557 149.66 225.343 151.567 226.742 152.973C228.141 154.379 230.037 155.17 232.015 155.172ZM388.431 0.854945C390.184 0.85695 391.864 1.5578 393.103 2.80375C394.342 4.04969 395.039 5.73898 395.041 7.50101V147.672C395.039 149.434 394.342 151.123 393.103 152.369C391.864 153.615 390.184 154.316 388.431 154.318H232.015C230.262 154.316 228.582 153.615 227.343 152.369C226.104 151.123 225.407 149.434 225.405 147.672V7.50101C225.407 5.73898 226.104 4.04969 227.343 2.80375C228.582 1.5578 230.262 0.856951 232.015 0.854945H388.431Z"
              fill="#E6E6E6"/>
        <path d="M388.691 95.3716L333.685 95.2034L278.959 95.036L248.088 94.9416C247.923 94.9358 247.766 94.8658 247.651 94.7461C247.537 94.6265 247.472 94.4667 247.472 94.3004C247.472 94.1341 247.537 93.9743 247.651 93.8546C247.766 93.735 247.923 93.6649 248.088 93.6592L303.094 93.8274L357.82 93.9948L388.691 94.0892C388.856 94.095 389.013 94.165 389.127 94.2847C389.242 94.4043 389.307 94.5641 389.307 94.7304C389.307 94.8967 389.242 95.0565 389.127 95.1762C389.013 95.2958 388.856 95.3659 388.691 95.3716Z"
              fill="#E6E6E6"/>
        <path d="M360.941 94.332L360.601 74.1395C360.587 73.3139 361.863 73.3138 361.877 74.1395L362.217 94.332C362.231 95.1575 360.955 95.1577 360.941 94.332Z"
              fill="#E6E6E6"/>
        <path d="M334.652 94.5504L333.823 69.1695L333.586 61.9178C333.559 61.0923 334.835 61.0933 334.862 61.9178L335.69 87.2987L335.927 94.5504C335.954 95.3759 334.679 95.3749 334.652 94.5504Z"
              fill="#E6E6E6"/>
        <path d="M308.433 49.8865C308.933 58.8763 309.858 85.3923 310.358 94.3821C310.404 95.2067 309.128 95.204 309.083 94.3821C308.583 85.3923 307.658 58.8762 307.158 49.8865C307.112 49.0619 308.387 49.0645 308.433 49.8865Z"
              fill="#E6E6E6"/>
        <path d="M282.341 85.3616L282.497 94.0022C282.512 94.8277 281.236 94.8278 281.221 94.0022C281.037 83.7971 280.563 84.1297 280.511 81.2495C280.496 80.424 281.772 80.4239 281.787 81.2495C281.787 81.2495 282.156 75.1565 282.341 85.3616Z"
              fill="#E6E6E6"/>
        <path d="M256.783 62.6626L256.639 86.904L256.598 93.8453C256.592 94.0115 256.522 94.169 256.403 94.2846C256.284 94.4001 256.125 94.4647 255.96 94.4647C255.795 94.4647 255.636 94.4001 255.517 94.2846C255.398 94.169 255.328 94.0115 255.322 93.8453L255.466 69.6039L255.508 62.6626C255.513 62.4964 255.583 62.3389 255.702 62.2233C255.821 62.1078 255.98 62.0432 256.145 62.0432C256.311 62.0432 256.47 62.1078 256.589 62.2233C256.708 62.3389 256.777 62.4964 256.783 62.6626Z"
              fill="#E6E6E6"/>
        <path d="M388.588 94.6502C389.644 91.7331 387.264 88.9275 384.819 87.6668C381.889 86.1565 378.519 85.8141 375.558 84.3581C371.144 82.1874 367.929 78.2916 365.068 74.3921C362.124 70.3784 359.429 66.0708 355.688 62.7359C353.716 60.9395 351.388 59.5845 348.856 58.7608C345.667 57.7599 342.284 57.6913 338.988 58.0946C332.178 58.9281 325.864 61.7563 319.293 63.5538C313.098 65.2486 306.272 66.2016 300.191 63.5662C297.101 62.2272 294.575 59.9816 291.861 58.0383C289.235 56.1378 286.298 54.7136 283.184 53.8299C277.08 52.1232 270.414 52.579 264.73 55.4642C259.506 58.0822 255.37 62.4716 253.052 67.8576C250.357 74.3289 250.708 81.5606 251.588 88.372C251.816 90.1326 252.086 91.8874 252.36 93.6413C252.486 94.4487 251.257 94.7964 251.13 93.9822C250.034 86.9585 248.942 79.7124 250.305 72.6445C251.484 66.4729 254.86 60.9447 259.799 57.0945C264.76 53.2337 270.927 51.2769 277.193 51.5752C280.477 51.7284 283.709 52.4513 286.748 53.7119C289.902 55.0237 292.573 56.9682 295.287 59.0141C298.076 61.1177 300.952 62.8577 304.415 63.5438C307.775 64.2093 311.269 63.9598 314.614 63.3315C321.515 62.035 327.948 59.0631 334.79 57.5404C341.13 56.1296 347.971 55.9886 353.648 59.5896C358.015 62.3597 361.101 66.66 364.062 70.8125C366.998 74.9285 369.97 79.33 374.263 82.1417C376.881 83.8569 379.825 84.4898 382.754 85.4543C385.69 86.4214 388.51 88.0528 389.707 91.0779C390.223 92.3238 390.263 93.7176 389.818 94.9911C389.54 95.7605 388.307 95.4283 388.588 94.6502V94.6502Z"
              fill="#E6E6E6"/>
        <path d="M361.365 71.3473L361.366 71.3481L361.363 71.3473H361.365Z" fill="#E6E6E6"/>
        <path d="M359.152 70.1677C359.447 69.6428 359.917 69.24 360.479 69.0308C361.042 68.8215 361.659 68.8195 362.223 69.0249C362.503 69.1277 362.76 69.286 362.978 69.4903C363.197 69.6947 363.372 69.941 363.494 70.2146C363.518 70.2728 363.533 70.3339 363.553 70.3935C363.58 70.4384 363.613 70.479 363.638 70.526C363.902 71.0556 363.975 71.6614 363.843 72.2389C363.711 72.8164 363.383 73.3296 362.915 73.6899C362.447 74.0503 361.869 74.2354 361.28 74.2133C360.691 74.1911 360.128 73.9632 359.688 73.5687C359.226 73.1486 358.921 72.5821 358.823 71.9633C358.726 71.3446 358.842 70.7109 359.152 70.1677ZM360.75 71.2567C360.744 71.2891 360.746 71.3188 360.75 71.2567V71.2567ZM360.912 70.8855C360.918 70.8783 360.917 70.879 360.912 70.8855V70.8855ZM361.628 71.1748C361.637 71.16 361.638 71.1575 361.628 71.1748V71.1748ZM361.458 71.3194C361.418 71.3333 361.434 71.3304 361.458 71.3194V71.3194ZM361.382 71.3557L361.365 71.348C361.37 71.3484 361.374 71.3476 361.377 71.3456L361.377 71.3456L361.364 71.3472L361.361 71.3461L361.369 71.3443C361.362 71.3441 361.361 71.345 361.361 71.346C361.285 71.3111 361.337 71.3279 361.381 71.3416L361.383 71.3409C361.411 71.3269 361.44 71.3174 361.471 71.3127C361.474 71.3111 361.477 71.31 361.479 71.3083C361.504 71.2908 361.627 71.1938 361.513 71.2955C361.538 71.2733 361.562 71.2516 361.586 71.2277C361.6 71.2135 361.612 71.198 361.623 71.1815C361.638 71.1556 361.653 71.1295 361.667 71.1031L361.669 71.0889C361.671 71.0771 361.672 71.0722 361.674 71.0651C361.673 71.0577 361.672 71.0498 361.671 71.0422C361.662 71.0191 361.657 70.995 361.655 70.9705L361.65 70.9643C361.631 70.9386 361.615 70.9086 361.598 70.8819C361.69 71.023 361.562 70.8663 361.552 70.8464C361.55 70.8431 361.553 70.8449 361.553 70.8426C361.549 70.8405 361.55 70.8419 361.545 70.8392C361.517 70.8223 361.49 70.8034 361.461 70.7872C361.426 70.7679 361.289 70.7289 361.431 70.7696C361.399 70.7603 361.368 70.7487 361.335 70.7402C361.33 70.7386 361.282 70.7319 361.256 70.7273C361.234 70.7267 361.212 70.726 361.21 70.726C361.199 70.7262 361.188 70.7275 361.178 70.7279C361.201 70.7311 361.097 70.7537 361.066 70.7585C361.062 70.762 361.06 70.7643 361.053 70.7687C361.027 70.7879 360.996 70.805 360.968 70.8229C361.091 70.7428 360.966 70.8293 360.943 70.853C360.929 70.8672 360.916 70.8823 360.902 70.8972C360.89 70.9114 360.879 70.9265 360.87 70.9425C360.849 70.9797 360.828 71.0174 360.807 71.0541L360.801 71.0635C360.801 71.0647 360.801 71.0659 360.801 71.0671C360.79 71.1266 360.774 71.1849 360.752 71.2414C360.751 71.2462 360.75 71.2511 360.75 71.2559C360.748 71.2885 360.745 71.3209 360.745 71.3537L360.745 71.3603C360.843 71.3088 360.952 71.2816 361.063 71.2808C361.174 71.28 361.283 71.3057 361.382 71.3557H361.382Z"
              fill="#E6E6E6"/>
        <path d="M361.36 71.3464C361.357 71.3472 361.36 71.3471 361.36 71.3473L361.36 71.3464Z" fill="#E6E6E6"/>
        <path d="M361.36 71.3463L361.359 71.3467L361.36 71.3463Z" fill="#E6E6E6"/>
        <path d="M361.361 71.347L361.362 71.3473C361.361 71.3475 361.361 71.3471 361.361 71.347Z" fill="#E6E6E6"/>
        <path d="M361.361 71.3459L361.36 71.3464L361.361 71.3459Z" fill="#E6E6E6"/>
        <path d="M334.155 59.3781L334.156 59.3789L334.153 59.3781H334.155Z" fill="#E6E6E6"/>
        <path d="M331.943 58.1984C332.238 57.6736 332.708 57.2707 333.27 57.0615C333.833 56.8523 334.451 56.8502 335.014 57.0557C335.294 57.1585 335.551 57.3167 335.769 57.5211C335.988 57.7254 336.163 57.9717 336.285 58.2454C336.309 58.3035 336.324 58.3647 336.344 58.4243C336.371 58.4692 336.404 58.5098 336.429 58.5568C336.694 59.0864 336.766 59.6921 336.634 60.2697C336.502 60.8472 336.174 61.3603 335.706 61.7207C335.238 62.0811 334.66 62.2661 334.071 62.244C333.482 62.2219 332.919 61.994 332.479 61.5995C332.017 61.1794 331.712 60.6128 331.614 59.9941C331.517 59.3753 331.633 58.7416 331.943 58.1984ZM333.541 59.2875C333.535 59.3198 333.537 59.3496 333.541 59.2875V59.2875ZM333.703 58.9163C333.709 58.909 333.708 58.9098 333.703 58.9163V58.9163ZM334.419 59.2056C334.428 59.1908 334.429 59.1883 334.419 59.2056V59.2056ZM334.249 59.3502C334.209 59.364 334.225 59.3611 334.249 59.3502V59.3502ZM334.173 59.3865L334.156 59.3788C334.161 59.3792 334.165 59.3783 334.168 59.3764L334.168 59.3763L334.155 59.378L334.152 59.3768L334.16 59.3751C334.153 59.3748 334.153 59.3757 334.152 59.3768C334.076 59.3418 334.128 59.3586 334.172 59.3723L334.175 59.3717C334.202 59.3576 334.232 59.3481 334.262 59.3435C334.265 59.3419 334.268 59.3407 334.27 59.339C334.295 59.3215 334.418 59.2246 334.304 59.3262C334.329 59.3041 334.353 59.2824 334.377 59.2585C334.391 59.2442 334.403 59.2288 334.414 59.2123C334.429 59.1864 334.444 59.1602 334.458 59.1339L334.46 59.1196C334.462 59.1078 334.463 59.1029 334.465 59.0958C334.464 59.0885 334.463 59.0806 334.462 59.073C334.453 59.0499 334.448 59.0258 334.446 59.0013L334.441 58.995C334.422 58.9693 334.406 58.9394 334.389 58.9126C334.481 59.0538 334.353 58.8971 334.343 58.8772C334.341 58.8738 334.344 58.8757 334.344 58.8733C334.34 58.8712 334.341 58.8727 334.336 58.87C334.308 58.853 334.281 58.8341 334.252 58.8179C334.217 58.7986 334.08 58.7597 334.222 58.8003C334.19 58.7911 334.159 58.7794 334.127 58.7709C334.121 58.7694 334.073 58.7627 334.047 58.758C334.025 58.7575 334.003 58.7568 334.001 58.7568C333.99 58.7569 333.979 58.7582 333.969 58.7587C333.992 58.7619 333.888 58.7845 333.857 58.7893C333.853 58.7928 333.851 58.795 333.845 58.7995C333.818 58.8187 333.787 58.8358 333.759 58.8537C333.882 58.7735 333.757 58.8601 333.734 58.8838C333.72 58.8979 333.707 58.913 333.694 58.9279C333.681 58.9421 333.67 58.9573 333.661 58.9732C333.64 59.0105 333.619 59.0482 333.598 59.0849L333.592 59.0943C333.592 59.0955 333.592 59.0967 333.592 59.0979C333.581 59.1573 333.565 59.2157 333.543 59.2722C333.542 59.277 333.541 59.2818 333.541 59.2867C333.539 59.3193 333.536 59.3517 333.536 59.3845L333.536 59.3911C333.634 59.3396 333.743 59.3123 333.854 59.3115C333.965 59.3107 334.074 59.3364 334.173 59.3865Z"
              fill="#E6E6E6"/>
        <path d="M334.151 59.3779L334.152 59.3781C334.151 59.3783 334.151 59.378 334.151 59.3779Z" fill="#E6E6E6"/>
        <path d="M334.151 59.3767L334.15 59.3772L334.151 59.3767Z" fill="#E6E6E6"/>
        <path d="M334.15 59.3772C334.147 59.378 334.15 59.3779 334.15 59.3781L334.15 59.3772Z" fill="#E6E6E6"/>
        <path d="M334.15 59.3771L334.149 59.3774L334.15 59.3771Z" fill="#E6E6E6"/>
        <path d="M307.792 65.3613L307.791 65.3618L307.792 65.3613Z" fill="#E6E6E6"/>
        <path d="M305.583 46.2292C305.878 45.7043 306.348 45.3015 306.91 45.0923C307.472 44.8831 308.09 44.881 308.654 45.0864C308.934 45.1892 309.191 45.3475 309.409 45.5519C309.627 45.7562 309.803 46.0025 309.925 46.2761C309.949 46.3343 309.963 46.3955 309.983 46.455C310.011 46.5 310.044 46.5405 310.069 46.5875C310.333 47.1172 310.406 47.7229 310.273 48.3004C310.141 48.8779 309.813 49.3911 309.345 49.7515C308.878 50.1118 308.299 50.2969 307.71 50.2748C307.121 50.2527 306.559 50.0247 306.119 49.6302C305.657 49.2101 305.351 48.6436 305.254 48.0248C305.156 47.4061 305.272 46.7724 305.583 46.2292ZM307.18 47.3182C307.175 47.3506 307.177 47.3804 307.18 47.3182V47.3182ZM307.343 46.947C307.349 46.9398 307.348 46.9406 307.343 46.947V46.947ZM308.058 47.2364C308.068 47.2215 308.069 47.2191 308.058 47.2364V47.2364ZM307.889 47.381C307.848 47.3948 307.864 47.3919 307.889 47.381V47.381ZM307.813 47.4173L307.796 47.4095C307.8 47.4099 307.804 47.4091 307.808 47.4072L307.808 47.4071L307.794 47.4087L307.792 47.4076L307.8 47.4058C307.793 47.4056 307.792 47.4065 307.792 47.4075C307.716 47.3726 307.767 47.3894 307.811 47.4031L307.814 47.4024C307.842 47.3884 307.871 47.3789 307.902 47.3742C307.904 47.3726 307.908 47.3715 307.91 47.3698C307.935 47.3523 308.058 47.2554 307.943 47.357C307.968 47.3349 307.993 47.3131 308.016 47.2893C308.03 47.275 308.043 47.2595 308.054 47.243C308.069 47.2171 308.083 47.191 308.098 47.1646L308.1 47.1504C308.102 47.1386 308.103 47.1337 308.104 47.1266C308.104 47.1192 308.103 47.1114 308.101 47.1037C308.093 47.0807 308.087 47.0566 308.085 47.0321L308.08 47.0258C308.062 47.0001 308.046 46.9701 308.028 46.9434C308.121 47.0846 307.992 46.9278 307.983 46.908C307.981 46.9046 307.984 46.9064 307.983 46.9041C307.98 46.902 307.981 46.9034 307.976 46.9008C307.947 46.8838 307.92 46.8649 307.891 46.8487C307.857 46.8294 307.72 46.7904 307.862 46.8311C307.83 46.8219 307.799 46.8102 307.766 46.8017C307.76 46.8001 307.713 46.7934 307.687 46.7888C307.664 46.7882 307.643 46.7875 307.64 46.7876C307.63 46.7877 307.619 46.789 307.609 46.7895C307.632 46.7926 307.528 46.8152 307.497 46.82C307.493 46.8235 307.49 46.8258 307.484 46.8303C307.458 46.8495 307.426 46.8665 307.399 46.8845C307.522 46.8043 307.397 46.8908 307.374 46.9145C307.359 46.9287 307.346 46.9438 307.333 46.9587C307.321 46.9729 307.31 46.988 307.3 47.004C307.28 47.0413 307.259 47.079 307.237 47.1156L307.231 47.125C307.232 47.1262 307.232 47.1274 307.232 47.1287C307.221 47.1881 307.204 47.2464 307.183 47.303C307.182 47.3077 307.181 47.3126 307.18 47.3175C307.178 47.35 307.176 47.3825 307.176 47.4152L307.176 47.4218C307.274 47.3703 307.383 47.3431 307.494 47.3423C307.605 47.3415 307.714 47.3672 307.813 47.4173Z"
              fill="#E6E6E6"/>
        <path d="M307.794 65.3627L307.796 65.3635L307.793 65.3627H307.794Z" fill="#E6E6E6"/>
        <path d="M307.791 65.3617L307.79 65.362L307.791 65.3617Z" fill="#E6E6E6"/>
        <path d="M307.792 65.3625L307.793 65.3628C307.791 65.363 307.792 65.3627 307.792 65.3625Z" fill="#E6E6E6"/>
        <path d="M307.791 65.3618C307.788 65.3626 307.79 65.3625 307.791 65.3627L307.791 65.3618Z" fill="#E6E6E6"/>
        <path d="M278.799 79.1446C279.093 78.6197 279.564 78.2169 280.126 78.0077C280.688 77.7985 281.306 77.7964 281.87 78.0018C282.15 78.1046 282.407 78.2629 282.625 78.4673C282.843 78.6716 283.018 78.9179 283.14 79.1915C283.165 79.2497 283.179 79.3109 283.199 79.3705C283.227 79.4154 283.26 79.4559 283.285 79.5029C283.549 80.0326 283.621 80.6383 283.489 81.2158C283.357 81.7933 283.029 82.3065 282.561 82.6669C282.093 83.0273 281.515 83.2123 280.926 83.1902C280.337 83.1681 279.774 82.9401 279.335 82.5457C278.872 82.1255 278.567 81.559 278.47 80.9402C278.372 80.3215 278.488 79.6878 278.799 79.1446ZM280.396 80.2336C280.391 80.266 280.393 80.2958 280.396 80.2336V80.2336ZM280.558 79.8624C280.565 79.8552 280.564 79.856 280.558 79.8624V79.8624ZM281.274 80.1518C281.284 80.1369 281.285 80.1345 281.274 80.1518V80.1518ZM281.104 80.2964C281.064 80.3102 281.08 80.3073 281.104 80.2964V80.2964ZM281.029 80.3327L281.012 80.3249C281.016 80.3253 281.02 80.3245 281.024 80.3226L281.023 80.3225L281.01 80.3241L281.008 80.323L281.015 80.3212C281.009 80.321 281.008 80.3219 281.008 80.3229C280.932 80.288 280.983 80.3048 281.027 80.3185L281.03 80.3178C281.057 80.3038 281.087 80.2943 281.117 80.2896C281.12 80.288 281.124 80.2869 281.126 80.2852C281.15 80.2677 281.274 80.1708 281.159 80.2724C281.184 80.2503 281.209 80.2285 281.232 80.2047C281.246 80.1904 281.259 80.1749 281.27 80.1584C281.285 80.1325 281.299 80.1064 281.313 80.08L281.315 80.0658C281.317 80.054 281.319 80.0491 281.32 80.042C281.32 80.0347 281.318 80.0268 281.317 80.0191C281.309 79.9961 281.303 79.972 281.301 79.9475L281.296 79.9412C281.278 79.9155 281.262 79.8855 281.244 79.8588C281.337 80 281.208 79.8432 281.199 79.8234C281.197 79.82 281.2 79.8218 281.199 79.8195C281.195 79.8174 281.196 79.8188 281.192 79.8162C281.163 79.7992 281.136 79.7803 281.107 79.7641C281.072 79.7448 280.936 79.7058 281.077 79.7465C281.045 79.7373 281.014 79.7256 280.982 79.7171C280.976 79.7155 280.928 79.7088 280.903 79.7042C280.88 79.7036 280.858 79.7029 280.856 79.703C280.846 79.7031 280.835 79.7044 280.824 79.7049C280.848 79.708 280.744 79.7306 280.713 79.7354C280.708 79.7389 280.706 79.7412 280.7 79.7457C280.674 79.7649 280.642 79.7819 280.615 79.7999C280.738 79.7197 280.613 79.8062 280.589 79.8299C280.575 79.8441 280.562 79.8592 280.549 79.8741C280.537 79.8883 280.526 79.9034 280.516 79.9194C280.496 79.9567 280.474 79.9944 280.453 80.031L280.447 80.0404C280.447 80.0416 280.447 80.0429 280.447 80.0441C280.436 80.1035 280.42 80.1618 280.399 80.2184C280.398 80.2231 280.397 80.228 280.396 80.2329C280.394 80.2654 280.392 80.2979 280.391 80.3306L280.392 80.3372C280.49 80.2858 280.599 80.2585 280.71 80.2577C280.82 80.2569 280.93 80.2826 281.029 80.3327Z"
              fill="#E6E6E6"/>
        <path d="M281.01 52.111L281.012 52.1118L281.009 52.111H281.01Z" fill="#E6E6E6"/>
        <path d="M281.007 52.1101L281.006 52.1104L281.007 52.1101Z" fill="#E6E6E6"/>
        <path d="M281.006 52.1108L281.008 52.1111C281.006 52.1112 281.007 52.1109 281.006 52.1108Z" fill="#E6E6E6"/>
        <path d="M281.005 52.1102C281.003 52.111 281.005 52.1109 281.006 52.1111L281.005 52.1102Z" fill="#E6E6E6"/>
        <path d="M281.008 52.1097L281.007 52.1102L281.008 52.1097Z" fill="#E6E6E6"/>
        <path d="M255.923 60.6595L255.922 60.6599L255.923 60.6595Z" fill="#E6E6E6"/>
        <path d="M253.715 59.4809C254.009 58.956 254.48 58.5532 255.042 58.344C255.604 58.1348 256.222 58.1327 256.786 58.3381C257.066 58.441 257.323 58.5992 257.541 58.8036C257.759 59.0079 257.934 59.2542 258.056 59.5278C258.081 59.586 258.095 59.6472 258.115 59.7068C258.143 59.7517 258.176 59.7922 258.201 59.8392C258.465 60.3689 258.537 60.9746 258.405 61.5521C258.273 62.1296 257.945 62.6428 257.477 63.0032C257.009 63.3636 256.431 63.5486 255.842 63.5265C255.253 63.5044 254.69 63.2764 254.251 62.882C253.788 62.4618 253.483 61.8953 253.386 61.2765C253.288 60.6578 253.404 60.0241 253.715 59.4809ZM255.312 60.5699C255.307 60.6023 255.309 60.6321 255.312 60.5699V60.5699ZM255.474 60.1987C255.481 60.1915 255.48 60.1923 255.474 60.1987V60.1987ZM256.19 60.4881C256.2 60.4733 256.201 60.4708 256.19 60.4881V60.4881ZM256.02 60.6327C255.98 60.6465 255.996 60.6436 256.02 60.6327V60.6327ZM255.945 60.669L255.928 60.6612C255.932 60.6616 255.936 60.6608 255.94 60.6589L255.939 60.6588L255.926 60.6604L255.924 60.6593L255.931 60.6575C255.925 60.6573 255.924 60.6582 255.924 60.6592C255.848 60.6243 255.899 60.6411 255.943 60.6548L255.946 60.6541C255.973 60.6401 256.003 60.6306 256.033 60.6259C256.036 60.6243 256.04 60.6232 256.042 60.6215C256.066 60.604 256.19 60.5071 256.075 60.6087C256.1 60.5866 256.125 60.5648 256.148 60.541C256.162 60.5267 256.175 60.5112 256.186 60.4947C256.201 60.4688 256.215 60.4427 256.229 60.4163L256.231 60.4021C256.233 60.3903 256.235 60.3854 256.236 60.3783C256.236 60.371 256.234 60.3631 256.233 60.3554C256.225 60.3324 256.219 60.3083 256.217 60.2838L256.212 60.2775C256.194 60.2518 256.178 60.2218 256.16 60.1951C256.253 60.3363 256.124 60.1795 256.115 60.1597C256.113 60.1563 256.116 60.1581 256.115 60.1558C256.111 60.1537 256.112 60.1551 256.108 60.1525C256.079 60.1355 256.052 60.1166 256.023 60.1004C255.988 60.0811 255.852 60.0421 255.994 60.0828C255.961 60.0736 255.931 60.0619 255.898 60.0534C255.892 60.0518 255.844 60.0451 255.819 60.0405C255.796 60.0399 255.774 60.0392 255.772 60.0393C255.762 60.0394 255.751 60.0407 255.74 60.0412C255.764 60.0443 255.66 60.067 255.629 60.0717C255.624 60.0752 255.622 60.0775 255.616 60.082C255.59 60.1012 255.558 60.1182 255.531 60.1362C255.654 60.056 255.529 60.1425 255.505 60.1662C255.491 60.1804 255.478 60.1955 255.465 60.2104C255.453 60.2246 255.442 60.2397 255.432 60.2557C255.412 60.293 255.39 60.3307 255.369 60.3673L255.363 60.3767C255.363 60.3779 255.363 60.3792 255.363 60.3804C255.352 60.4398 255.336 60.4981 255.315 60.5547C255.314 60.5595 255.313 60.5643 255.312 60.5692C255.31 60.6017 255.308 60.6342 255.307 60.6669L255.308 60.6735C255.406 60.6221 255.515 60.5948 255.626 60.594C255.736 60.5932 255.846 60.6189 255.945 60.669Z"
              fill="#E6E6E6"/>
        <path d="M255.926 60.6604L255.928 60.6612L255.925 60.6604H255.926Z" fill="#E6E6E6"/>
        <path d="M255.923 60.6592L255.922 60.6597L255.923 60.6592Z" fill="#E6E6E6"/>
        <path d="M255.921 60.6597C255.919 60.6605 255.921 60.6603 255.922 60.6605L255.921 60.6597Z" fill="#E6E6E6"/>
        <path d="M255.922 60.6603L255.924 60.6605C255.922 60.6607 255.923 60.6604 255.922 60.6603Z" fill="#E6E6E6"/>
        <path d="M262.8 80.2507L282.568 81.3554C282.68 81.3617 282.789 81.3247 282.874 81.2521C282.959 81.1796 283.014 81.0769 283.026 80.9653C283.038 80.8538 283.007 80.7418 282.939 80.6525C282.872 80.5632 282.773 80.5034 282.662 80.4854L262.457 77.1796L262.8 80.2507Z"
              fill="#3F3D56"/>
        <path d="M237.677 124.501L230.227 111.9L224.721 114.515C224.721 114.515 234.209 126.429 234.511 126.772C234.381 127.351 234.43 127.956 234.65 128.507C234.87 129.057 235.251 129.528 235.743 129.856C236.235 130.185 236.814 130.355 237.404 130.345C237.994 130.335 238.568 130.145 239.048 129.801C239.529 129.456 239.894 128.973 240.095 128.415C240.297 127.857 240.325 127.25 240.177 126.676C240.028 126.102 239.709 125.586 239.263 125.198C238.816 124.809 238.263 124.566 237.677 124.501Z"
              fill="#FFB6B6"/>
        <path d="M234.579 95.2296L222.51 101.561C221.755 102.107 221.123 102.806 220.652 103.612C220.182 104.418 219.884 105.314 219.778 106.242C219.671 107.171 219.758 108.112 220.034 109.004C220.31 109.897 220.768 110.722 221.379 111.426L229.699 121.023L233.324 116.084L230.53 110.211L235.939 108.777L234.579 95.2296Z"
              fill="#0077C8"/>
        <path d="M268.972 80.4567L270.332 95.0519L276.421 95.0621C276.421 95.0621 272.927 80.2092 272.8 79.7692C273.164 79.3018 273.378 78.7343 273.414 78.1419C273.45 77.5494 273.307 76.96 273.002 76.4514C272.698 75.9429 272.247 75.5392 271.709 75.2939C271.172 75.0485 270.573 74.973 269.992 75.0774C269.411 75.1818 268.875 75.461 268.455 75.8783C268.035 76.2956 267.751 76.8312 267.641 77.4142C267.53 77.9973 267.598 78.6003 267.836 79.1436C268.074 79.6869 268.47 80.1447 268.972 80.4567V80.4567Z"
              fill="#FFB6B6"/>
        <path d="M256.851 110.303L270.866 107.719C276.768 107.006 279.19 103.101 278.125 99.2931L274.698 87.0374L269.318 89.9374L269.339 96.4479L261.808 95.4127L256.851 110.303Z"
              fill="#0077C8"/>
        <path d="M262.588 211.168H266.441L268.274 196.223H262.587L262.588 211.168Z" fill="#FFB6B6"/>
        <path d="M262.452 215.21L274.303 215.21V215.059C274.303 213.829 273.817 212.65 272.952 211.78C272.087 210.91 270.913 210.421 269.69 210.421H269.69L267.525 208.77L263.487 210.422L262.452 210.422L262.452 215.21Z"
              fill="#2F2E41"/>
        <path d="M235.32 211.168H231.467L229.634 196.223H235.321L235.32 211.168Z" fill="#FFB6B6"/>
        <path d="M235.457 215.21L223.606 215.21V215.059C223.606 213.829 224.092 212.65 224.957 211.78C225.822 210.91 226.996 210.421 228.219 210.421H228.219L230.384 208.77L234.423 210.422L235.457 210.422L235.457 215.21Z"
              fill="#2F2E41"/>
        <path d="M268.445 185.24C268.388 184.387 267.935 179.671 267.935 179.671L266.851 169.669L264.941 143.157L263.238 136.188L254.809 139.489L247.97 136.193L239.84 138.806L233.51 141.192C233.51 141.192 233.5 142.214 233.451 143.448C233.386 145.064 233.272 147.045 233.001 147.56C232.548 148.47 232.662 153.355 232.662 153.355C232.662 153.355 232.212 163.294 231.646 164.384C231.08 165.473 230.966 167.743 231.137 168.198C231.307 168.653 230.57 180.589 230.57 180.589C230.57 180.589 228.679 201.712 229.865 204.897C231.052 208.082 235.537 205.996 235.537 205.996C235.537 205.996 235.321 205.146 236.621 204.745C237.922 204.344 241.884 174.394 241.884 174.394C241.884 174.394 242.621 168.252 243.298 166.492C243.976 164.732 244.599 159.787 244.599 159.787C244.599 159.787 248.783 151.603 248.837 149.783C248.837 149.783 249.384 148.08 249.902 149.954C250.419 151.829 251.945 156.319 251.945 156.319L253.433 161.833L255.183 170.072L256.316 177.009C256.316 177.009 258.012 186.215 258.283 186.613C258.554 187.011 258.283 195.422 258.283 195.422C258.283 195.422 259.595 202.584 261.448 203.835C263.302 205.086 268.212 203.855 268.212 203.855C268.212 203.855 268.502 186.093 268.445 185.24Z"
              fill="#2F2E41"/>
        <path d="M262.144 113.764L263.221 127.793L264.839 129.477C264.985 129.629 265.099 129.809 265.174 130.006C265.249 130.203 265.284 130.413 265.276 130.624C265.268 130.835 265.219 131.042 265.129 131.233C265.04 131.425 264.914 131.596 264.757 131.736L265.649 133.274L265.964 138.117C266.054 138.494 266.06 138.886 265.982 139.265C265.904 139.645 265.744 140.002 265.512 140.312C265.281 140.622 264.984 140.877 264.643 141.058C264.303 141.24 263.926 141.343 263.541 141.361L235.638 142.679C235.255 142.697 234.873 142.631 234.518 142.484C234.164 142.337 233.846 142.114 233.586 141.83C233.327 141.547 233.133 141.209 233.018 140.841C232.902 140.474 232.869 140.085 232.919 139.703L235.292 121.743V120.401L236.354 117.807L235.808 109.119L234.538 95.3294L241.92 93.4123L245.922 90.6436L252.876 90.7549L257.095 94.2388L262.72 95.1246L266.975 95.9749L267.517 97.1591L266.433 96.9223L262.504 112.329L262.144 113.764Z"
              fill="#0077C8"/>
        <path d="M249.554 88.7637C245.03 88.7637 241.363 85.0764 241.363 80.528C241.363 75.9796 245.03 72.2924 249.554 72.2924C254.078 72.2924 257.745 75.9796 257.745 80.528C257.745 85.0764 254.078 88.7637 249.554 88.7637Z"
              fill="#FFB6B6"/>
        <path d="M251.529 88.2324L245.611 87.9289C244.853 87.89 244.025 87.8227 243.474 87.2981C243.177 86.974 242.949 86.5928 242.803 86.1776C242.256 84.8998 241.708 83.622 241.175 82.3382C240.438 80.5625 239.714 78.6877 239.902 76.7727C239.946 75.8982 240.311 75.0711 240.926 74.4511C241.24 74.1524 241.643 73.9666 242.073 73.9228C242.503 73.8789 242.935 73.9796 243.302 74.209C243.394 73.6033 243.621 73.0264 243.966 72.5219C244.312 72.0173 244.767 71.5984 245.297 71.2968C246.368 70.702 247.591 70.4413 248.81 70.548C250.579 70.6627 252.267 71.3318 253.638 72.4613C254.024 72.819 254.435 73.147 254.87 73.4427C255.088 73.5896 255.334 73.6902 255.593 73.7382C255.851 73.7863 256.117 73.7809 256.373 73.7224C256.627 73.6541 256.848 73.4958 256.995 73.2766C257.141 73.0575 257.204 72.7923 257.172 72.5301C257.589 72.8434 257.874 73.3016 257.973 73.8153C258.072 74.329 257.977 74.8614 257.707 75.3085C258.014 75.4379 258.35 75.4853 258.68 75.4459C259.011 75.4066 259.326 75.2819 259.595 75.084C259.883 75.2276 260.138 75.4301 260.343 75.6785C260.549 75.9269 260.7 76.2157 260.789 76.5264C260.877 76.8371 260.899 77.1629 260.855 77.4829C260.811 77.803 260.7 78.1101 260.531 78.3848C260.362 78.6595 260.137 78.8956 259.872 79.078C259.607 79.2604 259.307 79.3851 258.991 79.4441C258.675 79.5031 258.35 79.4951 258.037 79.4207C257.724 79.3462 257.431 79.2069 257.175 79.0117C256.815 79.5176 256.949 80.2049 256.996 80.8247C257.043 81.4444 256.878 82.2146 256.283 82.3859C255.48 82.6174 254.829 81.5299 253.994 81.5415C253.788 81.5584 253.589 81.6261 253.415 81.7387C253.241 81.8514 253.098 82.0054 252.997 82.1871C252.8 82.5524 252.666 82.9481 252.598 83.358L251.529 88.1987"
              fill="#2F2E41"/>
        <path d="M20.779 162.284C20.779 161.009 21.205 159.974 21.728 159.972H164.301C164.826 159.974 165.25 161.009 165.252 162.284V214.782C165.252 214.9 165.296 215.014 165.375 215.102C165.454 215.19 165.563 215.245 165.68 215.256C166.063 215.293 166.446 215.328 166.828 215.359C166.838 215.359 166.847 215.362 166.857 215.362C167.065 215.381 167.273 215.395 167.482 215.412H167.484C167.591 215.213 167.697 215.012 167.802 214.809C167.837 214.741 167.855 214.665 167.855 214.588V159.284C167.855 158.932 167.841 158.577 167.818 158.228C167.784 157.747 167.725 157.269 167.64 156.795C167.24 154.585 166.336 153.088 165.309 153.083H20.7223C20.5724 153.084 20.4243 153.116 20.2869 153.176C20.0851 153.266 19.9026 153.395 19.7497 153.555C19.5421 153.772 19.3646 154.016 19.222 154.28C18.6328 155.461 18.2935 156.751 18.2257 158.07C18.2257 158.085 18.2234 158.099 18.2234 158.113C18.1902 158.499 18.1737 158.891 18.176 159.284L18.1429 164.383L18.1216 167.424L18.0577 176.965L18.034 180.353L17.9299 215.138C17.9299 215.264 17.9798 215.385 18.0686 215.475C18.1573 215.564 18.2777 215.614 18.4032 215.614H20.3058C20.4313 215.614 20.5517 215.564 20.6404 215.475C20.7292 215.385 20.779 215.264 20.779 215.138V162.284Z"
              fill="#E6E6E6"/>
        <path d="M59.5212 129.225H74.8837C75.1011 129.225 75.3093 129.312 75.4628 129.467C75.6163 129.622 75.7024 129.831 75.7021 130.05V154.45H58.7007V130.05C58.7006 129.942 58.7218 129.834 58.763 129.734C58.8042 129.634 58.8647 129.543 58.9409 129.466C59.0171 129.39 59.1076 129.329 59.2071 129.288C59.3067 129.246 59.4135 129.225 59.5212 129.225ZM67.1508 143.089C67.6312 143.087 68.0913 142.894 68.431 142.552C68.7708 142.211 68.9626 141.748 68.9648 141.265V138.451C68.9648 137.967 68.7737 137.503 68.4335 137.161C68.0933 136.819 67.6319 136.627 67.1508 136.627C66.6697 136.627 66.2083 136.819 65.8681 137.161C65.5279 137.503 65.3367 137.967 65.3367 138.451V141.265C65.339 141.748 65.5308 142.211 65.8705 142.552C66.2103 142.894 66.6704 143.087 67.1508 143.089Z"
              fill="#CCCCCC"/>
        <path d="M75.7549 153.67V156.024C75.7546 156.146 75.7063 156.263 75.6205 156.349C75.5348 156.435 75.4185 156.484 75.2971 156.484H59.1057C58.9844 156.484 58.8684 156.435 58.7827 156.349C58.697 156.263 58.6485 156.146 58.6479 156.024V153.67H75.7549Z"
              fill="#3F3D56"/>
        <path d="M34.0818 91.145H99.7505C100.315 91.1459 100.856 91.3717 101.255 91.7728C101.653 92.1739 101.878 92.7177 101.879 93.285V137.84C101.878 138.408 101.654 138.951 101.255 139.353C100.856 139.754 100.315 139.98 99.7505 139.98H34.0818C33.5175 139.98 32.9765 139.754 32.5774 139.353C32.1784 138.951 31.954 138.408 31.9535 137.84V93.285C31.9544 92.7177 32.1789 92.1739 32.5778 91.7728C32.9768 91.3717 33.5176 91.1459 34.0818 91.145Z"
              fill="#E6E6E6"/>
        <path d="M34.6297 92.6907H99.2016C99.5037 92.6913 99.7932 92.8124 100.007 93.0274C100.22 93.2424 100.34 93.5338 100.34 93.8375V137.288C100.339 137.592 100.219 137.882 100.006 138.097C99.7925 138.312 99.5033 138.432 99.2016 138.433H34.6297C34.328 138.432 34.0388 138.312 33.8254 138.097C33.6121 137.882 33.492 137.592 33.4915 137.288V93.8375C33.4915 93.5338 33.6113 93.2424 33.8247 93.0274C34.0381 92.8124 34.3276 92.6913 34.6297 92.6907Z"
              fill="white"/>
        <path d="M47.2076 157.304H85.6244C85.7295 157.304 85.8333 157.28 85.9283 157.234C86.0232 157.189 86.1069 157.123 86.1731 157.041C86.2394 156.959 86.2866 156.863 86.3113 156.76C86.336 156.657 86.3376 156.55 86.3159 156.447L85.7198 153.6C85.6859 153.441 85.5988 153.298 85.473 153.195C85.3472 153.093 85.1903 153.036 85.0283 153.036H47.8036C47.6416 153.036 47.4847 153.093 47.3589 153.195C47.2332 153.298 47.146 153.441 47.1121 153.6L46.516 156.447C46.4944 156.55 46.4959 156.657 46.5206 156.76C46.5453 156.863 46.5926 156.959 46.6588 157.041C46.7251 157.123 46.8087 157.189 46.9036 157.234C46.9986 157.28 47.1024 157.304 47.2076 157.304Z"
              fill="#CCCCCC"/>
        <path d="M83.7802 153.548H84.5483C84.6629 153.548 84.7559 153.642 84.7559 153.757V154.054C84.7559 154.169 84.6629 154.262 84.5483 154.262H83.7802C83.6656 154.262 83.5727 154.169 83.5727 154.054V153.757C83.5727 153.642 83.6656 153.548 83.7802 153.548Z"
              fill="#E6E6E6"/>
        <path d="M81.413 153.548H82.1811C82.2958 153.548 82.3887 153.642 82.3887 153.757V154.054C82.3887 154.169 82.2958 154.262 82.1811 154.262H81.413C81.2984 154.262 81.2055 154.169 81.2055 154.054V153.757C81.2055 153.642 81.2984 153.548 81.413 153.548Z"
              fill="#E6E6E6"/>
        <path d="M79.0468 153.548H79.8149C79.9295 153.548 80.0225 153.642 80.0225 153.757V154.054C80.0225 154.169 79.9295 154.262 79.8149 154.262H79.0468C78.9322 154.262 78.8393 154.169 78.8393 154.054V153.757C78.8393 153.642 78.9322 153.548 79.0468 153.548Z"
              fill="#E6E6E6"/>
        <path d="M76.6806 153.548H77.4487C77.5633 153.548 77.6562 153.642 77.6562 153.757V154.054C77.6562 154.169 77.5633 154.262 77.4487 154.262H76.6806C76.566 154.262 76.4731 154.169 76.4731 154.054V153.757C76.4731 153.642 76.566 153.548 76.6806 153.548Z"
              fill="#E6E6E6"/>
        <path d="M74.3144 153.548H75.0825C75.1971 153.548 75.29 153.642 75.29 153.757V154.054C75.29 154.169 75.1971 154.262 75.0825 154.262H74.3144C74.1998 154.262 74.1069 154.169 74.1069 154.054V153.757C74.1069 153.642 74.1998 153.548 74.3144 153.548Z"
              fill="#E6E6E6"/>
        <path d="M71.9482 153.548H72.7163C72.8309 153.548 72.9238 153.642 72.9238 153.757V154.054C72.9238 154.169 72.8309 154.262 72.7163 154.262H71.9482C71.8336 154.262 71.7406 154.169 71.7406 154.054V153.757C71.7406 153.642 71.8336 153.548 71.9482 153.548Z"
              fill="#E6E6E6"/>
        <path d="M69.581 153.548H70.3491C70.4637 153.548 70.5566 153.642 70.5566 153.757V154.054C70.5566 154.169 70.4637 154.262 70.3491 154.262H69.581C69.4664 154.262 69.3735 154.169 69.3735 154.054V153.757C69.3735 153.642 69.4664 153.548 69.581 153.548Z"
              fill="#E6E6E6"/>
        <path d="M67.2148 153.548H67.9829C68.0975 153.548 68.1904 153.642 68.1904 153.757V154.054C68.1904 154.169 68.0975 154.262 67.9829 154.262H67.2148C67.1002 154.262 67.0072 154.169 67.0072 154.054V153.757C67.0072 153.642 67.1002 153.548 67.2148 153.548Z"
              fill="#E6E6E6"/>
        <path d="M64.8486 153.548H65.6167C65.7313 153.548 65.8242 153.642 65.8242 153.757V154.054C65.8242 154.169 65.7313 154.262 65.6167 154.262H64.8486C64.7339 154.262 64.641 154.169 64.641 154.054V153.757C64.641 153.642 64.7339 153.548 64.8486 153.548Z"
              fill="#E6E6E6"/>
        <path d="M62.4824 153.548H63.2505C63.3651 153.548 63.458 153.642 63.458 153.757V154.054C63.458 154.169 63.3651 154.262 63.2505 154.262H62.4824C62.3677 154.262 62.2748 154.169 62.2748 154.054V153.757C62.2748 153.642 62.3677 153.548 62.4824 153.548Z"
              fill="#E6E6E6"/>
        <path d="M60.1162 153.548H60.8843C60.9989 153.548 61.0918 153.642 61.0918 153.757V154.054C61.0918 154.169 60.9989 154.262 60.8843 154.262H60.1162C60.0015 154.262 59.9086 154.169 59.9086 154.054V153.757C59.9086 153.642 60.0015 153.548 60.1162 153.548Z"
              fill="#E6E6E6"/>
        <path d="M57.7499 153.548H58.518C58.6326 153.548 58.7256 153.642 58.7256 153.757V154.054C58.7256 154.169 58.6326 154.262 58.518 154.262H57.7499C57.6353 154.262 57.5424 154.169 57.5424 154.054V153.757C57.5424 153.642 57.6353 153.548 57.7499 153.548Z"
              fill="#E6E6E6"/>
        <path d="M55.3828 153.548H56.1508C56.2655 153.548 56.3584 153.642 56.3584 153.757V154.054C56.3584 154.169 56.2655 154.262 56.1508 154.262H55.3828C55.2681 154.262 55.1752 154.169 55.1752 154.054V153.757C55.1752 153.642 55.2681 153.548 55.3828 153.548Z"
              fill="#E6E6E6"/>
        <path d="M53.0165 153.548H53.7846C53.8992 153.548 53.9922 153.642 53.9922 153.757V154.054C53.9922 154.169 53.8992 154.262 53.7846 154.262H53.0165C52.9019 154.262 52.809 154.169 52.809 154.054V153.757C52.809 153.642 52.9019 153.548 53.0165 153.548Z"
              fill="#E6E6E6"/>
        <path d="M50.6503 153.548H51.4184C51.533 153.548 51.626 153.642 51.626 153.757V154.054C51.626 154.169 51.533 154.262 51.4184 154.262H50.6503C50.5357 154.262 50.4428 154.169 50.4428 154.054V153.757C50.4428 153.642 50.5357 153.548 50.6503 153.548Z"
              fill="#E6E6E6"/>
        <path d="M48.2841 153.548H49.0522C49.1668 153.548 49.2598 153.642 49.2598 153.757V154.054C49.2598 154.169 49.1668 154.262 49.0522 154.262H48.2841C48.1695 154.262 48.0766 154.169 48.0766 154.054V153.757C48.0766 153.642 48.1695 153.548 48.2841 153.548Z"
              fill="#E6E6E6"/>
        <path d="M83.8076 154.738H84.5756C84.6903 154.738 84.7832 154.832 84.7832 154.947V155.243C84.7832 155.359 84.6903 155.452 84.5756 155.452H83.8076C83.6929 155.452 83.6 155.359 83.6 155.243V154.947C83.6 154.832 83.6929 154.738 83.8076 154.738Z"
              fill="#E6E6E6"/>
        <path d="M81.4413 154.738H82.2094C82.3241 154.738 82.417 154.832 82.417 154.947V155.243C82.417 155.359 82.3241 155.452 82.2094 155.452H81.4413C81.3267 155.452 81.2338 155.359 81.2338 155.243V154.947C81.2338 154.832 81.3267 154.738 81.4413 154.738Z"
              fill="#E6E6E6"/>
        <path d="M79.0751 154.738H79.8432C79.9578 154.738 80.0508 154.832 80.0508 154.947V155.243C80.0508 155.359 79.9578 155.452 79.8432 155.452H79.0751C78.9605 155.452 78.8676 155.359 78.8676 155.243V154.947C78.8676 154.832 78.9605 154.738 79.0751 154.738Z"
              fill="#E6E6E6"/>
        <path d="M76.7089 154.738H77.477C77.5916 154.738 77.6846 154.832 77.6846 154.947V155.243C77.6846 155.359 77.5916 155.452 77.477 155.452H76.7089C76.5943 155.452 76.5014 155.359 76.5014 155.243V154.947C76.5014 154.832 76.5943 154.738 76.7089 154.738Z"
              fill="#E6E6E6"/>
        <path d="M74.3427 154.738H75.1108C75.2254 154.738 75.3184 154.832 75.3184 154.947V155.243C75.3184 155.359 75.2254 155.452 75.1108 155.452H74.3427C74.2281 155.452 74.1351 155.359 74.1351 155.243V154.947C74.1351 154.832 74.2281 154.738 74.3427 154.738Z"
              fill="#E6E6E6"/>
        <path d="M71.9755 154.738H72.7436C72.8582 154.738 72.9512 154.832 72.9512 154.947V155.243C72.9512 155.359 72.8582 155.452 72.7436 155.452H71.9755C71.8609 155.452 71.768 155.359 71.768 155.243V154.947C71.768 154.832 71.8609 154.738 71.9755 154.738Z"
              fill="#E6E6E6"/>
        <path d="M69.6093 154.738H70.3774C70.492 154.738 70.585 154.832 70.585 154.947V155.243C70.585 155.359 70.492 155.452 70.3774 155.452H69.6093C69.4947 155.452 69.4017 155.359 69.4017 155.243V154.947C69.4017 154.832 69.4947 154.738 69.6093 154.738Z"
              fill="#E6E6E6"/>
        <path d="M67.2431 154.738H68.0112C68.1258 154.738 68.2188 154.832 68.2188 154.947V155.243C68.2188 155.359 68.1258 155.452 68.0112 155.452H67.2431C67.1285 155.452 67.0355 155.359 67.0355 155.243V154.947C67.0355 154.832 67.1285 154.738 67.2431 154.738Z"
              fill="#E6E6E6"/>
        <path d="M64.8769 154.738H65.645C65.7596 154.738 65.8525 154.832 65.8525 154.947V155.243C65.8525 155.359 65.7596 155.452 65.645 155.452H64.8769C64.7623 155.452 64.6693 155.359 64.6693 155.243V154.947C64.6693 154.832 64.7623 154.738 64.8769 154.738Z"
              fill="#E6E6E6"/>
        <path d="M62.5107 154.738H63.2788C63.3934 154.738 63.4863 154.832 63.4863 154.947V155.243C63.4863 155.359 63.3934 155.452 63.2788 155.452H62.5107C62.3961 155.452 62.3031 155.359 62.3031 155.243V154.947C62.3031 154.832 62.3961 154.738 62.5107 154.738Z"
              fill="#E6E6E6"/>
        <path d="M60.1435 154.738H60.9116C61.0262 154.738 61.1191 154.832 61.1191 154.947V155.243C61.1191 155.359 61.0262 155.452 60.9116 155.452H60.1435C60.0289 155.452 59.9359 155.359 59.9359 155.243V154.947C59.9359 154.832 60.0289 154.738 60.1435 154.738Z"
              fill="#E6E6E6"/>
        <path d="M57.7773 154.738H58.5454C58.66 154.738 58.7529 154.832 58.7529 154.947V155.243C58.7529 155.359 58.66 155.452 58.5454 155.452H57.7773C57.6627 155.452 57.5697 155.359 57.5697 155.243V154.947C57.5697 154.832 57.6627 154.738 57.7773 154.738Z"
              fill="#E6E6E6"/>
        <path d="M55.4111 154.738H56.1792C56.2938 154.738 56.3867 154.832 56.3867 154.947V155.243C56.3867 155.359 56.2938 155.452 56.1792 155.452H55.4111C55.2964 155.452 55.2035 155.359 55.2035 155.243V154.947C55.2035 154.832 55.2964 154.738 55.4111 154.738Z"
              fill="#E6E6E6"/>
        <path d="M53.0449 154.738H53.813C53.9276 154.738 54.0205 154.832 54.0205 154.947V155.243C54.0205 155.359 53.9276 155.452 53.813 155.452H53.0449C52.9302 155.452 52.8373 155.359 52.8373 155.243V154.947C52.8373 154.832 52.9302 154.738 53.0449 154.738Z"
              fill="#E6E6E6"/>
        <path d="M50.6787 154.738H51.4468C51.5614 154.738 51.6543 154.832 51.6543 154.947V155.243C51.6543 155.359 51.5614 155.452 51.4468 155.452H50.6787C50.564 155.452 50.4711 155.359 50.4711 155.243V154.947C50.4711 154.832 50.564 154.738 50.6787 154.738Z"
              fill="#E6E6E6"/>
        <path d="M48.3115 154.738H49.0796C49.1942 154.738 49.2871 154.832 49.2871 154.947V155.243C49.2871 155.359 49.1942 155.452 49.0796 155.452H48.3115C48.1968 155.452 48.1039 155.359 48.1039 155.243V154.947C48.1039 154.832 48.1968 154.738 48.3115 154.738Z"
              fill="#E6E6E6"/>
        <path d="M64.1668 156.166H73.2173C73.3319 156.166 73.4248 156.259 73.4248 156.374V156.671C73.4248 156.786 73.3319 156.88 73.2173 156.88H64.1668C64.0521 156.88 63.9592 156.786 63.9592 156.671V156.374C63.9592 156.259 64.0521 156.166 64.1668 156.166Z"
              fill="#E6E6E6"/>
        <path d="M37.8756 98.6773H98.2953C98.3581 98.6758 98.4178 98.6498 98.4618 98.6046C98.5057 98.5595 98.5303 98.4988 98.5303 98.4357C98.5303 98.3725 98.5057 98.3119 98.4618 98.2667C98.4178 98.2216 98.3581 98.1955 98.2953 98.1941H37.8756C37.8128 98.1955 37.7531 98.2216 37.7091 98.2667C37.6652 98.3119 37.6406 98.3725 37.6406 98.4357C37.6406 98.4988 37.6652 98.5595 37.7091 98.6046C37.7531 98.6498 37.8128 98.6758 37.8756 98.6773Z"
              fill="#CACACA"/>
        <path d="M94.1827 96.9606C93.405 96.9606 92.7746 96.3126 92.7746 95.5133C92.7746 94.7139 93.405 94.0659 94.1827 94.0659C94.9604 94.0659 95.5908 94.7139 95.5908 95.5133C95.5908 96.3126 94.9604 96.9606 94.1827 96.9606Z"
              fill="#CCCCCC"/>
        <path d="M89.3184 96.9606C88.5408 96.9606 87.9103 96.3126 87.9103 95.5133C87.9103 94.7139 88.5408 94.0659 89.3184 94.0659C90.0961 94.0659 90.7266 94.7139 90.7266 95.5133C90.7266 96.3126 90.0961 96.9606 89.3184 96.9606Z"
              fill="#CCCCCC"/>
        <path d="M84.4542 96.9606C83.6765 96.9606 83.0461 96.3126 83.0461 95.5133C83.0461 94.7139 83.6765 94.0659 84.4542 94.0659C85.2319 94.0659 85.8623 94.7139 85.8623 95.5133C85.8623 96.3126 85.2319 96.9606 84.4542 96.9606Z"
              fill="#CCCCCC"/>
        <path d="M40.8047 94.4247H44.2601C44.3286 94.426 44.3938 94.4544 44.4418 94.5035C44.4897 94.5527 44.5166 94.6189 44.5166 94.6877C44.5166 94.7566 44.4897 94.8228 44.4418 94.8719C44.3938 94.9211 44.3286 94.9494 44.2601 94.9508H40.8047C40.7362 94.9494 40.6709 94.9211 40.623 94.8719C40.575 94.8228 40.5482 94.7566 40.5482 94.6877C40.5482 94.6189 40.575 94.5527 40.623 94.5035C40.6709 94.4544 40.7362 94.426 40.8047 94.4247H40.8047Z"
              fill="#CCCCCC"/>
        <path d="M40.8048 95.4121H44.2602C44.3287 95.4135 44.3939 95.4418 44.4418 95.491C44.4898 95.5402 44.5166 95.6063 44.5166 95.6752C44.5166 95.744 44.4898 95.8101 44.4418 95.8593C44.3939 95.9085 44.3287 95.9368 44.2602 95.9382H40.8048C40.7363 95.9368 40.6711 95.9085 40.6232 95.8593C40.5752 95.8101 40.5484 95.744 40.5484 95.6752C40.5484 95.6063 40.5752 95.5402 40.6232 95.491C40.6711 95.4418 40.7363 95.4135 40.8048 95.4121H40.8048Z"
              fill="#CCCCCC"/>
        <path d="M40.8047 96.3983H44.2601C44.3286 96.3997 44.3938 96.428 44.4418 96.4772C44.4897 96.5264 44.5166 96.5925 44.5166 96.6614C44.5166 96.7303 44.4897 96.7964 44.4418 96.8456C44.3938 96.8948 44.3286 96.9231 44.2601 96.9244H40.8047C40.7362 96.9231 40.6709 96.8948 40.623 96.8456C40.575 96.7964 40.5482 96.7303 40.5482 96.6614C40.5482 96.5925 40.575 96.5264 40.623 96.4772C40.6709 96.428 40.7362 96.3997 40.8047 96.3983H40.8047Z"
              fill="#CCCCCC"/>
        <path d="M63.2077 111.839H70.7574C71.3245 111.839 71.7842 112.301 71.7842 112.871C71.7842 113.442 71.3245 113.904 70.7574 113.904H63.2077C62.6406 113.904 62.1809 113.442 62.1809 112.871C62.1809 112.301 62.6406 111.839 63.2077 111.839Z"
              fill="#0077C8"/>
        <path d="M58.3302 115.969H75.6344C76.2014 115.969 76.6611 116.431 76.6611 117.001C76.6611 117.571 76.2014 118.033 75.6344 118.033H58.3302C57.7632 118.033 57.3035 117.571 57.3035 117.001C57.3035 116.431 57.7632 115.969 58.3302 115.969Z"
              fill="#E6E6E6"/>
        <path d="M58.3302 120.098H75.6344C76.2014 120.098 76.6611 120.56 76.6611 121.13C76.6611 121.701 76.2014 122.163 75.6344 122.163H58.3302C57.7632 122.163 57.3035 121.701 57.3035 121.13C57.3035 120.56 57.7632 120.098 58.3302 120.098Z"
              fill="#E6E6E6"/>
        <path d="M174.91 184.432L178.391 182.758L173.61 168.131L168.473 170.601L174.91 184.432Z" fill="#FFB6B6"/>
        <path d="M151.577 182.073C151.83 182.233 152.084 182.389 152.339 182.546C152.848 182.86 153.362 183.168 153.876 183.472C154.134 183.623 154.395 183.775 154.653 183.924V183.932L154.668 183.934L154.673 183.937L155.067 184.035L155.632 182.533L155.893 181.842L156.261 180.863L156.936 179.071L160.489 169.638L154.965 168.268L154.758 169.118H154.755L154.653 169.54L152.723 177.411L152.329 179.02L152.316 179.069L152.078 180.03L151.874 180.863L151.646 181.793L151.577 182.073Z"
              fill="#FFB6B6"/>
        <path d="M118.621 148.945C118.971 149.511 119.329 150.074 119.69 150.631C120.36 151.67 121.047 152.693 121.753 153.7C121.753 153.703 121.755 153.703 121.758 153.706C122.17 154.089 122.624 154.423 123.113 154.7C123.133 154.716 123.156 154.726 123.177 154.739C123.537 154.939 123.92 155.093 124.317 155.199C124.46 155.235 124.606 155.271 124.749 155.307C125.265 155.43 125.777 155.536 126.286 155.628C127.19 155.79 128.085 155.906 128.975 155.978C129.047 155.986 129.118 155.991 129.19 155.996C132.848 156.266 136.409 155.831 140.126 155.119C141.962 154.77 143.836 154.351 145.776 153.916C146.41 153.772 147.047 153.631 147.691 153.49C147.74 153.479 147.791 153.467 147.842 153.456C148.762 153.253 149.698 153.053 150.657 152.855C151.863 152.605 153.108 152.364 154.402 152.135L154.31 153.968C154.233 155.378 153.942 156.767 153.446 158.088C152.893 159.713 152.456 160.998 153.379 163.674L153.824 164.969C153.593 165.613 153.514 166.301 153.593 166.98C153.671 167.659 153.905 168.311 154.276 168.884L154.366 169.02L150.657 178.456L150.416 179.068H152.316L154.652 179.071H158.612L164.326 167.545L164.6 166.995V166.966L164.009 144.817C164.001 144.622 163.986 144.424 163.961 144.228C163.856 143.34 163.577 142.482 163.14 141.704C162.702 140.925 162.115 140.242 161.412 139.694C160.738 139.165 159.966 138.775 159.142 138.549C158.317 138.322 157.456 138.262 156.608 138.373L154.652 138.627L150.657 139.147L147.842 139.514L147.786 139.522L139.485 140.602L138.889 138.16L138.779 138.119L135.284 136.831L123.197 132.376L123.167 132.366L122.372 132.073L122.277 132.227C122.249 132.273 122.221 132.32 122.195 132.366C121.409 133.782 120.769 135.276 120.285 136.823C119.472 139.35 118.802 141.923 118.279 144.527C118.256 144.64 118.235 144.743 118.217 144.835L118.21 144.863C118.202 144.907 118.197 144.935 118.194 144.943C117.955 146.291 118.103 147.679 118.621 148.945Z"
              fill="#2F2E41"/>
        <path d="M118.111 140.782C118.149 140.618 118.198 140.451 118.249 140.289C118.655 139.062 119.128 137.859 119.665 136.685C120.269 135.349 120.992 133.917 121.854 132.367C122.271 131.616 122.719 130.836 123.199 130.025C123.439 129.619 123.688 129.205 123.948 128.784C123.958 128.764 123.969 128.745 123.981 128.727L124.055 128.604L136.014 130.213L140.468 130.812L140.733 133.043L140.797 133.596C140.8 133.596 140.8 133.596 140.797 133.598L140.976 135.104V135.107L141.214 137.096L141.235 137.094L147.843 136.233L154.654 135.346L158.312 134.87C159.16 134.759 160.021 134.819 160.846 135.046C161.67 135.273 162.442 135.662 163.115 136.192C163.818 136.74 164.406 137.423 164.843 138.201C165.281 138.98 165.56 139.838 165.664 140.726C165.687 140.906 165.703 141.091 165.71 141.273L169.162 149.496C171.227 154.414 172.542 159.617 173.063 164.929L175.594 173.064L175.233 173.098L169.87 173.599L168.453 173.733L165.335 169.155C164.979 168.633 164.642 168.096 164.327 167.546C163.81 166.647 163.349 165.717 162.949 164.759L156.203 148.617C155.681 148.707 155.165 148.793 154.654 148.874C152.289 149.26 150.019 149.574 147.843 149.818C140.769 150.612 134.644 150.673 129.191 150C127.66 149.812 126.179 149.566 124.75 149.26C124.226 149.149 123.709 149.03 123.199 148.902C123.078 148.874 122.961 148.846 122.843 148.815C121.787 148.541 120.815 148.005 120.018 147.256C119.221 146.507 118.623 145.569 118.28 144.528C117.87 143.321 117.811 142.021 118.111 140.782Z"
              fill="#2F2E41"/>
        <path d="M173.799 182.043L177.565 180.228L178.155 179.943L179.099 182.272L185.684 183.729C186.01 183.801 186.304 183.976 186.524 184.228C186.744 184.479 186.878 184.795 186.906 185.129C186.935 185.463 186.857 185.798 186.683 186.084C186.509 186.37 186.248 186.592 185.94 186.719L179.505 189.358L177.462 187.51L177.963 189.991L175.54 190.986L172.884 182.485L173.799 182.043Z"
              fill="#2F2E41"/>
        <path d="M150.656 178.456L150.416 179.068H150.656V178.456Z" fill="#2F2E41"/>
        <path d="M151.968 179.199L155.914 180.573L156.533 180.788L155.574 183.111L159.233 188.805C159.415 189.087 159.502 189.419 159.482 189.753C159.462 190.088 159.336 190.407 159.122 190.665C158.909 190.922 158.619 191.104 158.295 191.185C157.972 191.265 157.631 191.239 157.323 191.11L150.903 188.434L150.745 185.675L149.366 187.793L146.947 186.785L151.008 178.865L151.968 179.199Z"
              fill="#2F2E41"/>
        <path d="M175.917 94.1503C175.73 94.5168 175.465 94.8375 175.141 95.09C174.818 95.3425 174.443 95.5206 174.043 95.6116C173.644 95.7027 173.229 95.7046 172.829 95.6171C172.429 95.5297 172.052 95.355 171.726 95.1055L163.429 100.644L163.413 95.4402L171.295 90.9788C171.748 90.456 172.376 90.1185 173.06 90.0303C173.745 89.9421 174.437 90.1093 175.007 90.5003C175.577 90.8912 175.984 91.4787 176.152 92.1514C176.319 92.8241 176.236 93.5353 175.917 94.1503V94.1503Z"
              fill="#FFB6B6"/>
        <path d="M169.718 96.5555L165.847 92.1274L150.084 101.536L129.19 99.6119C128.157 99.5169 127.116 99.6516 126.141 100.006C125.166 100.361 124.28 100.928 123.547 101.666C122.814 102.403 122.252 103.294 121.9 104.275C121.548 105.256 121.415 106.303 121.51 107.341C121.685 109.216 122.592 110.945 124.033 112.149C125.474 113.352 127.331 113.932 129.197 113.76L152.729 111.57L169.718 96.5555Z"
              fill="#CCCCCC"/>
        <path d="M121.222 96.6237L121.259 96.5779C124.198 96.2862 127.158 96.8582 129.781 98.2245C132.404 99.5907 134.576 101.693 136.034 104.275L137.807 107.416C143.543 114.466 139.375 119.328 139.125 120.051L141.116 129.281L140.67 132.37L140.447 133.288L117.721 145.227C116.427 138.977 117.678 133.65 122.392 129.581L117.831 115.313C116.82 112.158 116.6 108.801 117.192 105.54C117.784 102.279 119.168 99.2162 121.222 96.6237Z"
              fill="#CCCCCC"/>
        <path d="M139.292 165.941H146.582C146.983 165.941 147.371 165.795 147.673 165.531C147.976 165.266 148.173 164.901 148.23 164.502C148.68 161.172 148.68 157.795 148.23 154.465C148.174 154.071 147.981 153.709 147.684 153.445C147.387 153.182 147.006 153.033 146.61 153.026C144.317 151.992 141.847 151.992 139.267 153.026C139.027 153.029 138.791 153.085 138.574 153.19C138.358 153.295 138.167 153.446 138.015 153.633C137.856 153.828 137.743 154.055 137.683 154.299C137.623 154.544 137.617 154.798 137.667 155.045C138.253 157.975 138.253 160.992 137.667 163.922C137.617 164.169 137.623 164.423 137.683 164.668C137.743 164.912 137.856 165.139 138.015 165.334C138.17 165.524 138.364 165.677 138.585 165.782C138.806 165.887 139.048 165.942 139.292 165.941Z"
              fill="#0077C8"/>
        <path d="M140.056 156.853H146.191C146.242 156.853 146.292 156.843 146.339 156.824C146.386 156.805 146.429 156.777 146.465 156.741C146.501 156.705 146.529 156.662 146.549 156.615C146.568 156.568 146.578 156.518 146.578 156.467C146.578 156.416 146.568 156.366 146.549 156.319C146.529 156.272 146.501 156.229 146.465 156.193C146.429 156.157 146.386 156.129 146.339 156.11C146.292 156.091 146.242 156.081 146.191 156.081H140.056C140.005 156.081 139.955 156.091 139.908 156.11C139.861 156.129 139.818 156.157 139.782 156.193C139.746 156.229 139.718 156.272 139.698 156.319C139.679 156.366 139.669 156.416 139.669 156.467C139.669 156.518 139.679 156.568 139.698 156.615C139.718 156.662 139.746 156.705 139.782 156.741C139.818 156.777 139.861 156.805 139.908 156.824C139.955 156.843 140.005 156.853 140.056 156.853Z"
              fill="white"/>
        <path d="M140.056 159.937H146.191C146.242 159.937 146.292 159.928 146.339 159.909C146.386 159.889 146.429 159.861 146.465 159.825C146.501 159.789 146.529 159.747 146.549 159.7C146.568 159.653 146.578 159.602 146.578 159.551C146.578 159.501 146.568 159.45 146.549 159.403C146.529 159.356 146.501 159.313 146.465 159.278C146.429 159.242 146.386 159.213 146.339 159.194C146.292 159.175 146.242 159.165 146.191 159.166H140.056C140.005 159.165 139.955 159.175 139.908 159.194C139.861 159.213 139.818 159.242 139.782 159.278C139.746 159.313 139.718 159.356 139.698 159.403C139.679 159.45 139.669 159.501 139.669 159.551C139.669 159.602 139.679 159.653 139.698 159.7C139.718 159.747 139.746 159.789 139.782 159.825C139.818 159.861 139.861 159.889 139.908 159.909C139.955 159.928 140.005 159.937 140.056 159.937Z"
              fill="white"/>
        <path d="M140.055 163.022H146.191C146.242 163.022 146.292 163.012 146.339 162.993C146.386 162.974 146.429 162.946 146.465 162.91C146.501 162.874 146.529 162.831 146.549 162.784C146.568 162.737 146.578 162.687 146.578 162.636C146.578 162.585 146.568 162.535 146.549 162.488C146.529 162.441 146.501 162.398 146.465 162.362C146.429 162.326 146.386 162.298 146.339 162.279C146.292 162.26 146.242 162.25 146.191 162.25H140.055C140.005 162.25 139.955 162.26 139.908 162.279C139.861 162.298 139.818 162.326 139.782 162.362C139.746 162.398 139.717 162.441 139.698 162.488C139.678 162.535 139.668 162.585 139.668 162.636C139.668 162.687 139.678 162.737 139.698 162.784C139.717 162.831 139.746 162.874 139.782 162.91C139.818 162.946 139.861 162.974 139.908 162.993C139.955 163.012 140.005 163.022 140.055 163.022Z"
              fill="white"/>
        <path d="M174.581 96.6908H181.87C182.271 96.6905 182.659 96.5447 182.961 96.2803C183.264 96.0159 183.462 95.6506 183.518 95.2514C183.968 91.9211 183.968 88.5449 183.518 85.2146C183.462 84.8202 183.269 84.4587 182.972 84.195C182.675 83.9312 182.294 83.7825 181.898 83.7755C179.605 82.7418 177.135 82.7419 174.555 83.7754C174.315 83.7786 174.079 83.8346 173.862 83.9395C173.646 84.0444 173.455 84.1957 173.303 84.3827C173.144 84.5772 173.031 84.8048 172.971 85.049C172.911 85.2931 172.905 85.5476 172.955 85.794C173.541 88.7241 173.541 91.7419 172.955 94.6719C172.905 94.9184 172.911 95.1729 172.971 95.417C173.031 95.6612 173.144 95.8888 173.303 96.0833C173.458 96.2736 173.653 96.4268 173.874 96.5319C174.095 96.637 174.336 96.6913 174.581 96.6908Z"
              fill="#0077C8"/>
        <path d="M175.344 87.602H181.479C181.53 87.6024 181.58 87.5928 181.627 87.5736C181.674 87.5544 181.717 87.5261 181.753 87.4902C181.789 87.4544 181.817 87.4117 181.837 87.3647C181.856 87.3177 181.866 87.2673 181.866 87.2164C181.866 87.1655 181.856 87.115 181.837 87.068C181.817 87.021 181.789 86.9784 181.753 86.9425C181.717 86.9067 181.674 86.8784 181.627 86.8592C181.58 86.84 181.53 86.8304 181.479 86.8308H175.344C175.293 86.8304 175.243 86.84 175.196 86.8592C175.149 86.8784 175.106 86.9067 175.07 86.9425C175.034 86.9784 175.006 87.021 174.986 87.068C174.967 87.115 174.957 87.1655 174.957 87.2164C174.957 87.2673 174.967 87.3177 174.986 87.3647C175.006 87.4117 175.034 87.4544 175.07 87.4902C175.106 87.5261 175.149 87.5544 175.196 87.5736C175.243 87.5928 175.293 87.6024 175.344 87.602Z"
              fill="white"/>
        <path d="M175.344 90.6864H181.479C181.53 90.6869 181.58 90.6772 181.627 90.6581C181.674 90.6389 181.717 90.6106 181.753 90.5747C181.789 90.5389 181.817 90.4962 181.837 90.4492C181.856 90.4022 181.866 90.3518 181.866 90.3009C181.866 90.2499 181.856 90.1995 181.837 90.1525C181.817 90.1055 181.789 90.0629 181.753 90.027C181.717 89.9912 181.674 89.9628 181.627 89.9437C181.58 89.9245 181.53 89.9148 181.479 89.9153H175.344C175.293 89.9148 175.243 89.9245 175.196 89.9437C175.149 89.9628 175.106 89.9912 175.07 90.027C175.034 90.0629 175.006 90.1055 174.986 90.1525C174.967 90.1995 174.957 90.2499 174.957 90.3009C174.957 90.3518 174.967 90.4022 174.986 90.4492C175.006 90.4962 175.034 90.5389 175.07 90.5747C175.106 90.6106 175.149 90.6389 175.196 90.6581C175.243 90.6772 175.293 90.6869 175.344 90.6864Z"
              fill="white"/>
        <path d="M175.344 93.771H181.479C181.53 93.7715 181.58 93.7619 181.627 93.7427C181.674 93.7236 181.717 93.6952 181.753 93.6594C181.789 93.6235 181.817 93.5809 181.837 93.5339C181.856 93.4868 181.866 93.4364 181.866 93.3855C181.866 93.3345 181.856 93.2841 181.837 93.2371C181.817 93.1901 181.789 93.1474 181.753 93.1115C181.717 93.0757 181.674 93.0474 181.627 93.0282C181.58 93.009 181.53 92.9994 181.479 92.9999H175.344C175.293 92.9994 175.243 93.009 175.196 93.0282C175.149 93.0474 175.106 93.0757 175.07 93.1115C175.034 93.1474 175.005 93.1901 174.986 93.2371C174.966 93.2841 174.956 93.3345 174.956 93.3855C174.956 93.4364 174.966 93.4868 174.986 93.5339C175.005 93.5809 175.034 93.6235 175.07 93.6594C175.106 93.6952 175.149 93.7236 175.196 93.7427C175.243 93.7619 175.293 93.7715 175.344 93.771Z"
              fill="white"/>
        <path d="M302.551 115.5H309.841C310.242 115.499 310.629 115.354 310.932 115.089C311.235 114.825 311.432 114.459 311.489 114.06C311.939 110.73 311.939 107.354 311.489 104.023C311.433 103.629 311.239 103.268 310.942 103.004C310.646 102.74 310.265 102.591 309.869 102.584C307.575 101.551 305.105 101.551 302.526 102.584C302.286 102.587 302.049 102.643 301.833 102.748C301.617 102.853 301.426 103.005 301.274 103.192C301.115 103.386 301.002 103.614 300.942 103.858C300.881 104.102 300.876 104.356 300.926 104.603C301.512 107.533 301.512 110.551 300.926 113.481C300.876 113.727 300.881 113.982 300.942 114.226C301.002 114.47 301.115 114.698 301.274 114.892C301.428 115.082 301.623 115.236 301.844 115.341C302.065 115.446 302.307 115.5 302.551 115.5Z"
              fill="#0077C8"/>
        <path d="M303.314 106.411H309.45C309.501 106.411 309.551 106.402 309.598 106.382C309.645 106.363 309.687 106.335 309.723 106.299C309.759 106.263 309.788 106.221 309.807 106.174C309.827 106.127 309.837 106.076 309.837 106.025C309.837 105.974 309.827 105.924 309.807 105.877C309.788 105.83 309.759 105.787 309.723 105.751C309.687 105.716 309.645 105.687 309.598 105.668C309.551 105.649 309.501 105.639 309.45 105.64H303.314C303.264 105.639 303.214 105.649 303.167 105.668C303.12 105.687 303.077 105.716 303.041 105.751C303.005 105.787 302.977 105.83 302.957 105.877C302.938 105.924 302.928 105.974 302.928 106.025C302.928 106.076 302.938 106.127 302.957 106.174C302.977 106.221 303.005 106.263 303.041 106.299C303.077 106.335 303.12 106.363 303.167 106.382C303.214 106.402 303.264 106.411 303.314 106.411Z"
              fill="white"/>
        <path d="M303.314 109.495H309.45C309.501 109.496 309.551 109.486 309.598 109.467C309.645 109.448 309.687 109.419 309.723 109.384C309.759 109.348 309.788 109.305 309.807 109.258C309.827 109.211 309.837 109.161 309.837 109.11C309.837 109.059 309.827 109.008 309.807 108.961C309.788 108.914 309.759 108.872 309.723 108.836C309.687 108.8 309.645 108.772 309.598 108.753C309.551 108.733 309.501 108.724 309.45 108.724H303.314C303.264 108.724 303.214 108.733 303.167 108.753C303.12 108.772 303.077 108.8 303.041 108.836C303.005 108.872 302.977 108.914 302.957 108.961C302.938 109.008 302.928 109.059 302.928 109.11C302.928 109.161 302.938 109.211 302.957 109.258C302.977 109.305 303.005 109.348 303.041 109.384C303.077 109.419 303.12 109.448 303.167 109.467C303.214 109.486 303.264 109.496 303.314 109.495Z"
              fill="white"/>
        <path d="M303.315 112.58H309.451C309.501 112.58 309.552 112.571 309.599 112.551C309.646 112.532 309.688 112.504 309.724 112.468C309.76 112.432 309.789 112.39 309.808 112.343C309.828 112.296 309.838 112.245 309.838 112.194C309.838 112.143 309.828 112.093 309.808 112.046C309.789 111.999 309.76 111.956 309.724 111.92C309.688 111.884 309.646 111.856 309.599 111.837C309.552 111.818 309.501 111.808 309.451 111.809H303.315C303.265 111.808 303.214 111.818 303.167 111.837C303.12 111.856 303.078 111.884 303.042 111.92C303.006 111.956 302.977 111.999 302.958 112.046C302.938 112.093 302.928 112.143 302.928 112.194C302.928 112.245 302.938 112.296 302.958 112.343C302.977 112.39 303.006 112.432 303.042 112.468C303.078 112.504 303.12 112.532 303.167 112.551C303.214 112.571 303.265 112.58 303.315 112.58Z"
              fill="white"/>
        <path d="M137.156 156.572C136.804 156.362 136.501 156.078 136.269 155.738C136.038 155.398 135.883 155.011 135.817 154.605C135.75 154.198 135.773 153.782 135.883 153.385C135.994 152.989 136.19 152.621 136.457 152.309L131.451 143.653L136.618 143.946L140.579 152.121C141.072 152.607 141.369 153.257 141.416 153.949C141.463 154.641 141.256 155.326 140.834 155.875C140.412 156.424 139.805 156.798 139.127 156.926C138.449 157.055 137.748 156.929 137.156 156.572V156.572Z"
              fill="#FFB6B6"/>
        <path d="M135.137 150.208L139.763 146.585L131.357 130.207L134.507 109.349C134.662 108.318 134.59 107.266 134.296 106.266C134.001 105.266 133.491 104.343 132.802 103.564C132.114 102.785 131.262 102.167 130.309 101.756C129.356 101.344 128.325 101.148 127.289 101.183C125.416 101.247 123.646 102.055 122.366 103.43C121.085 104.805 120.4 106.634 120.46 108.517L121.238 132.266L135.137 150.208Z"
              fill="#CCCCCC"/>
        <path d="M358.722 145.733C358.431 145.439 358.207 145.083 358.067 144.693C357.927 144.302 357.874 143.885 357.911 143.471C357.949 143.058 358.076 142.657 358.284 142.299C358.492 141.94 358.775 141.631 359.115 141.394L354.616 118.926L359.584 120.53L363.185 142.262C363.543 142.862 363.669 143.573 363.541 144.26C363.412 144.947 363.037 145.563 362.487 145.991C361.937 146.419 361.249 146.629 360.556 146.581C359.862 146.534 359.209 146.232 358.722 145.733H358.722Z"
              fill="#9E616A"/>
        <path d="M352.079 98.1965L355.161 95.8569C355.161 95.8569 357.881 95.6632 358.362 100.594C358.844 105.525 359.833 115.134 359.833 115.134L364.55 137.1L358.02 138.541L352.968 114.836L349.937 107.796L352.079 98.1965Z"
              fill="#CCCCCC"/>
        <path d="M357.161 134.065L339.791 133.774L338.343 121.839H357.161V134.065Z" fill="#9E616A"/>
        <path d="M341.527 207.507H337.517L335.61 191.955L341.528 191.955L341.527 207.507Z" fill="#9E616A"/>
        <path d="M366.65 207.88L362.64 207.852L360.841 192.287L366.056 193.49L366.65 207.88Z" fill="#9E616A"/>
        <path d="M354.108 111.562L355.017 113.937L354.835 116.312L337.052 122.505L337.934 112.11L339.933 109.734L354.108 111.562Z"
              fill="#FFB6B6"/>
        <path d="M346.479 90.1861C342.971 90.1861 340.127 87.327 340.127 83.8002C340.127 80.2733 342.971 77.4142 346.479 77.4142C349.986 77.4142 352.83 80.2733 352.83 83.8002C352.83 87.327 349.986 90.1861 346.479 90.1861Z"
              fill="#9E616A"/>
        <path d="M342.522 205.518L336.183 205.137V207.868L330.156 212.053C329.858 212.26 329.634 212.557 329.516 212.901C329.398 213.244 329.393 213.617 329.5 213.964C329.608 214.312 329.823 214.615 330.115 214.831C330.406 215.046 330.758 215.162 331.12 215.162H338.667L339.968 212.461L340.476 215.162H343.321L342.522 205.518Z"
              fill="#2F2E41"/>
        <path d="M368.022 205.901L361.685 205.476L361.666 208.206L355.611 212.349C355.312 212.553 355.085 212.849 354.965 213.192C354.845 213.535 354.836 213.907 354.942 214.255C355.047 214.603 355.26 214.908 355.55 215.126C355.84 215.344 356.191 215.462 356.553 215.465L364.1 215.518L365.419 212.826L365.908 215.531L368.754 215.551L368.022 205.901Z"
              fill="#2F2E41"/>
        <path d="M367.898 195.956L364.978 172.489L361.504 147.746C364.048 142.996 358.319 128.244 358.319 128.244L357.51 128.283L339.208 131.754L339.212 131.737C335.468 142.003 334.228 147.074 334.433 158.007L335.17 197.306H334.939C334.555 197.306 334.187 197.46 333.915 197.733C333.644 198.006 333.491 198.376 333.491 198.762C333.491 199.148 333.644 199.518 333.915 199.791C334.187 200.064 334.555 200.217 334.939 200.217H342.177C342.367 200.218 342.556 200.18 342.731 200.107C342.907 200.034 343.067 199.927 343.202 199.792C343.337 199.657 343.443 199.496 343.516 199.319C343.589 199.143 343.627 198.953 343.627 198.762C343.627 198.571 343.589 198.381 343.516 198.204C343.443 198.028 343.337 197.867 343.202 197.732C343.067 197.597 342.907 197.49 342.731 197.417C342.556 197.344 342.367 197.306 342.177 197.306H341.99L348.633 150.512L354.266 170.16L360.635 195.776C358.319 195.194 358.679 196.543 358.679 197.306C358.679 197.692 358.831 198.063 359.103 198.336C359.374 198.609 359.742 198.762 360.126 198.762H367.364C367.701 198.762 368.027 198.645 368.286 198.429C368.546 198.213 368.723 197.914 368.786 197.581C368.849 197.249 368.795 196.905 368.633 196.608C368.471 196.311 368.211 196.081 367.898 195.956H367.898Z"
              fill="#2F2E41"/>
        <path d="M359.744 129.008L359.165 123.186C359.105 122.948 358.971 122.736 358.784 122.58C358.596 122.423 358.364 122.33 358.121 122.314C357.88 119.541 356.865 107.577 356.804 107.055L356.802 107.033L356.34 97.1191C356.323 96.7591 356.175 96.4178 355.924 96.1606C355.673 95.9034 355.337 95.7482 354.979 95.7247L352.541 95.5645C352.507 95.5633 352.476 95.5492 352.453 95.525C352.429 95.5008 352.416 95.4685 352.416 95.4349C352.416 95.1642 352.363 94.8961 352.26 94.646C352.157 94.3959 352.006 94.1687 351.816 93.9773C351.625 93.7859 351.399 93.634 351.151 93.5304C350.902 93.4269 350.635 93.3735 350.366 93.3735H343.148C342.681 93.3737 342.229 93.5455 341.879 93.8565C341.528 94.1676 341.303 94.5966 341.245 95.063C341.241 95.0951 341.226 95.1248 341.202 95.1462C341.178 95.1675 341.147 95.179 341.115 95.1783H341.114C340.294 95.1613 339.495 95.4405 338.862 95.9652C338.229 96.4898 337.804 97.2253 337.664 98.038C336.678 103.811 334.7 116.912 335.678 124.196C336.018 126.731 335.285 124.723 335.156 126.845C335.143 127.05 335.171 127.255 335.237 127.449C335.303 127.644 335.407 127.823 335.542 127.977C335.265 128.078 335.039 128.285 334.913 128.553C334.787 128.821 334.771 129.128 334.868 129.408L334.742 129.376C334.779 129.525 334.845 129.664 334.935 129.787C335.026 129.909 335.14 130.013 335.271 130.091C335.401 130.17 335.546 130.221 335.696 130.244C335.847 130.266 336 130.258 336.148 130.221L355.031 132.793C355.651 132.636 359.9 129.631 359.744 129.008Z"
              fill="#CCCCCC"/>
        <path d="M309.285 105.338C309.404 105.736 309.607 106.103 309.882 106.413C310.156 106.723 310.495 106.969 310.875 107.134C311.254 107.298 311.665 107.376 312.078 107.364C312.491 107.351 312.896 107.248 313.265 107.061L320.565 113.76L321.534 108.605L314.449 103.05C314.095 102.448 313.534 101.997 312.872 101.783C312.21 101.569 311.493 101.606 310.856 101.888C310.22 102.17 309.708 102.677 309.419 103.313C309.129 103.949 309.082 104.669 309.285 105.338H309.285Z"
              fill="#9E616A"/>
        <path d="M334.694 100.217C334.694 100.217 337.24 94.4335 340.455 95.5832C343.67 96.7329 342.01 102.345 342.01 102.345L329.931 120.646C329.931 120.646 312.509 109.408 314.627 109.329C316.746 109.25 317.379 105.375 317.379 105.375L326.587 110.001L326.899 108.355L327.398 108.857L328.687 107.837L334.694 100.217Z"
              fill="#CCCCCC"/>
        <path d="M126.462 93.8635C121.564 93.8635 117.594 89.8718 117.594 84.9478C117.594 80.0238 121.564 76.0321 126.462 76.0321C131.359 76.0321 135.329 80.0238 135.329 84.9478C135.329 89.8718 131.359 93.8635 126.462 93.8635Z"
              fill="#FFB6B6"/>
        <path d="M98.0034 98.0671C99.0268 99.5252 100.52 100.582 102.231 101.059C102.915 101.264 103.622 101.385 104.335 101.419C104.423 100.608 104.634 99.8151 104.96 99.0683C104.927 99.8632 105.037 100.658 105.285 101.413C106.356 101.352 107.403 101.07 108.361 100.585C109.303 100.109 110.12 99.4187 110.75 98.5695C111.38 97.7204 111.804 96.7354 111.989 95.6927C112.364 93.2541 111.265 90.8595 110.867 88.4245C110.468 85.9896 111.217 82.9056 113.588 82.2656C115.393 81.7779 115.191 81.9888 116.692 83.1091C115.131 85.43 120.897 93.9353 123.257 93.1936C124.591 92.7742 125.445 91.5434 125.72 91.5434C127.575 94.7557 124.083 100.168 127.602 101.292L127.312 101.001C125.188 98.3733 129.628 92.8122 127.504 90.1847C126.911 89.4495 126.28 88.5785 126.455 87.6489C126.621 86.7651 128.016 86.2976 128.425 87.0237C127.69 85.3313 128.775 83.0724 130.571 82.6378C132.167 82.2509 132.138 82.7276 133.739 82.9348C133.843 82.2391 134.039 81.5603 134.32 80.9161C134.291 81.6103 134.372 82.3047 134.559 82.9733C135.125 82.9622 135.671 82.7637 136.113 82.4086C137.419 81.3506 137.154 79.1284 135.989 77.9164C134.822 76.7044 133.088 76.2681 131.434 75.9857C130.953 72.6191 121.715 72.268 120.49 75.6318C119.969 73.1199 116.841 71.8162 114.41 72.5955C111.98 73.3748 110.293 75.6575 109.405 78.0631C108.516 80.4669 108.268 83.0541 107.721 85.5587C107.174 88.0633 106.25 90.6138 104.346 92.3208C102.442 94.026 99.3401 94.5907 97.3341 93.0065C97.0425 93.8436 96.9511 94.738 97.0674 95.6172C97.1837 96.4965 97.5044 97.3358 98.0034 98.0671Z"
              fill="#2F2E41"/>
        <path d="M14.8105 118.413L16.0519 124.676C16.1455 125.154 16.2432 125.642 16.3495 126.125C17.3871 125.908 18.463 125.969 19.4702 126.3C18.6711 127.448 17.955 128.652 17.3274 129.903C18.1097 132.327 19.2576 134.567 21.1793 136.187C22.4628 137.245 23.9957 137.953 25.6303 138.242C27.2649 138.531 28.946 138.392 30.5114 137.837L30.4562 137.589C32.5224 133.558 31.4 128.476 28.8321 124.752C27.5223 122.916 25.9705 121.266 24.2191 119.849C22.4845 118.396 20.6096 117.092 18.7517 115.805C18.3344 115.517 17.841 115.36 17.3346 115.355C16.8282 115.35 16.3318 115.496 15.9087 115.776C15.4857 116.056 15.1552 116.457 14.9596 116.926C14.764 117.396 14.7121 117.914 14.8105 118.413Z"
              fill="#E4E4E4"/>
        <path d="M30.0698 152.906C30.5923 149.078 31.1297 145.203 30.7632 141.334C30.4375 137.899 29.3955 134.544 27.2731 131.793C26.1466 130.335 24.776 129.086 23.2227 128.102C22.8175 127.846 22.445 128.491 22.8481 128.747C25.5356 130.454 27.6143 132.976 28.7845 135.948C30.077 139.253 30.2845 142.857 30.06 146.367C29.9252 148.491 29.6399 150.599 29.3521 152.707C29.3289 152.802 29.3429 152.903 29.3911 152.988C29.4393 153.074 29.5181 153.137 29.6114 153.166C29.7064 153.192 29.8076 153.179 29.8931 153.13C29.9786 153.081 30.0415 153 30.0681 152.905L30.0698 152.906Z"
              fill="#F2F2F2"/>
        <path d="M0.506683 215.869L397.494 216C397.628 216 397.757 215.946 397.851 215.85C397.946 215.755 397.999 215.626 397.999 215.491C397.999 215.356 397.946 215.227 397.851 215.132C397.757 215.036 397.628 214.982 397.494 214.982L0.506683 214.851C0.372681 214.851 0.244293 214.905 0.149658 215C0.0550537 215.096 0.00192261 215.225 0.00192261 215.36C0.00192261 215.494 0.0550537 215.624 0.149658 215.719C0.244293 215.814 0.372681 215.868 0.506683 215.869Z"
              fill="#CACACA"/>
        <path d="M353.954 79.8901C354.928 80.3602 356.018 79.653 356.859 78.9523L356.558 79.2136C358.045 80.6676 358.74 82.7594 359.079 84.8187C359.419 86.8757 359.457 88.9795 359.885 91.0219C360.313 93.0622 361.202 95.1122 362.861 96.3618C365.084 98.0356 368.15 97.9282 370.879 97.4151C370.915 97.4077 370.949 97.402 370.985 97.3946C370.251 95.2635 369.953 93.0054 370.108 90.7555C370.839 93.0101 372.084 95.0618 373.743 96.7471C375.552 96.2466 377.318 95.5998 379.023 94.8129C380.126 94.3023 381.314 93.6042 381.62 92.4221C381.927 91.249 381.214 90.0185 380.261 89.2777C379.308 88.5369 378.138 88.1505 377.052 87.6227C375.968 87.0975 374.896 86.3486 374.462 85.2181C373.46 82.6173 376.312 79.633 375.201 77.0765C374.653 75.8193 373.31 75.1355 372.049 74.6083C370.122 73.8056 368.144 73.1348 366.128 72.6004C364.358 72.1309 362.51 71.7661 360.707 72.0738C358.904 72.3816 357.137 73.4843 356.488 75.206C355.405 75.5739 354.256 75.9886 353.561 76.905C352.866 77.8193 352.922 79.3932 353.954 79.8901Z"
              fill="#2F2E41"/>
        <path d="M345.286 76.8763C348.073 74.6644 350.326 75.042 352.064 76.4162C352.357 76.0894 353.6 76.9886 354.021 76.8593L355.544 79.7337C356.328 81.1241 356.649 82.5434 356.522 83.3422C357.964 87.4065 354.546 90.1511 350.503 91.6003C348.89 92.1826 347.13 92.2083 345.501 91.6731L345.452 90.9806L345.145 91.5482C345.145 91.5482 341.45 99.1988 340.577 99.5424C341.107 98.1604 342.504 91.592 342.894 90.2229C343.429 88.36 343.064 85.4004 342.749 83.5859C342.553 82.4672 342.543 81.3236 342.719 80.2015L342.727 80.1525L341.862 81.9074L339.922 80.6809C340.664 78.5096 340.678 75.9121 345.286 76.8763Z"
              fill="#2F2E41"/>
    </g>
    <defs>
        <clipPath id="clip0_21_1587">
            <rect width="398" height="216" fill="white" transform="matrix(-1 0 0 1 398 0)"/>
        </clipPath>
    </defs>
</svg>
