<svg width="528" height="528" viewBox="0 0 528 528" fill="none" xmlns="http://www.w3.org/2000/svg">
    <g clip-path="url(#clip0_2645_6669)">
        <path d="M520.414 264C520.445 292.039 515.871 319.892 506.872 346.447C506.356 347.964 505.828 349.477 505.287 350.984C495.758 377.336 481.978 401.95 464.496 423.849C459.276 430.396 453.746 436.672 447.905 442.678C442.063 448.694 435.931 454.417 429.508 459.846C393.681 490.228 350.16 510.127 303.744 517.349H303.736C297.819 518.267 291.844 518.983 285.81 519.496C278.626 520.103 271.356 520.409 264 520.414C229.791 520.459 195.922 513.636 164.399 500.351C132.876 487.066 104.34 467.588 80.4819 443.073C78.8053 441.358 77.1541 439.618 75.5281 437.853C71.4771 433.461 67.5803 428.932 63.8377 424.267C61.7364 421.642 59.6856 418.976 57.6853 416.271C45.3646 399.625 35.1137 381.544 27.1584 362.424C23.7659 354.28 20.8032 345.965 18.2826 337.511C18.1005 336.911 17.926 336.312 17.7515 335.713C17.3722 334.423 17.0056 333.126 16.6515 331.821C10.6168 309.72 7.56789 286.91 7.58602 264C7.58602 122.389 122.388 7.58643 264 7.58643C405.612 7.58643 520.414 122.389 520.414 264Z" fill="#F2F2F2"/>
        <path d="M116.332 160.852C115.935 163.262 116.072 165.73 116.732 168.082C117.392 170.434 118.56 172.612 120.153 174.464C121.746 176.316 123.725 177.796 125.952 178.8C128.179 179.804 130.599 180.307 133.042 180.275L173.973 299.373L200.09 281.424L149.673 162.14C149.346 158.041 147.527 154.203 144.56 151.355C141.593 148.507 137.685 146.846 133.575 146.687C129.465 146.529 125.44 147.883 122.262 150.493C119.084 153.104 116.975 156.789 116.332 160.852Z" fill="#A0616A"/>
        <path d="M329.966 201.148C311.79 221.828 266.97 258.272 230.048 283.367C222.067 288.791 214.451 293.677 207.555 297.766C202.897 300.527 198.565 302.917 194.666 304.867C192.049 306.17 189.191 306.92 186.271 307.068C183.351 307.215 180.431 306.759 177.696 305.726C174.961 304.693 172.468 303.107 170.374 301.066C168.28 299.026 166.63 296.575 165.527 293.867L139.962 232.016L148.807 226.152L170.618 211.685L175.572 208.408L196.024 257.119L217.592 239.807L230.981 229.058L292.02 180.074L297.285 178.511L309.567 190.497L318.253 198.978L326.423 200.397C327.645 200.609 328.828 200.86 329.966 201.148Z" fill="#888F99"/>
        <path d="M493.043 371.089C494.31 372.697 495.622 374.298 496.935 375.906C492.414 385.189 487.332 394.188 481.717 402.852C481.3 402.556 480.882 402.261 480.465 401.965C480.399 401.929 480.336 401.888 480.276 401.843C478.72 400.736 477.158 399.643 475.602 398.536V398.528C474.319 394.162 473.603 389.649 473.471 385.1C474.273 384.917 474.999 384.49 475.551 383.88C476.102 383.269 476.453 382.504 476.555 381.687C476.657 380.87 476.505 380.042 476.12 379.315C475.735 378.587 475.136 377.996 474.404 377.62C474.199 377.264 474.055 377.006 473.85 376.642C473.858 376.551 473.873 376.452 473.88 376.361C475.071 366.886 487.149 363.578 493.043 371.089Z" fill="white"/>
        <path d="M506.66 338.62C507.57 341.123 508.4 343.654 509.148 346.213C508.632 347.731 508.104 349.243 507.563 350.75C507.358 349.953 507.145 349.157 506.925 348.36C505.691 343.931 504.21 339.575 502.487 335.312C501.076 331.815 499.514 328.391 497.799 325.04C488.476 306.838 474.967 291.108 458.381 279.144C451.527 277.558 445.323 273.91 440.607 268.69C438.905 266.814 437.482 264.704 436.381 262.424C437.079 262.325 437.777 262.189 438.46 262.044C438.672 261.999 438.892 261.946 439.105 261.9L439.188 261.885C439.934 261.712 440.615 261.327 441.148 260.776C441.68 260.226 442.043 259.533 442.191 258.781C442.339 258.029 442.267 257.251 441.983 256.539C441.7 255.827 441.216 255.213 440.592 254.769C440.205 254.489 439.81 254.215 439.423 253.942C438.832 253.51 438.232 253.1 437.633 252.676C437.57 252.636 437.509 252.593 437.451 252.547C436.768 252.061 436.085 251.591 435.41 251.098C435.934 249.407 436.84 247.86 438.058 246.576C442.298 242.199 449.869 242.298 454.816 245.863C459.769 249.429 462.258 255.672 462.576 261.756C462.857 266.968 461.734 272.127 460.255 277.156C460.627 277.429 461.014 277.687 461.385 277.968C468.215 283.03 474.532 288.749 480.245 295.044C476.945 287.216 475.746 277.004 476.603 269.972C477.582 261.961 481.474 254.352 484.66 246.773C488.476 237.67 501.494 237.549 505.165 246.713C505.203 246.804 505.241 246.887 505.272 246.978C504.657 247.593 504.065 248.23 503.496 248.89C502.782 249.722 502.335 250.75 502.215 251.839C502.095 252.929 502.306 254.03 502.822 254.997C503.338 255.965 504.134 256.754 505.105 257.261C506.077 257.769 507.179 257.971 508.268 257.842L508.382 257.827C508.855 260.531 509.124 263.267 509.186 266.012C509.28 273.691 507.787 281.308 504.8 288.383C501.813 295.458 497.397 301.84 491.829 307.129C491.465 307.471 491.108 307.804 490.736 308.131C494.251 313.128 497.407 318.368 500.181 323.811C502.644 328.609 504.808 333.555 506.66 338.62Z" fill="white"/>
        <path d="M360.485 267.451L358.194 424.797L173.121 419.487L202.677 354.245C202.465 352.151 215.649 337.457 215.573 335.28C215.346 328.9 220.11 322.99 220.884 316.314C222.462 302.545 213.427 250.549 217.591 239.807C219.366 235.01 221.639 230.413 224.374 226.091C226.74 222.511 229.168 220.098 231.489 219.226L238.332 203.28L244.401 194.176L292.02 180.074L297.285 178.511L309.567 190.497L318.253 198.978L326.423 200.397C327.645 200.609 328.828 200.86 329.966 201.148C335.446 202.412 340.555 204.942 344.88 208.537C359.142 220.652 360.804 243.441 360.485 267.451Z" fill="#888F99"/>
        <path d="M466.771 423.616C461.552 430.163 456.022 436.439 450.18 442.445L430.168 442.46L322.542 442.582L303.167 442.604L290.286 442.62L271.123 442.635L256.383 442.65L229.156 442.68L213.096 442.703L179.277 442.733L163.133 442.756L118.397 442.802L90.2981 442.832L82.7574 442.84C81.0809 441.125 79.4296 439.385 77.8036 437.62C73.7526 433.228 69.8558 428.699 66.1133 424.033L81.7257 424.018L92.3616 424.011L116.986 423.98L164.506 423.935L180.566 423.92L187.06 423.912H187.083L192.181 423.904L194.464 423.897L200.313 423.889H202.786L220.128 423.874L257.536 423.829L273.998 423.813L289.762 423.798L304.54 423.783L325.744 423.76L438.991 423.647L466.771 423.616Z" fill="#CCCCCC"/>
        <path d="M210.718 187.358L210.677 187.362C208.489 187.566 206.309 186.892 204.617 185.488C202.926 184.085 201.861 182.067 201.658 179.878L197.343 133.83C196.563 125.581 197.448 117.259 199.948 109.359C204.848 93.9405 215.508 81.0074 229.709 73.2552C237.041 69.2629 245.105 66.7965 253.416 66.0047C287.417 62.7654 299.843 69.8468 320.846 121.704C341.849 173.561 325.167 167.822 325.167 167.822C325.272 168.932 325.153 170.051 324.816 171.114C324.155 173.187 322.718 174.925 320.806 175.964C319.825 176.496 318.747 176.825 317.636 176.932C277.44 187.15 236.88 197.905 210.712 187.359L210.718 187.358Z" fill="#2F2E41"/>
        <path d="M285.535 109.637C290.581 117.102 293.301 125.896 293.352 134.907C293.404 143.917 290.783 152.741 285.822 160.264C280.862 167.786 273.783 173.67 265.48 177.171C257.178 180.673 248.023 181.636 239.174 179.938C233.316 178.833 227.735 176.577 222.755 173.3C217.776 170.023 213.495 165.79 210.163 160.847C205.128 153.384 202.415 144.597 202.367 135.594C202.319 126.592 204.937 117.776 209.892 110.259C214.847 102.743 221.916 96.861 230.209 93.3564C238.502 89.8517 247.646 88.8809 256.49 90.5662C262.353 91.6645 267.939 93.9159 272.925 97.1898C277.911 100.464 282.197 104.695 285.535 109.638L285.535 109.637Z" fill="#9E616A"/>
        <path d="M183.089 138.946C182.472 132.422 183.173 125.84 185.15 119.592C185.608 104.308 190.043 90.4645 208.684 91.0455C214.447 87.9108 220.781 85.9672 227.31 85.3303L236.522 84.4206C236.625 84.4103 236.729 84.4003 236.832 84.3907C243.214 83.7967 249.651 84.4656 255.775 86.3592C261.899 88.2529 267.59 91.3341 272.523 95.4271C277.456 99.52 281.534 104.544 284.525 110.214C287.516 115.883 289.362 122.086 289.956 128.468L290.042 129.39L270.552 131.296L262.164 113.345L262.578 132.079L252.512 133.067L248.282 124.011L248.488 133.456C233.542 146.619 210.879 147.309 183.185 139.869L183.089 138.946Z" fill="#2F2E41"/>
        <path d="M245.433 182.642C245.267 184.159 245.53 185.693 246.193 187.068C246.527 187.772 246.957 188.426 247.473 189.01C247.914 189.508 248.412 189.953 248.957 190.334C250.571 191.458 252.534 191.97 254.492 191.778C254.614 191.765 254.735 191.75 254.857 191.733C254.978 191.716 255.1 191.696 255.221 191.673C255.343 191.651 255.464 191.626 255.585 191.598C255.705 191.569 255.826 191.538 255.947 191.505L262.749 189.599L270.373 168.343L272.12 186.995L303.052 178.383L295.636 99.2324L242.916 104.427L244.362 105.819C249.166 110.495 252.587 116.406 254.248 122.901C255.897 129.483 256.406 136.298 255.753 143.051C255.142 149.88 253.878 156.635 251.977 163.222C250.322 169.055 248.332 174.788 246.018 180.392C245.719 181.111 245.522 181.868 245.433 182.642Z" fill="#2F2E41"/>
        <path d="M252.462 432.194C251.556 432.193 250.661 431.991 249.842 431.601L103.793 435.327C102.672 434.797 101.739 433.938 101.116 432.866C100.493 431.793 100.21 430.557 100.305 429.321C100.399 428.084 100.867 426.906 101.645 425.94C102.424 424.975 103.477 424.269 104.665 423.914L200.215 395.424C201.204 395.129 202.252 395.089 203.261 395.308L351.061 413.322C352.368 413.605 353.548 414.308 354.419 415.324C355.29 416.339 355.804 417.612 355.884 418.948C355.964 420.284 355.604 421.609 354.86 422.721C354.116 423.833 353.028 424.671 351.763 425.107L254.463 431.857C253.82 432.079 253.143 432.193 252.462 432.194Z" fill="#3F3D56"/>
        <path d="M257.834 422.027C257.175 422.027 256.526 421.859 255.951 421.537L137.337 427.078C136.664 426.7 136.119 426.129 135.775 425.437C135.431 424.746 135.304 423.967 135.409 423.202C135.514 422.436 135.847 421.721 136.364 421.148C136.882 420.574 137.56 420.17 138.311 419.988L181.251 409.566C181.922 409.404 182.623 409.425 183.283 409.626L293.551 409.493C294.336 409.733 295.023 410.219 295.513 410.878C296.002 411.537 296.268 412.335 296.27 413.156C296.273 413.977 296.013 414.778 295.529 415.44C295.044 416.103 294.36 416.593 293.576 416.839L258.982 421.852C258.61 421.968 258.223 422.027 257.834 422.027Z" fill="#2F2E41"/>
        <path d="M245.349 415.704C247.402 417.028 249.72 417.885 252.14 418.216C254.561 418.547 257.024 418.343 259.357 417.619C261.69 416.894 263.835 415.667 265.643 414.024C267.45 412.381 268.875 410.361 269.818 408.108L395.366 417.97L389.297 386.866L259.803 385.633C255.912 384.3 251.667 384.441 247.874 386.029C244.08 387.617 241 390.542 239.219 394.248C237.437 397.955 237.077 402.187 238.207 406.141C239.337 410.096 241.878 413.498 245.349 415.704Z" fill="#A0616A"/>
        <path d="M319.505 213.142C319.505 213.142 338.47 197.97 361.229 225.28C376.577 243.698 406.184 355.038 408.639 401.176C408.794 404.095 408.345 407.015 407.319 409.753C406.293 412.491 404.712 414.987 402.676 417.085C400.64 419.183 398.193 420.838 395.488 421.947C392.782 423.055 389.877 423.592 386.954 423.525L320.036 422.361L312.553 380.295L365.386 380.921L319.505 213.142Z" fill="#888F99"/>
        <path d="M244.34 432.21C242.044 432.208 239.772 431.748 237.656 430.857L102.286 433.945C98.7138 432.456 95.7481 429.804 93.8689 426.42C91.9896 423.036 91.3067 419.117 91.9304 415.297L86.9004 296.412C87.5675 292.166 89.8025 288.324 93.1642 285.645C96.5259 282.966 100.77 281.645 105.058 281.943L230.734 287.155C233.146 287.313 235.498 287.977 237.638 289.102C239.777 290.228 241.656 291.791 243.153 293.69C244.649 295.588 245.73 297.78 246.325 300.124C246.92 302.467 247.015 304.909 246.606 307.292L261.33 417.875C260.638 421.881 258.554 425.516 255.447 428.138C252.339 430.76 248.406 432.202 244.34 432.21Z" fill="#3F3D56"/>
        <path d="M141.547 78.2672L85.0525 78.1079C83.5382 78.1061 82.0849 78.7048 81.0113 79.7728C79.9376 80.8407 79.3312 82.2908 79.3249 83.8052L79.1201 158.613C79.1169 160.126 79.7144 161.578 80.7812 162.65C81.8481 163.723 83.297 164.328 84.8098 164.333L116.148 164.424L141.312 164.492C142.826 164.495 144.279 163.896 145.352 162.828C146.424 161.759 147.029 160.309 147.032 158.795L147.047 154.372L147.244 83.9948C147.247 82.4801 146.649 81.0261 145.581 79.9521C144.513 78.8782 143.062 78.2722 141.547 78.2672Z" fill="#E6E6E6"/>
        <path d="M137.564 82.7352L89.0127 82.5986C87.595 82.5968 86.2343 83.1572 85.2289 84.1569C84.2236 85.1565 83.6555 86.514 83.6493 87.9317L83.5127 136.028C83.5032 142.345 85.9993 148.407 90.4536 152.885C94.9078 157.364 100.956 159.893 107.273 159.917L116.498 159.94L137.352 160.001C138.77 160.004 140.132 159.444 141.137 158.444C142.143 157.444 142.711 156.086 142.715 154.668L142.731 149.828L142.898 88.0986C142.901 86.6805 142.341 85.3191 141.341 84.3134C140.341 83.3078 138.983 82.7401 137.564 82.7352Z" fill="white"/>
        <path d="M132.11 115.599H94.2545C93.9561 115.599 93.6607 115.657 93.385 115.772C93.1093 115.886 92.8589 116.053 92.6479 116.264C92.4369 116.475 92.2695 116.726 92.1554 117.001C92.0412 117.277 91.9824 117.572 91.9824 117.871C91.9824 118.169 92.0412 118.465 92.1554 118.74C92.2695 119.016 92.4369 119.266 92.6479 119.477C92.8589 119.688 93.1093 119.856 93.385 119.97C93.6607 120.084 93.9561 120.143 94.2545 120.143H132.11C132.712 120.143 133.29 119.903 133.716 119.477C134.142 119.051 134.382 118.473 134.382 117.871C134.382 117.268 134.142 116.69 133.716 116.264C133.29 115.838 132.712 115.599 132.11 115.599Z" fill="#888F99"/>
        <path d="M102.577 103.142H94.2545C93.6519 103.142 93.074 103.381 92.6479 103.808C92.2218 104.234 91.9824 104.812 91.9824 105.414C91.9824 106.017 92.2218 106.595 92.6479 107.021C93.074 107.447 93.6519 107.686 94.2545 107.686H102.577C103.179 107.686 103.757 107.447 104.183 107.021C104.609 106.595 104.849 106.017 104.849 105.414C104.849 104.812 104.609 104.234 104.183 103.808C103.757 103.381 103.179 103.142 102.577 103.142Z" fill="#888F99"/>
        <path d="M132.11 135.573H94.2545C93.6519 135.573 93.074 135.813 92.6479 136.239C92.2218 136.665 91.9824 137.243 91.9824 137.845C91.9824 138.448 92.2218 139.026 92.6479 139.452C93.074 139.878 93.6519 140.117 94.2545 140.117H132.11C132.712 140.117 133.29 139.878 133.716 139.452C134.142 139.026 134.382 138.448 134.382 137.845C134.382 137.243 134.142 136.665 133.716 136.239C133.29 135.813 132.712 135.573 132.11 135.573Z" fill="#888F99"/>
        <path d="M132.11 125.59H94.2546C93.653 125.59 93.0761 125.829 92.6507 126.254C92.2253 126.68 91.9863 127.257 91.9863 127.858C91.9863 128.46 92.2253 129.037 92.6507 129.462C93.0761 129.887 93.653 130.126 94.2546 130.126H132.11C132.711 130.126 133.288 129.887 133.714 129.462C134.139 129.037 134.378 128.46 134.378 127.858C134.378 127.257 134.139 126.68 133.714 126.254C133.288 125.829 132.711 125.59 132.11 125.59Z" fill="#888F99"/>
    </g>
    <g clip-path="url(#clip1_2645_6669)">
        <rect x="111.677" y="85.3999" width="22.9922" height="26.1275" rx="2.78694" fill="white"/>
        <path d="M132.182 109.489L127.78 107.842L119.246 107.732L115.573 109.489L116.605 115.418C116.605 115.418 114.522 118.945 116.815 122.472L117.33 135.041C117.33 135.041 125.557 139.812 132.502 134.083L130.932 122.397C130.932 122.397 133.558 116.975 131.523 114.961L132.182 109.489Z" fill="#0062B0"/>
        <path d="M130.39 111.331L132.183 109.489C132.183 109.489 136.096 111.547 136.016 118.432L131.079 116.911L130.39 111.331Z" fill="#0062B0"/>
        <path d="M117.566 111.331L115.66 109.426C115.66 109.426 112.299 112.027 112.379 118.911L116.876 116.911L117.566 111.331Z" fill="#0062B0"/>
        <path d="M127.631 104.448C129.99 102.089 129.99 98.2652 127.631 95.9066C125.273 93.5479 121.449 93.5479 119.09 95.9066C116.731 98.2652 116.731 102.089 119.09 104.448C121.449 106.807 125.273 106.807 127.631 104.448Z" fill="#9F616A"/>
    </g>
    <rect x="111.851" y="85.5741" width="22.6439" height="25.7792" rx="2.61275" stroke="black" stroke-width="0.348367"/>
    <path d="M119.369 100.984C119.834 100.959 120.287 101.101 120.749 101.156C122.399 101.354 124.115 100.273 124.48 98.8074C124.509 98.6122 124.574 98.4226 124.671 98.2462C124.925 97.8719 125.503 97.8006 125.98 97.8867C126.457 97.9727 126.909 98.1741 127.394 98.1972C128.144 98.2327 128.864 97.8161 129.263 97.2424C129.641 96.6506 129.801 95.9661 129.722 95.2869L129.362 95.6274C129.216 95.3485 129.16 95.0382 129.2 94.7319C129.009 94.6861 128.809 94.6852 128.618 94.7293C128.427 94.7734 128.252 94.861 128.109 94.9837C127.792 95.0141 128.031 94.4533 127.796 94.2594C127.682 94.1959 127.545 94.1729 127.413 94.1948C126.739 94.2006 126.193 93.7352 125.662 93.3606C124.742 92.7128 123.665 92.2697 122.52 92.0669C121.758 91.9328 120.949 91.9114 120.227 92.1665C119.644 92.4027 119.118 92.7395 118.679 93.1579C117.548 94.1381 116.547 95.2916 116.077 96.6418C115.695 97.7478 115.684 98.9311 116.046 100.043C116.235 100.62 116.807 102.597 117.643 102.643C118.692 102.701 118.062 101.055 119.369 100.984Z" fill="#2F2E41"/>
    <defs>
        <clipPath id="clip0_2645_6669">
            <rect width="512.828" height="512.828" fill="white" transform="translate(7.58594 7.58643)"/>
        </clipPath>
        <clipPath id="clip1_2645_6669">
            <rect x="111.677" y="85.3999" width="22.9922" height="26.1275" rx="2.78694" fill="white"/>
        </clipPath>
    </defs>
</svg>
