<svg width="586" height="448" viewBox="0 0 586 448" fill="none" xmlns="http://www.w3.org/2000/svg">
    <path d="M140.31 113.247C153.025 113.247 163.333 102.952 163.333 90.2523C163.333 77.5528 153.025 67.2578 140.31 67.2578C127.596 67.2578 117.288 77.5528 117.288 90.2523C117.288 102.952 127.596 113.247 140.31 113.247Z" fill="#9F616A"/>
    <path d="M127.003 93.0969C128.828 92.9878 130.61 93.6025 132.422 93.8446C138.907 94.7042 145.651 90.0049 147.083 83.6303C147.198 82.7814 147.452 81.957 147.833 81.19C148.832 79.5624 151.104 79.2525 152.977 79.6267C154.851 80.0009 156.627 80.8765 158.535 80.9769C161.481 81.1315 164.309 79.3197 165.88 76.8252C167.363 74.2517 167.994 71.2756 167.682 68.3223L166.269 69.8026C165.696 68.59 165.474 67.2409 165.63 65.9088C164.882 65.7096 164.094 65.7058 163.344 65.8976C162.594 66.0893 161.905 66.4703 161.344 67.004C160.099 67.1362 161.039 64.6973 160.115 63.8542C159.665 63.5782 159.129 63.4781 158.609 63.5732C155.96 63.5985 153.817 61.575 151.729 59.9459C148.112 57.1294 143.882 55.2024 139.382 54.3205C136.39 53.7375 133.209 53.6443 130.373 54.754C128.082 55.7808 126.015 57.2451 124.288 59.0646C119.847 63.3268 115.913 68.3426 114.066 74.2136C112.564 79.0227 112.521 84.1683 113.944 89.0015C114.688 91.5111 116.932 100.107 120.218 100.307C124.342 100.561 121.865 93.4032 127.003 93.0969Z" fill="#2F2E41"/>
    <path d="M95.1225 274.356C96.3992 273.482 97.4685 272.339 98.255 271.007C99.0415 269.675 99.526 268.188 99.6746 266.649C99.8231 265.11 99.632 263.557 99.1147 262.099C98.5974 260.642 97.7664 259.316 96.6804 258.214L100.788 166.636L79.8755 168.98L81.0907 258.559C79.3578 260.504 78.3995 263.017 78.3975 265.62C78.3954 268.224 79.3496 270.737 81.0794 272.685C82.8091 274.633 85.1941 275.879 87.7824 276.188C90.3707 276.496 92.9824 275.846 95.1225 274.359V274.356Z" fill="#A0616A"/>
    <path d="M133.272 429.378L145.175 431.468L156.938 386.606L141.344 383.521L133.272 429.378Z" fill="#A0616A"/>
    <path d="M166.103 446.555L128.692 439.954L131.246 425.518L154.203 429.568C158.036 430.244 161.443 432.414 163.675 435.6C165.907 438.785 166.78 442.726 166.103 446.555Z" fill="#2F2E41"/>
    <path d="M100.604 435.329H112.688L118.436 388.773H100.602L100.604 435.329Z" fill="#A0616A"/>
    <path d="M135.984 446.537H98.0029V431.881H121.309C125.201 431.881 128.934 433.425 131.686 436.174C134.438 438.922 135.984 442.65 135.984 446.537Z" fill="#2F2E41"/>
    <path d="M151.024 418.643C150.835 418.643 150.647 418.632 150.46 418.609L136.235 417.44C134.968 417.292 133.812 416.646 133.021 415.646C132.231 414.646 131.87 413.373 132.019 412.108C132.028 412.028 132.04 411.948 132.053 411.868L146.178 342.281L137.303 295.541C137.231 295.161 137.024 294.819 136.72 294.58C136.415 294.341 136.035 294.219 135.648 294.239C135.261 294.258 134.894 294.416 134.615 294.685C134.336 294.953 134.164 295.313 134.13 295.698L121.061 414.461C120.939 415.712 120.335 416.866 119.377 417.682C118.419 418.497 117.181 418.908 115.925 418.829L102.525 418.331C101.351 418.247 100.248 417.738 99.4238 416.898C98.6 416.058 98.1126 414.946 98.0537 413.771L99.1242 270.259L168.6 261.586L173.453 336.45L173.433 336.529L155.698 414.971C155.443 416.018 154.844 416.948 153.996 417.614C153.149 418.279 152.102 418.642 151.024 418.643Z" fill="#2F2E41"/>
    <path d="M144.841 281.181C141.054 281.204 137.339 280.143 134.136 278.123C122.409 270.802 109.089 273.712 102.192 276.1C101.508 276.339 100.778 276.421 100.058 276.339C99.3374 276.257 98.6449 276.014 98.0319 275.627C97.4261 275.247 96.9142 274.735 96.5346 274.13C96.1549 273.524 95.9174 272.841 95.8396 272.13L83.3014 160.26C81.1996 141.517 92.5038 123.895 110.18 118.36C110.844 118.152 111.519 117.955 112.205 117.768C117.705 116.279 123.466 116.012 129.081 116.985C134.696 117.959 140.03 120.149 144.706 123.403C149.469 126.692 153.453 130.984 156.378 135.976C159.302 140.969 161.095 146.541 161.631 152.3L172.191 264.917C172.262 265.646 172.163 266.382 171.901 267.067C171.639 267.752 171.221 268.366 170.681 268.862C166.98 272.282 156.239 281.179 144.841 281.181Z" fill="#888F99"/>
    <path d="M106.654 184.249L78.3604 181.142C77.5554 181.054 76.7789 180.793 76.0839 180.378C75.3889 179.963 74.7916 179.403 74.3328 178.736C73.8739 178.07 73.5642 177.313 73.4249 176.516C73.2855 175.719 73.3197 174.901 73.5252 174.119L80.727 146.703C80.9443 144.661 81.5626 142.681 82.5464 140.877C83.5302 139.073 84.8603 137.481 86.4606 136.191C88.061 134.901 89.9002 133.938 91.8731 133.358C93.846 132.779 95.914 132.593 97.9589 132.812C100.004 133.03 101.985 133.65 103.791 134.634C105.596 135.618 107.189 136.948 108.479 138.547C109.77 140.147 110.732 141.985 111.31 143.956C111.889 145.927 112.074 147.992 111.853 150.035C111.846 150.094 111.84 150.153 111.833 150.211L112.902 178.443C112.932 179.251 112.788 180.056 112.478 180.804C112.169 181.551 111.702 182.224 111.109 182.775C110.516 183.325 109.811 183.742 109.042 183.997C108.274 184.251 107.459 184.337 106.654 184.249Z" fill="#888F99"/>
    <path d="M172.073 270.436C173.235 269.414 174.159 268.15 174.779 266.734C175.4 265.317 175.701 263.781 175.663 262.236C175.625 260.69 175.248 259.171 174.559 257.787C173.869 256.402 172.884 255.186 171.673 254.222L164.701 162.817L144.21 167.425L156.239 256.44C154.754 258.579 154.106 261.188 154.419 263.772C154.731 266.356 155.981 268.737 157.933 270.462C159.885 272.187 162.402 273.137 165.008 273.132C167.615 273.127 170.129 272.168 172.074 270.436L172.073 270.436Z" fill="#A0616A"/>
    <path d="M136.353 178.502C135.76 177.951 135.292 177.279 134.983 176.531C134.674 175.783 134.53 174.977 134.561 174.168L135.63 145.937C135.189 141.83 136.394 137.715 138.981 134.493C141.568 131.27 145.327 129.201 149.437 128.737C153.546 128.274 157.672 129.454 160.914 132.019C164.155 134.585 166.248 138.327 166.736 142.429L173.937 169.844C174.143 170.627 174.177 171.444 174.038 172.241C173.898 173.038 173.589 173.795 173.13 174.462C172.671 175.128 172.074 175.688 171.379 176.103C170.684 176.518 169.907 176.779 169.102 176.868L140.809 179.974C140.003 180.063 139.189 179.977 138.42 179.723C137.651 179.468 136.946 179.051 136.353 178.5V178.502Z" fill="#888F99"/>
    <path d="M533.946 446.555H0V448H533.946V446.555Z" fill="#CACACA"/>
    <path d="M572.702 97.9419L571.285 97.4663L584.29 58.6961C586.286 52.7451 585.834 46.2459 583.032 40.6281C580.23 35.0104 575.309 30.7343 569.351 28.7406L569.35 28.7402L487.109 1.22574C481.15 -0.767948 474.643 -0.315957 469.019 2.48229C463.394 5.28053 459.113 10.1958 457.117 16.1468L457.117 16.1479L385.78 228.844C384.792 231.791 384.394 234.903 384.61 238.003C384.826 241.103 385.651 244.131 387.038 246.912C388.425 249.694 390.347 252.175 392.695 254.215C395.042 256.255 397.769 257.813 400.719 258.8L400.72 258.8L482.959 286.316C488.918 288.31 495.425 287.857 501.049 285.059C506.673 282.261 510.954 277.345 512.95 271.394L562.028 125.066L563.445 125.54L572.702 97.9419Z" fill="#3F3D56"/>
    <path d="M568.296 34.8826L557.561 31.2909C557.649 32.6649 557.397 34.0395 556.829 35.2936C556.26 36.5477 555.391 37.6427 554.298 38.4824C553.206 39.322 551.923 39.8804 550.564 40.1084C549.204 40.3364 547.809 40.227 546.502 39.7898L499.389 24.0263C498.082 23.5886 496.903 22.8367 495.956 21.8367C495.008 20.8367 494.321 19.6194 493.956 18.292C493.59 16.9645 493.557 15.5677 493.86 14.2245C494.162 12.8813 494.79 11.6329 495.689 10.5893L485.663 7.23454C481.213 5.7458 476.354 6.0835 472.153 8.17335C467.953 10.2632 464.756 13.934 463.265 18.3783L392.031 230.762C390.54 235.207 390.878 240.06 392.971 244.256C395.063 248.451 398.738 251.644 403.188 253.133L485.823 280.781C490.273 282.27 495.132 281.932 499.333 279.843C503.533 277.753 506.73 274.082 508.221 269.638L579.454 57.2534C580.944 52.809 580.606 47.9553 578.513 43.76C576.421 39.5646 572.745 36.3714 568.296 34.8826Z" fill="white"/>
    <path d="M547.63 106.135L459.442 76.629C459.009 76.4837 458.652 76.1728 458.448 75.7645C458.245 75.3563 458.212 74.8841 458.356 74.4515L465.685 52.6015C465.83 52.1692 466.141 51.8122 466.55 51.6089C466.959 51.4055 467.432 51.3724 467.865 51.5168L556.053 81.0233C556.486 81.1687 556.843 81.4796 557.047 81.8878C557.25 82.296 557.283 82.7682 557.139 83.2009L549.811 105.05C549.665 105.482 549.354 105.839 548.945 106.043C548.536 106.246 548.064 106.279 547.631 106.135L547.63 106.135ZM467.646 52.17C467.386 52.0834 467.102 52.1033 466.857 52.2253C466.612 52.3473 466.425 52.5616 466.338 52.8209L459.01 74.6702C458.923 74.9298 458.943 75.2131 459.065 75.458C459.187 75.703 459.402 75.8895 459.661 75.9766L547.849 105.483C548.109 105.57 548.393 105.55 548.638 105.428C548.883 105.306 549.07 105.092 549.157 104.832L556.486 82.984C556.573 82.7244 556.553 82.4411 556.431 82.1962C556.309 81.9513 556.094 81.7648 555.835 81.6776L467.646 52.17Z" fill="#3F3D56"/>
    <path d="M518.635 192.586L430.447 163.079C430.014 162.934 429.657 162.623 429.453 162.215C429.25 161.807 429.217 161.334 429.361 160.902L442.926 120.458C443.071 120.026 443.383 119.669 443.791 119.466C444.2 119.262 444.673 119.229 445.106 119.374L533.294 148.879C533.727 149.024 534.084 149.335 534.288 149.744C534.492 150.152 534.525 150.624 534.38 151.057L520.815 191.501C520.669 191.933 520.358 192.29 519.949 192.493C519.541 192.697 519.068 192.73 518.635 192.586ZM444.887 120.026C444.627 119.939 444.343 119.959 444.098 120.081C443.853 120.203 443.666 120.417 443.579 120.677L430.014 161.12C429.928 161.38 429.948 161.663 430.07 161.908C430.192 162.153 430.406 162.339 430.666 162.427L518.854 191.933C519.114 192.02 519.398 192 519.643 191.878C519.888 191.756 520.075 191.542 520.162 191.282L533.728 150.838C533.814 150.578 533.794 150.295 533.672 150.05C533.55 149.805 533.336 149.619 533.076 149.532L444.887 120.026Z" fill="#3F3D56"/>
    <path d="M535.597 139.845L496.403 126.729C495.97 126.584 495.613 126.273 495.409 125.865C495.206 125.457 495.173 124.984 495.317 124.552L502.645 102.703C502.791 102.27 503.102 101.913 503.511 101.71C503.92 101.507 504.393 101.473 504.826 101.618L544.02 114.733C544.453 114.878 544.81 115.189 545.014 115.598C545.218 116.006 545.251 116.478 545.106 116.911L537.778 138.76C537.633 139.193 537.321 139.55 536.912 139.753C536.503 139.957 536.03 139.99 535.597 139.845ZM504.607 102.272C504.347 102.185 504.063 102.205 503.818 102.327C503.573 102.449 503.386 102.663 503.299 102.923L495.971 124.772C495.884 125.032 495.904 125.315 496.026 125.56C496.148 125.805 496.363 125.991 496.623 126.078L535.817 139.192C536.077 139.279 536.361 139.259 536.606 139.137C536.851 139.015 537.038 138.801 537.125 138.541L544.453 116.692C544.54 116.432 544.52 116.149 544.398 115.904C544.276 115.659 544.061 115.473 543.802 115.386L504.607 102.272Z" fill="#E6E6E6"/>
    <path d="M451.917 229.042L412.723 215.928C412.291 215.782 411.933 215.472 411.73 215.063C411.526 214.655 411.493 214.183 411.638 213.75L425.312 172.98C425.457 172.548 425.768 172.191 426.177 171.987C426.586 171.784 427.059 171.751 427.492 171.895L466.686 185.009C467.119 185.154 467.476 185.465 467.68 185.873C467.883 186.282 467.916 186.754 467.772 187.187L454.097 227.957C453.952 228.389 453.64 228.746 453.232 228.95C452.823 229.153 452.35 229.186 451.917 229.042ZM427.272 172.547C427.012 172.461 426.728 172.481 426.483 172.603C426.238 172.725 426.051 172.939 425.964 173.198L412.289 213.969C412.203 214.228 412.222 214.512 412.345 214.756C412.467 215.001 412.681 215.188 412.941 215.275L452.136 228.389C452.396 228.476 452.679 228.456 452.925 228.334C453.17 228.212 453.357 227.998 453.444 227.738L467.118 186.968C467.205 186.708 467.185 186.425 467.063 186.18C466.94 185.935 466.726 185.749 466.466 185.661L427.272 172.547Z" fill="#E6E6E6"/>
    <path d="M500.257 245.216L461.062 232.102C460.63 231.956 460.272 231.645 460.069 231.237C459.865 230.829 459.832 230.357 459.976 229.924L473.65 189.154C473.796 188.721 474.107 188.364 474.516 188.161C474.925 187.958 475.398 187.925 475.831 188.069L515.026 201.183C515.458 201.329 515.816 201.639 516.019 202.048C516.223 202.456 516.256 202.928 516.112 203.361L502.437 244.131C502.292 244.563 501.981 244.92 501.572 245.124C501.163 245.327 500.69 245.36 500.257 245.216ZM475.612 188.721C475.352 188.635 475.069 188.655 474.823 188.777C474.578 188.899 474.391 189.113 474.304 189.372L460.63 230.143C460.543 230.402 460.563 230.686 460.685 230.931C460.807 231.176 461.022 231.362 461.281 231.449L500.476 244.564C500.736 244.65 501.02 244.63 501.265 244.508C501.51 244.386 501.697 244.172 501.784 243.913L515.458 203.142C515.545 202.883 515.525 202.599 515.403 202.355C515.281 202.11 515.066 201.923 514.807 201.836L475.612 188.721Z" fill="#E6E6E6"/>
    <path d="M453.351 145.073C457.226 145.073 460.367 141.936 460.367 138.066C460.367 134.196 457.226 131.059 453.351 131.059C449.476 131.059 446.335 134.196 446.335 138.066C446.335 141.936 449.476 145.073 453.351 145.073Z" fill="#888F99"/>
    <path d="M470.199 138.777C469.905 138.679 469.584 138.701 469.306 138.839C469.029 138.977 468.817 139.22 468.719 139.514C468.62 139.807 468.643 140.128 468.781 140.405C468.919 140.683 469.162 140.894 469.456 140.992L521.725 158.48C521.871 158.529 522.025 158.549 522.178 158.538C522.331 158.527 522.481 158.487 522.618 158.418C522.756 158.35 522.878 158.255 522.979 158.14C523.08 158.024 523.157 157.889 523.206 157.744C523.254 157.599 523.274 157.445 523.263 157.292C523.253 157.139 523.212 156.99 523.143 156.852C523.075 156.715 522.98 156.592 522.864 156.492C522.748 156.391 522.614 156.314 522.468 156.266L470.199 138.777Z" fill="#E6E6E6"/>
    <path d="M467.971 145.422C467.826 145.373 467.672 145.354 467.519 145.364C467.366 145.375 467.216 145.415 467.079 145.484C466.941 145.552 466.819 145.647 466.718 145.763C466.617 145.878 466.54 146.013 466.491 146.158C466.442 146.304 466.423 146.457 466.433 146.61C466.444 146.763 466.485 146.913 466.553 147.05C466.622 147.187 466.717 147.31 466.833 147.41C466.948 147.511 467.083 147.588 467.229 147.637L489.72 155.162C489.866 155.211 490.02 155.23 490.173 155.22C490.326 155.209 490.476 155.169 490.613 155.1C490.75 155.032 490.873 154.937 490.974 154.821C491.075 154.706 491.152 154.571 491.2 154.426C491.249 154.28 491.269 154.127 491.258 153.974C491.247 153.821 491.207 153.671 491.138 153.534C491.07 153.397 490.975 153.274 490.859 153.174C490.743 153.073 490.609 152.996 490.463 152.947L467.971 145.422Z" fill="#E6E6E6"/>
    <path d="M443.943 149.196C443.099 148.914 442.246 149.181 442.042 149.794C441.837 150.406 442.357 151.131 443.2 151.413L515.316 175.541C516.159 175.824 517.012 175.556 517.217 174.944C517.421 174.332 516.902 173.607 516.058 173.325L443.943 149.196Z" fill="#E6E6E6"/>
    <path d="M441.714 155.841C440.871 155.559 440.018 155.826 439.813 156.438C439.608 157.05 440.128 157.775 440.972 158.057L513.087 182.186C513.93 182.468 514.783 182.201 514.988 181.589C515.193 180.977 514.673 180.252 513.83 179.97L441.714 155.841Z" fill="#E6E6E6"/>
    <path d="M477.638 74.8273C481.513 74.8273 484.654 71.69 484.654 67.8199C484.654 63.9498 481.513 60.8125 477.638 60.8125C473.763 60.8125 470.622 63.9498 470.622 67.8199C470.622 71.69 473.763 74.8273 477.638 74.8273Z" fill="#888F99"/>
    <path d="M494.487 68.5307C494.341 68.482 494.188 68.4624 494.035 68.473C493.881 68.4837 493.732 68.5243 493.594 68.5927C493.457 68.6611 493.334 68.7559 493.233 68.8716C493.133 68.9873 493.056 69.1217 493.007 69.2671C492.958 69.4126 492.938 69.5662 492.949 69.7192C492.96 69.8722 493 70.0216 493.069 70.1589C493.137 70.2962 493.232 70.4186 493.348 70.5193C493.464 70.62 493.599 70.6969 493.744 70.7456L546.013 88.2338C546.159 88.2825 546.313 88.3021 546.466 88.2915C546.619 88.2809 546.769 88.2402 546.906 88.1718C547.044 88.1034 547.166 88.0087 547.267 87.893C547.368 87.7772 547.445 87.6428 547.494 87.4974C547.542 87.352 547.562 87.1984 547.551 87.0454C547.541 86.8924 547.5 86.7429 547.432 86.6057C547.363 86.4684 547.268 86.3459 547.152 86.2452C547.036 86.1446 546.902 86.0677 546.756 86.019L494.487 68.5307Z" fill="#E6E6E6"/>
    <path d="M492.259 75.1752C492.113 75.1265 491.959 75.1069 491.806 75.1176C491.653 75.1282 491.503 75.1689 491.366 75.2373C491.228 75.3056 491.106 75.4004 491.005 75.5161C490.904 75.6318 490.827 75.7662 490.778 75.9117C490.73 76.0571 490.71 76.2107 490.721 76.3637C490.731 76.5167 490.772 76.6661 490.84 76.8034C490.909 76.9407 491.004 77.0632 491.12 77.1638C491.235 77.2645 491.37 77.3414 491.516 77.3901L514.007 84.9156C514.153 84.9643 514.307 84.9839 514.46 84.9732C514.613 84.9626 514.763 84.9219 514.9 84.8535C515.038 84.7852 515.16 84.6904 515.261 84.5747C515.362 84.459 515.439 84.3246 515.487 84.1791C515.536 84.0337 515.556 83.8801 515.545 83.7271C515.535 83.5741 515.494 83.4247 515.425 83.2874C515.357 83.1501 515.262 83.0276 515.146 82.927C515.03 82.8263 514.896 82.7494 514.75 82.7007L492.259 75.1752Z" fill="#E6E6E6"/>
    <path d="M487.222 123.664L450.454 111.362L464.127 99.2874C464.372 99.0709 464.67 98.9226 464.991 98.8575C465.311 98.7925 465.644 98.8128 465.954 98.9166C466.264 99.0204 466.541 99.2039 466.758 99.4487C466.975 99.6935 467.123 99.991 467.188 100.311L468.74 107.943L478.672 99.1713C478.978 98.9004 479.351 98.7149 479.752 98.6335C480.154 98.5521 480.57 98.5777 480.958 98.7076C481.346 98.8376 481.693 99.0673 481.965 99.3737C482.236 99.6802 482.422 100.053 482.503 100.453L487.222 123.664ZM451.804 111.088L486.31 122.633L481.828 100.592C481.77 100.309 481.639 100.047 481.448 99.8313C481.257 99.6154 481.012 99.4536 480.739 99.3621C480.465 99.2705 480.172 99.2525 479.89 99.3098C479.607 99.3672 479.344 99.4978 479.128 99.6886L468.302 109.248L466.513 100.449C466.472 100.247 466.378 100.059 466.242 99.905C466.105 99.7507 465.931 99.635 465.735 99.5696C465.54 99.5042 465.33 99.4914 465.128 99.5324C464.926 99.5734 464.739 99.6668 464.584 99.8032L451.804 111.088Z" fill="#E6E6E6"/>
    <path d="M487.258 123.671L448.063 110.557C447.631 110.412 447.273 110.101 447.07 109.693C446.866 109.284 446.833 108.812 446.977 108.379L454.305 86.5302C454.451 86.0979 454.762 85.7409 455.171 85.5376C455.58 85.3342 456.052 85.3011 456.485 85.4455L495.68 98.5596C496.113 98.705 496.471 99.0159 496.674 99.4241C496.878 99.8324 496.911 100.305 496.766 100.737L489.438 122.586C489.292 123.018 488.981 123.375 488.572 123.579C488.164 123.782 487.691 123.815 487.258 123.671ZM456.267 86.0976C456.007 86.011 455.723 86.0308 455.478 86.1529C455.233 86.2749 455.046 86.4891 454.959 86.7485L447.631 108.598C447.544 108.857 447.564 109.141 447.686 109.386C447.809 109.631 448.023 109.817 448.283 109.904L487.478 123.018C487.737 123.105 488.021 123.085 488.266 122.963C488.512 122.841 488.698 122.627 488.786 122.367L496.114 100.518C496.201 100.259 496.181 99.9752 496.058 99.7303C495.936 99.4854 495.722 99.2989 495.462 99.2117L456.267 86.0976Z" fill="#E6E6E6"/>
    <path d="M433.023 183.097C432.877 183.048 432.723 183.028 432.57 183.039C432.416 183.049 432.267 183.09 432.129 183.158C431.992 183.227 431.869 183.321 431.768 183.437C431.667 183.553 431.59 183.687 431.541 183.833C431.492 183.979 431.473 184.132 431.483 184.285C431.494 184.439 431.535 184.588 431.603 184.725C431.672 184.863 431.767 184.985 431.883 185.086C431.999 185.187 432.134 185.263 432.28 185.312L454.771 192.837C455.065 192.935 455.386 192.913 455.663 192.775C455.941 192.636 456.152 192.394 456.25 192.101C456.349 191.807 456.326 191.487 456.188 191.209C456.05 190.932 455.808 190.721 455.514 190.623L433.023 183.097Z" fill="#E6E6E6"/>
    <path d="M430.834 189.622C430.689 189.573 430.535 189.553 430.381 189.563C430.228 189.574 430.078 189.614 429.941 189.683C429.803 189.751 429.68 189.846 429.579 189.962C429.478 190.077 429.401 190.212 429.353 190.357C429.304 190.503 429.284 190.657 429.295 190.81C429.306 190.963 429.346 191.113 429.415 191.25C429.484 191.387 429.579 191.51 429.695 191.61C429.811 191.711 429.946 191.788 430.091 191.836L452.583 199.363C452.877 199.461 453.198 199.438 453.474 199.3C453.751 199.161 453.962 198.919 454.06 198.626C454.159 198.333 454.137 198.013 453.999 197.736C453.861 197.459 453.619 197.248 453.326 197.148L430.834 189.622Z" fill="#E6E6E6"/>
    <path d="M494.726 234.014C495.019 234.112 495.34 234.09 495.618 233.951C495.895 233.813 496.106 233.571 496.204 233.277C496.303 232.984 496.281 232.663 496.143 232.386C496.005 232.109 495.762 231.898 495.468 231.799L472.977 224.274C472.683 224.176 472.362 224.199 472.085 224.337C471.808 224.475 471.596 224.717 471.498 225.011C471.4 225.304 471.422 225.625 471.56 225.902C471.698 226.179 471.94 226.39 472.234 226.489L494.726 234.014Z" fill="#E6E6E6"/>
    <path d="M496.914 227.49C497.06 227.539 497.214 227.559 497.367 227.548C497.52 227.538 497.67 227.497 497.808 227.429C497.945 227.36 498.068 227.265 498.169 227.15C498.27 227.034 498.347 226.899 498.396 226.754C498.444 226.608 498.464 226.455 498.453 226.301C498.443 226.148 498.402 225.999 498.333 225.861C498.265 225.724 498.17 225.602 498.053 225.501C497.937 225.4 497.803 225.323 497.657 225.275L475.165 217.749C475.02 217.701 474.866 217.681 474.712 217.691C474.559 217.702 474.409 217.742 474.272 217.811C474.134 217.879 474.011 217.974 473.91 218.09C473.809 218.205 473.732 218.34 473.684 218.485C473.635 218.631 473.615 218.785 473.626 218.938C473.637 219.091 473.677 219.24 473.746 219.378C473.815 219.515 473.91 219.638 474.026 219.738C474.142 219.839 474.277 219.916 474.422 219.964L496.914 227.49Z" fill="#E6E6E6"/>
    <path d="M532.042 122.979C532.188 123.028 532.341 123.048 532.495 123.037C532.648 123.027 532.798 122.986 532.935 122.918C533.073 122.849 533.196 122.755 533.297 122.639C533.398 122.523 533.475 122.389 533.524 122.243C533.572 122.098 533.592 121.944 533.581 121.791C533.571 121.638 533.53 121.488 533.461 121.351C533.393 121.213 533.297 121.091 533.181 120.99C533.065 120.89 532.931 120.813 532.785 120.764L510.293 113.239C510.148 113.19 509.994 113.17 509.84 113.18C509.687 113.191 509.537 113.232 509.4 113.3C509.262 113.368 509.139 113.463 509.038 113.579C508.937 113.695 508.86 113.829 508.812 113.975C508.763 114.12 508.743 114.274 508.754 114.427C508.765 114.58 508.805 114.73 508.874 114.867C508.943 115.004 509.038 115.127 509.154 115.228C509.27 115.328 509.405 115.405 509.55 115.454L532.042 122.979Z" fill="#E6E6E6"/>
    <path d="M530.174 128.205C530.319 128.254 530.473 128.273 530.627 128.263C530.78 128.252 530.93 128.212 531.067 128.143C531.205 128.075 531.328 127.98 531.429 127.865C531.53 127.749 531.607 127.614 531.655 127.469C531.704 127.323 531.724 127.169 531.713 127.016C531.702 126.863 531.662 126.714 531.593 126.576C531.524 126.439 531.429 126.316 531.313 126.216C531.197 126.115 531.062 126.038 530.917 125.99L508.425 118.464C508.279 118.415 508.125 118.396 507.972 118.406C507.819 118.417 507.669 118.457 507.531 118.525C507.394 118.594 507.271 118.689 507.17 118.804C507.069 118.92 506.992 119.055 506.943 119.2C506.895 119.346 506.875 119.5 506.886 119.653C506.896 119.806 506.937 119.955 507.006 120.093C507.074 120.23 507.169 120.353 507.286 120.453C507.402 120.554 507.536 120.631 507.682 120.679L530.174 128.205Z" fill="#E6E6E6"/>
    <rect x="454.92" y="84.9266" width="95.7178" height="27.078" rx="1.73174" transform="rotate(18.4083 454.92 84.9266)" fill="#FEF8D3"/>
    <rect x="454.92" y="84.9266" width="95.7178" height="27.078" rx="1.73174" transform="rotate(18.4083 454.92 84.9266)" stroke="#8C969F" stroke-width="0.314861"/>
    <path d="M475.471 111.512C475.05 111.372 474.679 111.184 474.36 110.948C474.049 110.715 473.798 110.453 473.607 110.16C473.424 109.87 473.305 109.557 473.248 109.219C473.2 108.885 473.234 108.543 473.35 108.193C473.44 107.924 473.561 107.696 473.713 107.507C473.877 107.313 474.061 107.15 474.264 107.019C474.467 106.887 474.682 106.78 474.909 106.696C475.145 106.615 475.384 106.555 475.626 106.516L475.644 106.462C475.39 106.119 475.2 105.747 475.074 105.347C474.957 104.95 474.975 104.523 475.127 104.066C475.244 103.716 475.411 103.423 475.629 103.187C475.856 102.954 476.114 102.776 476.403 102.654C476.702 102.534 477.026 102.473 477.376 102.469C477.734 102.469 478.097 102.53 478.465 102.653C478.85 102.781 479.176 102.954 479.442 103.172C479.719 103.384 479.932 103.629 480.078 103.906C480.237 104.178 480.326 104.477 480.347 104.802C480.371 105.119 480.325 105.452 480.209 105.802C480.137 106.017 480.033 106.211 479.896 106.384C479.77 106.552 479.625 106.703 479.461 106.837C479.3 106.963 479.124 107.073 478.933 107.169C478.753 107.259 478.58 107.33 478.413 107.384L478.395 107.438C478.556 107.611 478.703 107.799 478.834 108.002C478.969 108.196 479.074 108.405 479.148 108.629C479.223 108.853 479.264 109.091 479.27 109.342C479.276 109.593 479.231 109.862 479.136 110.148C479.025 110.48 478.851 110.765 478.612 111.004C478.385 111.237 478.11 111.42 477.788 111.551C477.468 111.674 477.11 111.734 476.712 111.731C476.315 111.728 475.901 111.655 475.471 111.512ZM477.696 106.712C478.006 106.557 478.26 106.378 478.457 106.174C478.663 105.974 478.811 105.74 478.9 105.471C479.026 105.094 479.017 104.748 478.873 104.431C478.742 104.109 478.474 103.88 478.071 103.746C477.739 103.636 477.427 103.646 477.134 103.778C476.845 103.901 476.637 104.15 476.512 104.526C476.44 104.742 476.422 104.945 476.458 105.136C476.494 105.327 476.568 105.511 476.678 105.687C476.801 105.857 476.947 106.03 477.118 106.206C477.291 106.374 477.484 106.542 477.696 106.712ZM475.865 110.419C476.277 110.556 476.651 110.556 476.985 110.418C477.329 110.284 477.567 110.015 477.702 109.611C477.779 109.378 477.791 109.163 477.737 108.966C477.686 108.76 477.588 108.563 477.441 108.375C477.307 108.181 477.132 107.988 476.917 107.797C476.702 107.606 476.47 107.404 476.222 107.193C475.887 107.3 475.586 107.459 475.317 107.668C475.057 107.88 474.872 108.152 474.762 108.484C474.619 108.914 474.656 109.31 474.874 109.671C475.096 110.023 475.426 110.273 475.865 110.419ZM483.912 114.142C484.202 113.392 484.5 112.72 484.807 112.126C485.118 111.522 485.458 110.963 485.828 110.449C486.207 109.938 486.63 109.462 487.096 109.02C487.564 108.568 488.1 108.124 488.703 107.688L484.657 106.341L485.091 105.037L490.831 106.948L490.518 107.889C489.81 108.34 489.206 108.796 488.704 109.256C488.215 109.71 487.782 110.204 487.406 110.735C487.032 111.258 486.695 111.838 486.394 112.474C486.101 113.114 485.798 113.844 485.485 114.666L483.912 114.142ZM495.257 117.918L495.991 115.713L492.213 114.456L492.562 113.407L497.713 109.238L499.555 109.851L497.841 115L498.917 115.358L498.519 116.554L497.443 116.197L496.709 118.401L495.257 117.918ZM494.144 113.77L496.389 114.517L497.034 112.581C497.117 112.33 497.22 112.036 497.342 111.698C497.474 111.363 497.59 111.074 497.691 110.829L497.638 110.811C497.456 110.999 497.27 111.181 497.082 111.358C496.894 111.534 496.699 111.718 496.496 111.909L494.144 113.77ZM504.008 121.01C503.318 120.78 502.774 120.469 502.376 120.078C501.991 119.681 501.694 119.274 501.484 118.856L502.528 118.098C502.707 118.426 502.927 118.738 503.187 119.034C503.45 119.321 503.797 119.536 504.227 119.679C504.711 119.84 505.153 119.828 505.553 119.642C505.962 119.46 506.253 119.109 506.426 118.589C506.596 118.078 506.584 117.636 506.39 117.263C506.195 116.889 505.861 116.624 505.386 116.466C505.108 116.373 504.861 116.336 504.646 116.354C504.434 116.363 504.17 116.409 503.853 116.493L503.271 115.777L504.931 111.64L509.502 113.162L509.068 114.466L505.841 113.392L504.977 115.404C505.187 115.374 505.384 115.365 505.569 115.377C505.766 115.383 505.977 115.423 506.201 115.497C506.568 115.62 506.895 115.788 507.182 116.003C507.478 116.221 507.71 116.482 507.877 116.787C508.047 117.083 508.148 117.425 508.178 117.813C508.211 118.192 508.151 118.611 507.999 119.068C507.844 119.534 507.62 119.922 507.328 120.233C507.044 120.547 506.721 120.783 506.36 120.941C505.999 121.1 505.612 121.185 505.2 121.197C504.799 121.203 504.402 121.141 504.008 121.01ZM511.4 123.291L511.821 122.027L513.73 122.662L515.6 117.043L514.027 116.519L514.349 115.551C514.806 115.614 515.205 115.642 515.546 115.636C515.898 115.624 516.236 115.582 516.558 115.51L517.714 115.895L515.289 123.181L516.97 123.741L516.549 125.004L511.4 123.291Z" fill="#212121"/>
    <path d="M331.835 81.2508L242.892 81C240.508 80.9972 238.22 81.9398 236.53 83.6211C234.84 85.3025 233.885 87.5854 233.875 89.9695L233.553 207.744C233.548 210.125 234.488 212.412 236.168 214.1C237.847 215.789 240.129 216.742 242.51 216.749L291.849 216.893L331.465 217C333.849 217.004 336.136 216.062 337.825 214.38C339.514 212.698 340.465 210.414 340.47 208.03L340.494 201.067L340.805 90.2681C340.81 87.8834 339.868 85.5942 338.186 83.9035C336.504 82.2128 334.22 81.2587 331.835 81.2508Z" fill="#E6E6E6"/>
    <path d="M325.565 88.2858L249.127 88.0708C246.895 88.068 244.753 88.9502 243.17 90.524C241.587 92.0979 240.693 94.235 240.683 96.467L240.468 172.188C240.453 182.133 244.383 191.677 251.395 198.727C258.408 205.778 267.931 209.759 277.875 209.798L292.398 209.834L325.23 209.93C327.463 209.935 329.606 209.053 331.19 207.479C332.773 205.905 333.667 203.766 333.674 201.534L333.698 193.914L333.961 96.7298C333.966 94.4971 333.084 92.3537 331.51 90.7705C329.936 89.1873 327.798 88.2936 325.565 88.2858Z" fill="white"/>
    <path d="M316.978 140.024H257.38C256.91 140.024 256.445 140.117 256.011 140.297C255.577 140.476 255.183 140.74 254.85 141.072C254.518 141.404 254.255 141.799 254.075 142.233C253.895 142.667 253.803 143.132 253.803 143.601C253.803 144.071 253.895 144.536 254.075 144.97C254.255 145.404 254.518 145.799 254.85 146.131C255.183 146.463 255.577 146.726 256.011 146.906C256.445 147.086 256.91 147.179 257.38 147.179H316.978C317.926 147.179 318.836 146.802 319.507 146.131C320.178 145.46 320.555 144.55 320.555 143.601C320.555 142.653 320.178 141.743 319.507 141.072C318.836 140.401 317.926 140.024 316.978 140.024Z" fill="#888F99"/>
    <path d="M270.482 120.413H257.38C256.431 120.413 255.521 120.79 254.85 121.461C254.18 122.132 253.803 123.041 253.803 123.99C253.803 124.939 254.18 125.849 254.85 126.52C255.521 127.19 256.431 127.567 257.38 127.567H270.482C271.43 127.567 272.34 127.19 273.011 126.52C273.682 125.849 274.059 124.939 274.059 123.99C274.059 123.041 273.682 122.132 273.011 121.461C272.34 120.79 271.43 120.413 270.482 120.413Z" fill="#888F99"/>
    <path d="M316.978 171.472H257.38C256.431 171.472 255.521 171.849 254.85 172.519C254.18 173.19 253.803 174.1 253.803 175.049C253.803 175.997 254.18 176.907 254.85 177.578C255.521 178.249 256.431 178.626 257.38 178.626H316.978C317.926 178.626 318.836 178.249 319.507 177.578C320.178 176.907 320.555 175.997 320.555 175.049C320.555 174.1 320.178 173.19 319.507 172.519C318.836 171.849 317.926 171.472 316.978 171.472Z" fill="#888F99"/>
    <path d="M316.977 155.754H257.38C256.433 155.754 255.524 156.13 254.855 156.8C254.185 157.47 253.809 158.378 253.809 159.325C253.809 160.272 254.185 161.18 254.855 161.85C255.524 162.52 256.433 162.896 257.38 162.896H316.977C317.925 162.896 318.833 162.52 319.503 161.85C320.172 161.18 320.549 160.272 320.549 159.325C320.549 158.378 320.172 157.47 319.503 156.8C318.833 156.13 317.925 155.754 316.977 155.754Z" fill="#888F99"/>
    <g clip-path="url(#clip0_2645_6717)">
        <rect x="284.808" y="92.4805" width="36.1981" height="41.1342" rx="4.38765" fill="white"/>
        <path d="M317.091 130.405L310.16 127.813L296.725 127.64L290.942 130.405L292.567 139.74C292.567 139.74 289.287 145.293 292.898 150.846L293.708 170.634C293.708 170.634 306.661 178.146 317.594 169.126L315.123 150.728C315.123 150.728 319.256 142.192 316.053 139.02L317.091 130.405Z" fill="#0062B0"/>
        <path d="M314.269 133.306L317.092 130.405C317.092 130.405 323.253 133.646 323.126 144.485L315.354 142.09L314.269 133.306Z" fill="#0062B0"/>
        <path d="M294.079 133.306L291.08 130.307C291.08 130.307 285.787 134.4 285.914 145.24L292.994 142.09L294.079 133.306Z" fill="#0062B0"/>
        <path d="M309.927 122.469C313.64 118.755 313.64 112.735 309.927 109.022C306.213 105.308 300.193 105.308 296.479 109.022C292.766 112.735 292.766 118.755 296.479 122.469C300.193 126.182 306.213 126.182 309.927 122.469Z" fill="#9F616A"/>
    </g>
    <rect x="285.082" y="92.7547" width="35.6496" height="40.5858" rx="4.11342" stroke="black" stroke-width="0.548456"/>
    <path d="M296.919 117.016C297.65 116.977 298.364 117.2 299.09 117.287C301.688 117.598 304.391 115.897 304.965 113.589C305.011 113.282 305.112 112.983 305.265 112.705C305.665 112.116 306.576 112.004 307.326 112.139C308.077 112.275 308.788 112.592 309.553 112.628C310.733 112.684 311.866 112.028 312.496 111.125C313.09 110.193 313.343 109.116 313.218 108.047L312.652 108.582C312.422 108.143 312.333 107.655 312.396 107.173C312.096 107.101 311.78 107.099 311.48 107.169C311.179 107.238 310.903 107.376 310.679 107.569C310.179 107.617 310.556 106.734 310.186 106.429C310.006 106.329 309.791 106.293 309.583 106.327C308.521 106.336 307.662 105.604 306.826 105.014C305.377 103.994 303.682 103.296 301.879 102.977C300.68 102.766 299.406 102.732 298.269 103.134C297.352 103.506 296.523 104.036 295.831 104.695C294.052 106.238 292.476 108.054 291.736 110.18C291.134 111.921 291.117 113.784 291.687 115.534C291.985 116.442 292.884 119.555 294.2 119.627C295.853 119.719 294.861 117.127 296.919 117.016Z" fill="#2F2E41"/>
    <defs>
        <clipPath id="clip0_2645_6717">
            <rect x="284.808" y="92.4805" width="36.1981" height="41.1342" rx="4.38765" fill="white"/>
        </clipPath>
    </defs>
</svg>
