<svg width="305" height="181" viewBox="0 0 305 181" fill="none" xmlns="http://www.w3.org/2000/svg">
    <path d="M143.751 61.6369L136.889 41.153L136.773 40.7968L165.668 22.6035L167.204 24.6669L175.251 35.4686L172.309 44.2051L164.706 66.777L164.373 67.7691L178.453 78.2039C179.011 79.2299 179.474 80.1652 179.851 81.0248C184.055 90.572 177.833 90.1389 177.833 90.1389L149.198 77.9038L143.751 61.6369Z"
          fill="#FFB7B7"/>
    <path d="M158.912 65.4502L157.65 61.6794L151.455 43.1684L150.164 39.3097L149.08 36.0805L163.208 27.182L177.974 17.8872L187.557 30.7522L184.653 39.3785L183.241 43.5699L181.059 50.053L176.68 63.0527L190.76 73.4876C191.825 75.3498 192.666 77.331 193.265 79.3898C193.51 80.2491 193.626 81.1396 193.61 82.0327C193.633 82.4898 193.558 82.9466 193.391 83.3729C193.224 83.7993 192.967 84.1853 192.639 84.5057C192.312 84.8261 191.919 85.0735 191.488 85.2315C191.057 85.3896 190.597 85.4547 190.139 85.4226L161.504 73.1875L158.912 65.4502Z"
          fill="#FFB7B7"/>
    <path opacity="0.15"
          d="M157.567 66.2855L155.905 48.8237L164.186 44.3481L164.728 45.3448L157.108 49.463L158.648 65.6507L175.578 77.208L174.936 78.1428L157.567 66.2855Z"
          fill="black"/>
    <path opacity="0.15" d="M175.626 65.7008L174.95 66.6121L192.035 79.1954L192.711 78.2841L175.626 65.7008Z"
          fill="black"/>
    <path d="M174.614 82.8164L88.6641 22.5869L1.83691 82.2552L87.3692 118.259L174.614 82.8164Z" fill="white"/>
    <path d="M113.072 31.6941L142.014 3.48605L193.776 0L258.119 61.2471L305 86.8213L291.793 125.536L235.209 98.7619C223.689 97.9184 216.276 94.1076 211.588 90.1001C209.976 88.7238 208.523 87.1725 207.256 85.4751C205.868 83.6751 204.786 81.6609 204.052 79.5123L181.053 50.0531L176.312 43.9738L173.241 40.0397L163.203 27.1822L162.481 26.2579L145.427 25.8078L136.552 37.4225L130.318 45.5733C130.172 48.4439 129.132 51.1979 127.343 53.4515C121.752 60.2299 110.417 58.9062 110.417 58.9062L113.072 31.6941Z"
          fill="#FFB7B7"/>
    <path d="M2.16448 82.2002H2.22639L37.7241 97.3097L86.2922 117.983C86.482 118.062 86.6857 118.104 86.8916 118.105C87.0975 118.106 87.3015 118.067 87.4921 117.989L137.6 97.2666L173.97 82.2248L174.026 82.2002H174.087C174.661 82.2008 175.211 82.4283 175.617 82.8328C176.023 83.2373 176.251 83.7858 176.252 84.3578V178.06C176.251 178.632 176.023 179.181 175.617 179.585C175.211 179.99 174.661 180.217 174.087 180.218H2.16448C1.59062 180.217 1.04044 179.99 0.634657 179.585C0.228873 179.181 0.00063719 178.632 0 178.06V84.3578C0.000637193 83.7858 0.228873 83.2373 0.634657 82.8328C1.04044 82.4283 1.59062 82.2008 2.16448 82.2002Z"
          fill="white"/>
    <path d="M2.01055 82.8167C2.07367 82.8167 2.13527 82.7974 2.18704 82.7614L87.7029 23.3948C87.9632 23.215 88.2724 23.1189 88.5891 23.1195C88.9057 23.12 89.2146 23.2171 89.4742 23.3979L174.374 82.7608C174.441 82.8075 174.524 82.8257 174.605 82.8115C174.685 82.7973 174.757 82.7518 174.804 82.685C174.851 82.6181 174.87 82.5355 174.856 82.4551C174.842 82.3747 174.796 82.3031 174.729 82.256L89.8293 22.8931C89.4658 22.6401 89.0334 22.5041 88.59 22.5034C88.1467 22.5027 87.7138 22.6372 87.3494 22.889L1.83361 82.2554C1.7796 82.2929 1.73901 82.3467 1.71775 82.4088C1.69648 82.4709 1.69565 82.5381 1.7154 82.6008C1.73514 82.6634 1.77442 82.7181 1.82751 82.7569C1.8806 82.7957 1.94472 82.8167 2.01057 82.8166L2.01055 82.8167Z"
          fill="#3F3D56"/>
    <path d="M169.521 84.9206L88.5031 25.0671L6.87109 89.1794L84.329 134.952L126.382 125.397L169.521 84.9206Z"
          fill="#E6E6E6"/>
    <path d="M122.833 163.224H162.858C163.354 163.224 163.829 163.028 164.18 162.679C164.531 162.33 164.728 161.857 164.729 161.363C164.73 160.869 164.534 160.394 164.184 160.044C163.834 159.694 163.359 159.497 162.864 159.496H122.833C122.338 159.496 121.863 159.692 121.512 160.041C121.161 160.39 120.964 160.863 120.963 161.357C120.962 161.851 121.158 162.325 121.508 162.675C121.858 163.025 122.332 163.223 122.828 163.224H122.833Z"
          fill="#0077C8"/>
    <path d="M148.499 155.21H162.859C163.355 155.21 163.83 155.014 164.181 154.665C164.532 154.316 164.729 153.843 164.73 153.349C164.731 152.855 164.535 152.381 164.185 152.031C163.835 151.681 163.361 151.483 162.865 151.482H148.499C148.004 151.482 147.529 151.678 147.178 152.027C146.827 152.376 146.63 152.849 146.629 153.343C146.628 153.837 146.824 154.311 147.174 154.661C147.524 155.011 147.998 155.209 148.494 155.21H148.499Z"
          fill="#0077C8"/>
    <path d="M87.3652 118.258C87.6694 118.259 87.9708 118.2 88.2524 118.085L138.219 97.4185V32.7287C138.218 32.1566 137.99 31.6082 137.584 31.2037C137.178 30.7993 136.628 30.5717 136.054 30.571H40.1977C39.6238 30.5717 39.0737 30.7993 38.6679 31.2037C38.2621 31.6082 38.0339 32.1566 38.0332 32.7287V97.4637L38.1271 97.5038L86.4512 118.075C86.7405 118.196 87.0513 118.259 87.3652 118.258Z"
          fill="white"/>
    <path d="M86.3907 118.217L37.8789 97.5655V32.7287C37.8796 32.1158 38.1242 31.5282 38.5589 31.0949C38.9937 30.6615 39.5832 30.4177 40.198 30.417H136.054C136.669 30.4177 137.259 30.6615 137.693 31.0949C138.128 31.5282 138.373 32.1158 138.373 32.7287V97.5216L88.3116 118.228C87.695 118.478 87.0043 118.474 86.3908 118.217H86.3907ZM137.755 32.7287C137.754 32.2793 137.575 31.8484 137.256 31.5306C136.937 31.2128 136.505 31.034 136.054 31.0335H40.198C39.7471 31.034 39.3148 31.2128 38.996 31.5306C38.6772 31.8484 38.4978 32.2793 38.4973 32.7287V97.1586L86.6323 117.649C87.0934 117.842 87.6124 117.845 88.0757 117.658L137.755 97.1098L137.755 32.7287Z"
          fill="#3F3D56"/>
    <path d="M0.466797 84.3578V178.06C0.467434 178.632 0.69569 179.181 1.10147 179.585C1.50726 179.99 2.05743 180.217 2.6313 180.218H174.554C175.128 180.217 175.678 179.99 176.084 179.585C176.49 179.181 176.718 178.632 176.719 178.06V84.3578C176.718 83.7858 176.49 83.2373 176.084 82.8328C175.678 82.4283 175.128 82.2008 174.554 82.2002H174.492L174.437 82.2248L138.067 97.2666L87.9589 117.989C87.7683 118.067 87.5643 118.106 87.3584 118.105C87.1525 118.104 86.9488 118.062 86.7591 117.983L38.1909 97.3097L2.69321 82.2002H2.6313C2.05743 82.2008 1.50726 82.4283 1.10147 82.8328C0.695689 83.2373 0.467434 83.7858 0.466797 84.3578ZM1.08524 84.3578C1.08616 83.9599 1.24092 83.5777 1.51735 83.2906C1.79378 83.0036 2.1706 82.8338 2.5694 82.8167L38.1909 97.9786L86.5148 118.55C87.0521 118.775 87.657 118.778 88.1969 118.559L138.067 97.9324L174.613 82.8167C175.012 82.8326 175.39 83.0019 175.667 83.2891C175.945 83.5764 176.1 83.9593 176.1 84.3578V178.06C176.1 178.469 175.937 178.861 175.647 179.15C175.357 179.439 174.964 179.601 174.554 179.601H2.6313C2.2213 179.601 1.82815 179.439 1.53824 179.15C1.24833 178.861 1.0854 178.469 1.08524 178.06V84.3578Z"
          fill="#3F3D56"/>
    <path d="M48.5909 54.7525H82.6044C83.2605 54.7525 83.8897 54.4927 84.3536 54.0303C84.8175 53.5678 85.0781 52.9406 85.0781 52.2867C85.0781 51.6327 84.8175 51.0055 84.3536 50.543C83.8897 50.0806 83.2605 49.8208 82.6044 49.8208H48.5909C47.9348 49.8208 47.3056 50.0806 46.8417 50.543C46.3778 51.0055 46.1172 51.6327 46.1172 52.2867C46.1172 52.9406 46.3778 53.5678 46.8417 54.0303C47.3056 54.4927 47.9348 54.7525 48.5909 54.7525Z"
          fill="#0077C8"/>
    <path d="M48.6075 44.2725H64.9958C65.6519 44.2725 66.2811 44.0127 66.745 43.5503C67.2089 43.0879 67.4696 42.4607 67.4696 41.8067C67.4696 41.1527 67.2089 40.5255 66.745 40.0631C66.2811 39.6006 65.6519 39.3408 64.9958 39.3408H48.6075C47.9514 39.3408 47.3222 39.6006 46.8583 40.0631C46.3944 40.5255 46.1338 41.1527 46.1338 41.8067C46.1338 42.4607 46.3944 43.0879 46.8583 43.5503C47.3222 44.0127 47.9514 44.2725 48.6075 44.2725Z"
          fill="#0077C8"/>
    <path d="M62.6895 79.4112H114.637C115.294 79.4112 115.923 79.1514 116.387 78.689C116.851 78.2265 117.111 77.5993 117.111 76.9453C117.111 76.2914 116.851 75.6642 116.387 75.2017C115.923 74.7393 115.294 74.4795 114.637 74.4795H62.6895C62.0335 74.4795 61.4043 74.7393 60.9404 75.2017C60.4764 75.6642 60.2158 76.2914 60.2158 76.9453C60.2158 77.5993 60.4764 78.2265 60.9404 78.689C61.4043 79.1514 62.0335 79.4112 62.6895 79.4112Z"
          fill="#CCCCCC"/>
    <path d="M62.6895 90.8157H114.637C115.294 90.8157 115.923 90.556 116.387 90.0935C116.851 89.6311 117.111 89.0039 117.111 88.3499C117.111 87.6959 116.851 87.0687 116.387 86.6063C115.923 86.1438 115.294 85.884 114.637 85.884H62.6895C62.0335 85.884 61.4043 86.1438 60.9404 86.6063C60.4764 87.0687 60.2158 87.6959 60.2158 88.3499C60.2158 89.0039 60.4764 89.6311 60.9404 90.0935C61.4043 90.556 62.0335 90.8157 62.6895 90.8157Z"
          fill="#CCCCCC"/>
    <path opacity="0.1"
          d="M183.238 43.5702L193.556 42.9756L234.781 93.6201L220.217 91.3994L211.591 90.1003C209.978 88.724 208.525 87.1727 207.258 85.4752L197.673 82.6386L193.262 79.3901C193.539 80.4457 183.238 43.5702 183.238 43.5702Z"
          fill="black"/>
    <path d="M117.288 41.9585C117.584 40.0643 118.619 38.3637 120.169 37.2281C121.718 36.0925 123.655 35.6142 125.557 35.8976L136.556 37.4225L150.163 39.3099L160.679 40.7671L173.245 40.0398L184.652 39.3787L191.391 38.9911L236.2 94.0396L197.675 82.6385L193.264 79.39L173.952 65.1711C173.952 65.1711 167.624 64.0089 157.649 61.6796C156.165 61.3281 139.373 57.1278 131.485 54.8434C129.957 54.3997 128.586 53.9355 127.347 53.4516C118.552 50.0008 116.793 45.5771 117.288 41.9585Z"
          fill="#FFB7B7"/>
    <path opacity="0.15"
          d="M123.584 48.8353C123.623 48.8308 127.549 48.3434 129.225 45.4776C130.354 43.547 130.24 40.9471 128.887 37.7506L129.935 37.3103C131.436 40.8572 131.526 43.7996 130.202 46.0558C128.234 49.4116 123.897 49.9402 123.713 49.9611L123.584 48.8353Z"
          fill="black"/>
    <path opacity="0.15"
          d="M163.28 41.1832L163.278 40.0505L183.489 40.0182L162.182 26.7385L162.784 25.7773L187.442 41.1445L163.28 41.1832Z"
          fill="black"/>
</svg>
