<svg width="350" height="233" viewBox="0 0 350 233" fill="none" xmlns="http://www.w3.org/2000/svg">
    <g clip-path="url(#clip0_21_1520)">
        <path d="M70.8572 210.752C70.7969 217.625 70.293 224.486 69.3486 231.294C69.3156 231.533 69.2796 231.772 69.2464 232.011L4.82099 231.652C4.63183 231.414 4.44564 231.174 4.26525 230.931C3.66377 230.126 3.10003 229.299 2.58252 228.442C0.0951427 224.318 -1.04359 219.489 0.097542 216.157L0.117979 216.105C0.364306 215.376 0.752466 214.702 1.26016 214.123C3.86193 211.197 9.12242 211.684 13.8962 214.046C9.61444 209.364 6.20503 203.455 5.94597 198.181C5.69197 193.037 8.38443 189.363 11.3047 186.24C11.4006 186.136 11.4964 186.036 11.5922 185.936C11.6386 185.884 11.688 185.835 11.7343 185.784C14.0128 183.404 16.6691 181.058 20.5139 181.342C24.7306 181.653 29.4057 185.182 32.6837 189.294C35.9617 193.402 38.1401 198.07 40.3481 202.625C42.5589 207.178 44.9507 211.847 48.4984 215.738C43.6933 209.666 39.8192 202.758 38.3881 196.039C36.957 189.32 38.2165 182.867 42.4989 179.703C43.799 178.772 45.3034 178.165 46.8862 177.934C47.071 177.904 47.2586 177.879 47.4493 177.857C51.4136 177.406 56.1468 178.776 60.174 182.05C64.609 185.655 67.6839 190.999 69.2138 196.073C70.7436 201.146 70.9066 206.03 70.8572 210.752Z"
              fill="#F2F2F2"/>
        <path d="M28.7067 231.785L27.4747 231.778C27.0836 231.534 26.6906 231.292 26.2957 231.054C26.0513 230.9 25.804 230.751 25.5566 230.6C21.4702 228.107 17.3583 225.715 13.2209 223.425C9.0872 221.134 4.93274 218.947 0.757483 216.867C0.646809 216.819 0.556512 216.733 0.502289 216.626C0.448066 216.518 0.433346 216.395 0.460678 216.277C0.465153 216.262 0.472087 216.247 0.481212 216.234C0.539448 216.125 0.669606 216.079 0.859572 216.173C1.3717 216.429 1.88677 216.686 2.39884 216.948C6.5855 219.064 10.7542 221.286 14.9049 223.614C19.0528 225.94 23.177 228.369 27.2776 230.901C27.3638 230.953 27.4501 231.008 27.5363 231.061C27.9274 231.302 28.3157 231.544 28.7067 231.785Z"
              fill="white"/>
        <path d="M44.5918 231.874L43.8301 231.87C43.6582 231.629 43.4894 231.389 43.3176 231.149C39.2808 225.494 35.2448 219.838 31.2097 214.183C24.6017 204.924 17.9957 195.666 11.3917 186.407C11.3525 186.358 11.3234 186.301 11.3059 186.24C11.2495 186.035 11.4002 185.915 11.5934 185.936C11.6748 185.947 11.7529 185.976 11.8223 186.02C11.8917 186.064 11.9509 186.123 11.9959 186.192C15.7007 191.384 19.4045 196.574 23.1075 201.763C29.6811 210.975 36.2537 220.186 42.8254 229.396C43.2434 229.981 43.6614 230.569 44.0794 231.153C44.2512 231.393 44.423 231.634 44.5918 231.874Z"
              fill="white"/>
        <path d="M61.5618 227.454C61.5229 228.737 61.438 229.999 61.327 231.249C61.3055 231.489 61.284 231.728 61.2624 231.967L60.4631 231.962C60.4876 231.723 60.512 231.484 60.5335 231.245C60.7024 229.438 60.8222 227.612 60.8385 225.735C60.8598 220.532 60.3522 215.341 59.3238 210.241C58.2305 204.749 56.6608 199.363 54.6324 194.144C52.5035 188.639 49.9367 183.313 46.9567 178.217C46.9006 178.134 46.8756 178.034 46.8862 177.934C46.9191 177.707 47.2224 177.639 47.4492 177.857C47.494 177.899 47.5325 177.948 47.5638 178.002C47.9325 178.635 48.2944 179.27 48.6497 179.907C51.5198 185.031 53.9764 190.376 55.9962 195.89C57.9201 201.126 59.3835 206.52 60.3699 212.011C61.2938 217.105 61.6932 222.279 61.5618 227.454V227.454Z"
              fill="white"/>
        <path d="M242.148 128.936H166.787C165.216 128.983 163.68 128.47 162.451 127.491C162.357 127.418 162.294 127.311 162.279 127.193C162.263 127.074 162.295 126.954 162.367 126.859C162.44 126.765 162.547 126.702 162.666 126.686C162.784 126.67 162.904 126.702 162.999 126.774C164.069 127.635 165.414 128.082 166.787 128.034H242.148C243.943 128.032 245.663 127.319 246.932 126.051C248.201 124.784 248.915 123.065 248.917 121.272V75.2877C248.915 73.4948 248.201 71.7759 246.932 70.5082C245.663 69.2404 243.943 68.5273 242.148 68.5253H166.787C164.992 68.5273 163.272 69.2404 162.003 70.5082C160.734 71.7759 160.02 73.4948 160.018 75.2877V102.337C160.018 102.457 159.97 102.571 159.886 102.656C159.801 102.74 159.686 102.788 159.567 102.788C159.447 102.788 159.332 102.74 159.247 102.656C159.163 102.571 159.115 102.457 159.115 102.337V75.2877C159.118 73.2558 159.927 71.3077 161.365 69.8709C162.803 68.4341 164.753 67.6259 166.787 67.6237H242.148C244.182 67.6259 246.132 68.4341 247.57 69.8709C249.009 71.3077 249.817 73.2558 249.82 75.2877V121.272C249.817 123.304 249.009 125.252 247.57 126.689C246.132 128.125 244.182 128.934 242.148 128.936Z"
              fill="#3F3D56"/>
        <path d="M342.329 155.084H142.869C142.75 155.084 142.635 155.036 142.55 154.952C142.466 154.867 142.418 154.752 142.418 154.633C142.418 154.513 142.466 154.399 142.55 154.314C142.635 154.23 142.75 154.182 142.869 154.182H342.329C344.124 154.18 345.844 153.467 347.113 152.199C348.382 150.931 349.096 149.213 349.098 147.42V7.66402C349.096 5.87115 348.382 4.15229 347.113 2.88454C345.844 1.61679 344.124 0.903678 342.329 0.901649H130.234C128.439 0.903678 126.719 1.61679 125.45 2.88454C124.181 4.15229 123.467 5.87115 123.465 7.66402V98.7306C123.465 98.8502 123.417 98.9648 123.333 99.0494C123.248 99.1339 123.133 99.1814 123.014 99.1814C122.894 99.1814 122.779 99.1339 122.695 99.0494C122.61 98.9648 122.562 98.8502 122.562 98.7306V7.66402C122.565 5.6321 123.374 3.68405 124.812 2.24726C126.25 0.810478 128.2 0.00228742 130.234 0H342.329C344.363 0.00228742 346.313 0.810478 347.751 2.24726C349.19 3.68405 349.998 5.6321 350.001 7.66402V147.42C349.998 149.452 349.19 151.4 347.751 152.836C346.313 154.273 344.363 155.081 342.329 155.084V155.084Z"
              fill="#3F3D56"/>
        <path d="M349.852 14.6857H122.865V15.5873H349.852V14.6857Z" fill="#3F3D56"/>
        <path d="M131.439 11.5119C132.934 11.5119 134.147 10.3009 134.147 8.807C134.147 7.3131 132.934 6.10205 131.439 6.10205C129.944 6.10205 128.731 7.3131 128.731 8.807C128.731 10.3009 129.944 11.5119 131.439 11.5119Z"
              fill="#3F3D56"/>
        <path d="M139.223 11.5119C140.719 11.5119 141.931 10.3009 141.931 8.807C141.931 7.3131 140.719 6.10205 139.223 6.10205C137.728 6.10205 136.516 7.3131 136.516 8.807C136.516 10.3009 137.728 11.5119 139.223 11.5119Z"
              fill="#3F3D56"/>
        <path d="M147.007 11.5119C148.503 11.5119 149.715 10.3009 149.715 8.807C149.715 7.3131 148.503 6.10205 147.007 6.10205C145.512 6.10205 144.3 7.3131 144.3 8.807C144.3 10.3009 145.512 11.5119 147.007 11.5119Z"
              fill="#3F3D56"/>
        <path d="M305.551 45.5332H165.659C163.804 45.5332 162.024 44.797 160.713 43.4865C159.401 42.176 158.664 40.3987 158.664 38.5454C158.664 36.6921 159.401 34.9147 160.713 33.6043C162.024 32.2938 163.804 31.5576 165.659 31.5576H305.551C307.406 31.5576 309.185 32.2938 310.497 33.6043C311.809 34.9147 312.546 36.6921 312.546 38.5454C312.546 40.3987 311.809 42.176 310.497 43.4865C309.185 44.797 307.406 45.5332 305.551 45.5332ZM165.659 32.4593C164.043 32.4593 162.493 33.1005 161.351 34.2418C160.208 35.3832 159.567 36.9313 159.567 38.5454C159.567 40.1595 160.208 41.7076 161.351 42.8489C162.493 43.9903 164.043 44.6315 165.659 44.6315H305.551C307.167 44.6315 308.717 43.9903 309.859 42.8489C311.002 41.7076 311.643 40.1595 311.643 38.5454C311.643 36.9313 311.002 35.3832 309.859 34.2418C308.717 33.1005 307.167 32.4593 305.551 32.4593H165.659Z"
              fill="#3F3D56"/>
        <path d="M304.648 81.1484H277.572C275.717 81.1484 273.938 80.4122 272.626 79.1017C271.314 77.7913 270.577 76.0139 270.577 74.1606C270.577 72.3074 271.314 70.53 272.626 69.2195C273.938 67.9091 275.717 67.1729 277.572 67.1729H304.648C306.503 67.1729 308.282 67.9091 309.594 69.2195C310.905 70.53 311.642 72.3074 311.642 74.1606C311.642 76.0139 310.905 77.7913 309.594 79.1017C308.282 80.4122 306.503 81.1484 304.648 81.1484V81.1484Z"
              fill="#0077C8"/>
        <path d="M304.648 104.591H277.572C275.717 104.591 273.938 103.855 272.626 102.545C271.314 101.234 270.577 99.4568 270.577 97.6035C270.577 95.7502 271.314 93.9729 272.626 92.6624C273.938 91.3519 275.717 90.6157 277.572 90.6157H304.648C306.503 90.6157 308.282 91.3519 309.594 92.6624C310.905 93.9729 311.642 95.7502 311.642 97.6035C311.642 99.4568 310.905 101.234 309.594 102.545C308.282 103.855 306.503 104.591 304.648 104.591V104.591Z"
              fill="#0077C8"/>
        <path d="M304.648 128.034H277.572C275.717 128.034 273.938 127.298 272.626 125.987C271.314 124.677 270.577 122.9 270.577 121.046C270.577 119.193 271.314 117.416 272.626 116.105C273.938 114.795 275.717 114.059 277.572 114.059H304.648C306.503 114.059 308.282 114.795 309.594 116.105C310.905 117.416 311.642 119.193 311.642 121.046C311.642 122.9 310.905 124.677 309.594 125.987C308.282 127.298 306.503 128.034 304.648 128.034V128.034Z"
              fill="#0077C8"/>
        <path d="M112.184 132.353C111.842 132.281 111.495 132.245 111.146 132.245C110.491 132.245 109.842 132.373 109.237 132.624C109.033 132.708 108.835 132.808 108.646 132.921L88.456 123.869L87.8876 118.396L79.1826 118.166L79.2412 127.272C79.2518 128.327 79.6027 129.35 80.2416 130.19C80.8806 131.03 81.7737 131.641 82.7881 131.934L106.399 138.647C106.453 138.818 106.502 138.967 106.561 139.106C106.829 139.751 107.231 140.332 107.739 140.81C108.248 141.289 108.852 141.654 109.512 141.884C110.038 142.069 110.592 142.164 111.15 142.163C111.498 142.164 111.844 142.126 112.184 142.05C112.378 142.009 112.57 141.955 112.757 141.888V132.511C112.569 132.447 112.378 132.395 112.184 132.353Z"
              fill="#A0616A"/>
        <path d="M56.9843 227.318H62.5168L65.1486 205.999H56.9834L56.9843 227.318Z" fill="#A0616A"/>
        <path d="M73.1885 232.449L55.8008 232.45L55.8005 225.739L66.4702 225.738C68.2519 225.738 69.9607 226.445 71.2206 227.704C72.4805 228.962 73.1884 230.669 73.1885 232.449V232.449V232.449Z"
              fill="#2F2E41"/>
        <path d="M28.2285 221.359L33.3143 223.535L44.1361 204.975L36.6306 201.762L28.2285 221.359Z" fill="#A0616A"/>
        <path d="M41.0996 232.45L25.1164 225.611L27.7614 219.441L37.5693 223.638C39.2071 224.339 40.4991 225.661 41.1612 227.314C41.8233 228.966 41.8011 230.814 41.0996 232.45L41.0996 232.45Z"
              fill="#2F2E41"/>
        <path d="M70.6636 89.2599C76.7849 89.2599 81.7472 84.3025 81.7472 78.1872C81.7472 72.0719 76.7849 67.1145 70.6636 67.1145C64.5424 67.1145 59.5801 72.0719 59.5801 78.1872C59.5801 84.3025 64.5424 89.2599 70.6636 89.2599Z"
              fill="#A0616A"/>
        <path d="M62.6552 222.105L56.5649 220.946C56.0642 220.854 55.6171 220.576 55.3129 220.168C55.0088 219.76 54.8701 219.252 54.9247 218.747L58.9633 179.408C59.0019 179.033 58.9045 178.656 58.689 178.346C58.4734 178.037 58.1538 177.814 57.7882 177.72C57.4226 177.625 57.0352 177.664 56.6962 177.831C56.3572 177.997 56.089 178.279 55.9403 178.626L38.3087 219.726C38.2027 219.973 38.0487 220.197 37.8556 220.384C37.6625 220.571 37.4341 220.717 37.1837 220.815C36.9333 220.914 36.666 220.961 36.3971 220.955C36.1282 220.949 35.8632 220.89 35.6174 220.781L30.664 218.581C30.2015 218.378 29.832 218.009 29.6281 217.547C29.4242 217.085 29.4007 216.564 29.5621 216.086L41.621 179.944C41.6549 179.843 41.6784 179.738 41.691 179.631L45.6053 146.61C45.648 146.249 45.7867 145.907 46.007 145.618C46.2273 145.33 46.521 145.105 46.8577 144.969L59.2172 139.953C59.5828 139.804 59.9838 139.766 60.3712 139.841C60.7585 139.917 61.1154 140.103 61.3982 140.378L76.9987 155.554C77.2418 155.789 77.4218 156.082 77.5223 156.405C77.6228 156.728 77.6405 157.071 77.5739 157.402L65.027 220.508C64.9341 220.968 64.6849 221.382 64.3217 221.679C63.9585 221.977 63.5035 222.14 63.0338 222.141C62.9067 222.141 62.78 222.129 62.6552 222.105V222.105Z"
              fill="#2F2E41"/>
        <path d="M55.7111 148.431C53.5519 145.933 51.9761 144.8 50.8984 144.978C49.8291 145.151 49.2123 146.643 48.559 148.224C47.6675 150.38 46.657 152.825 44.1662 153.016C43.7784 153.083 43.3797 153.039 43.0157 152.89C42.6516 152.741 42.3369 152.492 42.1074 152.173C40.1482 149.262 44.8475 139.629 45.2769 138.764L45.0565 93.2031C45.0535 92.8355 45.1508 92.474 45.3378 92.1575C45.5249 91.841 45.7947 91.5813 46.1184 91.4064C59.0321 84.4494 76.4692 96.5486 79.8335 99.0453C80.1026 99.2445 80.3182 99.5072 80.4608 99.81C80.6034 100.113 80.6685 100.446 80.6505 100.78C80.2445 108.411 78.2195 146.909 78.2195 155.497C78.2195 157.874 77.3987 159.384 75.7799 159.986C75.2333 160.18 74.6565 160.274 74.0766 160.265C69.1372 160.265 61.0472 154.603 55.7111 148.431Z"
              fill="#CCCCCC"/>
        <path d="M73.7348 126.308C73.4648 126.133 73.2409 125.895 73.082 125.615C72.9232 125.335 72.834 125.021 72.822 124.7L71.9472 104.293C71.8934 103.037 72.2887 101.802 73.0626 100.81C73.8365 99.8186 74.9385 99.1343 76.1712 98.8799C77.404 98.6255 78.6871 98.8176 79.791 99.4219C80.8949 100.026 81.7476 101.003 82.1964 102.178L88.743 119.317C88.9344 119.82 88.9184 120.378 88.6985 120.869C88.4785 121.36 88.0726 121.743 87.5698 121.936L75.5748 126.509C75.2744 126.625 74.9505 126.667 74.6303 126.632C74.3101 126.597 74.003 126.486 73.7348 126.308V126.308Z"
              fill="#CCCCCC"/>
        <path d="M43.2529 158.194C42.6649 157.799 42.1707 157.279 41.8052 156.673C41.4397 156.066 41.2118 155.387 41.1376 154.683C41.0633 153.979 41.1445 153.267 41.3753 152.597C41.6062 151.928 41.9813 151.317 42.4739 150.808L40.3574 103.515L50.8276 104.747L49.6122 150.902C50.4132 151.786 50.8619 152.932 50.8734 154.124C50.8848 155.316 50.4582 156.471 49.6743 157.37C48.8905 158.269 47.8038 158.849 46.6203 159.001C45.4368 159.153 44.2387 158.866 43.2529 158.194H43.2529Z"
              fill="#A0616A"/>
        <path d="M35.9815 116.108C35.7917 115.848 35.6673 115.547 35.6187 115.229C35.5701 114.911 35.5988 114.586 35.7023 114.281L42.1679 94.9033C42.5659 93.7103 43.3759 92.6976 44.4529 92.0467C45.5299 91.3957 46.8037 91.1488 48.0462 91.3503C49.2888 91.5517 50.419 92.1883 51.2347 93.1461C52.0504 94.104 52.4983 95.3205 52.4982 96.5781V114.922C52.4976 115.46 52.2835 115.976 51.9028 116.356C51.5221 116.736 51.0059 116.95 50.4675 116.951H37.6289C37.3068 116.953 36.989 116.877 36.7023 116.73C36.4156 116.584 36.1684 116.37 35.9815 116.108Z"
              fill="#CCCCCC"/>
        <path d="M63.5063 85.6347C63.0914 85.9595 62.5731 86.1239 62.0466 86.0977C61.5201 86.0715 61.0208 85.8564 60.6403 85.492C58.2648 83.2738 56.2601 80.6213 55.2455 77.5494C54.0829 74.0294 54.3799 69.9067 56.6063 66.9415C58.4883 64.4348 61.4673 63.0187 64.4015 61.9117C65.547 61.4278 66.7572 61.1138 67.9936 60.9797C69.2426 60.8503 70.494 61.2013 71.493 61.9613C71.9798 62.3497 72.3382 62.8756 72.5213 63.4705C72.7045 64.0653 72.704 64.7015 72.5198 65.2961C74.0246 63.9307 75.8604 62.9819 77.8454 62.5438C79.1018 62.211 80.4296 62.266 81.6541 62.7015C83.3558 63.4006 84.4612 65.1082 84.9705 66.8745C85.3917 68.2219 85.4259 69.6604 85.069 71.0262C84.8858 71.7052 84.5619 72.3383 84.1184 72.8844C83.6748 73.4305 83.1215 73.8775 82.4941 74.1966C80.9373 74.9293 79.0897 74.6527 77.4618 74.0949C75.8339 73.5371 74.2905 72.7139 72.6068 72.3581C70.9231 72.0022 68.9791 72.2098 67.7877 73.4506C66.9487 74.3243 66.6183 75.5534 66.3182 76.7264L64.7574 82.8279C64.5852 83.7166 64.2556 84.5675 63.7842 85.3406C63.7052 85.4507 63.6117 85.5497 63.5063 85.6347Z"
              fill="#2F2E41"/>
        <path d="M139.164 123.269V144.079L139.449 144.286V123.3C139.355 123.283 139.26 123.273 139.164 123.269V123.269ZM169.386 109.654L154.981 99.2084C153.933 98.4513 152.626 98.1401 151.348 98.3429C150.07 98.5457 148.925 99.2459 148.163 100.29L139.738 111.895L139.164 112.679V157.423C139.163 158.564 138.709 159.657 137.902 160.463C137.095 161.269 136.001 161.723 134.859 161.724H132.468L133.853 162.004C134.172 162.07 134.497 162.104 134.823 162.103C135.594 162.103 136.354 161.921 137.041 161.571C137.728 161.222 138.323 160.715 138.776 160.092L139.363 159.281L170.469 116.461C171.226 115.414 171.537 114.11 171.334 112.834C171.131 111.559 170.43 110.415 169.386 109.654V109.654ZM170.004 116.123L139.72 157.811L139.399 158.253L139.368 158.298C139.422 158.01 139.449 157.717 139.449 157.423V113.265L139.738 112.868L148.632 100.629C149.304 99.7075 150.313 99.0899 151.44 98.9107C152.566 98.7316 153.718 99.0056 154.643 99.6728L169.047 110.118C169.97 110.789 170.588 111.798 170.768 112.923C170.947 114.049 170.672 115.2 170.004 116.123V116.123Z"
              fill="#CCCCCC"/>
        <path d="M154.687 127.078C153.88 127.078 153.094 126.822 152.442 126.346L144.348 120.478C143.525 119.881 142.974 118.981 142.814 117.978C142.655 116.975 142.9 115.949 143.496 115.126L149.37 107.039C149.968 106.217 150.868 105.665 151.872 105.506C152.877 105.346 153.904 105.592 154.728 106.189L162.822 112.057C163.645 112.654 164.196 113.554 164.356 114.557C164.515 115.56 164.27 116.586 163.674 117.409L157.8 125.495C157.505 125.904 157.132 126.25 156.702 126.513C156.273 126.776 155.795 126.952 155.297 127.03C155.095 127.062 154.891 127.078 154.687 127.078V127.078Z"
              fill="#CCCCCC"/>
        <path opacity="0.5"
              d="M141.831 145.7C141.3 145.701 140.784 145.532 140.356 145.22L138.937 144.192V123.029L139.176 123.043C139.389 123.056 139.601 123.095 139.805 123.159C140.06 123.24 140.299 123.361 140.515 123.519L150.736 130.931C151.004 131.125 151.231 131.37 151.404 131.652C151.577 131.934 151.692 132.247 151.744 132.574C151.796 132.901 151.783 133.235 151.706 133.556C151.628 133.878 151.488 134.181 151.294 134.449L143.877 144.659C143.684 144.928 143.439 145.155 143.157 145.328C142.875 145.501 142.562 145.617 142.235 145.668C142.101 145.69 141.966 145.7 141.831 145.7V145.7Z"
              fill="#E6E6E6"/>
        <path d="M134.858 98.6404H117.06C115.767 98.6419 114.527 99.1559 113.612 100.07C112.698 100.983 112.183 102.222 112.182 103.514V157.423C112.183 158.715 112.698 159.954 113.612 160.868C114.527 161.781 115.767 162.295 117.06 162.297H134.858C135.823 162.296 136.766 162.008 137.568 161.471C138.369 160.935 138.994 160.172 139.361 159.281C139.479 159.005 139.569 158.718 139.632 158.424C139.674 158.222 139.703 158.017 139.718 157.811C139.731 157.682 139.737 157.553 139.736 157.423V103.514C139.734 102.222 139.22 100.983 138.305 100.07C137.391 99.1559 136.151 98.6419 134.858 98.6404V98.6404ZM139.163 157.423C139.161 158.564 138.707 159.657 137.9 160.463C137.093 161.269 135.999 161.723 134.858 161.724H117.06C115.918 161.723 114.824 161.269 114.017 160.463C113.21 159.657 112.756 158.564 112.755 157.423V103.514C112.756 102.374 113.21 101.28 114.017 100.474C114.824 99.6678 115.918 99.2143 117.06 99.2129H134.858C135.999 99.2143 137.093 99.6679 137.9 100.474C138.707 101.28 139.161 102.374 139.163 103.514V157.423Z"
              fill="#3F3D56"/>
        <path d="M130.96 122.091H120.959C119.942 122.09 118.967 121.686 118.248 120.968C117.529 120.249 117.124 119.275 117.123 118.259V108.268C117.124 107.252 117.529 106.278 118.248 105.559C118.967 104.841 119.942 104.437 120.959 104.436H130.96C131.977 104.437 132.952 104.841 133.671 105.559C134.39 106.278 134.795 107.252 134.796 108.268V118.259C134.795 119.275 134.39 120.249 133.671 120.968C132.952 121.686 131.977 122.09 130.96 122.091V122.091Z"
              fill="#0077C8"/>
        <path opacity="0.5"
              d="M130.96 144.457H120.959C119.942 144.456 118.967 144.052 118.248 143.334C117.529 142.615 117.124 141.641 117.123 140.625V130.634C117.124 129.618 117.529 128.644 118.248 127.925C118.967 127.207 119.942 126.803 120.959 126.802H130.96C131.977 126.803 132.952 127.207 133.671 127.925C134.39 128.644 134.795 129.618 134.796 130.634V140.625C134.795 141.641 134.39 142.615 133.671 143.334C132.952 144.052 131.977 144.456 130.96 144.457Z"
              fill="#0077C8"/>
        <path d="M125.961 149.394C125.223 149.394 124.501 149.613 123.887 150.023C123.274 150.432 122.795 151.014 122.513 151.696C122.23 152.377 122.156 153.127 122.3 153.85C122.444 154.573 122.8 155.237 123.322 155.759C123.843 156.28 124.508 156.635 125.232 156.779C125.956 156.923 126.707 156.849 127.389 156.567C128.071 156.285 128.653 155.807 129.063 155.194C129.474 154.581 129.692 153.86 129.692 153.123C129.691 152.134 129.298 151.187 128.598 150.488C127.899 149.789 126.95 149.396 125.961 149.394V149.394ZM125.961 156.274C125.336 156.273 124.726 156.088 124.207 155.741C123.689 155.394 123.284 154.901 123.046 154.325C122.807 153.749 122.745 153.115 122.867 152.503C122.99 151.891 123.291 151.33 123.732 150.889C124.174 150.448 124.737 150.148 125.349 150.027C125.962 149.906 126.596 149.969 127.173 150.208C127.75 150.447 128.242 150.851 128.589 151.37C128.935 151.889 129.12 152.499 129.12 153.123C129.118 153.959 128.784 154.76 128.192 155.35C127.6 155.941 126.798 156.273 125.961 156.274V156.274Z"
              fill="#3F3D56"/>
        <path d="M116.254 232.683H3.75646C3.61423 232.683 3.47796 232.626 3.37753 232.525C3.2771 232.425 3.2207 232.288 3.2207 232.146C3.2207 232.004 3.2771 231.868 3.37753 231.767C3.47796 231.667 3.61423 231.61 3.75646 231.609H116.254C116.397 231.61 116.533 231.667 116.633 231.767C116.734 231.868 116.79 232.004 116.79 232.146C116.79 232.288 116.734 232.425 116.633 232.525C116.533 232.626 116.397 232.683 116.254 232.683V232.683Z"
              fill="#3F3D56"/>
    </g>
    <defs>
        <clipPath id="clip0_21_1520">
            <rect width="350.347" height="232.683" fill="white" transform="translate(-0.34668)"/>
        </clipPath>
    </defs>
</svg>
