<svg width="285" height="250" viewBox="0 0 285 250" fill="none" xmlns="http://www.w3.org/2000/svg">
    <path d="M180.833 249.191L180.83 249.165C180.507 241.978 179.188 234.871 176.912 228.046L176.91 228.035C176.778 227.334 176.816 226.611 177.023 225.929C177.658 223.972 179.629 222.774 181.659 223.111C183.755 223.505 185.924 223.134 187.771 222.067C188.944 221.386 190.367 221.292 191.62 221.812C192.801 222.294 193.684 223.306 194.002 224.541C194.027 224.638 194.048 224.736 194.067 224.836C194.134 232.057 195.46 239.211 197.986 245.975L197.987 245.984C198.252 247.381 197.83 248.82 196.854 249.853C195.991 250.729 194.781 251.173 193.557 251.065C191.358 250.915 189.097 251.361 186.644 252.429C185.787 252.81 184.824 252.878 183.922 252.62C182.328 252.152 181.133 250.826 180.833 249.191Z"
          fill="#0077C8"/>
    <path d="M110.554 150.465V244.843H176.663V150.465C176.665 149.072 175.758 147.84 174.427 147.429C174.121 147.328 173.801 147.278 173.479 147.281H113.746C111.987 147.278 110.557 148.702 110.554 150.462V150.465ZM136.353 182.894C136.389 178.996 139.578 175.865 143.475 175.901C147.322 175.936 150.432 179.046 150.468 182.894V193.845C150.449 197.743 147.275 200.888 143.377 200.869C139.506 200.851 136.372 197.717 136.353 193.845V182.894Z"
          fill="#F2F2F2"/>
    <path d="M110.354 241.825V250.926C110.357 251.907 111.148 252.703 112.129 252.711H175.092C176.074 252.707 176.868 251.909 176.867 250.926V241.825H110.354Z"
          fill="#E6E6E6"/>
    <path d="M6.55469 8.27284V180.593C6.55831 185.166 10.2637 188.872 14.8356 188.875H270.163C274.735 188.872 278.44 185.166 278.444 180.593V8.27284C278.433 3.7048 274.73 0.00579473 270.163 0H14.8356C10.2682 0.0058175 6.56557 3.70481 6.55469 8.27284H6.55469Z"
          fill="#E6E6E6"/>
    <path d="M268.034 5.98145H16.9667C14.521 5.98677 12.5412 7.97098 12.541 10.4169V178.468C12.5452 180.911 14.5242 182.89 16.9667 182.894H268.034C270.477 182.89 272.456 180.911 272.46 178.468V10.4169C272.46 7.97097 270.48 5.98677 268.034 5.98145V5.98145ZM204.701 125.374C203.951 126.857 202.429 127.79 200.767 127.786L200.741 127.784C198.334 127.449 195.918 127.228 193.494 127.121C193.87 127.39 194.201 127.718 194.475 128.092C195.179 129.1 195.395 130.37 195.065 131.555C194.516 133.689 194.542 135.994 195.145 138.601C195.363 139.513 195.254 140.473 194.836 141.312C194.086 142.795 192.564 143.728 190.902 143.724L190.876 143.723C185.128 142.922 179.308 142.767 173.526 143.26C173.503 143.406 173.475 143.552 173.437 143.698C172.889 145.833 172.915 148.138 173.517 150.745C173.736 151.657 173.626 152.616 173.208 153.456C172.458 154.939 170.936 155.872 169.274 155.868L169.248 155.866C163.345 155.044 157.367 154.903 151.432 155.446C151.387 156.929 151.541 158.411 151.889 159.852C152.108 160.764 151.999 161.724 151.581 162.564C150.83 164.046 149.308 164.98 147.647 164.976L147.62 164.974C140.496 163.981 133.268 163.981 126.144 164.974H126.132C125.419 164.976 124.716 164.807 124.082 164.479C122.274 163.497 121.456 161.34 122.157 159.406C122.373 158.797 122.533 158.17 122.635 157.532C116.106 156.78 109.508 156.857 102.998 157.764H102.987C102.274 157.766 101.57 157.597 100.937 157.269C99.1287 156.287 98.3105 154.13 99.012 152.196C99.7818 150.206 99.8134 148.006 99.101 145.995C98.7652 145.052 98.7652 144.022 99.1007 143.079C94.1932 142.829 89.273 143.045 84.406 143.723H84.3946C83.6813 143.725 82.9779 143.556 82.3443 143.228C80.5364 142.246 79.7182 140.089 80.4198 138.155C81.1896 136.165 81.2211 133.965 80.5087 131.954C80.0536 130.677 80.2207 129.26 80.9604 128.123C81.6491 127.049 82.8053 126.365 84.0777 126.278C84.1778 126.272 84.2782 126.268 84.3797 126.268C86.8733 126.704 89.3909 126.989 91.9188 127.12C90.3062 126.06 89.6306 124.032 90.285 122.217C91.0548 120.227 91.0864 118.027 90.374 116.016C89.9189 114.738 90.0859 113.321 90.8257 112.185C90.8577 112.136 90.895 112.092 90.9287 112.045C89.1297 112.169 87.3349 112.356 85.5443 112.605H85.5329C84.8196 112.608 84.1162 112.438 83.4827 112.11C81.6747 111.128 80.8565 108.971 81.5581 107.037C82.3279 105.047 82.3594 102.848 81.647 100.837C81.1919 99.5589 81.359 98.142 82.0987 97.0053C82.7874 95.9317 83.9436 95.2476 85.216 95.1606C85.3161 95.154 85.4165 95.1505 85.518 95.1505C88.5163 95.6754 91.549 95.9808 94.5917 96.064C93.8154 94.9451 93.6248 93.521 94.0794 92.2372C94.8492 90.2475 94.8807 88.0477 94.1683 86.0367C93.7132 84.759 93.8803 83.3421 94.62 82.2054C95.3088 81.1318 96.465 80.4477 97.7374 80.3607C97.8374 80.3541 97.9378 80.3506 98.0394 80.3506C100.577 80.7943 103.139 81.0812 105.712 81.2096C105.159 80.1629 105.069 78.933 105.462 77.8168C106.232 75.8271 106.264 73.6273 105.551 71.6163C105.096 70.3386 105.263 68.9217 106.003 67.785C106.692 66.7114 107.848 66.0273 109.12 65.9403C109.22 65.9337 109.321 65.9301 109.422 65.9301C112.408 66.4528 115.428 66.7577 118.457 66.8424C118.045 65.8677 118.011 64.7741 118.363 63.7759C119.133 61.7861 119.164 59.5864 118.452 57.5754C117.997 56.2977 118.164 54.8808 118.904 53.744C119.593 52.6705 120.749 51.9863 122.021 51.8994C122.121 51.8927 122.222 51.8892 122.323 51.8892C129.434 53.141 136.709 53.1419 143.82 51.892H143.829C144.377 52.0051 144.943 52.0051 145.492 51.892H145.501C152.612 53.1419 159.887 53.141 166.998 51.8892C167.099 51.8892 167.2 51.8927 167.3 51.8994C168.572 51.9863 169.728 52.6705 170.417 53.744C171.157 54.8808 171.324 56.2977 170.869 57.5754C170.156 59.5864 170.188 61.7861 170.958 63.7759C171.31 64.7741 171.276 65.8677 170.864 66.8424C173.893 66.7577 176.913 66.4528 179.899 65.9301C180 65.9301 180.1 65.9337 180.201 65.9403C181.473 66.0273 182.629 66.7114 183.318 67.785C184.058 68.9217 184.225 70.3386 183.77 71.6163C183.057 73.6273 183.089 75.8271 183.859 77.8168C184.252 78.933 184.162 80.1629 183.609 81.2096C186.182 81.0812 188.744 80.7944 191.282 80.3506C191.383 80.3506 191.483 80.3541 191.584 80.3607C192.856 80.4477 194.012 81.1318 194.701 82.2054C195.441 83.3421 195.608 84.759 195.153 86.0367C194.44 88.0477 194.472 90.2475 195.242 92.2372C195.697 93.5243 195.505 94.9521 194.724 96.0722C195.063 96.3279 195.362 96.6317 195.614 96.9739C196.317 97.9823 196.533 99.2525 196.203 100.437C195.655 102.572 195.681 104.876 196.283 107.483C196.502 108.395 196.392 109.355 195.974 110.195C195.822 110.494 195.635 110.774 195.42 111.031C197.196 110.875 198.967 110.642 200.735 110.333H200.744C202.165 110.328 203.503 111.005 204.341 112.153C205.044 113.162 205.26 114.432 204.93 115.616C204.382 117.751 204.408 120.056 205.01 122.663C205.229 123.575 205.119 124.535 204.701 125.374L204.701 125.374Z"
          fill="white"/>
    <path d="M259.889 29.1311H24.9666C24.4507 29.1198 24.0416 28.6922 24.053 28.1762C24.064 27.6762 24.4667 27.2735 24.9666 27.2625H259.889C260.405 27.2738 260.814 27.7014 260.803 28.2174C260.792 28.7174 260.389 29.1201 259.889 29.1311Z"
          fill="#E6E6E6"/>
    <path d="M145.267 160.499L145.241 160.497C138.117 159.505 130.889 159.505 123.764 160.497H123.753C123.04 160.5 122.336 160.33 121.703 160.003C119.895 159.021 119.077 156.864 119.778 154.93C120.548 152.94 120.579 150.74 119.867 148.729C119.412 147.451 119.579 146.035 120.319 144.898C121.008 143.824 122.164 143.14 123.436 143.053C123.536 143.046 123.637 143.043 123.738 143.043C130.849 144.295 138.124 144.296 145.235 143.046H145.244C146.665 143.041 148.003 143.718 148.84 144.866C149.544 145.875 149.76 147.145 149.43 148.329C148.882 150.464 148.907 152.769 149.51 155.376C149.729 156.288 149.619 157.248 149.201 158.087C148.451 159.57 146.929 160.503 145.267 160.499Z"
          fill="#0077C8"/>
    <path d="M167.177 123.292L161.445 118.548C157.147 120.801 150.607 129.797 150.607 129.797L135.519 140.65C133.707 140.736 132.308 142.275 132.394 144.087C132.481 145.899 134.02 147.298 135.831 147.212C137.007 147.156 138.063 146.475 138.599 145.427L159.099 134.593L167.177 123.292V123.292Z"
          fill="#FFB8B8"/>
    <path d="M176.846 105.237C180.154 108.039 180.565 112.993 177.763 116.301C177.449 116.672 177.102 117.013 176.725 117.319L173.08 120.283C173.08 120.283 163.988 133.373 159.256 134.891L147.107 141.239L141.629 135.746L152.64 126.771C152.64 126.771 157.704 121.981 158.211 118.474C158.522 116.326 162.156 110.475 165.799 106.136C168.595 102.837 173.535 102.43 176.834 105.227L176.846 105.237V105.237Z"
          fill="#3F3D56"/>
    <path d="M165.069 247.299L159.891 247.299L157.428 227.323L165.07 227.323L165.069 247.299Z" fill="#FFB6B6"/>
    <path d="M165.248 252.702L149.324 252.701V252.5C149.324 249.077 152.099 246.302 155.522 246.301H155.522L158.431 244.094L163.858 246.302L165.248 246.302L165.248 252.702Z"
          fill="#2F2E41"/>
    <path d="M204.522 220.041L202.07 224.602L183.312 217.313L186.931 210.581L204.522 220.041Z" fill="#FFB6B6"/>
    <path d="M209.367 222.438L201.826 236.465L201.649 236.37C198.634 234.748 197.504 230.99 199.125 227.975L199.125 227.974L198.559 224.367L203.072 220.632L203.731 219.407L209.367 222.438Z"
          fill="#2F2E41"/>
    <path d="M155.276 155.82L150.706 192.387L152.991 204.647L194.124 222.669L196.409 215.242C185.895 208.807 174.655 199.069 167.574 198.353C167.574 198.353 166.986 191.864 172.06 187.859C173.083 187.051 172.859 185.958 173.273 184.967C173.558 184.286 174.69 183.576 174.98 182.877C175.356 181.971 174.891 181.071 175.269 180.15C175.481 179.633 176.287 179.6 176.498 179.082C176.858 178.198 176.622 176.83 176.973 175.957C177.723 174.092 178.444 172.267 179.103 170.557C181.152 165.234 182.594 161.016 182.412 160.106C181.841 157.249 155.276 155.82 155.276 155.82Z"
          fill="#2F2E41"/>
    <path d="M154.489 192.282L152.098 207.724L158.132 239.239H166.13C169.004 228.65 169.152 214.732 166.416 202.958L154.489 192.282Z"
          fill="#2F2E41"/>
    <path d="M159.63 111.143L163.317 104.717L167.276 101.541L174.702 100.398L176.766 101.985C184.191 113.336 186.96 127.11 184.498 140.449L183.918 143.589L183.55 145.582L183.71 147.964L182.47 151.432L182.641 153.972L182.732 155.328L182.823 156.69L182.951 158.59C183.179 159.674 182.029 159.531 182.192 160.487C182.478 162.166 183.758 164.653 181.813 164.661L161.703 160.487C156.594 160.508 151.837 154.415 156.77 149.482L159.63 111.143H159.63Z"
          fill="#3F3D56"/>
    <path d="M169.044 98.6084C174.437 98.6084 178.809 94.2358 178.809 88.8418C178.809 83.4479 174.437 79.0752 169.044 79.0752C163.65 79.0752 159.278 83.4479 159.278 88.8418C159.278 94.2358 163.65 98.6084 169.044 98.6084Z"
          fill="#FFB8B8"/>
    <path d="M169.209 98.331C170.637 98.3533 172.066 98.2535 173.478 98.0326C174.877 97.748 178.008 95.4535 178.88 94.0728C179.529 93.0469 179.943 91.445 180.177 90.2818C180.814 87.169 180.101 83.9323 178.215 81.3752C177.857 80.8463 177.362 80.4241 176.784 80.1533C176.732 80.1332 176.68 80.1155 176.626 80.1003C175.783 79.8784 175.026 79.4096 174.451 78.7541C174.34 78.6215 174.219 78.4971 174.09 78.3819C173.44 77.8337 172.67 77.447 171.842 77.2534C170.506 76.8958 168.573 77.2507 166.096 78.3094C164.852 78.8412 163.491 78.6487 162.444 78.4216C162.325 78.3985 162.202 78.4406 162.122 78.5321C161.676 78.9503 161.089 79.1844 160.478 79.1874C160.104 79.2038 159.711 79.722 159.237 80.3978C159.129 80.5511 159.003 80.7302 158.913 80.8391L158.901 80.6299L158.689 80.8633C157.6 82.0637 157.69 83.9198 158.891 85.0089C159.213 85.3016 159.597 85.5188 160.014 85.6448C160.39 85.7449 160.776 85.8064 161.165 85.8282C161.4 85.8494 161.644 85.8713 161.877 85.9118C163.402 86.2241 164.65 87.3144 165.165 88.7832C165.381 89.3848 166.043 89.6977 166.645 89.482C166.739 89.4481 166.829 89.4021 166.912 89.3451C167.405 88.9605 168.056 88.842 168.653 89.0278C168.908 89.1693 169.106 89.394 169.214 89.6642C169.346 89.9652 169.565 90.2201 169.842 90.3964C170.79 90.8854 170.856 93.0517 170.515 94.8577C170.187 96.5984 169.538 97.8577 168.937 97.9199C168.474 97.9678 168.421 98.0006 168.388 98.0824L168.358 98.1557L168.41 98.2242C168.665 98.3168 168.938 98.3533 169.209 98.331Z"
          fill="#2F2E41"/>
    <path d="M149.44 92.5715L149.414 92.5697C142.289 91.5769 135.062 91.5769 127.937 92.5697H127.926C127.213 92.5724 126.509 92.4026 125.876 92.0749C124.068 91.0929 123.249 88.9362 123.951 87.0019C124.721 85.0122 124.752 82.8124 124.04 80.8014C123.585 79.5237 123.752 78.1068 124.492 76.97C125.18 75.8965 126.337 75.2124 127.609 75.1254C127.709 75.1188 127.809 75.1152 127.911 75.1152C135.022 76.367 142.296 76.3679 149.408 75.118H149.416C150.838 75.113 152.176 75.7901 153.013 76.9387C153.717 77.9471 153.933 79.2172 153.603 80.4017C153.054 82.5363 153.08 84.8412 153.683 87.4481C153.901 88.3601 153.792 89.32 153.374 90.1595C152.624 91.6423 151.102 92.5755 149.44 92.5715Z"
          fill="#0077C8"/>
    <path d="M158.573 115.574L162.614 109.327C159.874 105.321 150.178 99.8756 150.178 99.8756L137.637 86.1575C137.34 84.3678 135.648 83.1581 133.859 83.4556C132.069 83.7531 130.86 85.4451 131.157 87.2348C131.35 88.3962 132.15 89.3655 133.254 89.7755L146.408 108.872L158.573 115.574H158.573Z"
          fill="#FFB8B8"/>
    <path d="M177.631 123.069C175.235 126.682 170.364 127.669 166.751 125.273C166.346 125.004 165.967 124.699 165.619 124.36L162.25 121.086C162.25 121.086 148.13 113.712 146.069 109.189L136.816 96.064L143.02 90.4668L153.803 100.27C153.803 100.27 158.768 106.012 162.309 106.106C164.478 106.163 170.713 109.09 175.447 112.201C179.05 114.593 180.031 119.452 177.64 123.055L177.631 123.069Z"
          fill="#3F3D56"/>
    <path d="M83.5661 252.645L83.5398 252.643C76.4154 251.651 69.1877 251.651 62.0633 252.643H62.0518C61.3385 252.646 60.6351 252.476 60.0016 252.149C58.1936 251.167 57.3754 249.01 58.077 247.076C58.8468 245.086 58.8783 242.886 58.1659 240.875C57.7108 239.597 57.8779 238.181 58.6176 237.044C59.3064 235.97 60.4625 235.286 61.735 235.199C61.835 235.192 61.9354 235.189 62.037 235.189C69.1477 236.441 76.4224 236.442 83.5335 235.192H83.5424C84.9639 235.187 86.3016 235.864 87.1393 237.012C87.843 238.021 88.0592 239.291 87.7288 240.475C87.1804 242.61 87.2063 244.915 87.8088 247.522C88.0274 248.434 87.9181 249.394 87.5002 250.233C86.7498 251.716 85.2278 252.649 83.5661 252.645H83.5661Z"
          fill="#0077C8"/>
    <path d="M89.6364 236.707L89.6101 236.705C82.4857 235.712 75.258 235.712 68.1336 236.705H68.1221C67.4088 236.708 66.7055 236.538 66.0719 236.21C64.2639 235.228 63.4457 233.072 64.1473 231.137C64.9171 229.147 64.9486 226.948 64.2362 224.937C63.7812 223.659 63.9482 222.242 64.6879 221.105C65.3767 220.032 66.5329 219.348 67.8053 219.261C67.9053 219.254 68.0057 219.25 68.1073 219.25C75.2181 220.502 82.4927 220.503 89.6038 219.253H89.6127C91.0342 219.248 92.3719 219.925 93.2096 221.074C93.9133 222.082 94.1295 223.353 93.7991 224.537C93.2507 226.672 93.2766 228.976 93.8791 231.583C94.0977 232.495 93.9884 233.455 93.5705 234.295C92.8201 235.778 91.2981 236.711 89.6364 236.707H89.6364Z"
          fill="#0077C8"/>
    <path d="M36.512 241.052L36.5283 241.031C41.3424 235.685 45.3923 229.698 48.562 223.24L48.5685 223.23C48.9659 222.638 49.5006 222.15 50.127 221.809C51.9533 220.862 54.1978 221.392 55.4067 223.057C56.6232 224.81 58.4272 226.069 60.4919 226.605C61.805 226.944 62.8848 227.877 63.4118 229.126C63.9149 230.298 63.8337 231.64 63.1927 232.742C63.1422 232.829 63.0888 232.914 63.0319 232.998C58.0109 238.187 53.934 244.213 50.9846 250.804L50.9797 250.811C50.1873 251.992 48.877 252.72 47.4564 252.771C46.227 252.789 45.054 252.256 44.2582 251.319C42.7977 249.668 40.8743 248.398 38.3778 247.437C37.5 247.107 36.7663 246.479 36.3052 245.662C35.4977 244.209 35.5777 242.426 36.512 241.052Z"
          fill="#0077C8"/>
    <path d="M60.8044 20.4573C62.5766 20.4573 64.0131 18.9885 64.0131 17.1767C64.0131 15.3648 62.5766 13.896 60.8044 13.896C59.0323 13.896 57.5957 15.3648 57.5957 17.1767C57.5957 18.9885 59.0323 20.4573 60.8044 20.4573Z"
          fill="#3F3D56"/>
    <path d="M71.8884 20.4573C73.6605 20.4573 75.0971 18.9885 75.0971 17.1767C75.0971 15.3648 73.6605 13.896 71.8884 13.896C70.1163 13.896 68.6797 15.3648 68.6797 17.1767C68.6797 18.9885 70.1163 20.4573 71.8884 20.4573Z"
          fill="#3F3D56"/>
    <path d="M82.9753 20.4573C84.7475 20.4573 86.1841 18.9885 86.1841 17.1767C86.1841 15.3648 84.7475 13.896 82.9753 13.896C81.2032 13.896 79.7666 15.3648 79.7666 17.1767C79.7666 18.9885 81.2032 20.4573 82.9753 20.4573Z"
          fill="#3F3D56"/>
    <path d="M95.6139 19.7699C95.5153 19.7699 95.4169 19.7317 95.3427 19.6558L93.1776 17.4422C93.0333 17.2947 93.0333 17.059 93.1776 16.9115L95.3427 14.6982C95.4896 14.5485 95.7301 14.5461 95.8792 14.6923C96.0291 14.8388 96.0317 15.0792 95.8851 15.2289L93.9796 17.1769L95.8851 19.1251C96.0317 19.2748 96.0291 19.5151 95.8792 19.6617C95.8055 19.7339 95.7097 19.7699 95.6139 19.7699Z"
          fill="#3F3D56"/>
    <path d="M99.2525 19.7699C99.1567 19.7699 99.0609 19.734 98.9872 19.6617C98.8373 19.5152 98.8347 19.275 98.9813 19.1251L100.887 17.1769L98.9813 15.2289C98.8347 15.0792 98.8373 14.8389 98.9872 14.6923C99.1367 14.5455 99.3772 14.5483 99.5237 14.6982L101.689 16.9116C101.833 17.0591 101.833 17.2948 101.689 17.4423L99.5237 19.6558C99.4494 19.7318 99.3511 19.7699 99.2525 19.7699Z"
          fill="#3F3D56"/>
    <path d="M212.517 14.2759H208.491C208.032 14.2759 207.66 14.6478 207.66 15.1069V19.1371C207.66 19.5963 208.032 19.9681 208.491 19.9681H212.517C212.976 19.9681 213.352 19.5963 213.352 19.1371V15.1069C213.352 14.6478 212.976 14.2759 212.517 14.2759Z"
          fill="#3F3D56"/>
    <path d="M202.651 14.2759H198.625C198.166 14.2759 197.794 14.6478 197.794 15.1069V19.1371C197.794 19.5963 198.166 19.9681 198.625 19.9681H202.651C203.11 19.9681 203.485 19.5963 203.485 19.1371V15.1069C203.485 14.6478 203.11 14.2759 202.651 14.2759Z"
          fill="#3F3D56"/>
    <path d="M221.812 14.4656H217.786C217.327 14.4656 216.955 14.8375 216.955 15.2966V19.3268C216.955 19.786 217.327 20.1578 217.786 20.1578H221.812C222.271 20.1578 222.647 19.786 222.647 19.3268V15.2966C222.647 14.8375 222.271 14.4656 221.812 14.4656Z"
          fill="#3F3D56"/>
    <path d="M161.132 15.9988H128.953C128.391 15.9988 127.939 16.4542 127.939 17.012C127.939 17.5699 128.391 18.0252 128.953 18.0252H161.132C161.69 18.0252 162.145 17.5698 162.145 17.012C162.145 16.4542 161.69 15.9988 161.132 15.9988Z"
          fill="#3F3D56"/>
</svg>
