<?xml version="1.0" encoding="utf-8"?>
<!-- Generator: Adobe Illustrator 23.0.1, SVG Export Plug-In . SVG Version: 6.00 Build 0)  -->
<svg version="1.1" id="Laag_1" xmlns="http://www.w3.org/2000/svg" xmlns:xlink="http://www.w3.org/1999/xlink" x="0px" y="0px"
	 viewBox="0 0 238.2 121.2" style="enable-background:new 0 0 238.2 121.2;" xml:space="preserve">
<style type="text/css">
	.st0{display:none;}
	.st1{fill:#FFFFFF;}
</style>
<rect y="0" class="st0" width="404.1" height="121.2"/>
<rect x="15.3" y="12.9" width="145.3" height="46.2"/>
<title>Asset 1</title>
<g id="Layer_2_1_">
	<g id="Layer_1-2">
		<g id="logos">
			<path class="st1" d="M144.2,41.4c2.4,0,3.6-1.2,3.6-3.6s-1.2-3.6-3.6-3.6h-9v-7h14.4c2.4,0,3.6-1.2,3.6-3.6S152,20,149.6,20h-18
				c-2.4,0-3.8,1.2-3.8,3.8v25.8c-0.2,1.9,1.2,3.6,3.1,3.8c0.2,0,0.5,0,0.7,0c2.4,0,3.8-1.2,3.8-3.8v-8.2
				C135.4,41.4,144.2,41.4,144.2,41.4z M106.6,27.2c2.8,0,5.2,1.4,5.2,4.4s-2.2,4.4-5.2,4.4h-6.4v-8.8H106.6z M111,51
				c0.6,1.6,1.6,2.4,3,2.4c1.8,0,4.4-1.4,4.4-3.6c0-0.7-0.2-1.4-0.4-2l-3.4-7c3.3-1.7,5.4-5.2,5.2-9c0-6.8-5-11.6-12.2-11.6H96.8
				c-2.4,0-3.8,1.2-3.8,3.8v25.8c-0.2,1.9,1.2,3.6,3.1,3.8c0.2,0,0.5,0,0.7,0c2.4,0,3.8-1.2,3.8-3.8v-6.6h6.8L111,51z M76.4,38
				c0,5.2-3,8.2-7.4,8.2c-4.2,0-7.4-3-7.4-8.2V23.6c0.2-1.9-1.2-3.6-3.1-3.8c-0.2,0-0.5,0-0.7,0c-2.4,0-3.8,1.2-3.8,3.8V38
				c0,9.4,6.4,15.6,15,15.6S84,47.4,84,38V23.6c0.2-1.9-1.2-3.6-3.1-3.8c-0.2,0-0.5,0-0.7,0c-2.4,0-3.8,1.2-3.8,3.8V38z M33.6,46.4
				c-2.3,0-4.5-0.4-6.6-1.2c-1.1-0.4-2.2-0.6-3.4-0.6c-2.2,0-3.4,1.4-3.4,3.6c0,3.6,7.2,5.4,13.4,5.4c7.4,0,13-4,13-10
				c0-5.8-3.8-8.2-8-9.4l-6.2-1.8c-2.6-0.8-3.8-1.4-3.8-3s2.6-2.4,4.8-2.4c2.1,0,4.1,0.4,6,1.2c1,0.4,2,0.6,3,0.6c2,0,3-1.4,3-3.6
				c0-3.6-6.6-5.4-12-5.4c-7.2,0-12.4,4-12.4,10c0,4.8,3.4,7.6,7.4,8.8l5.4,1.6c2.8,0.8,4.8,1.6,4.8,3.2
				C39,45.2,36.2,46.4,33.6,46.4 M220,73.2c10,0,18.2,8.2,18.2,18.2V103c0,10-8.2,18.2-18.2,18.2h-27.2c-10,0-18.2-8.2-18.2-18.2
				v-7.2c0-12.5-10.1-22.6-22.6-22.6l0,0H22.6C10.1,73.2,0,63.1,0,50.6l0,0v-28C0,10.1,10.1,0,22.6,0l0,0H152
				c12.5,0,22.6,10.1,22.6,22.6l0,0v28c0,12.5,10.1,22.6,22.6,22.6l0,0H220z"/>
		</g>
	</g>
</g>
</svg>
