<svg width="36" height="36" viewBox="0 0 36 36" fill="none" xmlns="http://www.w3.org/2000/svg">
<g clip-path="url(#clip0_7453_2187)">
<path d="M16.2409 35.6273C13.062 35.3326 10.0212 34.1871 7.43795 32.3111C4.85474 30.4351 2.82458 27.8979 1.56082 24.9661C1.52104 24.8686 1.5211 24.7594 1.56101 24.6619C1.60091 24.5645 1.67747 24.4865 1.77421 24.4449C1.87096 24.4033 1.98017 24.4013 2.07837 24.4394C2.17657 24.4774 2.25592 24.5525 2.29935 24.6484C3.50562 27.4481 5.44382 29.8712 7.91024 31.6628C10.3767 33.4545 13.2802 34.5487 16.3156 34.8303C16.4178 34.8406 16.5122 34.8896 16.5793 34.9673C16.6465 35.0451 16.6813 35.1455 16.6766 35.2481C16.6719 35.3507 16.6281 35.4476 16.5541 35.5189C16.4802 35.5902 16.3817 35.6304 16.2791 35.6313L16.2409 35.6273ZM19.6815 35.6146C19.582 35.6149 19.4859 35.5781 19.4121 35.5114C19.3383 35.4446 19.2921 35.3527 19.2825 35.2537C19.2715 35.1482 19.3028 35.0426 19.3695 34.9601C19.4362 34.8776 19.5328 34.8249 19.6383 34.8135C22.9258 34.479 26.044 33.1917 28.6102 31.1098C31.1763 29.0278 33.0786 26.2418 34.0835 23.0938C35.0884 19.9459 35.1522 16.5729 34.2669 13.3892C33.3817 10.2055 31.586 7.34965 29.1004 5.17222C29.0607 5.13752 29.0283 5.09535 29.0049 5.04811C28.9815 5.00087 28.9677 4.94949 28.9642 4.8969C28.9607 4.84431 28.9676 4.79155 28.9845 4.74164C29.0015 4.69172 29.028 4.64563 29.0628 4.60599C29.1333 4.52596 29.2326 4.47712 29.339 4.47016C29.4454 4.46321 29.5502 4.49871 29.6305 4.56889C32.2331 6.84969 34.1131 9.84069 35.0399 13.1748C35.9667 16.5089 35.9 20.0411 34.8479 23.3378C33.7958 26.6345 31.8041 29.5523 29.1172 31.7332C26.4304 33.914 23.1653 35.263 19.7226 35.6146C19.709 35.616 19.6952 35.6167 19.6815 35.6166V35.6146ZM17.9025 31.2459C10.5538 31.2459 4.57542 25.2731 4.57542 17.932C4.57542 17.7399 4.57949 17.5488 4.58762 17.3587C4.59492 17.2543 4.64266 17.1568 4.72069 17.0871C4.79872 17.0173 4.90088 16.9807 5.00547 16.9851C5.11006 16.9894 5.20882 17.0344 5.28075 17.1104C5.35269 17.1865 5.39214 17.2876 5.3907 17.3923C5.38308 17.5717 5.37952 17.7511 5.37952 17.932C5.38104 24.8324 10.9985 30.4428 17.904 30.4428C24.8095 30.4428 30.4275 24.8324 30.4275 17.9341C30.428 15.7989 29.8819 13.6991 28.8412 11.8347C28.7919 11.7419 28.7809 11.6334 28.8107 11.5325C28.8404 11.4316 28.9085 11.3464 29.0003 11.2952C29.0921 11.2439 29.2004 11.2307 29.3018 11.2583C29.4033 11.2859 29.4899 11.3521 29.5431 11.4429C30.6505 13.4271 31.2316 15.6617 31.2311 17.9341C31.2311 25.2752 25.2507 31.2479 17.904 31.2479L17.9025 31.2459ZM17.9025 29.1503C15.3849 29.1595 12.9386 28.3144 10.9635 26.7532C10.8798 26.6871 10.8259 26.5905 10.8135 26.4846C10.8011 26.3787 10.8313 26.2722 10.8974 26.1885C10.9635 26.1049 11.0602 26.0509 11.1661 26.0385C11.272 26.0262 11.3784 26.0563 11.4621 26.1225C13.6038 27.8025 16.3172 28.5792 19.0234 28.2868C21.7297 27.9944 24.2146 26.6562 25.948 24.5575C26.0169 24.4789 26.1138 24.4302 26.2179 24.4218C26.3221 24.4133 26.4255 24.4458 26.5061 24.5123C26.5868 24.5788 26.6384 24.6741 26.6499 24.778C26.6615 24.8819 26.6322 24.9862 26.5681 25.0688C25.5155 26.3474 24.1925 27.3768 22.6944 28.0829C21.1962 28.789 19.5602 29.1542 17.904 29.1523L17.9025 29.1503ZM26.7577 30.5181C25.1112 31.6839 23.2505 32.5131 21.2826 32.9579C19.3148 33.4028 17.2784 33.4546 15.2905 33.1103C15.2384 33.1014 15.1887 33.0824 15.144 33.0543C15.0994 33.0262 15.0607 32.9896 15.0302 32.9465C14.9997 32.9035 14.978 32.8549 14.9663 32.8034C14.9546 32.752 14.9532 32.6987 14.9621 32.6467C14.971 32.5947 14.99 32.545 15.0181 32.5004C15.0462 32.4557 15.0828 32.4171 15.1259 32.3867C15.1689 32.3562 15.2176 32.3345 15.269 32.3229C15.3205 32.3113 15.3737 32.3099 15.4257 32.3189C17.3786 32.6527 19.3791 32.5855 21.3053 32.1215C23.2315 31.6574 25.043 30.8062 26.6298 29.6197C28.2165 28.4332 29.5451 26.9361 30.5348 25.2197C31.5244 23.5033 32.1544 21.6035 32.3864 19.6358C32.3988 19.53 32.4527 19.4334 32.5363 19.3674C32.6199 19.3013 32.7263 19.2712 32.8322 19.2836C32.938 19.296 33.0346 19.3499 33.1006 19.4335C33.1667 19.5171 33.1968 19.6235 33.1844 19.7293C32.9309 21.8782 32.2277 23.9496 31.1207 25.8088C30.0137 27.6679 28.5276 29.2732 26.7593 30.5201L26.7577 30.5181ZM12.7801 32.2782C12.7263 32.3162 12.664 32.3405 12.5987 32.3487C12.5333 32.3569 12.467 32.349 12.4055 32.3255C10.0124 31.4165 7.88396 29.925 6.21272 27.9861C4.54148 26.0471 3.38028 23.7219 2.83427 21.2209C2.28826 18.72 2.37469 16.1224 3.08573 13.6633C3.79677 11.2042 5.10996 8.96134 6.90639 7.13773C6.92321 7.12033 6.94159 7.10451 6.96128 7.09046C7.04328 7.0333 7.14364 7.00877 7.24276 7.02168C7.34188 7.03459 7.43262 7.08399 7.49724 7.16025C7.56186 7.2365 7.59573 7.33411 7.59221 7.434C7.58868 7.53389 7.54803 7.62888 7.4782 7.70039C5.77484 9.42884 4.52959 11.5549 3.85525 13.8861C3.18091 16.2172 3.09878 18.6798 3.6163 21.0507C4.13383 23.4216 5.23465 25.6259 6.81906 27.464C8.40347 29.3021 10.4214 30.7159 12.6901 31.5773C12.7583 31.603 12.8181 31.6468 12.8632 31.704C12.9084 31.7612 12.9371 31.8296 12.9463 31.9019C12.9555 31.9741 12.9448 32.0475 12.9154 32.1142C12.8861 32.1809 12.8391 32.2383 12.7796 32.2803L12.7801 32.2782ZM32.912 15.7739C32.8631 15.8089 32.8067 15.832 32.7473 15.8415C32.6423 15.859 32.5346 15.8342 32.4479 15.7724C32.3612 15.7107 32.3026 15.6171 32.2848 15.5121C31.8916 13.2022 30.9487 11.0207 29.5355 9.15167C28.1224 7.28261 26.2805 5.78081 24.1652 4.77292C22.0499 3.76503 19.7233 3.28062 17.3815 3.36055C15.0397 3.44049 12.7515 4.08241 10.7098 5.23219C10.6202 5.28243 10.5147 5.29639 10.4151 5.27119C10.3154 5.24598 10.2293 5.18354 10.1743 5.09671C10.1193 5.00988 10.0997 4.90528 10.1195 4.80444C10.1394 4.70361 10.1971 4.61421 10.2809 4.55466C10.2918 4.54695 10.3032 4.53983 10.3149 4.53331C12.4688 3.31906 14.8832 2.64085 17.3543 2.55592C19.8254 2.471 22.2806 2.98186 24.5128 4.04537C26.7449 5.10888 28.6884 6.69383 30.1792 8.66641C31.67 10.639 32.6643 12.9413 33.0782 15.379C33.0905 15.4538 33.0815 15.5305 33.0521 15.6004C33.0227 15.6703 32.9741 15.7304 32.912 15.7739ZM8.92578 24.3836C8.85998 24.3836 8.79518 24.3675 8.73705 24.3367C8.67892 24.3059 8.62924 24.2612 8.59235 24.2068C7.03233 21.8943 6.39014 19.0835 6.79117 16.323C7.1922 13.5625 8.60765 11.0505 10.7612 9.27758C10.8018 9.24398 10.8487 9.2187 10.8991 9.20321C10.9495 9.18772 11.0025 9.18231 11.055 9.18729C11.1075 9.19226 11.1585 9.20754 11.2051 9.23223C11.2517 9.25693 11.293 9.29056 11.3266 9.33121C11.3602 9.37186 11.3855 9.41873 11.401 9.46914C11.4165 9.51956 11.4219 9.57254 11.4169 9.62504C11.412 9.67755 11.3967 9.72856 11.372 9.77517C11.3473 9.82177 11.3137 9.86306 11.273 9.89667C9.27358 11.5427 7.95936 13.8748 7.58691 16.4377C7.21446 19.0006 7.81051 21.6104 9.2587 23.7574C9.28855 23.8012 9.30944 23.8503 9.32018 23.9022C9.33092 23.954 9.33129 24.0075 9.32127 24.0594C9.31125 24.1114 9.29105 24.1609 9.26182 24.205C9.23258 24.2491 9.1949 24.287 9.15095 24.3165C9.08431 24.361 9.00587 24.3843 8.92578 24.3836ZM27.9059 22.4852C27.8535 22.4853 27.8017 22.4747 27.7534 22.4542C27.7048 22.434 27.6607 22.4043 27.6235 22.367C27.5863 22.3297 27.5569 22.2854 27.5369 22.2366C27.5169 22.1879 27.5066 22.1357 27.5068 22.083C27.507 22.0304 27.5176 21.9782 27.5379 21.9297C28.0648 20.6636 28.3349 19.3054 28.3324 17.9341C28.3324 12.1905 23.6562 7.51843 17.9066 7.51843C16.4808 7.51556 15.0697 7.80677 13.7615 8.37386C13.7113 8.39604 13.6569 8.40747 13.6019 8.40741C13.5095 8.40767 13.4198 8.37602 13.348 8.3178C13.2762 8.25958 13.2266 8.17836 13.2077 8.08786C13.1889 7.99736 13.2018 7.90311 13.2444 7.82104C13.2869 7.73897 13.3565 7.67409 13.4413 7.63737C14.8505 7.02628 16.3706 6.7124 17.9066 6.71535C24.0984 6.71535 29.136 11.7473 29.136 17.9341C29.1385 19.4111 28.8476 20.874 28.28 22.2377C28.2494 22.3115 28.1974 22.3745 28.1308 22.4186C28.0641 22.4627 27.9858 22.4859 27.9059 22.4852ZM0.515798 18.3356C0.409344 18.3355 0.307289 18.2931 0.232014 18.2179C0.15674 18.1426 0.114392 18.0405 0.114258 17.9341C0.114258 8.13447 8.09424 0.162109 17.904 0.162109C20.8291 0.162453 23.7092 0.88213 26.2906 2.25774C26.3694 2.30007 26.4319 2.3675 26.468 2.44934C26.5041 2.53119 26.5119 2.62275 26.4901 2.70951C26.4682 2.79627 26.418 2.87325 26.3475 2.92824C26.2769 2.98323 26.19 3.01307 26.1005 3.01305C26.0343 3.01326 25.9691 2.99683 25.9109 2.96527C23.4458 1.65198 20.6956 0.965117 17.9025 0.96519C8.53644 0.96519 0.916322 8.57718 0.916322 17.9341C0.916188 18.0404 0.873979 18.1423 0.798924 18.2175C0.72387 18.2928 0.622075 18.3352 0.515798 18.3356ZM6.07485 13.1232C6.01903 13.1231 5.96384 13.1115 5.9127 13.0892C5.81558 13.0458 5.73963 12.9657 5.70151 12.8664C5.66339 12.7671 5.66623 12.6567 5.70939 12.5595C6.58573 10.5794 7.93106 8.84235 9.62913 7.4986C11.3272 6.15485 13.3269 5.24478 15.4555 4.84704C17.5841 4.4493 19.7775 4.57584 21.8462 5.21574C23.915 5.85563 25.7968 6.98963 27.329 8.51974C27.4018 8.59554 27.442 8.69685 27.4409 8.80193C27.4399 8.90701 27.3977 9.00749 27.3234 9.0818C27.249 9.15611 27.1486 9.19833 27.0435 9.19939C26.9384 9.20045 26.8371 9.16028 26.7613 9.08749C25.3213 7.64971 23.5528 6.58418 21.6087 5.98295C19.6647 5.38172 17.6034 5.26288 15.6032 5.63669C13.6029 6.01051 11.7237 6.86574 10.128 8.12849C8.53223 9.39124 7.26795 11.0235 6.44436 12.8843C6.41255 12.9557 6.36068 13.0162 6.29508 13.0586C6.22948 13.1011 6.15296 13.1235 6.07485 13.1232ZM27.8683 3.93659C27.9444 3.93289 28.0177 3.90673 28.0789 3.8614C28.1401 3.81608 28.1865 3.75363 28.2122 3.68195C28.238 3.61027 28.2419 3.53256 28.2235 3.45866C28.2051 3.38475 28.1652 3.31796 28.1088 3.26672C28.0525 3.21548 27.9822 3.18209 27.9069 3.17077C27.8316 3.15945 27.7546 3.17071 27.6856 3.20312C27.6167 3.23554 27.559 3.28765 27.5196 3.35288C27.4803 3.41811 27.4612 3.49353 27.4647 3.56961C27.4671 3.62022 27.4794 3.66988 27.501 3.71573C27.5225 3.76158 27.5529 3.80273 27.5904 3.83682C27.6279 3.8709 27.6717 3.89726 27.7194 3.91438C27.7671 3.9315 27.8177 3.93905 27.8683 3.93659ZM28.245 10.5274C28.3212 10.524 28.3947 10.498 28.4561 10.4528C28.5176 10.4075 28.5642 10.345 28.5901 10.2732C28.616 10.2015 28.62 10.1236 28.6015 10.0495C28.5831 9.97549 28.5431 9.90857 28.4866 9.85728C28.4301 9.80599 28.3596 9.77263 28.2842 9.76144C28.2087 9.75025 28.1316 9.76174 28.0626 9.79443C27.9936 9.82713 27.936 9.87956 27.8968 9.94509C27.8577 10.0106 27.839 10.0863 27.8429 10.1625C27.8483 10.264 27.8936 10.3593 27.9689 10.4277C28.0441 10.496 28.1434 10.5319 28.245 10.5274ZM32.9572 17.9656C33.0334 17.962 33.1069 17.9359 33.1682 17.8905C33.2296 17.8452 33.2762 17.7826 33.302 17.7108C33.3278 17.639 33.3318 17.5612 33.3134 17.4871C33.2949 17.4131 33.255 17.3462 33.1985 17.2948C33.1421 17.2435 33.0717 17.21 32.9962 17.1987C32.9207 17.1874 32.8436 17.1987 32.7746 17.2312C32.7055 17.2638 32.6477 17.316 32.6084 17.3814C32.569 17.4468 32.55 17.5224 32.5536 17.5986C32.5585 17.7008 32.6038 17.7968 32.6794 17.8657C32.7551 17.9345 32.855 17.9704 32.9572 17.9656ZM27.2086 23.8972C27.2848 23.8936 27.3582 23.8675 27.4196 23.8222C27.4809 23.7769 27.5275 23.7144 27.5533 23.6426C27.5792 23.5708 27.5832 23.493 27.5648 23.4189C27.5464 23.3449 27.5065 23.278 27.4501 23.2266C27.3937 23.1753 27.3233 23.1418 27.2479 23.1304C27.1725 23.119 27.0954 23.1303 27.0263 23.1627C26.9573 23.1951 26.8994 23.2473 26.86 23.3127C26.8206 23.378 26.8015 23.4535 26.805 23.5297C26.8099 23.6319 26.8551 23.728 26.9308 23.7969C27.0064 23.8658 27.1063 23.9019 27.2086 23.8972ZM18.0667 35.6659C18.1427 35.6622 18.216 35.636 18.2772 35.5907C18.3384 35.5454 18.3848 35.4829 18.4106 35.4113C18.4363 35.3396 18.4402 35.2619 18.4218 35.188C18.4034 35.1141 18.3635 35.0473 18.3072 34.996C18.2508 34.9448 18.1805 34.9114 18.1052 34.9001C18.0299 34.8888 17.9529 34.9 17.884 34.9324C17.8151 34.9648 17.7573 35.017 17.718 35.0822C17.6787 35.1474 17.6596 35.2228 17.6631 35.2989C17.6654 35.3495 17.6777 35.3992 17.6993 35.445C17.7209 35.4909 17.7513 35.532 17.7888 35.5661C17.8262 35.6002 17.8701 35.6266 17.9178 35.6437C17.9655 35.6608 18.0161 35.6684 18.0667 35.6659ZM13.8256 32.7474C13.9018 32.7438 13.9753 32.7176 14.0366 32.6723C14.098 32.6269 14.1445 32.5644 14.1704 32.4926C14.1962 32.4208 14.2002 32.343 14.1817 32.2689C14.1633 32.1949 14.1234 32.1279 14.0669 32.0766C14.0104 32.0252 13.94 31.9918 13.8646 31.9805C13.7891 31.9692 13.712 31.9805 13.643 32.013C13.5739 32.0455 13.5161 32.0978 13.4768 32.1632C13.4374 32.2286 13.4184 32.3042 13.422 32.3804C13.4269 32.4826 13.4721 32.5786 13.5478 32.6474C13.6235 32.7163 13.7234 32.7522 13.8256 32.7474ZM9.96267 25.5918C10.0389 25.5882 10.1123 25.5621 10.1737 25.5167C10.2351 25.4714 10.2816 25.4089 10.3075 25.3371C10.3333 25.2653 10.3372 25.1874 10.3188 25.1133C10.3004 25.0393 10.2604 24.9724 10.204 24.921C10.1475 24.8697 10.0771 24.8363 10.0017 24.8249C9.92619 24.8136 9.84906 24.8249 9.78003 24.8575C9.711 24.89 9.65317 24.9422 9.61384 25.0076C9.57451 25.073 9.55546 25.1486 9.5591 25.2248C9.5641 25.3268 9.60925 25.4226 9.68468 25.4914C9.76011 25.5601 9.85968 25.5962 9.96165 25.5918H9.96267ZM0.915305 22.014C0.991527 22.0104 1.06497 21.9843 1.12634 21.939C1.18771 21.8936 1.23425 21.8311 1.26008 21.7593C1.28592 21.6875 1.28987 21.6096 1.27146 21.5356C1.25304 21.4615 1.21308 21.3946 1.15662 21.3433C1.10016 21.2919 1.02975 21.2585 0.954287 21.2472C0.878824 21.2359 0.8017 21.2472 0.732669 21.2797C0.663638 21.3122 0.605801 21.3645 0.566475 21.4299C0.527148 21.4953 0.508097 21.5708 0.511732 21.6471C0.516609 21.749 0.561648 21.8448 0.636995 21.9136C0.712342 21.9823 0.811861 22.0185 0.91378 22.014H0.915305ZM5.25092 15.3292C5.327 15.3255 5.40027 15.2993 5.46148 15.254C5.52269 15.2086 5.56909 15.1462 5.59483 15.0745C5.62056 15.0028 5.62447 14.9251 5.60607 14.8512C5.58766 14.7773 5.54776 14.7105 5.49141 14.6593C5.43506 14.608 5.36479 14.5747 5.28947 14.5633C5.21416 14.552 5.13717 14.5633 5.06825 14.5957C4.99933 14.6281 4.94156 14.6802 4.90224 14.7454C4.86293 14.8107 4.84382 14.8861 4.84735 14.9622C4.85236 15.064 4.89744 15.1598 4.97275 15.2285C5.04807 15.2973 5.14752 15.3334 5.2494 15.3292H5.25092ZM12.2235 9.0209C12.2996 9.0172 12.3728 8.99104 12.434 8.94572C12.4953 8.9004 12.5417 8.83795 12.5674 8.76626C12.5931 8.69458 12.597 8.61688 12.5786 8.54297C12.5602 8.46907 12.5203 8.40227 12.464 8.35103C12.4076 8.29979 12.3374 8.2664 12.262 8.25508C12.1867 8.24377 12.1097 8.25502 12.0408 8.28744C11.9719 8.31985 11.9141 8.37196 11.8748 8.43719C11.8355 8.50242 11.8164 8.57784 11.8199 8.65393C11.8248 8.7561 11.87 8.85216 11.9457 8.92097C12.0214 8.98979 12.1213 9.02574 12.2235 9.0209ZM8.64216 6.29043C8.71823 6.28673 8.79151 6.26057 8.85272 6.21524C8.91393 6.16992 8.96033 6.10747 8.98606 6.03579C9.0118 5.96411 9.01571 5.8864 8.9973 5.8125C8.9789 5.73859 8.939 5.6718 8.88265 5.62056C8.8263 5.56932 8.75603 5.53593 8.68071 5.52461C8.60539 5.51329 8.52841 5.52455 8.45949 5.55696C8.39057 5.58938 8.3328 5.64149 8.29348 5.70672C8.25416 5.77195 8.23506 5.84737 8.23859 5.92345C8.24093 5.97407 8.25324 6.02372 8.27481 6.06957C8.29637 6.11542 8.32676 6.15657 8.36425 6.19066C8.40174 6.22474 8.44558 6.2511 8.49327 6.26822C8.54096 6.28534 8.59155 6.29289 8.64216 6.29043ZM25.4662 21.2338H24.7185L24.4679 20.4806C24.4573 20.4469 24.4359 20.4176 24.4071 20.3973C24.3782 20.3769 24.3435 20.3666 24.3082 20.368C24.2729 20.3693 24.239 20.3822 24.2118 20.4046C24.1845 20.4271 24.1654 20.4579 24.1574 20.4923L23.9109 21.2293H23.1723C23.1511 21.2292 23.1301 21.2333 23.1104 21.2414C23.0908 21.2494 23.0729 21.2613 23.0579 21.2762C23.0428 21.2912 23.0309 21.309 23.0227 21.3286C23.0145 21.3481 23.0103 21.3692 23.0102 21.3904C23.0103 21.4137 23.0155 21.4366 23.0254 21.4577C23.0354 21.4788 23.0498 21.4974 23.0676 21.5124L23.6954 21.9937L23.4615 22.7399C23.4518 22.7611 23.4466 22.7841 23.4463 22.8075C23.4464 22.8375 23.4549 22.8669 23.4708 22.8923C23.4867 22.9178 23.5094 22.9383 23.5363 22.9516C23.5632 22.9649 23.5933 22.9704 23.6232 22.9676C23.6531 22.9648 23.6816 22.9537 23.7055 22.9355L24.3154 22.4695L24.9035 22.9198C24.926 22.9425 24.9547 22.958 24.986 22.9644C25.0174 22.9708 25.0499 22.9678 25.0795 22.9557C25.1091 22.9437 25.1344 22.9231 25.1523 22.8966C25.1702 22.8701 25.1799 22.8389 25.18 22.807C25.1801 22.788 25.1767 22.7692 25.1699 22.7516L24.9335 21.9968L25.5557 21.5225C25.5826 21.5029 25.6027 21.4753 25.6133 21.4437C25.6239 21.412 25.6243 21.3779 25.6146 21.346C25.6049 21.3141 25.5855 21.286 25.559 21.2656C25.5326 21.2452 25.5005 21.2336 25.4672 21.2323L25.4662 21.2338ZM26.6017 17.6596C26.6289 17.6401 26.6494 17.6126 26.6601 17.5808C26.6709 17.5491 26.6714 17.5148 26.6617 17.4827C26.6519 17.4507 26.6323 17.4225 26.6057 17.4022C26.5791 17.3819 26.5467 17.3704 26.5133 17.3694H25.7656L25.515 16.6176C25.5042 16.5841 25.4827 16.5549 25.4539 16.5347C25.425 16.5144 25.3903 16.5042 25.355 16.5055C25.3198 16.5069 25.2859 16.5197 25.2587 16.542C25.2314 16.5644 25.2122 16.595 25.2039 16.6293L24.9574 17.3663H24.2194C24.1864 17.3662 24.1542 17.3761 24.1271 17.3949C24.1 17.4137 24.0794 17.4403 24.0679 17.4712C24.0565 17.5021 24.0548 17.5358 24.0632 17.5677C24.0716 17.5996 24.0895 17.6281 24.1147 17.6494L24.7424 18.1318L24.5086 18.878C24.4986 18.8991 24.4934 18.9222 24.4933 18.9456C24.4934 18.9756 24.5018 19.005 24.5176 19.0305C24.5334 19.056 24.5561 19.0765 24.583 19.0898C24.6099 19.1031 24.64 19.1087 24.6698 19.1058C24.6997 19.103 24.7282 19.0918 24.7521 19.0736L25.362 18.6076L25.9506 19.0574C25.9732 19.0801 26.002 19.0955 26.0333 19.1019C26.0647 19.1082 26.0972 19.1051 26.1269 19.093C26.1565 19.0809 26.1819 19.0603 26.1998 19.0338C26.2177 19.0073 26.2274 18.976 26.2276 18.944C26.2274 18.9251 26.2238 18.9063 26.2169 18.8886L25.9801 18.1338L26.5986 17.6566L26.6017 17.6596ZM23.0651 13.9019L23.6948 14.3812L23.461 15.1274C23.4513 15.1486 23.4461 15.1716 23.4458 15.195C23.4459 15.225 23.4544 15.2544 23.4703 15.2798C23.4862 15.3053 23.5089 15.3258 23.5358 15.3391C23.5627 15.3524 23.5928 15.358 23.6227 15.3551C23.6526 15.3523 23.6811 15.3412 23.705 15.3231L24.3149 14.857L24.903 15.3073C24.9255 15.33 24.9542 15.3456 24.9855 15.352C25.0169 15.3583 25.0494 15.3553 25.079 15.3432C25.1086 15.3312 25.1339 15.3106 25.1518 15.2841C25.1697 15.2576 25.1794 15.2264 25.1795 15.1945C25.1796 15.1755 25.1762 15.1567 25.1694 15.1391L24.933 14.3843L25.5557 13.9095C25.5826 13.8899 25.6027 13.8623 25.6133 13.8307C25.6239 13.799 25.6243 13.7649 25.6146 13.733C25.6049 13.7011 25.5855 13.673 25.559 13.6526C25.5326 13.6322 25.5005 13.6206 25.4672 13.6193H24.7185L24.4679 12.8706C24.4573 12.8369 24.4359 12.8077 24.4071 12.7873C24.3782 12.767 24.3435 12.7567 24.3082 12.758C24.2729 12.7593 24.239 12.7722 24.2118 12.7947C24.1845 12.8171 24.1654 12.8479 24.1574 12.8823L23.9098 13.6188H23.1723C23.1511 13.6187 23.13 13.6227 23.1104 13.6308C23.0907 13.6388 23.0728 13.6507 23.0577 13.6656C23.0427 13.6806 23.0307 13.6984 23.0226 13.718C23.0144 13.7376 23.0102 13.7587 23.0102 13.7799C23.0103 13.8031 23.0154 13.8261 23.0254 13.8471C23.0353 13.8681 23.0497 13.8866 23.0676 13.9014L23.0651 13.9019ZM22.6722 10.8365H21.9281L21.6775 10.0878C21.6671 10.0539 21.6458 10.0243 21.6169 10.0038C21.588 9.98321 21.5531 9.97275 21.5177 9.97403C21.4822 9.9753 21.4482 9.98824 21.4208 10.0108C21.3935 10.0334 21.3744 10.0644 21.3664 10.099L21.1199 10.8365H20.3819C20.3607 10.8362 20.3396 10.8401 20.3199 10.848C20.3003 10.8559 20.2823 10.8676 20.2672 10.8824C20.252 10.8972 20.2399 10.9149 20.2316 10.9344C20.2233 10.9539 20.2189 10.9749 20.2187 10.9961C20.2188 11.0193 20.2239 11.0423 20.2337 11.0634C20.2435 11.0844 20.2578 11.1031 20.2756 11.1181L20.9039 11.5994L20.6711 12.3481C20.6611 12.3691 20.6559 12.392 20.6558 12.4152C20.6559 12.4452 20.6643 12.4746 20.6801 12.5001C20.6959 12.5256 20.7186 12.5462 20.7455 12.5595C20.7724 12.5728 20.8025 12.5783 20.8323 12.5755C20.8622 12.5726 20.8907 12.5615 20.9146 12.5433L21.5245 12.0777L22.1121 12.528C22.1346 12.5507 22.1634 12.5662 22.1948 12.5725C22.2262 12.5789 22.2587 12.5758 22.2883 12.5637C22.318 12.5515 22.3433 12.5309 22.3613 12.5044C22.3792 12.4779 22.3889 12.4467 22.3891 12.4147C22.3888 12.3959 22.3854 12.3774 22.3789 12.3598L22.1421 11.605L22.7627 11.1282C22.7899 11.1087 22.8103 11.0812 22.8211 11.0494C22.8319 11.0177 22.8324 10.9834 22.8226 10.9514C22.8129 10.9193 22.7933 10.8911 22.7667 10.8708C22.74 10.8505 22.7077 10.839 22.6742 10.838L22.6722 10.8365ZM16.4712 10.1223L17.0994 10.6037L16.8656 11.3498C16.8556 11.371 16.8504 11.3941 16.8504 11.4174C16.8505 11.4602 16.8676 11.5012 16.8979 11.5314C16.9282 11.5616 16.9692 11.5786 17.012 11.5786C17.0472 11.5783 17.0815 11.5668 17.1096 11.5455L17.7195 11.0794L18.3076 11.5298C18.3301 11.5525 18.3588 11.568 18.3901 11.5744C18.4214 11.5808 18.4539 11.5778 18.4835 11.5657C18.5131 11.5536 18.5385 11.5331 18.5564 11.5066C18.5743 11.4801 18.5839 11.4489 18.5841 11.4169C18.5839 11.398 18.5805 11.3793 18.5739 11.3615L18.3371 10.6067L18.9562 10.1295C18.9834 10.11 19.0038 10.0825 19.0146 10.0508C19.0253 10.0191 19.0259 9.98485 19.0162 9.95283C19.0065 9.9208 18.987 9.89262 18.9605 9.87225C18.9339 9.85187 18.9017 9.84033 18.8682 9.83923H18.1251L17.875 9.09054C17.8644 9.05686 17.8431 9.0276 17.8142 9.00726C17.7853 8.98692 17.7506 8.97662 17.7153 8.97795C17.68 8.97928 17.6462 8.99216 17.6189 9.01461C17.5917 9.03707 17.5725 9.06785 17.5645 9.10223L17.318 9.83923H16.5789C16.546 9.83906 16.5138 9.84904 16.4867 9.8678C16.4596 9.88657 16.4389 9.91322 16.4275 9.94413C16.416 9.97505 16.4144 10.0087 16.4228 10.0406C16.4311 10.0725 16.4491 10.101 16.4742 10.1223H16.4712ZM12.6403 11.1282L13.2685 11.6096L13.0347 12.3557C13.0247 12.3767 13.0195 12.3996 13.0195 12.4228C13.0195 12.444 13.0236 12.465 13.0318 12.4846C13.0399 12.5042 13.0518 12.522 13.0668 12.5369C13.0818 12.5519 13.0997 12.5638 13.1193 12.5718C13.1389 12.5799 13.1599 12.584 13.1811 12.5839C13.2164 12.5841 13.2507 12.5724 13.2787 12.5509L13.8886 12.0848L14.4752 12.5367C14.4977 12.5594 14.5265 12.575 14.5578 12.5813C14.5892 12.5877 14.6217 12.5847 14.6513 12.5725C14.681 12.5604 14.7063 12.5397 14.7242 12.5132C14.742 12.4866 14.7516 12.4553 14.7517 12.4233C14.7514 12.4046 14.748 12.386 14.7415 12.3684L14.5047 11.6136L15.1237 11.1369C15.1509 11.1174 15.1714 11.0899 15.1821 11.0582C15.1929 11.0265 15.1935 10.9923 15.1838 10.9602C15.1741 10.9282 15.1546 10.9 15.1281 10.8797C15.1015 10.8593 15.0692 10.8477 15.0358 10.8466H14.2917L14.0416 10.0979C14.031 10.0643 14.0096 10.035 13.9808 10.0147C13.9519 9.99433 13.9172 9.98403 13.8819 9.98536C13.8466 9.98668 13.8127 9.99957 13.7855 10.022C13.7582 10.0445 13.7391 10.0753 13.731 10.1096L13.4845 10.8466H12.747C12.7258 10.8466 12.7048 10.8507 12.6852 10.8588C12.6656 10.8668 12.6478 10.8787 12.6328 10.8937C12.6177 10.9086 12.6058 10.9264 12.5977 10.946C12.5896 10.9656 12.5854 10.9866 12.5854 11.0078C12.5854 11.031 12.5905 11.054 12.6004 11.0751C12.6102 11.0961 12.6245 11.1148 12.6423 11.1298L12.6403 11.1282ZM12.3252 13.6285H11.578L11.3279 12.8798C11.3173 12.8461 11.2959 12.8168 11.2671 12.7965C11.2382 12.7761 11.2035 12.7658 11.1682 12.7672C11.1329 12.7685 11.099 12.7814 11.0718 12.8038C11.0445 12.8263 11.0254 12.8571 11.0173 12.8914L10.7708 13.6285H10.0323C10.0111 13.6284 9.9901 13.6325 9.97049 13.6406C9.95088 13.6486 9.93306 13.6605 9.91804 13.6755C9.90303 13.6904 9.89111 13.7082 9.88299 13.7278C9.87486 13.7474 9.87067 13.7684 9.87067 13.7896C9.8707 13.8128 9.87581 13.8358 9.88564 13.8569C9.89548 13.8779 9.9098 13.8966 9.9276 13.9116L10.5558 14.3929L10.322 15.1391C10.312 15.16 10.3068 15.1829 10.3068 15.2062C10.3068 15.2274 10.311 15.2483 10.3191 15.2679C10.3272 15.2875 10.3391 15.3053 10.3541 15.3203C10.3692 15.3352 10.387 15.3471 10.4066 15.3552C10.4262 15.3632 10.4472 15.3673 10.4684 15.3673C10.5035 15.3674 10.5377 15.3558 10.5655 15.3342L11.1754 14.8681L11.7635 15.3185C11.786 15.3412 11.8148 15.3568 11.8461 15.3632C11.8775 15.3695 11.9101 15.3665 11.9397 15.3543C11.9693 15.3422 11.9946 15.3215 12.0125 15.295C12.0304 15.2684 12.0399 15.2371 12.04 15.2051C12.0398 15.1864 12.0363 15.1678 12.0298 15.1502L11.793 14.3954L12.4121 13.9187C12.4393 13.8992 12.4597 13.8717 12.4705 13.84C12.4813 13.8083 12.4818 13.7741 12.4721 13.742C12.4624 13.71 12.4429 13.6818 12.4164 13.6615C12.3898 13.6411 12.3576 13.6295 12.3241 13.6285H12.3252ZM10.7561 19.067C10.7787 19.0897 10.8075 19.1052 10.8388 19.1115C10.8702 19.1179 10.9028 19.1148 10.9324 19.1027C10.962 19.0906 10.9874 19.0699 11.0053 19.0434C11.0232 19.0169 11.0329 18.9857 11.0331 18.9537C11.033 18.9349 11.0293 18.9163 11.0224 18.8988L10.7871 18.1425L11.4057 17.6657C11.4263 17.6509 11.443 17.6315 11.4546 17.6089C11.4662 17.5864 11.4722 17.5614 11.4723 17.5361C11.4719 17.4946 11.4556 17.4548 11.4268 17.4249C11.3979 17.395 11.3587 17.3773 11.3172 17.3755H10.5711L10.3205 16.6263C10.3099 16.5926 10.2885 16.5633 10.2596 16.543C10.2308 16.5227 10.196 16.5124 10.1608 16.5137C10.1255 16.515 10.0916 16.5279 10.0644 16.5504C10.0371 16.5728 10.018 16.6036 10.0099 16.638L9.76342 17.3755H9.02489C9.00369 17.3754 8.98269 17.3795 8.96308 17.3876C8.94347 17.3957 8.92565 17.4075 8.91063 17.4225C8.89562 17.4375 8.88371 17.4552 8.87558 17.4748C8.86745 17.4944 8.86326 17.5154 8.86326 17.5366C8.86329 17.5599 8.8684 17.5828 8.87824 17.6039C8.88807 17.625 8.90239 17.6436 8.92019 17.6586L9.54791 18.1425L9.31411 18.8886C9.30411 18.9096 9.2989 18.9325 9.29886 18.9557C9.29888 18.9857 9.30728 19.0151 9.32312 19.0406C9.33896 19.0661 9.3616 19.0867 9.38849 19.1C9.41539 19.1133 9.44547 19.1189 9.47534 19.116C9.50521 19.1131 9.53369 19.102 9.55757 19.0838L10.1675 18.6182L10.7561 19.067ZM12.3252 21.243H11.578L11.3279 20.4943C11.3173 20.4606 11.2959 20.4313 11.2671 20.411C11.2382 20.3907 11.2035 20.3804 11.1682 20.3817C11.1329 20.383 11.099 20.3959 11.0718 20.4184C11.0445 20.4408 11.0254 20.4716 11.0173 20.506L10.7703 21.243H10.0323C9.99934 21.2428 9.96713 21.2528 9.94004 21.2716C9.91294 21.2903 9.89227 21.317 9.88084 21.3479C9.86941 21.3788 9.86776 21.4125 9.87613 21.4444C9.88449 21.4762 9.90246 21.5048 9.9276 21.5261L10.5553 22.0054L10.3215 22.7516C10.3119 22.7726 10.3071 22.7955 10.3073 22.8186C10.3073 22.8487 10.3157 22.8781 10.3315 22.9035C10.3474 22.929 10.37 22.9496 10.3969 22.9629C10.4238 22.9762 10.4539 22.9818 10.4838 22.9789C10.5136 22.9761 10.5421 22.9649 10.566 22.9467L11.1759 22.4806L11.764 22.931C11.7787 22.9468 11.7965 22.9594 11.8162 22.9682C11.836 22.9769 11.8573 22.9815 11.8789 22.9818C11.9003 22.9819 11.9214 22.9777 11.9412 22.9695C11.9609 22.9613 11.9788 22.9493 11.9939 22.9341C12.0089 22.9189 12.0208 22.9009 12.0288 22.881C12.0368 22.8612 12.0408 22.84 12.0405 22.8186C12.0403 22.7997 12.0369 22.781 12.0303 22.7632L11.7935 22.0084L12.4126 21.5312C12.439 21.5115 12.4586 21.4841 12.4689 21.4529C12.4792 21.4216 12.4796 21.3879 12.47 21.3564C12.4605 21.3249 12.4414 21.2971 12.4155 21.2768C12.3896 21.2565 12.358 21.2447 12.3252 21.243ZM15.078 23.9877H14.3313L14.0813 23.239C14.0706 23.2053 14.0493 23.1761 14.0204 23.1557C13.9915 23.1354 13.9568 23.1251 13.9215 23.1264C13.8862 23.1277 13.8524 23.1406 13.8251 23.1631C13.7979 23.1855 13.7787 23.2163 13.7707 23.2507L13.5232 23.9877H12.7851C12.7639 23.9876 12.7429 23.9917 12.7233 23.9998C12.7037 24.0079 12.6859 24.0197 12.6709 24.0347C12.6559 24.0497 12.644 24.0675 12.6358 24.087C12.6277 24.1066 12.6235 24.1276 12.6235 24.1488C12.6235 24.1721 12.6287 24.195 12.6385 24.2161C12.6483 24.2372 12.6626 24.2558 12.6804 24.2708L13.3061 24.7501L13.0723 25.4963C13.0623 25.5172 13.0571 25.5401 13.0571 25.5633C13.0572 25.5934 13.0657 25.6228 13.0816 25.6482C13.0975 25.6737 13.1202 25.6942 13.1471 25.7075C13.174 25.7208 13.2041 25.7263 13.234 25.7235C13.2639 25.7207 13.2924 25.7096 13.3163 25.6914L13.9262 25.2253L14.5143 25.6757C14.5368 25.6984 14.5656 25.714 14.597 25.7204C14.6283 25.7267 14.6609 25.7237 14.6905 25.7115C14.7201 25.6994 14.7454 25.6787 14.7633 25.6522C14.7812 25.6256 14.7907 25.5943 14.7908 25.5623C14.7906 25.5436 14.7871 25.525 14.7806 25.5074L14.5438 24.7526L15.1629 24.2759C15.1901 24.2564 15.2105 24.2289 15.2213 24.1972C15.2321 24.1655 15.2326 24.1313 15.2229 24.0992C15.2132 24.0672 15.1937 24.039 15.1672 24.0187C15.1406 23.9983 15.1084 23.9867 15.0749 23.9857L15.078 23.9877ZM18.914 24.9824H18.1678L17.9172 24.2332C17.9066 24.1995 17.8852 24.1702 17.8564 24.1499C17.8275 24.1296 17.7928 24.1193 17.7575 24.1206C17.7222 24.1219 17.6883 24.1348 17.6611 24.1573C17.6338 24.1797 17.6147 24.2105 17.6067 24.2449L17.3602 24.9824H16.6216C16.6004 24.9823 16.5794 24.9864 16.5598 24.9945C16.5402 25.0026 16.5224 25.0144 16.5074 25.0294C16.4924 25.0444 16.4804 25.0622 16.4723 25.0817C16.4642 25.1013 16.46 25.1223 16.46 25.1435C16.46 25.1668 16.4651 25.1897 16.475 25.2108C16.4848 25.2319 16.4991 25.2505 16.5169 25.2655L17.1452 25.7468L16.9114 26.493C16.9014 26.5139 16.8961 26.5369 16.8961 26.5601C16.8961 26.5901 16.9045 26.6195 16.9204 26.645C16.9362 26.6705 16.9588 26.691 16.9857 26.7044C17.0126 26.7177 17.0427 26.7232 17.0726 26.7204C17.1025 26.7175 17.1309 26.7063 17.1548 26.6882L17.7647 26.2226L18.3528 26.6729C18.3753 26.6957 18.4041 26.7112 18.4355 26.7176C18.4668 26.724 18.4994 26.7209 18.529 26.7088C18.5586 26.6966 18.584 26.676 18.6018 26.6494C18.6197 26.6228 18.6293 26.5916 18.6293 26.5596C18.6292 26.5408 18.6256 26.5222 18.6187 26.5047L18.3818 25.7499L19.0004 25.2731C19.0274 25.2536 19.0477 25.226 19.0583 25.1944C19.0689 25.1628 19.0694 25.1286 19.0596 25.0967C19.0499 25.0648 19.0304 25.0367 19.0039 25.0164C18.9775 24.9961 18.9453 24.9845 18.9119 24.9834L18.914 24.9824ZM22.6752 23.9785H21.9281L21.6775 23.2253C21.6667 23.1917 21.6452 23.1626 21.6164 23.1423C21.5875 23.1221 21.5528 23.1118 21.5175 23.1132C21.4823 23.1145 21.4484 23.1273 21.4211 23.1496C21.3939 23.172 21.3746 23.2027 21.3664 23.237L21.1199 23.9745H20.3819C20.3607 23.9744 20.3397 23.9785 20.3201 23.9866C20.3005 23.9947 20.2826 24.0065 20.2676 24.0215C20.2526 24.0364 20.2407 24.0542 20.2326 24.0738C20.2244 24.0934 20.2202 24.1144 20.2202 24.1356C20.2203 24.1588 20.2254 24.1818 20.2352 24.2029C20.2451 24.224 20.2594 24.2426 20.2772 24.2576L20.9054 24.7389L20.6716 25.4851C20.6616 25.506 20.6564 25.5289 20.6563 25.5522C20.6564 25.5822 20.6648 25.6116 20.6806 25.6371C20.6964 25.6626 20.7191 25.6831 20.746 25.6964C20.7729 25.7098 20.803 25.7153 20.8328 25.7124C20.8627 25.7096 20.8912 25.6984 20.9151 25.6803L21.525 25.2147L22.1126 25.665C22.1352 25.6877 22.1639 25.7032 22.1953 25.7095C22.2267 25.7158 22.2592 25.7128 22.2888 25.7006C22.3185 25.6885 22.3438 25.6679 22.3618 25.6414C22.3797 25.6149 22.3894 25.5837 22.3896 25.5517C22.3894 25.5329 22.3859 25.5143 22.3794 25.4968L22.1426 24.742L22.7611 24.2652C22.7882 24.2456 22.8084 24.2181 22.819 24.1865C22.8297 24.1548 22.8301 24.1207 22.8204 24.0888C22.8106 24.0568 22.7912 24.0288 22.7647 24.0085C22.7382 23.9881 22.706 23.9766 22.6727 23.9755L22.6752 23.9785ZM19.3546 17.1422H19.347V16.3056C19.3458 15.9004 19.1839 15.5122 18.8967 15.2263C18.6096 14.9404 18.2208 14.7802 17.8156 14.7807C17.4103 14.78 17.0213 14.9403 16.7341 15.2262C16.4469 15.5121 16.2848 15.9003 16.2836 16.3056V17.1427C16.1226 17.1464 15.9694 17.2129 15.8567 17.328C15.7439 17.4431 15.6807 17.5976 15.6803 17.7587V20.4084C15.6804 20.4895 15.6964 20.5698 15.7276 20.6447C15.7587 20.7196 15.8043 20.7877 15.8618 20.8449C15.9192 20.9022 15.9874 20.9476 16.0624 20.9784C16.1374 21.0093 16.2178 21.0251 16.2989 21.0249H19.3546C19.4357 21.0251 19.5161 21.0092 19.5911 20.9783C19.666 20.9474 19.7342 20.902 19.7916 20.8448C19.8491 20.7875 19.8947 20.7195 19.9258 20.6446C19.957 20.5698 19.9731 20.4895 19.9732 20.4084V17.7587C19.9731 17.6776 19.957 17.5973 19.9258 17.5225C19.8947 17.4476 19.8491 17.3796 19.7916 17.3223C19.7342 17.2651 19.666 17.2197 19.5911 17.1888C19.5161 17.1579 19.4357 17.1421 19.3546 17.1422ZM18.1165 19.3151V19.8046C18.1133 19.8794 18.0814 19.9501 18.0274 20.0019C17.9734 20.0537 17.9014 20.0826 17.8265 20.0826C17.7516 20.0826 17.6797 20.0537 17.6256 20.0019C17.5716 19.9501 17.5397 19.8794 17.5365 19.8046V19.3151C17.4072 19.2498 17.3036 19.1429 17.2425 19.0115C17.1814 18.8801 17.1665 18.732 17.2 18.591C17.2335 18.4501 17.3136 18.3246 17.4273 18.2347C17.541 18.1449 17.6816 18.0961 17.8265 18.0961C17.9714 18.0961 18.112 18.1449 18.2257 18.2347C18.3394 18.3246 18.4195 18.4501 18.453 18.591C18.4865 18.732 18.4716 18.8801 18.4105 19.0115C18.3494 19.1429 18.2458 19.2498 18.1165 19.3151ZM18.6893 17.1422H16.9408V16.239C16.9412 16.0075 17.0336 15.7856 17.1975 15.6221C17.3614 15.4587 17.5836 15.367 17.8151 15.3673C17.9297 15.3671 18.0432 15.3896 18.1491 15.4333C18.2551 15.4771 18.3513 15.5412 18.4325 15.6222C18.5136 15.7031 18.578 15.7992 18.622 15.9051C18.666 16.0109 18.6887 16.1244 18.6888 16.239L18.6893 17.1422Z" fill="#432626"/>
</g>
<defs>
<clipPath id="clip0_7453_2187">
<rect width="36" height="36" fill="white"/>
</clipPath>
</defs>
</svg>
