<svg width="41" height="40" viewBox="0 0 41 40" fill="none" xmlns="http://www.w3.org/2000/svg">
    <g clip-path="url(#clip0_619_12732)">
        <path d="M21.8036 23.75V34.1967C21.8036 35.4043 21.3301 36.5624 20.4872 37.4164C19.6444 38.2703 18.5012 38.75 17.3092 38.75H6.55854C5.3664 38.75 4.22306 38.2703 3.37994 37.4165C2.53682 36.5626 2.06294 35.4044 2.0625 34.1967V8.305C2.06294 7.09707 2.53676 5.93875 3.37984 5.08462C4.22292 4.23048 5.36625 3.75044 6.55854 3.75H10.6992" stroke="currentColor" stroke-width="1.5" stroke-linecap="round" stroke-linejoin="round"/>
        <path d="M2.0625 31.25H21.8036" stroke="currentColor" stroke-width="1.5" stroke-linecap="round" stroke-linejoin="round"/>
        <path d="M34.1401 1.25H20.5681C19.2592 1.25 18.0039 1.77678 17.0783 2.71447C16.1528 3.65215 15.6328 4.92392 15.6328 6.25V13.75C15.6328 15.0761 16.1528 16.3479 17.0783 17.2855C18.0039 18.2232 19.2592 18.75 20.5681 18.75H26.7372V25L32.9063 18.75H34.1401C35.449 18.75 36.7043 18.2232 37.6299 17.2855C38.5554 16.3479 39.0754 15.0761 39.0754 13.75V6.25C39.0754 4.92392 38.5554 3.65215 37.6299 2.71447C36.7043 1.77678 35.449 1.25 34.1401 1.25Z" stroke="currentColor" stroke-width="1.5" stroke-linecap="round" stroke-linejoin="round"/>
        <path d="M21.1872 9.375C21.0652 9.375 20.9459 9.41166 20.8445 9.48033C20.743 9.54901 20.664 9.64662 20.6173 9.76082C20.5706 9.87503 20.5584 10.0007 20.5822 10.1219C20.606 10.2432 20.6647 10.3545 20.751 10.4419C20.8373 10.5293 20.9472 10.5889 21.0669 10.613C21.1865 10.6371 21.3106 10.6247 21.4233 10.5774C21.536 10.5301 21.6324 10.45 21.7002 10.3472C21.7679 10.2445 21.8041 10.1236 21.8041 10C21.8041 9.83424 21.7391 9.67527 21.6234 9.55806C21.5077 9.44085 21.3508 9.375 21.1872 9.375Z" stroke="currentColor" stroke-width="1.5" stroke-linecap="round" stroke-linejoin="round"/>
        <path d="M27.3552 9.375C27.2332 9.375 27.1139 9.41166 27.0125 9.48033C26.911 9.54901 26.8319 9.64662 26.7852 9.76082C26.7385 9.87503 26.7263 10.0007 26.7501 10.1219C26.7739 10.2432 26.8327 10.3545 26.919 10.4419C27.0052 10.5293 27.1152 10.5889 27.2348 10.613C27.3545 10.6371 27.4785 10.6247 27.5913 10.5774C27.704 10.5301 27.8003 10.45 27.8681 10.3472C27.9359 10.2445 27.9721 10.1236 27.9721 10C27.9721 9.83424 27.9071 9.67527 27.7914 9.55806C27.6757 9.44085 27.5188 9.375 27.3552 9.375Z" stroke="currentColor" stroke-width="1.5" stroke-linecap="round" stroke-linejoin="round"/>
        <path d="M33.5232 9.375C33.4011 9.375 33.2819 9.41166 33.1804 9.48033C33.079 9.54901 32.9999 9.64662 32.9532 9.76082C32.9065 9.87503 32.8943 10.0007 32.9181 10.1219C32.9419 10.2432 33.0007 10.3545 33.0869 10.4419C33.1732 10.5293 33.2831 10.5889 33.4028 10.613C33.5225 10.6371 33.6465 10.6247 33.7592 10.5774C33.872 10.5301 33.9683 10.45 34.0361 10.3472C34.1039 10.2445 34.1401 10.1236 34.1401 10C34.1401 9.83424 34.0751 9.67527 33.9594 9.55806C33.8437 9.44085 33.6868 9.375 33.5232 9.375Z" stroke="currentColor" stroke-width="1.5" stroke-linecap="round" stroke-linejoin="round"/>
    </g>
    <defs>
        <clipPath id="clip0_619_12732">
            <rect width="39.4822" height="40" fill="white" transform="translate(0.828125)"/>
        </clipPath>
    </defs>
</svg>
