<svg id="Layer_1" data-name="Layer 1" xmlns="http://www.w3.org/2000/svg" viewBox="0 0 1080 1080"><defs><style>.cls-1{fill:#fff;}</style></defs><path class="cls-1" d="M518.74,878A349.65,349.65,0,0,1,229.92,668.25,7.91,7.91,0,0,1,244.45,662,333.85,333.85,0,0,0,520.21,862.32a7.9,7.9,0,0,1-.72,15.76Zm67.69-.25a7.86,7.86,0,0,1-7.85-7.1,7.89,7.89,0,0,1,7-8.66A333.8,333.8,0,0,0,771.74,278.82a7.89,7.89,0,0,1-.74-11.14,7.93,7.93,0,0,1,11.17-.73,349.65,349.65,0,0,1-194.93,610.8A7.32,7.32,0,0,1,586.43,877.79Zm-35-85.95c-144.58,0-262.2-117.51-262.2-261.94q0-5.67.24-11.28a7.91,7.91,0,0,1,15.8.66c-.15,3.53-.22,7.06-.22,10.62C305.08,665.62,415.6,776,551.46,776S797.85,665.62,797.85,529.9a246.08,246.08,0,0,0-31.21-120,7.91,7.91,0,0,1,13.81-7.71A261.93,261.93,0,0,1,813.66,529.9C813.66,674.33,696,791.84,551.46,791.84Zm0-41.23a218.86,218.86,0,0,1-136.52-47.16A7.9,7.9,0,0,1,424.72,691a205.3,205.3,0,0,0,285-30.79,7.91,7.91,0,0,1,12.2,10.06A220.46,220.46,0,0,1,551.46,750.61Zm174.22,26.91a301.41,301.41,0,0,1-225.61,51,7.9,7.9,0,0,1-6.46-9.12,7.89,7.89,0,0,1,9.12-6.45A287.27,287.27,0,0,0,836.39,563.38a7.9,7.9,0,0,1,15.7,1.84A303.25,303.25,0,0,1,725.68,777.52Zm-275,34.63a7.89,7.89,0,0,1-7.37.93A302.79,302.79,0,0,1,335.09,317.49a7.82,7.82,0,0,1,1.08-.93,7.9,7.9,0,0,1,10.17,12A287,287,0,0,0,448.88,798.32a7.89,7.89,0,0,1,1.76,13.83ZM846.73,487.4a7.64,7.64,0,0,1-3.24,1.33,7.91,7.91,0,0,1-9.1-6.48A287.48,287.48,0,0,0,409.92,280a7.9,7.9,0,0,1-8.44-13.33,7.57,7.57,0,0,1,.67-.42A303.22,303.22,0,0,1,850,479.63,7.91,7.91,0,0,1,846.73,487.4ZM374.82,656.79a7.92,7.92,0,0,1-6.56-3.48,220.63,220.63,0,0,1,42.67-293.72A7.9,7.9,0,0,1,421,371.77a204.85,204.85,0,0,0-39.63,272.7,7.89,7.89,0,0,1-2.12,11A7.86,7.86,0,0,1,374.82,656.79Zm373.42-37.35a7.65,7.65,0,0,1-3-.61A7.88,7.88,0,0,1,741,608.51a203.63,203.63,0,0,0,15.63-78.61c0-113-92-204.92-205.12-204.92a204,204,0,0,0-81.55,16.83,7.76,7.76,0,0,1-3.14.66,7.9,7.9,0,0,1-3.16-15.15,219.75,219.75,0,0,1,87.85-18.14c121.82,0,220.93,99,220.93,220.72a219.38,219.38,0,0,1-16.84,84.67A7.9,7.9,0,0,1,748.24,619.44ZM209.36,537.8a7.91,7.91,0,0,1-7.9-7.9c0-192.8,157-349.65,350-349.65a350.94,350.94,0,0,1,165,41.23,7.9,7.9,0,0,1-3.74,14.86,7.77,7.77,0,0,1-3.73-.94,335.08,335.08,0,0,0-157.56-39.35c-184.27,0-334.19,149.76-334.19,333.85A7.91,7.91,0,0,1,209.36,537.8ZM318.73,435.25a8,8,0,0,1-3.19-.67,7.9,7.9,0,0,1-4-10.42,262.39,262.39,0,0,1,425.35-79.48,7.9,7.9,0,0,1-11.17,11.17A246.59,246.59,0,0,0,326,430.55,7.93,7.93,0,0,1,318.73,435.25ZM747.5,254.51a7.58,7.58,0,1,0-7.94-7.22A7.58,7.58,0,0,0,747.5,254.51Zm7.41,129.67A7.58,7.58,0,1,0,747,377,7.59,7.59,0,0,0,754.91,384.18Zm92.71,146.34a7.59,7.59,0,1,0-7.94-7.22A7.59,7.59,0,0,0,847.62,530.52Zm-113.1,116.7a7.59,7.59,0,1,0-7.94-7.23A7.6,7.6,0,0,0,734.52,647.22ZM554.66,878.76a7.58,7.58,0,1,0-7.94-7.22A7.58,7.58,0,0,0,554.66,878.76Zm-83.44-57.42a7.59,7.59,0,1,0-7.94-7.22A7.59,7.59,0,0,0,471.22,821.34Zm-76-140.78a7.59,7.59,0,1,0-7.94-7.22A7.6,7.6,0,0,0,395.2,680.56Zm-178-70.39a7.59,7.59,0,1,0-7.94-7.22A7.59,7.59,0,0,0,217.19,610.17Zm85.3-131.52a7.58,7.58,0,1,0-7.94-7.22A7.6,7.6,0,0,0,302.49,478.65ZM439.7,354.54a7.58,7.58,0,1,0-7.94-7.22A7.59,7.59,0,0,0,439.7,354.54Zm-70.46-53.72a7.58,7.58,0,1,0-7.94-7.22A7.58,7.58,0,0,0,369.24,300.82Zm331,294v0H685.53L680.6,580h0a3.17,3.17,0,0,0-6.11.23h0l-4.85,14.5H655.11a3.18,3.18,0,0,0-3.19,3.17,3.15,3.15,0,0,0,1.13,2.4h0l12.35,9.47-4.6,14.68a3.28,3.28,0,0,0-.3,1.33,3.18,3.18,0,0,0,5.1,2.52h0l12-9.17,11.57,8.86a3.18,3.18,0,0,0,5.44-2.22,3,3,0,0,0-.2-1.09h0l-4.65-14.85L702,600.5h0a3.16,3.16,0,0,0-1.74-5.71Zm22.34-70.32a3.15,3.15,0,0,0-1.74-5.71v0H706.13L701.2,504h0a3.18,3.18,0,0,0-6.12.23h0l-4.85,14.5H675.71a3.16,3.16,0,0,0-2.06,5.57h0L686,533.79l-4.6,14.68a3.12,3.12,0,0,0-.3,1.33,3.17,3.17,0,0,0,5.09,2.52h0l12-9.17L709.77,552a3.19,3.19,0,0,0,5.45-2.23,3.06,3.06,0,0,0-.21-1.09h0l-4.66-14.85,12.17-9.39ZM653,450.57,665.39,460l-4.6,14.68a3.28,3.28,0,0,0-.3,1.33,3.18,3.18,0,0,0,5.1,2.52h0l12-9.17,11.57,8.86a3.18,3.18,0,0,0,5.44-2.22,3,3,0,0,0-.2-1.09h0l-4.65-14.85L702,450.72h0a3.16,3.16,0,0,0-1.74-5.71v0H685.53l-4.93-14.73h0a3.17,3.17,0,0,0-6.11.23h0L669.62,445H655.11a3.17,3.17,0,0,0-3.19,3.17,3.11,3.11,0,0,0,1.13,2.39Zm-7.73-60.31s0,0,0,0H630.63l-4.93-14.73h0a3.17,3.17,0,0,0-6.12.22h0l-4.85,14.51H600.21A3.17,3.17,0,0,0,597,393.4a3.14,3.14,0,0,0,1.12,2.4v0l12.36,9.47L605.9,420a3.08,3.08,0,0,0-.3,1.32,3.17,3.17,0,0,0,5.09,2.52h0l12-9.16,11.56,8.86a3.19,3.19,0,0,0,5.45-2.23,3.23,3.23,0,0,0-.2-1.08h0l-4.66-14.85L647.05,396h0a3.15,3.15,0,0,0-1.74-5.71Zm-122-14.05,12.36,9.47-4.6,14.68a3.12,3.12,0,0,0-.3,1.33,3.18,3.18,0,0,0,3.18,3.17,3.22,3.22,0,0,0,1.92-.65h0l12-9.17,11.57,8.86a3.18,3.18,0,0,0,5.44-2.22,3.24,3.24,0,0,0-.2-1.09h0l-4.66-14.85,12.18-9.39h0a3.15,3.15,0,0,0-1.73-5.71v0H555.81l-4.92-14.73h0a3.17,3.17,0,0,0-6.11.23h0l-4.85,14.5H525.39a3.16,3.16,0,0,0-2.06,5.57ZM447.9,396l12.36,9.47-4.6,14.68a3.08,3.08,0,0,0-.3,1.32,3.17,3.17,0,0,0,3.18,3.17,3.13,3.13,0,0,0,1.92-.65v0l12-9.17L484,423.71a3.18,3.18,0,0,0,5.44-2.23,3.23,3.23,0,0,0-.2-1.08h0l-4.66-14.85,12.18-9.38h0a3.15,3.15,0,0,0-1.73-5.71v0H480.39l-4.92-14.73h0a3.17,3.17,0,0,0-6.11.23h0l-4.85,14.5H450a3.17,3.17,0,0,0-3.18,3.17,3.14,3.14,0,0,0,1.12,2.4Zm-6.2,49.19v0H427l-4.92-14.73h0a3.17,3.17,0,0,0-6.11.23h0l-4.85,14.5H396.59a3.17,3.17,0,0,0-3.18,3.17,3.14,3.14,0,0,0,1.12,2.4v0l12.36,9.47-4.6,14.68a3.08,3.08,0,0,0-.3,1.32,3.17,3.17,0,0,0,3.18,3.17,3.1,3.1,0,0,0,1.91-.65l0,0,12-9.17,11.57,8.86a3.18,3.18,0,0,0,5.44-2.23,3.23,3.23,0,0,0-.2-1.08h0l-4.66-14.85,12.18-9.38h0a3.15,3.15,0,0,0-1.73-5.71Zm-30.87,107a3.19,3.19,0,0,0,5.45-2.23,3,3,0,0,0-.21-1.08h0L411.44,534l12.17-9.38h0a3.14,3.14,0,0,0,1.31-2.55,3.19,3.19,0,0,0-3.05-3.16H407.19l-4.93-14.74h0a3.17,3.17,0,0,0-6.11.23h0l-4.85,14.51H376.77a3.17,3.17,0,0,0-3.18,3.17,3.14,3.14,0,0,0,1.12,2.4v0L387.06,534l-4.6,14.68a3.08,3.08,0,0,0-.3,1.32,3.17,3.17,0,0,0,5.09,2.52h0l12-9.16ZM441.7,595v0H427l-4.92-14.73h0a3.17,3.17,0,0,0-6.11.23h0L411.11,595H396.59a3.16,3.16,0,0,0-2.06,5.57h0L406.88,610l-4.6,14.68A3.12,3.12,0,0,0,402,626a3.17,3.17,0,0,0,5.09,2.52h0l12-9.17,11.57,8.86a3.14,3.14,0,0,0,2.26,1A3.17,3.17,0,0,0,436.1,626a3.24,3.24,0,0,0-.2-1.09h0l-4.66-14.85,12.18-9.39h0A3.15,3.15,0,0,0,441.7,595Zm54.16,54v0H481.17l-4.92-14.73h0a3.17,3.17,0,0,0-6.11.23h0L465.27,649H450.75a3.17,3.17,0,0,0-3.18,3.17,3.14,3.14,0,0,0,1.12,2.4v0L461,664l-4.6,14.68a3.08,3.08,0,0,0-.3,1.32,3.18,3.18,0,0,0,5.1,2.52v0l12-9.17,11.57,8.86a3.18,3.18,0,0,0,5.44-2.23,3.23,3.23,0,0,0-.2-1.08h0l-4.66-14.85,12.18-9.38h0a3.15,3.15,0,0,0-1.73-5.71Zm75.47,19.57v0H556.65l-4.93-14.74h0a3.17,3.17,0,0,0-6.11.23h0l-4.85,14.51H526.23a3.17,3.17,0,0,0-3.18,3.17,3.14,3.14,0,0,0,1.12,2.4v0l12.36,9.47-4.6,14.68a3.08,3.08,0,0,0-.3,1.32,3.17,3.17,0,0,0,5.09,2.52h0l12-9.16,11.57,8.86a3.18,3.18,0,0,0,5.44-2.23,3,3,0,0,0-.21-1.08h0l-4.66-14.85,12.17-9.38h0a3.15,3.15,0,0,0-1.74-5.7Zm74-19.75s0,0,0,0H630.63L625.7,634h0a3.18,3.18,0,0,0-6.12.23h0l-4.85,14.51H600.21a3.17,3.17,0,0,0-3.18,3.17,3.14,3.14,0,0,0,1.12,2.4v0l12.36,9.47-4.6,14.68a3.08,3.08,0,0,0-.3,1.32,3.17,3.17,0,0,0,5.09,2.52h0l12-9.16,11.56,8.86a3.19,3.19,0,0,0,5.45-2.23,3.23,3.23,0,0,0-.2-1.08h0l-4.66-14.85,12.17-9.38h0a3.15,3.15,0,0,0-1.74-5.7ZM580,514.32h-.15V497.86a30.09,30.09,0,0,0-30.13-30h0a30.09,30.09,0,0,0-30.14,30v16.47a12.15,12.15,0,0,0-11.87,12.12v52.13a12.14,12.14,0,0,0,12.17,12.13H580a12.15,12.15,0,0,0,12.17-12.13V526.45A12.15,12.15,0,0,0,580,514.32Zm-24.36,42.75v9.63a5.71,5.71,0,0,1-11.41,0v-9.63a12.67,12.67,0,1,1,11.41,0Zm11.27-42.75H532.51V496.55a17.18,17.18,0,0,1,17.2-17.15h0a17.17,17.17,0,0,1,17.19,17.15Z"/></svg>