<svg width="40" height="40" viewBox="0 0 40 40" fill="none" xmlns="http://www.w3.org/2000/svg">
    <path d="M16.25 8.75H3.75C3.08696 8.75 2.45107 9.01339 1.98223 9.48223C1.51339 9.95107 1.25 10.587 1.25 11.25V33.75C1.25 34.413 1.51339 35.0489 1.98223 35.5178C2.45107 35.9866 3.08696 36.25 3.75 36.25H36.25C36.913 36.25 37.5489 35.9866 38.0178 35.5178C38.4866 35.0489 38.75 34.413 38.75 33.75V11.25C38.75 10.587 38.4866 9.95107 38.0178 9.48223C37.5489 9.01339 36.913 8.75 36.25 8.75H23.75M23.75 21.25H31.25M23.75 26.25H33.75M23.75 7.5C23.75 6.50544 23.3549 5.55161 22.6516 4.84835C21.9484 4.14509 20.9946 3.75 20 3.75C19.0054 3.75 18.0516 4.14509 17.3483 4.84835C16.6451 5.55161 16.25 6.50544 16.25 7.5V12.5C16.25 12.8315 16.3817 13.1495 16.6161 13.3839C16.8505 13.6183 17.1685 13.75 17.5 13.75H22.5C22.8315 13.75 23.1495 13.6183 23.3839 13.3839C23.6183 13.1495 23.75 12.8315 23.75 12.5V7.5ZM18.125 23.125C18.125 25.5412 16.1662 27.5 13.75 27.5C11.3338 27.5 9.375 25.5412 9.375 23.125C9.375 20.7088 11.3338 18.75 13.75 18.75C16.1662 18.75 18.125 20.7088 18.125 23.125ZM6.25 36.25C6.25 34.2609 7.04018 32.3532 8.4467 30.9467C9.85322 29.5402 11.7609 28.75 13.75 28.75C15.7391 28.75 17.6468 29.5402 19.0533 30.9467C20.4598 32.3532 21.25 34.2609 21.25 36.25H6.25Z"
          stroke="currentColor" stroke-width="1.5" stroke-linecap="round" stroke-linejoin="round"/>
</svg>
