<svg width="36" height="36" viewBox="0 0 36 36" fill="none" xmlns="http://www.w3.org/2000/svg">
<g clip-path="url(#clip0_7664_7188)">
<path d="M18 36C16.1385 36 14.625 34.4865 14.625 32.625C14.625 30.7635 16.1385 29.25 18 29.25H20.25C21.69 29.25 22.962 30.1725 23.4315 31.5H25.875C27.7365 31.5 29.25 29.9865 29.25 28.125C28.0095 28.125 27 27.1155 27 25.875V14.625C27 13.404 27.9795 12.4065 29.193 12.375C28.6275 6.6525 23.82 2.25 18 2.25C12.18 2.25 7.3725 6.6525 6.807 12.375C8.0205 12.4065 9 13.404 9 14.625V25.875C9 27.1155 7.9905 28.125 6.75 28.125H5.625C2.523 28.125 0 25.602 0 22.5V18C0 15.285 1.9215 12.9915 4.5405 12.4815C5.064 5.445 10.8885 0 18 0C25.1115 0 30.9375 5.445 31.4595 12.4815C34.0785 12.9915 36 15.285 36 18V22.5C36 25.1985 34.098 27.4845 31.5 28.0095V28.125C31.5 31.227 28.977 33.75 25.875 33.75H23.4315C22.962 35.0775 21.69 36 20.25 36H18ZM18 31.5C17.379 31.5 16.875 32.004 16.875 32.625C16.875 33.246 17.379 33.75 18 33.75H20.25C20.871 33.75 21.375 33.246 21.375 32.625C21.375 32.004 20.871 31.5 20.25 31.5H18ZM29.25 25.875H30.375C32.2365 25.875 33.75 24.3615 33.75 22.5V18C33.75 16.1385 32.2365 14.625 30.375 14.625H29.25V25.875ZM5.625 14.625C3.7635 14.625 2.25 16.1385 2.25 18V22.5C2.25 24.3615 3.7635 25.875 5.625 25.875H6.75V14.625H5.625Z" fill="#5E6873"/>
<path d="M18 26.0421C16.059 26.0421 14.1915 25.3146 12.7425 23.9946C12.5205 23.7921 12.39 23.5161 12.3765 23.2146C12.363 22.9131 12.4665 22.6266 12.669 22.4046C12.882 22.1706 13.185 22.0371 13.5 22.0371C13.7805 22.0371 14.0505 22.1421 14.2575 22.3311C15.2895 23.2716 16.62 23.7891 18 23.7891C19.38 23.7891 20.7105 23.2716 21.7425 22.3311C21.9495 22.1421 22.2195 22.0371 22.5 22.0371C22.815 22.0371 23.1195 22.1706 23.331 22.4046C23.5335 22.6266 23.637 22.9146 23.6235 23.2146C23.61 23.5146 23.4795 23.7921 23.2575 23.9946C21.8085 25.3146 19.941 26.0421 18 26.0421Z" fill="#5E6873"/>
<path d="M13.5 18.0696C12.879 18.0696 12.375 17.5656 12.375 16.9446V14.9766C12.375 14.3556 12.879 13.8516 13.5 13.8516C14.121 13.8516 14.625 14.3556 14.625 14.9766V16.9446C14.625 17.5656 14.121 18.0696 13.5 18.0696Z" fill="#5E6873"/>
<path d="M22.5 18.0696C21.879 18.0696 21.375 17.5656 21.375 16.9446V14.9766C21.375 14.3556 21.879 13.8516 22.5 13.8516C23.121 13.8516 23.625 14.3556 23.625 14.9766V16.9446C23.625 17.5656 23.121 18.0696 22.5 18.0696Z" fill="#5E6873"/>
</g>
<defs>
<clipPath id="clip0_7664_7188">
<rect width="36" height="36" fill="white"/>
</clipPath>
</defs>
</svg>
