<svg width="41" height="36" viewBox="0 0 41 36" fill="none" xmlns="http://www.w3.org/2000/svg">
<g clip-path="url(#clip0_7453_2175)">
<path d="M0 2.66835V33.3317C0 34.0393 0.282246 34.718 0.784647 35.2185C1.28705 35.7189 1.96845 36 2.67895 36H21.0726C34.9724 36 41 28.2458 41 17.9646C41 7.72353 34.9724 0 21.0726 0H2.67895C1.96845 0 1.28705 0.281129 0.784647 0.781541C0.282246 1.28195 0 1.96066 0 2.66835Z" fill="white"/>
<path d="M21.0682 33.5514H5.07082C4.38895 33.5507 3.73522 33.2806 3.25307 32.8003C2.77092 32.3201 2.49973 31.6689 2.49902 30.9898V5.01474C2.49973 4.33557 2.77092 3.68443 3.25307 3.20418C3.73522 2.72394 4.38895 2.45383 5.07082 2.45312H21.0682C36.2404 2.45312 38.5068 12.1726 38.5068 17.9669C38.5068 28.0199 32.3131 33.5514 21.0682 33.5514ZM5.07082 3.307C4.61608 3.30735 4.18005 3.48734 3.85838 3.80749C3.53671 4.12764 3.35566 4.5618 3.35495 5.01474V30.9898C3.35566 31.4427 3.53671 31.8769 3.85838 32.197C4.18005 32.5172 4.61608 32.6971 5.07082 32.6975H21.0682C31.7599 32.6975 37.6495 27.4662 37.6495 17.9669C37.6495 5.21219 27.2606 3.307 21.0682 3.307H5.07082Z" fill="black"/>
<path d="M12.3088 7.52805V30.1783H22.2076C31.2008 30.1783 35.1 25.1165 35.1 17.976C35.1 11.1357 31.2008 5.82031 22.2076 5.82031H14.0234C13.5686 5.82031 13.1325 6.00023 12.811 6.3205C12.4895 6.64076 12.3088 7.07513 12.3088 7.52805Z" fill="#B2B6BE"/>
<path d="M22.5342 14.9238L24.8019 18.5541H24.8167V14.9238H25.9351V20.3339H24.7403L22.4806 16.7116H22.4659V20.3339H21.3474V14.9238H22.5342Z" fill="white"/>
<path d="M20.2884 14.9238H19.0936V20.3339H20.2884V14.9238Z" fill="white"/>
<path d="M18.0757 16.4249C17.965 16.1131 17.7882 15.8287 17.5573 15.591C17.337 15.3678 17.0692 15.1968 16.7737 15.0907C16.4607 14.9777 16.1301 14.9212 15.7972 14.9239H13.4531V20.334H15.7972C16.1692 20.3426 16.5387 20.2716 16.8808 20.1259C17.1769 19.9949 17.4397 19.7993 17.6497 19.5535C17.8606 19.3002 18.017 19.0063 18.1091 18.6903C18.2139 18.336 18.2654 17.9682 18.2618 17.5989C18.2696 17.1997 18.2066 16.8023 18.0757 16.4249ZM16.9532 18.4702C16.8887 18.6578 16.7851 18.8296 16.6491 18.9745C16.5282 19.0992 16.3795 19.1938 16.2151 19.2506C16.0536 19.3066 15.8838 19.335 15.7128 19.3347H14.6412V15.9245H15.4931C15.7463 15.9174 15.9983 15.9595 16.2352 16.0486C16.425 16.125 16.5916 16.2491 16.7188 16.4089C16.8477 16.5757 16.939 16.7681 16.9867 16.9732C17.0416 17.2157 17.0681 17.4638 17.0657 17.7123C17.0728 17.9695 17.0347 18.226 16.9532 18.4702Z" fill="white"/>
<path d="M7.83175 21.5566C8.33514 21.5566 8.81791 21.7558 9.17386 22.1104C9.52981 22.4649 9.72979 22.9458 9.72979 23.4472V30.1794C8.72265 30.1794 7.75676 29.7809 7.04461 29.0716C6.33246 28.3622 5.93237 27.4002 5.93237 26.397V23.4472C5.93237 23.1988 5.98151 22.9528 6.07698 22.7234C6.17245 22.4939 6.31238 22.2855 6.48877 22.1099C6.66516 21.9343 6.87456 21.7951 7.10499 21.7002C7.33543 21.6052 7.58238 21.5565 7.83175 21.5566Z" fill="black"/>
<path d="M7.83135 20.1214C9.21547 20.1214 10.3375 19.0038 10.3375 17.6251C10.3375 16.2465 9.21547 15.1289 7.83135 15.1289C6.44724 15.1289 5.3252 16.2465 5.3252 17.6251C5.3252 19.0038 6.44724 20.1214 7.83135 20.1214Z" fill="black"/>
</g>
<defs>
<clipPath id="clip0_7453_2175">
<rect width="41" height="36" fill="white"/>
</clipPath>
</defs>
</svg>
