<svg width="16" height="16" viewBox="0 0 16 16" fill="none" xmlns="http://www.w3.org/2000/svg">
    <g clip-path="url(#clip0_618_11113)">
        <path d="M2.5 15.8325C1.12133 15.8325 0 14.7112 0 13.3325V6.33249C0 4.99116 1.03667 3.90583 2.37067 3.83849L9.382 0.333161C9.59333 0.227828 9.81867 0.173828 10.052 0.173828C10.2127 0.173828 10.3733 0.199828 10.5273 0.251161C10.9073 0.377828 11.2153 0.645161 11.3947 1.00383L12.8207 3.85583C14.054 4.01516 15 5.07583 15 6.33249V6.9185C15.59 7.12783 16 7.69316 16 8.33249V11.3325C16 11.9725 15.59 12.5378 15 12.7465V13.3325C15 14.7112 13.8787 15.8325 12.5 15.8325H2.5ZM2.5 4.83249C1.67267 4.83249 1 5.50516 1 6.33249V13.3325C1 14.1598 1.67267 14.8325 2.5 14.8325H12.5C13.3273 14.8325 14 14.1598 14 13.3325V12.8325H12C10.346 12.8325 9 11.4865 9 9.83249C9 8.1785 10.346 6.83249 12 6.83249H14V6.33249C14 5.50583 13.3273 4.83249 12.5007 4.83249C12.5 4.83249 2.5 4.83249 2.5 4.83249ZM12 7.83249C10.8973 7.83249 10 8.72983 10 9.83249C10 10.9352 10.8973 11.8325 12 11.8325H14.5C14.776 11.8325 15 11.6085 15 11.3325V8.33249C15 8.05716 14.776 7.83249 14.5 7.83249H12ZM11.6907 3.83249L10.5 1.45116C10.44 1.33183 10.338 1.24249 10.2113 1.20049C10.1593 1.18316 10.106 1.17449 10.052 1.17449C9.97467 1.17449 9.89933 1.19249 9.82933 1.22783L4.618 3.83249H11.6907Z"
              fill="currentColor"/>
        <path d="M12 10.582C12.4142 10.582 12.75 10.2462 12.75 9.83203C12.75 9.41782 12.4142 9.08203 12 9.08203C11.5858 9.08203 11.25 9.41782 11.25 9.83203C11.25 10.2462 11.5858 10.582 12 10.582Z"
              fill="currentColor"/>
    </g>
    <defs>
        <clipPath id="clip0_618_11113">
            <rect width="16" height="16" fill="white"/>
        </clipPath>
    </defs>
</svg>
