<svg width="100" height="100" viewBox="0 0 100 100" fill="none" xmlns="http://www.w3.org/2000/svg">
    <rect width="100" height="100" rx="8" fill="white"/>
    <rect x="20" y="20.1976" width="59.6047" height="59.6047" rx="10" fill="url(#paint0_linear_15_1045)"/>
    <path d="M37.1161 32.4885V45.773H51.1201V32.4885H58.7587V67.1388H51.1201V52.1938H37.1161V67.1388H29.4775V32.4885H37.1161ZM64.9562 45.773C65.6757 44.7213 66.5614 43.8357 67.6684 43.1714C68.7755 42.5072 69.9932 42.0644 71.377 41.7876C72.7608 41.5109 74.1446 41.4002 75.5284 41.4002C76.8015 41.4002 78.0746 41.5109 79.3477 41.6769C80.6208 41.843 79.6048 42.0527 79.7905 43.0461C79.7905 43.1975 79.7905 43.3773 79.7905 43.7084C79.7905 44.9174 79.7905 44.2785 79.7905 45.773V47.5996V50.6623C79.7905 51.9868 79.7905 52.2492 79.7905 53.6425V58.1582C79.7905 59.4236 79.7905 60.5964 79.7905 62.2521C79.7351 61.8646 79.8458 65.2015 79.7905 64.7587C78.6834 65.8657 77.4104 66.696 75.9159 67.1388C74.4214 67.5816 72.9268 67.803 71.377 67.803C70.1593 67.803 69.0522 67.637 68.0559 67.3602C67.0042 67.0835 66.1186 66.6407 65.3436 65.9764C64.5687 65.3676 63.9598 64.5926 63.517 63.6516C63.0742 62.7107 62.8528 61.6036 62.8528 60.2752C62.8528 58.836 63.1296 57.6736 63.6277 56.7327C64.1259 55.7917 64.7901 55.0721 65.565 54.5186C66.34 53.9651 67.2809 53.5776 68.2773 53.3008C69.2736 53.0241 70.3253 52.8027 71.377 52.6366C72.4287 52.4706 73.425 52.3599 74.4213 52.2492C75.4177 52.1384 76.3033 52.0278 77.0782 51.8063C77.8532 51.5849 78.462 51.3082 78.9049 50.9761C79.3477 50.5886 79.5691 50.0351 79.5137 49.3709C79.5137 48.6513 79.403 48.0424 79.1263 47.5996C78.9049 47.1568 78.5727 46.8247 78.1853 46.6033C77.7978 46.3819 77.2996 46.2158 76.8015 46.1051C76.248 46.0497 75.6944 45.9944 75.0856 45.9944C73.7571 45.9944 72.6501 46.2712 71.8752 46.88C71.1002 47.4889 70.6574 48.4299 70.5467 49.8137H63.6277C63.8491 48.1531 64.2366 46.8247 64.9562 45.773ZM78.5174 55.4596C78.0746 55.6256 77.6318 55.7363 77.1336 55.847C76.6354 55.9577 76.0819 56.0131 75.5837 56.0684C75.0302 56.1238 74.4767 56.2345 73.9232 56.2899C73.425 56.4006 72.8715 56.5112 72.3733 56.6773C71.8752 56.8434 71.4323 57.0648 71.0449 57.3415C70.6574 57.6183 70.3807 57.9504 70.1592 58.3932C69.9378 58.836 69.8271 59.3342 69.8271 59.9984C69.8271 60.6073 69.9378 61.1055 70.1592 61.5483C70.3807 61.9911 70.7128 62.3232 71.1002 62.5446C71.4877 62.766 71.9305 62.9321 72.4287 63.0428C72.9268 63.1535 73.4804 63.2088 74.0339 63.2088C75.3623 63.2088 76.414 62.9874 77.1889 62.5446C77.9085 62.1018 78.462 61.5483 78.8495 60.9394C79.1816 60.3305 79.403 59.6663 79.5137 59.0021C79.5691 58.3379 79.6244 57.8397 79.6244 57.4522V54.9061C79.3477 55.1275 78.9602 55.3489 78.5174 55.4596Z"
          fill="white"/>
    <defs>
        <linearGradient id="paint0_linear_15_1045" x1="74.6377" y1="41.3904" x2="34.57" y2="63.2455"
                        gradientUnits="userSpaceOnUse">
            <stop stop-color="#008DC8"/>
            <stop offset="1" stop-color="#0063A5"/>
        </linearGradient>
    </defs>
</svg>
