<svg width="100" height="100" viewBox="0 0 100 100" fill="none" xmlns="http://www.w3.org/2000/svg">
    <rect width="100" height="100" rx="8" fill="white"/>
    <path fill-rule="evenodd" clip-rule="evenodd"
          d="M27.6052 53.9707C26.9973 52.2893 26.4153 50.789 26.2083 50.3621C25.8333 49.5473 25.1736 48.7324 24.2165 48.5643C24.2294 48.5643 24.307 48.5514 24.3588 48.5514C26.1178 48.3056 26.8809 47.0122 26.8809 45.7059C26.8809 44.5806 26.2601 42.8216 23.3887 42.8216H20.401C20.194 42.8216 20 42.9897 20 43.1967V54.0613C20 54.2682 20.194 54.4364 20.401 54.4364H21.2287C21.4357 54.4364 21.6038 54.2682 21.6038 54.0613V49.211H22.4187C23.5957 49.211 24.126 49.9353 24.5269 50.6855C25.0055 51.5779 25.3418 52.8325 25.7945 54.1777C25.8591 54.3976 26.0143 54.4493 26.2083 54.4493H27.3465C27.657 54.4364 27.7087 54.2424 27.6052 53.9707ZM23.1688 47.8271H21.6168V44.2314H23.3629C24.6045 44.2314 25.2512 44.9686 25.2512 45.9128C25.2383 47.1028 24.4493 47.8271 23.1688 47.8271ZM30.6577 45.9646C28.7564 45.9646 27.4759 47.6072 27.4759 50.2199C27.4759 53.0524 28.8081 54.5269 31.175 54.5269C32.1839 54.5269 32.7659 54.3717 33.3221 54.1259C33.5161 54.0354 33.6196 53.8673 33.542 53.6603L33.3479 53.1042C33.2833 52.9101 33.141 52.7808 32.8823 52.8584C32.3779 53.0007 31.9123 53.1559 31.2526 53.1559C29.7005 53.1559 29.1832 52.2634 29.1056 50.6467H33.4126C33.6196 50.6467 33.7877 50.4785 33.7877 50.2716C33.8006 47.0898 32.4167 45.9646 30.6577 45.9646ZM29.1185 49.4568C29.2867 47.6589 30.0756 47.2321 30.7094 47.2321C31.7829 47.2321 32.158 48.3574 32.1968 49.4568H29.1185ZM38.7285 52.9619H37.2928C36.672 52.9619 36.4004 52.8584 36.4004 52.4963C36.4004 52.3022 36.5427 52.1212 36.7108 51.966C36.9824 52.0306 37.267 52.0694 37.5515 52.0694C39.4658 52.0694 40.6945 50.9054 40.6945 49.0041C40.6945 48.422 40.4358 47.84 40.0737 47.3485L40.6428 47.2838C40.8497 47.2709 40.992 47.1416 40.992 46.9217V46.469C40.992 46.2491 40.8497 46.068 40.6169 46.068H38.625C38.2629 46.068 37.9137 45.9775 37.5515 45.9775C35.7019 45.9775 34.4473 47.064 34.4473 49.0041C34.4473 50.1423 34.9259 51.0088 35.689 51.5133C35.2751 51.8884 34.9259 52.3411 34.9259 52.949C34.9259 53.9449 35.8054 54.2941 36.8272 54.2941H38.5086C39.4399 54.2941 39.802 54.6692 39.802 55.3806C39.802 56.1437 38.9743 56.6093 37.9137 56.6093C37.0988 56.6093 36.2064 56.4541 36.0641 55.5358C36.0253 55.3159 35.896 55.1865 35.689 55.1736L34.8224 55.1348C34.6155 55.1348 34.4473 55.29 34.4473 55.497V55.5099C34.4603 57.3724 36.2064 57.9286 37.8749 57.9286C39.4658 57.9286 41.3153 57.2043 41.3153 55.1995C41.3024 53.7767 40.2935 52.9619 38.7285 52.9619ZM37.5644 47.1545C38.4052 47.1545 39.1036 47.452 39.1036 48.9653C39.1036 50.5173 38.3664 50.8536 37.5644 50.8536C36.7367 50.8536 36.0382 50.582 36.0382 48.9653C36.0382 47.439 36.7367 47.1545 37.5644 47.1545ZM43.8245 43.1449C43.8245 42.5629 43.3589 42.0714 42.7639 42.0714C42.1819 42.0714 41.6904 42.537 41.6904 43.132V43.1449C41.6904 43.7528 42.156 44.2314 42.7639 44.2314C43.3589 44.2314 43.8245 43.7528 43.8245 43.1449ZM43.5529 54.0483V46.4431C43.5529 46.2362 43.3589 46.068 43.1778 46.068H42.4018C42.1948 46.068 42.0008 46.2362 42.0008 46.4431V54.0483C42.0008 54.2553 42.1948 54.4234 42.4018 54.4234H43.1778C43.3589 54.4364 43.5529 54.2553 43.5529 54.0483ZM47.7048 45.9646C45.6353 45.9646 44.329 47.5943 44.329 50.2457C44.329 52.9231 45.6224 54.514 47.7048 54.514C49.8001 54.514 51.0547 52.8843 51.0547 50.2457C51.0547 47.6072 49.7742 45.9646 47.7048 45.9646ZM49.412 50.2457C49.412 52.341 48.7524 53.1947 47.6659 53.1947C46.5924 53.1947 45.9328 52.3281 45.9328 50.2457C45.9328 48.1892 46.5924 47.2968 47.6659 47.2968C48.7524 47.2968 49.412 48.1892 49.412 50.2457ZM56.9397 48.2539C58.3365 47.84 58.9315 46.9734 58.9315 45.68C58.9315 43.9727 57.7674 42.7957 55.7627 42.7957H52.4127C52.2058 42.7957 52.0118 42.9639 52.0118 43.1708V54.0354C52.0118 54.2424 52.2058 54.4105 52.4127 54.4105H55.9437C58.1167 54.4105 59.4359 53.2206 59.4359 51.1382C59.423 49.6508 58.5952 48.4479 56.9397 48.2539ZM53.6156 44.1797H55.4522C56.681 44.1797 57.2889 44.8005 57.2889 45.9128C57.2889 46.9864 56.6292 47.6589 55.3358 47.6589H53.6285V44.1797H53.6156ZM57.6898 50.983C57.6898 52.2505 56.9785 53.0007 55.7885 53.0007H53.6156V48.9394H55.4652C56.8621 48.9394 57.6898 49.806 57.6898 50.983ZM66.2134 54.0483L66.1099 53.5439C66.0064 53.0266 66.0194 52.5609 66.0194 52.1341V49.1334C66.0194 47.7365 65.7995 45.9775 63.0445 45.9775C62.3073 45.9775 61.4537 46.1715 60.9492 46.3008C60.7423 46.3526 60.6517 46.5207 60.7035 46.7535L60.8457 47.3873C60.8975 47.6072 61.0656 47.7365 61.2984 47.6589C61.7641 47.5425 62.2814 47.3614 62.954 47.3614C64.1827 47.3614 64.4544 47.8271 64.4544 48.8359V49.2498L62.553 49.3662C61.1562 49.4697 59.9662 50.194 59.9662 52.0436C59.9662 53.5957 60.8069 54.514 62.1909 54.514C63.148 54.514 64.0405 54.1648 64.5708 53.324L64.6872 54.0871C64.726 54.3329 64.8812 54.4364 65.0881 54.4364H65.8771C66.1228 54.4234 66.2393 54.2682 66.2134 54.0483ZM64.4673 51.6555C64.4673 52.2893 63.7559 53.2464 62.6565 53.2464C62.0227 53.2464 61.5701 52.8713 61.5701 52.0306C61.5701 50.7372 62.3332 50.4268 63.3808 50.388L64.4673 50.3492V51.6555ZM73.0167 54.0483V48.1245C73.0167 46.8311 72.1889 45.9646 70.8955 45.9646C69.9772 45.9646 69.2529 46.3138 68.5286 47.1545L68.3604 46.3785C68.3087 46.1586 68.1923 46.068 67.9465 46.068H67.4292C67.2222 46.068 67.0282 46.2232 67.0282 46.4302V54.0483C67.0282 54.2553 67.2222 54.4234 67.4292 54.4234H68.2182C68.4251 54.4234 68.5933 54.2553 68.5933 54.0483V49.3533C68.5933 48.2022 69.4081 47.3097 70.4558 47.3097C71.1671 47.3097 71.4387 47.6719 71.4387 48.4738V54.0483C71.4387 54.2553 71.6328 54.4234 71.8397 54.4234H72.6287C72.8356 54.4234 73.0167 54.2553 73.0167 54.0483ZM79.9493 53.9707L77.1168 49.6508L79.432 46.4949C79.5743 46.3008 79.4837 46.068 79.238 46.068H78.1386C77.8928 46.068 77.7376 46.1844 77.6342 46.3655L75.5388 49.5602V42.55C75.5388 42.343 75.3836 42.1749 75.1767 42.1749H74.3877C74.1808 42.1749 74.0126 42.3301 74.0126 42.537V54.0613C74.0126 54.2682 74.1808 54.4364 74.3877 54.4364H75.1637C75.3707 54.4364 75.5388 54.2682 75.5388 54.0613V49.9353L78.048 54.113C78.1644 54.32 78.3197 54.4364 78.5137 54.4364H79.7424C79.9752 54.4234 80.0658 54.1648 79.9493 53.9707Z"
          fill="#CA031A"/>
</svg>
