<svg width="100" height="100" viewBox="0 0 100 100" fill="none" xmlns="http://www.w3.org/2000/svg">
    <rect width="100" height="100" rx="8" fill="white"/>
    <path d="M48.491 32.6922C47.7192 37.905 47.1002 42.2972 45.9886 49.1337C48.9943 49.0715 55.8219 50.218 57.323 40.8747C58.5679 33.0999 53.0243 32.3823 48.491 32.6922Z" fill="#21262E"/>
    <path d="M74.5393 70.2863C75.7079 72.7824 74.5305 75.9371 72.0886 77.2084C70.6872 77.9383 69.0883 78.6184 67.4876 78.9977C65.8763 79.3787 63.2566 79.8593 59.9149 79.9911C59.7566 79.9964 59.5983 80 59.4436 80C55.1076 80 50.7645 77.6214 48.89 74.7247C48.4062 75.7253 46.6562 77.7319 43.5955 78.6771C41.6605 79.2754 39.327 80 34.4575 79.9947C30.0949 79.9911 27.6086 78.0967 26.2907 76.5034C24.1974 73.9734 23.8897 70.7599 24.2988 68.595L24.3201 68.4917C25.9635 60.5709 28.2186 46.1767 29.2536 38.9626L29.2643 38.8914C29.5489 36.8921 29.837 34.891 30.0077 32.8774C30.0932 31.8626 30.15 30.8441 30.1607 29.8259C30.1713 28.8626 30.0772 27.9012 30.0877 26.9381C30.0985 26.0319 30.2496 25.1114 30.6942 24.3103C31.4145 23.0124 32.7359 21.9904 34.132 21.5454C35.6633 21.0575 37.2657 20.8581 38.8575 20.6837C40.4849 20.5056 42.1139 20.3294 43.7519 20.2119C44.4065 20.1656 45.0609 20.1264 45.7153 20.0944C47.0546 20.032 48.3973 20 49.7383 20C53.1583 20 56.5997 20.057 59.9665 20.721C63.4007 21.3976 66.867 22.6955 69.5756 24.9672C71.4306 26.5232 72.9049 28.4888 74.0093 30.6377C74.9822 32.532 75.3753 34.5241 75.6082 36.05C75.8697 37.7573 75.9247 39.4931 75.7755 41.2094C75.6759 42.3489 75.5157 43.3477 75.2863 44.261C74.7973 46.2051 73.9613 48.0674 72.8 49.7961C71.5106 51.7171 69.8566 53.4583 67.7456 55.1194C69.0313 58.6909 72.3785 65.6734 74.5393 70.2863ZM36.1453 27.3013C36.2253 28.6259 36.2377 29.9647 36.1792 31.2946C36.1186 32.653 35.9959 34.0079 35.8395 35.3574C35.6847 36.7034 35.4962 38.044 35.3059 39.3846C35.2845 39.5306 35.265 39.6766 35.2436 39.8243C34.6425 44.0153 34.0129 48.2027 33.3495 52.383C32.6542 56.7734 31.8733 61.1441 31.0926 65.5203C30.7297 67.5589 29.917 70.1724 31.0286 72.1201C32.021 73.8577 34.5625 74.0679 36.3339 73.8933C42.788 73.2613 43.8123 71.8869 43.8123 71.8869C42.5266 70.5213 43.6435 64.2919 44.9399 55.917H49.5267L54.3269 69.8341C54.3269 69.8341 55.7425 74.1461 59.6765 73.9379C64.715 73.6726 68.4213 72.567 68.9549 71.9563C67.4023 71.1249 62.9685 60.4926 60.5497 52.6839C61.72 52.002 62.8547 51.2579 63.9236 50.4246C65.3873 49.2834 66.7407 47.966 67.7793 46.4189C68.5245 45.3079 69.0936 44.083 69.419 42.7833C69.5916 42.0979 69.6876 41.3821 69.7482 40.6789C69.8566 39.4416 69.8157 38.1917 69.6272 36.9651C69.4476 35.7864 69.1772 34.4743 68.6295 33.4079C67.6067 31.4174 66.1609 29.6816 64.1903 28.5707C60.8646 26.6977 57.0319 26.3399 53.2953 26.1423C49.2457 25.9268 45.1765 26.055 41.1482 26.525C40.6983 26.5784 36.1275 26.963 36.1453 27.3013Z" fill="#21262E"/>
</svg>
