<svg width="100" height="100" viewBox="0 0 100 100" fill="none" xmlns="http://www.w3.org/2000/svg">
    <rect width="100" height="100" rx="8" fill="white"/>
    <path d="M80 51.3867C80 43.3758 77.0572 35.8554 71.6621 29.9698C68.8828 27.0271 65.7766 24.5748 62.1798 22.7764L61.3624 24.0843C63.3242 25.2287 65.1226 26.7001 66.7575 28.335C72.3161 34.057 75.4223 41.5775 75.5858 49.5884C75.5858 50.7328 75.5858 52.6946 75.4223 54.3295C74.4414 50.8963 72.6431 47.79 70.1907 45.1742C69.3733 44.1933 68.5559 43.3758 67.4114 42.8854C67.248 45.3377 66.7575 47.79 66.1035 50.2423C67.0845 50.8963 67.9019 51.7137 68.7193 52.5312C70.8447 54.493 72.1526 57.2723 72.3161 60.2151C72.3161 61.6865 71.6621 63.1579 70.5177 64.1388C68.8828 65.4467 66.921 66.1006 64.7956 66.1006C61.6894 65.9372 58.5831 64.9562 55.9673 63.1579C60.0545 59.0707 62.9973 54.0025 64.3052 48.444C64.9591 45.9916 65.2861 43.5393 65.2861 40.9235C65.2861 36.6728 64.3052 32.4222 62.1798 28.6619C59.4005 23.4303 54.0055 20.1606 48.1199 20.1606C40.7629 20.3241 33.733 23.5938 28.8283 28.9889C23.2698 34.384 20 41.9045 20 49.7519C20 51.0598 20 52.3677 20.1635 53.6756H21.6349C21.6349 45.8282 24.7411 38.4712 30.4632 33.0761C33.406 30.2968 36.6757 27.8445 40.436 26.2096C37.8202 28.6619 36.0218 31.9317 35.0409 35.3649C34.7139 36.5094 34.5504 37.6538 34.5504 38.7982C36.8392 37.6538 39.1281 36.8363 41.5804 36.3459C41.9074 32.9126 43.3787 29.8064 45.6676 27.1906C46.812 26.0461 48.2834 25.2287 49.9183 25.2287C52.5341 25.3922 54.8229 27.0271 55.9673 29.3159C57.4387 32.0952 58.0926 35.3649 57.7657 38.4712C52.2071 36.6728 46.3215 36.6728 40.7629 38.4712C36.0218 39.6156 31.7711 42.0679 28.3379 45.5012C24.7411 48.9344 22.6158 53.5121 22.2888 58.4167C22.4523 63.3214 24.5777 67.899 28.1744 71.1688C34.0599 76.7273 41.7439 79.9971 49.9183 79.8336C56.2943 79.8336 62.3433 77.8718 67.5749 74.275L67.248 73.2941C63.1608 75.5829 58.5831 76.7273 53.842 76.7273C46.6485 76.8908 39.782 74.602 34.0599 70.3513C35.5313 70.8418 37.1662 71.1688 38.8011 71.1688C41.9074 71.1688 45.0136 70.5148 47.7929 69.2069C45.6676 67.7355 43.7057 66.1006 42.0708 64.3023C39.9455 65.1197 37.4932 65.7737 35.2044 65.7737C32.9155 65.9372 30.7902 65.1197 29.1553 63.6483C28.1744 62.6674 27.6839 61.3595 27.6839 59.8881C27.8474 57.1088 29.1553 54.3295 31.2807 52.5312C32.5886 51.0598 34.2234 49.9154 36.0218 49.0979C37.4932 54.6565 40.436 59.8881 44.5232 63.9753C49.2643 68.8799 55.8038 71.8227 62.6703 72.1497C67.0845 72.3132 71.3351 70.6783 74.4414 67.7355C78.0381 63.1579 80 57.2723 80 51.3867ZM57.2752 46.4821C55.8038 51.0598 53.188 55.147 49.7548 58.5802C46.485 54.9835 44.3597 50.7328 43.2153 45.9916C45.1771 45.5012 47.139 45.3377 49.1008 45.3377C51.8801 45.3377 54.6594 45.8282 57.2752 46.4821Z"
          fill="#00937B"/>
</svg>
