<?xml version="1.0" encoding="UTF-8"?>
<svg width="22px" height="25px" viewBox="0 0 22 25" version="1.1" xmlns="http://www.w3.org/2000/svg" xmlns:xlink="http://www.w3.org/1999/xlink">
    <title>Validated</title>
    <g id="Page-1" stroke="none" stroke-width="1" fill="none" fill-rule="evenodd" stroke-linecap="round" stroke-linejoin="round">
        <g id="2-Personal-info/verified" transform="translate(-598.000000, -445.000000)">
            <g id="army-shield-copy-4" transform="translate(599.000000, 446.000000)">
                <path d="M1.66089364e-12,3.17393366 L1.66089364e-12,10.7879337 C1.66089364e-12,15.7144277 3.03401314,20.1321622 7.63203347,21.9009337 L8.67303347,22.3009337 C9.36627648,22.5675834 10.1337905,22.5675834 10.8270335,22.3009337 L11.8680335,21.9009337 C16.4660538,20.1321622 19.5000669,15.7144277 19.5000669,10.7879337 L19.5000669,3.17393366 C19.5039483,2.58867618 19.1641903,2.05555371 18.6320335,1.81193366 C15.8318713,0.589722849 12.8051774,-0.0274064802 9.75003347,0.000933659557 C6.69488957,-0.0274064802 3.66819564,0.589722849 0.868033473,1.81193366 C0.33587662,2.05555371 -0.00388131008,2.58867618 1.66089364e-12,3.17393366 Z" id="Path" stroke="#0062B0" stroke-width="1.5" fill="#0062B0"></path>
                <path d="M13.5,8 L9.519,13.308 C9.38849596,13.4817777 9.18902983,13.590403 8.97224781,13.6057504 C8.7554658,13.6210978 8.54268534,13.5416581 8.389,13.388 L6,11" id="Path" stroke="#FFFFFF" stroke-width="2.5"></path>
            </g>
        </g>
    </g>
</svg>