<svg width="100" height="100" viewBox="0 0 100 100" fill="none" xmlns="http://www.w3.org/2000/svg">
    <rect width="100" height="100" rx="8" fill="white"/>
    <path d="M35.3574 55.0867C35.3574 54.9359 36.3488 51.4717 37.2385 49.8447C37.747 48.8787 38.1283 47.8618 38.3571 46.7941C38.5687 45.6402 38.5237 44.4538 38.2251 43.3193C37.9265 42.1847 37.3818 41.1298 36.6295 40.2296C35.8773 39.3293 34.936 38.6057 33.8726 38.1103C32.8091 37.6148 31.6496 37.3596 30.4765 37.3628C27.1717 37.3628 24.3245 39.3965 23.1043 42.2946C22.7764 40.8173 22.6143 39.3081 22.6212 37.795C22.6721 27.8806 30.629 20 40.5179 20C50.1018 20 57.9316 27.5502 58.3891 37.0323C58.5925 41.0998 57.1181 44.8367 54.9827 48.2178C52.1101 52.5902 48.8815 56.7085 48.8815 62.1995C48.8815 70.1564 54.0929 76.9439 61.2618 79.2318C59.3552 79.7403 57.3469 80.0453 55.2623 79.9945C44.382 79.8928 35.3828 71.1479 34.9252 60.2421C34.8744 58.4626 35.0269 56.7593 35.3574 55.1069C35.3574 55.1069 35.3574 55.2375 35.3574 55.0867ZM66.7528 45.9552C66.7528 44.9892 65.9901 44.1757 65.0241 44.1757C64.0073 44.1757 63.2446 44.9892 63.2446 45.9552C63.2446 46.9213 64.0073 47.7347 65.0241 47.7347C65.9647 47.7347 66.7528 46.9213 66.7528 45.9552ZM71.8879 66.6228C71.7354 63.5723 73.5149 60.8522 76.1333 59.632V59.5557C75.3706 59.4032 74.608 59.3015 73.8454 59.3015C67.2866 59.3015 61.9736 64.64 61.9736 71.1987C61.9736 73.7408 62.787 76.1559 64.1852 78.0625C67.8579 76.3622 70.9513 73.6223 73.0827 70.1818C72.3709 69.165 71.9388 67.8939 71.8879 66.6228ZM74.3792 38.4559C74.8368 37.2865 75.091 35.9901 75.091 34.6427C75.091 32.7107 74.5826 30.9312 73.642 29.3805C73.3162 31.7706 72.35 34.0281 70.8456 35.9138C70.8456 35.9646 70.8456 36.0155 70.7694 36.0663L68.7357 35.0495C68.2272 34.7953 67.7188 34.541 67.2866 34.236C65.4563 33.1683 64.0835 31.4396 63.5243 29.3297C63.1938 30.4736 63.0158 31.6684 63.0158 32.9395C63.0158 37.0832 65.0496 40.7439 68.151 43.0064C68.8119 43.5148 69.422 44.0232 70.0067 44.6079C72.2946 46.8958 74.0742 49.6922 75.1418 52.7428C76.2095 51.3192 76.9213 49.5905 77.2518 47.7347C77.3281 47.0992 77.3789 46.4637 77.3789 45.879C77.3789 42.6505 76.5146 40.4134 74.3284 38.5068"
          fill="#EF533D"/>
</svg>
