<svg width="100" height="100" viewBox="0 0 100 100" fill="none" xmlns="http://www.w3.org/2000/svg">
    <rect width="100" height="100" rx="8" fill="white"/>
    <path d="M21.4393 69.367H65.3331L67.2898 66.0523L68.4984 59.4106L66.1838 52.2126L63.1187 47.7841L61.5568 47.2801L60.2959 47.8332L59.7941 49.8467L53.75 50.7522L50.5826 48.3873L47.7617 41.3397L46.0526 36.4564L45.698 34.445L44.893 33.4873L40.5124 32.7827L37.8466 34.0905L34.6246 32.7827L31.806 32.6823L30.7511 34.445L30.0957 35.7027L29.1892 37.9682L28.4355 41.2394L28.9886 46.4741L29.2928 50.3507L29.0888 52.614L30.0456 56.339L29.0387 59.3582L27.4788 63.3363L26.471 63.8404L25.0117 63.1846L23.4519 64.0409L21.7906 64.6954L20.7837 66.205L20.9343 68.5196L21.4393 69.367ZM67.0689 39.5804L65.8672 38.5212L62.7677 37.84L62.6249 36.7051L64.7444 36.0996L66.0779 37.1577L67.2787 37.3851L67.9119 37.4598L69.8887 39.9573L67.0689 39.5804Z"
          fill="white"/>
    <path d="M41.2784 45.4617V44.8551H40.1668L40.0677 45.0558L41.2784 45.4617ZM35.6291 44.8551C35.327 44.5531 34.9256 44.8551 34.4204 44.7536C34.4204 44.8552 34.3201 45.1584 34.6212 45.3581C35.0259 45.0559 35.5254 44.8552 35.6291 44.8552V44.8551ZM42.5873 39.1054C42.5873 39.1054 42.788 39.1054 42.5873 39.004L40.2672 38.8022C39.965 39.004 39.5615 39.004 39.4611 39.3084L39.2594 39.4087C39.4611 40.217 39.4611 41.1236 39.4611 42.0299C39.8647 42.1314 40.3675 42.4347 40.3675 43.04C40.7723 43.2419 41.2784 43.3411 41.5783 43.6444C41.7801 43.5441 41.982 43.2419 42.0824 42.9397C41.5783 42.4347 40.6698 42.7379 40.6698 41.8304L40.0677 41.5282C40.0677 40.9195 40.0677 40.3163 39.8647 39.9126L40.0677 39.7108C40.0677 39.9126 40.1668 40.013 40.3675 40.217C40.7723 40.217 41.2784 40.3163 41.5783 40.013C41.7801 39.9126 41.7801 39.4087 42.0824 39.4087C42.1838 39.4087 42.4859 39.4087 42.5873 39.1054ZM36.4362 39.3084C36.4362 39.1055 36.2344 38.9036 35.9313 38.8022H33.4104C33.4104 39.1055 33.7137 39.4089 34.0157 39.4089C34.0157 39.7108 34.3201 39.9126 34.5208 40.013C34.7215 40.217 34.9256 40.217 35.2266 40.013C35.5254 40.217 35.6291 39.7108 35.7305 40.013C35.7305 40.6184 35.7305 40.9195 35.6291 41.4255C35.5254 42.1314 34.8229 42.0299 34.4204 42.4347C34.3201 42.6342 34.0157 43.2419 34.3201 43.5439C34.6212 43.3411 34.9256 43.2419 35.327 43.04C35.327 42.7379 35.7305 42.4347 36.132 42.1315C36.132 41.2239 36.4362 40.3163 36.4362 39.3084ZM37.3438 36.8878C37.0427 36.6838 36.4362 36.9871 36.132 37.19C35.7305 37.2903 35.327 37.5914 35.327 37.8958H36.5366C36.7373 37.5914 37.0427 37.19 37.344 36.8878H37.3438ZM40.8726 37.8958C40.8726 37.5914 40.7723 37.5914 40.6696 37.4933C40.1668 37.4933 40.1668 36.6838 39.7643 36.8878C39.461 36.8878 39.2594 36.6838 39.0597 36.8878C38.9571 36.9871 39.0597 36.9871 39.1601 36.9871C39.7643 36.9871 39.4611 37.7944 39.8648 37.8957L40.8726 37.8958ZM44.4013 37.2903C44.6053 36.6838 44.7069 35.7774 44.3009 35.173C43.9988 34.871 43.4939 34.5677 42.9898 34.2645L42.1838 34.5677C41.7801 34.871 41.5783 35.1732 41.5783 35.7774C42.2852 36.0808 43.0924 36.8878 43.3935 37.5914H43.6956C43.999 37.2903 44.301 37.5914 44.4013 37.2903ZM35.0259 35.7774C34.9256 34.7684 33.7136 34.5677 33.1105 34.2645H32.8072C31.8996 34.4663 31.6968 35.3727 31.5964 36.0806C31.8997 36.9871 32.5038 36.3817 33.0067 36.9871C33.4104 36.6838 34.5208 35.9792 35.0259 35.7774ZM22.6232 66.6421C22.5218 66.6421 22.2186 66.3387 21.9186 66.3387C21.6131 66.9432 21.9186 67.4493 21.9186 68.1527C21.9186 68.3568 21.8172 68.7627 21.8172 68.7627C21.6131 68.7627 21.2105 68.2541 21.0099 67.9532V66.2396L22.0167 65.0278C22.6233 65.4301 22.8241 66.0366 22.6233 66.6421H22.6232ZM25.4462 65.4302C25.4462 65.9329 25.3458 66.3387 25.0426 66.6421C24.9423 66.2396 24.6402 65.7334 24.135 65.7334C23.7326 66.5384 23.6301 66.8405 24.0336 68.1527C23.7326 68.3568 23.4282 68.4594 23.125 68.7627C22.9253 68.2542 22.8239 67.5485 22.8239 67.146C22.8239 66.4403 23.0236 65.7334 23.2253 65.128C23.4282 64.7277 23.7326 64.2216 24.0336 63.9161L25.1441 63.818C24.7405 63.9161 24.7405 64.4244 24.7405 64.7277C24.9423 64.8258 25.4462 64.9251 25.4462 65.4301V65.4302ZM29.0754 66.0368C29.0754 66.9432 27.7642 68.1527 27.7642 68.1527C27.7642 67.5485 27.9671 66.9432 28.0676 66.3387C28.0676 66.3387 27.6639 65.9329 27.16 65.9329C26.8577 66.0366 26.8577 66.3389 26.7573 66.6421C26.4541 67.2476 25.8488 67.8485 25.6492 68.4594C25.5499 68.4594 25.5499 68.3568 25.5499 68.3568C25.5499 67.4493 25.6492 65.5304 26.3538 64.8258C26.9605 64.2216 27.2602 64.2216 27.8656 64.1189L28.4722 64.2216L28.0674 64.8258C28.4722 65.0276 29.0754 65.4301 29.0754 66.0366V66.0368ZM46.117 66.3387L45.816 66.6421C45.5128 66.3387 45.7123 65.4302 45.2096 65.3287C44.7068 65.3287 44.3008 64.8258 44.1002 64.7277L44.4012 64.5237C44.4012 64.5237 44.7068 64.4244 44.9063 64.5237C45.1092 64.7277 45.3098 64.8258 45.3098 65.128C45.5128 65.3287 45.816 65.128 46.0156 65.3287C46.117 65.632 46.2174 66.0366 46.117 66.3387ZM49.7483 64.8258C49.6457 65.128 49.5455 65.6319 49.4441 66.0366C49.143 65.4301 48.9401 64.5237 48.2344 64.5237C48.134 64.1189 48.0337 63.8179 47.6289 63.6138L46.7225 63.5136C46.8229 63.8179 47.4282 63.9161 47.1273 64.5237C47.4282 64.8258 47.8307 64.8258 48.0337 65.3287C48.2344 65.632 48.0337 66.0366 48.134 66.3387L47.4282 66.6421C47.4282 66.0366 47.6289 65.128 46.8229 64.8258C46.2174 65.0276 46.117 64.2216 45.7123 63.9161C45.5128 63.818 45.5128 63.3117 45.2096 63.6138C44.7068 63.9161 43.9987 63.6138 43.4937 63.9161L43.9987 63.0096C44.4012 62.7074 44.9063 62.9082 45.3098 62.7075L46.1172 62.606C47.0257 62.606 47.7305 63.0096 48.5388 63.3117C48.9402 63.6138 49.143 63.9161 49.143 64.4244C49.4441 64.5237 49.8499 64.5237 49.7483 64.8258ZM66.0788 64.7277C65.877 65.0276 65.7845 65.128 65.6797 65.3287C65.6797 64.8258 65.0731 64.5237 64.674 63.6138L65.0732 62.9082C65.4801 63.0096 65.7845 63.3117 65.7845 63.8179C65.7845 63.916 65.6797 64.2216 65.7845 64.4246C65.7845 64.5237 66.0788 64.5237 66.0788 64.7277ZM31.9998 65.0276L31.6964 66.0366L30.992 64.2216C30.0844 63.3117 29.178 63.2113 28.5713 62.9082C28.2692 62.7074 28.2692 63.0096 27.9671 62.9082C27.9671 62.606 28.0674 62.3039 28.3708 62.0018H28.975L29.5793 62.3039C29.983 62.606 30.6886 62.606 30.6886 63.2113C30.6886 63.4143 30.5895 63.5136 30.7913 63.818L31.8994 64.2216L31.9998 65.0276ZM62.8557 63.9161C62.8557 64.0187 62.655 64.2216 62.655 64.2216C62.1532 63.9161 61.7495 63.7175 61.1419 63.7175C61.1419 63.4143 60.9412 62.9082 60.7394 62.9082C60.0336 62.9082 60.1329 63.2115 59.6311 63.2115L60.5399 62.3039C60.6368 62.1032 60.7394 62.1032 60.9413 62.1032C61.2423 62.3039 61.3426 62.4053 61.647 62.4053C61.647 62.606 61.647 62.7074 61.5489 63.0096C61.7496 63.2113 62.0506 63.0096 62.2513 63.2113C62.5546 63.3117 62.8555 63.5136 62.8555 63.9161H62.8557ZM50.957 64.5237H50.8577C50.6549 64.2216 50.5568 63.9161 50.3528 63.9161C50.6549 62.7074 50.0506 61.7988 49.8499 60.7898L49.7483 60.4899C50.1487 60.9928 50.957 61.4965 50.8577 62.1032C50.957 63.0096 51.0596 63.8179 50.957 64.5237ZM33.6131 63.5136L32.9074 64.2214C32.7077 63.9161 32.9074 63.3117 32.5037 63.0096C32.5037 62.9082 32.807 62.7074 32.7077 62.606C32.5037 62.4053 31.2952 62.0018 31.2952 62.0018C30.7911 61.6984 30.3865 61.3951 29.983 60.8924C29.4801 60.7898 29.178 61.0952 28.6717 61.1945C28.5715 61.0952 28.5715 60.8924 28.5715 60.8924C28.8757 60.588 28.8757 59.9859 29.48 59.9859C29.7822 59.9859 30.1858 59.9859 30.4869 60.2859C30.8916 60.2859 31.0945 60.6917 31.3933 60.7898C31.8994 61.3953 32.3031 61.4967 32.7077 61.7988C32.604 62.1032 32.807 62.3039 33.0065 62.4053C33.6132 62.4053 33.4102 63.0096 33.6132 63.5136H33.6131ZM66.7902 61.9004C66.7902 62.5067 66.7902 62.7074 66.488 63.2113L65.7845 62.3039C66.0788 62.0018 66.0788 61.4965 66.3866 61.0952C66.488 61.0952 66.7902 61.7988 66.7902 61.9002V61.9004ZM48.8409 62.606C48.3368 62.3039 47.7303 62.3039 47.4283 61.7988C47.1273 61.6984 46.7225 61.6984 46.2174 61.6984C45.816 61.7988 45.3098 61.7988 44.9063 61.7988C44.8059 61.7988 44.9063 61.6984 44.7068 61.4967C44.1001 61.7988 43.3933 61.7988 42.7879 62.4053L43.293 61.1945C43.6955 61.1945 43.9987 60.8924 44.3008 60.8924C44.6052 60.7898 45.0077 60.7898 45.3098 60.7898V60.8924C46.5218 60.8924 47.8307 60.7898 48.7393 61.7988L48.8409 62.606ZM63.9682 61.6984C63.9682 62.1032 63.8679 62.2013 63.7675 62.7075C62.9571 62.606 63.0618 61.7989 62.8555 61.6984C62.452 61.0952 61.647 61.4967 61.0416 61.4967C60.9412 60.8924 61.2423 60.8924 61.2423 60.588C61.5489 60.588 61.8498 60.2859 62.1532 60.4899C62.6548 60.2859 62.957 60.7898 63.4631 60.7898C63.6638 61.0952 63.8679 61.4967 63.9682 61.6984ZM34.1171 60.1866C34.1171 60.4899 34.0155 61.7988 34.0155 61.7988C33.8138 60.9928 33.3099 60.2859 32.7077 60.2859C32.3031 59.9859 31.9999 59.6815 31.8994 59.3793C31.5961 59.0772 31.2952 59.2779 30.8916 59.0772C30.4869 59.0772 29.983 59.0772 29.4801 59.2779V59.0772L30.1858 58.1675C30.992 58.3693 31.8994 58.1675 32.2028 58.7728C32.6042 59.0772 33.1104 59.2779 33.3099 59.5778V59.8834C33.5129 59.986 33.9164 60.0862 34.1171 60.1867V60.1866ZM38.5544 59.986C38.1498 60.2859 37.7461 60.2859 37.3437 60.1867L36.7371 59.2779C37.1396 59.3793 37.7461 59.3793 38.2523 59.2779L38.5544 59.986ZM56.2051 60.4899C56.2051 60.9928 55.4947 61.6984 55.2975 62.1032C55.4947 61.4965 55.5973 60.4899 55.2975 60.4899C55.0934 60.3873 54.6864 60.588 54.6864 60.2859C54.6864 59.9859 54.789 59.5778 54.789 59.2779C54.789 58.9769 54.4869 58.7728 54.4869 58.4729C54.4869 57.8654 55.1926 57.765 55.3955 57.3613C55.5973 57.765 55.4947 58.2689 55.4947 58.6725C55.5973 58.9769 55.797 59.5779 55.5973 60.0862C55.5973 60.3873 56.2051 60.1866 56.2051 60.4899ZM48.5386 60.4899C48.0337 60.4899 47.6289 60.4899 47.3278 59.9859C47.2252 59.9859 47.0257 59.6815 46.8229 59.8832C46.4204 60.2859 45.816 59.5778 45.2096 59.6815C44.9063 59.9859 44.5015 60.1866 44.1002 60.2859L43.9987 60.1866C43.9987 59.8832 44.3008 59.5778 44.6053 59.2781C45.3098 59.5778 45.816 58.1673 46.5218 58.9769C46.7225 59.0772 47.1273 59.0772 47.3278 59.0772C48.0337 59.2779 48.2344 59.9859 48.5388 60.4898L48.5386 60.4899ZM41.3774 59.8834H41.2783C41.0743 59.8834 40.3674 59.5778 40.1667 59.2779C40.0675 59.0772 40.0675 58.7728 40.0675 58.7728C40.3674 58.7728 40.5714 58.6725 40.8725 58.6725L41.3774 59.8834ZM64.2693 60.4899C63.5624 60.4899 63.9682 59.0774 62.452 59.0774C62.0506 59.0774 61.8498 59.5778 61.4463 59.6815C61.4463 59.5778 61.5489 58.9769 61.5489 58.9769C61.5489 58.6725 61.647 58.3693 62.0506 58.0683C62.8555 58.0683 62.6548 58.3693 63.2603 58.571C63.6638 58.6725 63.8679 58.977 64.2693 58.977V60.4899ZM53.6797 59.3793C53.6797 59.986 53.3786 60.588 53.2749 61.1945C53.2749 60.4898 53.0765 59.9859 52.6717 59.5778C52.6717 59.3793 52.974 59.2779 52.7733 59.0772C52.7733 59.0772 52.1678 58.7728 52.1678 58.3693C52.1678 57.8652 52.5715 57.561 52.7733 57.2576C52.7733 57.1595 53.1747 57.4639 53.1747 58.0682C53.1747 58.2689 53.1747 58.4729 53.0766 58.773C52.974 59.0772 53.6797 59.0772 53.6797 59.3793ZM58.6221 57.3613C58.6221 57.765 58.4193 58.0682 58.5229 58.4729C58.2186 57.8654 57.9119 57.2576 57.6131 56.6556C57.5117 56.6556 57.4136 56.6556 57.4136 56.5553L57.7101 56.3535C57.9119 56.3535 58.2185 56.3535 58.2185 56.5553C58.4193 56.7583 58.6221 57.0581 58.6221 57.3613ZM64.7734 58.1675C64.4667 58.0682 63.7675 57.9645 63.7675 57.6647C63.7675 57.2576 63.5624 57.1595 63.0618 57.1595C62.5545 57.1595 62.2513 57.2576 61.647 57.4639C61.647 57.4639 61.3426 57.058 61.2423 56.6556C61.4463 56.5553 62.2513 56.2497 62.6548 56.2497C63.365 56.2497 64.1667 56.2497 64.1667 56.6556C64.1667 56.9578 64.7734 57.1597 64.7734 58.1675ZM38.3504 56.0514C38.2523 56.6556 37.949 56.8564 37.444 57.561C37.0426 57.765 36.4361 57.8654 35.8307 58.1675C35.9311 57.8654 36.2343 57.765 36.4361 57.4639C36.7371 57.1595 37.0427 56.6556 37.1396 56.2498C37.6482 56.0514 37.9491 56.0514 38.3504 56.0514ZM57.1114 57.4639C57.1114 58.0682 57.0078 58.8765 57.0078 59.5778C56.7067 59.5778 56.7067 59.2779 56.7067 58.9769C56.506 58.3693 56.4046 57.765 56.2051 57.1595C55.8995 56.2498 55.3955 55.5473 54.9931 54.6364C54.8916 54.1337 54.3843 53.9307 53.9841 53.6286C54.4869 53.6286 54.9931 53.729 55.3955 54.0334C55.3955 54.3355 55.4947 54.4369 55.797 54.7402C56.506 54.7402 56.4046 55.6454 57.0078 56.1517C57.0078 56.2498 56.8093 56.2498 56.7067 56.456C56.506 56.456 56.4046 56.8564 56.4046 56.8564C56.7067 57.0581 57.0078 57.1597 57.1114 57.4639ZM36.4362 55.1427C36.1318 55.7492 35.8307 56.3535 35.2265 56.6556C34.8228 56.6556 34.3199 56.8564 33.7134 56.6556C34.0155 56.3535 34.3201 56.2497 34.7214 56.0514L35.629 55.1427H36.4362ZM42.4857 56.6556C42.1836 56.8564 41.5782 56.9578 41.2783 56.9578C40.4688 56.5553 40.4688 55.7492 39.7642 55.4459C39.6615 55.3433 39.5613 55.1426 39.5613 55.0424L41.2783 55.3433C41.1757 55.6454 41.3774 55.7492 41.5782 55.7492C41.8815 56.0514 42.1836 56.3535 42.4857 56.6556ZM54.3843 56.6556C54.2862 56.8564 54.0821 56.9578 53.9841 56.9578C53.9841 56.9578 53.4779 56.456 53.3786 56.0514C53.2749 55.5473 53.5793 54.8404 53.5793 54.8404C53.6797 54.8404 53.78 55.0424 53.9841 55.0424C54.0821 55.1427 53.984 55.4459 54.0821 55.7492C54.2862 56.0514 54.5883 56.3535 54.3843 56.6556ZM33.6131 54.8404L33.1104 56.3535C32.604 56.8564 31.8994 56.6556 31.2952 56.6556C32.2028 56.3535 32.807 55.4459 33.1104 54.8404C33.3099 54.7402 33.4102 54.8404 33.6131 54.8404ZM46.117 56.0514H45.816C44.6052 56.3535 43.6955 55.6454 42.7879 55.0424C43.3933 54.8404 43.8983 54.8404 44.3008 54.7402H44.6052L45.0077 55.3433C45.3098 55.4459 45.816 55.7492 46.117 56.0514ZM65.6797 55.9498C64.9784 55.9498 64.2693 55.6454 64.1667 55.3433C63.9682 55.1426 64.0686 54.7402 63.6638 54.7402C63.365 54.7402 63.161 55.0424 63.161 55.0424C62.8555 55.1427 62.2513 54.7402 62.2513 55.0424C62.2513 55.5473 61.7495 55.7492 61.3426 55.7492C61.0416 55.7492 60.9412 55.7492 60.6368 55.6454V54.6364C62.0506 54.6364 61.9491 54.1337 62.5545 54.1337C62.957 54.1337 63.2603 54.437 63.6638 54.437C64.1667 54.437 63.8679 54.2363 64.3707 54.2363C64.8781 54.2363 65.0732 54.6364 65.4801 54.7402C65.4801 55.0424 65.6797 55.4459 65.6797 55.9498ZM32.2028 53.5282C32.2028 53.9307 31.8994 54.5373 31.3933 55.0424C31.2952 55.1427 30.9918 55.3433 30.9918 55.3433C30.9918 54.7402 31.2952 54.1337 31.2952 53.6286C31.5962 53.5282 31.8994 53.3253 32.2028 53.5282ZM47.9344 54.8404C47.4282 54.8404 46.7225 54.8404 46.3211 54.5371C45.7123 54.1337 45.5128 53.9307 45.2096 53.6286C45.6154 53.3253 46.117 53.3253 46.4204 53.2261C46.7225 53.6286 47.2254 54.4369 47.9344 54.8404ZM52.974 54.3355C52.974 54.6364 52.7733 54.7402 52.5715 54.9408C52.5715 54.9408 52.1678 54.4369 52.1678 54.1337C52.1678 53.8304 52.1678 53.5282 52.2682 53.2261C52.5715 53.5282 52.974 53.9307 52.974 54.3353V54.3355ZM57.6131 54.5373C56.7067 53.9306 56.1024 53.0231 55.2975 52.1178C56.1024 52.1178 56.4046 52.9217 57.0078 53.0233C57.2118 53.2261 57.4136 53.3253 57.6131 53.6285V54.5373ZM38.8555 52.0153C38.8555 52.7231 38.7541 53.6286 38.0516 53.9307L37.7461 52.9217C38.1498 52.7233 38.4541 52.4199 38.8555 52.0153ZM36.638 53.6286C36.0325 53.0231 35.5253 52.4199 35.5253 51.8157C35.8307 51.8157 36.1318 51.8157 36.4361 52.1178C36.4361 52.6219 36.7371 53.0233 36.638 53.6285V53.6286ZM65.4801 53.5282C64.5716 53.1247 63.2601 52.7233 62.5545 52.7233C62.153 52.7233 60.9412 53.2261 60.4384 53.729L60.2376 52.7233C60.9412 52.6219 60.9412 52.1178 61.3426 52.1178C61.647 52.1178 62.0506 52.0152 62.356 52.0152C62.6548 52.0152 62.8555 51.7132 63.0618 51.7132C63.4633 51.7132 63.2603 52.3175 63.664 52.3175C63.9682 52.3175 64.0686 52.1178 64.3707 52.1178C64.8781 52.1178 65.3787 52.9217 65.4801 53.5282ZM41.1757 53.6286C40.6695 53.3253 39.7642 53.2261 39.8645 52.6219C40.1667 52.1178 40.4688 52.0152 40.6695 51.7132C40.7721 52.4199 40.8725 53.0231 41.1757 53.6286ZM50.4542 53.0231L49.9501 53.2261C48.8409 53.2261 48.2342 52.9217 47.7303 52.4199C48.134 52.4199 48.7393 52.0153 48.7393 52.0153C49.2444 52.4199 49.9503 52.9217 50.4542 53.0231ZM30.7913 52.0153C30.3865 52.4199 29.8814 52.7231 29.5794 53.3253C29.5794 53.0231 29.4801 52.7231 29.3787 52.4199C29.4801 52.1178 29.7822 51.8157 29.983 51.7132C30.1858 51.8158 30.4869 51.8158 30.7913 52.0153ZM43.6955 53.2261C43.293 53.3253 42.5872 53.5282 42.285 53.0231C41.6785 52.1178 42.0822 51.2081 42.3854 50.5056C42.5872 51.1088 42.6887 51.7132 42.7879 52.3175C42.8905 52.7233 43.4937 52.9217 43.6955 53.226V53.2261ZM51.6627 51.5113C51.2591 51.7132 50.4542 51.8157 49.8499 51.4099L50.6549 50.907C50.957 51.2081 51.3618 51.4099 51.6627 51.5113ZM63.0618 51.2079C62.452 51.2079 62.2513 51.1088 61.7495 51.1088C61.3426 51.1088 60.7394 51.4099 60.3359 51.8157C60.1329 51.5113 60.2378 51.2081 60.3359 50.9072C60.6368 50.6026 61.1419 50.2013 61.647 50.2013C62.356 50.2013 63.0618 50.8056 63.0618 51.2079ZM33.3099 52.3175C32.604 52.1178 31.8994 51.5113 31.5962 50.907C31.3933 50.5056 31.2952 49.9984 31.2952 49.5936C31.6966 49.6952 31.9999 49.9984 32.2028 50.2013V50.2994C32.6042 50.907 33.2095 51.5113 33.3099 52.3175ZM34.621 50.6026L34.4203 52.0152C34.0155 51.4099 33.7134 50.8056 33.6131 49.9984L34.621 50.6026ZM45.0077 51.8157C44.4012 52.0153 43.9987 51.5113 43.5951 51.2081C43.293 50.6026 43.293 49.9984 43.0923 49.5936C43.5951 49.9984 44.4012 49.9984 44.3008 50.907C44.3008 51.2081 44.7068 51.5113 45.0077 51.8157ZM47.4283 50.6026C46.8229 50.6026 46.117 50.907 45.816 50.2993C46.0156 50.2012 46.2174 49.8991 46.5218 49.6952L47.4283 50.6026ZM63.1611 49.5936C62.4518 49.3941 61.9492 49.1911 61.3426 49.1911C61.0416 49.1911 60.1329 49.3941 60.0336 49.5936C59.7281 49.2915 60.2376 48.3874 60.6368 48.1844C61.0416 47.9826 61.3426 48.084 61.5489 48.1844C61.5489 48.7898 62.2513 48.4877 62.6548 48.6872C62.8555 48.9883 63.0618 49.2915 63.161 49.5936H63.1611ZM49.3459 49.0908C49.143 49.3941 48.8409 49.0908 48.6381 49.0908H47.7303C47.6289 48.7898 47.5285 48.6872 47.4282 48.4876C47.9344 48.3874 48.2344 48.1842 48.5388 48.3874C48.8409 48.6872 48.9402 49.0908 49.3459 49.0908ZM40.6695 47.4785C40.5714 48.084 40.3674 49.0908 39.7642 49.3941C39.7642 49.0908 39.4608 48.7898 39.2592 48.4876C39.1599 48.4876 39.2592 48.7898 39.1599 48.7898C39.1599 49.0908 39.0596 49.3941 39.0596 49.8991C38.7541 49.9984 38.3504 50.2013 37.9491 49.9984V49.695C37.7461 49.3941 37.7461 49.0908 37.7461 48.7898L37.648 48.6872C37.444 48.7898 37.444 49.0908 37.444 49.2915C37.3437 49.3941 37.0426 49.6952 37.0426 49.9984C36.7371 49.9984 36.4361 49.8991 36.1318 49.695V48.6872C36.1318 48.4876 36.1318 48.4876 36.0325 48.4876L35.5253 49.0908C35.1272 48.6872 35.0258 47.881 35.0258 47.2745C36.7371 46.3681 38.7541 46.6703 40.0675 47.1776C40.267 47.2745 40.4689 47.2745 40.6696 47.4785H40.6695ZM48.5388 46.6703C47.9344 46.6703 47.6289 46.3681 47.3278 45.7628C47.3278 45.4617 47.2252 45.0559 47.3278 44.5531C47.4282 44.8552 47.5285 45.1584 47.7303 45.3581C48.134 45.1584 48.134 45.6602 48.2344 45.7628C48.337 46.066 48.5388 46.3681 48.5388 46.6703ZM46.3211 41.7266C46.3211 41.8304 46.117 42.6342 46.117 42.6342L45.3098 42.9397L45.816 40.6184C46.0156 41.0209 46.3211 41.4257 46.3211 41.7266ZM30.2874 40.013L29.8816 40.6184C29.9831 41.7266 29.4801 42.4347 29.4801 43.3411L28.9752 41.7266C29.0755 41.2239 29.1781 40.8202 29.4803 40.3163L30.2874 40.013ZM46.1172 46.3681C44.9064 45.6602 43.4939 45.1584 41.982 45.0559C41.982 45.3581 41.982 45.6602 41.8816 45.7628C43.0924 46.3681 44.301 46.9724 45.31 47.881V48.7898C44.301 47.7807 43.0924 46.6703 41.6787 46.3681C41.5783 46.5699 41.2784 46.8722 41.0744 47.1776C40.3675 46.6703 39.5615 46.2678 38.6562 46.066C38.3506 46.066 38.2525 45.66 38.2525 45.3581L38.1498 44.8552C38.6562 44.7536 39.0598 44.3501 39.1601 43.8473C39.2594 43.9476 39.4611 43.9476 39.6618 43.9476C39.8647 43.8473 39.8647 43.6443 39.8647 43.3411C39.8647 42.7379 38.5547 42.7379 37.9493 42.7379C37.2434 42.7379 36.7374 42.6342 36.2344 43.04C36.0327 43.04 36.1318 43.3411 36.1318 43.5441C36.1318 43.6444 36.4362 43.8474 36.4362 43.8474C36.7373 43.8474 36.8399 43.6444 37.0429 43.6444C36.9391 44.2497 37.2436 44.6522 37.7463 44.8552L37.6482 45.7628C37.3438 46.066 36.8399 45.863 36.4364 46.066C35.8309 46.3681 35.2266 46.6703 34.6212 46.9724C34.3201 46.6703 34.1171 46.3681 33.9164 46.066C32.9075 46.3681 32.3031 46.9724 31.2953 47.5789C30.992 47.7807 30.487 48.1844 30.487 48.1844C30.3867 48.084 30.487 47.7807 30.487 47.4785C31.3934 46.57 32.6043 46.2678 33.6132 45.66V44.8552C33.2097 44.7536 32.8072 44.8552 32.3033 44.8552C31.3934 45.0559 30.487 45.4617 29.7824 45.9634C29.7824 45.66 29.5794 45.3581 29.8816 45.1584C30.9921 44.5531 32.3033 44.1494 33.7136 44.2499V43.8473C33.6132 43.6444 33.6132 43.3411 33.4102 43.3411C32.8072 42.6342 32.2029 41.8304 32.2029 41.1236L32.5038 40.9195C32.3031 40.3163 32.2029 38.8022 32.5038 38.0976C31.8996 37.8958 31.2953 37.2903 31.0946 36.8878C30.8918 36.3817 30.6888 36.0806 30.5896 35.4753C30.7914 34.871 31.0946 34.5677 31.3934 33.9622C31.5964 33.9622 31.8996 33.862 32.0001 33.6589C32.5038 33.5587 32.9075 33.0537 33.513 33.3569C33.9165 33.3569 34.3201 33.5587 34.6212 33.659C34.6212 33.862 34.6212 33.9624 34.9256 34.1641C35.5254 34.2645 35.5254 34.871 35.8309 35.3727C36.132 35.4753 36.4362 35.4753 36.7373 35.4753C37.344 35.676 37.7463 35.676 38.0517 35.9793C38.8557 35.4753 39.7643 35.3727 40.6696 35.4753C40.7723 35.0716 40.9751 34.7684 41.0744 34.2645C41.2784 34.4663 41.1758 34.1641 41.3777 34.1641C41.8816 33.862 42.3855 33.3568 43.0924 33.5587C43.5953 33.862 44.3009 33.659 44.6053 34.2645C45.0078 34.5677 45.2098 35.173 45.5129 35.7774C45.2096 36.3817 45.5129 37.2903 44.9064 37.5914L44.3009 38.199C44.1002 38.199 43.9988 38.3986 43.6956 38.3986C43.999 39.1055 43.797 40.2172 43.4939 40.9195C43.6956 40.8202 43.9988 40.8202 44.1004 40.5181C44.2007 40.6184 44.1004 40.8202 44.1004 40.9195C43.9988 41.1236 43.9988 41.2239 43.9988 41.2239C44.1004 41.8304 43.6955 42.3321 43.2931 42.7379C43.0924 43.3411 42.5873 44.1494 41.8816 44.2497V44.5531C43.3935 44.5531 44.7068 44.8552 46.1172 45.6602V46.3681ZM68.8038 39.7108C68.5005 39.4087 68.1996 39.1055 67.796 39.1055C67.496 38.7018 67.0958 38.199 66.6854 38.199C66.991 38.0976 67.3935 37.8957 67.8974 37.8957C68.1996 38.3986 68.5006 38.8022 68.6033 39.1055L68.8038 39.7108ZM30.0845 38.5011L29.3787 38.8022L29.4803 38.199C29.681 37.8956 29.7824 37.5914 30.0845 37.2905V38.5011ZM65.5817 37.4933C65.1781 37.4933 64.8782 37.5914 64.4668 37.4933C64.2695 37.2903 63.9684 37.4933 63.7677 37.5914C63.5626 37.5914 63.3652 37.4933 63.062 37.2903C63.6641 37.2903 63.9684 36.8878 64.4668 36.6838C64.8782 36.9871 65.2762 37.19 65.5817 37.4933ZM43.2931 66.6421C43.2931 66.2396 42.9898 66.0366 42.5873 66.0366C42.2852 66.0366 41.8816 66.4403 41.8816 66.6421C41.8816 67.0468 41.5783 69.3647 41.5783 69.3647H42.3857C42.6889 68.3568 43.2931 67.146 43.2931 66.6421ZM40.9751 66.5384H40.8725L40.0677 65.7334H39.965C39.7643 65.9329 39.6617 66.2396 39.461 66.5384C39.461 67.4493 39.7643 68.4595 39.965 69.3647H40.8726C40.8726 68.3568 40.9753 67.4493 40.9753 66.5384H40.9751ZM57.212 65.3287L56.2052 65.4301C56.5061 65.7334 56.5061 66.137 56.5061 66.3387C56.5061 66.6421 56.4047 66.9432 56.2052 67.1461C55.8996 66.9432 55.8996 66.6421 55.6966 66.3387C55.4949 66.3387 55.3957 66.8405 55.3957 67.0468C55.3957 68.0546 55.7971 68.7627 56.1026 69.3649H57.1116C57.0079 68.4594 56.8095 67.7502 56.8095 66.8405C56.8095 66.3387 57.1116 65.7334 57.212 65.3287ZM80 55.6454C80 51.4099 78.5897 46.872 74.7554 43.04C74.1444 42.4347 73.346 41.7266 72.5355 41.2239C71.0226 40.217 69.6156 38.8022 68.8038 37.2903C68.2999 36.6838 67.8974 36.3818 67.2898 36.0806C67.3935 36.3817 67.592 36.6838 67.6934 36.9871H67.592C66.991 36.9871 66.4882 36.6838 66.0789 36.3817L66.4882 35.9792C66.3866 35.7774 66.0789 35.7774 65.8771 35.7774C64.0687 35.4753 62.5546 36.3817 60.9413 36.6838V36.8878C61.9493 37.2903 62.1532 38.5011 62.7543 39.1055H63.3652C63.664 39.1055 63.9684 39.4089 64.1668 39.3084C64.1668 39.1055 63.9684 38.8022 63.9684 38.7018C64.1668 38.5011 64.3709 38.5011 64.5716 38.7018C65.0734 39.004 65.8771 38.5011 66.2796 39.3085C65.6799 39.3085 65.0734 39.4087 64.5716 39.6094C64.5716 39.7108 64.8782 40.013 64.7734 40.217C64.2693 40.013 63.6641 40.217 63.3653 39.7108L63.2604 39.9126C63.9684 40.6184 64.8782 41.2239 65.7846 41.5282C67.1927 41.8304 68.4025 41.1236 69.7147 41.4255C71.2289 42.1314 72.4363 43.04 73.4453 44.049C76.7734 47.5789 77.9863 51.3084 77.9863 54.6364C77.9863 58.773 76.7734 61.6984 74.9595 63.5136C73.8468 64.6263 72.4363 65.6319 70.7215 65.6319C70.3201 65.6319 69.5107 65.5304 69.0079 65.128C69.3089 63.9161 69.5107 62.606 69.5107 60.6917C69.5107 59.5779 69.5107 56.6556 68.1015 53.226C67.796 52.5203 66.6854 50.2994 65.2764 48.7898C64.1668 47.6793 62.8557 46.6703 61.5491 46.6703C60.9413 46.6703 60.336 46.7718 59.8297 47.1776C59.3281 47.6793 59.0247 48.4876 59.1274 49.0908C58.2187 49.5936 56.9065 49.9984 55.7971 49.9984C54.487 49.9984 53.0766 49.2915 51.8636 48.4877V46.9725C51.1579 46.6703 50.9572 46.3681 50.8579 45.7628L50.9572 45.6602C51.2593 45.7628 51.4644 45.9635 51.6628 46.066C51.5626 45.3581 51.4644 44.5531 51.0598 43.9476C50.7565 43.9476 50.4543 43.8473 50.1489 43.6443C49.7485 43.3411 49.5457 42.9397 49.5457 42.4347C49.8501 42.9397 50.3529 42.738 50.6549 43.04C50.1489 41.8304 50.3529 41.2239 49.4443 39.3084C49.1432 38.3986 48.2345 37.8958 47.6291 37.2903C47.328 36.987 47.2255 36.6838 46.7227 36.6838C46.4205 36.5824 46.4205 36.0806 46.3212 35.7774C46.522 35.7774 46.7227 35.9792 46.9244 36.0808C46.4204 34.5677 45.9165 33.0536 44.5017 32.1461L44.3009 32.349C43.6956 32.447 43.0924 32.447 42.5873 32.447C42.788 32.1461 43.1917 32.0456 43.5953 31.8449C43.1917 31.5417 42.8905 31.4404 42.2853 31.4404C42.0824 31.5417 41.5783 31.8449 41.1758 31.8449H41.0744C41.0744 31.5417 40.9751 31.1359 41.5785 30.9364C40.9751 30.8338 40.4689 30.8338 39.7645 30.9364C39.6618 31.4404 39.2594 31.7436 39.2594 32.1461C38.9571 32.447 38.8557 32.7504 38.5546 33.0536C38.5546 32.349 38.8557 31.7436 38.9571 31.1359C38.5546 31.2375 38.0517 31.5419 37.7463 31.5419C36.9391 31.1359 35.9312 30.6331 35.5254 30.6331C36.132 31.1359 35.8309 31.8449 35.9313 32.447L35.5253 32.1461C35.327 31.7436 34.9256 31.4403 34.7215 30.9364C34.1173 30.9364 33.7136 31.1359 33.2097 31.4404L33.1105 31.5417C33.513 31.5417 33.9164 31.845 34.1171 32.1461C33.4104 32.1461 32.9075 31.845 32.2029 31.845C32.2029 31.845 32.2029 31.7436 31.9999 31.7436C31.6966 31.845 31.3934 32.1461 31.1916 32.349C30.4869 32.9522 29.9831 33.5587 29.5794 34.4663C29.7824 34.4663 30.0845 34.4663 30.1861 34.5677C29.8816 34.7684 29.5794 35.1732 29.178 35.3727V36.8878C28.8759 37.2903 28.4723 37.5914 28.2695 38.0976C27.7644 39.9126 27.664 41.8304 27.664 43.9476C27.4623 44.2497 27.2603 44.3501 27.0619 44.4527V46.2678C27.0619 46.2678 27.7644 45.5609 28.0676 45.3581C28.0676 45.7628 27.9672 46.3681 27.9672 46.7718C27.6639 46.7718 27.2603 47.1776 27.2603 47.5789C27.2603 47.9826 27.3607 48.3874 27.3607 48.7898C27.3607 48.9883 27.3607 49.0908 27.4622 49.2915C27.5637 49.0908 27.7644 48.7898 27.9672 48.6872C28.0676 48.6872 28.2693 48.4876 28.5716 48.4876C28.3709 48.7898 28.2693 49.2915 28.0676 49.6952L27.7642 49.9984C27.7642 49.9984 27.664 50.2013 27.664 50.2994C27.9674 52.4199 28.6718 54.4369 29.4803 56.5553C28.7734 57.9645 28.0677 59.4797 27.7644 60.588C27.4622 61.3953 27.0619 63.0096 27.0619 63.0096C26.5569 62.5067 25.8488 62.4053 25.2434 62.4053C24.5389 62.5067 23.9334 62.7074 23.4283 63.3117C22.8241 63.0096 22.0168 63.1099 21.6133 63.6138C20.7069 64.4244 20.7069 64.8258 20.7069 65.4301C20.4035 65.7334 20 66.2396 20 66.9432C20 67.9532 20.2028 68.5552 20.7069 69.3647H36.7373C36.5366 69.0626 36.3337 68.659 36.132 68.3568C35.8309 67.7502 36.0327 66.9432 36.0327 66.3387C36.3337 65.7334 36.7374 65.128 37.0427 64.5237C37.1398 64.2216 37.0427 64.2216 37.2434 64.1189L37.9493 63.8179C38.3507 63.8179 38.6562 63.6138 39.1601 63.6138C39.5615 64.1189 39.5615 63.2113 40.0677 63.0096C41.2784 62.9082 42.2852 63.0096 42.8907 63.9161C42.8907 64.1189 43.0924 64.1189 43.0924 64.2216H42.5873C41.982 63.9161 41.1758 63.6138 40.4689 63.9161C40.4689 64.2216 40.3675 64.2216 40.3675 64.5237V65.0278C40.7723 65.128 41.0744 65.4301 41.4779 65.7334C41.6787 65.3287 42.2853 65.0276 42.788 65.0276C43.2931 65.0276 44.1004 65.3287 44.1004 66.2394C44.1004 66.6421 43.9988 67.0468 43.9988 67.4493C44.4013 67.7502 45.0078 67.8485 45.5129 68.1527C45.31 68.4594 45.0078 68.4594 44.7069 68.4594H43.797C43.6956 68.3568 43.4937 68.3568 43.4937 68.1527C43.1917 68.4594 42.9898 68.9612 42.788 69.3647H55.0936C54.8918 68.9612 54.6866 68.659 54.5885 68.3568C54.2863 67.7502 54.3844 66.9432 54.2863 66.3387L55.4949 64.7277C56.1026 64.7277 56.7068 64.5237 57.8152 64.4244C58.0147 64.1189 57.8152 63.9161 58.7205 63.8179C59.5265 63.8179 60.0337 64.1189 60.2378 64.2216C60.3359 64.4244 60.3359 64.4244 60.2378 64.6263C60.0337 64.8258 59.6313 64.4244 59.3281 64.5237C59.1274 64.7277 59.4295 64.8258 59.4295 65.0278C59.6313 65.2285 58.5231 64.8258 58.5231 64.8258C58.5231 64.8258 58.2187 65.4301 58.1184 65.7334C58.1184 65.7334 58.6224 66.0368 58.7205 66.3387C58.9245 66.6421 58.5231 66.9432 58.5231 67.2476C58.2187 67.146 57.912 66.8405 57.8152 66.9432C57.6132 67.7502 57.8152 68.4594 57.7103 69.3647H58.823L59.0247 67.5485C59.1274 66.5384 60.336 64.6263 61.0417 64.6263C61.5491 64.6263 61.7496 64.8258 62.1533 65.128C62.4522 65.4301 62.8557 65.7334 62.8557 65.9329C62.8557 66.0366 62.5546 66.2396 62.0507 66.2396C61.85 66.2396 61.7496 65.9329 61.5491 65.7334L60.9413 66.3387C60.9413 66.3387 61.6472 66.9432 61.6472 67.4493C61.6472 67.8485 61.5491 68.1527 61.1421 68.3568L60.5399 67.146C60.2378 67.146 59.7283 67.7502 59.7283 68.1527C59.7283 68.5552 59.5265 68.7627 59.5265 69.3647H66.0789C66.7903 69.3647 67.3934 69.1607 68.1015 68.7626H69.4103C71.2289 68.7626 73.548 68.4594 75.9639 66.137C79.7972 62.5067 80 57.561 80 55.6454ZM39.1601 69.3647C38.656 68.3568 38.5546 66.9432 38.5546 66.6421C38.5546 66.0366 38.5546 65.3287 38.8557 64.8258L37.6484 65.128C37.4442 65.4301 37.3438 65.7334 37.3438 65.9329L37.7463 65.7334C37.9493 65.7334 38.0517 65.9329 38.15 66.0368C38.0519 66.6419 37.4442 66.6419 37.1398 66.8405C36.8399 67.8485 37.7464 68.4594 37.9493 69.3647H39.1601Z"
          fill="#EB6606"/>
</svg>
