<svg width="100" height="100" viewBox="0 0 100 100" fill="none" xmlns="http://www.w3.org/2000/svg">
    <rect width="100" height="100" rx="8" transform="matrix(1 0 0 -1 0 100)" fill="white"/>
    <path d="M42.8452 45.4282C40.8977 45.4282 39.6546 46.4365 38.8949 47.6381H38.8259L38.8535 45.6906H35.0828C34.7375 45.6906 34.4336 46.1188 34.4336 46.5056V58.5221C34.4336 58.9088 34.7513 59.3094 35.0966 59.3094H38.8535V52.5691C38.8535 50.6216 39.3922 49.0746 41.2844 49.0746C43.1076 49.0746 43.3839 50.4282 43.3839 52.2238V58.5083C43.3839 58.9364 43.7016 59.2956 44.033 59.2956H47.8037V51.2431C47.8176 47.9696 46.7955 45.4282 42.8452 45.4282ZM71.9887 45.4282C70.207 45.4282 68.9777 46.0774 68.2595 46.7404C68.2871 46.2431 68.2871 45.5387 68.2871 44.8343V40.2487H64.5302C64.1849 40.2487 63.881 40.6769 63.881 41.036V58.5083C63.881 58.9364 64.1987 59.2956 64.544 59.2956H68.0799L68.0523 58.1768C69.0606 59.1436 70.428 59.5994 71.9611 59.5994C75.9114 59.5994 78.4252 56.5055 78.4252 52.5C78.3975 48.5083 75.9114 45.4282 71.9887 45.4282ZM71.0357 55.9254C69.1849 55.9254 67.9003 54.4889 67.9003 52.3895C67.9003 50.2901 69.1711 48.8536 71.0357 48.8536C72.8865 48.8536 74.1296 50.2901 74.1296 52.3895C74.1296 54.4889 72.9003 55.9254 71.0357 55.9254ZM33.6602 45.6768H29.116C28.7707 45.6768 28.4116 45.8702 28.1906 46.1326L24.4337 50.1934V40.2349H20.6492C20.3039 40.2349 20 40.663 20 41.0222V58.5083C20 58.895 20.2624 59.2956 20.6492 59.2956H24.4199V55.1795L25.6491 54.0055L28.674 58.7845C28.9502 59.1712 29.337 59.2956 29.7928 59.2956H34.0607L28.674 50.7735L33.6602 45.6768ZM60.5661 47.0166C59.4888 46.0083 58.0109 45.4282 55.4833 45.4282C53.3148 45.4282 51.4501 46.0359 50.2209 46.547C49.9032 46.6989 49.7651 47.1271 49.9032 47.4448L50.801 49.6961C51.5054 49.2403 53.2319 48.4669 54.9584 48.4669C56.7402 48.4669 57.7485 49.2127 57.7485 50.6492V50.953L54.3092 51.0774C51.7954 51.1879 49.0054 52.2099 49.0054 55.2348C49.0054 58.2596 51.5606 59.5718 53.9639 59.5718C56.1739 59.5718 57.2927 58.4116 57.8728 57.8315L57.9418 58.7569C57.9694 59.0193 58.2042 59.2541 58.5495 59.2541H62.1959V51.616C62.1821 49.337 61.6158 48.0111 60.5661 47.0166ZM57.8037 55.5663C57.5275 56.0359 56.7264 56.8094 55.5523 56.8094C54.3231 56.8094 53.4667 56.1602 53.4667 55.1381C53.4667 54.1298 54.254 53.5221 55.6076 53.4807L57.7899 53.3564V55.5663H57.8037ZM78.8671 59.7652C78.218 59.7652 77.7346 59.2679 77.7346 58.6326C77.7346 57.9834 78.2318 57.5 78.8671 57.5C79.5025 57.5 79.9997 57.9972 79.9997 58.6326C80.0135 59.2817 79.4887 59.7652 78.8671 59.7652ZM78.8671 57.6657C78.3285 57.6657 77.9003 58.0939 77.9003 58.6326C77.9003 59.1712 78.3285 59.5994 78.8671 59.5994C79.4058 59.5994 79.834 59.1712 79.834 58.6326C79.834 58.0939 79.4058 57.6657 78.8671 57.6657ZM79.4334 59.2956H79.1158L78.8395 58.7569H78.7152V59.2956H78.439V57.9696H78.9086C79.1848 57.9696 79.3782 58.1215 79.3782 58.384C79.3782 58.6464 79.2124 58.7293 79.102 58.7707L79.4334 59.2956ZM78.8533 58.2044H78.7014V58.5635H78.8533C78.9776 58.5635 79.0881 58.5359 79.0881 58.3978C79.0881 58.2182 78.9776 58.2044 78.8533 58.2044Z"
          fill="#3E4A59"/>
</svg>
