<svg width="100" height="100" viewBox="0 0 100 100" fill="none" xmlns="http://www.w3.org/2000/svg">
    <rect width="100" height="100" rx="8" fill="white"/>
    <path d="M79.8177 49.9987C79.8177 66.4613 66.4996 79.7794 50.0369 79.7794C33.5743 79.7794 20.2562 66.4613 20.2562 49.9987C20.2562 33.536 33.5743 20.2179 50.0369 20.2179C66.438 20.2179 79.8177 33.536 79.8177 49.9987Z" fill="white"/>
    <path d="M49.9753 79.9028C66.4909 79.9028 79.8794 66.5143 79.8794 49.9987C79.8794 33.4831 66.4909 20.0946 49.9753 20.0946C33.4597 20.0946 20.0712 33.4831 20.0712 49.9987C20.0712 66.5143 33.4597 79.9028 49.9753 79.9028Z" fill="white"/>
    <path d="M49.9753 49.9987L61.0737 43.8329L78.7695 58.2608L49.9753 49.9987Z" fill="url(#paint0_linear_15_902)"/>
    <path d="M61.0737 43.8329L78.7695 58.2608L76.9814 57.336L61.0737 44.3261V43.8329Z" fill="#E53121"/>
    <path d="M49.9753 49.9987L61.0737 43.8329L61.012 44.3261L50.9618 49.8754L49.9753 49.9987Z" fill="#F08465"/>
    <path d="M78.7695 58.2608L49.9753 49.9987L51.0235 49.8754L76.9814 57.336L78.7695 58.2608Z" fill="#B82B18"/>
    <path d="M49.9753 49.9987L61.0737 43.8329L58.2374 21.2044L49.9753 49.9987Z" fill="#F5B0AC"/>
    <path d="M58.2374 21.2044L49.9753 49.9987L50.6535 49.1971L58.1141 23.1775L58.2374 21.2044Z" fill="#D47785"/>
    <path d="M61.0737 43.8329L58.2375 21.2044L58.1141 23.1775L60.7038 43.5862L61.0737 43.8329Z" fill="#D99E9B"/>
    <path d="M49.9753 49.9987L61.0737 43.8329L60.6421 43.5862L50.5919 49.1355L49.9753 49.9987Z" fill="#F9D1CD"/>
    <path d="M56.141 61.0971L41.7131 78.7929L42.6379 77.0049L55.6478 61.0355L56.141 61.0971Z" fill="#F9F9FC"/>
    <path d="M49.9753 49.9987L56.1411 61.0971L55.6478 61.0354L50.0986 50.9852L49.9753 49.9987Z" fill="#F3F2F9"/>
    <path d="M41.7131 78.7929L49.9752 49.9987L50.0985 51.0468L42.6379 77.0048L41.7131 78.7929Z" fill="#DCDAEE"/>
    <path d="M49.9753 49.9987L56.1411 61.0971L78.7695 58.2608L49.9753 49.9987Z" fill="#2B2B85"/>
    <path d="M78.7695 58.2608L49.9753 49.9987L50.7768 50.6769L76.7965 58.1375L78.7695 58.2608Z" fill="#484293"/>
    <path d="M56.1411 61.0971L78.7695 58.2608L76.7965 58.1375L56.3877 60.7271L56.1411 61.0971Z" fill="#24236F"/>
    <path d="M49.9753 49.9987L56.1411 61.0971L56.3877 60.6655L50.8385 50.6152L49.9753 49.9987Z" fill="#8F88C0"/>
    <path d="M49.9752 49.9987L38.8768 56.1645L21.181 41.7365L49.9752 49.9987Z" fill="url(#paint1_linear_15_902)"/>
    <path d="M38.8768 56.1645L21.181 41.7365L22.969 42.6614L38.9384 55.6712L38.8768 56.1645Z" fill="#BBB7DB"/>
    <path d="M49.9753 49.9987L38.8768 56.1644L38.9385 55.6712L48.9887 50.122L49.9753 49.9987Z" fill="#B0AAD4"/>
    <path d="M21.181 41.7365L49.9752 49.9987L48.927 50.122L22.969 42.6614L21.181 41.7365Z" fill="#D1CCE6"/>
    <path d="M49.9753 49.9987L38.8768 56.1644L41.7131 78.7929L49.9753 49.9987Z" fill="#FFDD00"/>
    <path d="M41.7131 78.7929L49.9752 49.9987L49.297 50.8002L41.898 76.8199L41.7131 78.7929Z" fill="#DBBB85"/>
    <path d="M38.8768 56.1645L41.7131 78.7929L41.8364 76.8199L39.2468 56.4111L38.8768 56.1645Z" fill="#EBC536"/>
    <path d="M49.9753 49.9987L38.8768 56.1644L39.3084 56.4111L49.3587 50.8619L49.9753 49.9987Z" fill="#FFE167"/>
    <path d="M49.9752 49.9987L43.8094 38.9002L58.2374 21.2044L49.9752 49.9987Z" fill="#E53121"/>
    <path d="M43.8094 38.9002L58.2374 21.2044L57.3125 22.9925L44.3027 38.9619L43.8094 38.9002Z" fill="#EA583C"/>
    <path d="M49.9752 49.9987L43.8094 38.9003L44.3027 38.9619L49.8519 49.0122L49.9752 49.9987Z" fill="#D42F1E"/>
    <path d="M58.2374 21.2044L49.9752 49.9987L49.8519 48.9505L57.3125 22.9925L58.2374 21.2044Z" fill="#C22C1A"/>
    <path d="M49.9752 49.9987L43.8094 38.9003L21.181 41.7365L49.9752 49.9987Z" fill="#F3F2F9"/>
    <path d="M21.181 41.7365L49.9752 49.9987L49.1737 49.3204L23.154 41.9215L21.181 41.7365Z" fill="#F9F8FB"/>
    <path d="M43.8094 38.9003L21.181 41.7365L23.154 41.8598L43.5628 39.2702L43.8094 38.9003Z" fill="#DCDAEE"/>
    <path d="M49.9753 49.9987L43.8095 38.9003L43.5629 39.3319L49.1121 49.3821L49.9753 49.9987Z" fill="#F9F9FC"/>
    <path d="M71.5555 29.2199C67.8561 25.3971 63.2934 22.6842 58.2374 21.2044L61.0737 43.8329L71.5555 29.2199Z" fill="url(#paint2_linear_15_902)"/>
    <path d="M58.2374 21.2044L61.0737 43.8329L61.3203 42.7847L58.669 21.3277C58.5457 21.3277 58.3607 21.2661 58.2374 21.2044Z" fill="#8F88C0"/>
    <path d="M71.2472 28.9117L61.3819 42.7847L61.1353 43.8329L71.5555 29.1583C71.4322 29.0967 71.3705 28.9733 71.2472 28.9117Z" fill="#A59FCE"/>
    <path d="M71.5555 29.2199C67.8561 25.3971 63.2934 22.6842 58.2374 21.2044L58.7923 22.1909C63.355 23.6091 67.4245 26.137 70.8156 29.5282L71.5555 29.2199Z" fill="url(#paint3_linear_15_902)"/>
    <path d="M61.0737 43.8329L71.4939 29.1583C75.1317 32.9195 77.7213 37.6055 79.0161 42.7231L61.0737 43.8329Z" fill="url(#paint4_linear_15_902)"/>
    <path d="M71.5555 29.22L61.0737 43.8329L61.8752 43.4013L71.8021 29.5283C71.7405 29.4049 71.6172 29.2816 71.5555 29.22Z" fill="#ED6F50"/>
    <path d="M78.9545 42.3531L61.9369 43.4013L61.1353 43.8329L79.0778 42.723C79.0161 42.5997 78.9545 42.4764 78.9545 42.3531Z" fill="#A62714"/>
    <path d="M78.1529 42.4148C76.9198 37.8521 74.5768 33.6594 71.3705 30.1449L71.5555 29.1583C75.1933 32.9195 77.783 37.6055 79.0778 42.7231L78.1529 42.4148Z" fill="url(#paint5_linear_15_902)"/>
    <path d="M61.0737 43.8329L79.0161 42.723C80.2493 47.6557 80.2493 52.9582 78.7695 58.1992L61.0737 43.8329Z" fill="url(#paint6_linear_15_902)"/>
    <path d="M79.0778 42.7847L61.1353 43.8946L62.1835 44.2029L79.2011 43.1547C79.1394 43.0314 79.0778 42.908 79.0778 42.7847Z" fill="#D1CEE8"/>
    <path d="M78.7695 58.2608C78.8311 58.1375 78.8312 57.9525 78.8928 57.8292L62.1219 44.2028L61.0737 43.8945L78.7695 58.2608Z" fill="#F3F2F9"/>
    <path d="M78.2145 57.2743C79.4477 52.5267 79.4477 47.7174 78.3379 43.2163L79.0778 42.7847C80.3109 47.7174 80.3109 53.0199 78.8311 58.2609L78.2145 57.2743Z" fill="url(#paint7_linear_15_902)"/>
    <path d="M29.1965 28.48C25.497 31.9945 22.7224 36.4956 21.181 41.7365L43.8094 38.9002L29.1965 28.48Z" fill="url(#paint8_linear_15_902)"/>
    <path d="M21.181 41.7365L43.8094 38.9003L42.7612 38.6536L21.3043 41.3049C21.3043 41.4282 21.2426 41.6132 21.181 41.7365Z" fill="#FFCB00"/>
    <path d="M28.8882 28.7267L42.7613 38.5919L43.8095 38.8386L29.1965 28.48C29.0732 28.5417 29.0116 28.665 28.8882 28.7267Z" fill="#FFDD00"/>
    <path d="M29.1965 28.48C25.3737 32.1179 22.6608 36.6805 21.181 41.7365L22.1675 41.1816C23.5856 36.6189 26.1136 32.5495 29.5048 29.1583C29.5664 29.2199 29.1965 28.48 29.1965 28.48Z" fill="#FFF8C7"/>
    <path d="M43.8095 38.9003L29.1965 28.4801C32.9577 24.8423 37.6437 22.2526 42.7613 20.9578L43.8095 38.9003Z" fill="url(#paint9_linear_15_902)"/>
    <path d="M29.1965 28.4801L43.8711 38.9003L43.4395 38.0987L29.5048 28.1718C29.3815 28.2951 29.2582 28.3568 29.1965 28.4801ZM42.3297 21.0195L43.3779 38.0371L43.8095 38.8386L42.7613 20.9578L42.3297 21.0195Z" fill="#E53121"/>
    <path d="M42.3913 21.8827C37.8287 23.1159 33.6359 25.4589 30.1214 28.6651L29.1349 28.4801C32.896 24.8423 37.582 22.2526 42.6996 20.9578L42.3913 21.8827Z" fill="url(#paint10_linear_15_902)"/>
    <path d="M43.8095 38.9002L42.7613 20.9578C47.6939 19.7246 52.9965 19.7246 58.2374 21.2044L43.8095 38.9002Z" fill="url(#paint11_linear_15_902)"/>
    <path d="M42.7613 20.9578L43.8711 38.9002L44.1794 37.8521L43.1312 20.8345C43.0079 20.8961 42.8846 20.8961 42.7613 20.9578Z" fill="#1E398E"/>
    <path d="M58.2374 21.2044C58.1141 21.1428 57.9291 21.1428 57.8058 21.0811L44.1794 37.8521L43.8711 38.9003L58.2374 21.2044Z" fill="#2F2482"/>
    <path d="M57.2509 21.7594C52.5032 20.5262 47.6939 20.5262 43.1929 21.636L42.7613 20.8961C47.6939 19.663 52.9965 19.663 58.2374 21.1428L57.2509 21.7594Z" fill="url(#paint12_linear_15_902)"/>
    <path d="M28.4566 70.8391C32.0944 74.6002 36.7188 77.3748 41.7747 78.7929L38.9384 56.1645L28.4566 70.8391Z" fill="#2B2B85"/>
    <path d="M41.7131 78.7929L38.8768 56.1645L38.6302 57.2127L41.3431 78.6696C41.4665 78.7313 41.5898 78.7313 41.7131 78.7929Z" fill="#24236F"/>
    <path d="M28.7032 71.0857L38.5685 57.2127L38.8151 56.1645L28.4566 70.8391L28.7032 71.0857Z" fill="#5B549F"/>
    <path d="M28.4566 70.8391C32.0944 74.6002 36.7188 77.3748 41.7747 78.7929L41.2198 77.8064C36.6571 76.3883 32.5877 73.8603 29.1965 70.4691L28.4566 70.8391Z" fill="url(#paint13_linear_15_902)"/>
    <path d="M38.8768 56.1645L28.4567 70.8391C24.8328 67.0334 22.2432 62.3637 20.9344 57.2743L38.8768 56.1645Z" fill="url(#paint14_linear_15_902)"/>
    <path d="M28.4567 70.8391L38.8769 56.1645L38.0753 56.5961L28.1484 70.5308C28.2717 70.5924 28.3334 70.7158 28.4567 70.8391Z" fill="#B0AAD4"/>
    <path d="M20.996 57.6443L38.0136 56.5961L38.8152 56.1645L20.9344 57.2743C20.9344 57.3976 20.996 57.521 20.996 57.6443Z" fill="#DAD8ED"/>
    <path d="M21.8593 57.5826C23.0924 62.1453 25.4354 66.338 28.6416 69.8525L28.4567 70.839C24.8328 67.0334 22.2432 62.3637 20.9344 57.2743L21.8593 57.5826Z" fill="url(#paint15_linear_15_902)"/>
    <path d="M38.8769 56.1645L20.9344 57.2743C19.7013 52.3417 19.7013 47.0391 21.181 41.7982L38.8769 56.1645Z" fill="#E53121"/>
    <path d="M20.9344 57.2743L38.8768 56.1645L37.8286 55.8562L20.811 56.8427C20.8727 56.966 20.8727 57.0894 20.9344 57.2743Z" fill="#CA2D0A"/>
    <path d="M21.181 41.7365C21.1194 41.8598 21.1194 42.0448 21.0577 42.1681L37.8287 55.8562L38.8768 56.1645L21.181 41.7365ZM21.7359 42.723C20.5028 47.4707 20.5028 52.28 21.6126 56.781L20.8727 57.2126C19.6396 52.1567 19.7629 46.7925 21.181 41.7365L21.7359 42.723Z" fill="#ED6F50"/>
    <path d="M70.8156 71.579C74.5768 67.9412 77.3514 63.3168 78.7695 58.2609L56.1411 61.0971L70.8156 71.579Z" fill="url(#paint16_linear_15_902)"/>
    <path d="M78.7695 58.2609L56.1411 61.0971L57.1892 61.3438L78.6462 58.6308C78.7079 58.5692 78.7078 58.3842 78.7695 58.2609Z" fill="#7B73B3"/>
    <path d="M71.0623 71.2707L57.1892 61.4054L56.1411 61.1588L70.8156 71.5789C70.8773 71.4556 71.0006 71.3323 71.0623 71.2707Z" fill="#D1CEE8"/>
    <path d="M70.8156 71.579C74.4534 68.0645 77.2897 63.5018 78.7695 58.2609L77.783 58.8158C76.3648 63.3785 73.8369 67.4479 70.4457 70.8391L70.8156 71.579Z" fill="#655EA5"/>
    <path d="M56.1411 61.0971L70.8156 71.5173C67.0545 75.1551 62.3685 77.7447 57.2509 79.0396L56.1411 61.0971Z" fill="url(#paint17_linear_15_902)"/>
    <path d="M70.8156 71.579L56.1411 61.0971L56.5727 61.8987L70.4457 71.8256C70.569 71.7639 70.6923 71.6406 70.8156 71.579ZM57.6208 78.9779L56.5727 61.9603L56.1411 61.1588L57.2509 79.1012C57.3742 79.0396 57.4975 78.9779 57.6208 78.9779Z" fill="#E53121"/>
    <path d="M57.5591 78.1764C62.1218 76.9432 66.3146 74.6002 69.8291 71.394L70.8156 71.579C67.0545 75.2168 62.3685 77.8064 57.2509 79.1012L57.5591 78.1764Z" fill="url(#paint18_linear_15_902)"/>
    <path d="M56.141 61.0971L57.2509 79.0396C52.3182 80.2727 47.0156 80.2727 41.7747 78.7929L56.141 61.0971Z" fill="url(#paint19_linear_15_902)"/>
    <path d="M57.2509 79.0396L56.1411 61.0971L55.8328 62.1453L56.8809 79.1629C56.9426 79.1012 57.1276 79.1012 57.2509 79.0396Z" fill="#F5B0AC"/>
    <path d="M41.7131 78.7929L42.1447 78.9162L55.8327 62.1453L56.141 61.0971L41.7131 78.7929Z" fill="#FAD9D5"/>
    <path d="M42.6996 78.238C47.4473 79.4712 52.2566 79.4712 56.7576 78.3614L57.1892 79.1012C52.0716 80.3961 46.769 80.2727 41.7131 78.8546L42.6996 78.238Z" fill="url(#paint20_linear_15_902)"/>
    <defs>
        <linearGradient id="paint0_linear_15_902" x1="62.7428" y1="49.0204" x2="74.1763" y2="52.2486" gradientUnits="userSpaceOnUse">
            <stop stop-color="#E53121"/>
            <stop offset="1" stop-color="#C22C1A"/>
        </linearGradient>
        <linearGradient id="paint1_linear_15_902" x1="21.3611" y1="46.5036" x2="50.0535" y2="54.605" gradientUnits="userSpaceOnUse">
            <stop stop-color="#DCDAEE"/>
            <stop offset="1" stop-color="#8F88C0"/>
        </linearGradient>
        <linearGradient id="paint2_linear_15_902" x1="70.5443" y1="35.4363" x2="55.3284" y2="31.3595" gradientUnits="userSpaceOnUse">
            <stop stop-color="#7B73B3"/>
            <stop offset="1" stop-color="#C6C2E2"/>
        </linearGradient>
        <linearGradient id="paint3_linear_15_902" x1="71.8718" y1="29.1003" x2="58.1505" y2="21.1779" gradientUnits="userSpaceOnUse">
            <stop stop-color="#6C62A8"/>
            <stop offset="1" stop-color="#CBCAE6"/>
        </linearGradient>
        <linearGradient id="paint4_linear_15_902" x1="64.7417" y1="32.938" x2="72.9169" y2="47.0983" gradientUnits="userSpaceOnUse">
            <stop stop-color="#E53121"/>
            <stop offset="1" stop-color="#A62714"/>
        </linearGradient>
        <linearGradient id="paint5_linear_15_902" x1="71.5857" y1="29.2397" x2="79.5082" y2="42.9617" gradientUnits="userSpaceOnUse">
            <stop stop-color="#E84D2C"/>
            <stop offset="1" stop-color="#811F08"/>
        </linearGradient>
        <linearGradient id="paint6_linear_15_902" x1="69.1225" y1="40.7438" x2="76.1133" y2="59.9509" gradientUnits="userSpaceOnUse">
            <stop stop-color="#F3F2F9"/>
            <stop offset="1" stop-color="#BBB7DB"/>
        </linearGradient>
        <linearGradient id="paint7_linear_15_902" x1="76.3913" y1="49.7878" x2="81.073" y2="51.1301" gradientUnits="userSpaceOnUse">
            <stop stop-color="white"/>
            <stop offset="1" stop-color="#BBB7DB"/>
        </linearGradient>
        <linearGradient id="paint8_linear_15_902" x1="24.8708" y1="35.0189" x2="43.8456" y2="40.3765" gradientUnits="userSpaceOnUse">
            <stop stop-color="#FFF098"/>
            <stop offset="1" stop-color="#FFD530"/>
        </linearGradient>
        <linearGradient id="paint9_linear_15_902" x1="30.188" y1="25.1617" x2="47.2709" y2="31.3799" gradientUnits="userSpaceOnUse">
            <stop stop-color="#F4A286"/>
            <stop offset="1" stop-color="#E53121"/>
        </linearGradient>
        <linearGradient id="paint10_linear_15_902" x1="28.8722" y1="28.6484" x2="43.032" y2="20.4732" gradientUnits="userSpaceOnUse">
            <stop stop-color="#F4A286"/>
            <stop offset="1" stop-color="#E53121"/>
        </linearGradient>
        <linearGradient id="paint11_linear_15_902" x1="42.2065" y1="27.5633" x2="56.5565" y2="31.615" gradientUnits="userSpaceOnUse">
            <stop stop-color="#4464AC"/>
            <stop offset="1" stop-color="#1D3584"/>
        </linearGradient>
        <linearGradient id="paint12_linear_15_902" x1="42.929" y1="20.8795" x2="58.4298" y2="20.8795" gradientUnits="userSpaceOnUse">
            <stop stop-color="#4464AC"/>
            <stop offset="0.373" stop-color="#2F4B97"/>
            <stop offset="0.728" stop-color="#223B89"/>
            <stop offset="1" stop-color="#1D3584"/>
        </linearGradient>
        <linearGradient id="paint13_linear_15_902" x1="27.7599" y1="72.4157" x2="42.4838" y2="76.638" gradientUnits="userSpaceOnUse">
            <stop stop-color="#5B62A2"/>
            <stop offset="0.152" stop-color="#4C579A"/>
            <stop offset="0.482" stop-color="#31438C"/>
            <stop offset="0.776" stop-color="#213783"/>
            <stop offset="1" stop-color="#1B3380"/>
        </linearGradient>
        <linearGradient id="paint14_linear_15_902" x1="29.8655" y1="56.2625" x2="31.1739" y2="71.217" gradientUnits="userSpaceOnUse">
            <stop stop-color="white"/>
            <stop offset="1" stop-color="#DAD8ED"/>
        </linearGradient>
        <linearGradient id="paint15_linear_15_902" x1="19.1623" y1="62.4702" x2="30.0135" y2="65.5815" gradientUnits="userSpaceOnUse">
            <stop stop-color="white"/>
            <stop offset="1" stop-color="#D1CEE8"/>
        </linearGradient>
        <linearGradient id="paint16_linear_15_902" x1="57.8161" y1="60.127" x2="77.9048" y2="65.7991" gradientUnits="userSpaceOnUse">
            <stop stop-color="#D1CEE8"/>
            <stop offset="1" stop-color="#7B73B3"/>
        </linearGradient>
        <linearGradient id="paint17_linear_15_902" x1="55.8537" y1="61.1107" x2="65.0888" y2="77.1072" gradientUnits="userSpaceOnUse">
            <stop stop-color="#E53121"/>
            <stop offset="1" stop-color="#B02916"/>
        </linearGradient>
        <linearGradient id="paint18_linear_15_902" x1="57.0671" y1="79.5001" x2="71.2262" y2="71.3249" gradientUnits="userSpaceOnUse">
            <stop stop-color="#E53121"/>
            <stop offset="1" stop-color="#9D2511"/>
        </linearGradient>
        <linearGradient id="paint19_linear_15_902" x1="48.0379" y1="69.0251" x2="58.1548" y2="79.1419" gradientUnits="userSpaceOnUse">
            <stop stop-color="#F5B0AC"/>
            <stop offset="1" stop-color="#EF8495"/>
        </linearGradient>
        <linearGradient id="paint20_linear_15_902" x1="41.9295" y1="79.1191" x2="57.4291" y2="79.1191" gradientUnits="userSpaceOnUse">
            <stop stop-color="#F5B0AC"/>
            <stop offset="1" stop-color="#EE788F"/>
        </linearGradient>
    </defs>
</svg>
