<?xml version="1.0" encoding="utf-8"?>
<!-- Generator: Adobe Illustrator 24.0.1, SVG Export Plug-In . SVG Version: 6.00 Build 0)  -->
<svg version="1.1" id="OUTLINED" xmlns="http://www.w3.org/2000/svg" xmlns:xlink="http://www.w3.org/1999/xlink" x="0px" y="0px"
	 viewBox="0 0 32 32" style="enable-background:new 0 0 32 32;" xml:space="preserve">
<path d="M18.1,16l5.8-5.8c0.6-0.6,0.6-1.5,0-2.1s-1.5-0.6-2.1,0L16,13.9l-5.8-5.8c-0.6-0.6-1.5-0.6-2.1,0s-0.6,1.5,0,2.1l5.8,5.8
	l-5.8,5.8c-0.6,0.6-0.6,1.5,0,2.1c0.3,0.3,0.7,0.4,1.1,0.4s0.8-0.1,1.1-0.4l5.8-5.8l5.8,5.8c0.3,0.3,0.7,0.4,1.1,0.4
	s0.8-0.1,1.1-0.4c0.6-0.6,0.6-1.5,0-2.1L18.1,16z"/>
</svg>
