<svg width="32" height="32" viewBox="0 0 32 32" fill="currentColor" xmlns="http://www.w3.org/2000/svg">
    <path d="M4 27.3333C2.34533 27.3333 1 25.9879 1 24.3333V8.33325C1 7.66125 1.21867 7.02525 1.63467 6.49325C1.644 6.47859 1.65467 6.46392 1.664 6.45192C1.672 6.44125 1.684 6.42792 1.69467 6.41592C2.26133 5.73059 3.10267 5.33325 4 5.33325H28C28.8947 5.33325 29.7347 5.72925 30.308 6.41859C30.3213 6.43192 30.3333 6.44659 30.3427 6.45992C30.3507 6.46925 30.3587 6.48259 30.3667 6.49459C30.7813 7.02659 31 7.66125 31 8.33325V24.3333C31 25.9879 29.6547 27.3333 28 27.3333H4ZM3 24.3333C3 24.8853 3.448 25.3333 4 25.3333H28C28.552 25.3333 29 24.8853 29 24.3333V8.74925L19.2987 16.2106C18.36 16.9333 17.188 17.3319 16 17.3319C14.812 17.3319 13.64 16.9333 12.7013 16.2106L3 8.74925V24.3333ZM13.92 14.6253C14.512 15.0813 15.2507 15.3319 16 15.3319C16.7493 15.3319 17.4867 15.0813 18.0787 14.6253L27.56 7.33192H4.43867L13.92 14.6253Z"/>
</svg>
