<svg width="186" height="179" viewBox="0 0 186 179" fill="none" xmlns="http://www.w3.org/2000/svg">
    <g clip-path="url(#clip0_618_9658)">
        <path d="M156.205 42.223H155.23V15.4787C155.23 11.3735 153.599 7.43645 150.696 4.53362C147.793 1.63079 143.856 2.01912e-09 139.751 2.01912e-09H83.0884C81.0557 -3.28287e-05 79.0429 0.400304 77.1649 1.17815C75.2869 1.956 73.5805 3.09613 72.1432 4.53344C70.7058 5.97076 69.5656 7.6771 68.7877 9.55506C68.0098 11.433 67.6094 13.4458 67.6094 15.4785V162.2C67.6094 166.305 69.2402 170.242 72.143 173.145C75.0458 176.047 78.9829 177.678 83.0881 177.678H139.75C143.855 177.678 147.792 176.047 150.695 173.145C153.598 170.242 155.229 166.305 155.229 162.2V61.26H156.204L156.205 42.223Z"
              fill="#3F3D56"/>
        <path d="M152.054 14.4409V163.235C152.053 166.347 150.817 169.332 148.616 171.533C146.415 173.734 143.431 174.972 140.318 174.973H82.4932C79.3795 174.973 76.3931 173.737 74.1909 171.535C71.9886 169.334 70.7509 166.348 70.75 163.235V14.4409C70.7509 11.3272 71.9886 8.34149 74.1907 6.14029C76.3928 3.93909 79.3791 2.70273 82.4927 2.70313H89.5073C89.1628 3.55012 89.0317 4.46876 89.1255 5.37828C89.2193 6.28781 89.535 7.16039 90.0449 7.91931C90.5549 8.67823 91.2435 9.30027 92.0502 9.73075C92.8568 10.1612 93.7569 10.387 94.6712 10.3881H127.638C128.553 10.387 129.453 10.1612 130.259 9.73075C131.066 9.30027 131.755 8.67823 132.265 7.91931C132.775 7.16039 133.09 6.28781 133.184 5.37828C133.278 4.46876 133.147 3.55012 132.802 2.70313H140.316C143.428 2.70366 146.413 3.94017 148.614 6.14082C150.816 8.34148 152.053 11.3261 152.054 14.4386V14.4409Z"
              fill="white"/>
        <path d="M111.391 74.1731C124.724 74.1731 135.532 63.3647 135.532 50.0319C135.532 36.699 124.724 25.8906 111.391 25.8906C98.0584 25.8906 87.25 36.699 87.25 50.0319C87.25 63.3647 98.0584 74.1731 111.391 74.1731Z"
              fill="#0077C8"/>
        <path d="M137.722 100.149H86.3382C86.0859 100.149 85.8441 100.048 85.6657 99.87C85.4873 99.6916 85.387 99.4498 85.3867 99.1975V86.4515C85.387 86.1992 85.4874 85.9574 85.6658 85.7791C85.8441 85.6007 86.086 85.5003 86.3382 85.5H137.722C137.975 85.5003 138.217 85.6007 138.395 85.7791C138.573 85.9574 138.674 86.1992 138.674 86.4515V99.1977C138.674 99.45 138.573 99.6918 138.395 99.8702C138.217 100.049 137.975 100.149 137.722 100.149V100.149ZM86.3382 85.8805C86.1868 85.8806 86.0417 85.9408 85.9346 86.0479C85.8275 86.1549 85.7673 86.3001 85.7672 86.4515V99.1977C85.7673 99.3491 85.8275 99.4943 85.9346 99.6014C86.0417 99.7084 86.1868 99.7686 86.3382 99.7687H137.722C137.874 99.7686 138.019 99.7084 138.126 99.6014C138.233 99.4943 138.293 99.3491 138.293 99.1977V86.4515C138.293 86.3001 138.233 86.1549 138.126 86.0479C138.019 85.9408 137.874 85.8806 137.722 85.8805H86.3382Z"
              fill="#E6E6E6"/>
        <path d="M102.229 90.0898C102.052 90.0898 101.883 90.16 101.758 90.2849C101.633 90.4099 101.562 90.5793 101.562 90.756C101.562 90.9326 101.633 91.1021 101.758 91.227C101.883 91.3519 102.052 91.4221 102.229 91.4221H133.63C133.806 91.4289 133.978 91.3652 134.108 91.2451C134.238 91.1251 134.314 90.9584 134.321 90.7818C134.328 90.6053 134.264 90.4332 134.144 90.3036C134.024 90.174 133.857 90.0973 133.681 90.0906C133.671 90.0902 133.661 90.09 133.652 90.0901L102.229 90.0898Z"
              fill="#E6E6E6"/>
        <path d="M102.229 94.0859C102.052 94.0859 101.883 94.1561 101.758 94.281C101.633 94.406 101.562 94.5754 101.562 94.7521C101.562 94.9287 101.633 95.0982 101.758 95.2231C101.883 95.348 102.052 95.4182 102.229 95.4182H133.63C133.806 95.4249 133.978 95.3613 134.108 95.2412C134.238 95.1212 134.314 94.9545 134.321 94.7779C134.328 94.6014 134.264 94.4293 134.144 94.2997C134.024 94.1701 133.857 94.0934 133.681 94.0867C133.671 94.0863 133.661 94.0861 133.652 94.0862L102.229 94.0859Z"
              fill="#E6E6E6"/>
        <path d="M137.722 121.395H86.3382C86.0859 121.395 85.8441 121.294 85.6657 121.116C85.4873 120.938 85.387 120.696 85.3867 120.444V107.698C85.387 107.445 85.4874 107.204 85.6658 107.025C85.8441 106.847 86.086 106.746 86.3382 106.746H137.722C137.975 106.746 138.217 106.847 138.395 107.025C138.573 107.204 138.674 107.445 138.674 107.698V120.444C138.674 120.696 138.573 120.938 138.395 121.116C138.216 121.294 137.975 121.395 137.722 121.395ZM86.3382 107.127C86.1868 107.127 86.0417 107.187 85.9346 107.294C85.8275 107.401 85.7673 107.546 85.7672 107.698V120.444C85.7673 120.595 85.8275 120.74 85.9346 120.847C86.0417 120.955 86.1868 121.015 86.3382 121.015H137.722C137.874 121.015 138.019 120.955 138.126 120.847C138.233 120.74 138.293 120.595 138.293 120.444V107.698C138.293 107.546 138.233 107.401 138.126 107.294C138.019 107.187 137.874 107.127 137.722 107.127H86.3382Z"
              fill="#E6E6E6"/>
        <path d="M102.229 111.404C102.052 111.404 101.883 111.474 101.758 111.599C101.633 111.724 101.562 111.894 101.562 112.07C101.562 112.247 101.633 112.417 101.758 112.541C101.883 112.666 102.052 112.737 102.229 112.737H133.63C133.804 112.736 133.971 112.666 134.095 112.544C134.218 112.421 134.289 112.255 134.292 112.081C134.295 111.907 134.23 111.739 134.11 111.612C133.99 111.486 133.826 111.411 133.652 111.405H102.229V111.404Z"
              fill="#E6E6E6"/>
        <path d="M102.229 115.402C102.052 115.402 101.883 115.473 101.758 115.597C101.633 115.722 101.562 115.892 101.562 116.068C101.562 116.245 101.633 116.415 101.758 116.539C101.883 116.664 102.052 116.735 102.229 116.735H133.63C133.804 116.734 133.971 116.664 134.095 116.542C134.218 116.419 134.289 116.253 134.292 116.079C134.295 115.905 134.23 115.737 134.11 115.61C133.99 115.484 133.826 115.409 133.652 115.403H102.229V115.402Z"
              fill="#E6E6E6"/>
        <path d="M137.722 142.708H86.3382C86.0859 142.707 85.8441 142.607 85.6657 142.429C85.4873 142.25 85.387 142.008 85.3867 141.756V129.01C85.387 128.758 85.4874 128.516 85.6658 128.338C85.8441 128.159 86.086 128.059 86.3382 128.059H137.722C137.975 128.059 138.217 128.159 138.395 128.338C138.573 128.516 138.674 128.758 138.674 129.01V141.756C138.674 142.009 138.573 142.25 138.395 142.429C138.217 142.607 137.975 142.708 137.722 142.708V142.708ZM86.3382 128.439C86.1868 128.439 86.0417 128.499 85.9346 128.606C85.8275 128.714 85.7673 128.859 85.7672 129.01V141.756C85.7673 141.908 85.8275 142.053 85.9346 142.16C86.0417 142.267 86.1868 142.327 86.3382 142.327H137.722C137.874 142.327 138.019 142.267 138.126 142.16C138.233 142.053 138.293 141.908 138.293 141.756V129.01C138.293 128.859 138.233 128.714 138.126 128.606C138.019 128.499 137.874 128.439 137.722 128.439H86.3382Z"
              fill="#E6E6E6"/>
        <path d="M102.229 132.719C102.052 132.719 101.883 132.789 101.758 132.914C101.633 133.039 101.562 133.208 101.562 133.385C101.562 133.562 101.633 133.731 101.758 133.856C101.883 133.981 102.052 134.051 102.229 134.051H133.63C133.717 134.054 133.805 134.04 133.887 134.01C133.969 133.98 134.044 133.933 134.108 133.874C134.172 133.815 134.224 133.743 134.261 133.664C134.297 133.584 134.318 133.498 134.321 133.411C134.325 133.323 134.311 133.236 134.28 133.154C134.25 133.072 134.204 132.997 134.144 132.933C134.085 132.868 134.013 132.816 133.934 132.78C133.854 132.743 133.768 132.723 133.681 132.719C133.671 132.719 133.661 132.719 133.652 132.719L102.229 132.719Z"
              fill="#E6E6E6"/>
        <path d="M102.229 136.717C102.052 136.717 101.883 136.787 101.758 136.912C101.633 137.037 101.562 137.206 101.562 137.383C101.562 137.56 101.633 137.729 101.758 137.854C101.883 137.979 102.052 138.049 102.229 138.049H133.63C133.717 138.052 133.805 138.038 133.887 138.008C133.969 137.978 134.044 137.932 134.108 137.872C134.172 137.813 134.224 137.741 134.261 137.662C134.297 137.582 134.318 137.496 134.321 137.409C134.325 137.321 134.311 137.234 134.28 137.152C134.25 137.07 134.204 136.995 134.144 136.931C134.085 136.866 134.013 136.815 133.934 136.778C133.854 136.741 133.768 136.721 133.681 136.718C133.671 136.717 133.661 136.717 133.652 136.717H102.229L102.229 136.717Z"
              fill="#E6E6E6"/>
        <path d="M185.12 178.144H0.484497C0.216747 178.144 0 178.027 0 177.882C0 177.738 0.216997 177.621 0.484497 177.621H185.12C185.387 177.621 185.604 177.738 185.604 177.882C185.604 178.027 185.388 178.144 185.12 178.144Z"
              fill="#E6E6E6"/>
        <path d="M177.297 167.953C176.508 168.23 175.661 168.3 174.837 168.155C174.014 168.01 173.242 167.655 172.595 167.125C170.948 165.743 170.432 163.466 170.012 161.357L168.77 155.121L171.371 156.912C173.242 158.2 175.154 159.53 176.45 161.396C177.745 163.261 178.311 165.808 177.27 167.827"
              fill="#E6E6E6"/>
        <path d="M176.896 175.938C177.224 173.552 177.56 171.136 177.331 168.726C177.127 166.584 176.473 164.493 175.143 162.778C174.438 161.87 173.579 161.092 172.605 160.478C172.351 160.318 172.118 160.72 172.37 160.88C174.055 161.944 175.357 163.516 176.091 165.369C176.901 167.429 177.031 169.675 176.891 171.863C176.806 173.187 176.627 174.501 176.447 175.814C176.433 175.874 176.442 175.936 176.472 175.989C176.502 176.043 176.551 176.082 176.61 176.1C176.669 176.116 176.733 176.108 176.786 176.078C176.84 176.047 176.879 175.997 176.896 175.938H176.896Z"
              fill="#F2F2F2"/>
        <path d="M174.541 172.11C174.202 172.625 173.737 173.043 173.19 173.325C172.644 173.608 172.033 173.744 171.418 173.722C169.837 173.647 168.519 172.544 167.333 171.497L163.824 168.398L166.146 168.287C167.816 168.207 169.53 168.133 171.121 168.648C172.713 169.163 174.179 170.402 174.47 172.048"
              fill="#E6E6E6"/>
        <path d="M177.823 177.307C176.248 174.518 174.419 171.418 171.152 170.428C170.244 170.153 169.291 170.055 168.346 170.138C168.048 170.163 168.122 170.623 168.421 170.597C170.005 170.466 171.587 170.884 172.899 171.782C174.162 172.642 175.145 173.836 175.977 175.103C176.486 175.878 176.943 176.689 177.399 177.497C177.544 177.755 177.971 177.568 177.823 177.307Z"
              fill="#F2F2F2"/>
        <path d="M92.7465 96.743C94.9537 96.743 96.743 94.9537 96.743 92.7465C96.743 90.5393 94.9537 88.75 92.7465 88.75C90.5393 88.75 88.75 90.5393 88.75 92.7465C88.75 94.9537 90.5393 96.743 92.7465 96.743Z"
              fill="#0077C8"/>
        <path d="M90.8333 92C90.7873 92 90.75 92.2983 90.75 92.666C90.75 93.0338 90.7873 93.3323 90.8333 93.3323H94.763C94.809 93.3383 94.847 93.045 94.8477 92.6773C94.8733 92.4483 94.8452 92.2165 94.7657 92.0003H90.8333V92Z"
              fill="#E6E6E6"/>
        <path d="M92.7465 118.067C94.9537 118.067 96.743 116.278 96.743 114.071C96.743 111.864 94.9537 110.074 92.7465 110.074C90.5393 110.074 88.75 111.864 88.75 114.071C88.75 116.278 90.5393 118.067 92.7465 118.067Z"
              fill="#0077C8"/>
        <path d="M90.8333 113.324C90.7873 113.324 90.75 113.622 90.75 113.99C90.75 114.358 90.7873 114.656 90.8333 114.656H94.763C94.809 114.662 94.847 114.369 94.8477 114.001C94.8733 113.772 94.8452 113.541 94.7657 113.324L90.8333 113.324Z"
              fill="#E6E6E6"/>
        <path d="M92.7465 139.38C94.9537 139.38 96.743 137.59 96.743 135.383C96.743 133.176 94.9537 131.387 92.7465 131.387C90.5393 131.387 88.75 133.176 88.75 135.383C88.75 137.59 90.5393 139.38 92.7465 139.38Z"
              fill="#0077C8"/>
        <path d="M90.8333 134.637C90.7873 134.637 90.75 134.935 90.75 135.303C90.75 135.67 90.7873 135.969 90.8333 135.969H94.763C94.809 135.975 94.847 135.682 94.8477 135.314C94.8733 135.085 94.8452 134.853 94.7657 134.637L90.8333 134.637Z"
              fill="#E6E6E6"/>
        <path d="M106.176 43.4022L104.762 44.8164L116.606 56.6604L118.02 55.2462L106.176 43.4022Z" fill="white"/>
        <path d="M118.02 44.8166L116.605 43.4023L104.761 55.2464L106.176 56.6606L118.02 44.8166Z" fill="white"/>
        <path d="M22.566 114.033C22.9125 113.91 23.2278 113.713 23.4899 113.455C23.7519 113.197 23.9543 112.885 24.0827 112.541C24.2111 112.197 24.2625 111.828 24.2331 111.462C24.2038 111.096 24.0945 110.74 23.9129 110.421L29.8042 103.705L25.2054 103.07L20.316 109.545C19.7994 109.886 19.4257 110.404 19.2657 111.002C19.1057 111.599 19.1705 112.235 19.4478 112.788C19.7252 113.341 20.1958 113.774 20.7705 114.003C21.3452 114.232 21.984 114.243 22.566 114.033Z"
              fill="#9F616A"/>
        <path d="M29.669 173.554L25.5602 173.554L23.6055 157.705L29.6697 157.705L29.669 173.554Z" fill="#9F616A"/>
        <path d="M30.7174 177.536L17.4688 177.535V177.368C17.4688 176 18.0122 174.688 18.9792 173.721C19.9463 172.754 21.2579 172.211 22.6255 172.211H22.6258L30.7177 172.211L30.7174 177.536Z"
              fill="#2F2E41"/>
        <path d="M51.178 170.116L47.254 171.334L40.6875 156.778L46.479 154.98L51.178 170.116Z" fill="#9F616A"/>
        <path d="M53.3602 173.608L40.7073 177.537L40.6577 177.377C40.2522 176.071 40.3821 174.657 41.0189 173.447C41.6557 172.236 42.7472 171.328 44.0533 170.923L44.0536 170.923L51.7815 168.523L53.3602 173.608Z"
              fill="#2F2E41"/>
        <path d="M26.5228 100.486L20.4375 107.456L25.2015 107.884L26.5228 100.486Z" fill="#E6E6E6"/>
        <path d="M24.147 109.47C24.147 109.47 22.0332 110.526 21.769 115.282C21.5047 120.038 22.5617 132.457 22.5617 132.457C22.5617 132.457 21.505 138.006 22.5617 143.026C23.6185 148.046 21.505 166.276 22.826 166.276C24.147 166.276 31.0165 167.069 31.2807 166.276C31.545 165.483 31.8092 153.594 31.8092 153.594C31.8092 153.594 33.923 147.517 31.8092 143.819C31.8092 143.819 39.1894 156.706 43.963 166.541C45.0077 168.693 52.9462 166.277 51.6252 163.899C50.3042 161.521 47.1337 150.688 47.1337 150.688C47.1337 150.688 44.7557 142.761 40.5285 139.327L42.6422 122.417C42.6422 122.417 47.134 111.056 44.4922 109.47C41.8505 107.885 24.147 109.47 24.147 109.47Z"
              fill="#2F2E41"/>
        <path d="M32.0726 66.4011C35.8665 66.4011 38.9421 63.3255 38.9421 59.5316C38.9421 55.7377 35.8665 52.6621 32.0726 52.6621C28.2787 52.6621 25.2031 55.7377 25.2031 59.5316C25.2031 63.3255 28.2787 66.4011 32.0726 66.4011Z"
              fill="#A0616A"/>
        <path d="M39.7338 66.9297L31.1938 71.9497C31.1938 71.9497 27.9238 73.7912 26.7023 76.9697C25.4003 80.3572 26.157 85.1267 26.7023 86.2172C27.759 88.3309 26.259 93.6152 26.259 93.6152L24.938 105.769C24.938 105.769 20.1823 110.26 23.8813 110.789C27.5803 111.317 34.1855 110.525 38.1488 110.789C42.112 111.053 46.6035 111.582 45.2825 108.939C43.9615 106.296 42.3763 104.447 43.9615 99.1639C45.202 95.0289 45.1483 79.5682 45.0663 73.0389C45.055 72.1423 44.8145 71.2635 44.3677 70.486C43.9208 69.7085 43.2825 69.0583 42.5135 68.5972L39.7338 66.9297Z"
              fill="#E5E5E5"/>
        <path opacity="0.1"
              d="M35.9027 75.2539L36.6952 91.3709L29.0137 106.927L27.7109 106.431L35.6374 91.8992L35.9027 75.2539Z"
              fill="black"/>
        <path opacity="0.1" d="M44.6229 94.8051V92.9551L35.6406 107.752L44.6229 94.8051Z" fill="black"/>
        <path d="M27.1964 53.1688L26.0616 52.7148C26.0616 52.7148 28.4366 50.1005 31.7399 50.3278L30.8106 49.3048C30.8106 49.3048 33.0819 48.3955 35.1469 50.7823C36.2324 52.037 37.4881 53.512 38.2719 55.1733H39.4881L38.9806 56.291L40.7571 57.4088L38.9336 57.2088C39.1063 58.1737 39.0472 59.1659 38.7611 60.1035L38.8111 60.987C38.8111 60.987 36.6964 57.7148 36.6964 57.2608V58.3975C36.6964 58.3975 35.5606 57.3745 35.5606 56.6925L34.9411 57.4883L34.6314 56.2383L30.8114 57.4883L31.4304 56.4648L29.0554 56.8058L29.9846 55.5558C29.9846 55.5558 27.3004 57.0333 27.1971 58.2838C27.0939 59.5343 25.7519 61.1253 25.7519 61.1253L25.1324 59.9885C25.1324 59.9885 24.2034 54.8738 27.1964 53.1688Z"
              fill="#2F2E41"/>
        <path d="M31.6423 114.781C31.9615 114.598 32.2368 114.348 32.449 114.048C32.6611 113.748 32.8049 113.405 32.8701 113.044C32.9354 112.682 32.9206 112.31 32.8267 111.955C32.7328 111.6 32.5621 111.269 32.3267 110.987L36.9324 103.332L32.2939 103.524L28.6314 110.764C28.1835 111.191 27.9077 111.767 27.8564 112.384C27.805 113 27.9816 113.614 28.3528 114.11C28.7239 114.605 29.2637 114.946 29.87 115.07C30.4763 115.194 31.1069 115.091 31.6423 114.781Z"
              fill="#9F616A"/>
        <path d="M42.1144 70.365L44.0959 69.9688C44.0959 69.9688 50.0407 74.3282 48.1912 83.0472C46.3417 91.7662 38.1512 104.977 38.1512 104.977C38.1512 104.977 36.3012 107.355 35.7732 107.883C35.2452 108.411 34.1879 107.883 34.7164 108.676C35.2449 109.469 33.9237 109.997 33.9237 109.997C33.9237 109.997 28.1109 109.997 28.6394 107.883C29.1679 105.769 38.1512 90.7083 38.1512 90.7083L36.8302 76.705C36.8302 76.705 35.7729 69.8365 42.1144 70.365Z"
              fill="#E5E5E5"/>
    </g>
    <defs>
        <clipPath id="clip0_618_9658">
            <rect width="185.604" height="178.143" fill="white"/>
        </clipPath>
    </defs>
</svg>
