<?xml version="1.0" encoding="utf-8"?>
<!-- Generator: Adobe Illustrator 22.1.0, SVG Export Plug-In . SVG Version: 6.00 Build 0)  -->
<svg version="1.1" id="Layer_1" xmlns="http://www.w3.org/2000/svg" xmlns:xlink="http://www.w3.org/1999/xlink" x="0px" y="0px"
	 viewBox="0 0 24 24" style="enable-background:new 0 0 24 24;" xml:space="preserve">
<title>school-building</title>
<g>
	<path d="M0.75,24C0.336,24,0,23.664,0,23.25V15c0-1.241,1.009-2.25,2.25-2.25h4.5v-1.632c0.039-2.576,1.987-4.736,4.5-5.07V0.75
		C11.25,0.336,11.586,0,12,0h4c0.689,0,1.25,0.561,1.25,1.25v2c0,0.689-0.561,1.25-1.25,1.25h-3.25v1.549
		c2.513,0.333,4.461,2.49,4.5,5.058v1.643h4.5c1.241,0,2.25,1.009,2.25,2.25v8.25c0,0.414-0.336,0.75-0.75,0.75H0.75z M22.5,22.5V15
		c0-0.414-0.336-0.75-0.75-0.75h-4.5v8.25H22.5z M15.75,22.5V11.121C15.719,9.127,14.066,7.5,12.066,7.5h-0.122
		c-2.007,0-3.665,1.628-3.694,3.63V22.5h1.5v-3.187c0-0.017,0.001-0.035,0.002-0.052c0.08-1.129,1.028-2.013,2.157-2.013
		c0.03,0,0.061,0.001,0.091,0.002c0.031-0.001,0.063-0.002,0.094-0.002c1.128,0,2.074,0.884,2.154,2.013
		c0.001,0.016,0.002,0.034,0.002,0.053V22.5H15.75z M12.75,22.5v-3.156c-0.035-0.336-0.325-0.597-0.667-0.597
		c0,0-0.076,0.002-0.083,0.002c-0.016,0-0.082-0.002-0.082-0.002c-0.342,0-0.633,0.261-0.668,0.597V22.5H12.75z M6.75,22.5v-8.25
		h-4.5c-0.414,0-0.75,0.336-0.75,0.75v7.5H6.75z M15.75,3V1.5h-3V3H15.75z"/>
	<path d="M12,13.5c-1.223,0-2.217-0.995-2.217-2.217S10.777,9.066,12,9.066c1.222,0,2.217,0.995,2.217,2.217S13.222,13.5,12,13.5z
		 M12,10.566c-0.395,0-0.717,0.322-0.717,0.717C11.283,11.678,11.605,12,12,12c0.395,0,0.717-0.322,0.717-0.717
		C12.717,10.888,12.395,10.566,12,10.566z"/>
	<path d="M3.75,17.25C3.336,17.25,3,16.914,3,16.5s0.336-0.75,0.75-0.75H4.5c0.414,0,0.75,0.336,0.75,0.75s-0.336,0.75-0.75,0.75
		H3.75z"/>
	<path d="M3.75,21C3.336,21,3,20.664,3,20.25s0.336-0.75,0.75-0.75H4.5c0.414,0,0.75,0.336,0.75,0.75S4.914,21,4.5,21H3.75z"/>
	<path d="M19.5,17.25c-0.414,0-0.75-0.336-0.75-0.75s0.336-0.75,0.75-0.75h0.75c0.414,0,0.75,0.336,0.75,0.75s-0.336,0.75-0.75,0.75
		H19.5z"/>
	<path d="M19.5,21c-0.414,0-0.75-0.336-0.75-0.75s0.336-0.75,0.75-0.75h0.75c0.414,0,0.75,0.336,0.75,0.75S20.664,21,20.25,21H19.5z
		"/>
</g>
</svg>
