<?xml version="1.0" standalone="no"?>
<!DOCTYPE svg PUBLIC "-//W3C//DTD SVG 20010904//EN"
 "http://www.w3.org/TR/2001/REC-SVG-20010904/DTD/svg10.dtd">
<svg version="1.0" xmlns="http://www.w3.org/2000/svg" class="services"
 width="140.000000pt" height="140.000000pt" viewBox="0 0 140.000000 140.000000"
 preserveAspectRatio="xMidYMid meet" fill="#000000" >

<g transform="translate(0.000000,140.000000) scale(0.100000,-0.100000)"
stroke="none">
<path d="M363 1385 c-265 -72 -420 -345 -342 -601 22 -74 63 -145 104 -184 21
-20 28 -22 50 -12 34 16 32 43 -9 96 -55 72 -71 127 -71 241 0 90 3 106 29
160 38 77 114 153 191 191 55 26 69 29 165 29 94 0 111 -3 161 -28 112 -55
184 -139 218 -255 20 -68 40 -76 108 -42 81 41 201 24 267 -38 42 -40 76 -118
76 -177 0 -67 -37 -143 -88 -185 -47 -38 -56 -54 -42 -81 30 -55 132 16 188
131 38 78 38 191 1 270 -32 66 -87 123 -154 158 -42 22 -63 26 -135 27 -47 0
-97 -3 -112 -8 -25 -7 -29 -3 -58 57 -97 196 -339 307 -547 251z"/>
<path d="M437 730 c-43 -13 -95 -57 -117 -99 -10 -21 -47 -105 -80 -187 -59
-142 -62 -152 -58 -219 3 -59 8 -77 36 -117 18 -26 54 -60 80 -75 l47 -28 295
-3 c256 -3 300 -1 338 14 144 55 194 199 124 359 -16 39 -49 115 -72 170 -45
110 -75 148 -135 176 -35 16 -65 18 -235 18 -107 0 -208 -5 -223 -9z m433 -93
c22 -11 89 -124 90 -152 0 -6 -108 -10 -305 -10 -347 0 -316 -10 -269 90 39
81 49 84 269 85 131 0 198 -4 215 -13z m107 -268 c98 -61 92 -214 -11 -263
-29 -14 -76 -16 -314 -16 -273 0 -280 0 -312 23 -76 51 -97 122 -58 196 41 79
50 81 377 81 271 0 285 -1 318 -21z"/>
<path d="M827 282 c-37 -40 -7 -104 48 -104 56 0 87 69 47 105 -25 22 -75 21
-95 -1z"/>
</g>
</svg>
