<?xml version="1.0" encoding="UTF-8"?>
<svg width="22px" height="19px" viewBox="0 0 22 19" version="1.1" xmlns="http://www.w3.org/2000/svg" xmlns:xlink="http://www.w3.org/1999/xlink">
    <!-- Generator: Sketch 63 (92445) - https://sketch.com -->
    <title>basis / check 3px</title>
    <desc>Created with Sketch.</desc>
    <defs>
        <path d="M24.0836323,6.61192489 L12.7984216,21.9707441 C12.7887634,21.9835442 12.7625433,21.9978674 12.7345392,21.9998561 C12.7067418,22.0018302 12.6791888,21.9915116 12.6587389,21.971002 L7.56207785,16.8606892 C6.97707541,16.2741199 6.0273288,16.2728496 5.4407594,16.857852 C4.85419001,17.4428544 4.85291974,18.3926011 5.43792217,18.9791705 L10.5344555,24.0893551 C11.169602,24.7263565 12.0499123,25.0560308 12.9470515,24.9923197 C13.843984,24.9286233 14.6688194,24.4780427 15.2079701,23.7578913 L26.5011891,8.38827484 C26.9917146,7.72068497 26.8481756,6.78184697 26.1805857,6.29132147 C25.5129958,5.80079597 24.5741578,5.94433501 24.0836323,6.61192489 Z" id="path-1"></path>
    </defs>
    <g id="Styleboard" stroke="none" stroke-width="1" fill="none" fill-rule="evenodd">
        <g id="SURFconext_styleboard" transform="translate(-630.000000, -5844.000000)">
            <g id="notifications" transform="translate(483.000000, 5503.000000)">
                <g id="notificaties" transform="translate(129.000000, 124.000000)">
                    <g id="info-components-/-notification-/-03-success" transform="translate(0.000000, 204.000000)">
                        <g id="navigation-/-ic_check" transform="translate(13.000000, 7.000000)">
                            <g id="Group">
                                <g id="basis-/-check-3px">
                                    <mask id="mask-succes-2" fill="white">
                                        <use xlink:href="#path-1"></use>
                                    </mask>
                                    <use id="Shape" fill="#000000" fill-rule="nonzero" xlink:href="#path-1"></use>
                                    <g id="00-basic-colors-/-reg-icon-SEC-/-default-blue500-#0077C8" mask="url(#mask-succes-2)" fill-rule="evenodd" stroke-width="1">
                                        <g transform="translate(16.000000, 16.000000) rotate(90.000000) translate(-16.000000, -16.000000) " id="colors-/-Signal-/-Good">
                                            <g>
                                                <g id="Colors/Gray-700-Copy" fill="#00BB07">
                                                    <path d="M0,0 L32,0 L32,32 L0,32 L0,0 Z" id="Colors/Your_color_2"></path>
                                                </g>
                                            </g>
                                        </g>
                                    </g>
                                </g>
                            </g>
                        </g>
                    </g>
                </g>
            </g>
        </g>
    </g>
</svg>