<?xml version="1.0" encoding="UTF-8" standalone="no"?>
<!-- Generator: Adobe Illustrator 21.1.0, SVG Export Plug-In . SVG Version: 6.00 Build 0)  -->

<svg
        xmlns:dc="http://purl.org/dc/elements/1.1/"
        xmlns:cc="http://creativecommons.org/ns#"
        xmlns:rdf="http://www.w3.org/1999/02/22-rdf-syntax-ns#"
        xmlns:svg="http://www.w3.org/2000/svg"
        xmlns="http://www.w3.org/2000/svg"
        xmlns:sodipodi="http://sodipodi.sourceforge.net/DTD/sodipodi-0.dtd"
        xmlns:inkscape="http://www.inkscape.org/namespaces/inkscape"
        version="1.1"
        id="Layer_1"
        x="0px"
        y="0px"
        width="445.5px"
        height="413.6px"
        viewBox="0 0 445.5 413.6"
        enable-background="new 0 0 445.5 413.6"
        xml:space="preserve"
        sodipodi:docname="background-front-surf.svg"
        inkscape:version="0.92.4 (33fec40, 2019-01-16)"><metadata
   id="metadata4035"><rdf:RDF><cc:Work
       rdf:about=""><dc:format>image/svg+xml</dc:format><dc:type
        rdf:resource="http://purl.org/dc/dcmitype/StillImage"/></cc:Work></rdf:RDF></metadata>
    <defs
            id="defs4033"/>
    <sodipodi:namedview
            pagecolor="#ffffff"
            bordercolor="#666666"
            borderopacity="1"
            objecttolerance="10"
            gridtolerance="10"
            guidetolerance="10"
            inkscape:pageopacity="0"
            inkscape:pageshadow="2"
            inkscape:window-width="1871"
            inkscape:window-height="1009"
            id="namedview4031"
            showgrid="false"
            inkscape:zoom="8"
            inkscape:cx="231.86442"
            inkscape:cy="9.4420997"
            inkscape:window-x="49"
            inkscape:window-y="306"
            inkscape:window-maximized="1"
            inkscape:current-layer="Layer_1"/>


    <g
            id="g4107"
            transform="translate(133.37458,-0.5506806)"><g
     id="g3904">
	<path
            id="path3894"
            d="M 204.1,351.5 192.5,104 C 188,52 153.4,-2.6 123.2,0.1 93,2.8 68.4,62.5 72.9,114.4 l 31.5,245.7 z"
            inkscape:connector-curvature="0"
            style="clip-rule:evenodd;fill:#ffffff;fill-rule:evenodd"/>
	<g
            id="g3902">
		<path
                id="path3896"
                d="m 123.2,0.1 c -0.8,0.1 -1.7,0.2 -2.5,0.4 l 31.1,355.5 5,-0.4 L 125.7,0 c -0.9,0 -1.7,0 -2.5,0.1 z"
                inkscape:connector-curvature="0"
                style="fill:#f38282"/>
        <path
                id="path3898"
                d="m 113.9,2.7 31,353.9 3,-0.3 -31,-354.9 c -1.1,0.5 -2.1,0.9 -3,1.3 z"
                inkscape:connector-curvature="0"
                style="fill:#b4b4b4"/>
        <path
                id="path3900"
                d="m 129.7,0.4 31,354.9 3,-0.3 -31,-353.9 c -0.9,-0.3 -1.9,-0.5 -3,-0.7 z"
                inkscape:connector-curvature="0"
                style="fill:#b4b4b4"/>
	</g>
</g>
        <path
                id="path3906"
                d="M 311.5,413.6 H 0 c 0,0 65.8,-82 147,-82 93.5,0 164.5,82 164.5,82 z"
                inkscape:connector-curvature="0"
                style="fill:#fadd8f"/>
        <g
                id="g3912">
	<path
            id="path3910"
            d="m 228.6,413.6 -25,-72.3 c -17.5,-5.9 -36.6,-9.7 -56.6,-9.7 -15.8,0 -30.9,3.1 -45.1,8.1 l 4,73.9 z"
            inkscape:connector-curvature="0"
            style="fill:#e6cc84"/>
</g>
        <g
                id="g3940">
	<g
            id="g3922">
		<path
                id="path3914"
                d="m 102.6,374.1 c 0.6,1.6 1.1,3.2 1.8,5 -2.5,-0.2 -5.5,-0.4 -4.2,3 2.8,0 5.1,0 7.4,0 1.3,0.7 2.7,1.3 4,2 2.7,1.7 5.3,3.3 8,5 0.6,-0.7 1.1,-1.3 1.7,-2 -2.2,-1.7 -4.4,-3.3 -6.7,-5 -0.4,-1.5 -0.7,-2.9 -1.2,-4.7 0.8,0.3 1.5,0.5 2.4,-0.1 -0.2,0.6 -0.3,1.2 -0.5,1.9 1.4,0.3 2.9,0.5 4.3,1.1 1,0.4 1.9,1.2 2.6,2 0.7,0.7 1,1.8 1.7,2.5 0.6,0.6 2,0.8 2.2,1.5 1.3,4.1 4.6,3.8 7.7,4.6 -2.3,-2.6 -4.5,-4.7 -6.3,-7.1 -0.8,-1 -0.7,-3.2 -1.5,-3.5 -3.3,-1.3 -6.8,-2 -10.5,-2 0.5,-0.7 1,-1.5 1.5,-2.2 -0.8,-0.3 -1.6,-0.5 -2.5,-0.8 1,-6 -4.6,-5.8 -7.6,-7.9 -0.6,-0.4 -2.2,0.6 -3.4,0.9 0.1,1.9 -3.8,3.3 -0.9,5.8 z"
                inkscape:connector-curvature="0"
                style="fill:#f4d78a"/>
        <path
                id="path3916"
                d="m 90.6,393.1 c 0,-2.3 0,-4.6 0,-6 1.4,-1.6 2.3,-2.8 3.2,-3.9 -1.5,-0.1 -3.4,-0.9 -4.4,-0.2 -3.3,2.3 -5.6,0.2 -8.1,-1.3 -1.9,-1.2 -3.8,-2.5 -5.7,-3.8 -0.1,-0.1 -0.5,0.2 -1,0.3 0.8,1.1 1.5,2.1 2.2,3.1 -0.2,0.5 -0.4,1 -0.6,1.5 -1.8,-0.6 -3.6,-1.1 -5.3,-1.9 -1.8,-0.8 -3.5,-1.9 -5.2,-2.8 -0.2,0.4 -0.4,0.8 -0.6,1.2 5.3,2.3 6,11.4 14.2,9.6 0.3,-0.1 0.7,0.6 1.1,1 2.5,2.3 4.9,4.7 8,7.5 1.2,-2 1.7,-3.1 2.2,-4.3 z"
                inkscape:connector-curvature="0"
                style="fill:#f4d78a"/>
        <path
                id="path3918"
                d="m 153.8,397.9 c -5.2,-2.1 -9.1,-3.9 -13.1,-5.1 -1.6,-0.5 -3.6,0.3 -5.4,0.5 -0.1,0.7 -0.2,1.4 -0.3,2.1 5.5,-2 8.5,0.8 10.8,4.7 2.6,-0.7 4.7,-1.3 8,-2.2 z"
                inkscape:connector-curvature="0"
                style="fill:#f4d78a"/>
        <path
                id="path3920"
                d="m 154.7,381.8 c -4.9,-4.3 -7.2,-4.8 -9.6,-2.5 1.3,0.5 2.7,1.1 4.7,1.9 -1.6,0.8 -2.4,1.2 -3.1,1.6 0.1,0.3 0.2,0.5 0.2,0.8 2.4,-0.7 4.8,-1.2 7.8,-1.8 z"
                inkscape:connector-curvature="0"
                style="fill:#f4d78a"/>
	</g>
            <g
                    id="g3938">
		<path
                id="path3924"
                d="m 115.9,377.3 c 3.4,0.9 6.9,1.7 10.2,2.9 0.8,0.3 0.7,2.5 1.5,3.5 1.9,2.4 4,4.5 6.3,7.1 -3.1,-0.8 -6.4,-0.6 -7.7,-4.6 -0.2,-0.7 -1.6,-0.8 -2.2,-1.5 -0.7,-0.7 -1,-1.8 -1.7,-2.5 -0.7,-0.8 -1.6,-1.6 -2.6,-2 -1.3,-0.6 -2.8,-0.7 -4.3,-1.1 0.1,-0.6 0.3,-1.2 0.5,-1.8 z"
                inkscape:connector-curvature="0"
                style="fill:#f2d587"/>
                <path
                        id="path3926"
                        d="m 114.7,375.1 c -4.8,-0.5 -8.8,-2.3 -11,-7 1.2,-0.3 2.8,-1.3 3.4,-0.9 2.9,2.1 8.5,2 7.6,7.9 z"
                        inkscape:connector-curvature="0"
                        style="fill:#eccf82"/>
                <path
                        id="path3928"
                        d="m 153.8,397.9 c -3.3,0.9 -5.5,1.5 -8,2.2 -2.3,-3.9 -5.3,-6.7 -10.8,-4.7 0.1,-0.7 0.2,-1.4 0.3,-2.1 1.8,-0.2 3.8,-1 5.4,-0.5 4.1,1.2 8,3 13.1,5.1 z"
                        inkscape:connector-curvature="0"
                        style="fill:#f1d487"/>
                <path
                        id="path3930"
                        d="m 102.6,374.1 c 1,0.8 1.8,1.7 2.9,2.3 2.1,1.2 4.3,2.3 6.8,3.6 -1.8,0.8 -3.3,1.5 -4.7,2.1 -2.3,0 -4.5,0 -7.4,0 -1.3,-3.4 1.7,-3.1 4.2,-3 -0.6,-1.8 -1.2,-3.4 -1.8,-5 z"
                        inkscape:connector-curvature="0"
                        style="fill:#f0d386"/>
                <path
                        id="path3932"
                        d="m 80.6,390.1 c 3.3,1 6.7,2 10,3 -0.5,1.1 -1,2.3 -2,4.5 -3,-2.8 -5.5,-5.1 -8,-7.5 z"
                        inkscape:connector-curvature="0"
                        style="fill:#eccf82"/>
                <path
                        id="path3934"
                        d="m 154.7,381.8 c -2.9,0.6 -5.4,1.2 -7.8,1.7 -0.1,-0.3 -0.2,-0.5 -0.2,-0.8 0.7,-0.4 1.5,-0.8 3.1,-1.6 -2,-0.8 -3.3,-1.3 -4.7,-1.9 2.4,-2.2 4.6,-1.7 9.6,2.6 z"
                        inkscape:connector-curvature="0"
                        style="fill:#f3d689"/>
                <path
                        id="path3936"
                        d="m 111.6,384.1 c 1,-0.7 2,-1.3 3,-2 2.2,1.7 4.4,3.3 6.7,5 -0.6,0.7 -1.1,1.3 -1.7,2 -2.6,-1.7 -5.3,-3.3 -8,-5 z"
                        inkscape:connector-curvature="0"
                        style="fill:#efd284"/>
	</g>
</g>
        <g
                id="g3962">
	<g
            id="g3946">
		<path
                id="path3942"
                d="m 208.2,374.7 c -5.2,-2.1 -9.1,-3.9 -13.1,-5.1 -1.6,-0.5 -3.6,0.3 -5.4,0.5 -0.1,0.7 -0.2,1.4 -0.3,2.1 5.5,-2 8.5,0.8 10.8,4.7 2.5,-0.7 4.7,-1.3 8,-2.2 z"
                inkscape:connector-curvature="0"
                style="fill:#f4d78a"/>
        <path
                id="path3944"
                d="m 209,358.6 c -4.9,-4.3 -7.2,-4.8 -9.6,-2.5 1.3,0.5 2.7,1.1 4.7,1.9 -1.6,0.8 -2.4,1.2 -3.1,1.6 0.1,0.3 0.2,0.5 0.2,0.8 2.5,-0.7 4.9,-1.2 7.8,-1.8 z"
                inkscape:connector-curvature="0"
                style="fill:#f4d78a"/>
	</g>
            <g
                    id="g3960">
		<path
                id="path3948"
                d="m 170.2,354.1 c 3.4,0.9 6.9,1.7 10.2,2.9 0.8,0.3 0.7,2.5 1.5,3.5 1.9,2.4 4,4.5 6.3,7.1 -3.1,-0.8 -6.4,-0.6 -7.7,-4.6 -0.2,-0.7 -1.6,-0.8 -2.2,-1.5 -0.7,-0.7 -1,-1.8 -1.7,-2.5 -0.7,-0.8 -1.6,-1.6 -2.6,-2 -1.3,-0.6 -2.8,-0.7 -4.3,-1.1 0.2,-0.6 0.4,-1.2 0.5,-1.8 z"
                inkscape:connector-curvature="0"
                style="fill:#f2d587"/>
                <path
                        id="path3950"
                        d="m 208.2,374.7 c -3.3,0.9 -5.5,1.5 -8,2.2 -2.3,-3.9 -5.3,-6.7 -10.8,-4.7 0.1,-0.7 0.2,-1.4 0.3,-2.1 1.8,-0.2 3.8,-1 5.4,-0.5 4.1,1.2 7.9,3 13.1,5.1 z"
                        inkscape:connector-curvature="0"
                        style="fill:#f1d487"/>
                <path
                        id="path3952"
                        d="m 157,350.9 c 1,0.8 1.8,1.7 2.9,2.3 2.1,1.2 4.3,2.3 6.8,3.6 -1.8,0.8 -3.3,1.5 -4.7,2.1 -2.3,0 -4.5,0 -7.4,0 -1.3,-3.4 1.7,-3.1 4.2,-3 -0.7,-1.8 -1.2,-3.4 -1.8,-5 z"
                        inkscape:connector-curvature="0"
                        style="fill:#f0d386"/>
                <path
                        id="path3954"
                        d="m 135,366.9 c 3.3,1 6.7,2 10,3 -0.5,1.1 -1,2.3 -2,4.5 -3,-2.8 -5.5,-5.1 -8,-7.5 z"
                        inkscape:connector-curvature="0"
                        style="fill:#eccf82"/>
                <path
                        id="path3956"
                        d="m 209,358.6 c -2.9,0.6 -5.4,1.2 -7.8,1.7 -0.1,-0.3 -0.2,-0.5 -0.2,-0.8 0.7,-0.4 1.5,-0.8 3.1,-1.6 -2,-0.8 -3.3,-1.3 -4.7,-1.9 2.4,-2.2 4.7,-1.7 9.6,2.6 z"
                        inkscape:connector-curvature="0"
                        style="fill:#f3d689"/>
                <path
                        id="path3958"
                        d="m 166,360.9 c 1,-0.7 2,-1.3 3,-2 2.2,1.7 4.4,3.3 6.7,5 -0.6,0.7 -1.1,1.3 -1.7,2 -2.7,-1.7 -5.3,-3.3 -8,-5 z"
                        inkscape:connector-curvature="0"
                        style="fill:#efd284"/>
	</g>
</g></g>
    <path
            style="fill:#fadd8f"
            inkscape:connector-curvature="0"
            d="M 230.19151,412.61233 0.83454,412.78911 c 0,0 28,-66 116.5,-66 67.7,0 112.85697,65.82322 112.85697,65.82322 z"
            id="path3908"
            sodipodi:nodetypes="ccsc"/>
    <polygon
            style="fill:#e6cc84"
            points="340,413.4 330,369.5 343.1,374.5 362.6,413.4 "
            id="polygon3964"
            transform="translate(-183.66546,-0.81089228)"/>
    <g
            id="g3978"
            transform="translate(-183.66546,-0.81089228)">
	<path
            style="fill:#f4d78a"
            inkscape:connector-curvature="0"
            d="m 292.2,381.6 c 2.3,0 4.7,0 7,0 0.7,0.3 1.3,0.7 2,1 4.7,2 7.9,7.7 15.4,6.7 -3.5,-2.4 -6,-4 -8.4,-5.7 0.7,-1 1.3,-2 2,-3 1,0.6 2.6,1.8 2.9,1.6 4.8,-4.1 4.9,0.6 6.4,3.5 2.2,-0.2 4.6,-0.3 7,-0.5 0.2,-0.5 0.4,-1 0.6,-1.6 -2.3,-1.7 -4.5,-4.2 -7.1,-4.8 -3.8,-0.8 -7.9,-0.2 -11.8,-0.2 0.9,-0.6 1.7,-1.3 3.2,-2.3 -1.5,-0.3 -2.3,-0.5 -3.2,-0.7 -1.8,-1.9 -3.6,-5.5 -5.4,-5.5 -3.6,-0.1 -6,-2 -8.9,-3.1 -1.2,-0.5 -3.1,0.7 -4.6,1.1 0.6,1.2 1.3,2.3 1.9,3.5 -1.9,0.5 -3.7,1.1 -5.3,1.6 1.5,2.2 2.9,4.3 4.3,6.4 -3.1,-0.3 -6.1,-0.7 -9.2,-1 2.9,6.8 7.1,4.4 11.2,3 z"
            id="path3966"/>
        <path
                style="fill:#f4d78a"
                inkscape:connector-curvature="0"
                d="m 363.9,400.6 c 0.1,-0.5 0.2,-0.9 0.3,-1.4 -5.1,-1.2 -10.2,-2.5 -15.2,-3.7 3.2,6.6 9.3,5 14.9,5.1 z"
                id="path3968"/>
        <path
                style="fill:#f4d78a"
                inkscape:connector-curvature="0"
                d="m 277.2,398.8 c 0.1,-0.5 0.2,-0.9 0.3,-1.4 -5.1,-1.2 -10.2,-2.5 -15.2,-3.7 3.2,6.7 9.3,5.1 14.9,5.1 z"
                id="path3970"/>
        <path
                style="fill:#f4d78a"
                inkscape:connector-curvature="0"
                d="m 326.9,390.2 c 3.9,0.8 7.6,1.5 12.3,2.4 -3.3,-2.5 -5.5,-4.1 -7.7,-5.7 0.2,-0.3 0.3,-0.6 0.5,-0.9 -1.4,0.2 -2.9,0.3 -4.6,0.5 -0.2,1.2 -0.3,2.5 -0.5,3.7 z"
                id="path3972"/>
        <path
                style="fill:#f4d78a"
                inkscape:connector-curvature="0"
                d="m 277.5,395.1 c 3.9,0.8 7.6,1.5 12.3,2.4 -3.3,-2.5 -5.5,-4.1 -7.7,-5.7 0.2,-0.3 0.3,-0.6 0.5,-0.9 -1.4,0.2 -2.9,0.3 -4.6,0.5 -0.2,1.2 -0.3,2.4 -0.5,3.7 z"
                id="path3974"/>
        <path
                style="fill:#f4d78a"
                inkscape:connector-curvature="0"
                d="m 367.2,384.7 c 0.1,-0.6 0.2,-1.2 0.3,-1.8 -3.2,0 -5.5,-5.2 -9.8,-1 1.8,0.4 3.1,0.8 4.5,1.1 0,0.2 -0.1,0.4 -0.1,0.6 -1.9,0 -3.9,0 -5.8,0 0,0.3 0,0.7 0,1 3.6,0.1 7.3,0.1 10.9,0.1 z"
                id="path3976"/>
</g>
    <g
            id="g3994"
            transform="translate(-183.66546,-0.81089228)">
	<path
            style="fill:#eccf81"
            inkscape:connector-curvature="0"
            d="m 307.2,373.6 c -3.4,4.4 -5.7,-0.6 -8.5,-1.1 -2.9,-0.6 -5.7,-1.9 -8.5,-2.9 -0.6,-1.2 -1.3,-2.3 -1.9,-3.5 1.6,-0.4 3.4,-1.6 4.6,-1.1 2.9,1.1 5.3,3.1 8.9,3.1 1.8,0.1 3.6,3.6 5.4,5.5 z"
            id="path3980"/>
        <path
                style="fill:#eccf81"
                inkscape:connector-curvature="0"
                d="m 313.2,375.6 c -0.7,-0.7 -1.3,-1.3 -2,-2 4,0 8,-0.6 11.8,0.2 2.6,0.6 4.7,3.1 7.1,4.8 -0.2,0.5 -0.4,1 -0.6,1.6 -2.4,0.2 -4.7,0.3 -7,0.5 -1.4,-2.9 -1.6,-7.6 -6.4,-3.5 -0.3,0.3 -1.9,-1 -2.9,-1.6 z"
                id="path3982"/>
        <path
                style="fill:#eccf81"
                inkscape:connector-curvature="0"
                d="m 361.9,396.6 c -5.6,-0.1 -11.7,1.5 -14.9,-5 3,0.7 7.6,1.8 15.2,3.7 -0.1,0.4 -0.2,0.8 -0.3,1.3 z"
                id="path3984"/>
        <path
                style="fill:#eccf81"
                inkscape:connector-curvature="0"
                d="m 306.2,383.6 c 2.3,0.3 4.7,0.7 7,1 2.5,1.7 4.9,3.3 8.4,5.7 -7.6,1.1 -10.7,-4.7 -15.4,-6.7 z"
                id="path3986"/>
        <path
                style="fill:#eccf81"
                inkscape:connector-curvature="0"
                d="m 322.9,391.2 c 0.1,-1.2 0.3,-2.5 0.4,-3.7 1.7,-0.2 3.1,-0.4 4.6,-0.5 -0.2,0.3 -0.3,0.6 -0.5,0.9 2.2,1.6 4.4,3.3 7.7,5.7 -4.6,-0.9 -8.3,-1.6 -12.2,-2.4 z"
                id="path3988"/>
        <path
                style="fill:#eccf81"
                inkscape:connector-curvature="0"
                d="m 366.2,382.7 c -3.6,0 -7.3,0 -10.9,0 0,-0.3 0,-0.7 0,-1 1.9,0 3.9,0 5.8,0 0,-0.2 0.1,-0.4 0.1,-0.6 -1.3,-0.3 -2.7,-0.7 -4.5,-1.1 4.3,-4.3 6.6,1 9.8,1 -0.1,0.5 -0.2,1.1 -0.3,1.7 z"
                id="path3990"/>
        <path
                style="fill:#eccf81"
                inkscape:connector-curvature="0"
                d="m 291.2,379.6 c -0.7,-0.7 -1.3,-1.3 -2,-2 4.5,-1 9,-2.1 13,2 -1.4,0 -2.7,0 -4,0 -2.4,0 -4.7,0 -7,0 z"
                id="path3992"/>
</g>
    <g
            id="g4028"
            transform="translate(-183.66546,-0.81089228)">
	<path
            style="fill:#ddab76"
            inkscape:connector-curvature="0"
            d="m 348.2,274.3 -9.9,-0.9 -8.4,96.1 c 2.6,1.8 5.9,3.3 9.6,4.3 z"
            id="path3996"/>
        <path
                style="fill:#c49c5e"
                inkscape:connector-curvature="0"
                d="m 351.8,274.6 -3.6,-0.3 -8.7,99.5 c 1.1,0.3 2.3,0.5 3.5,0.7 l 3.3,-37.6 z"
                id="path3998"/>
        <polygon
                style="fill:#ddab76"
                points="342.8,218.7 352.6,219.6 351.4,233 341.7,231.1 "
                id="polygon4000"/>--&gt;
        <polygon
                style="fill:#c49c5e"
                points="352.6,219.6 356.2,219.9 355,233.3 351.4,233 "
                id="polygon4002"/>

        <rect
                style="fill:#c49c5e"
                x="326.39999"
                y="188.60001"
                transform="matrix(0.08715574,-0.9962,0.9962,0.08715574,65.2998,577.6846)"
                width="42.900002"
                height="129.3"
                id="rect4004"/>

        <rect
                style="fill:#ddab76"
                x="323.10001"
                y="185"
                transform="matrix(0.08715574,-0.9962,0.9962,0.08715574,65.8761,571.1111)"
                width="42.900002"
                height="129.3"
                id="rect4006"/>
        <g
                id="g4026">
		<path
                style="fill:#59421e"
                inkscape:connector-curvature="0"
                d="m 298.3,253.8 c -0.1,-0.1 -0.1,-0.2 -0.3,-0.3 -0.1,0.6 -0.3,3.4 -0.9,3.5 -0.4,-0.4 0.1,-1.9 0.2,-2.4 0.1,-0.7 0.4,-1.7 0.3,-2.4 -0.1,-0.7 -0.7,-1.5 -1,-2.2 -0.4,-0.9 -1.1,-1.7 -1.7,-2.6 -0.2,0.3 -0.2,0.9 -0.2,1.3 -0.1,0.9 -0.1,1.8 -0.2,2.7 0,0.5 0,0.9 -0.2,1.4 -0.2,0.5 -0.4,0.7 -0.9,1.1 -0.4,0.3 -1.7,1.3 -2.1,0.4 -0.1,-0.2 0,-1.1 0,-1.5 0,-0.6 0.1,-1.1 0.2,-1.7 0.2,-2.6 0.3,-5.3 0.1,-7.9 0,-0.5 -0.2,-1.2 -0.1,-1.7 0,-0.1 0.3,-0.6 0.3,-0.7 0.1,-0.3 0.1,-0.4 0.4,-0.6 0.5,-0.4 1.5,-1 2.1,-0.5 0.5,0.4 0.6,1.4 0.9,2 0.4,0.7 0.9,1.4 1.3,2.1 0.9,1.4 1.9,2.9 2.9,4.3 0.1,-0.5 0,-1 0,-1.5 0,-0.9 0,-1.9 0,-2.8 0,-1 0.1,-2.1 0,-3.1 0,-0.4 0,-0.5 -0.2,-0.7 -0.3,-0.3 -0.4,-0.2 -0.4,-0.6 0,-1.1 1.6,-2.1 2.5,-2.4 0.4,-0.1 0.8,-0.2 1.1,0.2 0.4,0.6 0.1,1.8 0.1,2.4 0,4.4 0,8.7 0.2,13 0,1.1 0.1,2.2 0.2,3.3 0,0.8 0.3,1.7 -0.4,2.3 -0.4,0.4 -1.1,0.9 -1.7,1 -0.6,0.1 -0.8,-0.4 -1,-1 -0.2,-0.4 -0.6,-2.6 -1,-2.7 -0.4,-0.1 -0.4,0.6 -0.4,1 -0.2,1.1 -0.3,2.4 -0.9,3.3 0.1,-0.9 0.2,-1.9 0.4,-2.8 0.1,-0.9 0.7,-2.5 0.4,-3.2 z"
                id="path4008"/>
            <path
                    style="fill:#59421e"
                    inkscape:connector-curvature="0"
                    d="m 309.2,255.1 c -0.7,-0.1 -1.7,-0.7 -2.2,-1.1 -0.8,-0.6 -1.5,-1.5 -2.1,-2.3 -0.8,-1.2 -1,-2.4 -0.9,-3.8 0.1,-1.6 0.7,-2.8 1.9,-3.9 1.3,-1.2 2.7,-1.9 4.5,-1.8 0.5,0 1,0 1.5,0.2 0.4,0.1 0.7,0.3 1,0.5 0.5,0.4 0.3,0.7 0.5,1.3 0.2,0.8 0.8,1.4 1.2,2.2 0.4,0.8 0.8,1.7 0.9,2.6 0.3,1.3 0,2.7 -0.7,3.8 -0.5,0.7 -1.1,1.2 -1.8,1.7 -0.3,0.2 -0.5,0.3 -0.8,0.5 -0.2,0.1 -0.5,0.1 -0.7,0.3 -0.1,0.1 -0.3,0.6 -0.4,0.6 -0.4,0.1 -0.5,-1.3 -1.1,-0.5 -0.3,0.4 -0.3,1.6 -0.4,2.1 0,0.2 -0.1,1.2 -0.4,1 -0.2,-0.2 -0.2,-1.4 -0.2,-1.6 0.2,-0.5 0.2,-1.1 0.2,-1.8 z m -2.5,-8 c -0.1,1.4 1.2,3.2 2.1,4 0.5,0.5 1.2,0.8 1.8,1.1 0.6,0.3 1.3,0.3 2,0.4 0.1,-1.3 -0.1,-2.3 -0.5,-3.5 -0.2,-0.5 -0.4,-1 -0.6,-1.5 -0.2,-0.3 -0.9,-1.1 -0.9,-1.4 -0.1,0.3 -0.3,2.2 -0.7,2.1 -0.5,-0.1 -0.1,-2.2 -0.1,-2.6 -0.1,-0.8 -0.3,-0.7 -0.9,-0.5 -0.3,0.1 -0.5,0.3 -0.8,0.2 -0.3,0 -0.5,-0.5 -0.6,-0.6 -0.7,0.2 -0.7,1.9 -0.8,2.3 z"
                    id="path4010"/>
            <path
                    style="fill:#59421e"
                    inkscape:connector-curvature="0"
                    d="m 329.6,257.6 c -0.6,0 -0.8,0.5 -1,1 0,-0.3 0,-0.6 0,-0.9 0,-0.5 0,-0.4 -0.3,-0.6 -0.5,-0.3 -1.1,-0.5 -1.6,-0.8 -0.8,-0.5 -1.8,-1.3 -2.4,-2.1 -0.7,-0.9 -1.2,-1.8 -1.3,-3 -0.1,-0.5 0.1,-1 0.2,-1.5 0,-0.1 0.1,-0.5 0.2,-0.6 0.3,-0.2 0.5,0.3 0.8,0.2 0.1,-0.4 -1.5,-1.2 -1.8,-1.6 -0.5,-0.7 -0.7,-1.4 -0.8,-2.2 -0.3,-2 -0.8,-5 1.9,-5.6 2.5,-0.6 5.4,0.9 7.3,2.3 1,0.8 2,1.7 2.7,2.7 0.5,0.7 1.4,2.1 1.1,3 -0.4,-0.6 -0.5,0.1 -0.8,0.4 -0.2,0.2 -0.8,0.7 -1.1,0.7 -0.2,0 -0.6,-0.1 -0.8,-0.2 -0.3,-0.2 -0.3,-0.3 -0.4,-0.7 0,-0.1 -0.1,-0.5 -0.1,-0.5 0.1,-0.4 0.4,-0.5 0.4,-1 -0.1,-0.5 -0.5,-0.7 -0.8,-1.1 -0.2,-0.2 -1.8,-2.4 -1.6,-2.6 -0.3,0.5 -0.4,1.3 -0.5,1.9 -0.2,0.7 -0.6,1.5 -0.6,2.2 0,1.1 2.1,1.8 3,2.1 1.8,0.8 3.8,2.7 4.9,4.3 0.6,0.9 0.9,1.9 0.1,2.8 -0.7,0.8 -1.6,1.1 -2.6,1.3 -0.5,0.1 -0.9,0.2 -1.4,0.2 -0.4,0 -1.3,-0.3 -1.7,-0.2 -0.3,0.1 -0.3,1.3 -0.4,1.7 0,0.3 -0.1,2.2 -0.4,2.3 -0.1,0 0.1,-1.4 0,-1.7 0,-0.8 -0.3,-1.9 0,-2.6 0,0.4 -0.1,0.4 -0.2,0.4 z m -4.7,-14 c -0.4,1 -0.1,1.6 0.7,2.3 0.6,0.5 1.4,1.5 2.2,1.8 0,-0.4 1.2,-4.8 1.1,-4.8 -0.2,0 -0.4,1.2 -0.7,1.4 0,-0.3 0,-0.5 0,-0.8 0.1,-0.4 0.3,0 0.1,-0.5 -0.1,-0.1 -0.5,-0.3 -0.6,-0.4 -0.9,-0.2 -2.7,-0.3 -2.8,1 z m 1.3,6.1 c 0,0.2 -0.1,0.1 -0.1,0.2 0,0.1 0.1,0.5 0.1,0.7 0.1,0.4 0.4,0.8 0.6,1.1 0.5,0.7 0.9,1.3 1.6,1.8 0.7,0.6 1.5,1.1 2.4,1.4 0.4,0.2 2,0.9 2.4,0.5 -0.5,-0.3 -0.9,-1 -1.3,-1.4 -0.6,-0.6 -1.2,-1.2 -1.9,-1.7 -1.2,-1 -2.6,-1.7 -3.7,-2.8 -0.1,0.1 -0.1,0.1 -0.1,0.2 z"
                    id="path4012"/>
            <path
                    style="fill:#59421e"
                    inkscape:connector-curvature="0"
                    d="m 339.8,258.1 c -0.3,-0.1 -0.5,0.1 -0.6,0.3 -0.1,0.1 -0.3,0.7 -0.4,0.9 -0.4,-0.2 -0.1,-0.8 -0.2,-1.1 -0.1,-0.2 -0.3,-0.4 -0.5,-0.6 -0.5,-0.5 -0.9,-1 -1.1,-1.8 -0.2,-1 -0.2,-2 -0.2,-3 0.2,-2.1 0.3,-4.2 0.6,-6.2 0.2,-1.1 0,-2.2 0.7,-3.1 0.4,-0.5 1.6,-1.7 2.3,-1.1 0.7,0.5 -0.2,2.7 -0.2,3.3 -0.1,1.1 -0.2,2.2 -0.3,3.2 -0.1,1.6 -0.7,3.7 0,5.2 0.2,0.4 0.6,1.2 1.2,1.1 0.6,-0.1 1.1,-1.2 1.3,-1.7 0.3,-0.5 0.6,-1 0.7,-1.6 0.1,-0.7 0,-1.4 -0.1,-2.2 -0.1,-1.1 -0.1,-2.1 0,-3.1 0,-0.4 0,-0.9 0.1,-1.3 0.2,-0.6 0.9,-1.2 1.5,-1.6 1.3,-0.8 1.6,0.5 1.8,1.6 0.2,1.2 0.4,2.6 0.1,3.8 -0.1,0.5 -0.3,1.1 -0.3,1.7 0,0.8 0.3,1.8 0.5,2.7 0.2,1 0.4,2.1 0.8,3 0.2,0.5 0.5,0.8 0.4,1.4 -0.2,0.8 -1.7,2.3 -2.7,1.7 -0.6,-0.4 -0.7,-1.6 -0.9,-2.3 -0.2,-0.7 -0.5,-1.4 -0.7,-2.1 0,0.3 -0.9,1 -1.1,1.2 -0.4,0.4 -1.3,0.7 -1.7,1.2 -0.3,0.4 -0.3,1.3 -0.4,1.9 0,0.3 -0.1,1.5 -0.4,1.6 0,-0.4 -0.1,-1.1 -0.2,-1.5 0.2,-0.4 0.3,-1.5 0,-1.5 z"
                    id="path4014"/>
            <path
                    style="fill:#59421e"
                    inkscape:connector-curvature="0"
                    d="m 350.7,259 c -0.3,0.1 -0.4,0.9 -0.4,1.1 -0.2,-0.4 -0.1,-0.9 -0.2,-1.3 -0.1,-0.4 -0.3,-0.8 -0.4,-1.1 -0.3,-1 -0.3,-2 -0.4,-3 -0.1,-1.5 -0.3,-3 -0.4,-4.5 -0.1,-0.9 0,-2 -0.3,-2.9 -0.2,-0.6 -0.4,-1 -0.3,-1.7 0.2,-0.8 0.9,-1.5 1.7,-1.8 0.8,-0.3 1.1,-0.1 1.3,0.7 0.2,0.8 0.5,1.9 0.5,2.8 0.8,-1.1 2.6,-2.2 4,-2.4 1.1,-0.1 3.1,0.1 3,1.5 0,0.5 -0.1,0.8 -0.4,1.2 -0.6,0.7 -0.6,1.4 -0.7,2.4 -0.1,0.9 -0.2,1.8 -0.3,2.7 -0.1,0.7 -0.5,1.4 -0.6,2.1 0.1,-1.6 0.3,-3.1 0.4,-4.7 0,-0.4 0.3,-1.3 0.1,-1.6 -0.6,-1 -0.9,1.6 -1.3,1.5 -0.5,-0.9 0.4,-2.2 -0.9,-2.4 -0.9,-0.1 -1.2,0.1 -1.6,1 -0.4,1.2 -0.4,2.9 -0.5,4.1 -0.1,1.6 0.3,3.4 -0.7,4.8 -0.3,0.4 -0.8,0.8 -0.9,1.3 -0.2,0.6 -0.2,1.5 -0.3,2.1 -0.1,0.7 -0.2,1.3 -0.3,2 -0.1,0.3 -0.1,1.3 -0.5,1.4 0.1,-0.9 0,-1.8 0.1,-2.7 0.1,-0.9 0.2,-1.9 0.2,-2.8 0.2,0.1 0.1,0.1 0.1,0.2 z"
                    id="path4016"/>
            <path
                    style="fill:#59421e"
                    inkscape:connector-curvature="0"
                    d="m 358.1,250.2 c 0,-0.4 0.3,-0.6 0.4,-1 0.1,-0.4 0.1,-0.9 0.1,-1.4 0,-1.1 0.2,-2.2 0.6,-3.2 0.6,-2 2.1,-3.9 4.2,-4.5 2.1,-0.7 4.7,0.5 5.8,2.3 0.4,0.7 0.4,1.2 -0.1,1.7 -0.4,0.4 -0.7,0.5 -1.1,0.8 -0.4,0.2 -0.6,0.7 -0.9,1.1 -0.2,-0.3 -0.2,-1.6 -0.9,-1.4 -0.2,0 -0.7,1.7 -0.9,2 -0.3,-1.1 0.9,-2.4 0.2,-3.2 -0.4,-0.5 -1.2,-0.9 -1.8,-1.1 -0.7,-0.1 -1,0.4 -1.2,1 -0.3,0.8 -0.5,1.8 -0.7,2.6 -0.1,0.6 -0.3,1.9 0,2.3 0.4,0.6 2,0.3 2.6,0.3 0.6,0 1.2,0.1 1.8,0.1 0.5,0 2.1,0.1 2.4,0.6 0.3,0.5 -0.5,1.1 -0.8,1.4 -0.8,0.6 -1.5,0.7 -2.4,0.5 -0.9,-0.2 -1.8,-0.3 -2.7,-0.3 -0.3,0 -0.6,0.1 -0.8,0.3 -0.2,0.3 0.1,1.3 0.2,1.7 0.1,1.1 0.3,2.2 0.5,3.2 0.2,0.8 0.6,2 0.4,2.8 -0.2,0.7 -0.9,1.1 -1.6,1.3 -0.8,0.3 -1.5,0.1 -1.7,-0.8 -0.2,-1.2 -0.3,-2.4 -0.5,-3.6 -0.2,-1.2 -0.3,-2.4 -0.5,-3.5 -0.1,-0.5 0,-0.9 -0.3,-1.3 -0.3,-0.3 -0.3,-0.2 -0.3,-0.7 z"
                    id="path4018"/>
            <path
                    style="fill:#59421e"
                    inkscape:connector-curvature="0"
                    d="m 370,240.9 c 0.1,-0.6 1,-1.1 1.5,-1.3 0.4,-0.1 0.8,-0.2 1.1,0 0.5,0.2 0.4,0.5 0.4,1 0,1 -0.1,2.1 -0.1,3.1 -0.1,1 0,1.9 -0.5,2.7 -0.4,0.6 -1.3,1 -2,1.1 -0.7,0.2 -0.9,-0.1 -0.9,-0.8 0.2,-1.8 0.3,-3.8 0.5,-5.8 z m -0.3,23.1 c 0.1,-0.9 0.2,-1.7 0.2,-2.6 0,-0.6 0,-0.3 -0.5,-0.8 -0.4,-0.4 -0.3,-1 -0.4,-1.6 -0.3,-2.4 -0.1,-5.1 0.1,-7.5 0.1,-1.2 0.3,-2 1.4,-2.6 0.3,-0.2 0.8,-0.3 1.1,-0.2 0.6,0.2 0.3,1.2 0.3,1.7 -0.1,1.8 -0.1,3.6 -0.1,5.4 0,1 0.3,2.2 0,3.2 -0.2,0.6 -0.7,0.9 -0.9,1.5 -0.3,1 -0.3,2.1 -0.4,3.1 -0.1,0.8 -0.2,1.6 -0.5,2.4 -0.1,0.3 -0.2,1.6 -0.6,1.7 0.1,-0.7 0.1,-1.3 0.2,-2 0.1,-0.3 0.4,-1.4 0.1,-1.7 z"
                    id="path4020"/>
            <path
                    style="fill:#59421e"
                    inkscape:connector-curvature="0"
                    d="m 375,261 c -0.4,-0.7 -0.3,-1.8 -0.4,-2.6 -0.1,-1.2 0,-2.3 0,-3.5 0,-1.4 0,-2.8 0,-4.2 0,-0.6 0,-1.2 -0.1,-1.8 -0.1,-0.4 -0.3,-0.8 -0.3,-1.2 -0.1,-1.2 2.4,-3.2 3.1,-1.8 0.4,0.7 0.3,1.8 0.3,2.6 0,0.7 -0.2,2.2 0.3,2.8 1.3,-1.1 2.7,-3.4 4.7,-3.2 1.6,0.2 1.7,3.4 1.9,4.6 0.2,0.9 0.4,1.9 0.6,2.9 0.2,1.3 0.2,2.5 0.4,3.8 0.1,0.8 0.2,1.2 -0.4,1.8 -0.7,0.8 -1,1.3 -1.1,2.3 0,0 -0.2,-1.1 -0.2,-1.2 -0.2,-0.2 -0.4,-0.1 -0.7,-0.1 -0.8,-0.1 -0.6,-1.2 -0.7,-1.9 -0.1,-1.4 -0.2,-2.8 -0.4,-4.1 -0.2,-1.3 -0.6,-2.5 -0.8,-3.8 -0.1,1.3 -0.3,2.7 -0.5,4 -0.1,0.6 -0.2,2.3 -0.7,2.7 0.2,-2.7 0.5,-5.3 0.7,-8 -0.8,0.7 -1.4,1.9 -1.8,2.8 -0.5,1.2 -0.6,2.4 -0.7,3.6 -0.1,0.6 0,1.3 -0.3,1.9 -0.2,0.4 -0.6,0.7 -1,1 -0.5,0.4 -0.6,0.6 -0.8,1.2 -0.1,0.3 -0.5,0.9 -0.5,1.2 0.1,-0.6 0.2,-1.2 0.3,-1.7 -0.4,0.6 -0.4,1.4 -0.7,2.1 -0.1,0.4 -0.3,0.7 -0.5,1.1 0.1,-0.8 0.7,-2.5 0.3,-3.3 z"
                    id="path4022"/>
            <path
                    style="fill:#59421e"
                    inkscape:connector-curvature="0"
                    d="m 393,269.1 c -0.2,0 -0.4,-0.3 -0.7,-0.3 -0.2,0 -0.2,0.2 -0.4,0.2 -0.1,0 -0.3,-0.4 -0.4,-0.4 -0.2,-0.2 -0.6,-0.3 -0.8,-0.5 -1.2,-0.8 -2.1,-1.9 -2.5,-3.2 -0.3,-1 -0.8,-2.5 -0.3,-3.5 0.4,-0.8 1.6,-0.8 2.1,-1.4 -0.5,0 -0.8,-0.5 -1.2,-0.8 -0.4,-0.4 -0.9,-0.7 -1.2,-1.2 -0.5,-0.7 -0.8,-1.6 -1,-2.4 -0.2,-0.9 -0.2,-1.6 0,-2.4 0.2,-0.9 0.3,-1.9 0.8,-2.6 0.5,-0.7 1.1,-1.5 1.8,-1.9 0.8,-0.5 1.9,-1.2 2.9,-1.4 0.7,-0.1 1.4,-0.2 2.1,-0.1 0.4,0 1,0.3 1.4,0.2 0.4,-0.1 0.5,-0.7 0.7,-1.1 0.4,-0.8 2.2,-2.4 3,-1.2 0.2,0.4 0.1,1 0.1,1.4 0,0.6 0,1.2 0,1.8 -0.1,1 -0.1,2 -0.2,3 -0.1,1.2 -0.4,2.3 -0.7,3.5 -0.1,0.4 -0.3,0.9 -0.3,1.3 0,0.5 0,1 0.1,1.5 0.1,2 0.4,4.1 0.1,6.1 -0.3,2.1 -1.1,4 -3.2,4.8 -0.5,0.2 -1.1,0.2 -1.4,0.6 -0.4,0.4 -0.5,1.2 -0.7,1.7 -0.1,0.3 -0.2,0.6 -0.4,0.4 -0.1,-0.5 0.3,-1.8 0.3,-2.1 z m -3.1,-17.6 c -0.1,0.9 -0.3,1.6 -0.2,2.5 0.1,0.7 0.5,1.5 0.9,2.1 0.4,0.6 0.8,0.9 1.3,1.3 0.3,0.3 0.4,0.2 0.8,0.3 0.3,0.1 1.1,0.5 1.4,0.4 0.5,-0.2 0.8,-1.1 0.9,-1.6 0.2,-1 0.2,-2 0.2,-3 0,-0.5 -0.1,-1 -0.1,-1.5 0,-0.4 0.2,-1 0,-1.4 -0.1,-0.4 -0.3,-0.5 -0.6,-0.7 -0.2,-0.1 -0.8,-0.3 -0.9,-0.5 -0.4,1.4 -0.8,2.9 -1.2,4.3 0,0.1 -0.1,0.5 -0.2,0.6 -0.4,0.3 -0.2,-0.9 -0.2,-1 0.2,-1.4 0.6,-2.8 0.9,-4.1 -0.8,0.4 -0.3,2.1 -1.2,2.3 0.1,-0.7 0,-1.6 0.3,-2.2 -1,-0.4 -2,1.2 -2.1,2.2 z m 0.7,8.9 c 0.4,1.8 0.7,4 2.2,5.3 0.4,0.3 1.5,0.9 2,0.6 0.3,-0.3 0.3,-0.7 0.4,-1.1 0.1,-0.4 0.2,-0.7 0.2,-1.2 0,-1 0,-2.1 0,-3.1 0,-0.4 0.2,-1.1 -0.2,-1.3 -0.1,0 -1.1,0.4 -1.3,0.5 -0.4,0.1 -0.8,0.3 -1.1,0.3 -0.7,0.1 -1.4,0.1 -2.2,0 z"
                    id="path4024"/>
	</g>
</g></svg>