<?xml version="1.0" encoding="UTF-8"?>
<svg width="43px" height="43px" viewBox="0 0 43 43" version="1.1" xmlns="http://www.w3.org/2000/svg" xmlns:xlink="http://www.w3.org/1999/xlink">
    <title>data-transfer-check</title>
    <g id="Symbols" stroke="none" stroke-width="1" fill="none" fill-rule="evenodd" stroke-linecap="round" stroke-linejoin="round">
        <g id="Scoped-consent" transform="translate(1.000000, -16.000000)" stroke="#0062B0" stroke-width="2">
            <g id="data-transfer-check" transform="translate(0.000000, 17.000000)">
                <path d="M12.3651316,35.2648026 L2.93585526,35.2648026 C1.44795655,35.2648026 0.241776316,34.0586224 0.241776316,32.5707237 L0.241776316,2.93585526 C0.241776316,1.44795655 1.44795655,0.241776316 2.93585526,0.241776316 L22.0260987,0.241776316 C22.7401144,0.241776316 23.4248674,0.525519857 23.9299145,1.03024342 L29.0881776,6.18850658 C29.5929012,6.69355369 29.8766447,7.37830666 29.8766447,8.09232237 L29.8766447,12.3651316" id="Path"></path>
                <g id="Group-8" transform="translate(5.629934, 6.527961)">
                    <line x1="3.30636962" y1="4.40849282" x2="15.4297249" y2="4.40849282" id="Path"></line>
                    <polyline id="Path" points="11.0212321 0 15.4297249 4.40849282 11.0212321 8.81698565"></polyline>
                    <line x1="12.1233553" y1="15.4297249" x2="0" y2="15.4297249" id="Path"></line>
                    <polyline id="Path" points="4.40849282 19.8382177 0 15.4297249 4.40849282 11.0212321"></polyline>
                </g>
                <g id="Group-7" transform="translate(19.100329, 19.094941)">
                    <circle id="Oval" cx="10.7763158" cy="10.7763158" r="10.7763158"></circle>
                    <path d="M15.5789605,7.63861184 L10.3614276,14.5965197 C10.1266881,14.9087168 9.76813945,15.1038253 9.3785113,15.1313852 C8.98888315,15.1589451 8.60644029,15.0162498 8.33009211,14.7402039 L5.63601316,12.046125" id="Path"></path>
                </g>
            </g>
        </g>
    </g>
</svg>