<svg width="552.81023" height="556.01254" viewBox="0 0 166 141" fill="none" xmlns="http://www.w3.org/2000/svg">
<g clip-path="url(#clip0_1828_10255)">
<path d="M97.4851 36.1976H92.5636C92.3127 36.1973 92.0721 36.0974 91.8947 35.9197C91.7173 35.7421 91.6175 35.5012 91.6172 35.25V30.3226C91.6175 30.0714 91.7173 29.8305 91.8947 29.6529C92.0721 29.4752 92.3127 29.3753 92.5636 29.375H97.4851C97.736 29.3753 97.9766 29.4752 98.154 29.6529C98.3315 29.8305 98.4313 30.0714 98.4315 30.3226V35.25C98.4313 35.5012 98.3315 35.7421 98.154 35.9197C97.9766 36.0974 97.736 36.1973 97.4851 36.1976ZM92.5636 29.754C92.4131 29.7542 92.2687 29.8142 92.1623 29.9207C92.0558 30.0273 91.9959 30.1718 91.9958 30.3226V35.25C91.9959 35.4007 92.0558 35.5453 92.1623 35.6518C92.2687 35.7584 92.4131 35.8184 92.5636 35.8186H97.4851C97.6357 35.8184 97.78 35.7584 97.8865 35.6518C97.9929 35.5453 98.0528 35.4007 98.053 35.25V30.3226C98.0528 30.1718 97.9929 30.0273 97.8865 29.9207C97.78 29.8142 97.6357 29.7542 97.4851 29.754H92.5636Z" fill="#E6E6E6"/>
<path d="M40.1296 6.82258H35.2082C34.9572 6.82229 34.7167 6.72237 34.5392 6.54472C34.3618 6.36708 34.262 6.12623 34.2617 5.875V0.947581C34.262 0.696355 34.3618 0.455501 34.5392 0.277857C34.7167 0.100214 34.9572 0.000287411 35.2082 0H40.1296C40.3806 0.000287411 40.6211 0.100214 40.7985 0.277857C40.976 0.455501 41.0758 0.696355 41.0761 0.947581V5.875C41.0758 6.12623 40.976 6.36708 40.7985 6.54472C40.6211 6.72237 40.3806 6.82229 40.1296 6.82258ZM35.2082 0.379032C35.0576 0.379197 34.9133 0.43915 34.8068 0.545738C34.7003 0.652326 34.6405 0.796843 34.6403 0.947581V5.875C34.6405 6.02574 34.7003 6.17025 34.8068 6.27684C34.9133 6.38343 35.0576 6.44338 35.2082 6.44355H40.1296C40.2802 6.44338 40.4245 6.38343 40.531 6.27684C40.6374 6.17025 40.6973 6.02574 40.6975 5.875V0.947581C40.6973 0.796843 40.6374 0.652326 40.531 0.545738C40.4245 0.43915 40.2802 0.379197 40.1296 0.379032H35.2082Z" fill="#E6E6E6"/>
<path d="M94.4539 33.7347H89.5324C89.2815 33.7344 89.0409 33.6345 88.8635 33.4568C88.686 33.2792 88.5862 33.0383 88.5859 32.7871V27.8597C88.5862 27.6085 88.686 27.3676 88.8635 27.19C89.0409 27.0123 89.2815 26.9124 89.5324 26.9121H94.4539C94.7048 26.9124 94.9453 27.0123 95.1228 27.19C95.3002 27.3676 95.4 27.6085 95.4003 27.8597V32.7871C95.4 33.0383 95.3002 33.2792 95.1228 33.4568C94.9453 33.6345 94.7048 33.7344 94.4539 33.7347ZM89.5324 27.2911C89.3818 27.2913 89.2375 27.3513 89.131 27.4578C89.0246 27.5644 88.9647 27.709 88.9645 27.8597V32.7871C88.9647 32.9378 89.0246 33.0824 89.131 33.189C89.2375 33.2955 89.3818 33.3555 89.5324 33.3557H94.4539C94.6044 33.3555 94.7488 33.2955 94.8552 33.189C94.9617 33.0824 95.0216 32.9378 95.0217 32.7871V27.8597C95.0216 27.709 94.9617 27.5644 94.8552 27.4578C94.7488 27.3513 94.6044 27.2913 94.4539 27.2911H89.5324Z" fill="#E6E6E6"/>
<path d="M8.89526 74.8577H3.97378C3.72286 74.8575 3.4823 74.7575 3.30487 74.5799C3.12744 74.4022 3.02763 74.1614 3.02734 73.9102V68.9827C3.02763 68.7315 3.12744 68.4907 3.30487 68.313C3.4823 68.1354 3.72286 68.0354 3.97378 68.0352H8.89526C9.14618 68.0354 9.38675 68.1354 9.56417 68.313C9.7416 68.4907 9.84141 68.7315 9.8417 68.9827V73.9102C9.84141 74.1614 9.7416 74.4022 9.56417 74.5799C9.38675 74.7575 9.14618 74.8575 8.89526 74.8577ZM3.97378 68.4142C3.82323 68.4144 3.67888 68.4743 3.57242 68.5809C3.46596 68.6875 3.40608 68.832 3.40592 68.9827V73.9102C3.40608 74.0609 3.46596 74.2054 3.57242 74.312C3.67888 74.4186 3.82323 74.4786 3.97378 74.4787H8.89526C9.04581 74.4786 9.19016 74.4186 9.29662 74.312C9.40308 74.2054 9.46296 74.0609 9.46312 73.9102V68.9827C9.46296 68.832 9.40308 68.6875 9.29662 68.5809C9.19016 68.4743 9.04581 68.4144 8.89526 68.4142H3.97378Z" fill="#E6E6E6"/>
<path d="M5.86792 72.3948H0.946438C0.695515 72.3946 0.454952 72.2946 0.277522 72.117C0.100093 71.9393 0.000287064 71.6985 0 71.4473V66.5198C0.000287064 66.2686 0.100093 66.0278 0.277522 65.8501C0.454952 65.6725 0.695515 65.5726 0.946438 65.5723H5.86792C6.11884 65.5726 6.3594 65.6725 6.53683 65.8501C6.71426 66.0278 6.81407 66.2686 6.81435 66.5198V71.4473C6.81407 71.6985 6.71426 71.9393 6.53683 72.117C6.3594 72.2946 6.11884 72.3946 5.86792 72.3948ZM0.946438 65.9513C0.795882 65.9515 0.651539 66.0114 0.54508 66.118C0.438621 66.2246 0.37874 66.3691 0.378575 66.5198V71.4473C0.37874 71.598 0.438621 71.7425 0.54508 71.8491C0.651539 71.9557 0.795882 72.0156 0.946438 72.0158H5.86792C6.01847 72.0156 6.16281 71.9557 6.26927 71.8491C6.37573 71.7425 6.43561 71.598 6.43578 71.4473V66.5198C6.43561 66.3691 6.37573 66.2246 6.26927 66.118C6.16281 66.0114 6.01847 65.9515 5.86792 65.9513H0.946438Z" fill="#E6E6E6"/>
<path d="M17.4948 16.3049H63.0404C65.2382 16.3049 67.3706 17.0535 69.0871 18.4278C70.8036 19.802 72.0021 21.7201 72.4854 23.8667L95.4987 126.067C95.7497 127.181 95.7541 128.338 95.5116 129.454C95.2692 130.571 94.7856 131.621 94.095 132.531C93.4044 133.44 92.5233 134.188 91.5136 134.721C90.504 135.253 89.3901 135.559 88.2501 135.615L41.429 137.924C38.9219 138.048 36.4555 137.254 34.49 135.691C32.5245 134.128 31.1942 131.902 30.7474 129.429L17.6929 57.1725L16.7217 57.4503L14.2238 43.755L15.2235 43.5048L11.5796 23.3354C11.4235 22.4716 11.4597 21.5838 11.6856 20.7355C11.9115 19.8873 12.3215 19.0993 12.8864 18.4279C13.4513 17.7564 14.1572 17.2181 14.9538 16.8511C15.7504 16.4841 16.618 16.2976 17.4948 16.3049V16.3049Z" fill="#3F3D56"/>
<path d="M57.0456 18.5078H62.3621C63.8889 18.5078 65.3698 19.0306 66.559 19.9894C67.7481 20.9482 68.5739 22.2854 68.8994 23.7789L90.989 125.145C91.1161 125.729 91.116 126.333 90.9886 126.916C90.8612 127.5 90.6095 128.049 90.2507 128.526C89.8918 129.004 89.4344 129.398 88.9095 129.682C88.3846 129.966 87.8047 130.133 87.2094 130.172L40.5397 133.234C39.2231 133.321 37.9208 132.919 36.8813 132.105C35.8419 131.291 35.138 130.123 34.9041 128.823L16.055 24.0512C15.933 23.3731 15.9611 22.6764 16.1374 22.0104C16.3137 21.3443 16.6338 20.7251 17.0752 20.1965C17.5166 19.6678 18.0685 19.2426 18.692 18.9508C19.3154 18.659 19.9953 18.5078 20.6835 18.5078H25.727C26.2152 18.5078 26.6897 18.6689 27.0772 18.9662C27.4646 19.2635 27.7434 19.6804 27.8703 20.1523C27.9823 20.569 28.2284 20.937 28.5705 21.1995C28.9125 21.4619 29.3314 21.6041 29.7624 21.6041H53.706C54.5498 21.6041 55.3626 21.2852 55.9818 20.7112C56.6009 20.1371 56.9809 19.3502 57.0456 18.5078L57.0456 18.5078Z" fill="white"/>
<path d="M19.6875 35.7441H70.3174L75.7111 60.0769L24.4197 61.0244L19.6875 35.7441Z" fill="#0062B0"/>
<path d="M67.7656 81.8242H79.6853L80.0638 84.1088H68.1442L67.7656 81.8242Z" fill="#0062B0"/>
<path d="M77.4622 70.1704L26.9102 71.2422L26.9152 71.4804L77.4672 70.4086L77.4622 70.1704Z" fill="#2F2E41"/>
<path d="M79.0075 77.1958L27.5039 78.3867L27.5094 78.6249L79.013 77.434L79.0075 77.1958Z" fill="#2F2E41"/>
<path d="M72.6875 106.271H84.6071L84.9857 108.556H73.0661L72.6875 106.271Z" fill="#0062B0"/>
<path d="M82.3841 94.6176L31.832 95.6895L31.8371 95.9276L82.3891 94.8558L82.3841 94.6176Z" fill="#2F2E41"/>
<path d="M83.9294 101.645L32.4258 102.836L32.4313 103.074L83.9349 101.883L83.9294 101.645Z" fill="#2F2E41"/>
<path d="M116.52 138.575L114.264 138.575L113.191 129.865L116.52 129.865L116.52 138.575Z" fill="#A0616A"/>
<path d="M117.092 140.764L109.82 140.764V140.672C109.82 139.92 110.119 139.199 110.649 138.668C111.18 138.137 111.9 137.838 112.651 137.838H112.651L117.093 137.838L117.092 140.764Z" fill="#2F2E41"/>
<path d="M144.535 137.097L142.339 137.615L139.301 129.383L142.541 128.619L144.535 137.097Z" fill="#A0616A"/>
<path d="M145.597 139.096L138.518 140.765L138.497 140.675C138.325 139.944 138.45 139.174 138.845 138.535C139.24 137.896 139.873 137.44 140.604 137.267L140.604 137.267L144.927 136.248L145.597 139.096Z" fill="#2F2E41"/>
<path d="M116.059 101.84C116.063 101.386 116.197 90.6743 119.13 86.6242L119.173 86.5645L129.393 87.9761L129.165 90.2243C129.614 90.662 133.15 94.3614 134.171 103.122L145.019 132.291L139.976 132.75L125.048 100.908L117.148 135.52H112.148L116.059 101.84Z" fill="#2F2E41"/>
<path d="M117.93 87.0183L118.929 81.7671C118.733 81.5151 117.867 80.3047 118.06 78.8858C118.185 77.9601 118.737 77.1484 119.7 76.4726L122.29 70.4232L122.325 70.4027C122.499 70.2998 126.622 67.9129 128.87 70.1649C128.926 70.2085 134.46 74.6068 132.238 80.54L129.494 88.7812L117.93 87.0183Z" fill="#CCCCCC"/>
<path d="M114.456 94.1249C114.725 94.0941 114.984 94.0045 115.215 93.8625C115.447 93.7204 115.644 93.5294 115.793 93.3028C115.942 93.0762 116.04 92.8196 116.08 92.5511C116.119 92.2825 116.1 92.0085 116.022 91.7484L121.37 87.891L118.168 86.6719L113.581 90.5219C113.153 90.6814 112.799 90.9925 112.585 91.3962C112.371 91.7999 112.312 92.2682 112.42 92.7123C112.528 93.1565 112.795 93.5456 113.17 93.8059C113.545 94.0663 114.002 94.1798 114.456 94.1249Z" fill="#A0616A"/>
<path d="M115.438 87.8822L123.602 81.4423L121.174 73.1399C121.06 72.7468 121.028 72.3343 121.079 71.9281C121.131 71.5219 121.266 71.1307 121.475 70.7789C121.669 70.4473 121.93 70.1598 122.241 69.935C122.552 69.7101 122.907 69.5528 123.282 69.4731C124.68 69.177 125.949 69.9605 127.052 71.8022L127.061 71.8188C127.243 72.2658 131.496 82.792 128.249 85.0431C125.072 87.245 117.706 90.4504 117.632 90.4827L117.545 90.52L115.438 87.8822Z" fill="#CCCCCC"/>
<path d="M126.289 67.9755C129.021 67.9755 131.235 65.7586 131.235 63.0239C131.235 60.2892 129.021 58.0723 126.289 58.0723C123.558 58.0723 121.344 60.2892 121.344 63.0239C121.344 65.7586 123.558 67.9755 126.289 67.9755Z" fill="#A0616A"/>
<path d="M134.043 61.2572C136.46 61.2572 138.418 59.2959 138.418 56.8766C138.418 54.4573 136.46 52.4961 134.043 52.4961C131.627 52.4961 129.668 54.4573 129.668 56.8766C129.668 59.2959 131.627 61.2572 134.043 61.2572Z" fill="#2F2E41"/>
<path d="M137.815 60.5048C137.249 60.9146 136.593 61.1826 135.902 61.2865C135.211 61.3904 134.505 61.3271 133.844 61.1019C133.182 60.8767 132.584 60.4961 132.099 59.992C131.615 59.488 131.258 58.8751 131.059 58.2046C131.134 58.8055 131.333 59.3841 131.643 59.904C131.953 60.424 132.368 60.8739 132.86 61.2254C133.353 61.5769 133.913 61.8223 134.505 61.9462C135.097 62.0701 135.708 62.0697 136.3 61.9451C136.892 61.8205 137.452 61.5744 137.944 61.2224C138.436 60.8703 138.85 60.4199 139.159 59.8996C139.469 59.3793 139.667 58.8004 139.742 58.1995C139.817 57.5985 139.766 56.9886 139.594 56.4082C139.692 57.188 139.578 57.9798 139.265 58.7006C138.952 59.4214 138.451 60.0446 137.815 60.5048Z" fill="#2F2E41"/>
<path d="M120.551 60.508C121.315 59.1389 121.607 58.567 122.592 57.7345C123.463 56.9982 124.534 56.782 125.398 57.4796C126.42 57.0374 127.557 56.9372 128.641 57.1937C129.724 57.4503 130.697 58.0499 131.413 58.9036C132.129 59.7573 132.551 60.8195 132.616 61.9324C132.681 63.0453 132.386 64.1495 131.774 65.0811C131.162 66.0127 130.267 66.7219 129.221 67.1033C128.175 67.4848 127.033 67.5182 125.967 67.1986C124.9 66.879 123.965 66.2233 123.3 65.3291C122.635 64.4349 122.276 63.3498 122.276 62.235C122.276 62.0392 122.288 61.8437 122.311 61.6492C121.56 61.5436 121.302 60.6136 120.551 60.508Z" fill="#2F2E41"/>
<path d="M165.812 141H93.6932C93.643 141 93.5948 140.98 93.5594 140.945C93.5239 140.909 93.5039 140.861 93.5039 140.811C93.5039 140.76 93.5239 140.712 93.5594 140.677C93.5948 140.641 93.643 140.621 93.6932 140.621H165.812C165.862 140.621 165.91 140.641 165.946 140.677C165.981 140.712 166.001 140.76 166.001 140.811C166.001 140.861 165.981 140.909 165.946 140.945C165.91 140.98 165.862 141 165.812 141Z" fill="#3F3D56"/>
<g clip-path="url(#clip1_1828_10255)">
<rect width="91.6364" height="17" rx="4" transform="matrix(0.999914 -0.0130896 0.188924 0.981992 1.28906 39.9609)" fill="#173552"/>
<path fill-rule="evenodd" clip-rule="evenodd" d="M42.8854 51.7382C42.5531 51.9471 42.1467 52.0547 41.6661 52.061C41.279 52.066 40.9136 51.9987 40.57 51.8589C40.2264 51.7192 39.9165 51.5112 39.6403 51.2349C39.3641 50.9586 39.1259 50.613 38.9256 50.1979C38.7253 49.7828 38.5731 49.3047 38.469 48.7635C38.3764 48.2825 38.357 47.8338 38.4108 47.4176C38.4645 47.0014 38.5878 46.6391 38.7805 46.3309C38.9732 46.0226 39.2331 45.7792 39.56 45.6005C39.887 45.4218 40.2796 45.3295 40.7379 45.3235C41.1517 45.3181 41.5185 45.3811 41.8382 45.5126C42.1579 45.644 42.457 45.8306 42.7355 46.0724L42.0389 42.4516L43.2269 42.4361L45.0527 51.9262L44.3452 51.9355C44.1761 51.9377 44.0541 51.8596 43.979 51.7013L43.7197 50.9102C43.4958 51.2533 43.2177 51.5293 42.8854 51.7382ZM35.3521 52.1438C35.5968 52.1406 35.8399 52.117 36.0812 52.0729C36.3225 52.0289 36.5521 51.9645 36.77 51.8798C36.9879 51.7952 37.187 51.6882 37.3673 51.5588C37.5476 51.4294 37.6947 51.2778 37.8085 51.1041L37.3942 50.6897C37.3267 50.6174 37.2441 50.5818 37.1462 50.5831C37.0705 50.5841 36.9868 50.6186 36.8951 50.6865C36.8033 50.7545 36.687 50.8281 36.5462 50.9075C36.4053 50.9868 36.2334 51.0612 36.0304 51.1306C35.8274 51.2 35.5768 51.2366 35.2787 51.2406C34.9583 51.2447 34.6594 51.1981 34.3819 51.1005C34.1044 51.0029 33.8526 50.8534 33.6264 50.6518C33.4003 50.4502 33.2045 50.1977 33.039 49.8941C32.8736 49.5906 32.7467 49.2327 32.6585 48.8204L37.1571 48.7616C37.2683 48.7601 37.3382 48.729 37.3666 48.6684C37.3951 48.6077 37.392 48.4872 37.3573 48.3068C37.2681 47.8429 37.1184 47.4304 36.9084 47.0693C36.6985 46.7082 36.4451 46.4058 36.1484 46.1621C35.8517 45.9184 35.5195 45.7333 35.1516 45.6068C34.7838 45.4803 34.3975 45.4196 33.9925 45.4249C33.5031 45.4314 33.0785 45.5198 32.7187 45.6903C32.359 45.8608 32.0713 46.0928 31.8556 46.3862C31.64 46.6797 31.4979 47.025 31.4293 47.422C31.3607 47.8191 31.3702 48.2452 31.4578 48.7005C31.566 49.2632 31.742 49.7604 31.9856 50.1921C32.2293 50.6238 32.5229 50.9849 32.8665 51.2754C33.2101 51.5658 33.5935 51.7847 34.0166 51.932C34.4397 52.0794 34.8849 52.15 35.3521 52.1438ZM36.2388 48.0572L32.5612 48.1054C32.5322 47.5374 32.6516 47.0912 32.9193 46.7669C33.187 46.4426 33.6078 46.2767 34.1818 46.2692C34.4533 46.2656 34.7031 46.3065 34.9314 46.3918C35.1597 46.4771 35.3628 46.5993 35.5406 46.7584C35.7184 46.9176 35.8664 47.1072 35.9846 47.3275C36.1028 47.5477 36.1876 47.7909 36.2388 48.0572ZM41.8814 51.1278C41.6055 51.1314 41.3521 51.0895 41.1212 51.0021C40.8902 50.9147 40.6825 50.7743 40.4981 50.5808C40.3137 50.3873 40.1545 50.1396 40.0206 49.8378C39.8867 49.536 39.7788 49.1724 39.697 48.7472C39.5425 47.944 39.5926 47.3233 39.8473 46.8851C40.102 46.4468 40.5453 46.2236 41.1771 46.2153C41.4931 46.2112 41.7921 46.2643 42.0743 46.3747C42.3565 46.4851 42.6339 46.6807 42.9065 46.9613L43.5138 50.1182C43.3294 50.435 43.108 50.6812 42.8496 50.8568C42.5912 51.0324 42.2685 51.1227 41.8814 51.1278ZM50.3703 51.6725C50.0422 51.8685 49.6423 51.9695 49.1707 51.9757C48.8013 51.9805 48.464 51.9257 48.1588 51.8113C47.8535 51.6969 47.5845 51.5335 47.3519 51.3213C47.1192 51.109 46.9257 50.8511 46.7714 50.5474C46.6171 50.2437 46.5044 49.9071 46.4333 49.5377L45.6326 45.3757L46.8206 45.3602L47.6213 49.5222C47.7164 50.0161 47.9078 50.3968 48.1957 50.6644C48.4836 50.9319 48.8656 51.0625 49.3417 51.0563C49.6888 51.0517 50.0005 50.968 50.277 50.805C50.5534 50.6421 50.7934 50.4172 50.997 50.1303L50.0711 45.3176L51.2591 45.3021L52.5147 51.8286L51.8072 51.8378C51.6382 51.84 51.5161 51.762 51.441 51.6036L51.2125 50.9026C50.9791 51.22 50.6984 51.4766 50.3703 51.6725Z" fill="white"/>
<path fill-rule="evenodd" clip-rule="evenodd" d="M56.1921 51.7819L54.4159 42.5495L53.1211 42.5664L54.8973 51.7988L56.1921 51.7819ZM62.3328 51.7015C63.0358 51.6923 63.6553 51.5733 64.1912 51.3445C64.7271 51.1158 65.1631 50.7968 65.4992 50.3876C65.8353 49.9785 66.0623 49.4889 66.1802 48.919C66.298 48.3491 66.2905 47.7183 66.1574 47.0268C66.0244 46.3353 65.7898 45.7076 65.4538 45.1436C65.1178 44.5796 64.7039 44.0973 64.212 43.6969C63.7201 43.2964 63.1636 42.9893 62.5426 42.7757C61.9216 42.5621 61.2596 42.4599 60.5565 42.4691L56.9791 42.5159L58.7553 51.7483L62.3328 51.7015ZM59.862 50.7196L62.1379 50.6898C62.6496 50.6831 63.0989 50.5954 63.4858 50.4268C63.8727 50.2581 64.1834 50.0182 64.418 49.7073C64.6526 49.3963 64.807 49.0165 64.8812 48.5677C64.9555 48.1189 64.9381 47.611 64.829 47.0441C64.7199 46.4771 64.5423 45.9713 64.2962 45.5267C64.0501 45.0821 63.7504 44.7071 63.3972 44.4017C63.0441 44.0963 62.6426 43.8647 62.193 43.707C61.7433 43.5492 61.2626 43.4737 60.7509 43.4804L58.475 43.5102L59.862 50.7196Z" fill="#5BA5FB"/>
</g>
</g>
<defs>
<clipPath id="clip0_1828_10255">
<rect width="166" height="141" fill="white"/>
</clipPath>
<clipPath id="clip1_1828_10255">
<rect width="44.1509" height="16.9811" fill="white" transform="matrix(0.999914 -0.0130896 0.188924 0.981992 25.2852 39.6465)"/>
</clipPath>
</defs>
</svg>
