<svg width="150" height="223" viewBox="0 0 150 223" fill="none" xmlns="http://www.w3.org/2000/svg">
<g clip-path="url(#clip0_7664_8732)">
<path d="M43.9041 197.304C43.5343 196.708 43.0989 196.156 42.6061 195.656C42.4029 195.446 42.1885 195.248 41.9675 195.056C40.6234 193.864 38.985 193.051 37.2206 192.699C35.4563 192.347 33.6297 192.47 31.9287 193.054C30.2277 193.639 28.7137 194.664 27.5424 196.025C26.3711 197.385 25.5847 199.032 25.2641 200.795C23.7795 195.327 27.6441 189.94 31.5297 185.802C35.4173 181.666 39.8606 177.129 39.8383 171.461C39.8274 168.308 38.2785 165.494 35.9401 163.408C35.8679 163.345 35.7958 163.282 35.7222 163.221C32.8957 160.808 29.2593 159.546 25.5393 159.686C18.6282 160.055 12.5937 164.682 8.40301 170.169C1.65752 178.999 -1.29836 191.394 3.42398 201.446C7.57769 210.286 16.4365 215.536 25.4777 219.756C26.7402 220.346 28.0002 220.917 29.2576 221.471C29.2659 221.473 29.275 221.479 29.2834 221.481C29.3439 221.508 29.4044 221.534 29.4611 221.562C29.7206 221.676 29.9803 221.79 30.2375 221.902L30.1184 221.98L29.7467 222.22C29.8755 222.142 30.0031 222.067 30.1319 221.989C30.1703 221.965 30.2108 221.943 30.249 221.92C34.6895 219.266 39.1919 216.458 42.2596 212.315C45.4412 208.013 46.7204 201.851 43.9041 197.304Z" fill="#F1F1F1"/>
<path d="M14.2808 187.313C13.2975 189.541 12.6456 191.9 12.3457 194.316C12.1098 196.469 12.1985 198.646 12.6089 200.774C13.4907 205.146 15.4137 209.244 18.2163 212.722C20.3307 215.362 22.7716 217.725 25.4811 219.756C26.7435 220.346 28.0035 220.917 29.261 221.471C29.2693 221.473 29.2784 221.479 29.2867 221.481C29.3472 221.508 29.4078 221.534 29.4646 221.562C29.7241 221.676 29.9837 221.79 30.2409 221.902L30.1218 221.98L29.75 222.22C29.8789 222.142 30.0064 222.067 30.1353 221.989C30.1736 221.965 30.2141 221.943 30.2523 221.92C29.2751 218.515 29.1315 214.926 29.8334 211.455C30.5354 207.984 32.0624 204.73 34.2867 201.968C36.5228 199.24 39.3746 197.078 42.6094 195.656C42.4062 195.446 42.1919 195.248 41.9709 195.056C40.7249 195.626 39.5319 196.304 38.4059 197.084C34.3787 199.856 31.3547 203.846 29.7815 208.464C28.377 212.653 28.2015 217.154 29.2758 221.439C29.0529 221.294 28.8292 221.145 28.6116 220.996C24.4749 218.218 20.6623 214.881 17.7906 210.788C15.3137 207.33 13.7287 203.318 13.1752 199.105C12.6248 194.504 13.7807 189.979 15.8432 185.873C18.1208 181.481 20.9907 177.419 24.3732 173.801C27.7706 170.083 31.612 166.793 35.8117 164.005C35.9063 163.941 35.9727 163.844 35.9973 163.733C36.0218 163.622 36.0026 163.506 35.9435 163.408C35.8984 163.32 35.8201 163.253 35.7256 163.221C35.6775 163.209 35.6274 163.208 35.5788 163.217C35.5302 163.227 35.4844 163.248 35.4449 163.278C34.9265 163.622 34.4124 163.97 33.9047 164.328C29.6753 167.311 25.8344 170.805 22.4701 174.731C19.2192 178.516 16.2607 182.72 14.2808 187.313Z" fill="white"/>
<path d="M104.814 14.0556C101.248 14.0556 98.358 11.1768 98.358 7.62548C98.358 4.07419 101.248 1.19531 104.814 1.19531C108.379 1.19531 111.27 4.07419 111.27 7.62548C111.27 11.1768 108.379 14.0556 104.814 14.0556Z" fill="#F1F1F1"/>
<path d="M24.5406 100.106C22.3668 100.106 20.6047 98.3511 20.6047 96.186C20.6047 94.0208 22.3668 92.2656 24.5406 92.2656C26.7144 92.2656 28.4766 94.0208 28.4766 96.186C28.4766 98.3511 26.7144 100.106 24.5406 100.106Z" fill="#F1F1F1"/>
<path d="M139.732 110.864C137.558 110.864 135.796 109.109 135.796 106.944C135.796 104.779 137.558 103.023 139.732 103.023C141.906 103.023 143.668 104.779 143.668 106.944C143.668 109.109 141.906 110.864 139.732 110.864Z" fill="#F1F1F1"/>
<path d="M137.511 222.655H0.361893C0.266418 222.655 0.174866 222.617 0.107361 222.55C0.039856 222.482 0.00192261 222.391 0.00192261 222.296C0.00192261 222.201 0.039856 222.11 0.107361 222.043C0.174866 221.975 0.266418 221.938 0.361893 221.938H137.511C137.607 221.938 137.698 221.975 137.766 222.043C137.833 222.11 137.871 222.201 137.871 222.296C137.871 222.391 137.833 222.482 137.766 222.55C137.698 222.617 137.607 222.655 137.511 222.655Z" fill="#CBCBCB"/>
<path d="M15.4923 34.6502C15.3123 33.3767 15.6074 32.0816 16.322 31.0104C17.0365 29.9392 18.1207 29.1662 19.3691 28.838C20.6176 28.5098 21.9435 28.6491 23.0957 29.2296C24.2479 29.8101 25.1463 30.7914 25.6207 31.9876L36.75 44.6959L33.4845 53.7803L22.2919 38.9311C21.5615 39.1641 20.7887 39.2348 20.028 39.1382C19.2672 39.0415 18.537 38.7799 17.8887 38.3718C17.2404 37.9637 16.6899 37.4189 16.2759 36.7759C15.8618 36.1329 15.5944 35.4073 15.4923 34.6502Z" fill="#FFB7B7"/>
<path d="M61.6277 84.0955L24.6842 44.8244L29.6673 36.9336L76.0039 75.9662L61.6277 84.0955Z" fill="#3F3D56"/>
<path d="M69.877 60.2371C62.7199 60.2371 56.918 54.4582 56.918 47.3295C56.918 40.2008 62.7199 34.4219 69.877 34.4219C77.034 34.4219 82.8359 40.2008 82.8359 47.3295C82.8359 54.4582 77.034 60.2371 69.877 60.2371Z" fill="#2F2E41"/>
<path d="M68.832 40.039C66.0435 37.2225 62.669 35.049 58.9461 33.6716C56.5563 32.7898 53.9552 32.2449 51.4569 32.7457C48.9584 33.2465 46.5958 34.968 45.8988 37.4096C45.3288 39.4061 45.9173 41.5557 46.8019 43.4351C47.6863 45.3145 48.8672 47.0573 49.5825 49.0069C50.3123 50.9961 50.5318 53.1353 50.221 55.2305C49.9103 57.3256 49.079 59.3103 47.8029 61.0043C46.5267 62.6983 44.8459 64.048 42.9132 64.9309C40.9804 65.8138 38.8569 66.2019 36.7354 66.0601C39.1902 66.3879 41.453 67.5369 43.8524 68.1485C46.2518 68.7601 49.0838 68.7187 50.8668 67.0065C52.7534 65.195 52.7912 62.2496 52.7 59.6411C52.5644 55.7634 52.4288 51.8858 52.2932 48.0081C52.224 46.0306 52.165 43.9897 52.881 42.1439C53.597 40.2982 55.2986 38.6819 57.2852 38.6987C58.7908 38.7115 60.1234 39.6199 61.3307 40.5158C62.5382 41.4118 63.8162 42.3676 65.3159 42.5009C66.8155 42.6342 68.5279 41.5287 68.4156 40.0332L68.832 40.039Z" fill="#2F2E41"/>
<path d="M119.087 133.996C120.331 134.34 121.659 134.218 122.819 133.652C123.978 133.087 124.889 132.117 125.379 130.927C125.869 129.737 125.904 128.41 125.476 127.196C125.049 125.982 124.19 124.967 123.061 124.342L111.866 111.691L102.397 113.729L115.715 126.722C115.387 127.413 115.216 128.167 115.213 128.931C115.21 129.694 115.375 130.45 115.696 131.143C116.018 131.837 116.488 132.452 117.074 132.944C117.66 133.437 118.347 133.796 119.087 133.996H119.087Z" fill="#FFB7B7"/>
<path d="M82.2594 88.7046L110.163 123.591L118.668 119.702L85.871 68.8438L82.2594 88.7046Z" fill="#3F3D56"/>
<path d="M104.526 194.045L111.176 193.941L110.376 216.518H104.527L104.526 194.045Z" fill="#FFB7B7"/>
<path d="M103.033 214.618L114.553 214.617H114.553C116.5 214.617 118.368 215.388 119.744 216.759C121.121 218.13 121.894 219.99 121.895 221.929V222.167L103.034 222.167L103.033 214.618Z" fill="#2F2E41"/>
<path d="M60.4932 188.059L67.7578 192.704L53.2265 210.117L48.3042 206.969L60.4932 188.059Z" fill="#FFB7B7"/>
<path d="M48.0796 204.566L57.7733 210.765L57.7737 210.765C59.412 211.813 60.5653 213.466 60.98 215.361C61.3946 217.256 61.0367 219.237 59.9849 220.869L59.856 221.069L43.9847 210.92L48.0796 204.566Z" fill="#2F2E41"/>
<path d="M57.9057 119.125C57.9057 119.125 74.0466 65.7283 79.2339 65.0067C84.4212 64.2851 92.779 78.7078 92.779 78.7078C103.615 92.4788 114.789 137.086 114.789 137.086C114.789 137.086 96.1618 138.247 82.5452 145.463C68.9286 152.679 52.8592 145.098 52.8592 145.098L57.9057 119.125Z" fill="#3F3D56"/>
<path opacity="0.1" d="M57.9057 119.125C57.9057 119.125 74.0466 65.728 79.2339 65.0064C84.4212 64.2848 90.6562 78.8539 90.6562 78.8539C96.0558 101.084 114.789 137.086 114.789 137.086C114.789 137.086 96.1618 138.247 82.5452 145.463C68.9286 152.679 52.8592 145.098 52.8592 145.098L57.9057 119.125Z" fill="black"/>
<path d="M71.1458 103.144V129.976L67.9756 168.844L52.1368 198.244L59.6962 203.622L81.2945 175.656L89.837 147.887L103.253 209.359L113.332 208.642L106.332 123.412L93.0487 99.4219L71.1458 103.144Z" fill="#2F2E41"/>
<path d="M87.4195 77.1944C92.4591 82.2141 87.7795 87.5922 87.7795 87.5922L93.5391 100.5L70.8608 106.595L62.9356 71.3221L68.3352 65.5854C79.1344 65.2268 79.1402 65.0039 79.1402 65.0039C81.0323 66.8482 87.4195 77.1944 87.4195 77.1944Z" fill="#0077C8"/>
<path d="M62.02 67.6652C63.05 66.9079 64.2206 66.3617 65.464 66.0582C66.7075 65.7547 67.999 65.7 69.2638 65.8972C70.5286 66.0944 71.7416 66.5396 72.8324 67.207C73.9233 67.8744 74.8703 68.7508 75.6187 69.7853C81.3199 77.692 86.5915 90.4594 79.3281 106.383C67.6654 131.95 57.5163 145.039 53.3903 145.037C53.2102 145.039 53.031 145.011 52.86 144.954C50.3204 144.096 46.6484 139.816 45.9837 136.044C45.7457 134.694 45.8023 132.813 47.4234 131.522C52.0798 127.812 60.4391 116.261 63.0468 101.058C64.4879 92.6577 61.6932 85.0056 59.0951 80.0656C57.9976 78.0216 57.6766 75.6521 58.1908 73.3914C58.7049 71.1308 60.0199 69.1304 61.8947 67.7571L62.02 67.6652Z" fill="#3F3D56"/>
<path d="M69.2128 58.9683C64.5901 56.4513 62.8911 50.6782 65.4182 46.0737C67.9452 41.4693 73.7413 39.7771 78.3641 42.2941C82.9869 44.8111 84.6858 50.5842 82.1588 55.1887C79.6317 59.7931 73.8356 61.4853 69.2128 58.9683Z" fill="#FFB7B7"/>
<path d="M87.1953 49.9098H73.4208L73.2795 47.9401L72.5733 49.9098H70.4523L70.1724 46.0058L68.7726 49.9098H64.6686V49.7164C64.6717 46.9985 65.757 44.3927 67.6865 42.4709C69.616 40.549 72.2321 39.4679 74.9609 39.4648H76.9029C79.6317 39.4679 82.2478 40.549 84.1773 42.4708C86.1069 44.3927 87.1922 46.9985 87.1953 49.7164V49.9098Z" fill="#2F2E41"/>
<path d="M66.7556 56.9931L60.8774 55.0933V40.875H71.9805L71.7056 41.1484C67.881 44.9529 63.6274 58.4507 66.7556 56.9931Z" fill="#2F2E41"/>
</g>
<defs>
<clipPath id="clip0_7664_8732">
<rect width="150" height="222.656" fill="white" transform="matrix(-1 0 0 1 150 0)"/>
</clipPath>
</defs>
</svg>
