<svg width="186" height="130" viewBox="0 0 186 130" fill="none" xmlns="http://www.w3.org/2000/svg">
    <g clip-path="url(#clip0_971_12913)">
        <path d="M40.3012 126.208H43.197L44.5748 115.062L40.3008 115.063L40.3012 126.208Z" fill="#A0616A"/>
        <path d="M39.5625 125.262L45.2654 125.262H45.2656C46.2294 125.262 47.1538 125.644 47.8353 126.324C48.5169 127.004 48.8998 127.926 48.8999 128.888V129.006L39.5627 129.006L39.5625 125.262Z"
              fill="#2F2E41"/>
        <path d="M59.4301 126.208H62.3259L63.7037 115.062L59.4297 115.063L59.4301 126.208Z" fill="#A0616A"/>
        <path d="M58.6914 125.262L64.3943 125.262H64.3945C65.3583 125.262 66.2827 125.644 66.9642 126.324C67.6458 127.004 68.0287 127.926 68.0288 128.888V129.006L58.6916 129.006L58.6914 125.262Z"
              fill="#2F2E41"/>
        <path d="M130.271 129.023H0V129.452H130.271V129.023Z" fill="#E6E6E6"/>
        <path d="M37.8789 123.788H45.3803L50.1749 81.8972L58.9902 123.788H64.0517V73.8348L39.9868 66.6484L37.8789 123.788Z"
              fill="#2F2E41"/>
        <path d="M50.6667 29.7933C54.2796 29.7933 57.2085 26.8708 57.2085 23.2658C57.2085 19.6607 54.2796 16.7383 50.6667 16.7383C47.0538 16.7383 44.125 19.6607 44.125 23.2658C44.125 26.8708 47.0538 29.7933 50.6667 29.7933Z"
              fill="#A0616A"/>
        <path d="M40.5118 67.7026C47.531 73.1802 55.279 75.9411 64.0496 74.8888C60.3454 61.9112 59.2467 49.0318 62.82 36.3287L55.4425 32.9985L47.1496 32.4727L41.1223 34.2415C40.2744 34.4906 39.5322 35.011 39.0098 35.7224C38.4874 36.4338 38.2138 37.2968 38.2313 38.1786C38.4441 49.012 37.7222 59.1506 40.5118 67.7026Z"
              fill="#E6E6E6"/>
        <path d="M44.4091 19.9816C45.0385 18.7968 45.8381 16.4354 47.1084 15.9975C47.8138 15.7641 48.5429 15.6091 49.2824 15.5354L51.4415 16.364L50.2664 15.452C50.4952 15.4384 50.7238 15.4273 50.9524 15.4187L52.4092 15.9777L51.6638 15.3993C53.022 15.3854 54.4239 15.5263 55.4762 16.3513C56.3733 17.0546 57.2622 19.7188 57.4059 20.8481C57.5596 21.9285 57.5058 23.0281 57.2475 24.0884L56.8785 24.4384C56.7495 24.1432 56.6524 23.835 56.5891 23.5191C56.4568 22.929 56.2028 22.3727 55.8432 21.8859C55.4836 21.3991 55.0263 20.9924 54.5005 20.6917L54.4804 20.6804C53.8616 20.333 53.1108 20.349 52.4012 20.3745L49.0312 20.4955C48.2204 20.5246 47.3474 20.5758 46.7153 21.0832C46.2883 21.426 46.0325 21.9319 45.7893 22.4218C45.4752 23.0543 44.8614 25.4402 44.8614 25.4402C44.8614 25.4402 44.5142 24.9898 44.3477 25.325C44.0808 24.4505 43.9185 23.5475 43.8643 22.6348C43.8112 21.7182 43.999 20.8035 44.4091 19.9816Z"
              fill="#2F2E41"/>
        <path d="M181.129 62.1343H105.609C104.317 62.1329 103.079 61.6204 102.166 60.7093C101.253 59.7983 100.74 58.563 100.738 57.2746V5.31287C100.74 4.02443 101.253 2.78917 102.166 1.87811C103.079 0.967047 104.317 0.454576 105.609 0.453125H181.129C182.42 0.454576 183.658 0.967047 184.571 1.87811C185.484 2.78917 185.998 4.02443 185.999 5.31287V57.2746C185.998 58.563 185.484 59.7983 184.571 60.7093C183.658 61.6204 182.42 62.1329 181.129 62.1343ZM105.609 0.882059C104.431 0.88339 103.303 1.35063 102.47 2.18128C101.638 3.01193 101.169 4.13815 101.168 5.31287V57.2746C101.169 58.4493 101.638 59.5755 102.47 60.4062C103.303 61.2368 104.431 61.7041 105.609 61.7054H181.129C182.306 61.7041 183.435 61.2368 184.268 60.4062C185.1 59.5755 185.568 58.4493 185.57 57.2746V5.31287C185.568 4.13815 185.1 3.01193 184.268 2.18128C183.435 1.35063 182.306 0.883389 181.129 0.882059H105.609Z"
              fill="#F0F0F0"/>
        <path d="M92.7852 66.4976V14.536C92.7865 13.3044 93.2775 12.1236 94.1502 11.2527C95.023 10.3819 96.2063 9.89202 97.4406 9.89062H172.961C174.195 9.89202 175.379 10.3819 176.251 11.2527C177.124 12.1236 177.615 13.3044 177.616 14.536V66.4976C177.615 67.7292 177.124 68.91 176.251 69.7808C175.379 70.6517 174.195 71.1416 172.961 71.143H97.4406C96.2063 71.1416 95.023 70.6517 94.1502 69.7808C93.2775 68.91 92.7865 67.7292 92.7852 66.4976Z"
              fill="#E4E4E4"/>
        <path d="M95.7578 66.5883V14.4437C95.7582 14.064 95.9096 13.7001 96.1786 13.4316C96.4477 13.1632 96.8124 13.0122 97.1929 13.0117H173.213C173.594 13.0122 173.959 13.1632 174.228 13.4316C174.497 13.7001 174.648 14.064 174.649 14.4437V66.5883C174.648 66.9679 174.497 67.3319 174.228 67.6004C173.959 67.8688 173.594 68.0198 173.213 68.0203H97.1929C96.8124 68.0198 96.4477 67.8688 96.1786 67.6004C95.9096 67.3319 95.7582 66.968 95.7578 66.5883Z"
              fill="white"/>
        <path d="M126.385 81.9017C127.554 81.9017 128.501 80.9566 128.501 79.7907C128.501 78.6248 127.554 77.6797 126.385 77.6797C125.217 77.6797 124.27 78.6248 124.27 79.7907C124.27 80.9566 125.217 81.9017 126.385 81.9017Z"
              fill="#E6E6E6"/>
        <path d="M135.202 81.9017C136.37 81.9017 137.317 80.9566 137.317 79.7907C137.317 78.6248 136.37 77.6797 135.202 77.6797C134.033 77.6797 133.086 78.6248 133.086 79.7907C133.086 80.9566 134.033 81.9017 135.202 81.9017Z"
              fill="#E6E6E6"/>
        <path d="M144.018 81.9017C145.186 81.9017 146.134 80.9566 146.134 79.7907C146.134 78.6248 145.186 77.6797 144.018 77.6797C142.85 77.6797 141.902 78.6248 141.902 79.7907C141.902 80.9566 142.85 81.9017 144.018 81.9017Z"
              fill="#E6E6E6"/>
        <path d="M135.203 55.8433C132.165 55.8433 129.196 54.9444 126.67 53.2604C124.144 51.5764 122.175 49.1828 121.013 46.3823C119.85 43.5819 119.546 40.5004 120.139 37.5274C120.732 34.5545 122.194 31.8237 124.342 29.6803C126.49 27.5369 129.227 26.0773 132.207 25.4859C135.186 24.8945 138.274 25.198 141.081 26.358C143.887 27.518 146.286 29.4824 147.974 32.0027C149.662 34.523 150.562 37.4861 150.562 40.5173C150.558 44.5806 148.938 48.4762 146.059 51.3493C143.179 54.2225 139.275 55.8387 135.203 55.8433Z"
              fill="#0077C8"/>
        <path d="M141.262 39.0057H136.717V34.4702C136.716 34.0697 136.556 33.6858 136.272 33.4028C135.988 33.1199 135.603 32.9609 135.202 32.9609C134.801 32.9609 134.416 33.1199 134.131 33.4028C133.847 33.6858 133.687 34.0697 133.687 34.4702V39.0057H129.141C128.74 39.0063 128.355 39.1659 128.072 39.4493C127.788 39.7328 127.629 40.1169 127.629 40.5175C127.629 40.918 127.788 41.3021 128.072 41.5856C128.355 41.869 128.74 42.0286 129.141 42.0293H133.687V46.5647C133.687 46.9652 133.847 47.3491 134.131 47.6321C134.416 47.915 134.801 48.074 135.202 48.074C135.603 48.074 135.988 47.915 136.272 47.6321C136.556 47.3491 136.716 46.9652 136.717 46.5647V42.0293H141.262C141.461 42.0297 141.659 41.991 141.843 41.9154C142.027 41.8398 142.194 41.7287 142.335 41.5885C142.476 41.4483 142.588 41.2817 142.665 41.0983C142.741 40.9149 142.781 40.7182 142.781 40.5196C142.781 40.3209 142.742 40.1241 142.666 39.9405C142.59 39.7569 142.479 39.59 142.338 39.4494C142.198 39.3088 142.03 39.1973 141.847 39.1211C141.663 39.045 141.466 39.0057 141.267 39.0057H141.262Z"
              fill="white"/>
        <path d="M23.3045 116.225C22.9705 114.076 22.3187 111.988 21.3706 110.03L21.2323 109.744L20.2057 110.88L20.9664 109.188L20.9167 109.09C20.2454 107.764 19.5015 106.476 18.6883 105.232L18.5375 105.002L18.3363 105.224L18.4771 104.911L18.4066 104.805C17.3994 103.298 16.6256 102.345 16.618 102.335L16.3992 102.066L16.2584 102.387C16.2326 102.445 13.6751 108.326 13.3363 114.137L13.331 114.227L15.0522 116.303L13.2969 115.204L13.2999 115.603C13.3053 116.286 13.3518 116.968 13.4394 117.645C13.5167 118.228 13.6077 118.796 13.7124 119.351C13.8783 119.357 14.0397 119.407 14.1791 119.497C14.0579 118.876 13.9533 118.239 13.8654 117.584C13.7976 117.062 13.7549 116.531 13.7379 116.002L17.1332 118.129L13.7708 114.073C14.077 109.16 15.9771 104.211 16.5105 102.904C16.7968 103.275 17.3369 103.994 17.9829 104.955L16.8085 107.567L18.4829 105.715C19.2089 106.842 19.8776 108.006 20.4865 109.2L18.6779 113.223L21.1232 110.518C21.9773 112.35 22.5685 114.294 22.8794 116.291C23.3074 119.517 23.2239 122.616 22.6441 125.017C22.0888 127.317 21.1102 128.731 19.959 128.896C19.7221 128.929 19.481 128.914 19.2497 128.854C19.0641 128.986 18.8408 129.054 18.6133 129.048H18.5505C18.9076 129.246 19.3079 129.353 19.7162 129.36C19.8171 129.36 19.9179 129.353 20.0177 129.339C21.3712 129.145 22.452 127.648 23.061 125.126C23.6538 122.67 23.7406 119.511 23.3045 116.225Z"
              fill="#E6E6E6"/>
        <path d="M19.5175 129.192C17.7471 129.192 15.1945 128.22 12.6628 126.451C12.2901 126.188 11.9343 125.903 11.5973 125.596L11.3138 125.338L12.3859 125.03L10.9583 124.977L10.8981 124.914C8.22209 122.118 6.55687 118.168 6.54029 118.128L6.41016 117.816L6.74851 117.832C6.7822 117.833 7.58662 117.871 8.79563 118.042L8.87099 118.053V118.052L9.13609 118.092C10.1233 118.242 11.1014 118.447 12.0655 118.707L12.1685 118.735L12.4901 119.525L12.4413 118.816L12.7365 118.901C14.1352 119.304 15.4637 119.919 16.6757 120.723C20.5259 123.414 22.6564 126.776 21.5302 128.381C21.1452 128.929 20.4366 129.191 19.5175 129.192ZM12.1789 125.535C12.4141 125.734 12.6589 125.923 12.9099 126.1C16.4363 128.564 20.2226 129.496 21.178 128.135C22.1331 126.774 19.9602 123.542 16.4333 121.078C15.3453 120.356 14.1598 119.791 12.9125 119.402L13.1032 122.172L11.8506 119.093C11.0256 118.875 10.1816 118.695 9.33663 118.558L9.47505 120.569L8.6129 118.45C7.9449 118.358 7.40641 118.309 7.07887 118.283C7.52543 119.262 9.001 122.283 11.149 124.555L15.0887 124.699L12.1789 125.535Z"
              fill="#E6E6E6"/>
        <path d="M44.6257 71.9806C44.6241 71.6535 44.5508 71.3307 44.4107 71.035C44.2706 70.7392 44.0673 70.4777 43.815 70.2689C43.5627 70.0601 43.2676 69.909 42.9504 69.8262C42.6333 69.7435 42.3018 69.7312 41.9793 69.7901L38.0534 62.8711L36.4336 66.184L40.1855 72.5564C40.3206 73.0903 40.6474 73.5562 41.1038 73.8659C41.5602 74.1755 42.1146 74.3073 42.6619 74.2364C43.2092 74.1654 43.7114 73.8966 44.0733 73.4808C44.4353 73.065 44.6318 72.5312 44.6257 71.9806Z"
              fill="#A0616A"/>
        <path d="M62.1804 79.6731C62.0254 79.3849 61.9357 79.0663 61.9175 78.7397C61.8993 78.4131 61.9531 78.0865 62.0751 77.7829C62.1971 77.4793 62.3844 77.2061 62.6236 76.9825C62.8629 76.7589 63.1484 76.5904 63.46 76.4888L63.6051 68.5391L67.0198 70.8761L66.3585 78.067C66.4949 78.6007 66.4303 79.1657 66.177 79.655C65.9238 80.1443 65.4994 80.5239 64.9844 80.7219C64.4694 80.9198 63.8995 80.9224 63.3827 80.7292C62.8659 80.5359 62.4381 80.1601 62.1804 79.6731Z"
              fill="#A0616A"/>
        <path d="M38.4068 71.0318L41.2173 68.4027L39.775 54.2055L41.4437 34.1367C37.8187 35.2735 33.9265 38.3273 33.2854 42.0644L30.9922 55.4324L38.4068 71.0318Z"
              fill="#E6E6E6"/>
        <path opacity="0.2" d="M40.0376 46.582L37.7539 55.6962L41.2163 68.6294L38.9835 56.3973L40.0376 46.582Z"
              fill="black"/>
        <path d="M62.6463 75.9398L67.2134 76.4656L66.144 42.626C66.0962 41.114 65.6131 39.6477 64.7523 38.4023C63.8916 37.157 62.6896 36.1853 61.2902 35.6035L59.6602 34.9258L60.0993 50.788L62.6463 75.9398Z"
              fill="#E6E6E6"/>
        <path opacity="0.2" d="M60.937 51.3047L62.6996 70.8345L59.7148 51.4409L60.937 51.3047Z" fill="black"/>
    </g>
    <defs>
        <clipPath id="clip0_971_12913">
            <rect width="186" height="129" fill="white" transform="translate(0 0.453125)"/>
        </clipPath>
    </defs>
</svg>
