<svg width="150" height="326" viewBox="0 0 150 326" fill="none" xmlns="http://www.w3.org/2000/svg">
    <g clip-path="url(#clip0_971_12643)">
        <rect y="0.585938" width="150" height="324.8" rx="8" fill="white"/>
        <rect y="230.594" width="150" height="94.8" fill="#0062B0"/>
        <g clip-path="url(#clip1_971_12643)">
            <rect x="56.8008" y="24.9883" width="36.6545" height="14.4" rx="1.6" fill="#173552"/>
            <path fill-rule="evenodd" clip-rule="evenodd" d="M69.4971 35.6064C69.1874 35.7826 68.8322 35.8707 68.4317 35.8707C68.109 35.8707 67.8159 35.8085 67.5526 35.6843C67.2893 35.56 67.0649 35.3774 66.8794 35.1363C66.6939 34.8952 66.5511 34.5947 66.451 34.235C66.3509 33.8752 66.3008 33.4616 66.3008 32.9943C66.3008 32.5788 66.3564 32.1922 66.4677 31.8342C66.579 31.4763 66.7394 31.1657 66.9489 30.9023C67.1585 30.639 67.4135 30.4322 67.7139 30.282C68.0144 30.1318 68.3556 30.0567 68.7377 30.0567C69.0826 30.0567 69.3775 30.1151 69.6223 30.2319C69.8671 30.3488 70.0859 30.5129 70.2788 30.7243V27.5975H71.2691V35.7928H70.6794C70.5384 35.7928 70.4494 35.7242 70.4123 35.5869L70.3233 34.9026C70.0822 35.1956 69.8068 35.4302 69.4971 35.6064ZM63.1677 35.8692C63.3717 35.8692 63.5776 35.8515 63.7853 35.8163C63.993 35.7811 64.1942 35.7282 64.3889 35.6577C64.5837 35.5873 64.7663 35.4973 64.9369 35.3879C65.1076 35.2785 65.2541 35.1496 65.3765 35.0012L65.0983 34.6396C65.0538 34.5765 64.9907 34.545 64.9091 34.545C64.8461 34.545 64.771 34.5738 64.6838 34.6312C64.5966 34.6887 64.4881 34.7509 64.3583 34.8176C64.2285 34.8844 64.0737 34.9465 63.8938 35.004C63.7139 35.0615 63.4997 35.0902 63.2512 35.0902C62.9841 35.0902 62.743 35.0467 62.5279 34.9595C62.3128 34.8723 62.1273 34.7407 61.9715 34.5645C61.8157 34.3883 61.6933 34.1685 61.6043 33.9052C61.5153 33.6418 61.4671 33.3321 61.4597 32.9761H65.2096C65.3023 32.9761 65.3653 32.9501 65.3987 32.8982C65.4321 32.8462 65.4488 32.7424 65.4488 32.5866C65.4488 32.186 65.3904 31.829 65.2735 31.5156C65.1567 31.2022 64.9944 30.9388 64.7867 30.7256C64.579 30.5123 64.3324 30.3491 64.0468 30.236C63.7612 30.1228 63.4496 30.0663 63.1121 30.0663C62.7041 30.0663 62.3369 30.1377 62.0105 30.2805C61.6841 30.4233 61.4077 30.6199 61.1815 30.8702C60.9552 31.1206 60.7818 31.4164 60.6613 31.7576C60.5407 32.0989 60.4805 32.4661 60.4805 32.8592C60.4805 33.3451 60.5472 33.7754 60.6808 34.15C60.8143 34.5246 61.0007 34.839 61.2399 35.093C61.4791 35.3471 61.7629 35.54 62.0911 35.6716C62.4194 35.8033 62.7783 35.8692 63.1677 35.8692ZM64.5578 32.364H61.4922C61.559 31.8744 61.7296 31.4915 62.004 31.2152C62.2785 30.9388 62.655 30.8007 63.1335 30.8007C63.3597 30.8007 63.5609 30.8387 63.7371 30.9147C63.9133 30.9908 64.0626 31.0983 64.185 31.2374C64.3074 31.3765 64.4001 31.5416 64.4632 31.7326C64.5262 31.9236 64.5578 32.1341 64.5578 32.364ZM68.7596 35.0675C68.5297 35.0675 68.3257 35.0285 68.1476 34.9507C67.9696 34.8728 67.8194 34.7494 67.697 34.5807C67.5746 34.4119 67.4819 34.1968 67.4188 33.9353C67.3557 33.6738 67.3242 33.3595 67.3242 32.9923C67.3242 32.2987 67.4652 31.7645 67.7471 31.3899C68.0289 31.0153 68.4332 30.828 68.9599 30.828C69.2233 30.828 69.4634 30.8771 69.6804 30.9754C69.8974 31.0737 70.0968 31.2453 70.2785 31.4901V34.2163C70.0745 34.487 69.851 34.6966 69.6081 34.8449C69.3651 34.9933 69.0823 35.0675 68.7596 35.0675ZM75.7289 35.6374C75.4248 35.8025 75.0761 35.885 74.6829 35.885C74.3751 35.885 74.1034 35.834 73.8679 35.732C73.6323 35.63 73.4348 35.4863 73.2753 35.3008C73.1159 35.1154 72.9962 34.891 72.9165 34.6276C72.8367 34.3643 72.7969 34.0731 72.7969 33.7541V30.16H73.7872V33.7541C73.7872 34.1807 73.8855 34.5108 74.0821 34.7445C74.2787 34.9781 74.5754 35.095 74.9723 35.095C75.2616 35.095 75.5342 35.0264 75.7901 34.8891C76.046 34.7519 76.2816 34.5609 76.4967 34.3161V30.16H77.487V35.796H76.8973C76.7563 35.796 76.6673 35.7274 76.6302 35.5901L76.5523 34.9837C76.3075 35.2545 76.0331 35.4724 75.7289 35.6374Z" fill="white"/>
            <path fill-rule="evenodd" clip-rule="evenodd" d="M80.5559 35.7929V27.8202H79.4766V35.7929H80.5559ZM85.6735 35.7929C86.2596 35.7929 86.7937 35.6974 87.2758 35.5064C87.758 35.3153 88.1716 35.0455 88.5165 34.6968C88.8615 34.3482 89.1285 33.9291 89.3177 33.4395C89.5069 32.9499 89.6014 32.4065 89.6014 31.8093C89.6014 31.2122 89.5069 30.6688 89.3177 30.1792C89.1285 29.6896 88.8615 29.2695 88.5165 28.919C88.1716 28.5685 87.758 28.2977 87.2758 28.1067C86.7937 27.9157 86.2596 27.8202 85.6735 27.8202H82.6914V35.7929H85.6735ZM83.7773 34.9209H85.6745C86.1011 34.9209 86.4887 34.8504 86.8373 34.7095C87.186 34.5685 87.4827 34.3655 87.7275 34.1003C87.9723 33.8351 88.1615 33.5096 88.295 33.1238C88.4285 32.7381 88.4953 32.3004 88.4953 31.8108C88.4953 31.3212 88.4285 30.8836 88.295 30.4978C88.1615 30.1121 87.9723 29.7857 87.7275 29.5186C87.4827 29.2516 87.186 29.0476 86.8373 28.9066C86.4887 28.7657 86.1011 28.6952 85.6745 28.6952H83.7773V34.9209Z" fill="#5BA5FB"/>
        </g>
        <g clip-path="url(#clip2_971_12643)">
            <path d="M70.4893 235.753C70.4893 235.753 72.3984 232.62 74.8495 234.472C77.3005 236.324 81.8397 239.449 81.8397 239.449C81.8397 239.449 82.7694 241.448 80.3631 240.697C77.9568 239.946 70.1016 238.738 70.1016 238.738L70.4893 235.753Z" fill="#FEB8B8"/>
            <path d="M17.1407 215.859C17.7491 210.967 20.781 206.147 25.4465 204.555C23.6065 209.59 23.6069 215.114 25.4476 220.149C26.1646 222.088 27.1639 224.17 26.4895 226.125C26.0699 227.341 25.0435 228.271 23.8962 228.853C22.7487 229.435 21.4753 229.712 20.2179 229.984L19.9704 230.189C17.9742 225.681 16.5323 220.751 17.1407 215.859Z" fill="#F0F0F0"/>
            <path d="M25.4891 204.645C22.7721 207.69 21.0834 211.513 20.6629 215.572C20.5568 216.444 20.5889 217.327 20.758 218.189C20.9498 219.024 21.3616 219.792 21.9505 220.413C22.4881 221.004 23.1063 221.546 23.4909 222.257C23.6823 222.623 23.7941 223.027 23.8188 223.44C23.8435 223.853 23.7807 224.266 23.6343 224.653C23.2947 225.627 22.6255 226.421 21.944 227.175C21.1874 228.011 20.3883 228.868 20.0666 229.978C20.0277 230.112 19.8214 230.044 19.8603 229.91C20.4199 227.98 22.2933 226.884 23.1867 225.145C23.6035 224.334 23.7785 223.393 23.3877 222.536C23.0459 221.788 22.4089 221.229 21.8595 220.635C21.2761 220.037 20.8479 219.306 20.6124 218.504C20.4 217.653 20.3339 216.773 20.417 215.9C20.5727 213.932 21.0369 212 21.7926 210.176C22.6435 208.089 23.8451 206.164 25.3453 204.483C25.4382 204.378 25.5814 204.542 25.4891 204.645Z" fill="white"/>
            <path d="M20.7216 214.264C20.0502 214.101 19.4586 213.704 19.0525 213.145C18.6464 212.587 18.4521 211.902 18.5045 211.213C18.5155 211.073 18.7326 211.084 18.7215 211.223C18.6716 211.865 18.8526 212.503 19.2319 213.023C19.6111 213.542 20.1636 213.909 20.7897 214.057C20.9257 214.09 20.8568 214.296 20.7216 214.264Z" fill="white"/>
            <path d="M21.6407 220.154C22.8533 219.43 23.7484 218.275 24.1477 216.92C24.1871 216.786 24.3934 216.855 24.354 216.989C23.9359 218.398 23.0019 219.597 21.7384 220.348C21.6179 220.419 21.5209 220.225 21.6407 220.154Z" fill="white"/>
            <path d="M22.8449 208.295C23.0916 208.412 23.3634 208.466 23.6362 208.452C23.9089 208.438 24.1739 208.357 24.4074 208.215C24.5269 208.142 24.6238 208.337 24.5051 208.409C24.2464 208.565 23.9536 208.654 23.6523 208.67C23.3511 208.686 23.0505 208.628 22.7768 208.501C22.75 208.491 22.728 208.471 22.7151 208.446C22.7023 208.421 22.6996 208.391 22.7077 208.364C22.7169 208.336 22.7364 208.314 22.7621 208.301C22.7878 208.288 22.8176 208.286 22.8449 208.295Z" fill="white"/>
            <path d="M39.6638 213.29C39.5904 213.337 39.5171 213.385 39.4437 213.435C38.4611 214.081 37.5327 214.806 36.6675 215.602C36.5996 215.663 36.5317 215.725 36.4657 215.787C34.4018 217.728 32.7161 220.036 31.4945 222.592C31.0093 223.61 30.6023 224.663 30.2769 225.743C29.8276 227.233 29.459 228.886 28.5697 230.105C28.4783 230.233 28.3791 230.356 28.2726 230.472H20.2353C20.217 230.463 20.1986 230.455 20.1803 230.446L19.8594 230.461C19.8723 230.404 19.8869 230.345 19.8998 230.288C19.9071 230.255 19.9162 230.222 19.9236 230.189C19.929 230.167 19.9346 230.145 19.9383 230.125C19.94 230.118 19.9419 230.111 19.9437 230.105C19.9474 230.085 19.9529 230.067 19.9566 230.048C20.0373 229.72 20.1204 229.392 20.206 229.064C20.206 229.062 20.206 229.062 20.2078 229.06C20.8661 226.56 21.739 224.094 22.9584 221.839C22.9951 221.771 23.0317 221.701 23.0721 221.633C23.6274 220.62 24.2646 219.653 24.9774 218.743C25.3693 218.246 25.7861 217.77 26.2262 217.315C27.3656 216.142 28.6824 215.155 30.1283 214.392C33.011 212.87 36.3484 212.287 39.4291 213.216C39.5079 213.24 39.585 213.264 39.6638 213.29Z" fill="#F0F0F0"/>
            <path d="M39.6435 213.399C35.6413 214.194 31.9912 216.229 29.2118 219.217C28.602 219.849 28.0958 220.574 27.7117 221.364C27.3624 222.146 27.2288 223.007 27.3249 223.858C27.3985 224.653 27.5659 225.458 27.4449 226.257C27.3769 226.665 27.2234 227.054 26.9945 227.399C26.7655 227.744 26.4663 228.036 26.1164 228.257C25.2589 228.83 24.2466 229.061 23.2488 229.253C22.141 229.465 20.9869 229.668 20.0623 230.36C19.9502 230.444 19.8267 230.265 19.9385 230.182C21.5472 228.978 23.703 229.23 25.4628 228.38C26.284 227.984 26.9906 227.337 27.194 226.418C27.3719 225.615 27.2 224.785 27.1185 223.98C27.0127 223.152 27.1113 222.31 27.4059 221.528C27.7485 220.721 28.226 219.978 28.8179 219.331C30.1272 217.853 31.6607 216.59 33.3623 215.589C35.298 214.435 37.4167 213.621 39.6268 213.182C39.7636 213.155 39.7794 213.372 39.6435 213.399H39.6435Z" fill="white"/>
            <path d="M30.0505 218.203C29.6126 217.668 29.3789 216.996 29.3911 216.305C29.4033 215.614 29.6607 214.95 30.1172 214.431C30.21 214.327 30.3769 214.466 30.284 214.571C29.858 215.053 29.6183 215.671 29.6082 216.315C29.5982 216.958 29.8184 217.584 30.2291 218.079C30.3182 218.187 30.1391 218.31 30.0505 218.203H30.0505Z" fill="white"/>
            <path d="M27.235 223.461C28.6391 223.613 30.0489 223.23 31.1833 222.389C31.2956 222.305 31.4192 222.484 31.307 222.567C30.1249 223.441 28.657 223.836 27.1961 223.675C27.0569 223.659 27.0965 223.446 27.235 223.461Z" fill="white"/>
            <path d="M35.3372 214.715C35.4636 214.957 35.6481 215.163 35.8742 215.317C36.1002 215.47 36.3608 215.564 36.6325 215.592C36.7718 215.606 36.7321 215.819 36.5937 215.806C36.2937 215.774 36.006 215.669 35.7559 215.5C35.5057 215.332 35.3006 215.104 35.1586 214.838C35.1431 214.814 35.1373 214.785 35.1424 214.757C35.1475 214.729 35.1631 214.704 35.1861 214.687C35.2098 214.671 35.239 214.665 35.2673 214.67C35.2956 214.675 35.3207 214.691 35.3372 214.715Z" fill="white"/>
            <path d="M135.475 208.008C134.54 200.489 129.88 193.08 122.708 190.633C125.537 198.372 125.536 206.863 122.707 214.602C121.605 217.583 120.069 220.783 121.105 223.787C121.75 225.656 123.328 227.087 125.091 227.981C126.855 228.875 128.812 229.301 130.745 229.719L131.125 230.033C134.194 223.105 136.41 215.527 135.475 208.008Z" fill="#F0F0F0"/>
            <path d="M122.636 190.782C126.812 195.461 129.407 201.338 130.054 207.576C130.184 208.913 130.2 210.281 129.908 211.6C129.613 212.882 128.98 214.063 128.075 215.018C127.248 215.926 126.298 216.758 125.707 217.851C125.084 219.003 125.06 220.312 125.487 221.535C126.008 223.032 127.037 224.252 128.085 225.411C129.248 226.697 130.476 228.014 130.97 229.719C131.03 229.925 131.347 229.82 131.287 229.614C130.427 226.648 127.548 224.963 126.175 222.291C125.534 221.045 125.265 219.597 125.866 218.281C126.391 217.131 127.37 216.271 128.215 215.359C129.101 214.402 129.781 213.351 130.131 212.083C130.49 210.787 130.527 209.415 130.432 208.08C130.192 205.055 129.479 202.086 128.317 199.283C127.009 196.076 125.163 193.116 122.857 190.532C122.714 190.372 122.494 190.623 122.636 190.782L122.636 190.782Z" fill="white"/>
            <path d="M129.964 205.553C130.996 205.303 131.906 204.694 132.53 203.835C133.154 202.975 133.453 201.922 133.372 200.864C133.355 200.649 133.022 200.666 133.039 200.88C133.115 201.866 132.837 202.847 132.254 203.646C131.671 204.445 130.822 205.009 129.86 205.236C129.651 205.286 129.757 205.603 129.964 205.553H129.964Z" fill="white"/>
            <path d="M128.553 214.605C126.689 213.492 125.313 211.718 124.7 209.635C124.639 209.429 124.322 209.534 124.383 209.74C125.025 211.906 126.461 213.749 128.403 214.903C128.588 215.013 128.737 214.714 128.553 214.605Z" fill="white"/>
            <path d="M126.701 196.389C126.322 196.569 125.904 196.652 125.485 196.631C125.066 196.609 124.659 196.484 124.3 196.267C124.116 196.155 123.967 196.454 124.149 196.565C124.547 196.804 124.997 196.941 125.46 196.966C125.923 196.99 126.385 196.901 126.806 196.706C126.847 196.691 126.881 196.661 126.901 196.621C126.92 196.582 126.925 196.537 126.912 196.495C126.898 196.453 126.868 196.418 126.829 196.398C126.789 196.379 126.743 196.375 126.701 196.389Z" fill="white"/>
            <path d="M100.852 204.065C100.964 204.138 101.077 204.212 101.19 204.288C102.7 205.281 104.127 206.395 105.457 207.619C105.561 207.712 105.666 207.808 105.767 207.904C108.94 210.888 111.53 214.434 113.408 218.364C114.154 219.928 114.78 221.547 115.28 223.206C115.97 225.497 116.537 228.037 117.904 229.911C118.044 230.108 118.197 230.297 118.36 230.475H130.714C130.742 230.461 130.77 230.45 130.799 230.435L131.292 230.458C131.272 230.371 131.25 230.28 131.23 230.193C131.219 230.142 131.204 230.092 131.193 230.041C131.185 230.007 131.176 229.973 131.171 229.942C131.168 229.931 131.165 229.92 131.162 229.911C131.157 229.88 131.148 229.852 131.142 229.824C131.018 229.319 130.891 228.815 130.759 228.31C130.759 228.307 130.759 228.307 130.756 228.305C129.744 224.463 128.403 220.672 126.529 217.205C126.472 217.101 126.416 216.994 126.354 216.89C125.5 215.332 124.521 213.846 123.425 212.447C122.823 211.684 122.182 210.951 121.506 210.252C119.754 208.449 117.73 206.933 115.508 205.759C111.077 203.42 105.948 202.523 101.212 203.952C101.091 203.989 100.973 204.026 100.852 204.065Z" fill="#F0F0F0"/>
            <path d="M100.875 204.223C107.027 205.445 112.637 208.574 116.909 213.166C117.819 214.155 118.655 215.238 119.215 216.467C119.752 217.668 119.957 218.992 119.81 220.3C119.697 221.522 119.439 222.759 119.625 223.987C119.821 225.282 120.59 226.341 121.667 227.062C122.985 227.943 124.541 228.297 126.075 228.592C127.778 228.918 129.552 229.231 130.973 230.294C131.145 230.423 131.335 230.148 131.163 230.02C128.69 228.169 125.377 228.557 122.672 227.251C121.41 226.641 120.324 225.648 120.011 224.235C119.737 223 120.002 221.724 120.127 220.488C120.258 219.19 120.169 217.941 119.685 216.718C119.191 215.467 118.395 214.35 117.515 213.341C115.502 211.07 113.145 209.129 110.53 207.59C107.555 205.817 104.298 204.565 100.901 203.89C100.691 203.849 100.667 204.182 100.875 204.223V204.223Z" fill="white"/>
            <path d="M115.623 211.603C116.297 210.782 116.656 209.748 116.637 208.686C116.618 207.625 116.223 206.604 115.521 205.807C115.378 205.646 115.122 205.86 115.265 206.021C115.919 206.762 116.288 207.713 116.303 208.702C116.319 209.69 115.98 210.652 115.349 211.413C115.212 211.579 115.487 211.768 115.623 211.603L115.623 211.603Z" fill="white"/>
            <path d="M119.952 219.689C117.794 219.923 115.627 219.334 113.883 218.041C113.71 217.913 113.521 218.188 113.693 218.316C115.51 219.658 117.766 220.266 120.011 220.018C120.225 219.994 120.165 219.665 119.952 219.689Z" fill="white"/>
            <path d="M107.499 206.255C107.305 206.627 107.022 206.945 106.674 207.181C106.327 207.416 105.926 207.561 105.508 207.604C105.294 207.625 105.355 207.953 105.568 207.932C106.029 207.883 106.471 207.722 106.856 207.463C107.24 207.204 107.556 206.854 107.774 206.445C107.798 206.408 107.807 206.364 107.799 206.321C107.791 206.278 107.767 206.239 107.732 206.213C107.695 206.188 107.65 206.178 107.607 206.186C107.563 206.194 107.525 206.219 107.499 206.255V206.255Z" fill="white"/>
            <path d="M149.877 230.656H0.183374C0.13474 230.656 0.0880982 230.636 0.0537089 230.602C0.0193196 230.568 0 230.521 0 230.472C0 230.424 0.0193196 230.377 0.0537089 230.343C0.0880982 230.308 0.13474 230.289 0.183374 230.289H149.817C149.865 230.289 149.912 230.308 149.946 230.343C149.981 230.377 150 230.424 150 230.472C150 230.574 149.978 230.656 149.877 230.656Z" fill="#CACACA"/>
            <path d="M61.1106 239.646C59.0565 239.646 57.1759 239.45 55.6818 238.984C53.9058 238.431 52.7907 237.537 52.367 236.324C52.1679 235.809 52.1085 235.251 52.1947 234.706C52.2809 234.161 52.5097 233.648 52.8579 233.219C55.4852 229.796 64.6024 228.83 65.8257 228.716L68.3075 224.017C68.4662 222.896 67.715 222.047 69.013 222.026L84.3678 221.817C85.6426 221.79 85.2808 222.58 85.499 223.673L87.8384 227.849L77.77 232.098L79.2923 235.808L79.193 235.866C76.2462 237.575 67.7719 239.646 61.1106 239.646Z" fill="#2F2E41"/>
            <path d="M86.446 228.023C86.446 228.023 100.507 226.414 99.5901 232.85C98.6731 239.287 87.9744 243.846 71.7734 232.85L73.6075 229.632C73.6075 229.632 79.6447 229.332 83.3128 227.723L86.446 228.023Z" fill="#2F2E41"/>
            <path d="M66.5356 198.865C66.5356 198.865 63.8631 198.379 63.1343 202.51C62.4054 206.64 61.2378 216.423 61.2378 216.423L57.6127 228.991C57.1851 229.218 56.831 229.562 56.5916 229.982C56.3522 230.403 56.2375 230.883 56.2608 231.367C56.2841 231.85 56.4445 232.317 56.7232 232.713C57.002 233.109 57.3876 233.417 57.835 233.602C58.2824 233.787 58.7732 233.84 59.25 233.756C59.7268 233.673 60.1699 233.455 60.5276 233.129C60.8853 232.803 61.1428 232.382 61.2701 231.915C61.3974 231.448 61.3891 230.954 61.2463 230.491L66.0969 217.153L67.0215 205.669V199.651C67.0215 199.488 66.9761 199.328 66.8903 199.189C66.8044 199.051 66.6816 198.938 66.5356 198.865Z" fill="#FEB8B8"/>
            <path d="M85.3453 198.865C85.3453 198.865 88.0178 198.379 88.7466 202.51C89.4755 206.64 90.643 216.423 90.643 216.423L94.2682 228.991C94.6957 229.218 95.0499 229.562 95.2893 229.982C95.5287 230.403 95.6434 230.883 95.6201 231.367C95.5968 231.85 95.4364 232.317 95.1577 232.713C94.8789 233.109 94.4933 233.417 94.0459 233.602C93.5985 233.787 93.1077 233.84 92.6309 233.756C92.1541 233.673 91.711 233.455 91.3533 233.129C90.9956 232.803 90.7381 232.382 90.6108 231.915C90.4835 231.448 90.4918 230.954 90.6346 230.491L85.784 217.153L84.8594 205.669V199.651C84.8594 199.488 84.9048 199.328 84.9906 199.189C85.0765 199.051 85.1993 198.938 85.3453 198.865Z" fill="#FEB8B8"/>
            <path d="M85.1451 195.451L80.09 193.56L70.2918 193.434L66.0742 195.451L67.2588 202.259C67.2588 202.259 64.8671 206.308 67.5004 210.359L68.0913 224.791C68.0913 224.791 77.5381 230.269 85.5119 223.69L83.7097 210.272C83.7097 210.272 86.7241 204.047 84.3876 201.734L85.1451 195.451Z" fill="#0062B0"/>
            <path d="M83.0898 197.565L85.1488 195.449C85.1488 195.449 89.6423 197.813 89.5498 205.718L83.8814 203.971L83.0898 197.565Z" fill="#0062B0"/>
            <path d="M68.3627 197.566L66.1752 195.379C66.1752 195.379 62.3153 198.365 62.4079 206.27L67.5712 203.973L68.3627 197.566Z" fill="#0062B0"/>
            <path d="M82.6221 234.187C82.6221 234.187 81.0476 230.874 78.418 232.462C75.7883 234.05 70.95 236.688 70.95 236.688C70.95 236.688 69.8184 238.58 72.2895 238.082C74.7606 237.585 82.6987 237.197 82.6987 237.197L82.6221 234.187Z" fill="#FEB8B8"/>
            <path d="M78.2476 174.963C78.2699 174.942 78.2931 174.923 78.3151 174.901C79.7221 173.494 80.0073 171.498 78.952 170.442C77.9547 169.445 76.1178 169.646 74.7312 170.859C73.5424 169.727 71.9483 169.411 70.9165 170.193C69.7267 171.094 69.7359 173.11 70.9373 174.697C71.0195 174.805 71.1059 174.908 71.1945 175.007C69.5958 175.592 68.2155 176.654 67.2403 178.049C66.2651 179.445 65.7422 181.106 65.7422 182.809V190.716C65.7422 190.948 65.7879 191.177 65.8766 191.391C65.9653 191.606 66.0954 191.8 66.2593 191.964C66.4233 192.128 66.6179 192.258 66.8321 192.347C67.0464 192.436 67.276 192.481 67.5078 192.481H82.1219C82.5745 192.481 83.0085 192.302 83.3285 191.982C83.6485 191.662 83.8283 191.228 83.8283 190.775V182.809C83.828 181.083 83.2906 179.401 82.2905 177.995C81.2904 176.589 79.8774 175.53 78.2476 174.963Z" fill="#2F2E41"/>
            <path d="M79.918 189.665C82.6262 186.957 82.6262 182.566 79.918 179.858C77.2098 177.15 72.8189 177.15 70.1107 179.858C67.4025 182.566 67.4025 186.957 70.1107 189.665C72.8189 192.374 77.2098 192.374 79.918 189.665Z" fill="#FFB6B6"/>
            <path d="M67.7266 180.401C69.3113 181.493 71.1922 182.075 73.1168 182.067C72.4303 182.543 71.6487 182.864 70.8259 183.009C73.3849 183.558 76.0296 183.573 78.5945 183.053C79.1647 182.962 79.7148 182.773 80.2208 182.494C80.4729 182.354 80.6926 182.161 80.8656 181.93C81.0385 181.699 81.1608 181.434 81.2246 181.152C81.395 180.178 80.6363 179.294 79.8479 178.697C78.6407 177.799 77.2488 177.179 75.7728 176.884C74.2969 176.589 72.7739 176.626 71.314 176.992C70.3607 177.239 69.4057 177.655 68.7865 178.42C68.1673 179.186 67.9839 180.366 68.5738 181.155L67.7266 180.401Z" fill="#2F2E41"/>
            <path d="M30.6368 166.562L30.8554 166.267L36.6773 170.586C36.3609 169.622 35.2411 166.565 33.4052 165.345C31.212 163.888 29.669 164.341 28.8283 165.606C27.9877 166.872 28.1677 168.47 30.3609 169.927C32.22 171.162 35.5318 170.991 36.4981 170.91L30.6368 166.562Z" fill="#F2F2F2"/>
            <path d="M118.234 142.917L118.505 143.165L113.604 148.507C114.596 148.292 117.753 147.496 119.157 145.797C120.834 143.768 120.544 142.186 119.373 141.218C118.202 140.25 116.594 140.263 114.916 142.293C113.494 144.014 113.321 147.325 113.301 148.295L118.234 142.917Z" fill="#F2F2F2"/>
            <path d="M39.1992 199.949L39.4695 200.197L34.5689 205.538C35.5609 205.323 38.7176 204.528 40.1217 202.829C41.799 200.799 41.5087 199.217 40.3377 198.249C39.1667 197.282 37.5585 197.294 35.8811 199.324C34.4592 201.045 34.2856 204.356 34.2656 205.326L39.1992 199.949Z" fill="#F2F2F2"/>
            <path d="M80.6364 149.035L80.9539 149.219L77.3235 155.493C78.2457 155.069 81.1559 153.61 82.1595 151.648C83.3585 149.304 82.7332 147.822 81.3807 147.13C80.0282 146.438 78.4609 146.798 77.2618 149.143C76.2454 151.13 76.7916 154.401 76.9816 155.352L80.6364 149.035Z" fill="#F2F2F2"/>
            <path d="M114.562 188.281L114.88 188.465L111.249 194.739C112.171 194.316 115.082 192.856 116.085 190.894C117.284 188.55 116.659 187.068 115.307 186.376C113.954 185.684 112.387 186.045 111.188 188.389C110.171 190.376 110.717 193.647 110.907 194.598L114.562 188.281Z" fill="#F2F2F2"/>
            <path d="M80 200.195L75.7536 205.857C75.6848 205.949 75.5971 206.025 75.4965 206.079C75.3959 206.134 75.2847 206.167 75.1704 206.175C75.0561 206.183 74.9414 206.166 74.8341 206.126C74.7268 206.086 74.6293 206.024 74.5483 205.943L72 203.395" stroke="white" stroke-width="2" stroke-linecap="round" stroke-linejoin="round"/>
        </g>
        <path d="M48.976 100.15C49.0656 100.035 49.1776 99.977 49.312 99.977C49.4272 99.977 49.5296 100.025 49.6192 100.121C49.7152 100.211 49.7632 100.316 49.7632 100.438C49.7632 100.553 49.7248 100.652 49.648 100.735L47.3824 103.558V106.342C47.3824 106.502 47.3344 106.627 47.2384 106.716C47.1488 106.799 47.0304 106.841 46.8832 106.841C46.736 106.841 46.6176 106.799 46.528 106.716C46.4384 106.627 46.3936 106.502 46.3936 106.342V103.558L44.128 100.735C44.0512 100.652 44.0128 100.55 44.0128 100.428C44.0128 100.307 44.0576 100.201 44.1472 100.111C44.2368 100.022 44.3424 99.977 44.464 99.977C44.592 99.977 44.704 100.035 44.8 100.15L46.8928 102.78L48.976 100.15ZM51.7194 106.86C51.2586 106.86 50.8522 106.761 50.5002 106.563C50.1546 106.364 49.8858 106.083 49.6938 105.718C49.5082 105.347 49.4154 104.918 49.4154 104.431C49.4154 103.939 49.5082 103.51 49.6938 103.145C49.8858 102.774 50.1546 102.489 50.5002 102.291C50.8522 102.092 51.2586 101.993 51.7194 101.993C52.1802 101.993 52.5834 102.092 52.929 102.291C53.281 102.489 53.5498 102.774 53.7354 103.145C53.9274 103.51 54.0234 103.939 54.0234 104.431C54.0234 104.918 53.9274 105.347 53.7354 105.718C53.5498 106.083 53.281 106.364 52.929 106.563C52.5834 106.761 52.1802 106.86 51.7194 106.86ZM51.7194 106.092C52.1482 106.092 52.4746 105.951 52.6986 105.67C52.929 105.388 53.0442 104.975 53.0442 104.431C53.0442 103.894 52.929 103.484 52.6986 103.203C52.4682 102.915 52.1418 102.771 51.7194 102.771C51.297 102.771 50.9706 102.915 50.7402 103.203C50.5098 103.484 50.3946 103.894 50.3946 104.431C50.3946 104.975 50.5066 105.388 50.7306 105.67C50.961 105.951 51.2906 106.092 51.7194 106.092ZM58.6606 102.012C58.8078 102.012 58.923 102.054 59.0062 102.137C59.0958 102.22 59.1406 102.335 59.1406 102.483V106.39C59.1406 106.524 59.0958 106.633 59.0062 106.716C58.9166 106.799 58.7982 106.841 58.651 106.841C58.5166 106.841 58.4078 106.803 58.3246 106.726C58.2414 106.643 58.1998 106.534 58.1998 106.399V106.035C58.0526 106.303 57.8478 106.508 57.5854 106.649C57.3294 106.79 57.0414 106.86 56.7214 106.86C55.5822 106.86 55.0126 106.233 55.0126 104.979V102.483C55.0126 102.335 55.0542 102.22 55.1374 102.137C55.227 102.054 55.3486 102.012 55.5022 102.012C55.6494 102.012 55.7646 102.054 55.8478 102.137C55.9374 102.22 55.9822 102.335 55.9822 102.483V104.969C55.9822 105.347 56.059 105.625 56.2126 105.804C56.3662 105.983 56.603 106.073 56.923 106.073C57.3006 106.073 57.6014 105.951 57.8254 105.708C58.0558 105.465 58.171 105.142 58.171 104.739V102.483C58.171 102.342 58.2158 102.23 58.3054 102.147C58.395 102.057 58.5134 102.012 58.6606 102.012ZM62.884 102.012C63.1912 101.993 63.3448 102.124 63.3448 102.406C63.3448 102.547 63.3096 102.652 63.2392 102.723C63.1688 102.793 63.0472 102.835 62.8744 102.847L62.5864 102.876C62.1832 102.915 61.8824 103.055 61.684 103.299C61.492 103.542 61.396 103.836 61.396 104.182V106.38C61.396 106.534 61.3512 106.649 61.2616 106.726C61.172 106.803 61.0568 106.841 60.916 106.841C60.7752 106.841 60.6568 106.803 60.5608 106.726C60.4712 106.649 60.4264 106.534 60.4264 106.38V102.473C60.4264 102.326 60.4712 102.214 60.5608 102.137C60.6568 102.054 60.7752 102.012 60.916 102.012C61.044 102.012 61.1496 102.054 61.2328 102.137C61.3224 102.214 61.3672 102.323 61.3672 102.463V102.924C61.4952 102.643 61.6808 102.428 61.924 102.281C62.1672 102.134 62.4424 102.047 62.7496 102.022L62.884 102.012ZM69.9982 105.612C70.0878 105.612 70.1614 105.647 70.219 105.718C70.2766 105.788 70.3054 105.878 70.3054 105.987C70.3054 106.172 70.1902 106.329 69.9598 106.457C69.7358 106.585 69.4894 106.684 69.2206 106.755C68.9582 106.825 68.7054 106.86 68.4622 106.86C67.7198 106.86 67.1342 106.646 66.7054 106.217C66.2766 105.782 66.0622 105.19 66.0622 104.441C66.0622 103.961 66.155 103.535 66.3406 103.164C66.5326 102.793 66.7982 102.505 67.1374 102.3C67.483 102.095 67.8734 101.993 68.3086 101.993C68.9358 101.993 69.4318 102.195 69.7966 102.598C70.1614 103.001 70.3438 103.545 70.3438 104.23C70.3438 104.486 70.2286 104.614 69.9982 104.614H67.0318C67.0958 105.606 67.5726 106.102 68.4622 106.102C68.699 106.102 68.9038 106.07 69.0766 106.006C69.2494 105.942 69.4318 105.859 69.6238 105.756C69.643 105.743 69.6942 105.718 69.7774 105.679C69.867 105.635 69.9406 105.612 69.9982 105.612ZM68.3278 102.703C67.9566 102.703 67.659 102.822 67.435 103.059C67.211 103.295 67.0766 103.628 67.0318 104.057H69.5086C69.4894 103.622 69.3774 103.289 69.1726 103.059C68.9742 102.822 68.6926 102.703 68.3278 102.703ZM75.1716 99.977C75.3188 99.977 75.4372 100.019 75.5268 100.102C75.6164 100.185 75.6612 100.297 75.6612 100.438V106.371C75.6612 106.518 75.6164 106.633 75.5268 106.716C75.4436 106.799 75.3284 106.841 75.1812 106.841C75.034 106.841 74.9156 106.799 74.826 106.716C74.7428 106.633 74.7012 106.518 74.7012 106.371V105.987C74.5604 106.268 74.3556 106.486 74.0868 106.639C73.818 106.787 73.5076 106.86 73.1556 106.86C72.7524 106.86 72.3908 106.758 72.0708 106.553C71.7572 106.348 71.5108 106.06 71.3316 105.689C71.1588 105.318 71.0724 104.892 71.0724 104.412C71.0724 103.926 71.1588 103.5 71.3316 103.135C71.5108 102.771 71.7572 102.489 72.0708 102.291C72.3844 102.092 72.746 101.993 73.1556 101.993C73.5076 101.993 73.8148 102.07 74.0772 102.223C74.346 102.371 74.5508 102.582 74.6916 102.857V100.419C74.6916 100.284 74.7332 100.179 74.8164 100.102C74.906 100.019 75.0244 99.977 75.1716 99.977ZM73.386 106.092C73.802 106.092 74.1252 105.948 74.3556 105.66C74.586 105.372 74.7012 104.963 74.7012 104.431C74.7012 103.9 74.586 103.491 74.3556 103.203C74.1316 102.915 73.8084 102.771 73.386 102.771C72.9636 102.771 72.634 102.915 72.3972 103.203C72.1668 103.484 72.0516 103.887 72.0516 104.412C72.0516 104.937 72.17 105.35 72.4068 105.651C72.6436 105.945 72.97 106.092 73.386 106.092ZM80.5707 102.012C80.7179 102.012 80.8331 102.054 80.9163 102.137C81.0059 102.22 81.0507 102.335 81.0507 102.483V106.39C81.0507 106.524 81.0059 106.633 80.9163 106.716C80.8267 106.799 80.7083 106.841 80.5611 106.841C80.4267 106.841 80.3179 106.803 80.2347 106.726C80.1515 106.643 80.1099 106.534 80.1099 106.399V106.035C79.9627 106.303 79.7579 106.508 79.4955 106.649C79.2395 106.79 78.9515 106.86 78.6315 106.86C77.4923 106.86 76.9227 106.233 76.9227 104.979V102.483C76.9227 102.335 76.9643 102.22 77.0475 102.137C77.1371 102.054 77.2587 102.012 77.4123 102.012C77.5595 102.012 77.6747 102.054 77.7579 102.137C77.8475 102.22 77.8923 102.335 77.8923 102.483V104.969C77.8923 105.347 77.9691 105.625 78.1227 105.804C78.2763 105.983 78.5131 106.073 78.8331 106.073C79.2107 106.073 79.5115 105.951 79.7355 105.708C79.9659 105.465 80.0811 105.142 80.0811 104.739V102.483C80.0811 102.342 80.1259 102.23 80.2155 102.147C80.3051 102.057 80.4235 102.012 80.5707 102.012ZM82.9412 106.841C82.794 106.841 82.6756 106.796 82.586 106.707C82.4964 106.617 82.4516 106.495 82.4516 106.342V100.476C82.4516 100.329 82.4964 100.211 82.586 100.121C82.6756 100.025 82.794 99.977 82.9412 99.977C83.0948 99.977 83.2164 100.022 83.306 100.111C83.3956 100.201 83.4404 100.323 83.4404 100.476V106.342C83.4404 106.495 83.3956 106.617 83.306 106.707C83.2228 106.796 83.1012 106.841 82.9412 106.841ZM85.4295 106.793C85.2759 106.793 85.1543 106.751 85.0647 106.668C84.9815 106.579 84.9399 106.46 84.9399 106.313V100.505C84.9399 100.358 84.9815 100.243 85.0647 100.159C85.1543 100.07 85.2759 100.025 85.4295 100.025H87.3111C88.4055 100.025 89.2535 100.319 89.8551 100.908C90.4567 101.497 90.7575 102.329 90.7575 103.404C90.7575 104.479 90.4567 105.315 89.8551 105.91C89.2535 106.499 88.4055 106.793 87.3111 106.793H85.4295ZM87.2535 105.967C88.9175 105.967 89.7495 105.113 89.7495 103.404C89.7495 101.702 88.9175 100.851 87.2535 100.851H85.9287V105.967H87.2535ZM96.3442 101.993C96.965 101.993 97.4258 102.15 97.7266 102.463C98.0338 102.777 98.1874 103.254 98.1874 103.894V106.38C98.1874 106.527 98.1458 106.643 98.0626 106.726C97.9794 106.803 97.8642 106.841 97.717 106.841C97.5762 106.841 97.4642 106.799 97.381 106.716C97.2978 106.633 97.2562 106.521 97.2562 106.38V106.025C97.1346 106.294 96.9522 106.502 96.709 106.649C96.4722 106.79 96.1938 106.86 95.8738 106.86C95.5666 106.86 95.285 106.799 95.029 106.678C94.7794 106.55 94.581 106.377 94.4338 106.159C94.2866 105.942 94.213 105.695 94.213 105.42C94.2066 105.075 94.293 104.806 94.4722 104.614C94.6514 104.415 94.9426 104.275 95.3458 104.191C95.749 104.102 96.309 104.057 97.0258 104.057H97.2466V103.779C97.2466 103.42 97.173 103.161 97.0258 103.001C96.8786 102.841 96.6418 102.761 96.3154 102.761C96.0914 102.761 95.8802 102.79 95.6818 102.847C95.4834 102.905 95.2658 102.988 95.029 103.097C94.8562 103.193 94.7346 103.241 94.6642 103.241C94.5682 103.241 94.4882 103.206 94.4242 103.135C94.3666 103.065 94.3378 102.975 94.3378 102.867C94.3378 102.771 94.3634 102.687 94.4146 102.617C94.4722 102.54 94.5618 102.467 94.6834 102.396C94.9074 102.275 95.1698 102.179 95.4706 102.108C95.7714 102.031 96.0626 101.993 96.3442 101.993ZM96.0466 106.14C96.3986 106.14 96.6866 106.022 96.9106 105.785C97.1346 105.542 97.2466 105.231 97.2466 104.854V104.604H97.0738C96.5746 104.604 96.1906 104.627 95.9218 104.671C95.653 104.716 95.461 104.793 95.3458 104.902C95.2306 105.004 95.173 105.155 95.173 105.353C95.173 105.583 95.2562 105.772 95.4226 105.919C95.589 106.067 95.797 106.14 96.0466 106.14ZM101.958 101.993C102.361 101.993 102.719 102.095 103.033 102.3C103.353 102.505 103.599 102.793 103.772 103.164C103.951 103.535 104.041 103.964 104.041 104.451C104.041 104.931 103.955 105.353 103.782 105.718C103.609 106.083 103.363 106.364 103.043 106.563C102.729 106.761 102.367 106.86 101.958 106.86C101.606 106.86 101.295 106.787 101.027 106.639C100.758 106.486 100.553 106.268 100.412 105.987V108.127C100.412 108.262 100.367 108.367 100.278 108.444C100.195 108.527 100.083 108.569 99.9418 108.569C99.7946 108.569 99.673 108.527 99.577 108.444C99.4874 108.361 99.4426 108.249 99.4426 108.108V102.483C99.4426 102.342 99.4874 102.23 99.577 102.147C99.6666 102.057 99.785 102.012 99.9322 102.012C100.073 102.012 100.188 102.057 100.278 102.147C100.367 102.23 100.412 102.342 100.412 102.483V102.876C100.553 102.595 100.758 102.377 101.027 102.223C101.295 102.07 101.606 101.993 101.958 101.993ZM101.727 106.092C102.15 106.092 102.476 105.951 102.707 105.67C102.937 105.382 103.052 104.975 103.052 104.451C103.052 103.919 102.934 103.507 102.697 103.212C102.467 102.918 102.143 102.771 101.727 102.771C101.305 102.771 100.979 102.915 100.748 103.203C100.524 103.491 100.412 103.9 100.412 104.431C100.412 104.963 100.524 105.372 100.748 105.66C100.979 105.948 101.305 106.092 101.727 106.092ZM107.559 101.993C107.962 101.993 108.32 102.095 108.634 102.3C108.954 102.505 109.2 102.793 109.373 103.164C109.552 103.535 109.642 103.964 109.642 104.451C109.642 104.931 109.555 105.353 109.383 105.718C109.21 106.083 108.963 106.364 108.643 106.563C108.33 106.761 107.968 106.86 107.559 106.86C107.207 106.86 106.896 106.787 106.627 106.639C106.359 106.486 106.154 106.268 106.013 105.987V108.127C106.013 108.262 105.968 108.367 105.879 108.444C105.795 108.527 105.683 108.569 105.543 108.569C105.395 108.569 105.274 108.527 105.178 108.444C105.088 108.361 105.043 108.249 105.043 108.108V102.483C105.043 102.342 105.088 102.23 105.178 102.147C105.267 102.057 105.386 102.012 105.533 102.012C105.674 102.012 105.789 102.057 105.879 102.147C105.968 102.23 106.013 102.342 106.013 102.483V102.876C106.154 102.595 106.359 102.377 106.627 102.223C106.896 102.07 107.207 101.993 107.559 101.993ZM107.328 106.092C107.751 106.092 108.077 105.951 108.307 105.67C108.538 105.382 108.653 104.975 108.653 104.451C108.653 103.919 108.535 103.507 108.298 103.212C108.067 102.918 107.744 102.771 107.328 102.771C106.906 102.771 106.579 102.915 106.349 103.203C106.125 103.491 106.013 103.9 106.013 104.431C106.013 104.963 106.125 105.372 106.349 105.66C106.579 105.948 106.906 106.092 107.328 106.092Z" fill="#008738"/>
        <path d="M45.5957 120.841C45.4549 120.841 45.3365 120.803 45.2405 120.726C45.1509 120.649 45.1061 120.534 45.1061 120.38V116.483C45.1061 116.329 45.1509 116.214 45.2405 116.137C45.3365 116.054 45.4549 116.012 45.5957 116.012C45.7365 116.012 45.8517 116.054 45.9413 116.137C46.0309 116.214 46.0757 116.329 46.0757 116.483V120.38C46.0757 120.534 46.0309 120.649 45.9413 120.726C45.8517 120.803 45.7365 120.841 45.5957 120.841ZM45.5957 115.071C45.4101 115.071 45.2629 115.02 45.1541 114.918C45.0453 114.815 44.9909 114.681 44.9909 114.515C44.9909 114.348 45.0453 114.217 45.1541 114.121C45.2629 114.019 45.4101 113.967 45.5957 113.967C45.7749 113.967 45.9189 114.019 46.0277 114.121C46.1429 114.217 46.2005 114.348 46.2005 114.515C46.2005 114.681 46.1461 114.815 46.0373 114.918C45.9285 115.02 45.7813 115.071 45.5957 115.071ZM48.992 120.86C48.3392 120.86 47.8048 120.726 47.3888 120.457C47.2736 120.387 47.1904 120.313 47.1392 120.236C47.0944 120.159 47.072 120.073 47.072 119.977C47.072 119.875 47.1008 119.788 47.1584 119.718C47.216 119.647 47.2896 119.612 47.3792 119.612C47.4624 119.612 47.5936 119.663 47.7728 119.766C47.9648 119.868 48.1504 119.951 48.3296 120.015C48.5152 120.079 48.7456 120.111 49.0208 120.111C49.328 120.111 49.568 120.057 49.7408 119.948C49.9136 119.839 50 119.686 50 119.487C50 119.359 49.9648 119.257 49.8944 119.18C49.8304 119.103 49.7152 119.036 49.5488 118.979C49.3824 118.915 49.136 118.847 48.8096 118.777C48.2464 118.655 47.84 118.492 47.5904 118.287C47.3472 118.076 47.2256 117.791 47.2256 117.433C47.2256 117.158 47.3056 116.911 47.4656 116.694C47.6256 116.47 47.8464 116.297 48.128 116.175C48.4096 116.054 48.7296 115.993 49.088 115.993C49.344 115.993 49.5936 116.028 49.8368 116.099C50.08 116.163 50.2944 116.259 50.48 116.387C50.6912 116.527 50.7968 116.691 50.7968 116.876C50.7968 116.979 50.7648 117.065 50.7008 117.135C50.6432 117.206 50.5728 117.241 50.4896 117.241C50.432 117.241 50.3744 117.228 50.3168 117.203C50.2592 117.177 50.1824 117.135 50.0864 117.078C49.9136 116.975 49.7504 116.895 49.5968 116.838C49.4496 116.78 49.264 116.751 49.04 116.751C48.7712 116.751 48.5536 116.809 48.3872 116.924C48.2272 117.039 48.1472 117.196 48.1472 117.395C48.1472 117.574 48.2208 117.715 48.368 117.817C48.5216 117.913 48.8064 118.006 49.2224 118.095C49.6512 118.185 49.9872 118.287 50.2304 118.403C50.4736 118.518 50.6464 118.662 50.7488 118.835C50.8576 119.001 50.912 119.215 50.912 119.478C50.912 119.894 50.736 120.23 50.384 120.486C50.0384 120.735 49.5744 120.86 48.992 120.86ZM56.8379 116.012C57.1451 115.993 57.2987 116.124 57.2987 116.406C57.2987 116.547 57.2635 116.652 57.1931 116.723C57.1227 116.793 57.0011 116.835 56.8283 116.847L56.5403 116.876C56.1371 116.915 55.8363 117.055 55.6379 117.299C55.4459 117.542 55.3499 117.836 55.3499 118.182V120.38C55.3499 120.534 55.3051 120.649 55.2155 120.726C55.1259 120.803 55.0107 120.841 54.8699 120.841C54.7291 120.841 54.6107 120.803 54.5147 120.726C54.4251 120.649 54.3803 120.534 54.3803 120.38V116.473C54.3803 116.326 54.4251 116.214 54.5147 116.137C54.6107 116.054 54.7291 116.012 54.8699 116.012C54.9979 116.012 55.1035 116.054 55.1867 116.137C55.2763 116.214 55.3211 116.323 55.3211 116.463V116.924C55.4491 116.643 55.6347 116.428 55.8779 116.281C56.1211 116.134 56.3963 116.047 56.7035 116.022L56.8379 116.012ZM61.3983 119.612C61.4879 119.612 61.5615 119.647 61.6191 119.718C61.6767 119.788 61.7055 119.878 61.7055 119.987C61.7055 120.172 61.5903 120.329 61.3599 120.457C61.1359 120.585 60.8895 120.684 60.6207 120.755C60.3583 120.825 60.1055 120.86 59.8623 120.86C59.1199 120.86 58.5343 120.646 58.1055 120.217C57.6767 119.782 57.4623 119.19 57.4623 118.441C57.4623 117.961 57.5551 117.535 57.7407 117.164C57.9327 116.793 58.1983 116.505 58.5375 116.3C58.8831 116.095 59.2735 115.993 59.7087 115.993C60.3359 115.993 60.8319 116.195 61.1967 116.598C61.5615 117.001 61.7439 117.545 61.7439 118.23C61.7439 118.486 61.6287 118.614 61.3983 118.614H58.4319C58.4959 119.606 58.9727 120.102 59.8623 120.102C60.0991 120.102 60.3039 120.07 60.4767 120.006C60.6495 119.942 60.8319 119.859 61.0239 119.756C61.0431 119.743 61.0943 119.718 61.1775 119.679C61.2671 119.635 61.3407 119.612 61.3983 119.612ZM59.7279 116.703C59.3567 116.703 59.0591 116.822 58.8351 117.059C58.6111 117.295 58.4767 117.628 58.4319 118.057H60.9087C60.8895 117.622 60.7775 117.289 60.5727 117.059C60.3743 116.822 60.0927 116.703 59.7279 116.703ZM64.7092 115.993C65.33 115.993 65.7908 116.15 66.0916 116.463C66.3988 116.777 66.5524 117.254 66.5524 117.894V120.38C66.5524 120.527 66.5108 120.643 66.4276 120.726C66.3444 120.803 66.2292 120.841 66.082 120.841C65.9412 120.841 65.8292 120.799 65.746 120.716C65.6628 120.633 65.6212 120.521 65.6212 120.38V120.025C65.4996 120.294 65.3172 120.502 65.074 120.649C64.8372 120.79 64.5588 120.86 64.2388 120.86C63.9316 120.86 63.65 120.799 63.394 120.678C63.1444 120.55 62.946 120.377 62.7988 120.159C62.6516 119.942 62.578 119.695 62.578 119.42C62.5716 119.075 62.658 118.806 62.8372 118.614C63.0164 118.415 63.3076 118.275 63.7108 118.191C64.114 118.102 64.674 118.057 65.3908 118.057H65.6116V117.779C65.6116 117.42 65.538 117.161 65.3908 117.001C65.2436 116.841 65.0068 116.761 64.6804 116.761C64.4564 116.761 64.2452 116.79 64.0468 116.847C63.8484 116.905 63.6308 116.988 63.394 117.097C63.2212 117.193 63.0996 117.241 63.0292 117.241C62.9332 117.241 62.8532 117.206 62.7892 117.135C62.7316 117.065 62.7028 116.975 62.7028 116.867C62.7028 116.771 62.7284 116.687 62.7796 116.617C62.8372 116.54 62.9268 116.467 63.0484 116.396C63.2724 116.275 63.5348 116.179 63.8356 116.108C64.1364 116.031 64.4276 115.993 64.7092 115.993ZM64.4116 120.14C64.7636 120.14 65.0516 120.022 65.2756 119.785C65.4996 119.542 65.6116 119.231 65.6116 118.854V118.604H65.4388C64.9396 118.604 64.5556 118.627 64.2868 118.671C64.018 118.716 63.826 118.793 63.7108 118.902C63.5956 119.004 63.538 119.155 63.538 119.353C63.538 119.583 63.6212 119.772 63.7876 119.919C63.954 120.067 64.162 120.14 64.4116 120.14ZM71.638 113.977C71.7852 113.977 71.9036 114.019 71.9932 114.102C72.0828 114.185 72.1276 114.297 72.1276 114.438V120.371C72.1276 120.518 72.0828 120.633 71.9932 120.716C71.91 120.799 71.7948 120.841 71.6476 120.841C71.5004 120.841 71.382 120.799 71.2924 120.716C71.2092 120.633 71.1676 120.518 71.1676 120.371V119.987C71.0268 120.268 70.822 120.486 70.5532 120.639C70.2844 120.787 69.974 120.86 69.622 120.86C69.2188 120.86 68.8572 120.758 68.5372 120.553C68.2236 120.348 67.9772 120.06 67.798 119.689C67.6252 119.318 67.5388 118.892 67.5388 118.412C67.5388 117.926 67.6252 117.5 67.798 117.135C67.9772 116.771 68.2236 116.489 68.5372 116.291C68.8508 116.092 69.2124 115.993 69.622 115.993C69.974 115.993 70.2812 116.07 70.5436 116.223C70.8124 116.371 71.0172 116.582 71.158 116.857V114.419C71.158 114.284 71.1996 114.179 71.2828 114.102C71.3724 114.019 71.4908 113.977 71.638 113.977ZM69.8524 120.092C70.2684 120.092 70.5916 119.948 70.822 119.66C71.0524 119.372 71.1676 118.963 71.1676 118.431C71.1676 117.9 71.0524 117.491 70.822 117.203C70.598 116.915 70.2748 116.771 69.8524 116.771C69.43 116.771 69.1004 116.915 68.8636 117.203C68.6332 117.484 68.518 117.887 68.518 118.412C68.518 118.937 68.6364 119.35 68.8732 119.651C69.11 119.945 69.4364 120.092 69.8524 120.092ZM76.7395 116.3C76.7779 116.204 76.8323 116.134 76.9027 116.089C76.9795 116.044 77.0595 116.022 77.1427 116.022C77.2643 116.022 77.3699 116.063 77.4595 116.147C77.5555 116.23 77.6035 116.329 77.6035 116.444C77.6035 116.508 77.5907 116.569 77.5651 116.627L74.8963 122.291C74.8579 122.38 74.8003 122.447 74.7235 122.492C74.6531 122.543 74.5763 122.569 74.4931 122.569C74.3779 122.569 74.2723 122.531 74.1763 122.454C74.0867 122.377 74.0419 122.281 74.0419 122.166C74.0419 122.115 74.0579 122.051 74.0899 121.974L74.7523 120.563L72.8995 116.627C72.8739 116.575 72.8611 116.518 72.8611 116.454C72.8611 116.332 72.9123 116.23 73.0147 116.147C73.1171 116.063 73.2323 116.022 73.3603 116.022C73.5523 116.022 73.6899 116.111 73.7731 116.291L75.2611 119.593L76.7395 116.3ZM82.9929 114.764C82.6729 114.79 82.4361 114.892 82.2825 115.071C82.1289 115.244 82.0521 115.5 82.0521 115.839V116.108H83.0025C83.1369 116.108 83.2393 116.143 83.3097 116.214C83.3865 116.278 83.4249 116.367 83.4249 116.483C83.4249 116.598 83.3865 116.691 83.3097 116.761C83.2393 116.825 83.1369 116.857 83.0025 116.857H82.0521V120.371C82.0521 120.524 82.0041 120.643 81.9081 120.726C81.8185 120.803 81.7033 120.841 81.5625 120.841C81.4217 120.841 81.3065 120.803 81.2169 120.726C81.1273 120.643 81.0825 120.524 81.0825 120.371V116.857H80.5065C80.3721 116.857 80.2665 116.825 80.1897 116.761C80.1193 116.691 80.0841 116.598 80.0841 116.483C80.0841 116.367 80.1193 116.278 80.1897 116.214C80.2665 116.143 80.3721 116.108 80.5065 116.108H81.0825V115.983C81.0825 115.395 81.2329 114.934 81.5337 114.601C81.8345 114.262 82.2601 114.073 82.8105 114.035L83.0601 114.015C83.2649 114.003 83.4121 114.025 83.5017 114.083C83.5977 114.14 83.6457 114.233 83.6457 114.361C83.6457 114.585 83.5113 114.713 83.2425 114.745L82.9929 114.764ZM85.9833 120.86C85.5225 120.86 85.1161 120.761 84.7641 120.563C84.4185 120.364 84.1497 120.083 83.9577 119.718C83.7721 119.347 83.6793 118.918 83.6793 118.431C83.6793 117.939 83.7721 117.51 83.9577 117.145C84.1497 116.774 84.4185 116.489 84.7641 116.291C85.1161 116.092 85.5225 115.993 85.9833 115.993C86.4441 115.993 86.8473 116.092 87.1929 116.291C87.5449 116.489 87.8137 116.774 87.9993 117.145C88.1913 117.51 88.2873 117.939 88.2873 118.431C88.2873 118.918 88.1913 119.347 87.9993 119.718C87.8137 120.083 87.5449 120.364 87.1929 120.563C86.8473 120.761 86.4441 120.86 85.9833 120.86ZM85.9833 120.092C86.4121 120.092 86.7385 119.951 86.9625 119.67C87.1929 119.388 87.3081 118.975 87.3081 118.431C87.3081 117.894 87.1929 117.484 86.9625 117.203C86.7321 116.915 86.4057 116.771 85.9833 116.771C85.5609 116.771 85.2345 116.915 85.0041 117.203C84.7737 117.484 84.6585 117.894 84.6585 118.431C84.6585 118.975 84.7705 119.388 84.9945 119.67C85.2249 119.951 85.5545 120.092 85.9833 120.092ZM91.7534 116.012C92.0606 115.993 92.2142 116.124 92.2142 116.406C92.2142 116.547 92.179 116.652 92.1086 116.723C92.0382 116.793 91.9166 116.835 91.7438 116.847L91.4558 116.876C91.0526 116.915 90.7518 117.055 90.5534 117.299C90.3614 117.542 90.2654 117.836 90.2654 118.182V120.38C90.2654 120.534 90.2206 120.649 90.131 120.726C90.0414 120.803 89.9262 120.841 89.7854 120.841C89.6446 120.841 89.5262 120.803 89.4302 120.726C89.3406 120.649 89.2958 120.534 89.2958 120.38V116.473C89.2958 116.326 89.3406 116.214 89.4302 116.137C89.5262 116.054 89.6446 116.012 89.7854 116.012C89.9134 116.012 90.019 116.054 90.1022 116.137C90.1918 116.214 90.2366 116.323 90.2366 116.463V116.924C90.3646 116.643 90.5502 116.428 90.7934 116.281C91.0366 116.134 91.3118 116.047 91.619 116.022L91.7534 116.012ZM98.8292 116.012C98.9764 116.012 99.0916 116.054 99.1748 116.137C99.2644 116.22 99.3092 116.335 99.3092 116.483V120.39C99.3092 120.524 99.2644 120.633 99.1748 120.716C99.0852 120.799 98.9668 120.841 98.8196 120.841C98.6852 120.841 98.5764 120.803 98.4932 120.726C98.41 120.643 98.3684 120.534 98.3684 120.399V120.035C98.2212 120.303 98.0164 120.508 97.754 120.649C97.498 120.79 97.21 120.86 96.89 120.86C95.7508 120.86 95.1812 120.233 95.1812 118.979V116.483C95.1812 116.335 95.2228 116.22 95.306 116.137C95.3956 116.054 95.5172 116.012 95.6708 116.012C95.818 116.012 95.9332 116.054 96.0164 116.137C96.106 116.22 96.1508 116.335 96.1508 116.483V118.969C96.1508 119.347 96.2276 119.625 96.3812 119.804C96.5348 119.983 96.7716 120.073 97.0916 120.073C97.4692 120.073 97.77 119.951 97.994 119.708C98.2244 119.465 98.3396 119.142 98.3396 118.739V116.483C98.3396 116.342 98.3844 116.23 98.474 116.147C98.5636 116.057 98.682 116.012 98.8292 116.012ZM102.227 120.86C101.574 120.86 101.04 120.726 100.624 120.457C100.509 120.387 100.425 120.313 100.374 120.236C100.329 120.159 100.307 120.073 100.307 119.977C100.307 119.875 100.336 119.788 100.393 119.718C100.451 119.647 100.525 119.612 100.614 119.612C100.697 119.612 100.829 119.663 101.008 119.766C101.2 119.868 101.385 119.951 101.565 120.015C101.75 120.079 101.981 120.111 102.256 120.111C102.563 120.111 102.803 120.057 102.976 119.948C103.149 119.839 103.235 119.686 103.235 119.487C103.235 119.359 103.2 119.257 103.129 119.18C103.065 119.103 102.95 119.036 102.784 118.979C102.617 118.915 102.371 118.847 102.045 118.777C101.481 118.655 101.075 118.492 100.825 118.287C100.582 118.076 100.461 117.791 100.461 117.433C100.461 117.158 100.541 116.911 100.701 116.694C100.861 116.47 101.081 116.297 101.363 116.175C101.645 116.054 101.965 115.993 102.323 115.993C102.579 115.993 102.829 116.028 103.072 116.099C103.315 116.163 103.529 116.259 103.715 116.387C103.926 116.527 104.032 116.691 104.032 116.876C104.032 116.979 104 117.065 103.936 117.135C103.878 117.206 103.808 117.241 103.725 117.241C103.667 117.241 103.609 117.228 103.552 117.203C103.494 117.177 103.417 117.135 103.321 117.078C103.149 116.975 102.985 116.895 102.832 116.838C102.685 116.78 102.499 116.751 102.275 116.751C102.006 116.751 101.789 116.809 101.622 116.924C101.462 117.039 101.382 117.196 101.382 117.395C101.382 117.574 101.456 117.715 101.603 117.817C101.757 117.913 102.041 118.006 102.457 118.095C102.886 118.185 103.222 118.287 103.465 118.403C103.709 118.518 103.881 118.662 103.984 118.835C104.093 119.001 104.147 119.215 104.147 119.478C104.147 119.894 103.971 120.23 103.619 120.486C103.273 120.735 102.809 120.86 102.227 120.86ZM108.822 119.612C108.912 119.612 108.985 119.647 109.043 119.718C109.101 119.788 109.129 119.878 109.129 119.987C109.129 120.172 109.014 120.329 108.784 120.457C108.56 120.585 108.313 120.684 108.045 120.755C107.782 120.825 107.529 120.86 107.286 120.86C106.544 120.86 105.958 120.646 105.529 120.217C105.101 119.782 104.886 119.19 104.886 118.441C104.886 117.961 104.979 117.535 105.165 117.164C105.357 116.793 105.622 116.505 105.961 116.3C106.307 116.095 106.697 115.993 107.133 115.993C107.76 115.993 108.256 116.195 108.621 116.598C108.985 117.001 109.168 117.545 109.168 118.23C109.168 118.486 109.053 118.614 108.822 118.614H105.856C105.92 119.606 106.397 120.102 107.286 120.102C107.523 120.102 107.728 120.07 107.901 120.006C108.073 119.942 108.256 119.859 108.448 119.756C108.467 119.743 108.518 119.718 108.601 119.679C108.691 119.635 108.765 119.612 108.822 119.612ZM107.152 116.703C106.781 116.703 106.483 116.822 106.259 117.059C106.035 117.295 105.901 117.628 105.856 118.057H108.333C108.313 117.622 108.201 117.289 107.997 117.059C107.798 116.822 107.517 116.703 107.152 116.703Z" fill="#050E1D"/>
        <rect x="12" y="270.59" width="24" height="24" rx="2.4" fill="#008939"/>
        <g clip-path="url(#clip3_971_12643)">
            <path d="M18.0016 284.186C17.7808 284.186 17.6016 284.007 17.6016 283.786V282.986C17.6016 282.765 17.7808 282.586 18.0016 282.586C18.2224 282.586 18.4016 282.765 18.4016 282.986V283.386H18.8016C19.0224 283.386 19.2016 283.565 19.2016 283.786C19.2016 284.007 18.0016 284.186 18.0016 284.186Z" fill="white"/>
            <path d="M18.0016 280.188C17.7808 280.188 17.6016 280.008 17.6016 279.788V276.588C17.6016 276.367 17.7808 276.188 18.0016 276.188H21.2016C21.4224 276.188 21.6016 276.367 21.6016 276.588V279.788C21.6016 280.008 21.4224 280.188 21.2016 280.188H18.0016ZM20.8016 279.388V276.988H18.4016V279.388H20.8016Z" fill="white"/>
            <path d="M26.8023 280.188C26.5815 280.188 26.4023 280.008 26.4023 279.788V276.588C26.4023 276.367 26.5815 276.188 26.8023 276.188H30.0023C30.2231 276.188 30.4023 276.367 30.4023 276.588V279.788C30.4023 280.008 30.2231 280.188 30.0023 280.188H26.8023ZM29.6023 279.388V276.988H27.2023V279.388H29.6023Z" fill="white"/>
            <path d="M18.0016 288.988C17.7808 288.988 17.6016 288.809 17.6016 288.588V285.388C17.6016 285.167 17.7808 284.988 18.0016 284.988H21.2016C21.4224 284.988 21.6016 285.167 21.6016 285.388V288.588C21.6016 288.809 21.4224 288.988 21.2016 288.988H18.0016ZM20.8016 288.188V285.788H18.4016V288.188H20.8016Z" fill="white"/>
            <path d="M24.0016 276.988C23.7808 276.988 23.6016 276.808 23.6016 276.588C23.6016 276.367 23.7808 276.188 24.0016 276.188H25.2016C25.4224 276.188 25.6016 276.367 25.6016 276.588C25.6016 276.808 25.4224 276.988 25.2016 276.988H24.0016Z" fill="white"/>
            <path d="M22.8023 278.587C22.5815 278.587 22.4023 278.408 22.4023 278.187V276.587C22.4023 276.367 22.5815 276.188 22.8023 276.188C23.0231 276.188 23.2023 276.367 23.2023 276.587V277.787H24.0023C24.2231 277.787 24.4023 277.967 24.4023 278.187C24.4023 278.408 24.2231 278.587 24.0023 278.587H22.8023Z" fill="white"/>
            <path d="M22.8023 280.189C22.5815 280.189 22.4023 280.01 22.4023 279.789C22.4023 279.568 22.5815 279.389 22.8023 279.389H24.8023V278.189C24.8023 277.968 24.9815 277.789 25.2023 277.789C25.4231 277.789 25.6023 277.968 25.6023 278.189V279.789C25.6023 280.01 25.4231 280.189 25.2023 280.189H22.8023Z" fill="white"/>
            <path d="M21.2016 282.588C20.9808 282.588 20.8016 282.409 20.8016 282.188V281.788H18.0016C17.7808 281.788 17.6016 281.609 17.6016 281.388C17.6016 281.167 17.7808 280.988 18.0016 280.988H21.2016C21.4224 280.988 21.6016 281.167 21.6016 281.388V282.188C21.6016 282.409 21.4224 282.588 21.2016 282.588Z" fill="white"/>
            <path d="M20.4 284.191C20.1792 284.191 20 284.011 20 283.791C20 283.57 20.1792 283.391 20.4 283.391H21.2C21.4208 283.391 21.6 283.57 21.6 283.791C21.6 284.011 20.4 284.191 20.4 284.191Z" fill="white"/>
            <path d="M28.4 288.988C28.1792 288.988 28 288.809 28 288.588V286.988C28 286.767 28.1792 286.588 28.4 286.588H29.6V285.788H28.4C28.1792 285.788 28 285.609 28 285.388C28 285.167 28.1792 284.988 28.4 284.988H30C30.2208 284.988 30.4 285.167 30.4 285.388V286.988C30.4 287.209 30.2208 287.388 30 287.388H28.8V288.188H30C30.2208 288.188 30.4 288.367 30.4 288.588C30.4 288.809 30.2208 288.988 30 288.988H28.4Z" fill="white"/>
            <path d="M22.8023 288.988C22.5815 288.988 22.4023 288.809 22.4023 288.588V285.388C22.4023 285.167 22.5815 284.988 22.8023 284.988C23.0231 284.988 23.2023 285.167 23.2023 285.388V288.188H25.2023C25.4231 288.188 25.6023 288.367 25.6023 288.588C25.6023 288.809 25.4231 288.988 25.2023 288.988H22.8023Z" fill="white"/>
            <path d="M26.8023 288.988C26.5815 288.988 26.4023 288.809 26.4023 288.588V285.388C26.4023 285.167 26.5815 284.988 26.8023 284.988C27.0231 284.988 27.2023 285.167 27.2023 285.388V288.588C27.2023 288.809 27.0231 288.988 26.8023 288.988Z" fill="white"/>
            <path d="M24.4 287.388C24.1792 287.388 24 287.209 24 286.988C24 286.767 24.1792 286.588 24.4 286.588H24.8V285.788H24.4C24.1792 285.788 24 285.609 24 285.388C24 285.167 24.1792 284.988 24.4 284.988H25.2C25.4208 284.988 25.6 285.167 25.6 285.388V286.988C25.6 287.209 25.4208 287.388 25.2 287.388H24.4Z" fill="white"/>
            <path d="M22.8023 284.186C22.5815 284.186 22.4023 284.007 22.4023 283.786V282.986C22.4023 282.765 22.5815 282.586 22.8023 282.586C23.0231 282.586 23.2023 282.765 23.2023 282.986V283.386H23.6023C23.8231 283.386 24.0023 283.565 24.0023 283.786C24.0023 284.007 23.8231 284.186 23.6023 284.186H22.8023Z" fill="white"/>
            <path d="M25.2047 284.189C24.9839 284.189 24.8047 284.01 24.8047 283.789C24.8047 283.568 24.9839 283.389 25.2047 283.389H25.6047V282.189C25.6047 281.968 25.7839 281.789 26.0047 281.789C26.2255 281.789 26.4047 281.968 26.4047 282.189V283.389H26.8047C27.0255 283.389 27.2047 283.568 27.2047 283.789C27.2047 284.01 27.0255 284.189 26.8047 284.189H25.2047Z" fill="white"/>
            <path d="M24.4023 282.588C24.1815 282.588 24.0023 282.409 24.0023 282.188V281.788H22.8023C22.5815 281.788 22.4023 281.609 22.4023 281.388C22.4023 281.167 22.5815 280.988 22.8023 280.988H24.4023C24.6231 280.988 24.8023 281.167 24.8023 281.388V282.188C24.8023 282.409 24.6231 282.588 24.4023 282.588Z" fill="white"/>
            <path d="M30.0016 282.588C29.7808 282.588 29.6016 282.409 29.6016 282.188V281.388C29.6016 281.167 29.7808 280.988 30.0016 280.988C30.2224 280.988 30.4016 281.167 30.4016 281.388V282.188C30.4016 282.409 30.2224 282.588 30.0016 282.588Z" fill="white"/>
            <path d="M30.0016 284.188C29.7808 284.188 29.6016 284.009 29.6016 283.788V283.388C29.6016 283.167 29.7808 282.988 30.0016 282.988C30.2224 282.988 30.4016 283.167 30.4016 283.388V283.788C30.4016 284.009 30.2224 284.188 30.0016 284.188Z" fill="white"/>
            <path d="M28.4031 283.788C28.1823 283.788 28.0031 283.609 28.0031 283.388V282.588H27.6031C27.3823 282.588 27.2031 282.409 27.2031 282.188V281.388C27.2031 281.167 27.3823 280.988 27.6031 280.988C27.8239 280.988 28.0031 281.167 28.0031 281.388V281.788H28.4031C28.6239 281.788 28.8031 281.967 28.8031 282.188V283.388C28.8031 283.609 28.6239 283.788 28.4031 283.788Z" fill="white"/>
        </g>
        <path d="M14.614 303.834C14.3303 303.834 14.0596 303.795 13.802 303.716C13.5481 303.638 13.3447 303.53 13.1916 303.391C13.1207 303.332 13.0852 303.255 13.0852 303.162C13.0852 303.095 13.1039 303.039 13.1412 302.994C13.1785 302.945 13.2233 302.921 13.2756 302.921C13.3279 302.921 13.3913 302.945 13.466 302.994C13.7983 303.24 14.1772 303.363 14.6028 303.363C14.9015 303.363 15.1311 303.307 15.2916 303.195C15.4521 303.083 15.5324 302.923 15.5324 302.714C15.5324 302.55 15.4577 302.426 15.3084 302.344C15.1591 302.262 14.9201 302.184 14.5916 302.109C14.278 302.042 14.0204 301.965 13.8188 301.879C13.6172 301.794 13.4585 301.678 13.3428 301.532C13.2308 301.383 13.1748 301.194 13.1748 300.967C13.1748 300.739 13.2364 300.537 13.3596 300.362C13.4865 300.183 13.662 300.045 13.886 299.947C14.11 299.847 14.3657 299.796 14.6532 299.796C14.9183 299.796 15.1628 299.834 15.3868 299.908C15.6108 299.983 15.8012 300.093 15.958 300.239C16.0327 300.302 16.07 300.379 16.07 300.468C16.07 300.532 16.0495 300.588 16.0084 300.636C15.9711 300.685 15.9263 300.709 15.874 300.709C15.8255 300.709 15.7639 300.685 15.6892 300.636C15.5175 300.506 15.3551 300.412 15.202 300.356C15.0527 300.297 14.8716 300.267 14.6588 300.267C14.3713 300.267 14.1473 300.326 13.9868 300.446C13.8263 300.562 13.746 300.724 13.746 300.933C13.746 301.112 13.8169 301.249 13.9588 301.342C14.1007 301.431 14.3284 301.514 14.642 301.588C14.9705 301.663 15.2356 301.741 15.4372 301.823C15.6425 301.902 15.8049 302.012 15.9244 302.154C16.0476 302.292 16.1092 302.471 16.1092 302.691C16.1092 302.915 16.0457 303.115 15.9188 303.291C15.7956 303.462 15.6201 303.597 15.3924 303.694C15.1684 303.787 14.9089 303.834 14.614 303.834ZM17.9233 303.828C17.6583 303.828 17.4249 303.77 17.2233 303.655C17.0255 303.539 16.8705 303.375 16.7585 303.162C16.6503 302.949 16.5961 302.703 16.5961 302.423C16.5961 302.139 16.6521 301.889 16.7641 301.672C16.8799 301.456 17.0404 301.288 17.2457 301.168C17.4511 301.049 17.6863 300.989 17.9513 300.989C18.0932 300.989 18.2351 301.01 18.3769 301.051C18.5225 301.092 18.6513 301.148 18.7633 301.219C18.8828 301.301 18.9425 301.396 18.9425 301.504C18.9425 301.568 18.9257 301.622 18.8921 301.667C18.8585 301.708 18.8156 301.728 18.7633 301.728C18.7297 301.728 18.6961 301.721 18.6625 301.706C18.6289 301.687 18.586 301.661 18.5337 301.627C18.4404 301.568 18.3527 301.523 18.2705 301.493C18.1921 301.459 18.0969 301.443 17.9849 301.443C17.7311 301.443 17.5332 301.529 17.3913 301.7C17.2532 301.872 17.1841 302.111 17.1841 302.417C17.1841 302.723 17.2532 302.96 17.3913 303.128C17.5295 303.293 17.7255 303.375 17.9793 303.375C18.0913 303.375 18.1903 303.358 18.2761 303.324C18.362 303.291 18.4497 303.246 18.5393 303.19C18.5804 303.164 18.6215 303.141 18.6625 303.123C18.7036 303.104 18.7409 303.095 18.7745 303.095C18.8268 303.095 18.8697 303.117 18.9033 303.162C18.9369 303.203 18.9537 303.255 18.9537 303.319C18.9537 303.371 18.9388 303.419 18.9089 303.464C18.8828 303.505 18.8361 303.548 18.7689 303.593C18.6569 303.668 18.5263 303.726 18.3769 303.767C18.2276 303.808 18.0764 303.828 17.9233 303.828ZM20.608 300.989C20.9701 300.989 21.2389 301.081 21.4144 301.263C21.5936 301.446 21.6832 301.725 21.6832 302.098V303.548C21.6832 303.634 21.6589 303.701 21.6104 303.75C21.5618 303.795 21.4946 303.817 21.4088 303.817C21.3266 303.817 21.2613 303.793 21.2128 303.744C21.1642 303.696 21.14 303.63 21.14 303.548V303.341C21.069 303.498 20.9626 303.619 20.8208 303.705C20.6826 303.787 20.5202 303.828 20.3336 303.828C20.1544 303.828 19.9901 303.793 19.8408 303.722C19.6952 303.647 19.5794 303.546 19.4936 303.419C19.4077 303.293 19.3648 303.149 19.3648 302.988C19.361 302.787 19.4114 302.63 19.516 302.518C19.6205 302.402 19.7904 302.32 20.0256 302.271C20.2608 302.219 20.5874 302.193 21.0056 302.193H21.1344V302.031C21.1344 301.822 21.0914 301.67 21.0056 301.577C20.9197 301.484 20.7816 301.437 20.5912 301.437C20.4605 301.437 20.3373 301.454 20.2216 301.487C20.1058 301.521 19.9789 301.57 19.8408 301.633C19.74 301.689 19.669 301.717 19.628 301.717C19.572 301.717 19.5253 301.697 19.488 301.655C19.4544 301.614 19.4376 301.562 19.4376 301.499C19.4376 301.443 19.4525 301.394 19.4824 301.353C19.516 301.308 19.5682 301.265 19.6392 301.224C19.7698 301.153 19.9229 301.097 20.0984 301.056C20.2738 301.011 20.4437 300.989 20.608 300.989ZM20.4344 303.408C20.6397 303.408 20.8077 303.339 20.9384 303.201C21.069 303.059 21.1344 302.878 21.1344 302.658V302.512H21.0336C20.7424 302.512 20.5184 302.525 20.3616 302.551C20.2048 302.578 20.0928 302.622 20.0256 302.686C19.9584 302.746 19.9248 302.833 19.9248 302.949C19.9248 303.083 19.9733 303.194 20.0704 303.279C20.1674 303.365 20.2888 303.408 20.4344 303.408ZM23.9296 300.989C24.583 300.989 24.9096 301.357 24.9096 302.092V303.548C24.9096 303.634 24.8835 303.701 24.8312 303.75C24.7827 303.795 24.7136 303.817 24.624 303.817C24.5382 303.817 24.4691 303.793 24.4168 303.744C24.3683 303.696 24.344 303.63 24.344 303.548V302.12C24.344 301.889 24.2974 301.719 24.204 301.611C24.1144 301.502 23.9726 301.448 23.7784 301.448C23.5507 301.448 23.3678 301.519 23.2296 301.661C23.0915 301.803 23.0224 301.993 23.0224 302.232V303.548C23.0224 303.63 22.9963 303.696 22.944 303.744C22.8955 303.793 22.8283 303.817 22.7424 303.817C22.6566 303.817 22.5875 303.793 22.5352 303.744C22.483 303.696 22.4568 303.63 22.4568 303.548V301.269C22.4568 301.191 22.483 301.127 22.5352 301.079C22.5912 301.026 22.6603 301 22.7424 301C22.8246 301 22.8899 301.025 22.9384 301.073C22.987 301.122 23.0112 301.185 23.0112 301.263V301.493C23.1008 301.329 23.2259 301.204 23.3864 301.118C23.547 301.032 23.728 300.989 23.9296 300.989ZM30.3352 304.433C30.3688 304.489 30.3856 304.543 30.3856 304.595C30.3856 304.663 30.3594 304.717 30.3072 304.758C30.2549 304.803 30.1933 304.825 30.1224 304.825C30.0029 304.825 29.9077 304.769 29.8368 304.657L29.512 304.119C29.3925 303.929 29.1965 303.834 28.924 303.834C28.5506 303.834 28.2258 303.752 27.9496 303.587C27.677 303.423 27.4661 303.19 27.3168 302.887C27.1674 302.585 27.0928 302.229 27.0928 301.818C27.0928 301.403 27.1656 301.045 27.3112 300.743C27.4605 300.437 27.6733 300.203 27.9496 300.043C28.2258 299.878 28.5506 299.796 28.924 299.796C29.301 299.796 29.6277 299.878 29.904 300.043C30.1802 300.203 30.3912 300.437 30.5368 300.743C30.6861 301.045 30.7608 301.402 30.7608 301.812C30.7608 302.271 30.6674 302.665 30.4808 302.994C30.2941 303.319 30.0309 303.55 29.6912 303.688C29.8517 303.741 29.9917 303.866 30.1112 304.063L30.3352 304.433ZM27.6808 301.812C27.6808 302.309 27.789 302.691 28.0056 302.96C28.2258 303.229 28.532 303.363 28.924 303.363C29.3197 303.363 29.6277 303.229 29.848 302.96C30.0682 302.691 30.1784 302.309 30.1784 301.812C30.1784 301.316 30.0682 300.935 29.848 300.67C29.6314 300.401 29.3234 300.267 28.924 300.267C28.532 300.267 28.2258 300.401 28.0056 300.67C27.789 300.935 27.6808 301.316 27.6808 301.812ZM34.6275 303.431C34.6611 303.479 34.6779 303.531 34.6779 303.587C34.6779 303.655 34.6499 303.713 34.5939 303.761C34.5416 303.806 34.48 303.828 34.4091 303.828C34.3045 303.828 34.2205 303.782 34.1571 303.688L33.4067 302.523C33.3208 302.389 33.2293 302.296 33.1323 302.243C33.0352 302.187 32.9083 302.159 32.7515 302.159H32.1187V303.526C32.1187 303.615 32.0925 303.686 32.0403 303.739C31.9917 303.791 31.9227 303.817 31.8331 303.817C31.7472 303.817 31.6781 303.791 31.6259 303.739C31.5736 303.686 31.5475 303.615 31.5475 303.526V300.121C31.5475 300.035 31.5717 299.968 31.6203 299.919C31.6725 299.867 31.7435 299.841 31.8331 299.841H33.2275C33.6643 299.841 33.9965 299.938 34.2243 300.132C34.4557 300.326 34.5715 300.61 34.5715 300.983C34.5715 301.293 34.4837 301.545 34.3083 301.739C34.1328 301.93 33.8827 302.051 33.5579 302.103C33.6549 302.13 33.7427 302.176 33.8211 302.243C33.8995 302.311 33.976 302.404 34.0507 302.523L34.6275 303.431ZM33.1603 301.695C33.4515 301.695 33.6661 301.639 33.8043 301.527C33.9461 301.411 34.0171 301.234 34.0171 300.995C34.0171 300.756 33.948 300.582 33.8099 300.474C33.6717 300.362 33.4552 300.306 33.1603 300.306H32.1131V301.695H33.1603Z" fill="white"/>
        <rect x="46" y="270.59" width="24" height="24" rx="2.4" fill="#008939"/>
        <g clip-path="url(#clip4_971_12643)">
            <path d="M53.6016 288.855C52.4986 288.855 51.6016 287.958 51.6016 286.855V281.255C51.6016 280.182 52.4309 279.314 53.4981 279.26L59.1072 276.456C59.2762 276.371 59.4565 276.328 59.6432 276.328C59.7717 276.328 59.9002 276.349 60.0234 276.39C60.3274 276.491 60.5738 276.705 60.7173 276.992L61.8581 279.274C62.8448 279.401 63.6016 280.25 63.6016 281.255V281.724C64.0736 281.891 64.4016 282.344 64.4016 282.855V285.255C64.4016 285.767 64.0736 286.219 63.6016 286.386V286.855C63.6016 287.958 62.7045 288.855 61.6016 288.855H53.6016ZM53.6016 280.055C52.9397 280.055 52.4016 280.593 52.4016 281.255V286.855C52.4016 287.517 52.9397 288.055 53.6016 288.055H61.6016C62.2634 288.055 62.8016 287.517 62.8016 286.855V286.455H61.2016C59.8784 286.455 58.8016 285.378 58.8016 284.055C58.8016 282.732 59.8784 281.655 61.2016 281.655H62.8016V281.255C62.8016 280.594 62.2634 280.055 61.6021 280.055C61.6016 280.055 53.6016 280.055 53.6016 280.055ZM61.2016 282.455C60.3194 282.455 59.6016 283.173 59.6016 284.055C59.6016 284.937 60.3194 285.655 61.2016 285.655H63.2016C63.4224 285.655 63.6016 285.476 63.6016 285.255V282.855C63.6016 282.635 63.4224 282.455 63.2016 282.455H61.2016ZM60.9541 279.255L60.0016 277.35C59.9536 277.255 59.872 277.183 59.7706 277.149C59.729 277.136 59.6864 277.129 59.6432 277.129C59.5813 277.129 59.521 277.143 59.465 277.171L55.296 279.255H60.9541Z" fill="white"/>
            <path d="M61.2016 284.653C61.5329 284.653 61.8016 284.384 61.8016 284.053C61.8016 283.722 61.5329 283.453 61.2016 283.453C60.8702 283.453 60.6016 283.722 60.6016 284.053C60.6016 284.384 60.8702 284.653 61.2016 284.653Z" fill="white"/>
        </g>
        <path d="M49.578 299.914C49.6303 299.847 49.6956 299.813 49.774 299.813C49.8412 299.813 49.901 299.841 49.9532 299.897C50.0092 299.949 50.0372 300.011 50.0372 300.082C50.0372 300.149 50.0148 300.207 49.97 300.255L48.6484 301.902V303.526C48.6484 303.619 48.6204 303.692 48.5644 303.744C48.5122 303.793 48.4431 303.817 48.3572 303.817C48.2714 303.817 48.2023 303.793 48.15 303.744C48.0978 303.692 48.0716 303.619 48.0716 303.526V301.902L46.75 300.255C46.7052 300.207 46.6828 300.147 46.6828 300.076C46.6828 300.005 46.709 299.944 46.7612 299.891C46.8135 299.839 46.8751 299.813 46.946 299.813C47.0207 299.813 47.086 299.847 47.142 299.914L48.3628 301.448L49.578 299.914ZM51.2198 303.828C50.951 303.828 50.714 303.77 50.5086 303.655C50.307 303.539 50.1502 303.375 50.0382 303.162C49.93 302.945 49.8758 302.695 49.8758 302.411C49.8758 302.124 49.93 301.874 50.0382 301.661C50.1502 301.445 50.307 301.278 50.5086 301.163C50.714 301.047 50.951 300.989 51.2198 300.989C51.4886 300.989 51.7238 301.047 51.9254 301.163C52.1308 301.278 52.2876 301.445 52.3958 301.661C52.5078 301.874 52.5638 302.124 52.5638 302.411C52.5638 302.695 52.5078 302.945 52.3958 303.162C52.2876 303.375 52.1308 303.539 51.9254 303.655C51.7238 303.77 51.4886 303.828 51.2198 303.828ZM51.2198 303.38C51.47 303.38 51.6604 303.298 51.791 303.134C51.9254 302.97 51.9926 302.729 51.9926 302.411C51.9926 302.098 51.9254 301.859 51.791 301.695C51.6566 301.527 51.4662 301.443 51.2198 301.443C50.9734 301.443 50.783 301.527 50.6486 301.695C50.5142 301.859 50.447 302.098 50.447 302.411C50.447 302.729 50.5124 302.97 50.643 303.134C50.7774 303.298 50.9697 303.38 51.2198 303.38ZM55.3104 301C55.3962 301 55.4634 301.025 55.512 301.073C55.5642 301.122 55.5904 301.189 55.5904 301.275V303.554C55.5904 303.632 55.5642 303.696 55.512 303.744C55.4597 303.793 55.3906 303.817 55.3048 303.817C55.2264 303.817 55.1629 303.795 55.1144 303.75C55.0658 303.701 55.0416 303.638 55.0416 303.559V303.347C54.9557 303.503 54.8362 303.623 54.6832 303.705C54.5338 303.787 54.3658 303.828 54.1792 303.828C53.5146 303.828 53.1824 303.462 53.1824 302.731V301.275C53.1824 301.189 53.2066 301.122 53.2552 301.073C53.3074 301.025 53.3784 301 53.468 301C53.5538 301 53.621 301.025 53.6696 301.073C53.7218 301.122 53.748 301.189 53.748 301.275V302.725C53.748 302.945 53.7928 303.108 53.8824 303.212C53.972 303.317 54.1101 303.369 54.2968 303.369C54.517 303.369 54.6925 303.298 54.8232 303.156C54.9576 303.014 55.0248 302.826 55.0248 302.591V301.275C55.0248 301.193 55.0509 301.127 55.1032 301.079C55.1554 301.026 55.2245 301 55.3104 301ZM57.8154 301C57.9946 300.989 58.0842 301.066 58.0842 301.23C58.0842 301.312 58.0637 301.374 58.0226 301.415C57.9816 301.456 57.9106 301.48 57.8098 301.487L57.6418 301.504C57.4066 301.527 57.2312 301.609 57.1154 301.751C57.0034 301.893 56.9474 302.064 56.9474 302.266V303.548C56.9474 303.638 56.9213 303.705 56.869 303.75C56.8168 303.795 56.7496 303.817 56.6674 303.817C56.5853 303.817 56.5162 303.795 56.4602 303.75C56.408 303.705 56.3818 303.638 56.3818 303.548V301.269C56.3818 301.183 56.408 301.118 56.4602 301.073C56.5162 301.025 56.5853 301 56.6674 301C56.7421 301 56.8037 301.025 56.8522 301.073C56.9045 301.118 56.9306 301.181 56.9306 301.263V301.532C57.0053 301.368 57.1136 301.243 57.2554 301.157C57.3973 301.071 57.5578 301.021 57.737 301.006L57.8154 301ZM60.1948 303.817C60.1127 303.817 60.0436 303.795 59.9876 303.75C59.9353 303.705 59.9092 303.638 59.9092 303.548V301.275C59.9092 301.185 59.9353 301.118 59.9876 301.073C60.0436 301.025 60.1127 301 60.1948 301C60.2769 301 60.3441 301.025 60.3964 301.073C60.4487 301.118 60.4748 301.185 60.4748 301.275V303.548C60.4748 303.638 60.4487 303.705 60.3964 303.75C60.3441 303.795 60.2769 303.817 60.1948 303.817ZM60.1948 300.451C60.0865 300.451 60.0007 300.422 59.9372 300.362C59.8737 300.302 59.842 300.224 59.842 300.127C59.842 300.03 59.8737 299.953 59.9372 299.897C60.0007 299.837 60.0865 299.807 60.1948 299.807C60.2993 299.807 60.3833 299.837 60.4468 299.897C60.514 299.953 60.5476 300.03 60.5476 300.127C60.5476 300.224 60.5159 300.302 60.4524 300.362C60.3889 300.422 60.3031 300.451 60.1948 300.451ZM62.7382 300.989C63.3916 300.989 63.7182 301.357 63.7182 302.092V303.548C63.7182 303.634 63.6921 303.701 63.6398 303.75C63.5913 303.795 63.5222 303.817 63.4326 303.817C63.3468 303.817 63.2777 303.793 63.2254 303.744C63.1769 303.696 63.1526 303.63 63.1526 303.548V302.12C63.1526 301.889 63.106 301.719 63.0126 301.611C62.923 301.502 62.7812 301.448 62.587 301.448C62.3593 301.448 62.1764 301.519 62.0382 301.661C61.9001 301.803 61.831 301.993 61.831 302.232V303.548C61.831 303.63 61.8049 303.696 61.7526 303.744C61.7041 303.793 61.6369 303.817 61.551 303.817C61.4652 303.817 61.3961 303.793 61.3438 303.744C61.2916 303.696 61.2654 303.63 61.2654 303.548V301.269C61.2654 301.191 61.2916 301.127 61.3438 301.079C61.3998 301.026 61.4689 301 61.551 301C61.6332 301 61.6985 301.025 61.747 301.073C61.7956 301.122 61.8198 301.185 61.8198 301.263V301.493C61.9094 301.329 62.0345 301.204 62.195 301.118C62.3556 301.032 62.5366 300.989 62.7382 300.989ZM65.78 300.272C65.5933 300.287 65.4552 300.347 65.3656 300.451C65.276 300.552 65.2312 300.702 65.2312 300.899V301.056H65.7856C65.864 301.056 65.9237 301.077 65.9648 301.118C66.0096 301.155 66.032 301.207 66.032 301.275C66.032 301.342 66.0096 301.396 65.9648 301.437C65.9237 301.474 65.864 301.493 65.7856 301.493H65.2312V303.543C65.2312 303.632 65.2032 303.701 65.1472 303.75C65.0949 303.795 65.0277 303.817 64.9456 303.817C64.8635 303.817 64.7963 303.795 64.744 303.75C64.6917 303.701 64.6656 303.632 64.6656 303.543V301.493H64.3296C64.2512 301.493 64.1896 301.474 64.1448 301.437C64.1037 301.396 64.0832 301.342 64.0832 301.275C64.0832 301.207 64.1037 301.155 64.1448 301.118C64.1896 301.077 64.2512 301.056 64.3296 301.056H64.6656V300.983C64.6656 300.64 64.7533 300.371 64.9288 300.177C65.1043 299.979 65.3525 299.869 65.6736 299.847L65.8192 299.835C65.9387 299.828 66.0245 299.841 66.0768 299.875C66.1328 299.908 66.1608 299.962 66.1608 300.037C66.1608 300.168 66.0824 300.242 65.9256 300.261L65.78 300.272ZM67.5659 303.828C67.2971 303.828 67.0601 303.77 66.8547 303.655C66.6531 303.539 66.4963 303.375 66.3843 303.162C66.2761 302.945 66.2219 302.695 66.2219 302.411C66.2219 302.124 66.2761 301.874 66.3843 301.661C66.4963 301.445 66.6531 301.278 66.8547 301.163C67.0601 301.047 67.2971 300.989 67.5659 300.989C67.8347 300.989 68.0699 301.047 68.2715 301.163C68.4769 301.278 68.6337 301.445 68.7419 301.661C68.8539 301.874 68.9099 302.124 68.9099 302.411C68.9099 302.695 68.8539 302.945 68.7419 303.162C68.6337 303.375 68.4769 303.539 68.2715 303.655C68.0699 303.77 67.8347 303.828 67.5659 303.828ZM67.5659 303.38C67.8161 303.38 68.0065 303.298 68.1371 303.134C68.2715 302.97 68.3387 302.729 68.3387 302.411C68.3387 302.098 68.2715 301.859 68.1371 301.695C68.0027 301.527 67.8123 301.443 67.5659 301.443C67.3195 301.443 67.1291 301.527 66.9947 301.695C66.8603 301.859 66.7931 302.098 66.7931 302.411C66.7931 302.729 66.8585 302.97 66.9891 303.134C67.1235 303.298 67.3158 303.38 67.5659 303.38Z" fill="white"/>
        <rect x="80" y="270.59" width="24" height="24" rx="2.4" fill="#008939"/>
        <g clip-path="url(#clip5_971_12643)">
            <path d="M94.2656 289.253C94.0448 289.253 93.8656 289.074 93.8656 288.853C93.8656 288.632 94.0448 288.453 94.2656 288.453H96.6656C96.8864 288.453 97.0656 288.274 97.0656 288.053V282.453C97.0656 282.232 96.8864 282.053 96.6656 282.053H89.4656C89.2448 282.053 89.0656 282.232 89.0656 282.453V284.453C89.0656 284.674 88.8864 284.853 88.6656 284.853C88.4448 284.853 88.2656 284.674 88.2656 284.453V282.453C88.2656 281.791 88.8038 281.253 89.4656 281.253H89.8656V279.653C89.8656 277.889 91.3014 276.453 93.0656 276.453C94.8299 276.453 96.2656 277.889 96.2656 279.653V281.253H96.6656C97.3275 281.253 97.8656 281.791 97.8656 282.453V288.053C97.8656 288.715 97.3275 289.253 96.6656 289.253H94.2656ZM95.4656 281.253V279.653C95.4656 278.33 94.3888 277.253 93.0656 277.253C91.7424 277.253 90.6656 278.33 90.6656 279.653V281.253H95.4656Z" fill="white"/>
            <path d="M93.8818 286.54C93.7703 286.54 93.6626 286.493 93.5874 286.41C93.5154 286.332 93.4775 286.23 93.4823 286.123C93.4866 286.016 93.5325 285.918 93.6114 285.845C93.8557 285.62 93.9362 285.263 93.8114 284.956C93.6887 284.652 93.397 284.456 93.0685 284.456C92.9661 284.456 92.8653 284.475 92.7698 284.514C92.5714 284.594 92.4167 284.747 92.333 284.944C92.2498 285.14 92.2477 285.358 92.3282 285.556C92.3682 285.655 92.3671 285.763 92.3255 285.862C92.2839 285.961 92.2061 286.037 92.1069 286.077C92.0583 286.096 92.0082 286.106 91.957 286.106C91.7933 286.106 91.6477 286.008 91.5863 285.856C91.4263 285.46 91.4295 285.025 91.5965 284.632C91.7629 284.238 92.0733 283.933 92.4695 283.773C92.661 283.696 92.8626 283.656 93.0679 283.656C93.7245 283.656 94.3074 284.049 94.5533 284.656C94.8023 285.271 94.6413 285.986 94.1527 286.434C94.0786 286.503 93.9821 286.54 93.8818 286.54Z" fill="white"/>
            <path d="M94.3969 284.649C94.7282 284.649 94.9969 284.381 94.9969 284.049C94.9969 283.718 94.7282 283.449 94.3969 283.449C94.0655 283.449 93.7969 283.718 93.7969 284.049C93.7969 284.381 94.0655 284.649 94.3969 284.649Z" fill="white"/>
        </g>
        <path d="M87.0664 289.258C85.9635 289.258 85.0664 288.361 85.0664 287.258C85.0664 286.155 85.9635 285.258 87.0664 285.258C88.0259 285.258 88.8387 285.934 89.0253 286.858H92.6664C92.8872 286.858 93.0664 287.037 93.0664 287.258V288.458C93.0664 288.679 92.8872 288.858 92.6664 288.858C92.4456 288.858 92.2664 288.679 92.2664 288.458V287.658H91.4664V288.058C91.4664 288.279 91.2872 288.458 91.0664 288.458C90.8456 288.458 90.6664 288.279 90.6664 288.058V287.658H89.0253C88.8387 288.581 88.0259 289.258 87.0664 289.258ZM87.0664 286.058C86.4045 286.058 85.8664 286.596 85.8664 287.258C85.8664 287.92 86.4045 288.458 87.0664 288.458C87.7283 288.458 88.2664 287.92 88.2664 287.258C88.2664 286.596 87.7283 286.058 87.0664 286.058Z" fill="white"/>
        <path d="M83.0753 303.834C82.7916 303.834 82.5209 303.795 82.2633 303.716C82.0095 303.638 81.806 303.53 81.6529 303.391C81.582 303.332 81.5465 303.255 81.5465 303.162C81.5465 303.095 81.5652 303.039 81.6025 302.994C81.6399 302.945 81.6847 302.921 81.7369 302.921C81.7892 302.921 81.8527 302.945 81.9273 302.994C82.2596 303.24 82.6385 303.363 83.0641 303.363C83.3628 303.363 83.5924 303.307 83.7529 303.195C83.9135 303.083 83.9937 302.923 83.9937 302.714C83.9937 302.55 83.9191 302.426 83.7697 302.344C83.6204 302.262 83.3815 302.184 83.0529 302.109C82.7393 302.042 82.4817 301.965 82.2801 301.879C82.0785 301.794 81.9199 301.678 81.8041 301.532C81.6921 301.383 81.6361 301.194 81.6361 300.967C81.6361 300.739 81.6977 300.537 81.8209 300.362C81.9479 300.183 82.1233 300.045 82.3473 299.947C82.5713 299.847 82.8271 299.796 83.1145 299.796C83.3796 299.796 83.6241 299.834 83.8481 299.908C84.0721 299.983 84.2625 300.093 84.4193 300.239C84.494 300.302 84.5313 300.379 84.5313 300.468C84.5313 300.532 84.5108 300.588 84.4697 300.636C84.4324 300.685 84.3876 300.709 84.3353 300.709C84.2868 300.709 84.2252 300.685 84.1505 300.636C83.9788 300.506 83.8164 300.412 83.6633 300.356C83.514 300.297 83.3329 300.267 83.1201 300.267C82.8327 300.267 82.6087 300.326 82.4481 300.446C82.2876 300.562 82.2073 300.724 82.2073 300.933C82.2073 301.112 82.2783 301.249 82.4201 301.342C82.562 301.431 82.7897 301.514 83.1033 301.588C83.4319 301.663 83.6969 301.741 83.8985 301.823C84.1039 301.902 84.2663 302.012 84.3857 302.154C84.5089 302.292 84.5705 302.471 84.5705 302.691C84.5705 302.915 84.5071 303.115 84.3801 303.291C84.2569 303.462 84.0815 303.597 83.8537 303.694C83.6297 303.787 83.3703 303.834 83.0753 303.834ZM87.3535 303.1C87.4057 303.1 87.4487 303.121 87.4823 303.162C87.5159 303.203 87.5327 303.255 87.5327 303.319C87.5327 303.427 87.4655 303.518 87.3311 303.593C87.2004 303.668 87.0567 303.726 86.8999 303.767C86.7468 303.808 86.5993 303.828 86.4575 303.828C86.0244 303.828 85.6828 303.703 85.4327 303.453C85.1825 303.199 85.0575 302.854 85.0575 302.417C85.0575 302.137 85.1116 301.889 85.2199 301.672C85.3319 301.456 85.4868 301.288 85.6847 301.168C85.8863 301.049 86.114 300.989 86.3679 300.989C86.7337 300.989 87.0231 301.107 87.2359 301.342C87.4487 301.577 87.5551 301.894 87.5551 302.294C87.5551 302.443 87.4879 302.518 87.3535 302.518H85.6231C85.6604 303.097 85.9385 303.386 86.4575 303.386C86.5956 303.386 86.7151 303.367 86.8159 303.33C86.9167 303.293 87.0231 303.244 87.1351 303.184C87.1463 303.177 87.1761 303.162 87.2247 303.139C87.2769 303.113 87.3199 303.1 87.3535 303.1ZM86.3791 301.403C86.1625 301.403 85.9889 301.473 85.8583 301.611C85.7276 301.749 85.6492 301.943 85.6231 302.193H87.0679C87.0567 301.939 86.9913 301.745 86.8719 301.611C86.7561 301.473 86.5919 301.403 86.3791 301.403ZM89.3487 303.828C89.0837 303.828 88.8503 303.77 88.6487 303.655C88.4509 303.539 88.2959 303.375 88.1839 303.162C88.0757 302.949 88.0215 302.703 88.0215 302.423C88.0215 302.139 88.0775 301.889 88.1895 301.672C88.3053 301.456 88.4658 301.288 88.6711 301.168C88.8765 301.049 89.1117 300.989 89.3767 300.989C89.5186 300.989 89.6605 301.01 89.8023 301.051C89.9479 301.092 90.0767 301.148 90.1887 301.219C90.3082 301.301 90.3679 301.396 90.3679 301.504C90.3679 301.568 90.3511 301.622 90.3175 301.667C90.2839 301.708 90.241 301.728 90.1887 301.728C90.1551 301.728 90.1215 301.721 90.0879 301.706C90.0543 301.687 90.0114 301.661 89.9591 301.627C89.8658 301.568 89.7781 301.523 89.6959 301.493C89.6175 301.459 89.5223 301.443 89.4103 301.443C89.1565 301.443 88.9586 301.529 88.8167 301.7C88.6786 301.872 88.6095 302.111 88.6095 302.417C88.6095 302.723 88.6786 302.96 88.8167 303.128C88.9549 303.293 89.1509 303.375 89.4047 303.375C89.5167 303.375 89.6157 303.358 89.7015 303.324C89.7874 303.291 89.8751 303.246 89.9647 303.19C90.0058 303.164 90.0469 303.141 90.0879 303.123C90.129 303.104 90.1663 303.095 90.1999 303.095C90.2522 303.095 90.2951 303.117 90.3287 303.162C90.3623 303.203 90.3791 303.255 90.3791 303.319C90.3791 303.371 90.3642 303.419 90.3343 303.464C90.3082 303.505 90.2615 303.548 90.1943 303.593C90.0823 303.668 89.9517 303.726 89.8023 303.767C89.653 303.808 89.5018 303.828 89.3487 303.828ZM93.0022 301C93.088 301 93.1552 301.025 93.2038 301.073C93.256 301.122 93.2822 301.189 93.2822 301.275V303.554C93.2822 303.632 93.256 303.696 93.2038 303.744C93.1515 303.793 93.0824 303.817 92.9966 303.817C92.9182 303.817 92.8547 303.795 92.8062 303.75C92.7576 303.701 92.7334 303.638 92.7334 303.559V303.347C92.6475 303.503 92.528 303.623 92.375 303.705C92.2256 303.787 92.0576 303.828 91.871 303.828C91.2064 303.828 90.8742 303.462 90.8742 302.731V301.275C90.8742 301.189 90.8984 301.122 90.947 301.073C90.9992 301.025 91.0702 301 91.1598 301C91.2456 301 91.3128 301.025 91.3614 301.073C91.4136 301.122 91.4398 301.189 91.4398 301.275V302.725C91.4398 302.945 91.4846 303.108 91.5742 303.212C91.6638 303.317 91.8019 303.369 91.9886 303.369C92.2088 303.369 92.3843 303.298 92.515 303.156C92.6494 303.014 92.7166 302.826 92.7166 302.591V301.275C92.7166 301.193 92.7427 301.127 92.795 301.079C92.8472 301.026 92.9163 301 93.0022 301ZM95.5072 301C95.6864 300.989 95.776 301.066 95.776 301.23C95.776 301.312 95.7555 301.374 95.7144 301.415C95.6734 301.456 95.6024 301.48 95.5016 301.487L95.3336 301.504C95.0984 301.527 94.923 301.609 94.8072 301.751C94.6952 301.893 94.6392 302.064 94.6392 302.266V303.548C94.6392 303.638 94.6131 303.705 94.5608 303.75C94.5086 303.795 94.4414 303.817 94.3592 303.817C94.2771 303.817 94.208 303.795 94.152 303.75C94.0998 303.705 94.0736 303.638 94.0736 303.548V301.269C94.0736 301.183 94.0998 301.118 94.152 301.073C94.208 301.025 94.2771 301 94.3592 301C94.4339 301 94.4955 301.025 94.544 301.073C94.5963 301.118 94.6224 301.181 94.6224 301.263V301.532C94.6971 301.368 94.8054 301.243 94.9472 301.157C95.0891 301.071 95.2496 301.021 95.4288 301.006L95.5072 301ZM96.41 303.817C96.3279 303.817 96.2588 303.795 96.2028 303.75C96.1506 303.705 96.1244 303.638 96.1244 303.548V301.275C96.1244 301.185 96.1506 301.118 96.2028 301.073C96.2588 301.025 96.3279 301 96.41 301C96.4922 301 96.5594 301.025 96.6116 301.073C96.6639 301.118 96.69 301.185 96.69 301.275V303.548C96.69 303.638 96.6639 303.705 96.6116 303.75C96.5594 303.795 96.4922 303.817 96.41 303.817ZM96.41 300.451C96.3018 300.451 96.2159 300.422 96.1524 300.362C96.089 300.302 96.0572 300.224 96.0572 300.127C96.0572 300.03 96.089 299.953 96.1524 299.897C96.2159 299.837 96.3018 299.807 96.41 299.807C96.5146 299.807 96.5986 299.837 96.662 299.897C96.7292 299.953 96.7628 300.03 96.7628 300.127C96.7628 300.224 96.7311 300.302 96.6676 300.362C96.6042 300.422 96.5183 300.451 96.41 300.451ZM98.8956 303.386C98.9778 303.393 99.0356 303.416 99.0692 303.453C99.1066 303.487 99.1252 303.535 99.1252 303.599C99.1252 303.673 99.0954 303.731 99.0356 303.772C98.9796 303.81 98.8956 303.825 98.7836 303.817L98.6324 303.806C98.33 303.783 98.1042 303.692 97.9548 303.531C97.8055 303.367 97.7308 303.126 97.7308 302.809V301.493H97.3948C97.2306 301.493 97.1484 301.42 97.1484 301.275C97.1484 301.207 97.169 301.155 97.21 301.118C97.2548 301.077 97.3164 301.056 97.3948 301.056H97.7308V300.479C97.7308 300.394 97.7551 300.326 97.8036 300.278C97.8559 300.229 97.925 300.205 98.0108 300.205C98.0967 300.205 98.1658 300.229 98.218 300.278C98.2703 300.326 98.2964 300.394 98.2964 300.479V301.056H98.8508C98.9292 301.056 98.989 301.077 99.03 301.118C99.0748 301.155 99.0972 301.207 99.0972 301.275C99.0972 301.346 99.0748 301.4 99.03 301.437C98.989 301.474 98.9292 301.493 98.8508 301.493H98.2964V302.848C98.2964 303.024 98.3319 303.153 98.4028 303.235C98.4775 303.317 98.5895 303.363 98.7388 303.375L98.8956 303.386ZM101.513 301.168C101.535 301.112 101.567 301.071 101.608 301.045C101.653 301.019 101.7 301.006 101.748 301.006C101.819 301.006 101.881 301.03 101.933 301.079C101.989 301.127 102.017 301.185 102.017 301.252C102.017 301.29 102.009 301.325 101.995 301.359L100.438 304.663C100.415 304.715 100.382 304.754 100.337 304.78C100.296 304.81 100.251 304.825 100.203 304.825C100.135 304.825 100.074 304.803 100.018 304.758C99.9655 304.713 99.9393 304.657 99.9393 304.59C99.9393 304.56 99.9487 304.523 99.9673 304.478L100.354 303.655L99.2729 301.359C99.258 301.329 99.2505 301.295 99.2505 301.258C99.2505 301.187 99.2804 301.127 99.3401 301.079C99.3999 301.03 99.4671 301.006 99.5417 301.006C99.6537 301.006 99.734 301.058 99.7825 301.163L100.651 303.089L101.513 301.168Z" fill="white"/>
        <rect x="114" y="270.59" width="24" height="24" rx="2.4" fill="#008939"/>
        <g clip-path="url(#clip6_971_12643)">
            <path d="M126 288.594C122.692 288.594 120 285.902 120 282.594C120 279.285 122.692 276.594 126 276.594C129.308 276.594 132 279.285 132 282.594C132 285.902 129.308 288.594 126 288.594ZM126 277.394C123.133 277.394 120.8 279.727 120.8 282.594C120.8 285.461 123.133 287.794 126 287.794C128.867 287.794 131.2 285.461 131.2 282.594C131.2 279.727 128.867 277.394 126 277.394Z" fill="white"/>
            <path d="M128.501 285.496C128.394 285.496 128.293 285.454 128.218 285.378L125.718 282.878C125.681 282.841 125.652 282.797 125.631 282.747C125.63 282.743 125.628 282.738 125.627 282.734C125.61 282.688 125.602 282.642 125.602 282.595V280.595C125.602 280.375 125.781 280.195 126.002 280.195C126.222 280.195 126.402 280.375 126.402 280.595V282.429L128.784 284.812C128.86 284.888 128.901 284.988 128.901 285.095C128.901 285.202 128.86 285.303 128.784 285.378C128.708 285.453 128.607 285.496 128.501 285.496Z" fill="white"/>
        </g>
        <path d="M120.189 303.453C120.208 303.498 120.217 303.535 120.217 303.565C120.217 303.636 120.187 303.696 120.127 303.744C120.071 303.793 120.008 303.817 119.937 303.817C119.888 303.817 119.842 303.804 119.797 303.778C119.756 303.748 119.724 303.707 119.702 303.655L119.332 302.815H117.282L116.913 303.655C116.89 303.707 116.857 303.748 116.812 303.778C116.767 303.804 116.721 303.817 116.672 303.817C116.597 303.817 116.53 303.793 116.47 303.744C116.414 303.696 116.386 303.636 116.386 303.565C116.386 303.535 116.396 303.498 116.414 303.453L117.994 299.998C118.02 299.938 118.061 299.891 118.117 299.858C118.177 299.824 118.238 299.807 118.302 299.807C118.365 299.807 118.425 299.824 118.481 299.858C118.541 299.891 118.584 299.938 118.61 299.998L120.189 303.453ZM117.49 302.355H119.13L118.307 300.502L117.49 302.355ZM121.921 303.828C121.656 303.828 121.423 303.77 121.221 303.655C121.024 303.539 120.869 303.375 120.757 303.162C120.648 302.949 120.594 302.703 120.594 302.423C120.594 302.139 120.65 301.889 120.762 301.672C120.878 301.456 121.038 301.288 121.244 301.168C121.449 301.049 121.684 300.989 121.949 300.989C122.091 300.989 122.233 301.01 122.375 301.051C122.521 301.092 122.649 301.148 122.761 301.219C122.881 301.301 122.941 301.396 122.941 301.504C122.941 301.568 122.924 301.622 122.89 301.667C122.857 301.708 122.814 301.728 122.761 301.728C122.728 301.728 122.694 301.721 122.661 301.706C122.627 301.687 122.584 301.661 122.532 301.627C122.438 301.568 122.351 301.523 122.269 301.493C122.19 301.459 122.095 301.443 121.983 301.443C121.729 301.443 121.531 301.529 121.389 301.7C121.251 301.872 121.182 302.111 121.182 302.417C121.182 302.723 121.251 302.96 121.389 303.128C121.528 303.293 121.724 303.375 121.977 303.375C122.089 303.375 122.188 303.358 122.274 303.324C122.36 303.291 122.448 303.246 122.537 303.19C122.578 303.164 122.62 303.141 122.661 303.123C122.702 303.104 122.739 303.095 122.773 303.095C122.825 303.095 122.868 303.117 122.901 303.162C122.935 303.203 122.952 303.255 122.952 303.319C122.952 303.371 122.937 303.419 122.907 303.464C122.881 303.505 122.834 303.548 122.767 303.593C122.655 303.668 122.524 303.726 122.375 303.767C122.226 303.808 122.074 303.828 121.921 303.828ZM124.807 303.386C124.889 303.393 124.947 303.416 124.981 303.453C125.018 303.487 125.037 303.535 125.037 303.599C125.037 303.673 125.007 303.731 124.947 303.772C124.891 303.81 124.807 303.825 124.695 303.817L124.544 303.806C124.242 303.783 124.016 303.692 123.867 303.531C123.717 303.367 123.643 303.126 123.643 302.809V301.493H123.307C123.142 301.493 123.06 301.42 123.06 301.275C123.06 301.207 123.081 301.155 123.122 301.118C123.167 301.077 123.228 301.056 123.307 301.056H123.643V300.479C123.643 300.394 123.667 300.326 123.715 300.278C123.768 300.229 123.837 300.205 123.923 300.205C124.008 300.205 124.077 300.229 124.13 300.278C124.182 300.326 124.208 300.394 124.208 300.479V301.056H124.763C124.841 301.056 124.901 301.077 124.942 301.118C124.987 301.155 125.009 301.207 125.009 301.275C125.009 301.346 124.987 301.4 124.942 301.437C124.901 301.474 124.841 301.493 124.763 301.493H124.208V302.848C124.208 303.024 124.244 303.153 124.315 303.235C124.389 303.317 124.501 303.363 124.651 303.375L124.807 303.386ZM125.729 303.817C125.647 303.817 125.578 303.795 125.522 303.75C125.469 303.705 125.443 303.638 125.443 303.548V301.275C125.443 301.185 125.469 301.118 125.522 301.073C125.578 301.025 125.647 301 125.729 301C125.811 301 125.878 301.025 125.93 301.073C125.983 301.118 126.009 301.185 126.009 301.275V303.548C126.009 303.638 125.983 303.705 125.93 303.75C125.878 303.795 125.811 303.817 125.729 303.817ZM125.729 300.451C125.621 300.451 125.535 300.422 125.471 300.362C125.408 300.302 125.376 300.224 125.376 300.127C125.376 300.03 125.408 299.953 125.471 299.897C125.535 299.837 125.621 299.807 125.729 299.807C125.833 299.807 125.917 299.837 125.981 299.897C126.048 299.953 126.082 300.03 126.082 300.127C126.082 300.224 126.05 300.302 125.986 300.362C125.923 300.422 125.837 300.451 125.729 300.451ZM128.743 301.168C128.765 301.112 128.797 301.071 128.838 301.045C128.883 301.019 128.929 301.006 128.978 301.006C129.049 301.006 129.11 301.03 129.163 301.079C129.219 301.127 129.247 301.185 129.247 301.252C129.247 301.29 129.239 301.325 129.224 301.359L128.155 303.627C128.128 303.686 128.087 303.733 128.031 303.767C127.979 303.797 127.923 303.811 127.863 303.811C127.804 303.811 127.746 303.797 127.69 303.767C127.638 303.733 127.598 303.686 127.572 303.627L126.503 301.359C126.488 301.329 126.48 301.293 126.48 301.252C126.48 301.185 126.51 301.127 126.57 301.079C126.63 301.03 126.697 301.006 126.771 301.006C126.88 301.006 126.96 301.058 127.012 301.163L127.88 303.089L128.743 301.168ZM130.076 303.817C129.994 303.817 129.925 303.795 129.869 303.75C129.817 303.705 129.791 303.638 129.791 303.548V301.275C129.791 301.185 129.817 301.118 129.869 301.073C129.925 301.025 129.994 301 130.076 301C130.159 301 130.226 301.025 130.278 301.073C130.33 301.118 130.356 301.185 130.356 301.275V303.548C130.356 303.638 130.33 303.705 130.278 303.75C130.226 303.795 130.159 303.817 130.076 303.817ZM130.076 300.451C129.968 300.451 129.882 300.422 129.819 300.362C129.755 300.302 129.724 300.224 129.724 300.127C129.724 300.03 129.755 299.953 129.819 299.897C129.882 299.837 129.968 299.807 130.076 299.807C130.181 299.807 130.265 299.837 130.328 299.897C130.396 299.953 130.429 300.03 130.429 300.127C130.429 300.224 130.397 300.302 130.334 300.362C130.271 300.422 130.185 300.451 130.076 300.451ZM132.562 303.386C132.644 303.393 132.702 303.416 132.736 303.453C132.773 303.487 132.792 303.535 132.792 303.599C132.792 303.673 132.762 303.731 132.702 303.772C132.646 303.81 132.562 303.825 132.45 303.817L132.299 303.806C131.996 303.783 131.771 303.692 131.621 303.531C131.472 303.367 131.397 303.126 131.397 302.809V301.493H131.061C130.897 301.493 130.815 301.42 130.815 301.275C130.815 301.207 130.835 301.155 130.876 301.118C130.921 301.077 130.983 301.056 131.061 301.056H131.397V300.479C131.397 300.394 131.422 300.326 131.47 300.278C131.522 300.229 131.591 300.205 131.677 300.205C131.763 300.205 131.832 300.229 131.884 300.278C131.937 300.326 131.963 300.394 131.963 300.479V301.056H132.517C132.596 301.056 132.655 301.077 132.696 301.118C132.741 301.155 132.764 301.207 132.764 301.275C132.764 301.346 132.741 301.4 132.696 301.437C132.655 301.474 132.596 301.493 132.517 301.493H131.963V302.848C131.963 303.024 131.998 303.153 132.069 303.235C132.144 303.317 132.256 303.363 132.405 303.375L132.562 303.386ZM135.179 301.168C135.202 301.112 135.233 301.071 135.275 301.045C135.319 301.019 135.366 301.006 135.415 301.006C135.485 301.006 135.547 301.03 135.599 301.079C135.655 301.127 135.683 301.185 135.683 301.252C135.683 301.29 135.676 301.325 135.661 301.359L134.104 304.663C134.082 304.715 134.048 304.754 134.003 304.78C133.962 304.81 133.917 304.825 133.869 304.825C133.802 304.825 133.74 304.803 133.684 304.758C133.632 304.713 133.606 304.657 133.606 304.59C133.606 304.56 133.615 304.523 133.634 304.478L134.02 303.655L132.939 301.359C132.924 301.329 132.917 301.295 132.917 301.258C132.917 301.187 132.947 301.127 133.007 301.079C133.066 301.03 133.133 301.006 133.208 301.006C133.32 301.006 133.4 301.058 133.449 301.163L134.317 303.089L135.179 301.168Z" fill="white"/>
    </g>
    <rect x="1" y="1.58594" width="148" height="322.8" rx="7" stroke="black" stroke-width="2"/>
    <defs>
        <clipPath id="clip0_971_12643">
            <rect y="0.585938" width="150" height="324.8" rx="8" fill="white"/>
        </clipPath>
        <clipPath id="clip1_971_12643">
            <rect width="36.8" height="14.4" fill="white" transform="translate(56.8008 24.9883)"/>
        </clipPath>
        <clipPath id="clip2_971_12643">
            <rect width="150" height="113.356" fill="white" transform="translate(0 140.594)"/>
        </clipPath>
        <clipPath id="clip3_971_12643">
            <rect width="12.8" height="12.8" fill="white" transform="translate(17.6016 276.191)"/>
        </clipPath>
        <clipPath id="clip4_971_12643">
            <rect width="12.8" height="12.8" fill="white" transform="translate(51.5977 276.191)"/>
        </clipPath>
        <clipPath id="clip5_971_12643">
            <rect width="12.8" height="12.8" fill="white" transform="translate(84.7969 276.187)"/>
        </clipPath>
        <clipPath id="clip6_971_12643">
            <rect width="12.8" height="12.8" fill="white" transform="translate(119.598 276.191)"/>
        </clipPath>
    </defs>
</svg>
