<svg width="16" height="9" viewBox="0 0 16 9" fill="none" xmlns="http://www.w3.org/2000/svg">
    <path fill-rule="evenodd" clip-rule="evenodd" d="M16 7.09119C16 7.30382 15.9423 7.51931 15.8215 7.70687C15.5091 8.19226 14.8949 8.30967 14.45 7.96961L8.12442 3.12577L1.79888 7.95315C1.35329 8.2932 0.739705 8.17508 0.427989 7.68898C0.116274 7.20287 0.224554 6.5335 0.670143 6.19344L7.5607 0.934374C7.89998 0.67593 8.35148 0.675931 8.69076 0.93509L15.5813 6.21134C15.8543 6.42039 16 6.75257 16 7.09119Z" fill="#898585"/>
    <mask id="mask0_971_12947" style="mask-type:luminance" maskUnits="userSpaceOnUse" x="0" y="0" width="16" height="9">
        <path fill-rule="evenodd" clip-rule="evenodd" d="M16 7.09119C16 7.30382 15.9423 7.51931 15.8215 7.70687C15.5091 8.19226 14.8949 8.30967 14.45 7.96961L8.12442 3.12577L1.79888 7.95315C1.35329 8.2932 0.739705 8.17508 0.427989 7.68898C0.116274 7.20287 0.224554 6.5335 0.670143 6.19344L7.5607 0.934374C7.89998 0.67593 8.35148 0.675931 8.69076 0.93509L15.5813 6.21134C15.8543 6.42039 16 6.75257 16 7.09119Z" fill="white"/>
    </mask>
    <g mask="url(#mask0_971_12947)">
    </g>
</svg>
