<svg width="16" height="9" viewBox="0 0 16 9" fill="none" xmlns="http://www.w3.org/2000/svg">
    <path fill-rule="evenodd" clip-rule="evenodd"
          d="M0.25 1.81427C0.25 1.60164 0.30775 1.38615 0.428498 1.19858C0.74087 0.713197 1.35511 0.595788 1.80005 0.935845L8.12558 5.77969L14.4511 0.952311C14.8967 0.612254 15.5103 0.730379 15.822 1.21648C16.1337 1.70258 16.0254 2.37196 15.5799 2.71202L8.6893 7.97108C8.35002 8.22953 7.89852 8.22953 7.55924 7.97037L0.668684 2.69412C0.395686 2.48507 0.25 2.15289 0.25 1.81427Z"
          fill="#898585"/>
    <mask id="mask0_5543_72" style="mask-type:luminance" maskUnits="userSpaceOnUse" x="0" y="0" width="16" height="9">
        <path fill-rule="evenodd" clip-rule="evenodd"
              d="M0.25 1.81427C0.25 1.60164 0.30775 1.38615 0.428498 1.19858C0.74087 0.713197 1.35511 0.595788 1.80005 0.935845L8.12558 5.77969L14.4511 0.952311C14.8967 0.612254 15.5103 0.730379 15.822 1.21648C16.1337 1.70258 16.0254 2.37196 15.5799 2.71202L8.6893 7.97108C8.35002 8.22953 7.89852 8.22953 7.55924 7.97037L0.668684 2.69412C0.395686 2.48507 0.25 2.15289 0.25 1.81427Z"
              fill="white"/>
    </mask>
    <g mask="url(#mask0_5543_72)">
    </g>
</svg>
