<svg width="150" height="224" viewBox="0 0 150 224" fill="none" xmlns="http://www.w3.org/2000/svg">
    <g clip-path="url(#clip0_971_12783)">
        <path d="M43.9041 197.757C43.5343 197.161 43.0989 196.609 42.6061 196.109C42.4029 195.899 42.1885 195.701 41.9675 195.509C40.6234 194.317 38.985 193.504 37.2206 193.152C35.4563 192.8 33.6297 192.923 31.9287 193.508C30.2277 194.092 28.7137 195.117 27.5424 196.478C26.3711 197.838 25.5847 199.485 25.2641 201.248C23.7795 195.78 27.6441 190.393 31.5297 186.256C35.4173 182.119 39.8606 177.582 39.8383 171.914C39.8274 168.761 38.2785 165.947 35.9401 163.861C35.8679 163.798 35.7958 163.735 35.7222 163.674C32.8957 161.261 29.2593 159.999 25.5393 160.14C18.6282 160.508 12.5937 165.135 8.40301 170.623C1.65752 179.453 -1.29836 191.847 3.42398 201.899C7.57769 210.739 16.4365 215.989 25.4777 220.209C26.7402 220.799 28.0002 221.37 29.2576 221.924C29.2659 221.926 29.275 221.932 29.2834 221.935C29.3439 221.961 29.4044 221.988 29.4611 222.015C29.7206 222.129 29.9803 222.243 30.2375 222.356L30.1184 222.433L29.7467 222.673C29.8755 222.595 30.0031 222.52 30.1319 222.442C30.1703 222.419 30.2108 222.396 30.249 222.373C34.6895 219.719 39.1919 216.911 42.2596 212.768C45.4412 208.466 46.7204 202.305 43.9041 197.757Z"
              fill="#F1F1F1"/>
        <path d="M14.2808 187.766C13.2975 189.994 12.6456 192.353 12.3457 194.769C12.1098 196.923 12.1985 199.099 12.6089 201.227C13.4907 205.599 15.4137 209.697 18.2163 213.175C20.3307 215.815 22.7716 218.179 25.4811 220.209C26.7435 220.799 28.0035 221.37 29.261 221.924C29.2693 221.926 29.2784 221.932 29.2867 221.935C29.3472 221.961 29.4078 221.988 29.4646 222.015C29.7241 222.129 29.9837 222.243 30.2409 222.356L30.1218 222.433L29.75 222.673C29.8789 222.595 30.0064 222.52 30.1353 222.442C30.1736 222.418 30.2141 222.396 30.2523 222.373C29.2751 218.968 29.1315 215.38 29.8334 211.908C30.5354 208.437 32.0624 205.184 34.2867 202.421C36.5228 199.693 39.3746 197.531 42.6094 196.109C42.4062 195.899 42.1919 195.702 41.9709 195.509C40.7249 196.079 39.5319 196.757 38.4059 197.537C34.3787 200.309 31.3547 204.299 29.7815 208.917C28.377 213.106 28.2015 217.607 29.2758 221.892C29.0529 221.747 28.8292 221.598 28.6116 221.45C24.4749 218.671 20.6623 215.334 17.7906 211.242C15.3137 207.783 13.7287 203.771 13.1752 199.559C12.6248 194.957 13.7807 190.432 15.8432 186.326C18.1208 181.934 20.9907 177.872 24.3732 174.254C27.7706 170.536 31.612 167.246 35.8117 164.458C35.9063 164.394 35.9727 164.297 35.9973 164.186C36.0218 164.075 36.0026 163.959 35.9435 163.862C35.8984 163.773 35.8201 163.706 35.7256 163.674C35.6775 163.662 35.6274 163.661 35.5788 163.671C35.5302 163.68 35.4844 163.701 35.4449 163.731C34.9265 164.075 34.4124 164.423 33.9047 164.781C29.6753 167.764 25.8344 171.258 22.4701 175.185C19.2192 178.969 16.2607 183.173 14.2808 187.766Z"
              fill="white"/>
        <path d="M104.814 14.5088C101.248 14.5088 98.358 11.6299 98.358 8.0786C98.358 4.52732 101.248 1.64844 104.814 1.64844C108.379 1.64844 111.27 4.52732 111.27 8.0786C111.27 11.6299 108.379 14.5088 104.814 14.5088Z"
              fill="#F1F1F1"/>
        <path d="M24.5406 100.559C22.3668 100.559 20.6047 98.8042 20.6047 96.6391C20.6047 94.4739 22.3668 92.7188 24.5406 92.7188C26.7144 92.7188 28.4766 94.4739 28.4766 96.6391C28.4766 98.8042 26.7144 100.559 24.5406 100.559Z"
              fill="#F1F1F1"/>
        <path d="M139.732 111.317C137.558 111.317 135.796 109.562 135.796 107.397C135.796 105.232 137.558 103.477 139.732 103.477C141.906 103.477 143.668 105.232 143.668 107.397C143.668 109.562 141.906 111.317 139.732 111.317Z"
              fill="#F1F1F1"/>
        <path d="M137.511 223.108H0.361893C0.266418 223.108 0.174866 223.07 0.107361 223.003C0.039856 222.935 0.00192261 222.844 0.00192261 222.749C0.00192261 222.654 0.039856 222.563 0.107361 222.496C0.174866 222.428 0.266418 222.391 0.361893 222.391H137.511C137.607 222.391 137.698 222.428 137.766 222.496C137.833 222.563 137.871 222.654 137.871 222.749C137.871 222.844 137.833 222.935 137.766 223.003C137.698 223.07 137.607 223.108 137.511 223.108Z"
              fill="#CBCBCB"/>
        <path d="M15.4923 35.1033C15.3123 33.8298 15.6074 32.5347 16.322 31.4635C17.0365 30.3923 18.1207 29.6193 19.3691 29.2911C20.6176 28.9629 21.9435 29.1023 23.0957 29.6828C24.2479 30.2632 25.1463 31.2445 25.6207 32.4407L36.75 45.1491L33.4845 54.2334L22.2919 39.3842C21.5615 39.6172 20.7887 39.6879 20.028 39.5913C19.2672 39.4947 18.537 39.2331 17.8887 38.8249C17.2404 38.4168 16.6899 37.872 16.2759 37.229C15.8618 36.586 15.5944 35.8604 15.4923 35.1033Z"
              fill="#FFB7B7"/>
        <path d="M61.6277 84.5486L24.6842 45.2776L29.6673 37.3867L76.0039 76.4193L61.6277 84.5486Z" fill="#3F3D56"/>
        <path d="M69.877 60.6902C62.7199 60.6902 56.918 54.9113 56.918 47.7826C56.918 40.6539 62.7199 34.875 69.877 34.875C77.034 34.875 82.8359 40.6539 82.8359 47.7826C82.8359 54.9113 77.034 60.6902 69.877 60.6902Z"
              fill="#2F2E41"/>
        <path d="M68.832 40.4922C66.0435 37.6756 62.669 35.5021 58.9461 34.1247C56.5563 33.2429 53.9552 32.6981 51.4569 33.1989C48.9584 33.6996 46.5958 35.4211 45.8988 37.8627C45.3288 39.8592 45.9173 42.0088 46.8019 43.8882C47.6863 45.7677 48.8672 47.5104 49.5825 49.46C50.3123 51.4492 50.5318 53.5885 50.221 55.6836C49.9103 57.7787 49.079 59.7634 47.8029 61.4574C46.5267 63.1514 44.8459 64.5011 42.9132 65.384C40.9804 66.2669 38.8569 66.6551 36.7354 66.5132C39.1902 66.841 41.453 67.99 43.8524 68.6017C46.2518 69.2132 49.0838 69.1718 50.8668 67.4596C52.7534 65.6481 52.7912 62.7027 52.7 60.0942C52.5644 56.2166 52.4288 52.3389 52.2932 48.4612C52.224 46.4837 52.165 44.4428 52.881 42.5971C53.597 40.7513 55.2986 39.1351 57.2852 39.1519C58.7908 39.1646 60.1234 40.0731 61.3307 40.969C62.5382 41.8649 63.8162 42.8208 65.3159 42.954C66.8155 43.0873 68.5279 41.9818 68.4156 40.4863L68.832 40.4922Z"
              fill="#2F2E41"/>
        <path d="M119.087 134.449C120.331 134.793 121.659 134.671 122.819 134.105C123.978 133.54 124.889 132.57 125.379 131.38C125.869 130.19 125.904 128.863 125.476 127.649C125.049 126.435 124.19 125.42 123.061 124.795L111.866 112.145L102.397 114.182L115.715 127.175C115.387 127.866 115.216 128.62 115.213 129.384C115.21 130.148 115.375 130.903 115.696 131.596C116.018 132.29 116.488 132.905 117.074 133.398C117.66 133.89 118.347 134.249 119.087 134.449H119.087Z"
              fill="#FFB7B7"/>
        <path d="M82.2594 89.1577L110.163 124.044L118.668 120.155L85.871 69.2969L82.2594 89.1577Z" fill="#3F3D56"/>
        <path d="M104.526 194.499L111.176 194.395L110.376 216.971H104.527L104.526 194.499Z" fill="#FFB7B7"/>
        <path d="M103.033 215.071L114.553 215.07H114.553C116.5 215.07 118.368 215.841 119.744 217.212C121.121 218.583 121.894 220.443 121.895 222.382V222.62L103.034 222.621L103.033 215.071Z"
              fill="#2F2E41"/>
        <path d="M60.4932 188.512L67.7578 193.157L53.2265 210.57L48.3042 207.422L60.4932 188.512Z" fill="#FFB7B7"/>
        <path d="M48.0796 205.02L57.7733 211.218L57.7737 211.219C59.412 212.266 60.5653 213.919 60.98 215.814C61.3946 217.709 61.0367 219.69 59.9849 221.322L59.856 221.522L43.9847 211.373L48.0796 205.02Z"
              fill="#2F2E41"/>
        <path d="M57.9057 119.578C57.9057 119.578 74.0466 66.1814 79.2339 65.4598C84.4212 64.7382 92.779 79.1609 92.779 79.1609C103.615 92.9319 114.789 137.539 114.789 137.539C114.789 137.539 96.1618 138.7 82.5452 145.916C68.9286 153.132 52.8592 145.551 52.8592 145.551L57.9057 119.578Z"
              fill="#3F3D56"/>
        <path opacity="0.1"
              d="M57.9057 119.578C57.9057 119.578 74.0466 66.1811 79.2339 65.4595C84.4212 64.738 90.6562 79.307 90.6562 79.307C96.0558 101.537 114.789 137.539 114.789 137.539C114.789 137.539 96.1618 138.7 82.5452 145.916C68.9286 153.132 52.8592 145.551 52.8592 145.551L57.9057 119.578Z"
              fill="black"/>
        <path d="M71.1458 103.597V130.429L67.9756 169.297L52.1368 198.697L59.6962 204.076L81.2945 176.109L89.837 148.34L103.253 209.812L113.332 209.095L106.332 123.865L93.0487 99.875L71.1458 103.597Z"
              fill="#2F2E41"/>
        <path d="M87.4195 77.6476C92.4591 82.6672 87.7795 88.0453 87.7795 88.0453L93.5391 100.953L70.8608 107.048L62.9356 71.7752L68.3352 66.0385C79.1344 65.68 79.1402 65.457 79.1402 65.457C81.0323 67.3013 87.4195 77.6476 87.4195 77.6476Z"
              fill="#0077C8"/>
        <path d="M62.02 68.1183C63.05 67.361 64.2206 66.8148 65.464 66.5114C66.7075 66.2079 67.999 66.1531 69.2638 66.3503C70.5286 66.5475 71.7416 66.9927 72.8324 67.6601C73.9233 68.3275 74.8703 69.2039 75.6187 70.2384C81.3199 78.1451 86.5915 90.9125 79.3281 106.836C67.6654 132.403 57.5163 145.492 53.3903 145.491C53.2102 145.492 53.031 145.464 52.86 145.408C50.3204 144.549 46.6484 140.269 45.9837 136.497C45.7457 135.147 45.8023 133.266 47.4234 131.975C52.0798 128.265 60.4391 116.715 63.0468 101.511C64.4879 93.1109 61.6932 85.4587 59.0951 80.5187C57.9976 78.4747 57.6766 76.1052 58.1908 73.8446C58.7049 71.5839 60.0199 69.5836 61.8947 68.2102L62.02 68.1183Z"
              fill="#3F3D56"/>
        <path d="M69.2128 59.4214C64.5901 56.9044 62.8911 51.1313 65.4182 46.5268C67.9452 41.9224 73.7413 40.2302 78.3641 42.7472C82.9869 45.2642 84.6858 51.0373 82.1588 55.6418C79.6317 60.2463 73.8356 61.9385 69.2128 59.4214Z"
              fill="#FFB7B7"/>
        <path d="M87.1953 50.363H73.4208L73.2795 48.3932L72.5733 50.363H70.4523L70.1724 46.4589L68.7726 50.363H64.6686V50.1695C64.6717 47.4516 65.757 44.8459 67.6865 42.924C69.616 41.0021 72.2321 39.921 74.9609 39.918H76.9029C79.6317 39.921 82.2478 41.0021 84.1773 42.924C86.1069 44.8458 87.1922 47.4516 87.1953 50.1695V50.363Z"
              fill="#2F2E41"/>
        <path d="M66.7556 57.4463L60.8774 55.5464V41.3281H71.9805L71.7056 41.6015C67.881 45.406 63.6274 58.9038 66.7556 57.4463Z"
              fill="#2F2E41"/>
    </g>
    <defs>
        <clipPath id="clip0_971_12783">
            <rect width="150" height="222.656" fill="white" transform="matrix(-1 0 0 1 150 0.453125)"/>
        </clipPath>
    </defs>
</svg>
