<svg width="24" height="24" viewBox="0 0 24 24" fill="none" xmlns="http://www.w3.org/2000/svg">
    <g clip-path="url(#clip0_971_13540)">
        <path d="M23.25 23.9971C23.05 23.9971 22.861 23.9191 22.72 23.7771L12 13.0581L1.28 23.7771C1.138 23.9191 0.95 23.9971 0.75 23.9971C0.55 23.9971 0.361 23.9191 0.22 23.7771C-0.072 23.4851 -0.072 23.0091 0.22 22.7161L10.94 11.9961L0.22 1.27709C0.078 1.13609 0 0.947094 0 0.747094C0 0.547094 0.078 0.358094 0.22 0.217094C0.361 0.0750937 0.55 -0.00290625 0.75 -0.00290625C0.95 -0.00290625 1.139 0.0750937 1.28 0.217094L12 10.9361L22.72 0.216094C22.862 0.0740937 23.05 -0.00390625 23.25 -0.00390625C23.45 -0.00390625 23.639 0.0740937 23.78 0.216094C23.922 0.358094 24 0.547094 24 0.747094C24 0.947094 23.922 1.13609 23.78 1.27709L13.06 11.9971L23.78 22.7171C24.072 23.0091 24.072 23.4851 23.78 23.7781C23.639 23.9191 23.45 23.9971 23.25 23.9971Z" fill="#8C969F"/>
    </g>
    <defs>
        <clipPath id="clip0_971_13540">
            <rect width="24" height="24" fill="white"/>
        </clipPath>
    </defs>
</svg>
