<svg width="40" height="40" viewBox="0 0 40 40" fill="none" xmlns="http://www.w3.org/2000/svg">
    <rect x="0.5" y="0.5" width="39" height="39" rx="5.5" fill="white"/>
    <rect x="0.5" y="0.5" width="39" height="39" rx="5.5" stroke="#8C969F"/>
    <path d="M10.25 26.7539C9.836 26.7539 9.5 26.4179 9.5 26.0039C9.5 25.5899 9.836 25.2539 10.25 25.2539H29.75C30.164 25.2539 30.5 25.5899 30.5 26.0039C30.5 26.4179 30.164 26.7539 29.75 26.7539H10.25Z" fill="#8C969F"/>
    <path d="M10.25 20.7539C9.836 20.7539 9.5 20.4179 9.5 20.0039C9.5 19.5899 9.836 19.2539 10.25 19.2539H29.75C30.164 19.2539 30.5 19.5899 30.5 20.0039C30.5 20.4179 30.164 20.7539 29.75 20.7539H10.25Z" fill="#8C969F"/>
    <path d="M10.25 14.7539C9.836 14.7539 9.5 14.4179 9.5 14.0039C9.5 13.5899 9.836 13.2539 10.25 13.2539H29.75C30.164 13.2539 30.5 13.5899 30.5 14.0039C30.5 14.4179 30.164 14.7539 29.75 14.7539H10.25Z" fill="#8C969F"/>
</svg>
