<svg width="105" height="45" viewBox="0 0 105 45" fill="none" xmlns="http://www.w3.org/2000/svg">
    <g clip-path="url(#clip0_971_12760)">
        <mask id="mask0_971_12760" style="mask-type:luminance" maskUnits="userSpaceOnUse" x="0" y="0" width="105"
              height="45">
            <path d="M0 0.453125H104.999V44.4526H0V0.453125Z" fill="white"/>
        </mask>
        <g mask="url(#mask0_971_12760)">
            <path fill-rule="evenodd" clip-rule="evenodd"
                  d="M93 44.4531H12C5.373 44.4531 0 39.0801 0 32.4531V12.4531C0 5.82513 5.373 0.453125 12 0.453125H93C99.628 0.453125 105 5.82513 105 12.4531V32.4531C105 39.0801 99.628 44.4531 93 44.4531Z"
                  fill="#002568"/>
        </g>
        <path fill-rule="evenodd" clip-rule="evenodd"
              d="M17.7345 18.7129C14.9185 18.7129 13.6065 20.9519 13.4465 22.8089H22.0215C21.9585 21.0169 20.7425 18.7129 17.7345 18.7129ZM23.6535 25.1769H13.4785C13.7025 27.4809 15.4625 29.4319 18.3415 29.4319C19.4625 29.4319 20.7425 29.0799 21.7975 28.4079C22.0215 28.2799 22.2775 28.2159 22.5025 28.2159C23.2065 28.2159 23.9415 28.7919 23.9415 29.6239C23.9415 31.3839 19.9735 32.1839 17.9905 32.1839C13.3505 32.1839 9.89453 28.9519 9.89453 24.0569C9.89453 19.5769 13.1585 15.9609 17.7345 15.9609C21.3495 15.9609 23.9735 18.1369 24.9335 21.4649C25.1265 22.1049 25.3175 22.8409 25.3175 23.5129C25.3175 24.4079 24.5825 25.1769 23.6535 25.1769Z"
              fill="white"/>
        <path fill-rule="evenodd" clip-rule="evenodd"
              d="M39.5267 21.0486C38.7577 19.8966 37.1588 19.0006 35.5588 19.0006C32.9348 19.0006 31.2388 21.1116 31.2388 24.0876C31.2388 27.0316 32.9348 29.1436 35.5588 29.1436C37.1588 29.1436 38.7577 28.2476 39.5267 27.1276V21.0486ZM41.2217 31.9916C40.2617 31.9916 39.5267 31.2236 39.5267 30.2956V29.6876C38.3107 31.2556 36.5497 32.1836 34.5667 32.1836C30.6307 32.1836 27.7188 29.1756 27.7188 24.0876C27.7188 19.0966 30.5987 15.9606 34.5667 15.9606C36.4867 15.9606 38.2787 16.8566 39.5267 18.4566V11.9606C39.5267 11.0326 40.2618 10.2656 41.2868 10.2656C42.1818 10.2656 42.9507 11.0326 42.9507 11.9606V30.2956C42.9507 31.2236 42.1817 31.9916 41.2217 31.9916Z"
              fill="white"/>
        <path fill-rule="evenodd" clip-rule="evenodd"
              d="M58.7872 31.9913C57.8272 31.9913 57.0922 31.2223 57.0922 30.2953V29.7513C55.9722 30.9993 54.0522 32.1823 51.6202 32.1823C48.2922 32.1823 46.6602 30.4233 46.6602 27.2873V17.8153C46.6602 16.9203 47.3962 16.1523 48.4202 16.1523C49.3162 16.1523 50.0842 16.9203 50.0842 17.8153V26.0393C50.0842 28.4073 51.3002 29.1423 53.1552 29.1423C54.8512 29.1423 56.2922 28.1823 57.0922 27.1593V17.8153C57.0922 16.9203 57.8272 16.1523 58.8512 16.1523C59.7472 16.1523 60.5162 16.9203 60.5162 17.8153V30.2953C60.5162 31.2223 59.7472 31.9913 58.7872 31.9913Z"
              fill="white"/>
        <path fill-rule="evenodd" clip-rule="evenodd"
              d="M68.7076 31.9926C67.6836 31.9926 66.8516 31.1286 66.8516 30.1036V12.1216C66.8516 11.1296 67.6836 10.2656 68.7706 10.2656C69.7956 10.2656 70.6586 11.1296 70.6586 12.1216V30.1036C70.6586 31.1286 69.7956 31.9926 68.7076 31.9926Z"
              fill="#53A6F0"/>
        <path fill-rule="evenodd" clip-rule="evenodd"
              d="M83.8117 13.817H79.6517V28.44H83.8117C88.4187 28.44 91.0758 25.144 91.0758 21.144C91.0758 17.048 88.5467 13.817 83.8117 13.817ZM83.8117 31.799H78.1478C76.8688 31.799 75.8438 30.744 75.8438 29.496V12.76C75.8438 11.513 76.8688 10.457 78.1478 10.457H83.8117C90.4667 10.457 95.0107 14.873 95.0107 21.144C95.0107 27.448 90.4667 31.799 83.8117 31.799Z"
              fill="#53A6F0"/>
    </g>
    <defs>
        <clipPath id="clip0_971_12760">
            <rect width="105" height="44" fill="white" transform="translate(0 0.453125)"/>
        </clipPath>
    </defs>
</svg>