<svg width="245" height="242" viewBox="0 0 245 242" fill="none" xmlns="http://www.w3.org/2000/svg">
    <g clip-path="url(#clip0_971_13732)">
        <rect x="0.25" width="244.5" height="241.5" rx="6.64313" fill="white"/>
        <rect x="-5.06641" y="182.066" width="249.117" height="59.7881" fill="#F4F6F8"/>
        <rect x="21.1759" y="195.684" width="203.944" height="30.9364" rx="3.65372" fill="white"/>
        <rect x="21.1759" y="195.684" width="203.944" height="30.9364" rx="3.65372" stroke="#8C969F" stroke-width="0.664313"/>
        <path d="M75.5094 214.652V207.701H76.9018L78.1347 211.102C78.2127 211.321 78.2871 211.548 78.358 211.782C78.4288 212.009 78.5032 212.236 78.5812 212.462H78.6237C78.7016 212.236 78.7725 212.009 78.8363 211.782C78.9071 211.548 78.9815 211.321 79.0595 211.102L80.2605 207.701H81.6636V214.652H80.5263V211.474C80.5263 211.311 80.5298 211.134 80.5369 210.942C80.5511 210.751 80.5652 210.56 80.5794 210.368C80.5936 210.17 80.6113 209.979 80.6326 209.794C80.6538 209.603 80.6715 209.426 80.6857 209.263H80.6432L80.0799 210.879L78.9425 214.004H78.2091L77.0612 210.879L76.5085 209.263H76.466C76.4802 209.426 76.4943 209.603 76.5085 209.794C76.5298 209.979 76.5475 210.17 76.5617 210.368C76.5829 210.56 76.5971 210.751 76.6042 210.942C76.6183 211.134 76.6254 211.311 76.6254 211.474V214.652H75.5094ZM84.5878 214.779C84.1272 214.779 83.7552 214.641 83.4718 214.365C83.1883 214.081 83.0466 213.709 83.0466 213.249C83.0466 212.973 83.1033 212.728 83.2167 212.515C83.3371 212.296 83.5214 212.108 83.7694 211.952C84.0245 211.796 84.3433 211.665 84.726 211.559C85.1157 211.453 85.5798 211.371 86.1184 211.314C86.1113 211.18 86.09 211.052 86.0546 210.932C86.0263 210.804 85.9731 210.694 85.8952 210.602C85.8243 210.503 85.7286 210.429 85.6082 210.379C85.4877 210.322 85.3389 210.294 85.1618 210.294C84.9067 210.294 84.6551 210.344 84.4071 210.443C84.1662 210.542 83.9288 210.662 83.695 210.804L83.2485 209.986C83.5391 209.802 83.865 209.642 84.2264 209.507C84.5878 209.373 84.9775 209.306 85.3956 209.306C86.0475 209.306 86.5329 209.5 86.8518 209.89C87.1777 210.273 87.3407 210.829 87.3407 211.559V214.652H86.331L86.2459 214.078H86.2034C85.9696 214.276 85.718 214.443 85.4487 214.578C85.1866 214.712 84.8996 214.779 84.5878 214.779ZM84.9811 213.823C85.1936 213.823 85.385 213.773 85.555 213.674C85.7322 213.575 85.92 213.433 86.1184 213.249V212.08C85.7641 212.122 85.4665 212.179 85.2255 212.25C84.9846 212.321 84.7897 212.402 84.6409 212.494C84.4921 212.579 84.3858 212.678 84.3221 212.792C84.2583 212.905 84.2264 213.026 84.2264 213.153C84.2264 213.387 84.2973 213.557 84.439 213.663C84.5807 213.77 84.7614 213.823 84.9811 213.823ZM88.8035 214.652V209.433H89.8133L89.8983 210.135H89.9408C90.1747 209.908 90.4262 209.713 90.6955 209.55C90.9718 209.387 91.2907 209.306 91.6521 209.306C92.2119 209.306 92.6193 209.486 92.8744 209.848C93.1295 210.202 93.2571 210.712 93.2571 211.378V214.652H92.0347V211.538C92.0347 211.105 91.971 210.801 91.8434 210.624C91.7159 210.446 91.5068 210.358 91.2163 210.358C90.9896 210.358 90.7876 210.414 90.6105 210.528C90.4404 210.634 90.2455 210.794 90.0259 211.006V214.652H88.8035ZM96.016 214.779C95.5555 214.779 95.1834 214.641 94.9 214.365C94.6166 214.081 94.4748 213.709 94.4748 213.249C94.4748 212.973 94.5315 212.728 94.6449 212.515C94.7654 212.296 94.9496 212.108 95.1976 211.952C95.4527 211.796 95.7716 211.665 96.1542 211.559C96.544 211.453 97.0081 211.371 97.5466 211.314C97.5395 211.18 97.5183 211.052 97.4829 210.932C97.4545 210.804 97.4014 210.694 97.3234 210.602C97.2526 210.503 97.1569 210.429 97.0364 210.379C96.916 210.322 96.7672 210.294 96.59 210.294C96.3349 210.294 96.0834 210.344 95.8354 210.443C95.5944 210.542 95.3571 210.662 95.1232 210.804L94.6768 209.986C94.9673 209.802 95.2933 209.642 95.6547 209.507C96.016 209.373 96.4058 209.306 96.8239 209.306C97.4758 209.306 97.9612 209.5 98.28 209.89C98.606 210.273 98.769 210.829 98.769 211.559V214.652H97.7592L97.6742 214.078H97.6317C97.3978 214.276 97.1463 214.443 96.877 214.578C96.6148 214.712 96.3278 214.779 96.016 214.779ZM96.4093 213.823C96.6219 213.823 96.8132 213.773 96.9833 213.674C97.1604 213.575 97.3482 213.433 97.5466 213.249V212.08C97.1923 212.122 96.8947 212.179 96.6538 212.25C96.4129 212.321 96.218 212.402 96.0692 212.494C95.9204 212.579 95.8141 212.678 95.7503 212.792C95.6866 212.905 95.6547 213.026 95.6547 213.153C95.6547 213.387 95.7255 213.557 95.8672 213.663C96.009 213.77 96.1897 213.823 96.4093 213.823ZM102.049 216.958C101.738 216.958 101.447 216.93 101.178 216.873C100.916 216.817 100.689 216.732 100.498 216.618C100.306 216.505 100.154 216.363 100.04 216.193C99.9342 216.023 99.881 215.825 99.881 215.598C99.881 215.378 99.9448 215.173 100.072 214.981C100.2 214.797 100.384 214.631 100.625 214.482V214.439C100.49 214.354 100.377 214.241 100.285 214.099C100.2 213.957 100.157 213.78 100.157 213.568C100.157 213.362 100.214 213.178 100.327 213.015C100.448 212.845 100.583 212.707 100.731 212.601V212.558C100.554 212.423 100.395 212.239 100.253 212.005C100.118 211.764 100.051 211.488 100.051 211.176C100.051 210.879 100.108 210.613 100.221 210.379C100.335 210.145 100.483 209.95 100.668 209.794C100.859 209.631 101.079 209.511 101.327 209.433C101.575 209.348 101.837 209.306 102.113 209.306C102.255 209.306 102.389 209.32 102.517 209.348C102.652 209.369 102.772 209.398 102.878 209.433H104.749V210.337H103.792C103.878 210.436 103.948 210.563 104.005 210.719C104.062 210.868 104.09 211.035 104.09 211.219C104.09 211.509 104.037 211.764 103.931 211.984C103.831 212.204 103.693 212.388 103.516 212.537C103.339 212.686 103.13 212.799 102.889 212.877C102.648 212.955 102.389 212.994 102.113 212.994C102 212.994 101.883 212.983 101.762 212.962C101.642 212.941 101.521 212.905 101.401 212.856C101.323 212.926 101.259 212.997 101.21 213.068C101.167 213.139 101.146 213.235 101.146 213.355C101.146 213.504 101.206 213.621 101.327 213.706C101.454 213.791 101.677 213.833 101.996 213.833H102.921C103.552 213.833 104.026 213.936 104.345 214.142C104.671 214.34 104.834 214.666 104.834 215.12C104.834 215.375 104.767 215.616 104.632 215.842C104.505 216.069 104.32 216.264 104.079 216.427C103.839 216.59 103.544 216.717 103.197 216.81C102.857 216.909 102.474 216.958 102.049 216.958ZM102.113 212.229C102.361 212.229 102.574 212.14 102.751 211.963C102.928 211.779 103.017 211.516 103.017 211.176C103.017 210.85 102.928 210.599 102.751 210.422C102.581 210.237 102.368 210.145 102.113 210.145C101.858 210.145 101.642 210.234 101.465 210.411C101.288 210.588 101.199 210.843 101.199 211.176C101.199 211.516 101.288 211.779 101.465 211.963C101.642 212.14 101.858 212.229 102.113 212.229ZM102.241 216.161C102.666 216.161 103.006 216.076 103.261 215.906C103.523 215.743 103.654 215.548 103.654 215.322C103.654 215.116 103.573 214.978 103.41 214.907C103.254 214.836 103.027 214.801 102.73 214.801H102.017C101.734 214.801 101.497 214.776 101.305 214.726C101.036 214.932 100.901 215.162 100.901 215.417C100.901 215.651 101.018 215.832 101.252 215.959C101.493 216.094 101.823 216.161 102.241 216.161ZM107.82 214.779C107.459 214.779 107.122 214.719 106.81 214.599C106.498 214.471 106.226 214.291 105.992 214.057C105.758 213.823 105.574 213.539 105.439 213.206C105.311 212.866 105.248 212.48 105.248 212.048C105.248 211.623 105.315 211.24 105.45 210.9C105.584 210.56 105.761 210.273 105.981 210.039C106.208 209.805 106.466 209.624 106.757 209.497C107.048 209.369 107.345 209.306 107.65 209.306C108.004 209.306 108.316 209.366 108.585 209.486C108.854 209.607 109.078 209.777 109.255 209.996C109.439 210.216 109.577 210.478 109.669 210.783C109.761 211.088 109.808 211.421 109.808 211.782C109.808 211.903 109.8 212.016 109.786 212.122C109.779 212.229 109.769 212.314 109.754 212.377H106.438C106.495 212.845 106.658 213.206 106.927 213.461C107.203 213.709 107.554 213.833 107.979 213.833C108.206 213.833 108.415 213.802 108.606 213.738C108.805 213.667 109 213.571 109.191 213.451L109.606 214.216C109.358 214.379 109.081 214.514 108.777 214.62C108.472 214.726 108.153 214.779 107.82 214.779ZM106.427 211.548H108.745C108.745 211.144 108.656 210.829 108.479 210.602C108.309 210.368 108.043 210.252 107.682 210.252C107.37 210.252 107.097 210.361 106.863 210.581C106.629 210.801 106.484 211.123 106.427 211.548ZM113.454 216.799C113.312 216.799 113.188 216.788 113.082 216.767C112.975 216.753 112.873 216.728 112.773 216.693L112.997 215.736C113.046 215.75 113.103 215.764 113.167 215.779C113.237 215.8 113.305 215.81 113.369 215.81C113.645 215.81 113.865 215.725 114.028 215.555C114.198 215.392 114.325 215.18 114.41 214.918L114.506 214.588L112.454 209.433H113.698L114.602 211.995C114.679 212.221 114.754 212.462 114.825 212.717C114.903 212.965 114.981 213.213 115.059 213.461H115.101C115.165 213.221 115.229 212.976 115.292 212.728C115.363 212.473 115.431 212.229 115.494 211.995L116.281 209.433H117.461L115.569 214.886C115.462 215.183 115.346 215.449 115.218 215.683C115.09 215.917 114.942 216.115 114.772 216.278C114.609 216.448 114.417 216.576 114.198 216.661C113.985 216.753 113.737 216.799 113.454 216.799ZM120.44 214.779C120.114 214.779 119.802 214.719 119.504 214.599C119.207 214.478 118.941 214.301 118.707 214.067C118.48 213.833 118.3 213.547 118.165 213.206C118.03 212.866 117.963 212.48 117.963 212.048C117.963 211.616 118.03 211.229 118.165 210.889C118.3 210.549 118.48 210.262 118.707 210.028C118.941 209.794 119.207 209.617 119.504 209.497C119.802 209.369 120.114 209.306 120.44 209.306C120.766 209.306 121.077 209.369 121.375 209.497C121.68 209.617 121.945 209.794 122.172 210.028C122.399 210.262 122.58 210.549 122.714 210.889C122.856 211.229 122.927 211.616 122.927 212.048C122.927 212.48 122.856 212.866 122.714 213.206C122.58 213.547 122.399 213.833 122.172 214.067C121.945 214.301 121.68 214.478 121.375 214.599C121.077 214.719 120.766 214.779 120.44 214.779ZM120.44 213.78C120.822 213.78 121.123 213.624 121.343 213.313C121.563 212.994 121.673 212.572 121.673 212.048C121.673 211.516 121.563 211.095 121.343 210.783C121.123 210.464 120.822 210.305 120.44 210.305C120.057 210.305 119.756 210.464 119.536 210.783C119.324 211.095 119.217 211.516 119.217 212.048C119.217 212.572 119.324 212.994 119.536 213.313C119.756 213.624 120.057 213.78 120.44 213.78ZM125.688 214.779C125.129 214.779 124.721 214.602 124.466 214.248C124.211 213.887 124.084 213.373 124.084 212.707V209.433H125.306V212.547C125.306 212.98 125.37 213.284 125.497 213.461C125.625 213.639 125.83 213.727 126.114 213.727C126.34 213.727 126.539 213.671 126.709 213.557C126.886 213.444 127.074 213.26 127.272 213.004V209.433H128.495V214.652H127.495L127.4 213.887H127.368C127.141 214.156 126.893 214.372 126.624 214.535C126.362 214.698 126.05 214.779 125.688 214.779ZM130.043 214.652V209.433H131.053L131.138 210.358H131.18C131.364 210.018 131.588 209.759 131.85 209.582C132.112 209.398 132.381 209.306 132.658 209.306C132.906 209.306 133.104 209.341 133.253 209.412L133.04 210.475C132.948 210.446 132.863 210.425 132.785 210.411C132.707 210.397 132.611 210.39 132.498 210.39C132.293 210.39 132.076 210.471 131.85 210.634C131.623 210.79 131.428 211.066 131.265 211.463V214.652H130.043ZM137.401 214.779C136.94 214.779 136.568 214.641 136.285 214.365C136.001 214.081 135.859 213.709 135.859 213.249C135.859 212.973 135.916 212.728 136.03 212.515C136.15 212.296 136.334 212.108 136.582 211.952C136.837 211.796 137.156 211.665 137.539 211.559C137.929 211.453 138.393 211.371 138.931 211.314C138.924 211.18 138.903 211.052 138.867 210.932C138.839 210.804 138.786 210.694 138.708 210.602C138.637 210.503 138.541 210.429 138.421 210.379C138.301 210.322 138.152 210.294 137.975 210.294C137.72 210.294 137.468 210.344 137.22 210.443C136.979 210.542 136.742 210.662 136.508 210.804L136.061 209.986C136.352 209.802 136.678 209.642 137.039 209.507C137.401 209.373 137.79 209.306 138.208 209.306C138.86 209.306 139.346 209.5 139.665 209.89C139.991 210.273 140.154 210.829 140.154 211.559V214.652H139.144L139.059 214.078H139.016C138.782 214.276 138.531 214.443 138.262 214.578C137.999 214.712 137.712 214.779 137.401 214.779ZM137.794 213.823C138.007 213.823 138.198 213.773 138.368 213.674C138.545 213.575 138.733 213.433 138.931 213.249V212.08C138.577 212.122 138.279 212.179 138.038 212.25C137.797 212.321 137.603 212.402 137.454 212.494C137.305 212.579 137.199 212.678 137.135 212.792C137.071 212.905 137.039 213.026 137.039 213.153C137.039 213.387 137.11 213.557 137.252 213.663C137.394 213.77 137.574 213.823 137.794 213.823ZM143.795 214.779C143.441 214.779 143.108 214.719 142.796 214.599C142.492 214.478 142.226 214.301 141.999 214.067C141.772 213.833 141.595 213.547 141.468 213.206C141.34 212.866 141.276 212.48 141.276 212.048C141.276 211.616 141.347 211.229 141.489 210.889C141.631 210.549 141.822 210.262 142.063 210.028C142.304 209.794 142.58 209.617 142.892 209.497C143.211 209.369 143.544 209.306 143.891 209.306C144.231 209.306 144.522 209.362 144.763 209.476C145.011 209.589 145.23 209.727 145.422 209.89L144.826 210.687C144.685 210.567 144.543 210.475 144.401 210.411C144.267 210.34 144.118 210.305 143.955 210.305C143.53 210.305 143.186 210.464 142.924 210.783C142.662 211.095 142.53 211.516 142.53 212.048C142.53 212.572 142.658 212.994 142.913 213.313C143.175 213.624 143.512 213.78 143.923 213.78C144.128 213.78 144.32 213.738 144.497 213.653C144.681 213.561 144.848 213.454 144.996 213.334L145.496 214.142C145.248 214.354 144.975 214.514 144.678 214.62C144.387 214.726 144.093 214.779 143.795 214.779ZM148.446 214.779C148.091 214.779 147.758 214.719 147.446 214.599C147.142 214.478 146.876 214.301 146.649 214.067C146.422 213.833 146.245 213.547 146.118 213.206C145.99 212.866 145.926 212.48 145.926 212.048C145.926 211.616 145.997 211.229 146.139 210.889C146.281 210.549 146.472 210.262 146.713 210.028C146.954 209.794 147.23 209.617 147.542 209.497C147.861 209.369 148.194 209.306 148.541 209.306C148.881 209.306 149.172 209.362 149.413 209.476C149.661 209.589 149.88 209.727 150.072 209.89L149.477 210.687C149.335 210.567 149.193 210.475 149.051 210.411C148.917 210.34 148.768 210.305 148.605 210.305C148.18 210.305 147.836 210.464 147.574 210.783C147.312 211.095 147.181 211.516 147.181 212.048C147.181 212.572 147.308 212.994 147.563 213.313C147.825 213.624 148.162 213.78 148.573 213.78C148.779 213.78 148.97 213.738 149.147 213.653C149.331 213.561 149.498 213.454 149.647 213.334L150.146 214.142C149.898 214.354 149.625 214.514 149.328 214.62C149.037 214.726 148.743 214.779 148.446 214.779ZM153.053 214.779C152.727 214.779 152.415 214.719 152.118 214.599C151.82 214.478 151.554 214.301 151.321 214.067C151.094 213.833 150.913 213.547 150.779 213.206C150.644 212.866 150.577 212.48 150.577 212.048C150.577 211.616 150.644 211.229 150.779 210.889C150.913 210.549 151.094 210.262 151.321 210.028C151.554 209.794 151.82 209.617 152.118 209.497C152.415 209.369 152.727 209.306 153.053 209.306C153.379 209.306 153.691 209.369 153.989 209.497C154.293 209.617 154.559 209.794 154.786 210.028C155.012 210.262 155.193 210.549 155.328 210.889C155.47 211.229 155.54 211.616 155.54 212.048C155.54 212.48 155.47 212.866 155.328 213.206C155.193 213.547 155.012 213.833 154.786 214.067C154.559 214.301 154.293 214.478 153.989 214.599C153.691 214.719 153.379 214.779 153.053 214.779ZM153.053 213.78C153.436 213.78 153.737 213.624 153.957 213.313C154.176 212.994 154.286 212.572 154.286 212.048C154.286 211.516 154.176 211.095 153.957 210.783C153.737 210.464 153.436 210.305 153.053 210.305C152.671 210.305 152.369 210.464 152.15 210.783C151.937 211.095 151.831 211.516 151.831 212.048C151.831 212.572 151.937 212.994 152.15 213.313C152.369 213.624 152.671 213.78 153.053 213.78ZM158.302 214.779C157.742 214.779 157.335 214.602 157.08 214.248C156.825 213.887 156.697 213.373 156.697 212.707V209.433H157.919V212.547C157.919 212.98 157.983 213.284 158.111 213.461C158.238 213.639 158.444 213.727 158.727 213.727C158.954 213.727 159.152 213.671 159.322 213.557C159.5 213.444 159.687 213.26 159.886 213.004V209.433H161.108V214.652H160.109L160.013 213.887H159.981C159.755 214.156 159.507 214.372 159.237 214.535C158.975 214.698 158.663 214.779 158.302 214.779ZM162.656 214.652V209.433H163.666L163.751 210.135H163.794C164.028 209.908 164.279 209.713 164.548 209.55C164.825 209.387 165.144 209.306 165.505 209.306C166.065 209.306 166.472 209.486 166.727 209.848C166.982 210.202 167.11 210.712 167.11 211.378V214.652H165.888V211.538C165.888 211.105 165.824 210.801 165.696 210.624C165.569 210.446 165.36 210.358 165.069 210.358C164.842 210.358 164.64 210.414 164.463 210.528C164.293 210.634 164.098 210.794 163.879 211.006V214.652H162.656ZM170.443 214.779C170.138 214.779 169.88 214.733 169.667 214.641C169.461 214.549 169.291 214.422 169.157 214.259C169.029 214.089 168.934 213.89 168.87 213.663C168.813 213.43 168.785 213.171 168.785 212.888V210.4H168.041V209.486L168.849 209.433L168.997 208.009H170.018V209.433H171.346V210.4H170.018V212.888C170.018 213.497 170.262 213.802 170.751 213.802C170.843 213.802 170.935 213.791 171.027 213.77C171.127 213.748 171.215 213.72 171.293 213.685L171.506 214.588C171.364 214.638 171.201 214.68 171.017 214.716C170.84 214.758 170.648 214.779 170.443 214.779Z" fill="#5E6873"/>
        <path fill-rule="evenodd" clip-rule="evenodd" d="M47.0537 204.514C47.3168 204.806 47.6914 204.973 48.0845 204.973C48.4775 204.973 48.8522 204.806 49.1152 204.514L49.7859 203.778C50.1797 203.342 50.8052 203.201 51.348 203.426C51.8907 203.651 52.2332 204.193 52.2033 204.78L52.153 205.772C52.1333 206.164 52.2801 206.545 52.557 206.823C52.834 207.1 53.2154 207.248 53.607 207.228L54.5994 207.178C55.1858 207.149 55.7269 207.492 55.9512 208.034C56.1755 208.577 56.0345 209.202 55.599 209.595L54.8603 210.262C54.5687 210.525 54.4022 210.9 54.4022 211.293C54.4022 211.686 54.5687 212.061 54.8603 212.324L55.599 212.99C56.0349 213.384 56.1758 214.01 55.9509 214.553C55.7261 215.095 55.184 215.438 54.5973 215.408L53.6048 215.358C53.2124 215.337 52.8299 215.484 52.552 215.762C52.2742 216.04 52.1271 216.423 52.1473 216.815L52.1976 217.808C52.2236 218.391 51.8816 218.929 51.342 219.152C50.8023 219.376 50.1803 219.238 49.7859 218.807L49.1188 218.069C48.8555 217.778 48.4809 217.611 48.088 217.611C47.6951 217.611 47.3206 217.778 47.0572 218.069L46.3873 218.807C45.9934 219.24 45.3704 219.38 44.8295 219.156C44.2886 218.932 43.9459 218.394 43.9727 217.809L44.0238 216.817C44.044 216.424 43.8969 216.042 43.6191 215.764C43.3412 215.486 42.9586 215.339 42.5662 215.359L41.5738 215.409C40.9873 215.44 40.445 215.098 40.2196 214.556C39.9943 214.014 40.1345 213.388 40.5699 212.994L41.3079 212.328C41.5996 212.064 41.766 211.69 41.766 211.297C41.766 210.903 41.5996 210.529 41.3079 210.265L40.5699 209.595C40.136 209.202 39.9959 208.578 40.2199 208.037C40.4438 207.495 40.9836 207.153 41.5688 207.181L42.5613 207.231C42.9544 207.252 43.3379 207.105 43.6161 206.826C43.8944 206.548 44.0413 206.164 44.0202 205.771L43.9727 204.778C43.9453 204.193 44.2877 203.653 44.8288 203.429C45.3699 203.205 45.9933 203.345 46.3873 203.778L47.0537 204.514Z" stroke="#5E6873" stroke-width="0.996469" stroke-linecap="round" stroke-linejoin="round"/>
        <circle cx="48.0847" cy="211.292" r="3.19014" stroke="#5E6873" stroke-width="0.996469" stroke-linecap="round" stroke-linejoin="round"/>
        <path d="M25.8766 4.53098C24.8925 4.53098 24.0351 4.3215 23.3044 3.90254C22.5736 3.47384 22.0134 2.86489 21.6237 2.07568C21.2339 1.27673 21.0391 0.336511 21.0391 -0.74499C21.0391 -1.81675 21.2339 -2.74723 21.6237 -3.53643C22.0134 -4.33538 22.5736 -4.94433 23.3044 -5.36329C24.0351 -5.792 24.8925 -6.00635 25.8766 -6.00635C26.5196 -6.00635 27.1286 -5.90404 27.7035 -5.69943C28.2783 -5.50457 28.7801 -5.21714 29.2088 -4.83716C29.3939 -4.69101 29.4865 -4.49614 29.4865 -4.25256C29.4865 -4.07718 29.4378 -3.92616 29.3403 -3.7995C29.2429 -3.68258 29.126 -3.62412 28.9896 -3.62412C28.8239 -3.62412 28.6632 -3.68745 28.5073 -3.81412C28.0396 -4.16487 27.6109 -4.40845 27.2212 -4.54486C26.8412 -4.69101 26.4076 -4.76408 25.9204 -4.76408C24.8487 -4.76408 24.0254 -4.4182 23.4505 -3.72643C22.8757 -3.03465 22.5882 -2.04084 22.5882 -0.74499C22.5882 0.560606 22.8757 1.55929 23.4505 2.25106C24.0254 2.94283 24.8487 3.28872 25.9204 3.28872C26.3881 3.28872 26.8119 3.21564 27.1919 3.06949C27.5817 2.92334 28.0201 2.67976 28.5073 2.33875C28.7021 2.21209 28.8629 2.14876 28.9896 2.14876C29.126 2.14876 29.2429 2.21209 29.3403 2.33875C29.4378 2.45567 29.4865 2.60182 29.4865 2.7772C29.4865 3.02078 29.3939 3.21564 29.2088 3.36179C28.7801 3.74178 28.2783 4.03408 27.7035 4.23868C27.1286 4.43355 26.5196 4.53098 25.8766 4.53098ZM34.0608 4.51637C33.3593 4.51637 32.7406 4.36535 32.2047 4.06331C31.6786 3.76126 31.2694 3.33256 30.9771 2.7772C30.6945 2.21209 30.5532 1.55929 30.5532 0.818802C30.5532 0.0685715 30.6945 -0.584227 30.9771 -1.13959C31.2694 -1.7047 31.6786 -2.13828 32.2047 -2.44032C32.7406 -2.74236 33.3593 -2.89338 34.0608 -2.89338C34.7623 -2.89338 35.3762 -2.74236 35.9023 -2.44032C36.4382 -2.13828 36.8474 -1.7047 37.1299 -1.13959C37.4222 -0.584227 37.5684 0.0685715 37.5684 0.818802C37.5684 1.55929 37.4222 2.21209 37.1299 2.7772C36.8474 3.33256 36.4382 3.76126 35.9023 4.06331C35.3762 4.36535 34.7623 4.51637 34.0608 4.51637ZM34.0608 3.34718C34.7136 3.34718 35.2105 3.13282 35.5515 2.70412C35.9023 2.27542 36.0777 1.64698 36.0777 0.818802C36.0777 0.000368697 35.9023 -0.6232 35.5515 -1.0519C35.2008 -1.49035 34.7039 -1.70957 34.0608 -1.70957C33.4178 -1.70957 32.9209 -1.49035 32.5701 -1.0519C32.2193 -0.6232 32.044 0.000368697 32.044 0.818802C32.044 1.64698 32.2145 2.27542 32.5555 2.70412C32.9062 3.13282 33.408 3.34718 34.0608 3.34718ZM43.0556 -2.89338C44.7607 -2.89338 45.6132 -1.93367 45.6132 -0.0142461V3.78562C45.6132 4.00972 45.545 4.1851 45.4086 4.31176C45.2819 4.42868 45.1017 4.48714 44.8678 4.48714C44.6437 4.48714 44.4635 4.42381 44.3271 4.29714C44.2004 4.17048 44.1371 3.99997 44.1371 3.78562V0.0588283C44.1371 -0.545253 44.0153 -0.988572 43.7717 -1.27113C43.5379 -1.55368 43.1676 -1.69496 42.661 -1.69496C42.0666 -1.69496 41.5892 -1.50984 41.2287 -1.13959C40.8682 -0.769348 40.688 -0.272442 40.688 0.351126V3.78562C40.688 3.99997 40.6198 4.17048 40.4834 4.29714C40.3567 4.42381 40.1813 4.48714 39.9572 4.48714C39.7331 4.48714 39.5529 4.42381 39.4165 4.29714C39.2801 4.17048 39.2119 3.99997 39.2119 3.78562V-2.16263C39.2119 -2.36724 39.2801 -2.53288 39.4165 -2.65954C39.5626 -2.79595 39.7429 -2.86415 39.9572 -2.86415C40.1716 -2.86415 40.3421 -2.80082 40.4688 -2.67415C40.5954 -2.54749 40.6587 -2.38186 40.6587 -2.17725V-1.57804C40.8926 -2.00674 41.219 -2.33314 41.6379 -2.55724C42.0569 -2.78133 42.5295 -2.89338 43.0556 -2.89338ZM51.1255 3.36179C51.3399 3.38128 51.4909 3.43974 51.5786 3.53717C51.676 3.62486 51.7247 3.75152 51.7247 3.91716C51.7247 4.11202 51.6468 4.26304 51.4909 4.37022C51.3447 4.46765 51.1255 4.50662 50.8332 4.48714L50.4386 4.45791C49.6494 4.39945 49.0599 4.16074 48.6702 3.74178C48.2805 3.31307 48.0856 2.68463 48.0856 1.85646V-1.57804H47.2087C46.78 -1.57804 46.5657 -1.76803 46.5657 -2.14802C46.5657 -2.3234 46.6193 -2.4598 46.7264 -2.55724C46.8434 -2.66441 47.0041 -2.718 47.2087 -2.718H48.0856V-4.22333C48.0856 -4.44743 48.1489 -4.62281 48.2756 -4.74947C48.412 -4.87613 48.5923 -4.93946 48.8164 -4.93946C49.0405 -4.93946 49.2207 -4.87613 49.3571 -4.74947C49.4935 -4.62281 49.5617 -4.44743 49.5617 -4.22333V-2.718H51.0086C51.2132 -2.718 51.3691 -2.66441 51.4763 -2.55724C51.5932 -2.4598 51.6516 -2.3234 51.6516 -2.14802C51.6516 -1.9629 51.5932 -1.82162 51.4763 -1.72419C51.3691 -1.62675 51.2132 -1.57804 51.0086 -1.57804H49.5617V1.95876C49.5617 2.4167 49.6543 2.75284 49.8394 2.96719C50.0343 3.18154 50.3266 3.30333 50.7163 3.33256L51.1255 3.36179ZM55.7809 -2.89338C56.726 -2.89338 57.4275 -2.65467 57.8855 -2.17725C58.3531 -1.69983 58.587 -0.973957 58.587 0.000368625V3.78562C58.587 4.00972 58.5236 4.1851 58.397 4.31176C58.2703 4.42868 58.0949 4.48714 57.8708 4.48714C57.6565 4.48714 57.486 4.42381 57.3593 4.29714C57.2327 4.17048 57.1693 3.99997 57.1693 3.78562V3.24487C56.9842 3.65409 56.7065 3.97074 56.3363 4.19484C55.9758 4.40919 55.552 4.51637 55.0648 4.51637C54.5971 4.51637 54.1684 4.42381 53.7787 4.23868C53.3987 4.04382 53.0967 3.78075 52.8726 3.44948C52.6485 3.11821 52.5364 2.74309 52.5364 2.32413C52.5267 1.798 52.6582 1.38878 52.931 1.09648C53.2038 0.794444 53.6471 0.580092 54.261 0.45343C54.8748 0.317024 55.7273 0.248821 56.8186 0.248821H57.1547V-0.17501C57.1547 -0.720632 57.0427 -1.11523 56.8186 -1.35882C56.5945 -1.6024 56.234 -1.72419 55.7371 -1.72419C55.3961 -1.72419 55.0745 -1.68034 54.7725 -1.59265C54.4705 -1.50496 54.1392 -1.3783 53.7787 -1.21267C53.5156 -1.06652 53.3305 -0.993443 53.2233 -0.993443C53.0772 -0.993443 52.9554 -1.04703 52.8579 -1.15421C52.7703 -1.26138 52.7264 -1.39779 52.7264 -1.56342C52.7264 -1.70957 52.7654 -1.83623 52.8433 -1.94341C52.931 -2.06033 53.0674 -2.17238 53.2525 -2.27955C53.5936 -2.46467 53.993 -2.61082 54.451 -2.718C54.9089 -2.83492 55.3522 -2.89338 55.7809 -2.89338ZM55.3279 3.42025C55.8637 3.42025 56.3022 3.24 56.6432 2.8795C56.9842 2.50926 57.1547 2.03671 57.1547 1.46186V1.08187H56.8917C56.1317 1.08187 55.5471 1.11597 55.1379 1.18417C54.7287 1.25238 54.4364 1.3693 54.261 1.53493C54.0856 1.69082 53.9979 1.91979 53.9979 2.22183C53.9979 2.57259 54.1246 2.86001 54.3779 3.08411C54.6312 3.3082 54.9479 3.42025 55.3279 3.42025ZM63.6606 4.51637C62.9689 4.51637 62.3599 4.36535 61.8338 4.06331C61.3174 3.76126 60.913 3.33256 60.6207 2.7772C60.3382 2.22183 60.1969 1.57878 60.1969 0.848032C60.1969 0.107544 60.3431 -0.545254 60.6353 -1.11036C60.9374 -1.67547 61.3563 -2.11392 61.8922 -2.4257C62.4281 -2.73749 63.0419 -2.89338 63.7337 -2.89338C64.1039 -2.89338 64.4742 -2.83979 64.8444 -2.73261C65.2244 -2.62544 65.5606 -2.47929 65.8529 -2.29417C66.1646 -2.07982 66.3205 -1.83136 66.3205 -1.54881C66.3205 -1.38317 66.2767 -1.2419 66.189 -1.12498C66.1013 -1.0178 65.9893 -0.964214 65.8529 -0.964214C65.7652 -0.964214 65.6775 -0.9837 65.5898 -1.02267C65.5021 -1.07139 65.3901 -1.13959 65.2536 -1.22728C65.0101 -1.38317 64.7811 -1.50009 64.5668 -1.57804C64.3621 -1.66573 64.1137 -1.70957 63.8214 -1.70957C63.1589 -1.70957 62.6425 -1.48548 62.2722 -1.03729C61.9117 -0.589098 61.7315 0.03447 61.7315 0.833417C61.7315 1.63236 61.9117 2.25106 62.2722 2.68951C62.6327 3.11821 63.1442 3.33256 63.8068 3.33256C64.0991 3.33256 64.3573 3.28872 64.5814 3.20103C64.8055 3.11334 65.0344 2.99642 65.2683 2.85027C65.3754 2.78207 65.4826 2.72361 65.5898 2.67489C65.697 2.62618 65.7944 2.60182 65.8821 2.60182C66.0185 2.60182 66.1305 2.66028 66.2182 2.7772C66.3059 2.88437 66.3498 3.02078 66.3498 3.18641C66.3498 3.32282 66.3108 3.44948 66.2328 3.5664C66.1646 3.67358 66.0429 3.78562 65.8675 3.90254C65.5752 4.09741 65.2342 4.24843 64.8444 4.3556C64.4547 4.46278 64.0601 4.51637 63.6606 4.51637ZM71.1924 3.36179C71.4068 3.38128 71.5578 3.43974 71.6455 3.53717C71.7429 3.62486 71.7916 3.75152 71.7916 3.91716C71.7916 4.11202 71.7137 4.26304 71.5578 4.37022C71.4117 4.46765 71.1924 4.50662 70.9001 4.48714L70.5055 4.45791C69.7163 4.39945 69.1269 4.16074 68.7371 3.74178C68.3474 3.31307 68.1525 2.68463 68.1525 1.85646V-1.57804H67.2756C66.8469 -1.57804 66.6326 -1.76803 66.6326 -2.14802C66.6326 -2.3234 66.6862 -2.4598 66.7933 -2.55724C66.9103 -2.66441 67.071 -2.718 67.2756 -2.718H68.1525V-4.22333C68.1525 -4.44743 68.2159 -4.62281 68.3425 -4.74947C68.4789 -4.87613 68.6592 -4.93946 68.8833 -4.93946C69.1074 -4.93946 69.2876 -4.87613 69.424 -4.74947C69.5604 -4.62281 69.6286 -4.44743 69.6286 -4.22333V-2.718H71.0755C71.2801 -2.718 71.436 -2.66441 71.5432 -2.55724C71.6601 -2.4598 71.7186 -2.3234 71.7186 -2.14802C71.7186 -1.9629 71.6601 -1.82162 71.5432 -1.72419C71.436 -1.62675 71.2801 -1.57804 71.0755 -1.57804H69.6286V1.95876C69.6286 2.4167 69.7212 2.75284 69.9063 2.96719C70.1012 3.18154 70.3935 3.30333 70.7832 3.33256L71.1924 3.36179ZM82.5367 -5.9625C82.7608 -5.9625 82.941 -5.89917 83.0774 -5.77251C83.2138 -5.64585 83.282 -5.47534 83.282 -5.26099V3.77101C83.282 3.9951 83.2138 4.17048 83.0774 4.29714C82.9507 4.42381 82.7754 4.48714 82.5513 4.48714C82.3272 4.48714 82.1469 4.42381 82.0105 4.29714C81.8839 4.17048 81.8205 3.9951 81.8205 3.77101V3.18641C81.6062 3.61512 81.2944 3.94639 80.8852 4.18022C80.476 4.40432 80.0034 4.51637 79.4675 4.51637C78.8537 4.51637 78.3032 4.36047 77.8161 4.04869C77.3386 3.73691 76.9635 3.29846 76.6907 2.73335C76.4276 2.16824 76.2961 1.52032 76.2961 0.789572C76.2961 0.0490851 76.4276 -0.598841 76.6907 -1.15421C76.9635 -1.70957 77.3386 -2.13828 77.8161 -2.44032C78.2935 -2.74236 78.844 -2.89338 79.4675 -2.89338C80.0034 -2.89338 80.4711 -2.77646 80.8706 -2.54262C81.2798 -2.31853 81.5916 -1.997 81.8059 -1.57804V-5.29022C81.8059 -5.49483 81.8692 -5.65559 81.9959 -5.77251C82.1323 -5.89917 82.3126 -5.9625 82.5367 -5.9625ZM79.8183 3.34718C80.4516 3.34718 80.9436 3.12795 81.2944 2.68951C81.6451 2.25106 81.8205 1.62749 81.8205 0.818802C81.8205 0.0101118 81.6451 -0.613456 81.2944 -1.0519C80.9534 -1.49035 80.4613 -1.70957 79.8183 -1.70957C79.1752 -1.70957 78.6735 -1.49035 78.313 -1.0519C77.9622 -0.6232 77.7868 -0.00937458 77.7868 0.789572C77.7868 1.58852 77.9671 2.21696 78.3276 2.67489C78.6881 3.12308 79.185 3.34718 79.8183 3.34718ZM90.923 2.61643C91.0594 2.61643 91.1714 2.67002 91.2591 2.7772C91.3468 2.88437 91.3906 3.02078 91.3906 3.18641C91.3906 3.46897 91.2153 3.70768 90.8645 3.90254C90.5235 4.09741 90.1484 4.24843 89.7392 4.3556C89.3397 4.46278 88.9548 4.51637 88.5846 4.51637C87.4544 4.51637 86.5629 4.18997 85.9101 3.53717C85.2573 2.87463 84.9309 1.97338 84.9309 0.833417C84.9309 0.102673 85.0721 -0.545254 85.3547 -1.11036C85.647 -1.67547 86.0513 -2.11392 86.5677 -2.4257C87.0939 -2.73749 87.6882 -2.89338 88.3508 -2.89338C89.3056 -2.89338 90.0607 -2.58646 90.6161 -1.97264C91.1714 -1.35882 91.4491 -0.530639 91.4491 0.511889C91.4491 0.90162 91.2737 1.09648 90.923 1.09648H86.407C86.5044 2.60669 87.2303 3.36179 88.5846 3.36179C88.9451 3.36179 89.2569 3.31307 89.5199 3.21564C89.783 3.11821 90.0607 2.99155 90.353 2.83566C90.3822 2.81617 90.4602 2.7772 90.5868 2.71874C90.7232 2.65053 90.8353 2.61643 90.923 2.61643ZM88.38 -1.81188C87.8149 -1.81188 87.3618 -1.63163 87.0208 -1.27113C86.6798 -0.910626 86.4752 -0.403977 86.407 0.248821H90.1776C90.1484 -0.41372 89.9779 -0.920369 89.6661 -1.27113C89.3641 -1.63163 88.9353 -1.81188 88.38 -1.81188ZM96.4973 3.36179C96.7116 3.38128 96.8627 3.43974 96.9504 3.53717C97.0478 3.62486 97.0965 3.75152 97.0965 3.91716C97.0965 4.11202 97.0186 4.26304 96.8627 4.37022C96.7165 4.46765 96.4973 4.50662 96.205 4.48714L95.8104 4.45791C95.0212 4.39945 94.4317 4.16074 94.042 3.74178C93.6523 3.31307 93.4574 2.68463 93.4574 1.85646V-1.57804H92.5805C92.1518 -1.57804 91.9374 -1.76803 91.9374 -2.14802C91.9374 -2.3234 91.991 -2.4598 92.0982 -2.55724C92.2151 -2.66441 92.3759 -2.718 92.5805 -2.718H93.4574V-4.22333C93.4574 -4.44743 93.5207 -4.62281 93.6474 -4.74947C93.7838 -4.87613 93.964 -4.93946 94.1881 -4.93946C94.4122 -4.93946 94.5925 -4.87613 94.7289 -4.74947C94.8653 -4.62281 94.9335 -4.44743 94.9335 -4.22333V-2.718H96.3804C96.585 -2.718 96.7409 -2.66441 96.848 -2.55724C96.965 -2.4598 97.0234 -2.3234 97.0234 -2.14802C97.0234 -1.9629 96.965 -1.82162 96.848 -1.72419C96.7409 -1.62675 96.585 -1.57804 96.3804 -1.57804H94.9335V1.95876C94.9335 2.4167 95.0261 2.75284 95.2112 2.96719C95.406 3.18154 95.6983 3.30333 96.0881 3.33256L96.4973 3.36179ZM101.153 -2.89338C102.098 -2.89338 102.799 -2.65467 103.257 -2.17725C103.725 -1.69983 103.959 -0.973957 103.959 0.000368625V3.78562C103.959 4.00972 103.895 4.1851 103.769 4.31176C103.642 4.42868 103.467 4.48714 103.243 4.48714C103.028 4.48714 102.858 4.42381 102.731 4.29714C102.604 4.17048 102.541 3.99997 102.541 3.78562V3.24487C102.356 3.65409 102.078 3.97074 101.708 4.19484C101.348 4.40919 100.924 4.51637 100.437 4.51637C99.9689 4.51637 99.5402 4.42381 99.1505 4.23868C98.7705 4.04382 98.4684 3.78075 98.2443 3.44948C98.0202 3.11821 97.9082 2.74309 97.9082 2.32413C97.8985 1.798 98.03 1.38878 98.3028 1.09648C98.5756 0.794444 99.0189 0.580092 99.6328 0.45343C100.247 0.317024 101.099 0.248821 102.19 0.248821H102.527V-0.17501C102.527 -0.720632 102.414 -1.11523 102.19 -1.35882C101.966 -1.6024 101.606 -1.72419 101.109 -1.72419C100.768 -1.72419 100.446 -1.68034 100.144 -1.59265C99.8422 -1.50496 99.511 -1.3783 99.1505 -1.21267C98.8874 -1.06652 98.7023 -0.993443 98.5951 -0.993443C98.449 -0.993443 98.3272 -1.04703 98.2297 -1.15421C98.142 -1.26138 98.0982 -1.39779 98.0982 -1.56342C98.0982 -1.70957 98.1372 -1.83623 98.2151 -1.94341C98.3028 -2.06033 98.4392 -2.17238 98.6243 -2.27955C98.9653 -2.46467 99.3648 -2.61082 99.8228 -2.718C100.281 -2.83492 100.724 -2.89338 101.153 -2.89338ZM100.7 3.42025C101.236 3.42025 101.674 3.24 102.015 2.8795C102.356 2.50926 102.527 2.03671 102.527 1.46186V1.08187H102.263C101.503 1.08187 100.919 1.11597 100.51 1.18417C100.1 1.25238 99.8081 1.3693 99.6328 1.53493C99.4574 1.69082 99.3697 1.91979 99.3697 2.22183C99.3697 2.57259 99.4964 2.86001 99.7497 3.08411C100.003 3.3082 100.32 3.42025 100.7 3.42025ZM106.723 4.48714C106.509 4.48714 106.329 4.42868 106.183 4.31176C106.046 4.19484 105.978 4.01946 105.978 3.78562V-2.14802C105.978 -2.38186 106.046 -2.55724 106.183 -2.67415C106.329 -2.80082 106.509 -2.86415 106.723 -2.86415C106.938 -2.86415 107.113 -2.80082 107.249 -2.67415C107.386 -2.55724 107.454 -2.38186 107.454 -2.14802V3.78562C107.454 4.01946 107.386 4.19484 107.249 4.31176C107.113 4.42868 106.938 4.48714 106.723 4.48714ZM106.723 -4.29641C106.441 -4.29641 106.217 -4.37435 106.051 -4.53024C105.885 -4.68614 105.803 -4.89074 105.803 -5.14407C105.803 -5.39739 105.885 -5.59713 106.051 -5.74328C106.217 -5.89917 106.441 -5.97712 106.723 -5.97712C106.996 -5.97712 107.215 -5.89917 107.381 -5.74328C107.556 -5.59713 107.644 -5.39739 107.644 -5.14407C107.644 -4.89074 107.561 -4.68614 107.396 -4.53024C107.23 -4.37435 107.006 -4.29641 106.723 -4.29641ZM110.263 4.48714C110.048 4.48714 109.868 4.42868 109.722 4.31176C109.586 4.19484 109.517 4.01946 109.517 3.78562V-5.24637C109.517 -5.48021 109.586 -5.65559 109.722 -5.77251C109.868 -5.89917 110.048 -5.9625 110.263 -5.9625C110.477 -5.9625 110.653 -5.89917 110.789 -5.77251C110.925 -5.65559 110.994 -5.48021 110.994 -5.24637V3.78562C110.994 4.01946 110.925 4.19484 110.789 4.31176C110.653 4.42868 110.477 4.48714 110.263 4.48714ZM115.542 4.51637C114.548 4.51637 113.734 4.31176 113.101 3.90254C112.925 3.79537 112.799 3.68332 112.721 3.5664C112.653 3.44948 112.619 3.31795 112.619 3.1718C112.619 3.01591 112.662 2.88437 112.75 2.7772C112.838 2.67002 112.95 2.61643 113.086 2.61643C113.213 2.61643 113.413 2.69438 113.685 2.85027C113.978 3.00616 114.26 3.13282 114.533 3.23026C114.816 3.32769 115.166 3.37641 115.585 3.37641C116.053 3.37641 116.418 3.29359 116.681 3.12795C116.945 2.96232 117.076 2.72848 117.076 2.42644C117.076 2.23157 117.022 2.07568 116.915 1.95876C116.818 1.84184 116.642 1.73954 116.389 1.65185C116.136 1.55442 115.761 1.45211 115.264 1.34494C114.406 1.15982 113.788 0.911363 113.408 0.599579C113.037 0.278052 112.852 -0.155523 112.852 -0.701146C112.852 -1.12011 112.974 -1.49522 113.218 -1.82649C113.461 -2.16751 113.797 -2.43057 114.226 -2.6157C114.655 -2.80082 115.142 -2.89338 115.688 -2.89338C116.077 -2.89338 116.457 -2.83979 116.828 -2.73261C117.198 -2.63518 117.524 -2.48903 117.807 -2.29417C118.128 -2.07982 118.289 -1.83136 118.289 -1.54881C118.289 -1.39292 118.24 -1.26138 118.143 -1.15421C118.055 -1.04703 117.948 -0.993443 117.821 -0.993443C117.734 -0.993443 117.646 -1.01293 117.558 -1.0519C117.471 -1.09088 117.354 -1.15421 117.208 -1.2419C116.945 -1.39779 116.696 -1.51958 116.462 -1.60727C116.238 -1.69496 115.956 -1.7388 115.615 -1.7388C115.205 -1.7388 114.874 -1.65111 114.621 -1.47573C114.377 -1.30036 114.255 -1.06165 114.255 -0.759605C114.255 -0.486794 114.367 -0.272442 114.592 -0.11655C114.825 0.0295984 115.259 0.170876 115.892 0.307281C116.545 0.443687 117.057 0.599579 117.427 0.774957C117.797 0.950336 118.06 1.16956 118.216 1.43263C118.382 1.68595 118.464 2.01235 118.464 2.41182C118.464 3.04514 118.197 3.55666 117.661 3.94639C117.135 4.32637 116.428 4.51637 115.542 4.51637Z" fill="#050E1D"/>
        <path d="M25.8181 103.515C24.8438 103.515 23.9961 103.301 23.2751 102.872C22.5639 102.444 22.0134 101.835 21.6237 101.045C21.2339 100.256 21.0391 99.3258 21.0391 98.254C21.0391 97.1725 21.2291 96.2371 21.609 95.4479C21.9988 94.649 22.5541 94.04 23.2751 93.6211C23.9961 93.1924 24.8438 92.978 25.8181 92.978C26.8022 92.978 27.6547 93.1924 28.3757 93.6211C29.0967 94.04 29.6472 94.649 30.0272 95.4479C30.417 96.2371 30.6118 97.1676 30.6118 98.2394C30.6118 99.3111 30.417 100.246 30.0272 101.045C29.6472 101.835 29.0967 102.444 28.3757 102.872C27.6547 103.301 26.8022 103.515 25.8181 103.515ZM25.8181 102.288C26.8509 102.288 27.6547 101.937 28.2296 101.235C28.8044 100.534 29.0919 99.5352 29.0919 98.2394C29.0919 96.9435 28.8044 95.9497 28.2296 95.2579C27.6645 94.5564 26.8607 94.2057 25.8181 94.2057C24.7951 94.2057 23.9961 94.5564 23.4213 95.2579C22.8562 95.9497 22.5736 96.9435 22.5736 98.2394C22.5736 99.5352 22.8562 100.534 23.4213 101.235C23.9961 101.937 24.7951 102.288 25.8181 102.288ZM36.231 96.1202C36.6987 96.091 36.9325 96.2907 36.9325 96.7194C36.9325 96.9338 36.8789 97.0946 36.7718 97.2017C36.6646 97.3089 36.4795 97.3722 36.2164 97.3917L35.7779 97.4356C35.1641 97.494 34.7062 97.7084 34.4041 98.0786C34.1119 98.4489 33.9657 98.8971 33.9657 99.4232V102.77C33.9657 103.004 33.8975 103.179 33.7611 103.296C33.6247 103.413 33.4493 103.472 33.235 103.472C33.0206 103.472 32.8404 103.413 32.6942 103.296C32.5578 103.179 32.4896 103.004 32.4896 102.77V96.8217C32.4896 96.5976 32.5578 96.4271 32.6942 96.3102C32.8404 96.1836 33.0206 96.1202 33.235 96.1202C33.4298 96.1202 33.5906 96.1836 33.7172 96.3102C33.8537 96.4271 33.9219 96.5928 33.9219 96.8071V97.5086C34.1167 97.0799 34.3993 96.7535 34.7695 96.5294C35.1398 96.3053 35.5587 96.1738 36.0264 96.1348L36.231 96.1202ZM43.6034 96.1202C43.8275 96.1202 44.0029 96.1884 44.1296 96.3248C44.266 96.4515 44.3342 96.622 44.3342 96.8364V102.828C44.3342 103.92 44.0419 104.743 43.4573 105.298C42.8824 105.854 42.0299 106.131 40.8997 106.131C39.8474 106.131 38.9705 105.932 38.269 105.532C37.9085 105.328 37.7282 105.084 37.7282 104.801C37.7282 104.636 37.7721 104.499 37.8598 104.392C37.9572 104.285 38.0741 104.231 38.2105 104.231C38.3372 104.231 38.5369 104.305 38.8097 104.451C39.1605 104.616 39.4869 104.743 39.7889 104.831C40.091 104.928 40.4515 104.977 40.8704 104.977C42.215 104.977 42.8873 104.3 42.8873 102.945V101.82C42.6827 102.249 42.3709 102.585 41.9519 102.828C41.533 103.062 41.0458 103.179 40.4904 103.179C39.8669 103.179 39.3115 103.033 38.8243 102.741C38.3372 102.448 37.9572 102.034 37.6844 101.499C37.4213 100.963 37.2898 100.344 37.2898 99.6424C37.2898 98.9409 37.4262 98.3222 37.699 97.7863C37.9718 97.2504 38.3469 96.8364 38.8243 96.5441C39.3115 96.242 39.8669 96.091 40.4904 96.091C41.0361 96.091 41.5135 96.2079 41.9227 96.4418C42.3417 96.6756 42.6583 97.0069 42.8727 97.4356V96.8217C42.8727 96.6074 42.936 96.4369 43.0627 96.3102C43.1991 96.1836 43.3793 96.1202 43.6034 96.1202ZM40.8412 102.01C41.4745 102.01 41.9714 101.801 42.3319 101.382C42.6924 100.963 42.8727 100.383 42.8727 99.6424C42.8727 98.9117 42.6924 98.3368 42.3319 97.9179C41.9812 97.4892 41.4843 97.2748 40.8412 97.2748C40.1981 97.2748 39.6915 97.4843 39.3213 97.9032C38.9608 98.3222 38.7805 98.9019 38.7805 99.6424C38.7805 100.383 38.9656 100.963 39.3359 101.382C39.7061 101.801 40.2079 102.01 40.8412 102.01ZM49.3869 96.091C50.332 96.091 51.0335 96.3297 51.4915 96.8071C51.9591 97.2845 52.193 98.0104 52.193 98.9847V102.77C52.193 102.994 52.1296 103.169 52.003 103.296C51.8763 103.413 51.7009 103.472 51.4768 103.472C51.2625 103.472 51.092 103.408 50.9653 103.282C50.8387 103.155 50.7753 102.984 50.7753 102.77V102.229C50.5902 102.638 50.3125 102.955 49.9423 103.179C49.5818 103.394 49.1579 103.501 48.6708 103.501C48.2031 103.501 47.7744 103.408 47.3847 103.223C47.0047 103.028 46.7026 102.765 46.4786 102.434C46.2545 102.103 46.1424 101.727 46.1424 101.309C46.1327 100.782 46.2642 100.373 46.537 100.081C46.8098 99.7788 47.2531 99.5645 47.867 99.4378C48.4808 99.3014 49.3333 99.2332 50.4246 99.2332H50.7607V98.8094C50.7607 98.2637 50.6487 97.8691 50.4246 97.6256C50.2005 97.382 49.84 97.2602 49.3431 97.2602C49.0021 97.2602 48.6805 97.304 48.3785 97.3917C48.0764 97.4794 47.7452 97.6061 47.3847 97.7717C47.1216 97.9179 46.9365 97.9909 46.8293 97.9909C46.6832 97.9909 46.5614 97.9373 46.4639 97.8302C46.3762 97.723 46.3324 97.5866 46.3324 97.421C46.3324 97.2748 46.3714 97.1481 46.4493 97.041C46.537 96.924 46.6734 96.812 46.8585 96.7048C47.1996 96.5197 47.599 96.3736 48.057 96.2664C48.5149 96.1495 48.9582 96.091 49.3869 96.091ZM48.9339 102.405C49.4697 102.405 49.9082 102.224 50.2492 101.864C50.5902 101.494 50.7607 101.021 50.7607 100.446V100.066H50.4976C49.7377 100.066 49.1531 100.1 48.7439 100.169C48.3346 100.237 48.0423 100.354 47.867 100.519C47.6916 100.675 47.6039 100.904 47.6039 101.206C47.6039 101.557 47.7306 101.844 47.9839 102.068C48.2372 102.293 48.5539 102.405 48.9339 102.405ZM58.0558 96.091C59.7609 96.091 60.6134 97.0507 60.6134 98.9701V102.77C60.6134 102.994 60.5452 103.169 60.4088 103.296C60.2822 103.413 60.1019 103.472 59.8681 103.472C59.644 103.472 59.4637 103.408 59.3273 103.282C59.2007 103.155 59.1373 102.984 59.1373 102.77V99.0432C59.1373 98.4391 59.0155 97.9958 58.7719 97.7132C58.5381 97.4307 58.1679 97.2894 57.6612 97.2894C57.0669 97.2894 56.5895 97.4745 56.229 97.8448C55.8685 98.215 55.6882 98.7119 55.6882 99.3355V102.77C55.6882 102.984 55.62 103.155 55.4836 103.282C55.3569 103.408 55.1816 103.472 54.9575 103.472C54.7334 103.472 54.5531 103.408 54.4167 103.282C54.2803 103.155 54.2121 102.984 54.2121 102.77V96.8217C54.2121 96.6171 54.2803 96.4515 54.4167 96.3248C54.5629 96.1884 54.7431 96.1202 54.9575 96.1202C55.1718 96.1202 55.3423 96.1836 55.469 96.3102C55.5956 96.4369 55.659 96.6025 55.659 96.8071V97.4063C55.8928 96.9776 56.2192 96.6512 56.6382 96.4271C57.0571 96.203 57.5297 96.091 58.0558 96.091ZM63.3781 103.472C63.1638 103.472 62.9835 103.413 62.8374 103.296C62.701 103.179 62.6328 103.004 62.6328 102.77V96.8364C62.6328 96.6025 62.701 96.4271 62.8374 96.3102C62.9835 96.1836 63.1638 96.1202 63.3781 96.1202C63.5925 96.1202 63.7679 96.1836 63.9043 96.3102C64.0407 96.4271 64.1089 96.6025 64.1089 96.8364V102.77C64.1089 103.004 64.0407 103.179 63.9043 103.296C63.7679 103.413 63.5925 103.472 63.3781 103.472ZM63.3781 94.688C63.0956 94.688 62.8715 94.61 62.7059 94.4541C62.5402 94.2982 62.4574 94.0936 62.4574 93.8403C62.4574 93.587 62.5402 93.3872 62.7059 93.2411C62.8715 93.0852 63.0956 93.0073 63.3781 93.0073C63.651 93.0073 63.8702 93.0852 64.0358 93.2411C64.2112 93.3872 64.2989 93.587 64.2989 93.8403C64.2989 94.0936 64.2161 94.2982 64.0504 94.4541C63.8848 94.61 63.6607 94.688 63.3781 94.688ZM68.6569 103.501C67.663 103.501 66.8495 103.296 66.2162 102.887C66.0408 102.78 65.9141 102.668 65.8362 102.551C65.768 102.434 65.7339 102.302 65.7339 102.156C65.7339 102 65.7777 101.869 65.8654 101.762C65.9531 101.654 66.0652 101.601 66.2016 101.601C66.3282 101.601 66.528 101.679 66.8008 101.835C67.0931 101.991 67.3756 102.117 67.6484 102.215C67.931 102.312 68.2817 102.361 68.7007 102.361C69.1684 102.361 69.5338 102.278 69.7968 102.112C70.0599 101.947 70.1914 101.713 70.1914 101.411C70.1914 101.216 70.1378 101.06 70.0307 100.943C69.9332 100.826 69.7578 100.724 69.5045 100.636C69.2512 100.539 68.8761 100.436 68.3792 100.329C67.5218 100.144 66.9031 99.8957 66.5231 99.584C66.1528 99.2624 65.9677 98.8289 65.9677 98.2832C65.9677 97.8643 66.0895 97.4892 66.3331 97.1579C66.5767 96.8169 66.9128 96.5538 67.3415 96.3687C67.7702 96.1836 68.2574 96.091 68.803 96.091C69.1927 96.091 69.5727 96.1446 69.943 96.2518C70.3132 96.3492 70.6396 96.4953 70.9222 96.6902C71.2437 96.9046 71.4045 97.153 71.4045 97.4356C71.4045 97.5915 71.3557 97.723 71.2583 97.8302C71.1706 97.9373 71.0634 97.9909 70.9368 97.9909C70.8491 97.9909 70.7614 97.9714 70.6737 97.9325C70.586 97.8935 70.4691 97.8302 70.323 97.7425C70.0599 97.5866 69.8114 97.4648 69.5776 97.3771C69.3535 97.2894 69.0709 97.2456 68.7299 97.2456C68.3207 97.2456 67.9894 97.3333 67.7361 97.5086C67.4925 97.684 67.3708 97.9227 67.3708 98.2248C67.3708 98.4976 67.4828 98.7119 67.7069 98.8678C67.9407 99.014 68.3743 99.1553 69.0076 99.2917C69.6604 99.4281 70.1719 99.584 70.5422 99.7593C70.9124 99.9347 71.1755 100.154 71.3314 100.417C71.497 100.67 71.5798 100.997 71.5798 101.396C71.5798 102.03 71.3119 102.541 70.776 102.931C70.2499 103.311 69.5435 103.501 68.6569 103.501ZM76.2189 96.091C77.164 96.091 77.8655 96.3297 78.3235 96.8071C78.7911 97.2845 79.025 98.0104 79.025 98.9847V102.77C79.025 102.994 78.9616 103.169 78.835 103.296C78.7083 103.413 78.5329 103.472 78.3088 103.472C78.0945 103.472 77.924 103.408 77.7973 103.282C77.6707 103.155 77.6073 102.984 77.6073 102.77V102.229C77.4222 102.638 77.1445 102.955 76.7743 103.179C76.4138 103.394 75.99 103.501 75.5028 103.501C75.0351 103.501 74.6064 103.408 74.2167 103.223C73.8367 103.028 73.5347 102.765 73.3106 102.434C73.0865 102.103 72.9744 101.727 72.9744 101.309C72.9647 100.782 73.0962 100.373 73.369 100.081C73.6418 99.7788 74.0851 99.5645 74.699 99.4378C75.3128 99.3014 76.1653 99.2332 77.2566 99.2332H77.5927V98.8094C77.5927 98.2637 77.4807 97.8691 77.2566 97.6256C77.0325 97.382 76.672 97.2602 76.1751 97.2602C75.8341 97.2602 75.5125 97.304 75.2105 97.3917C74.9084 97.4794 74.5772 97.6061 74.2167 97.7717C73.9536 97.9179 73.7685 97.9909 73.6613 97.9909C73.5152 97.9909 73.3934 97.9373 73.2959 97.8302C73.2083 97.723 73.1644 97.5866 73.1644 97.421C73.1644 97.2748 73.2034 97.1481 73.2813 97.041C73.369 96.924 73.5054 96.812 73.6905 96.7048C74.0316 96.5197 74.431 96.3736 74.889 96.2664C75.3469 96.1495 75.7902 96.091 76.2189 96.091ZM75.7659 102.405C76.3017 102.405 76.7402 102.224 77.0812 101.864C77.4222 101.494 77.5927 101.021 77.5927 100.446V100.066H77.3296C76.5697 100.066 75.9851 100.1 75.5759 100.169C75.1666 100.237 74.8743 100.354 74.699 100.519C74.5236 100.675 74.4359 100.904 74.4359 101.206C74.4359 101.557 74.5626 101.844 74.8159 102.068C75.0692 102.293 75.3859 102.405 75.7659 102.405ZM84.5371 102.346C84.7514 102.366 84.9024 102.424 84.9901 102.522C85.0876 102.609 85.1363 102.736 85.1363 102.902C85.1363 103.096 85.0583 103.247 84.9024 103.355C84.7563 103.452 84.5371 103.491 84.2448 103.472L83.8502 103.442C83.061 103.384 82.4715 103.145 82.0818 102.726C81.692 102.297 81.4972 101.669 81.4972 100.841V97.4063H80.6203C80.1916 97.4063 79.9772 97.2163 79.9772 96.8364C79.9772 96.661 80.0308 96.5246 80.138 96.4271C80.2549 96.32 80.4157 96.2664 80.6203 96.2664H81.4972V94.761C81.4972 94.5369 81.5605 94.3616 81.6872 94.2349C81.8236 94.1082 82.0038 94.0449 82.2279 94.0449C82.452 94.0449 82.6323 94.1082 82.7687 94.2349C82.9051 94.3616 82.9733 94.5369 82.9733 94.761V96.2664H84.4202C84.6248 96.2664 84.7807 96.32 84.8878 96.4271C85.0047 96.5246 85.0632 96.661 85.0632 96.8364C85.0632 97.0215 85.0047 97.1628 84.8878 97.2602C84.7807 97.3576 84.6248 97.4063 84.4202 97.4063H82.9733V100.943C82.9733 101.401 83.0658 101.737 83.251 101.952C83.4458 102.166 83.7381 102.288 84.1279 102.317L84.5371 102.346ZM86.9418 103.472C86.7274 103.472 86.5472 103.413 86.401 103.296C86.2646 103.179 86.1964 103.004 86.1964 102.77V96.8364C86.1964 96.6025 86.2646 96.4271 86.401 96.3102C86.5472 96.1836 86.7274 96.1202 86.9418 96.1202C87.1561 96.1202 87.3315 96.1836 87.4679 96.3102C87.6043 96.4271 87.6725 96.6025 87.6725 96.8364V102.77C87.6725 103.004 87.6043 103.179 87.4679 103.296C87.3315 103.413 87.1561 103.472 86.9418 103.472ZM86.9418 94.688C86.6592 94.688 86.4351 94.61 86.2695 94.4541C86.1039 94.2982 86.021 94.0936 86.021 93.8403C86.021 93.587 86.1039 93.3872 86.2695 93.2411C86.4351 93.0852 86.6592 93.0073 86.9418 93.0073C87.2146 93.0073 87.4338 93.0852 87.5995 93.2411C87.7748 93.3872 87.8625 93.587 87.8625 93.8403C87.8625 94.0936 87.7797 94.2982 87.6141 94.4541C87.4484 94.61 87.2243 94.688 86.9418 94.688ZM92.8343 103.501C92.1328 103.501 91.5141 103.35 90.9782 103.048C90.4521 102.746 90.0429 102.317 89.7506 101.762C89.468 101.196 89.3268 100.544 89.3268 99.8032C89.3268 99.0529 89.468 98.4001 89.7506 97.8448C90.0429 97.2797 90.4521 96.8461 90.9782 96.5441C91.5141 96.242 92.1328 96.091 92.8343 96.091C93.5358 96.091 94.1497 96.242 94.6758 96.5441C95.2117 96.8461 95.6209 97.2797 95.9034 97.8448C96.1957 98.4001 96.3419 99.0529 96.3419 99.8032C96.3419 100.544 96.1957 101.196 95.9034 101.762C95.6209 102.317 95.2117 102.746 94.6758 103.048C94.1497 103.35 93.5358 103.501 92.8343 103.501ZM92.8343 102.332C93.4871 102.332 93.984 102.117 94.325 101.688C94.6758 101.26 94.8512 100.631 94.8512 99.8032C94.8512 98.9847 94.6758 98.3612 94.325 97.9325C93.9743 97.494 93.4774 97.2748 92.8343 97.2748C92.1913 97.2748 91.6944 97.494 91.3436 97.9325C90.9929 98.3612 90.8175 98.9847 90.8175 99.8032C90.8175 100.631 90.988 101.26 91.329 101.688C91.6797 102.117 92.1815 102.332 92.8343 102.332ZM101.829 96.091C103.534 96.091 104.387 97.0507 104.387 98.9701V102.77C104.387 102.994 104.318 103.169 104.182 103.296C104.055 103.413 103.875 103.472 103.641 103.472C103.417 103.472 103.237 103.408 103.101 103.282C102.974 103.155 102.911 102.984 102.911 102.77V99.0432C102.911 98.4391 102.789 97.9958 102.545 97.7132C102.311 97.4307 101.941 97.2894 101.434 97.2894C100.84 97.2894 100.363 97.4745 100.002 97.8448C99.6417 98.215 99.4615 98.7119 99.4615 99.3355V102.77C99.4615 102.984 99.3933 103.155 99.2569 103.282C99.1302 103.408 98.9548 103.472 98.7307 103.472C98.5066 103.472 98.3264 103.408 98.19 103.282C98.0536 103.155 97.9854 102.984 97.9854 102.77V96.8217C97.9854 96.6171 98.0536 96.4515 98.19 96.3248C98.3361 96.1884 98.5164 96.1202 98.7307 96.1202C98.9451 96.1202 99.1156 96.1836 99.2423 96.3102C99.3689 96.4369 99.4323 96.6025 99.4323 96.8071V97.4063C99.6661 96.9776 99.9925 96.6512 100.411 96.4271C100.83 96.203 101.303 96.091 101.829 96.091ZM108.891 103.501C107.897 103.501 107.083 103.296 106.45 102.887C106.275 102.78 106.148 102.668 106.07 102.551C106.002 102.434 105.968 102.302 105.968 102.156C105.968 102 106.011 101.869 106.099 101.762C106.187 101.654 106.299 101.601 106.435 101.601C106.562 101.601 106.762 101.679 107.035 101.835C107.327 101.991 107.609 102.117 107.882 102.215C108.165 102.312 108.515 102.361 108.934 102.361C109.402 102.361 109.767 102.278 110.031 102.112C110.294 101.947 110.425 101.713 110.425 101.411C110.425 101.216 110.372 101.06 110.264 100.943C110.167 100.826 109.992 100.724 109.738 100.636C109.485 100.539 109.11 100.436 108.613 100.329C107.756 100.144 107.137 99.8957 106.757 99.584C106.387 99.2624 106.201 98.8289 106.201 98.2832C106.201 97.8643 106.323 97.4892 106.567 97.1579C106.81 96.8169 107.147 96.5538 107.575 96.3687C108.004 96.1836 108.491 96.091 109.037 96.091C109.426 96.091 109.806 96.1446 110.177 96.2518C110.547 96.3492 110.873 96.4953 111.156 96.6902C111.477 96.9046 111.638 97.153 111.638 97.4356C111.638 97.5915 111.589 97.723 111.492 97.8302C111.404 97.9373 111.297 97.9909 111.171 97.9909C111.083 97.9909 110.995 97.9714 110.907 97.9325C110.82 97.8935 110.703 97.8302 110.557 97.7425C110.294 97.5866 110.045 97.4648 109.811 97.3771C109.587 97.2894 109.305 97.2456 108.964 97.2456C108.554 97.2456 108.223 97.3333 107.97 97.5086C107.726 97.684 107.604 97.9227 107.604 98.2248C107.604 98.4976 107.717 98.7119 107.941 98.8678C108.174 99.014 108.608 99.1553 109.241 99.2917C109.894 99.4281 110.406 99.584 110.776 99.7593C111.146 99.9347 111.409 100.154 111.565 100.417C111.731 100.67 111.814 100.997 111.814 101.396C111.814 102.03 111.546 102.541 111.01 102.931C110.484 103.311 109.777 103.501 108.891 103.501Z" fill="#050E1D"/>
        <g filter="url(#filter0_d_971_13732)">
            <rect x="21.1915" y="119.949" width="203.944" height="45.8376" rx="3.65372" stroke="#5E6873" stroke-width="0.664313" shape-rendering="crispEdges"/>
        </g>
        <path d="M34.9702 142.326L34.6407 143.389H36.7346L36.4051 142.326C36.2776 141.936 36.1571 141.55 36.0437 141.167C35.9303 140.777 35.817 140.381 35.7036 139.977H35.6611C35.5548 140.381 35.4449 140.777 35.3316 141.167C35.2182 141.55 35.0977 141.936 34.9702 142.326ZM32.8444 146.227L35.204 139.254H36.2032L38.5628 146.227H37.6168L36.9578 144.101H34.4175L33.7479 146.227H32.8444ZM41.2301 146.354C40.5782 146.354 40.0574 146.12 39.6676 145.653C39.285 145.185 39.0937 144.519 39.0937 143.654C39.0937 143.236 39.1539 142.861 39.2744 142.528C39.4019 142.188 39.5684 141.901 39.7739 141.667C39.9794 141.433 40.2168 141.252 40.4861 141.125C40.7553 140.997 41.0388 140.933 41.3364 140.933C41.634 140.933 41.8926 140.986 42.1123 141.093C42.332 141.199 42.5552 141.344 42.7819 141.529L42.7394 140.646V138.659H43.6216V146.227H42.8988L42.8244 145.621H42.7926C42.5871 145.819 42.3497 145.993 42.0804 146.142C41.8182 146.283 41.5348 146.354 41.2301 146.354ZM41.4214 145.621C41.6623 145.621 41.8891 145.564 42.1017 145.451C42.3142 145.33 42.5268 145.149 42.7394 144.909V142.209C42.5197 142.01 42.3072 141.872 42.1017 141.794C41.9033 141.709 41.6978 141.667 41.4852 141.667C41.2797 141.667 41.0848 141.716 40.9006 141.816C40.7234 141.908 40.5675 142.042 40.4329 142.219C40.2983 142.389 40.192 142.595 40.114 142.836C40.0361 143.077 39.9971 143.346 39.9971 143.644C39.9971 144.267 40.1211 144.753 40.3691 145.1C40.6171 145.447 40.9679 145.621 41.4214 145.621ZM47.1259 146.354C46.474 146.354 45.9531 146.12 45.5634 145.653C45.1808 145.185 44.9894 144.519 44.9894 143.654C44.9894 143.236 45.0497 142.861 45.1701 142.528C45.2977 142.188 45.4642 141.901 45.6697 141.667C45.8752 141.433 46.1126 141.252 46.3818 141.125C46.6511 140.997 46.9345 140.933 47.2322 140.933C47.5298 140.933 47.7884 140.986 48.0081 141.093C48.2277 141.199 48.4509 141.344 48.6777 141.529L48.6352 140.646V138.659H49.5174V146.227H48.7946L48.7202 145.621H48.6883C48.4828 145.819 48.2455 145.993 47.9762 146.142C47.714 146.283 47.4306 146.354 47.1259 146.354ZM47.3172 145.621C47.5581 145.621 47.7849 145.564 47.9974 145.451C48.21 145.33 48.4226 145.149 48.6352 144.909V142.209C48.4155 142.01 48.2029 141.872 47.9974 141.794C47.799 141.709 47.5935 141.667 47.381 141.667C47.1755 141.667 46.9806 141.716 46.7964 141.816C46.6192 141.908 46.4633 142.042 46.3287 142.219C46.1941 142.389 46.0878 142.595 46.0098 142.836C45.9319 143.077 45.8929 143.346 45.8929 143.644C45.8929 144.267 46.0169 144.753 46.2649 145.1C46.5129 145.447 46.8637 145.621 47.3172 145.621ZM54.5755 146.354C54.1433 146.354 53.7819 146.227 53.4914 145.971C53.208 145.716 53.0662 145.355 53.0662 144.887C53.0662 144.32 53.3178 143.888 53.8209 143.591C54.324 143.286 55.1283 143.073 56.2337 142.953C56.2337 142.79 56.216 142.63 56.1805 142.475C56.1522 142.319 56.099 142.18 56.0211 142.06C55.9431 141.94 55.8333 141.844 55.6916 141.773C55.557 141.695 55.3834 141.656 55.1708 141.656C54.8732 141.656 54.5933 141.713 54.3311 141.826C54.0689 141.94 53.8351 142.067 53.6296 142.209L53.2894 141.603C53.5304 141.447 53.8244 141.298 54.1716 141.157C54.5189 141.008 54.9015 140.933 55.3196 140.933C55.9502 140.933 56.4073 141.128 56.6907 141.518C56.9742 141.901 57.1159 142.414 57.1159 143.059V146.227H56.3931L56.3187 145.61H56.2868C56.0388 145.816 55.7731 145.993 55.4896 146.142C55.2062 146.283 54.9015 146.354 54.5755 146.354ZM54.8306 145.653C55.0787 145.653 55.3125 145.596 55.5322 145.483C55.7518 145.362 55.9857 145.188 56.2337 144.962V143.527C55.8014 143.583 55.4365 143.651 55.1389 143.729C54.8484 143.807 54.611 143.899 54.4267 144.005C54.2496 144.111 54.1185 144.235 54.0335 144.377C53.9555 144.512 53.9166 144.661 53.9166 144.824C53.9166 145.121 54.0051 145.334 54.1823 145.461C54.3594 145.589 54.5755 145.653 54.8306 145.653ZM58.7411 146.227V141.061H59.4639L59.5383 141.805H59.5702C59.8182 141.557 60.0768 141.351 60.3461 141.188C60.6225 141.018 60.9413 140.933 61.3027 140.933C61.8483 140.933 62.2451 141.103 62.4932 141.444C62.7483 141.784 62.8758 142.287 62.8758 142.953V146.227H62.0042V143.07C62.0042 142.581 61.9263 142.23 61.7704 142.017C61.6145 141.798 61.3665 141.688 61.0264 141.688C60.7571 141.688 60.5197 141.755 60.3142 141.89C60.1087 142.025 59.8749 142.223 59.6127 142.485V146.227H58.7411ZM68.6906 146.354C68.3717 146.354 68.067 146.294 67.7765 146.173C67.4931 146.053 67.2415 145.879 67.0219 145.653C66.8022 145.419 66.625 145.135 66.4904 144.802C66.3629 144.462 66.2991 144.08 66.2991 143.654C66.2991 143.222 66.3629 142.839 66.4904 142.506C66.625 142.166 66.8022 141.879 67.0219 141.645C67.2415 141.412 67.4931 141.234 67.7765 141.114C68.067 140.994 68.3717 140.933 68.6906 140.933C69.0095 140.933 69.3106 140.994 69.5941 141.114C69.8846 141.234 70.1397 141.412 70.3594 141.645C70.579 141.879 70.7526 142.166 70.8802 142.506C71.0148 142.839 71.0821 143.222 71.0821 143.654C71.0821 144.08 71.0148 144.462 70.8802 144.802C70.7526 145.135 70.579 145.419 70.3594 145.653C70.1397 145.879 69.8846 146.053 69.5941 146.173C69.3106 146.294 69.0095 146.354 68.6906 146.354ZM68.6906 145.631C68.9103 145.631 69.1122 145.585 69.2965 145.493C69.4807 145.394 69.6366 145.259 69.7641 145.089C69.8988 144.912 70.0015 144.703 70.0724 144.462C70.1432 144.221 70.1787 143.952 70.1787 143.654C70.1787 143.357 70.1432 143.087 70.0724 142.847C70.0015 142.599 69.8988 142.386 69.7641 142.209C69.6366 142.032 69.4807 141.897 69.2965 141.805C69.1122 141.706 68.9103 141.656 68.6906 141.656C68.4709 141.656 68.269 141.706 68.0848 141.805C67.9005 141.897 67.7411 142.032 67.6065 142.209C67.4789 142.386 67.3797 142.599 67.3088 142.847C67.238 143.087 67.2026 143.357 67.2026 143.654C67.2026 143.952 67.238 144.221 67.3088 144.462C67.3797 144.703 67.4789 144.912 67.6065 145.089C67.7411 145.259 67.9005 145.394 68.0848 145.493C68.269 145.585 68.4709 145.631 68.6906 145.631ZM72.4426 146.227V141.061H73.1653L73.2397 141.996H73.2716C73.4488 141.67 73.6614 141.412 73.9094 141.22C74.1645 141.029 74.4408 140.933 74.7384 140.933C74.9439 140.933 75.1282 140.969 75.2911 141.04L75.1211 141.805C75.036 141.777 74.9581 141.755 74.8872 141.741C74.8164 141.727 74.7278 141.72 74.6215 141.72C74.4018 141.72 74.1716 141.808 73.9306 141.986C73.6968 142.163 73.4913 142.471 73.3141 142.91V146.227H72.4426ZM77.7668 148.607C77.4479 148.607 77.1574 148.576 76.8952 148.512C76.633 148.455 76.4063 148.367 76.215 148.246C76.0307 148.126 75.8855 147.98 75.7792 147.81C75.68 147.64 75.6304 147.442 75.6304 147.215C75.6304 146.995 75.6977 146.786 75.8323 146.588C75.9669 146.39 76.1512 146.209 76.385 146.046V146.003C76.2575 145.925 76.1476 145.819 76.0555 145.684C75.9705 145.543 75.928 145.369 75.928 145.164C75.928 144.944 75.9882 144.753 76.1087 144.59C76.2291 144.427 76.3567 144.299 76.4913 144.207V144.165C76.3212 144.023 76.1654 143.835 76.0236 143.601C75.889 143.36 75.8217 143.084 75.8217 142.772C75.8217 142.489 75.8713 142.234 75.9705 142.007C76.0768 141.78 76.2185 141.589 76.3956 141.433C76.5728 141.27 76.7783 141.146 77.0121 141.061C77.2531 140.976 77.5046 140.933 77.7668 140.933C77.9085 140.933 78.0396 140.947 78.1601 140.976C78.2876 140.997 78.401 141.025 78.5002 141.061H80.2965V141.73H79.2336C79.3541 141.851 79.4533 142.003 79.5312 142.188C79.6162 142.372 79.6588 142.574 79.6588 142.793C79.6588 143.07 79.6091 143.321 79.5099 143.548C79.4107 143.768 79.2761 143.955 79.106 144.111C78.936 144.26 78.734 144.377 78.5002 144.462C78.2734 144.547 78.029 144.59 77.7668 144.59C77.6392 144.59 77.5081 144.576 77.3735 144.547C77.2389 144.512 77.1113 144.466 76.9909 144.409C76.8988 144.487 76.8208 144.576 76.757 144.675C76.6933 144.767 76.6614 144.884 76.6614 145.025C76.6614 145.188 76.7251 145.323 76.8527 145.429C76.9802 145.536 77.2212 145.589 77.5755 145.589H78.5746C79.1769 145.589 79.6269 145.688 79.9245 145.886C80.2292 146.078 80.3815 146.39 80.3815 146.822C80.3815 147.063 80.3213 147.289 80.2008 147.502C80.0804 147.722 79.9068 147.913 79.68 148.076C79.4533 148.239 79.1769 148.367 78.8509 148.459C78.5321 148.558 78.1707 148.607 77.7668 148.607ZM77.7668 144.005C77.9156 144.005 78.0538 143.977 78.1813 143.92C78.316 143.863 78.4329 143.782 78.5321 143.676C78.6384 143.569 78.7199 143.442 78.7765 143.293C78.8332 143.137 78.8616 142.963 78.8616 142.772C78.8616 142.389 78.7553 142.095 78.5427 141.89C78.3301 141.677 78.0715 141.571 77.7668 141.571C77.4621 141.571 77.2035 141.677 76.9909 141.89C76.7783 142.095 76.672 142.389 76.672 142.772C76.672 142.963 76.7003 143.137 76.757 143.293C76.8137 143.442 76.8917 143.569 76.9909 143.676C77.0972 143.782 77.2141 143.863 77.3416 143.92C77.4763 143.977 77.618 144.005 77.7668 144.005ZM77.8943 148.002C78.1423 148.002 78.3656 147.97 78.564 147.906C78.7695 147.849 78.9431 147.771 79.0848 147.672C79.2265 147.58 79.3363 147.47 79.4143 147.343C79.4922 147.215 79.5312 147.084 79.5312 146.949C79.5312 146.708 79.4426 146.542 79.2655 146.45C79.0883 146.358 78.8297 146.312 78.4896 146.312H77.5967C77.4975 146.312 77.3877 146.305 77.2672 146.29C77.1538 146.283 77.0405 146.262 76.9271 146.227C76.7429 146.361 76.6082 146.503 76.5232 146.652C76.4382 146.801 76.3956 146.949 76.3956 147.098C76.3956 147.374 76.5267 147.594 76.7889 147.757C77.0582 147.92 77.4267 148.002 77.8943 148.002ZM82.404 146.354C81.9718 146.354 81.6104 146.227 81.3199 145.971C81.0364 145.716 80.8947 145.355 80.8947 144.887C80.8947 144.32 81.1463 143.888 81.6494 143.591C82.1525 143.286 82.9567 143.073 84.0621 142.953C84.0621 142.79 84.0444 142.63 84.009 142.475C83.9807 142.319 83.9275 142.18 83.8496 142.06C83.7716 141.94 83.6618 141.844 83.5201 141.773C83.3854 141.695 83.2118 141.656 82.9992 141.656C82.7016 141.656 82.4217 141.713 82.1596 141.826C81.8974 141.94 81.6635 142.067 81.458 142.209L81.1179 141.603C81.3588 141.447 81.6529 141.298 82.0001 141.157C82.3473 141.008 82.73 140.933 83.1481 140.933C83.7787 140.933 84.2358 141.128 84.5192 141.518C84.8026 141.901 84.9444 142.414 84.9444 143.059V146.227H84.2216L84.1472 145.61H84.1153C83.8673 145.816 83.6016 145.993 83.3181 146.142C83.0347 146.283 82.73 146.354 82.404 146.354ZM82.6591 145.653C82.9071 145.653 83.141 145.596 83.3606 145.483C83.5803 145.362 83.8141 145.188 84.0621 144.962V143.527C83.6299 143.583 83.265 143.651 82.9674 143.729C82.6768 143.807 82.4395 143.899 82.2552 144.005C82.0781 144.111 81.947 144.235 81.8619 144.377C81.784 144.512 81.745 144.661 81.745 144.824C81.745 145.121 81.8336 145.334 82.0107 145.461C82.1879 145.589 82.404 145.653 82.6591 145.653ZM86.5696 146.227V141.061H87.2924L87.3668 141.805H87.3987C87.6467 141.557 87.9053 141.351 88.1746 141.188C88.4509 141.018 88.7698 140.933 89.1312 140.933C89.6768 140.933 90.0736 141.103 90.3216 141.444C90.5767 141.784 90.7043 142.287 90.7043 142.953V146.227H89.8327V143.07C89.8327 142.581 89.7548 142.23 89.5989 142.017C89.443 141.798 89.195 141.688 88.8548 141.688C88.5856 141.688 88.3482 141.755 88.1427 141.89C87.9372 142.025 87.7034 142.223 87.4412 142.485V146.227H86.5696ZM92.3823 146.227V141.061H93.2539V146.227H92.3823ZM92.8287 139.998C92.6587 139.998 92.5134 139.945 92.393 139.839C92.2796 139.732 92.2229 139.598 92.2229 139.435C92.2229 139.265 92.2796 139.13 92.393 139.031C92.5134 138.924 92.6587 138.871 92.8287 138.871C92.9988 138.871 93.1405 138.924 93.2539 139.031C93.3744 139.13 93.4346 139.265 93.4346 139.435C93.4346 139.598 93.3744 139.732 93.2539 139.839C93.1405 139.945 92.9988 139.998 92.8287 139.998ZM96.3479 146.354C95.9795 146.354 95.6287 146.287 95.2957 146.152C94.9626 146.018 94.6721 145.847 94.4241 145.642L94.8599 145.057C95.0866 145.242 95.3169 145.39 95.5508 145.504C95.7917 145.617 96.068 145.674 96.3798 145.674C96.72 145.674 96.9751 145.596 97.1451 145.44C97.3152 145.284 97.4002 145.093 97.4002 144.866C97.4002 144.731 97.3648 144.614 97.2939 144.515C97.2231 144.416 97.1309 144.331 97.0176 144.26C96.9113 144.182 96.7873 144.115 96.6456 144.058C96.5038 144.002 96.3621 143.945 96.2204 143.888C96.0362 143.824 95.8519 143.754 95.6677 143.676C95.4835 143.591 95.3169 143.491 95.1681 143.378C95.0264 143.258 94.9095 143.119 94.8174 142.963C94.7253 142.808 94.6792 142.62 94.6792 142.4C94.6792 142.195 94.7182 142.003 94.7961 141.826C94.8811 141.642 94.9981 141.486 95.1469 141.358C95.3028 141.224 95.4905 141.121 95.7102 141.05C95.9299 140.972 96.1779 140.933 96.4542 140.933C96.7802 140.933 97.0778 140.99 97.3471 141.103C97.6234 141.217 97.8608 141.355 98.0592 141.518L97.6447 142.071C97.4675 141.936 97.2833 141.826 97.092 141.741C96.9007 141.656 96.6916 141.614 96.4649 141.614C96.1389 141.614 95.898 141.688 95.7421 141.837C95.5933 141.986 95.5189 142.159 95.5189 142.358C95.5189 142.478 95.5508 142.584 95.6145 142.676C95.6783 142.762 95.7634 142.839 95.8696 142.91C95.9759 142.974 96.0964 143.034 96.231 143.091C96.3727 143.141 96.518 143.194 96.6668 143.25C96.8511 143.321 97.0353 143.396 97.2195 143.474C97.4108 143.552 97.5809 143.651 97.7297 143.771C97.8785 143.885 97.999 144.026 98.0911 144.196C98.1903 144.366 98.2399 144.572 98.2399 144.813C98.2399 145.025 98.1974 145.224 98.1124 145.408C98.0344 145.592 97.914 145.755 97.751 145.897C97.5951 146.039 97.3967 146.149 97.1557 146.227C96.9219 146.312 96.6526 146.354 96.3479 146.354ZM100.641 146.354C100.209 146.354 99.8478 146.227 99.5573 145.971C99.2739 145.716 99.1322 145.355 99.1322 144.887C99.1322 144.32 99.3837 143.888 99.8868 143.591C100.39 143.286 101.194 143.073 102.3 142.953C102.3 142.79 102.282 142.63 102.246 142.475C102.218 142.319 102.165 142.18 102.087 142.06C102.009 141.94 101.899 141.844 101.758 141.773C101.623 141.695 101.449 141.656 101.237 141.656C100.939 141.656 100.659 141.713 100.397 141.826C100.135 141.94 99.901 142.067 99.6955 142.209L99.3554 141.603C99.5963 141.447 99.8904 141.298 100.238 141.157C100.585 141.008 100.967 140.933 101.386 140.933C102.016 140.933 102.473 141.128 102.757 141.518C103.04 141.901 103.182 142.414 103.182 143.059V146.227H102.459L102.385 145.61H102.353C102.105 145.816 101.839 145.993 101.556 146.142C101.272 146.283 100.967 146.354 100.641 146.354ZM100.897 145.653C101.145 145.653 101.378 145.596 101.598 145.483C101.818 145.362 102.052 145.188 102.3 144.962V143.527C101.867 143.583 101.502 143.651 101.205 143.729C100.914 143.807 100.677 143.899 100.493 144.005C100.316 144.111 100.184 144.235 100.099 144.377C100.021 144.512 99.9825 144.661 99.9825 144.824C99.9825 145.121 100.071 145.334 100.248 145.461C100.425 145.589 100.641 145.653 100.897 145.653ZM106.288 146.354C106.012 146.354 105.778 146.312 105.586 146.227C105.402 146.142 105.25 146.025 105.129 145.876C105.016 145.727 104.935 145.546 104.885 145.334C104.835 145.121 104.811 144.887 104.811 144.632V141.773H104.045V141.114L104.853 141.061L104.959 139.615H105.693V141.061H107.085V141.773H105.693V144.643C105.693 144.962 105.749 145.21 105.863 145.387C105.983 145.557 106.192 145.642 106.49 145.642C106.582 145.642 106.681 145.628 106.788 145.599C106.894 145.571 106.989 145.539 107.075 145.504L107.245 146.163C107.103 146.212 106.947 146.255 106.777 146.29C106.614 146.333 106.451 146.354 106.288 146.354ZM108.253 146.227V141.061H109.125V146.227H108.253ZM108.7 139.998C108.53 139.998 108.384 139.945 108.264 139.839C108.15 139.732 108.094 139.598 108.094 139.435C108.094 139.265 108.15 139.13 108.264 139.031C108.384 138.924 108.53 138.871 108.7 138.871C108.87 138.871 109.011 138.924 109.125 139.031C109.245 139.13 109.305 139.265 109.305 139.435C109.305 139.598 109.245 139.732 109.125 139.839C109.011 139.945 108.87 139.998 108.7 139.998ZM112.878 146.354C112.559 146.354 112.254 146.294 111.964 146.173C111.68 146.053 111.429 145.879 111.209 145.653C110.989 145.419 110.812 145.135 110.678 144.802C110.55 144.462 110.486 144.08 110.486 143.654C110.486 143.222 110.55 142.839 110.678 142.506C110.812 142.166 110.989 141.879 111.209 141.645C111.429 141.412 111.68 141.234 111.964 141.114C112.254 140.994 112.559 140.933 112.878 140.933C113.197 140.933 113.498 140.994 113.781 141.114C114.072 141.234 114.327 141.412 114.547 141.645C114.766 141.879 114.94 142.166 115.067 142.506C115.202 142.839 115.269 143.222 115.269 143.654C115.269 144.08 115.202 144.462 115.067 144.802C114.94 145.135 114.766 145.419 114.547 145.653C114.327 145.879 114.072 146.053 113.781 146.173C113.498 146.294 113.197 146.354 112.878 146.354ZM112.878 145.631C113.097 145.631 113.299 145.585 113.484 145.493C113.668 145.394 113.824 145.259 113.951 145.089C114.086 144.912 114.189 144.703 114.26 144.462C114.33 144.221 114.366 143.952 114.366 143.654C114.366 143.357 114.33 143.087 114.26 142.847C114.189 142.599 114.086 142.386 113.951 142.209C113.824 142.032 113.668 141.897 113.484 141.805C113.299 141.706 113.097 141.656 112.878 141.656C112.658 141.656 112.456 141.706 112.272 141.805C112.088 141.897 111.928 142.032 111.794 142.209C111.666 142.386 111.567 142.599 111.496 142.847C111.425 143.087 111.39 143.357 111.39 143.654C111.39 143.952 111.425 144.221 111.496 144.462C111.567 144.703 111.666 144.912 111.794 145.089C111.928 145.259 112.088 145.394 112.272 145.493C112.456 145.585 112.658 145.631 112.878 145.631ZM116.63 146.227V141.061H117.353L117.427 141.805H117.459C117.707 141.557 117.965 141.351 118.235 141.188C118.511 141.018 118.83 140.933 119.191 140.933C119.737 140.933 120.134 141.103 120.382 141.444C120.637 141.784 120.764 142.287 120.764 142.953V146.227H119.893V143.07C119.893 142.581 119.815 142.23 119.659 142.017C119.503 141.798 119.255 141.688 118.915 141.688C118.646 141.688 118.408 141.755 118.203 141.89C117.997 142.025 117.764 142.223 117.501 142.485V146.227H116.63Z" fill="#5E6873"/>
        <path d="M195.412 142.935H210.359M202.886 135.393V150.476" stroke="#5E6873" stroke-width="0.996469" stroke-linecap="round" stroke-linejoin="round"/>
        <rect x="20.8635" y="21.3088" width="203.28" height="45.1733" rx="3.32156" stroke="#0077C8" stroke-width="1.32863"/>
        <path d="M34.1719 40.065C33.9309 40.065 33.7113 40.0225 33.5129 39.9375C33.3215 39.8596 33.1586 39.7497 33.0239 39.608C32.8893 39.4592 32.783 39.2891 32.7051 39.0978C32.6342 38.9065 32.5988 38.6974 32.5988 38.4707C32.5988 37.918 32.8326 37.4857 33.3003 37.174C33.768 36.8622 34.5226 36.6531 35.5643 36.5468C35.5501 36.313 35.4792 36.1288 35.3517 35.9941C35.2312 35.8524 35.0257 35.7816 34.7352 35.7816C34.5084 35.7816 34.2817 35.8241 34.0549 35.9091C33.8353 35.9941 33.5979 36.1111 33.3428 36.2599L32.7795 35.2289C33.1196 35.0234 33.4739 34.8568 33.8424 34.7293C34.2179 34.6017 34.6147 34.538 35.0328 34.538C35.7131 34.538 36.2303 34.7328 36.5846 35.1226C36.946 35.5052 37.1267 36.104 37.1267 36.9189V39.9375H35.8512L35.7449 39.3954H35.7024C35.4757 39.5938 35.2383 39.7568 34.9903 39.8844C34.7423 40.0048 34.4695 40.065 34.1719 40.065ZM34.7033 38.8533C34.8805 38.8533 35.0328 38.8144 35.1604 38.7364C35.2879 38.6585 35.4225 38.5486 35.5643 38.4069V37.4822C35.0115 37.5601 34.6289 37.6735 34.4163 37.8223C34.2037 37.9711 34.0975 38.1483 34.0975 38.3538C34.0975 38.5238 34.1506 38.6514 34.2569 38.7364C34.3703 38.8144 34.5191 38.8533 34.7033 38.8533ZM38.4484 39.9375V34.6655H39.7238L39.8301 35.5902H39.8727C40.064 35.2289 40.2943 34.9631 40.5635 34.7931C40.8328 34.623 41.1021 34.538 41.3713 34.538C41.5201 34.538 41.6406 34.5486 41.7327 34.5699C41.8319 34.584 41.9205 34.6088 41.9985 34.6443L41.7434 35.9941C41.6442 35.9658 41.552 35.9445 41.467 35.9304C41.382 35.9162 41.2828 35.9091 41.1694 35.9091C40.971 35.9091 40.7619 35.98 40.5423 36.1217C40.3297 36.2634 40.1526 36.515 40.0108 36.8763V39.9375H38.4484ZM44.7135 40.065C44.3875 40.065 44.1076 40.0154 43.8738 39.9162C43.6471 39.817 43.4593 39.6789 43.3105 39.5017C43.1688 39.3246 43.0625 39.112 42.9916 38.864C42.9278 38.6089 42.8959 38.329 42.8959 38.0243V35.8878H42.1732V34.7293L42.981 34.6655L43.1617 33.2625H44.4584V34.6655H45.7233V35.8878H44.4584V38.003C44.4584 38.3006 44.5186 38.5168 44.6391 38.6514C44.7666 38.7789 44.9332 38.8427 45.1387 38.8427C45.2237 38.8427 45.3087 38.8321 45.3938 38.8108C45.4859 38.7896 45.5674 38.7648 45.6382 38.7364L45.8827 39.8737C45.741 39.9162 45.5744 39.9588 45.3831 40.0013C45.1918 40.0438 44.9686 40.065 44.7135 40.065ZM46.7523 39.9375V32.4866H48.3147V34.3148L48.2403 35.2607C48.4387 35.0836 48.669 34.9206 48.9312 34.7718C49.1934 34.6159 49.5052 34.538 49.8666 34.538C50.4405 34.538 50.8551 34.7257 51.1102 35.1013C51.3723 35.4769 51.5034 35.9977 51.5034 36.6638V39.9375H49.941V36.8657C49.941 36.4831 49.8878 36.2209 49.7815 36.0792C49.6823 35.9375 49.5194 35.8666 49.2926 35.8666C49.0942 35.8666 48.9241 35.9127 48.7824 36.0048C48.6407 36.0898 48.4848 36.2138 48.3147 36.3768V39.9375H46.7523ZM53.4472 36.228L52.7988 35.7603L53.426 34.6549L52.278 34.1341L52.5225 33.3688L53.7555 33.6239L53.8936 32.3697H54.7121L54.8502 33.6345L56.0726 33.3688L56.3277 34.1341L55.1797 34.6549L55.8069 35.7603L55.1585 36.228L54.3082 35.282L53.4472 36.228ZM58.305 36.228L57.6566 35.7603L58.2837 34.6549L57.1358 34.1341L57.3803 33.3688L58.6132 33.6239L58.7514 32.3697H59.5699L59.708 33.6345L60.9304 33.3688L61.1855 34.1341L60.0375 34.6549L60.6646 35.7603L60.0163 36.228L59.166 35.282L58.305 36.228ZM63.1628 36.228L62.5144 35.7603L63.1415 34.6549L61.9936 34.1341L62.2381 33.3688L63.471 33.6239L63.6092 32.3697H64.4276L64.5658 33.6345L65.7882 33.3688L66.0433 34.1341L64.8953 34.6549L65.5224 35.7603L64.8741 36.228L64.0237 35.282L63.1628 36.228ZM69.1685 40.065C68.8426 40.065 68.5627 40.0154 68.3288 39.9162C68.1021 39.817 67.9143 39.6789 67.7655 39.5017C67.6238 39.3246 67.5175 39.112 67.4466 38.864C67.3828 38.6089 67.3509 38.329 67.3509 38.0243V35.8878H66.6282V34.7293L67.436 34.6655L67.6167 33.2625H68.9134V34.6655H70.1783V35.8878H68.9134V38.003C68.9134 38.3006 68.9736 38.5168 69.0941 38.6514C69.2217 38.7789 69.3882 38.8427 69.5937 38.8427C69.6787 38.8427 69.7637 38.8321 69.8488 38.8108C69.9409 38.7896 70.0224 38.7648 70.0932 38.7364L70.3377 39.8737C70.196 39.9162 70.0295 39.9588 69.8381 40.0013C69.6468 40.0438 69.4236 40.065 69.1685 40.065ZM75.0656 41.7657C74.5342 41.7657 74.024 41.6842 73.535 41.5212C73.0532 41.3582 72.6245 41.1102 72.2489 40.7772C71.8805 40.4441 71.5864 40.0296 71.3667 39.5336C71.1471 39.0305 71.0372 38.4388 71.0372 37.7586C71.0372 37.0145 71.1648 36.3414 71.4199 35.739C71.675 35.1296 72.0186 34.6088 72.4509 34.1766C72.8902 33.7443 73.4004 33.4113 73.9815 33.1775C74.5625 32.9436 75.179 32.8267 75.8309 32.8267C76.4049 32.8267 76.9221 32.9188 77.3827 33.1031C77.8504 33.2873 78.2472 33.5495 78.5732 33.8896C78.8991 34.2226 79.1507 34.623 79.3278 35.0907C79.505 35.5513 79.5936 36.0579 79.5936 36.6106C79.5936 37.0996 79.5192 37.5283 79.3704 37.8967C79.2216 38.2581 79.0302 38.5628 78.7964 38.8108C78.5626 39.0517 78.3004 39.2324 78.0098 39.3529C77.7264 39.4734 77.4465 39.5336 77.1702 39.5336C76.8655 39.5336 76.5997 39.4627 76.373 39.321C76.1462 39.1793 76.0045 38.9809 75.9478 38.7258H75.9266C75.7778 38.9313 75.5829 39.1014 75.342 39.236C75.101 39.3635 74.8707 39.4273 74.6511 39.4273C74.2259 39.4273 73.8858 39.2856 73.6307 39.0021C73.3756 38.7116 73.2481 38.3219 73.2481 37.833C73.2481 37.507 73.3012 37.1881 73.4075 36.8763C73.5209 36.5646 73.6732 36.2882 73.8645 36.0473C74.0559 35.7993 74.2826 35.6009 74.5448 35.4521C74.807 35.3033 75.0904 35.2289 75.3951 35.2289C75.5723 35.2289 75.7282 35.2714 75.8628 35.3564C75.9974 35.4343 76.1108 35.569 76.2029 35.7603H76.2242L76.373 35.3139H77.3402L76.8513 37.6523C76.7025 38.2617 76.8655 38.5664 77.3402 38.5664C77.4961 38.5664 77.6485 38.5238 77.7973 38.4388C77.9532 38.3467 78.0913 38.2191 78.2118 38.0562C78.3323 37.8861 78.4279 37.6842 78.4988 37.4503C78.5696 37.2094 78.6051 36.9437 78.6051 36.6531C78.6051 36.2705 78.5519 35.9056 78.4456 35.5584C78.3393 35.2111 78.1693 34.9064 77.9354 34.6443C77.7016 34.375 77.4005 34.1624 77.032 34.0065C76.6635 33.8506 76.2206 33.7727 75.7034 33.7727C75.2498 33.7727 74.807 33.8683 74.3747 34.0597C73.9425 34.2439 73.5563 34.5096 73.2162 34.8568C72.876 35.197 72.6032 35.6115 72.3977 36.1004C72.1922 36.5823 72.0895 37.1208 72.0895 37.716C72.0895 38.2404 72.171 38.6974 72.334 39.0872C72.504 39.4769 72.7308 39.7993 73.0142 40.0544C73.3047 40.3095 73.6342 40.5008 74.0027 40.6284C74.3783 40.7559 74.7751 40.8197 75.1932 40.8197C75.4695 40.8197 75.7494 40.7807 76.0329 40.7028C76.3234 40.6248 76.582 40.5256 76.8088 40.4052L77.1489 41.2555C76.8229 41.4326 76.4899 41.5602 76.1498 41.6381C75.8096 41.7232 75.4483 41.7657 75.0656 41.7657ZM74.9806 38.4494C75.094 38.4494 75.2038 38.414 75.3101 38.3431C75.4235 38.2723 75.5475 38.1483 75.6821 37.9711L75.9372 36.5362C75.8309 36.3307 75.6679 36.228 75.4483 36.228C75.2853 36.228 75.14 36.2776 75.0125 36.3768C74.892 36.476 74.7857 36.6 74.6936 36.7488C74.6086 36.8976 74.5412 37.0606 74.4916 37.2377C74.4491 37.4149 74.4279 37.5814 74.4279 37.7373C74.4279 38.2121 74.6121 38.4494 74.9806 38.4494ZM81.6909 36.228L81.0425 35.7603L81.6696 34.6549L80.5217 34.1341L80.7662 33.3688L81.9991 33.6239L82.1373 32.3697H82.9557L83.0939 33.6345L84.3163 33.3688L84.5713 34.1341L83.4234 34.6549L84.0505 35.7603L83.4022 36.228L82.5518 35.282L81.6909 36.228ZM86.5487 36.228L85.9003 35.7603L86.5274 34.6549L85.3795 34.1341L85.6239 33.3688L86.8569 33.6239L86.9951 32.3697H87.8135L87.9517 33.6345L89.174 33.3688L89.4291 34.1341L88.2812 34.6549L88.9083 35.7603L88.2599 36.228L87.4096 35.282L86.5487 36.228ZM91.4065 36.228L90.7581 35.7603L91.3852 34.6549L90.2373 34.1341L90.4817 33.3688L91.7147 33.6239L91.8529 32.3697H92.6713L92.8095 33.6345L94.0318 33.3688L94.2869 34.1341L93.139 34.6549L93.7661 35.7603L93.1177 36.228L92.2674 35.282L91.4065 36.228ZM96.2642 36.228L95.6159 35.7603L96.243 34.6549L95.0951 34.1341L95.3395 33.3688L96.5725 33.6239L96.7107 32.3697H97.5291L97.6673 33.6345L98.8896 33.3688L99.1447 34.1341L97.9968 34.6549L98.6239 35.7603L97.9755 36.228L97.1252 35.282L96.2642 36.228ZM100.24 39.9375V34.6655H101.802V39.9375H100.24ZM101.016 33.8896C100.754 33.8896 100.537 33.8152 100.367 33.6664C100.197 33.5105 100.112 33.3121 100.112 33.0712C100.112 32.8302 100.197 32.6354 100.367 32.4866C100.537 32.3378 100.754 32.2634 101.016 32.2634C101.285 32.2634 101.501 32.3378 101.664 32.4866C101.834 32.6354 101.919 32.8302 101.919 33.0712C101.919 33.3121 101.834 33.5105 101.664 33.6664C101.501 33.8152 101.285 33.8896 101.016 33.8896ZM104.612 40.065C104.343 40.065 104.116 40.0225 103.932 39.9375C103.748 39.8525 103.599 39.7355 103.486 39.5867C103.379 39.4309 103.301 39.2466 103.252 39.034C103.202 38.8144 103.177 38.5699 103.177 38.3006V32.4866H104.74V38.3644C104.74 38.5274 104.768 38.6408 104.825 38.7045C104.889 38.7683 104.952 38.8002 105.016 38.8002C105.052 38.8002 105.08 38.8002 105.101 38.8002C105.13 38.8002 105.165 38.7931 105.207 38.7789L105.399 39.9375C105.314 39.9729 105.204 40.0013 105.069 40.0225C104.942 40.0509 104.789 40.065 104.612 40.065ZM107.122 40.065C106.853 40.065 106.626 39.9729 106.442 39.7887C106.265 39.5974 106.176 39.3635 106.176 39.0872C106.176 38.8037 106.265 38.5699 106.442 38.3857C106.626 38.1943 106.853 38.0987 107.122 38.0987C107.391 38.0987 107.615 38.1943 107.792 38.3857C107.976 38.5699 108.068 38.8037 108.068 39.0872C108.068 39.3635 107.976 39.5974 107.792 39.7887C107.615 39.9729 107.391 40.065 107.122 40.065ZM111.597 40.065C111.229 40.065 110.885 40.0048 110.566 39.8844C110.255 39.7568 109.982 39.5761 109.748 39.3423C109.514 39.1084 109.33 38.8215 109.195 38.4813C109.061 38.1341 108.993 37.7408 108.993 37.3015C108.993 36.8622 109.068 36.4724 109.216 36.1323C109.365 35.7851 109.564 35.4946 109.812 35.2607C110.067 35.0269 110.361 34.8498 110.694 34.7293C111.027 34.6017 111.374 34.538 111.736 34.538C112.061 34.538 112.348 34.5911 112.596 34.6974C112.852 34.8037 113.078 34.9383 113.277 35.1013L112.543 36.1111C112.295 35.9056 112.058 35.8028 111.831 35.8028C111.449 35.8028 111.147 35.9375 110.928 36.2067C110.708 36.476 110.598 36.8409 110.598 37.3015C110.598 37.7621 110.708 38.127 110.928 38.3963C111.154 38.6656 111.438 38.8002 111.778 38.8002C111.948 38.8002 112.111 38.7648 112.267 38.6939C112.43 38.616 112.582 38.5238 112.724 38.4176L113.34 39.4379C113.078 39.6647 112.795 39.8277 112.49 39.9269C112.185 40.019 111.888 40.065 111.597 40.065ZM116.226 40.065C115.893 40.065 115.571 40.0048 115.259 39.8844C114.947 39.7568 114.671 39.5761 114.43 39.3423C114.196 39.1084 114.008 38.8215 113.866 38.4813C113.725 38.1341 113.654 37.7408 113.654 37.3015C113.654 36.8622 113.725 36.4724 113.866 36.1323C114.008 35.7851 114.196 35.4946 114.43 35.2607C114.671 35.0269 114.947 34.8498 115.259 34.7293C115.571 34.6017 115.893 34.538 116.226 34.538C116.559 34.538 116.878 34.6017 117.183 34.7293C117.494 34.8498 117.767 35.0269 118.001 35.2607C118.242 35.4946 118.433 35.7851 118.575 36.1323C118.717 36.4724 118.788 36.8622 118.788 37.3015C118.788 37.7408 118.717 38.1341 118.575 38.4813C118.433 38.8215 118.242 39.1084 118.001 39.3423C117.767 39.5761 117.494 39.7568 117.183 39.8844C116.878 40.0048 116.559 40.065 116.226 40.065ZM116.226 38.8002C116.545 38.8002 116.786 38.6656 116.949 38.3963C117.112 38.127 117.193 37.7621 117.193 37.3015C117.193 36.8409 117.112 36.476 116.949 36.2067C116.786 35.9375 116.545 35.8028 116.226 35.8028C115.9 35.8028 115.656 35.9375 115.493 36.2067C115.337 36.476 115.259 36.8409 115.259 37.3015C115.259 37.7621 115.337 38.127 115.493 38.3963C115.656 38.6656 115.9 38.8002 116.226 38.8002ZM119.858 39.9375V34.6655H121.133L121.24 35.3458H121.282C121.502 35.1261 121.736 34.9383 121.984 34.7824C122.232 34.6195 122.529 34.538 122.876 34.538C123.252 34.538 123.553 34.6159 123.78 34.7718C124.014 34.9206 124.198 35.1367 124.333 35.4202C124.566 35.1792 124.811 34.9738 125.066 34.8037C125.328 34.6265 125.636 34.538 125.991 34.538C126.558 34.538 126.972 34.7293 127.234 35.1119C127.504 35.4875 127.638 36.0048 127.638 36.6638V39.9375H126.076V36.8657C126.076 36.4831 126.023 36.2209 125.916 36.0792C125.817 35.9375 125.654 35.8666 125.427 35.8666C125.165 35.8666 124.864 36.0367 124.524 36.3768V39.9375H122.961V36.8657C122.961 36.4831 122.908 36.2209 122.802 36.0792C122.703 35.9375 122.54 35.8666 122.313 35.8666C122.044 35.8666 121.746 36.0367 121.42 36.3768V39.9375H119.858Z" fill="#0077C8"/>
        <path d="M195.917 46.875L205.549 37.155C205.772 36.9246 206.039 36.741 206.332 36.615C206.626 36.489 206.942 36.423 207.261 36.4208C207.581 36.4187 207.897 36.4803 208.193 36.6023C208.488 36.7243 208.757 36.9042 208.983 37.1315C209.208 37.3598 209.387 37.6309 209.508 37.9291C209.628 38.2273 209.69 38.5467 209.687 38.8689C209.685 39.1911 209.62 39.5097 209.495 39.8062C209.37 40.1027 209.188 40.3714 208.96 40.5966L199.327 50.3166L194.74 51.5038L195.917 46.875ZM195.917 46.875L199.331 50.3132M205.274 37.4332L208.684 40.8747M203.883 38.8369L207.293 42.2784" stroke="#0077C8" stroke-width="0.996469" stroke-linecap="round" stroke-linejoin="round"/>
        <path d="M32.2018 53.8906V48.6612H35.2152V49.2192H32.8635V50.8614H34.8485V51.4274H32.8635V53.3246H35.2949V53.8906H32.2018ZM36.3419 53.8906V50.0164H36.884L36.9398 50.5744H36.9637C37.1338 50.3884 37.3171 50.2342 37.5138 50.112C37.7157 49.9845 37.9336 49.9207 38.1674 49.9207C38.4651 49.9207 38.6962 49.9871 38.861 50.12C39.0311 50.2475 39.1559 50.4282 39.2357 50.6621C39.4376 50.4389 39.6396 50.2608 39.8415 50.128C40.0488 49.9898 40.272 49.9207 40.5111 49.9207C40.9097 49.9207 41.2047 50.0482 41.396 50.3033C41.5926 50.5584 41.691 50.9358 41.691 51.4353V53.8906H41.0373V51.523C41.0373 51.1563 40.9788 50.8932 40.8619 50.7338C40.745 50.5691 40.5643 50.4867 40.3198 50.4867C40.0275 50.4867 39.7033 50.686 39.3473 51.0846V53.8906H38.6936V51.523C38.6936 51.1563 38.6351 50.8932 38.5182 50.7338C38.4013 50.5691 38.2179 50.4867 37.9682 50.4867C37.6759 50.4867 37.3517 50.686 36.9956 51.0846V53.8906H36.3419ZM43.8441 53.9863C43.52 53.9863 43.2489 53.8906 43.031 53.6993C42.8184 53.508 42.7122 53.2369 42.7122 52.8862C42.7122 52.461 42.9008 52.1368 43.2781 51.9136C43.6555 51.6851 44.2587 51.5257 45.0877 51.4353C45.0877 51.3131 45.0744 51.1935 45.0479 51.0766C45.0266 50.9597 44.9868 50.856 44.9283 50.7657C44.8698 50.6754 44.7875 50.6036 44.6812 50.5505C44.5802 50.492 44.45 50.4628 44.2906 50.4628C44.0674 50.4628 43.8574 50.5053 43.6608 50.5903C43.4642 50.6754 43.2888 50.771 43.1347 50.8773L42.8796 50.4229C43.0603 50.306 43.2808 50.1944 43.5412 50.0881C43.8016 49.9765 44.0886 49.9207 44.4022 49.9207C44.8752 49.9207 45.2179 50.0668 45.4305 50.3591C45.6431 50.6461 45.7494 51.0314 45.7494 51.515V53.8906H45.2073L45.1515 53.4283H45.1276C44.9416 53.5824 44.7423 53.7152 44.5297 53.8269C44.3171 53.9331 44.0886 53.9863 43.8441 53.9863ZM44.0355 53.4602C44.2215 53.4602 44.3969 53.4176 44.5616 53.3326C44.7263 53.2423 44.9017 53.1121 45.0877 52.942V51.8658C44.7636 51.9083 44.4899 51.9588 44.2666 52.0173C44.0488 52.0757 43.8707 52.1448 43.7325 52.2245C43.5997 52.3042 43.5014 52.3972 43.4376 52.5035C43.3791 52.6045 43.3499 52.7161 43.3499 52.8384C43.3499 53.0616 43.4163 53.221 43.5492 53.3167C43.682 53.4123 43.8441 53.4602 44.0355 53.4602ZM46.9683 53.8906V50.0164H47.622V53.8906H46.9683ZM47.3031 49.2192C47.1756 49.2192 47.0666 49.1793 46.9763 49.0996C46.8913 49.0199 46.8487 48.9189 46.8487 48.7967C46.8487 48.6691 46.8913 48.5682 46.9763 48.4937C47.0666 48.414 47.1756 48.3742 47.3031 48.3742C47.4307 48.3742 47.537 48.414 47.622 48.4937C47.7124 48.5682 47.7575 48.6691 47.7575 48.7967C47.7575 48.9189 47.7124 49.0199 47.622 49.0996C47.537 49.1793 47.4307 49.2192 47.3031 49.2192ZM49.6237 53.9863C49.3739 53.9863 49.1958 53.9119 49.0896 53.7631C48.9833 53.6143 48.9301 53.3964 48.9301 53.1094V48.2147H49.5838V53.1572C49.5838 53.2635 49.6024 53.3379 49.6396 53.3804C49.6768 53.4229 49.7193 53.4442 49.7672 53.4442C49.7884 53.4442 49.807 53.4442 49.823 53.4442C49.8442 53.4442 49.8734 53.4389 49.9106 53.4283L49.9983 53.9225C49.9558 53.9438 49.9053 53.9597 49.8469 53.9703C49.7884 53.981 49.714 53.9863 49.6237 53.9863ZM53.4507 53.9863C53.1265 53.9863 52.8555 53.8906 52.6376 53.6993C52.425 53.508 52.3187 53.2369 52.3187 52.8862C52.3187 52.461 52.5074 52.1368 52.8847 51.9136C53.2621 51.6851 53.8653 51.5257 54.6943 51.4353C54.6943 51.3131 54.681 51.1935 54.6545 51.0766C54.6332 50.9597 54.5933 50.856 54.5349 50.7657C54.4764 50.6754 54.3941 50.6036 54.2878 50.5505C54.1868 50.492 54.0566 50.4628 53.8971 50.4628C53.6739 50.4628 53.464 50.5053 53.2674 50.5903C53.0707 50.6754 52.8954 50.771 52.7412 50.8773L52.4861 50.4229C52.6668 50.306 52.8874 50.1944 53.1478 50.0881C53.4082 49.9765 53.6952 49.9207 54.0087 49.9207C54.4817 49.9207 54.8245 50.0668 55.0371 50.3591C55.2497 50.6461 55.356 51.0314 55.356 51.515V53.8906H54.8139L54.7581 53.4283H54.7342C54.5482 53.5824 54.3489 53.7152 54.1363 53.8269C53.9237 53.9331 53.6952 53.9863 53.4507 53.9863ZM53.642 53.4602C53.8281 53.4602 54.0034 53.4176 54.1682 53.3326C54.3329 53.2423 54.5083 53.1121 54.6943 52.942V51.8658C54.3701 51.9083 54.0964 51.9588 53.8732 52.0173C53.6553 52.0757 53.4773 52.1448 53.3391 52.2245C53.2063 52.3042 53.1079 52.3972 53.0442 52.5035C52.9857 52.6045 52.9565 52.7161 52.9565 52.8384C52.9565 53.0616 53.0229 53.221 53.1558 53.3167C53.2886 53.4123 53.4507 53.4602 53.642 53.4602ZM57.8982 53.9863C57.4093 53.9863 57.0187 53.8109 56.7264 53.4602C56.4394 53.1094 56.2959 52.6098 56.2959 51.9615C56.2959 51.6479 56.3411 51.3662 56.4314 51.1165C56.5271 50.8614 56.652 50.6461 56.8061 50.4707C56.9602 50.2954 57.1382 50.1598 57.3402 50.0642C57.5421 49.9685 57.7547 49.9207 57.9779 49.9207C58.2011 49.9207 58.3951 49.9606 58.5599 50.0403C58.7246 50.12 58.892 50.2289 59.0621 50.3671L59.0302 49.7055V48.2147H59.6919V53.8906H59.1498L59.094 53.4362H59.0701C58.9159 53.585 58.7379 53.7152 58.536 53.8269C58.3393 53.9331 58.1267 53.9863 57.8982 53.9863ZM58.0417 53.4362C58.2224 53.4362 58.3925 53.3937 58.5519 53.3087C58.7113 53.2183 58.8708 53.0828 59.0302 52.9021V50.8773C58.8655 50.7285 58.706 50.6249 58.5519 50.5664C58.4031 50.5026 58.249 50.4707 58.0895 50.4707C57.9354 50.4707 57.7893 50.5079 57.6511 50.5823C57.5182 50.6514 57.4013 50.7524 57.3003 50.8853C57.1994 51.0128 57.1196 51.1669 57.0612 51.3476C57.0027 51.5283 56.9735 51.7303 56.9735 51.9535C56.9735 52.4212 57.0665 52.7852 57.2525 53.0456C57.4385 53.306 57.7016 53.4362 58.0417 53.4362ZM62.32 53.9863C61.8311 53.9863 61.4405 53.8109 61.1482 53.4602C60.8612 53.1094 60.7177 52.6098 60.7177 51.9615C60.7177 51.6479 60.7629 51.3662 60.8532 51.1165C60.9489 50.8614 61.0738 50.6461 61.2279 50.4707C61.382 50.2954 61.5601 50.1598 61.762 50.0642C61.964 49.9685 62.1766 49.9207 62.3998 49.9207C62.623 49.9207 62.817 49.9606 62.9817 50.0403C63.1465 50.12 63.3139 50.2289 63.4839 50.3671L63.452 49.7055V48.2147H64.1137V53.8906H63.5716L63.5158 53.4362H63.4919C63.3378 53.585 63.1597 53.7152 62.9578 53.8269C62.7612 53.9331 62.5486 53.9863 62.32 53.9863ZM62.4635 53.4362C62.6442 53.4362 62.8143 53.3937 62.9737 53.3087C63.1332 53.2183 63.2926 53.0828 63.452 52.9021V50.8773C63.2873 50.7285 63.1279 50.6249 62.9737 50.5664C62.8249 50.5026 62.6708 50.4707 62.5114 50.4707C62.3573 50.4707 62.2111 50.5079 62.0729 50.5823C61.9401 50.6514 61.8231 50.7524 61.7222 50.8853C61.6212 51.0128 61.5415 51.1669 61.483 51.3476C61.4246 51.5283 61.3953 51.7303 61.3953 51.9535C61.3953 52.4212 61.4883 52.7852 61.6743 53.0456C61.8603 53.306 62.1234 53.4362 62.4635 53.4362ZM65.4186 53.8906V50.0164H65.9606L66.0165 50.7179H66.0404C66.1732 50.4734 66.3327 50.2794 66.5187 50.1359C66.71 49.9924 66.9173 49.9207 67.1405 49.9207C67.2946 49.9207 67.4328 49.9473 67.555 50.0004L67.4275 50.5744C67.3637 50.5531 67.3052 50.5372 67.2521 50.5265C67.1989 50.5159 67.1325 50.5106 67.0528 50.5106C66.888 50.5106 66.7153 50.577 66.5346 50.7099C66.3592 50.8428 66.2051 51.0739 66.0723 51.4034V53.8906H65.4186ZM69.6748 53.9863C69.4144 53.9863 69.1699 53.9411 68.9414 53.8508C68.7182 53.7551 68.5216 53.6222 68.3515 53.4522C68.1867 53.2768 68.0565 53.0642 67.9609 52.8144C67.8652 52.5647 67.8174 52.2803 67.8174 51.9615C67.8174 51.6426 67.8652 51.3583 67.9609 51.1085C68.0618 50.8534 68.1921 50.6381 68.3515 50.4628C68.5162 50.2874 68.7022 50.1545 68.9095 50.0642C69.1168 49.9685 69.332 49.9207 69.5552 49.9207C69.7997 49.9207 70.0176 49.9632 70.2089 50.0482C70.4055 50.1333 70.5676 50.2555 70.6952 50.4149C70.828 50.5744 70.929 50.7657 70.9981 50.9889C71.0672 51.2121 71.1017 51.4619 71.1017 51.7383C71.1017 51.8073 71.0991 51.8764 71.0938 51.9455C71.0938 52.0093 71.0885 52.0651 71.0778 52.1129H68.4631C68.4897 52.5275 68.6172 52.857 68.8457 53.1014C69.0796 53.3406 69.3825 53.4602 69.7545 53.4602C69.9405 53.4602 70.1106 53.4336 70.2647 53.3804C70.4241 53.322 70.5756 53.2476 70.7191 53.1572L70.9503 53.5877C70.7802 53.694 70.5916 53.787 70.3843 53.8667C70.177 53.9464 69.9405 53.9863 69.6748 53.9863ZM68.4551 51.6426H70.5278C70.5278 51.2493 70.4427 50.9517 70.2727 50.7498C70.1079 50.5425 69.8741 50.4389 69.5712 50.4389C69.433 50.4389 69.3001 50.4654 69.1726 50.5186C69.0503 50.5717 68.9387 50.6514 68.8378 50.7577C68.7368 50.8587 68.6518 50.9836 68.5827 51.1324C68.5189 51.2812 68.4764 51.4513 68.4551 51.6426ZM73.0715 53.9863C72.7952 53.9863 72.5321 53.9358 72.2823 53.8348C72.0325 53.7338 71.8146 53.6063 71.6286 53.4522L71.9555 53.0137C72.1255 53.1519 72.2983 53.2635 72.4736 53.3485C72.6543 53.4336 72.8616 53.4761 73.0954 53.4761C73.3505 53.4761 73.5418 53.4176 73.6694 53.3007C73.7969 53.1838 73.8607 53.0403 73.8607 52.8702C73.8607 52.7693 73.8341 52.6816 73.781 52.6072C73.7279 52.5328 73.6588 52.469 73.5737 52.4159C73.494 52.3574 73.401 52.3069 73.2947 52.2644C73.1884 52.2219 73.0821 52.1794 72.9759 52.1368C72.8377 52.089 72.6995 52.0359 72.5613 51.9774C72.4231 51.9136 72.2983 51.8392 72.1867 51.7542C72.0804 51.6638 71.9927 51.5602 71.9236 51.4433C71.8545 51.3264 71.8199 51.1855 71.8199 51.0208C71.8199 50.8667 71.8492 50.7232 71.9076 50.5903C71.9714 50.4521 72.0591 50.3352 72.1707 50.2396C72.2876 50.1386 72.4285 50.0615 72.5932 50.0084C72.758 49.9499 72.944 49.9207 73.1512 49.9207C73.3957 49.9207 73.6189 49.9632 73.8209 50.0482C74.0281 50.1333 74.2062 50.2369 74.355 50.3591L74.0441 50.7737C73.9112 50.6727 73.773 50.5903 73.6295 50.5265C73.486 50.4628 73.3293 50.4309 73.1592 50.4309C72.9147 50.4309 72.734 50.4867 72.6171 50.5983C72.5055 50.7099 72.4497 50.8401 72.4497 50.9889C72.4497 51.0793 72.4736 51.159 72.5215 51.2281C72.5693 51.2918 72.6331 51.3503 72.7128 51.4034C72.7925 51.4513 72.8828 51.4964 72.9838 51.539C73.0901 51.5762 73.1991 51.616 73.3107 51.6585C73.4488 51.7117 73.587 51.7675 73.7252 51.8259C73.8687 51.8844 73.9962 51.9588 74.1078 52.0492C74.2194 52.1342 74.3098 52.2405 74.3789 52.368C74.4533 52.4956 74.4905 52.6497 74.4905 52.8304C74.4905 52.9898 74.4586 53.1386 74.3948 53.2768C74.3364 53.415 74.246 53.5372 74.1238 53.6435C74.0069 53.7498 73.8581 53.8322 73.6774 53.8906C73.502 53.9544 73.3 53.9863 73.0715 53.9863ZM76.4112 53.9863C76.1349 53.9863 75.8718 53.9358 75.622 53.8348C75.3723 53.7338 75.1544 53.6063 74.9684 53.4522L75.2952 53.0137C75.4653 53.1519 75.638 53.2635 75.8134 53.3485C75.9941 53.4336 76.2013 53.4761 76.4352 53.4761C76.6903 53.4761 76.8816 53.4176 77.0091 53.3007C77.1367 53.1838 77.2004 53.0403 77.2004 52.8702C77.2004 52.7693 77.1739 52.6816 77.1207 52.6072C77.0676 52.5328 76.9985 52.469 76.9135 52.4159C76.8337 52.3574 76.7407 52.3069 76.6345 52.2644C76.5282 52.2219 76.4219 52.1794 76.3156 52.1368C76.1774 52.089 76.0392 52.0359 75.9011 51.9774C75.7629 51.9136 75.638 51.8392 75.5264 51.7542C75.4201 51.6638 75.3324 51.5602 75.2633 51.4433C75.1942 51.3264 75.1597 51.1855 75.1597 51.0208C75.1597 50.8667 75.1889 50.7232 75.2474 50.5903C75.3111 50.4521 75.3988 50.3352 75.5104 50.2396C75.6274 50.1386 75.7682 50.0615 75.9329 50.0084C76.0977 49.9499 76.2837 49.9207 76.491 49.9207C76.7354 49.9207 76.9586 49.9632 77.1606 50.0482C77.3679 50.1333 77.5459 50.2369 77.6947 50.3591L77.3838 50.7737C77.2509 50.6727 77.1128 50.5903 76.9693 50.5265C76.8258 50.4628 76.669 50.4309 76.4989 50.4309C76.2545 50.4309 76.0738 50.4867 75.9569 50.5983C75.8452 50.7099 75.7894 50.8401 75.7894 50.9889C75.7894 51.0793 75.8134 51.159 75.8612 51.2281C75.909 51.2918 75.9728 51.3503 76.0525 51.4034C76.1322 51.4513 76.2226 51.4964 76.3236 51.539C76.4298 51.5762 76.5388 51.616 76.6504 51.6585C76.7886 51.7117 76.9268 51.7675 77.0649 51.8259C77.2084 51.8844 77.336 51.9588 77.4476 52.0492C77.5592 52.1342 77.6495 52.2405 77.7186 52.368C77.793 52.4956 77.8302 52.6497 77.8302 52.8304C77.8302 52.9898 77.7983 53.1386 77.7346 53.2768C77.6761 53.415 77.5857 53.5372 77.4635 53.6435C77.3466 53.7498 77.1978 53.8322 77.0171 53.8906C76.8417 53.9544 76.6398 53.9863 76.4112 53.9863Z" fill="#5E6873"/>
    </g>
    <rect x="0.582156" y="0.332156" width="243.836" height="240.836" rx="6.31097" stroke="#5E6873" stroke-width="0.664313"/>
    <defs>
        <filter id="filter0_d_971_13732" x="18.8664" y="117.624" width="208.594" height="50.4878" filterUnits="userSpaceOnUse" color-interpolation-filters="sRGB">
            <feFlood flood-opacity="0" result="BackgroundImageFix"/>
            <feColorMatrix in="SourceAlpha" type="matrix" values="0 0 0 0 0 0 0 0 0 0 0 0 0 0 0 0 0 0 127 0" result="hardAlpha"/>
            <feMorphology radius="1.99294" operator="dilate" in="SourceAlpha" result="effect1_dropShadow_971_13732"/>
            <feOffset/>
            <feComposite in2="hardAlpha" operator="out"/>
            <feColorMatrix type="matrix" values="0 0 0 0 1 0 0 0 0 0.72 0 0 0 0 0 0 0 0 1 0"/>
            <feBlend mode="normal" in2="BackgroundImageFix" result="effect1_dropShadow_971_13732"/>
            <feBlend mode="normal" in="SourceGraphic" in2="effect1_dropShadow_971_13732" result="shape"/>
        </filter>
        <clipPath id="clip0_971_13732">
            <rect x="0.25" width="244.5" height="241.5" rx="6.64313" fill="white"/>
        </clipPath>
    </defs>
</svg>
