<svg width="187" height="226" viewBox="0 0 187 226" fill="none" xmlns="http://www.w3.org/2000/svg">
    <g clip-path="url(#clip0_971_12988)">
        <path d="M60.7177 99.0103C60.7177 99.0103 64.8566 103.3 65.2241 105.719L61.6234 107.799L57.4677 100.494L55.2759 90.7442C55.07 90.5374 54.9223 90.2798 54.8479 89.9973C54.7734 89.7148 54.7747 89.4176 54.8518 89.1358C54.9288 88.8541 55.0789 88.5978 55.2866 88.3929C55.4944 88.1881 55.7525 88.0421 56.0347 87.9697C56.3169 87.8972 56.6132 87.901 56.8935 87.9805C57.1739 88.0601 57.4282 88.2126 57.6307 88.4226C57.8333 88.6327 57.9768 88.8927 58.0467 89.1763C58.1167 89.46 58.1105 89.7571 58.029 90.0376L60.7177 99.0103Z"
              fill="#FFB6B6"/>
        <path d="M99.11 88.7244C99.0388 88.4411 99.0437 88.1439 99.1241 87.8631C99.2045 87.5822 99.3575 87.3277 99.5677 87.1254C99.7778 86.923 100.038 86.7801 100.321 86.711C100.604 86.6419 100.9 86.6492 101.179 86.7321C101.459 86.815 101.711 86.9705 101.911 87.1829C102.111 87.3953 102.252 87.657 102.318 87.9415C102.385 88.2259 102.375 88.523 102.29 88.8025C102.206 89.082 102.048 89.334 101.835 89.5329L99.2841 99.1949L94.8611 106.339L91.3398 104.127C91.7965 101.724 96.0912 97.5909 96.0912 97.5909L99.11 88.7244Z"
              fill="#FFB6B6"/>
        <path d="M33.5202 123.769C33.4943 118.075 35.6733 112.708 38.0953 107.658C40.5981 102.44 43.4472 97.3213 44.8616 91.664C45.6874 88.5488 45.8883 85.3 45.4525 82.1063C45.3671 81.5369 44.5044 81.7788 44.5893 82.345C45.4566 88.1233 43.582 93.878 41.2476 99.0894C38.9327 104.257 36.0468 109.173 34.2407 114.563C33.2019 117.522 32.656 120.632 32.625 123.769C32.629 123.886 32.6779 123.996 32.7614 124.077C32.8449 124.158 32.9565 124.203 33.0726 124.203C33.1887 124.203 33.3002 124.158 33.3837 124.077C33.4672 123.996 33.5161 123.886 33.5202 123.769Z"
              fill="#E6E6E6"/>
        <path d="M59.5332 125.682C59.3418 123.258 61.048 121.236 63.0619 120.123C65.6177 118.711 68.7109 118.833 71.5353 118.916C74.4327 119.032 77.3347 118.894 80.2081 118.503C86.9937 117.514 93.4505 114.931 99.0526 110.966C104.655 107 109.243 101.763 112.445 95.6816C115.102 90.6377 116.972 84.8221 116.225 79.062C116.135 78.3616 116.006 77.6667 115.84 76.9804C115.703 76.4193 114.84 76.657 114.976 77.2191C116.367 82.9415 114.773 88.9354 112.245 94.1011C109.921 98.8367 106.752 103.105 102.894 106.694C98.8532 110.453 94.1196 113.385 88.9588 115.324C86.2786 116.329 83.5063 117.067 80.6819 117.527C77.8192 117.971 74.9208 118.141 72.026 118.033C69.148 117.949 66.0979 117.797 63.3932 118.965C61.2764 119.879 59.3113 121.69 58.766 124.005C58.6368 124.554 58.5936 125.12 58.638 125.682C58.6832 126.255 59.5787 126.259 59.5332 125.682Z"
              fill="#E6E6E6"/>
        <path d="M150.704 42.6922C149.65 42.2164 148.615 41.7585 147.624 41.3365C147.475 41.2737 147.326 41.2078 147.177 41.145L147.159 41.136C146.267 40.7529 145.372 40.3778 144.476 40.0107C143.85 39.7534 143.226 39.499 142.599 39.2506C142.355 39.1488 142.11 39.0531 141.862 38.9573C141.465 38.7987 141.066 38.6431 140.669 38.4874C140.341 38.3588 140.009 38.2331 139.681 38.1074C139.302 37.9607 138.923 37.8201 138.547 37.6764C138.1 37.5088 137.653 37.3432 137.207 37.1796C137.203 37.1772 137.198 37.1762 137.193 37.1766C136.855 37.0509 136.518 36.9282 136.184 36.8085C131.646 35.1685 127.041 33.7021 122.494 32.4481C122.33 32.4032 122.166 32.3583 122.002 32.3134C121.718 32.2356 121.435 32.1578 121.151 32.08C120.65 31.9453 120.147 31.8137 119.641 31.685C119.167 31.5593 118.69 31.4396 118.212 31.3199C117.791 31.2151 117.371 31.1104 116.947 31.0086C116.532 30.9069 116.118 30.8081 115.7 30.7123C114.455 30.419 113.213 30.1417 111.973 29.8804C111.964 29.8779 111.955 29.8769 111.946 29.8774C111.648 29.8115 111.352 29.7487 111.054 29.6888C106.524 28.7581 101.917 28.0099 97.3609 27.4622C97.1371 27.4353 96.9134 27.4084 96.6896 27.3844H96.6836C96.6448 27.3784 96.603 27.3755 96.5642 27.3725C96.1883 27.3276 95.8123 27.2857 95.4363 27.2468C94.941 27.1929 94.4487 27.142 93.9533 27.0941C92.7807 26.9774 91.61 26.8757 90.4413 26.7889C90.1459 26.7649 89.8535 26.744 89.5611 26.726C89.2239 26.6991 88.8867 26.6781 88.5526 26.6572C88.2064 26.6333 87.8603 26.6123 87.5142 26.5944C87.3829 26.5854 87.2546 26.5794 87.1263 26.5734C86.9651 26.5614 86.801 26.5554 86.6399 26.5465C86.3982 26.5345 86.1565 26.5225 85.9148 26.5106C81.3674 26.2921 76.7633 26.2741 72.2278 26.4567C71.9772 26.4657 71.7265 26.4776 71.4729 26.4896H71.4639C71.2819 26.4986 71.0999 26.5046 70.9149 26.5136C70.8493 26.5165 70.7806 26.5195 70.715 26.5225C70.2644 26.5465 69.8139 26.5704 69.3633 26.5973C68.8829 26.6243 68.4055 26.6542 67.9281 26.6871C67.6267 26.7081 67.3283 26.729 67.0299 26.75C66.833 26.7649 66.636 26.7799 66.4361 26.7949C65.1889 26.8906 63.9416 27.0014 62.7033 27.1271C62.2885 27.169 61.8768 27.2109 61.465 27.2557C61.2352 27.2797 61.0085 27.3036 60.7817 27.3306C56.2343 27.8453 51.6272 28.5725 47.0917 29.4883C46.7933 29.5482 46.492 29.611 46.1906 29.6739C46.1846 29.6739 46.1786 29.6769 46.1727 29.6769C46.1279 29.6858 46.0802 29.6948 46.0354 29.7068C45.7251 29.7696 45.4118 29.8355 45.1015 29.9043C44.7583 29.9761 44.4182 30.0509 44.075 30.1258C43.7886 30.1886 43.5021 30.2545 43.2157 30.3203C42.5413 30.4729 41.864 30.6285 41.1896 30.7931C39.817 31.1224 38.4455 31.4705 37.0749 31.8376C36.7645 31.9214 36.4512 32.0052 36.1379 32.092C36.1356 32.0922 36.1335 32.0933 36.132 32.095C35.9708 32.1369 35.8067 32.1818 35.6456 32.2267C31.1101 33.4776 26.506 34.956 21.9586 36.626C21.6244 36.7487 21.2902 36.8714 20.953 37.0001C20.9448 37.0006 20.9367 37.0027 20.9292 37.006C20.025 37.3442 19.116 37.6914 18.2019 38.0475C17.8707 38.1792 17.5365 38.3109 17.2023 38.4426C16.8801 38.5712 16.5548 38.6999 16.2326 38.8316C15.9491 38.9453 15.6686 39.0591 15.3851 39.1758C15.1584 39.2685 14.9346 39.3613 14.7078 39.4541C13.932 39.7773 13.1572 40.1045 12.3834 40.4357C11.9149 40.6392 11.4434 40.8427 10.975 41.0492C10.8228 41.1151 10.6676 41.1809 10.5155 41.2497C9.38756 41.7495 8.36111 42.2134 7.37644 42.6713C6.32776 43.1577 5.43933 43.9343 4.81561 44.9098C4.19189 45.8853 3.85878 47.0191 3.85547 48.1779V58.7392C3.85546 59.6801 4.07404 60.6081 4.49388 61.4496C4.91371 62.291 5.52324 63.0228 6.27414 63.5868C7.02504 64.1509 7.89664 64.5317 8.81983 64.6991C9.74301 64.8664 10.6924 64.8158 11.5926 64.5511C12.0372 64.4194 12.4818 64.2877 12.9294 64.1561C13.3024 64.0453 13.6784 63.9376 14.0513 63.8298C14.4601 63.7131 14.8659 63.5964 15.2747 63.4797C16.2087 63.2193 17.1486 62.959 18.0885 62.7076C18.5271 62.5909 18.9658 62.4741 19.4044 62.3574C20.0937 62.1749 20.783 61.9983 21.4722 61.8217C21.6632 61.7738 21.8542 61.726 22.0451 61.6781C25.0439 60.9239 28.0576 60.2236 31.0475 59.5891C31.3548 59.5233 31.6621 59.4605 31.9665 59.3976C33.2227 59.1343 34.4719 58.8849 35.7142 58.6494L36.6094 58.4789H36.6183C36.9108 58.422 37.2032 58.3681 37.4956 58.3143C38.3132 58.1646 39.1357 58.019 39.9633 57.8773C40.4377 57.7935 40.9151 57.7127 41.3925 57.6349C41.4403 57.6259 41.488 57.6169 41.5357 57.611C42.3593 57.4733 43.1848 57.3406 44.0124 57.2129C44.5733 57.1262 45.1373 57.0394 45.7012 56.9586C46.1816 56.8867 46.662 56.8179 47.1424 56.7491C51.6958 56.1086 56.294 55.5969 60.8115 55.2377C61.2024 55.2048 61.5933 55.1749 61.9842 55.145C63.5 55.0312 65.0277 54.9295 66.5585 54.8457C68.4502 54.7439 70.348 54.6631 72.2368 54.6063C76.7722 54.4656 81.3704 54.4656 85.9029 54.6063C87.7946 54.6631 89.6924 54.7439 91.5842 54.8457C93.1149 54.9295 94.6426 55.0313 96.1584 55.145C96.5493 55.1749 96.9402 55.2048 97.3311 55.2377C101.846 55.5969 106.444 56.1056 111.003 56.7491C111.221 56.779 111.436 56.8119 111.654 56.8418C111.731 56.8538 111.806 56.8628 111.883 56.8748C112.215 56.9226 112.546 56.9735 112.877 57.0214C114.121 57.207 115.365 57.4035 116.607 57.611C116.926 57.6618 117.245 57.7157 117.562 57.7696C118.245 57.8863 118.925 58.005 119.603 58.1257C119.997 58.1975 120.387 58.2694 120.778 58.3412C121.026 58.3861 121.277 58.431 121.524 58.4789C121.826 58.5357 122.127 58.5926 122.425 58.6494C122.918 58.7422 123.41 58.838 123.905 58.9368C124.216 58.9996 124.529 59.0594 124.842 59.1253C128.181 59.7987 131.553 60.5558 134.91 61.3818C135.259 61.4686 135.608 61.5554 135.957 61.6422C136.005 61.6541 136.05 61.6661 136.098 61.6781C136.459 61.7679 136.82 61.8606 137.181 61.9534C137.697 62.0851 138.214 62.2198 138.732 62.3574C139.171 62.4712 139.61 62.5879 140.048 62.7076C141.403 63.0697 142.758 63.4468 144.103 63.8328C144.924 64.0693 145.74 64.3087 146.553 64.5511H146.559C146.883 64.6473 147.214 64.7154 147.55 64.7546C147.787 64.7845 148.026 64.7995 148.266 64.7995C149.865 64.7961 151.398 64.1559 152.527 63.0195C153.656 61.8831 154.289 60.3436 154.287 58.7392V48.2258C154.284 47.0553 153.944 45.9106 153.309 44.9291C152.673 43.9475 151.768 43.1708 150.704 42.6922Z"
              fill="#0077C8"/>
        <path d="M21.7645 37.1066C21.6475 37.0253 21.513 36.9728 21.3719 36.9536C21.2309 36.9343 21.0873 36.9488 20.9529 36.9959C20.9446 36.9964 20.9365 36.9985 20.929 37.0019C20.0249 37.34 19.1158 37.6872 18.2017 38.0433C17.8705 38.175 17.5363 38.3067 17.2021 38.4384C16.8799 38.5671 16.5547 38.6957 16.2324 38.8274C15.9489 38.9411 15.6684 39.0549 15.385 39.1716C15.1582 39.2644 14.9344 39.3571 14.7076 39.4499C13.9318 39.7731 13.157 40.1003 12.3832 40.4315C11.9147 40.635 11.4433 40.8385 10.9748 41.045C10.8116 41.1164 10.6727 41.2339 10.5752 41.3833C10.4776 41.5327 10.4257 41.7074 10.4258 41.886V63.664C10.4252 63.8078 10.4584 63.9496 10.5227 64.078C10.587 64.2064 10.6805 64.3179 10.7958 64.4033C10.869 64.4571 10.9493 64.5004 11.0345 64.5319C11.2145 64.5954 11.41 64.5996 11.5925 64.5439L12.9263 64.1489C13.2992 64.0411 13.6722 63.9334 14.0452 63.8257C14.454 63.7089 14.8628 63.5922 15.2746 63.4755C16.2085 63.2151 17.1485 62.9548 18.0884 62.7034C18.527 62.5837 18.9656 62.467 19.4043 62.3532C20.0935 62.1707 20.7828 61.9941 21.4721 61.8175C21.6422 61.774 21.7965 61.6826 21.9167 61.5542L21.9197 61.5512C22.0729 61.3826 22.158 61.1628 22.1584 60.9347V37.8608C22.1585 37.7125 22.1227 37.5664 22.0541 37.435C21.9855 37.3036 21.8861 37.191 21.7645 37.1066Z"
              fill="#3F3D56"/>
        <path d="M46.9315 29.8613C46.8296 29.7771 46.7105 29.7165 46.5825 29.6839C46.4546 29.6513 46.321 29.6475 46.1915 29.6727C46.1855 29.6727 46.1795 29.6757 46.1736 29.6757C46.1288 29.6847 46.0811 29.6937 46.0363 29.7056C45.726 29.7685 45.4127 29.8343 45.1024 29.9032C44.7592 29.975 44.4191 30.0498 44.0759 30.1246C43.7895 30.1875 43.503 30.2533 43.2165 30.3191C42.5422 30.4718 41.8649 30.6274 41.1905 30.792C39.8149 31.1212 38.4434 31.4694 37.0758 31.8365C36.7893 31.9113 36.4999 31.9891 36.2134 32.0669C36.1881 32.0735 36.1632 32.0815 36.1388 32.0908C36.1365 32.0911 36.1344 32.0921 36.1329 32.0938C35.9588 32.1598 35.8088 32.2773 35.7028 32.4307C35.5967 32.584 35.5397 32.7661 35.5391 32.9527V57.5799C35.5388 57.7141 35.568 57.8468 35.6248 57.9683C35.6815 58.0899 35.7643 58.1974 35.8673 58.2832C35.9379 58.3423 36.0175 58.3898 36.103 58.4238C36.2129 58.469 36.3304 58.4924 36.4491 58.4927C36.5032 58.4921 36.5571 58.4871 36.6103 58.4777H36.6192C36.9116 58.4208 37.2041 58.367 37.4965 58.3131C38.3141 58.1635 39.1366 58.0178 39.9641 57.8762C40.4386 57.7924 40.916 57.7116 41.3934 57.6338C41.4412 57.6248 41.4889 57.6158 41.5366 57.6098C42.3602 57.4722 43.1857 57.3395 44.0132 57.2118C44.5742 57.125 45.1382 57.0382 45.7021 56.9574C45.9647 56.9155 46.2273 56.8796 46.4899 56.8407C46.6637 56.8166 46.8267 56.7416 46.9583 56.6252C47.0564 56.5394 47.135 56.4337 47.1891 56.315C47.2431 56.1963 47.2712 56.0674 47.2716 55.9369V30.5735C47.2717 30.4368 47.2412 30.3019 47.1823 30.1786C47.1235 30.0553 47.0377 29.9469 46.9315 29.8613Z"
              fill="#3F3D56"/>
        <path d="M72.0975 26.7427C71.9283 26.5813 71.7044 26.4904 71.4709 26.4883H71.4262C71.2561 26.4973 71.083 26.5032 70.913 26.5122C70.8473 26.5152 70.7787 26.5182 70.713 26.5212C70.2625 26.5451 69.8119 26.5691 69.3613 26.596C68.8809 26.623 68.4035 26.6529 67.9261 26.6858C67.6247 26.7068 67.3263 26.7277 67.028 26.7486C66.831 26.7636 66.6341 26.7786 66.4342 26.7935C65.1869 26.8893 63.9396 27 62.7013 27.1257C62.2866 27.1676 61.8748 27.2095 61.463 27.2544C61.2388 27.2787 61.0314 27.3854 60.881 27.5539C60.7305 27.7225 60.6477 27.941 60.6484 28.1672V54.2608C60.6482 54.3863 60.6741 54.5105 60.7244 54.6254C60.7748 54.7403 60.8485 54.8434 60.9409 54.9281C60.9965 54.9809 61.0587 55.0261 61.1259 55.0628C61.2597 55.1354 61.4094 55.1735 61.5615 55.1736C61.5824 55.1736 61.6063 55.1706 61.6301 55.1706C61.7465 55.1616 61.8659 55.1526 61.9822 55.1436C63.498 55.0299 65.0258 54.9282 66.5565 54.8444C68.2066 54.7516 69.8567 54.6798 71.4978 54.6259C71.6753 54.6232 71.8479 54.5668 71.9931 54.4643C72.1135 54.3798 72.2116 54.2674 72.2792 54.1365C72.3467 54.0057 72.3817 53.8604 72.381 53.7131V27.407C72.3815 27.2828 72.3566 27.1597 72.3079 27.0454C72.2591 26.9311 72.1875 26.8281 72.0975 26.7427Z"
              fill="#3F3D56"/>
        <path d="M96.6916 27.3811H96.6857C96.6469 27.3751 96.6051 27.3721 96.5663 27.3691C96.1904 27.3242 95.8144 27.2823 95.4384 27.2434C94.9431 27.1895 94.4508 27.1386 93.9554 27.0908C92.7828 26.974 91.6121 26.8723 90.4434 26.7855C90.148 26.7616 89.8556 26.7406 89.5632 26.7227C89.226 26.6957 88.8888 26.6748 88.5546 26.6538C88.2085 26.6299 87.8624 26.6089 87.5162 26.591C87.385 26.582 87.2567 26.576 87.1283 26.57C86.9911 26.561 86.8568 26.5521 86.7225 26.5461C86.6958 26.5436 86.6689 26.5426 86.642 26.5431C86.4197 26.5497 86.208 26.6394 86.0482 26.7945C85.9574 26.8801 85.8851 26.9835 85.8359 27.0983C85.7866 27.2131 85.7614 27.3369 85.7617 27.4619V53.7111C85.761 53.8587 85.7962 54.0043 85.8643 54.1353C85.9324 54.2662 86.0314 54.3784 86.1526 54.4622C86.2967 54.5648 86.4683 54.6211 86.645 54.6238C88.2861 54.6777 89.9362 54.7495 91.5862 54.8423C93.117 54.9261 94.6447 55.0279 96.1605 55.1416C96.2769 55.1506 96.3962 55.1595 96.5126 55.1685C96.5365 55.1685 96.5574 55.1715 96.5813 55.1715C96.7334 55.1714 96.8831 55.1334 97.0169 55.0608C97.0841 55.0241 97.1463 54.9788 97.2019 54.9261C97.2937 54.841 97.3671 54.7378 97.4174 54.6229C97.4677 54.5081 97.4939 54.3841 97.4943 54.2587V28.2908C97.4936 28.0673 97.4117 27.8516 97.264 27.6842C97.1163 27.5168 96.9128 27.409 96.6916 27.3811Z"
              fill="#3F3D56"/>
        <path d="M122.001 32.3147C121.978 32.3054 121.954 32.2974 121.929 32.2908C121.67 32.2189 121.41 32.1501 121.151 32.0813C120.649 31.9466 120.146 31.8149 119.641 31.6862C119.166 31.5605 118.689 31.4408 118.211 31.3211C117.791 31.2164 117.37 31.1116 116.946 31.0099C116.531 30.9081 116.117 30.8094 115.699 30.7136C114.455 30.4203 113.212 30.143 111.972 29.8816C111.963 29.8792 111.954 29.8781 111.945 29.8786C111.817 29.8545 111.684 29.8589 111.557 29.8914C111.431 29.924 111.313 29.984 111.211 30.0672C111.105 30.1528 111.019 30.2612 110.96 30.3845C110.902 30.5078 110.871 30.6428 110.871 30.7794V55.9393C110.871 56.0701 110.9 56.1993 110.954 56.3181C111.009 56.4369 111.088 56.5424 111.187 56.6276C111.318 56.744 111.48 56.819 111.653 56.8431C111.73 56.8551 111.805 56.864 111.883 56.876C112.214 56.9239 112.545 56.9718 112.876 57.0227C114.121 57.2082 115.364 57.4047 116.606 57.6122C116.925 57.6631 117.245 57.717 117.561 57.7708C118.244 57.8876 118.925 58.0063 119.602 58.127C119.996 58.1988 120.387 58.2706 120.778 58.3424C121.025 58.3873 121.276 58.4322 121.524 58.4801C121.58 58.4895 121.637 58.4945 121.694 58.4951C121.812 58.4951 121.93 58.4717 122.04 58.4262C122.126 58.3929 122.205 58.3454 122.275 58.2856C122.378 58.1998 122.461 58.0923 122.518 57.9708C122.575 57.8492 122.604 57.7165 122.604 57.5823V33.1766C122.603 32.9883 122.545 32.8047 122.438 32.6505C122.33 32.4964 122.177 32.3791 122.001 32.3147Z"
              fill="#3F3D56"/>
        <path d="M147.177 41.146L147.159 41.137C146.267 40.754 145.373 40.3789 144.476 40.0118C143.85 39.7544 143.226 39.5 142.6 39.2516C142.355 39.1499 142.11 39.0541 141.863 38.9583C141.466 38.7997 141.066 38.6441 140.669 38.4885C140.341 38.3598 140.01 38.2341 139.681 38.1084C139.302 37.9618 138.924 37.8211 138.548 37.6775C138.1 37.5099 137.653 37.3443 137.208 37.1807C137.203 37.1782 137.198 37.1772 137.193 37.1777C137.058 37.1288 136.912 37.1136 136.77 37.1334C136.628 37.1533 136.492 37.2075 136.375 37.2914C136.255 37.3758 136.156 37.4881 136.088 37.6189C136.02 37.7497 135.984 37.895 135.984 38.0426V60.9399C135.984 61.13 136.044 61.3152 136.154 61.4696C136.176 61.4998 136.199 61.5288 136.223 61.5564L136.226 61.5594C136.346 61.6884 136.5 61.7799 136.671 61.8228C136.841 61.8647 137.011 61.9095 137.181 61.9544C137.697 62.0861 138.214 62.2208 138.733 62.3585C139.171 62.4722 139.61 62.5889 140.048 62.7086C141.403 63.0707 142.758 63.4478 144.103 63.8339C144.924 64.0703 145.741 64.3097 146.553 64.5521H146.559C146.642 64.5758 146.727 64.5879 146.813 64.588C146.913 64.5877 147.013 64.5705 147.108 64.5372C147.194 64.5068 147.274 64.4634 147.347 64.4085C147.461 64.3225 147.554 64.2108 147.618 64.0825C147.682 63.9542 147.714 63.8126 147.714 63.6693V41.981C147.714 41.8047 147.664 41.632 147.569 41.4839C147.473 41.3357 147.337 41.2184 147.177 41.146Z"
              fill="#3F3D56"/>
        <path d="M12.9488 64.169C16.8345 66.795 20.8917 69.1563 24.9804 71.4471C29.3544 73.8978 33.7741 76.2653 38.1488 78.7146C42.55 81.1786 46.9122 83.7221 51.1201 86.5081C55.2119 89.1642 59.0805 92.1511 62.6874 95.439C66.1034 98.6103 69.1973 102.154 71.6295 106.145C71.9196 106.621 72.1999 107.103 72.4705 107.59C72.7514 108.095 73.5248 107.642 73.2434 107.137C70.927 103.069 68.043 99.3528 64.6789 96.1024C61.161 92.7049 57.3523 89.6241 53.2967 86.8953C49.1163 84.0254 44.7583 81.4247 40.3502 78.9249C35.9549 76.4324 31.5026 74.0433 27.0842 71.5926C22.9251 69.2857 18.7867 66.9283 14.8028 64.3256C14.333 64.0187 13.8656 63.708 13.4007 63.3937C12.9216 63.07 12.4731 63.8474 12.9488 64.169Z"
              fill="#3F3D56"/>
        <path d="M28.053 53.6335C29.9147 57.8412 32.202 61.8463 34.879 65.5857C37.6187 69.4153 40.5491 73.1039 43.659 76.6376C46.7699 80.2321 49.974 83.7438 53.1075 87.3184C56.2052 90.8523 59.2426 94.4486 62.0163 98.2465C64.7688 101.943 67.1593 105.897 69.1547 110.054C69.3961 110.57 69.6295 111.089 69.8549 111.612C70.0833 112.14 70.8548 111.684 70.6278 111.158C68.7661 106.951 66.4788 102.946 63.8019 99.2062C61.0622 95.3766 58.1318 91.6879 55.0219 88.1543C51.9109 84.5598 48.7069 81.048 45.5734 77.4735C42.4756 73.9396 39.4383 70.3433 36.6646 66.5454C33.9121 62.8488 31.5216 58.8945 29.5262 54.7374C29.2847 54.222 29.0513 53.703 28.826 53.1803C28.5975 52.6516 27.8261 53.1082 28.053 53.6335Z"
              fill="#3F3D56"/>
        <path d="M137.48 58.9883C134.066 62.2558 130.45 65.3044 126.654 68.1163C122.715 71.0896 118.67 73.9166 114.644 76.7694C110.625 79.6177 106.62 82.4909 102.761 85.5556C99.0373 88.4528 95.5403 91.632 92.3009 95.0651C89.2777 98.3345 86.5681 101.935 84.537 105.912C84.2927 106.39 84.0586 106.873 83.8347 107.362C83.595 107.883 84.3663 108.339 84.6076 107.815C86.4976 103.817 88.9582 100.118 91.9121 96.8321C95.0356 93.3578 98.4403 90.1488 102.092 87.2377C105.885 84.1492 109.847 81.2763 113.831 78.4425C117.86 75.5769 121.92 72.7545 125.888 69.8039C129.721 67.0081 133.394 63.9986 136.891 60.7896C137.302 60.4051 137.709 60.0163 138.112 59.6232C138.526 59.2198 137.893 58.5852 137.48 58.9883Z"
              fill="#3F3D56"/>
        <path d="M128.249 50.7234C126.388 54.9312 124.1 58.9362 121.423 62.6756C118.682 66.5038 115.748 70.1897 112.633 73.7192C109.519 77.3111 106.315 80.8227 103.184 84.3994C100.088 87.9355 97.0599 91.5385 94.2861 95.3364C91.5336 99.0331 89.1431 102.987 87.1477 107.144C86.9063 107.66 86.6729 108.179 86.4475 108.701C86.2208 109.226 86.9918 109.684 87.2204 109.155C89.0822 104.947 91.3695 100.942 94.0464 97.2024C96.788 93.3743 99.7219 89.6883 102.837 86.1589C105.951 82.567 109.155 79.0554 112.286 75.4787C115.382 71.9426 118.41 68.3396 121.184 64.5416C123.936 60.845 126.327 56.8907 128.322 52.7337C128.564 52.2183 128.797 51.6993 129.022 51.1766C129.249 50.6518 128.478 50.1941 128.249 50.7234Z"
              fill="#3F3D56"/>
        <path d="M62.168 164.714L62.7322 166.677L70.5505 165.429L69.7177 162.531L62.168 164.714Z" fill="#FFB6B6"/>
        <path d="M60.1055 165.234L61.8403 171.271L61.9164 171.249C62.5378 171.07 63.0625 170.65 63.3752 170.082C63.688 169.515 63.7631 168.846 63.5841 168.222L64.1013 166.878L62.6759 165.062L62.5244 164.535L60.1055 165.234Z"
              fill="#2F2E41"/>
        <path d="M95.7346 174.358L97.7222 173.91L96.9452 166.008L94.0117 166.669L95.7346 174.358Z" fill="#FFB6B6"/>
        <path d="M95.552 176.594L101.664 175.217L101.646 175.139C101.504 174.506 101.118 173.956 100.572 173.609C100.025 173.262 99.3638 173.147 98.7329 173.289L97.4261 172.691L95.5335 174.01L95 174.131L95.552 176.594Z"
              fill="#2F2E41"/>
        <path d="M89.6535 132.035L98.6532 169.073L94.251 169.464L89.373 157.069L81.8432 142.48L82.5238 159.132L68.5148 167.349L65.2227 162.826L76.4219 156.784L71.5298 134.747L72.8319 132.035L89.6535 132.035Z"
              fill="#2F2E41"/>
        <path d="M71.6187 135.277C70.1598 133.228 72.8588 129.855 73.1897 129.142C72.7967 129.014 72.4601 128.753 72.2372 128.404C72.0142 128.056 71.9188 127.64 71.967 127.228L72.1097 126.012L72.2584 124.819L71.193 123.75L71.1901 123.724L70.577 118.343L69.6855 114.77C69.3497 113.419 69.3783 112.002 69.7685 110.666C70.1587 109.33 70.8964 108.122 71.9058 107.166L73.9664 106.838L76.4705 104.418H80.5088L81.8934 105.745C84.4782 106.199 84.9223 106.051 87.1426 108.723L86.1337 117.031L85.882 118.174L85.8828 119.725L86.5226 120.438C86.7531 120.695 86.9206 121.002 87.0117 121.335C87.1029 121.669 87.1151 122.019 87.0475 122.358L86.9634 122.78C87.6233 123.063 88.253 128.104 88.4035 128.808L88.6282 129.86C88.8205 130.114 90.0896 131.812 90.0896 132.276C90.0896 132.345 90.0383 132.413 89.9283 132.487C89.0634 133.075 81.4924 134.63 79.3768 133.781C77.1232 132.877 71.6187 135.277 71.6187 135.277Z"
              fill="#E6E6E6"/>
        <path d="M63.5328 110.627L65.3084 112.805C65.9767 113.625 66.7999 114.304 67.7308 114.803C68.6617 115.303 69.6819 115.613 70.7327 115.715C71.3838 115.776 72.039 115.654 72.6243 115.361C73.2095 115.068 73.7015 114.617 74.0445 114.059C74.5045 113.299 74.6595 112.392 74.4783 111.521C74.297 110.651 73.793 109.882 73.0681 109.37C70.8684 107.819 69.6685 105.417 67.9392 106.196L67.5672 105.279L62.6914 101.328L58.6953 104.767L63.5328 110.627Z"
              fill="#E6E6E6"/>
        <path d="M97.902 103.418L94.0358 99.832L91.0206 101.758L90.6149 102.66C88.9156 101.817 85.6244 106.015 83.3689 107.482C82.6256 107.967 82.0935 108.717 81.8801 109.58C81.6668 110.443 81.7882 111.355 82.2197 112.132C82.5419 112.702 83.0168 113.171 83.5908 113.486C84.1649 113.8 84.8151 113.947 85.468 113.91C86.5219 113.847 87.5528 113.575 88.5015 113.111C89.4503 112.646 90.2981 111.998 90.9962 111.204L92.8511 109.093L97.902 103.418Z"
              fill="#E6E6E6"/>
        <path d="M78.2192 103.25C80.6961 103.25 82.704 101.236 82.704 98.752C82.704 96.2678 80.6961 94.2539 78.2192 94.2539C75.7423 94.2539 73.7344 96.2678 73.7344 98.752C73.7344 101.236 75.7423 103.25 78.2192 103.25Z"
              fill="#FFB6B6"/>
        <path d="M74.9651 101.923C74.9259 101.889 74.889 101.852 74.8507 101.816C74.8493 101.82 74.8491 101.824 74.8477 101.827L74.9651 101.923Z"
              fill="#2F2E41"/>
        <path d="M82.4277 97.067C82.4038 97.052 82.3829 97.0371 82.3591 97.0251C82.0643 96.7926 81.6987 96.6689 81.3237 96.675C80.9656 96.7199 80.6702 96.9772 80.3271 97.079C79.59 97.2945 78.8471 96.7677 78.0832 96.7139H78.0653C77.8219 96.6985 77.578 96.7314 77.3473 96.8106C77.1166 96.8898 76.9038 97.0139 76.7209 97.1756C76.538 97.3374 76.3887 97.5336 76.2815 97.7533C76.1742 97.9729 76.1112 98.2116 76.0959 98.4556C76.081 98.704 76.1138 98.9524 76.084 99.1978C76.0758 99.3223 76.0373 99.4428 75.9717 99.5487C75.9061 99.6546 75.8156 99.7428 75.708 99.8054C75.3708 99.958 74.9173 99.7305 74.6309 99.967C74.3772 100.179 74.4697 100.592 74.6219 100.889C74.7996 101.138 74.8869 101.441 74.8696 101.748C74.864 101.772 74.857 101.796 74.8487 101.819C74.1581 101.174 73.61 100.391 73.2399 99.5206C72.8699 98.65 72.686 97.7111 72.7003 96.7647C72.6884 96.3476 72.7743 95.9335 72.9509 95.5557C73.0398 95.3673 73.1738 95.204 73.3409 95.0802C73.508 94.9565 73.7031 94.8761 73.9088 94.8464C74.2609 94.8165 74.6249 94.9751 74.9591 94.8614C75.3709 94.7237 75.5439 94.2479 75.7588 93.8648C76.0237 93.4081 76.4088 93.0333 76.8719 92.7815C77.3351 92.5297 77.8584 92.4106 78.3846 92.4373C78.7631 92.4745 79.137 92.5497 79.5005 92.6617L80.2107 92.8562C80.4816 92.9202 80.7447 93.0135 80.9954 93.1346C81.3621 93.3458 81.6707 93.6451 81.8936 94.0054C82.0827 94.2954 82.2323 94.6094 82.3382 94.9392C81.9448 94.9597 81.5504 94.9457 81.1595 94.8973C81.6071 95.1756 82.0577 95.4539 82.5053 95.7323C82.5583 96.1783 82.5321 96.6302 82.4277 97.067Z"
              fill="#2F2E41"/>
        <path d="M153.16 30.1069C161.306 30.1069 167.91 23.4835 167.91 15.3132C167.91 7.14288 161.306 0.519531 153.16 0.519531C145.014 0.519531 138.41 7.14288 138.41 15.3132C138.41 23.4835 145.014 30.1069 153.16 30.1069Z"
              fill="#FF6584"/>
        <path d="M186.174 8.30867C185.32 5.44164 182.909 3.57119 179.997 3.16119C179.967 3.1582 179.934 3.16417 179.905 3.16119C179.864 3.14806 179.822 3.13805 179.779 3.13126C175.654 2.62792 171.48 3.53922 167.936 5.71698C167.126 6.2252 166.278 6.67138 165.4 7.05173C162.586 8.24164 159.576 8.89523 156.523 8.97903C156.499 8.97903 156.475 8.98202 156.451 8.98202C154.956 9.08169 153.528 9.64115 152.362 10.5842C151.195 11.5273 150.346 12.8081 149.932 14.2522C149.888 14.4288 149.901 14.6148 149.97 14.7833C150.038 14.9517 150.159 15.0938 150.314 15.1889C150.759 15.5676 151.286 15.8371 151.853 15.976C153.08 16.2364 154.309 16.4748 155.541 16.6913C157.949 17.1132 160.369 17.4544 162.801 17.7148C164.412 17.8884 166.027 18.024 167.644 18.1218C170.98 18.3313 174.331 18.3822 177.673 18.2774C179.326 18.2265 180.919 18.1727 182.435 17.4395C183.537 16.8941 184.478 16.0699 185.165 15.0483C185.813 14.0668 186.24 12.9548 186.414 11.7905C186.588 10.6262 186.506 9.43781 186.174 8.30867Z"
              fill="#F2F2F2"/>
        <path d="M128.391 118.518C127.776 116.453 126.039 115.103 123.939 114.807C123.915 114.804 123.894 114.81 123.87 114.807C123.841 114.798 123.811 114.791 123.781 114.786C120.806 114.421 117.795 115.078 115.241 116.65C112.779 118.191 109.912 118.889 107.011 119.002C106.994 119.002 106.977 119.003 106.961 119.005C105.883 119.077 104.854 119.481 104.013 120.16C103.172 120.84 102.56 121.763 102.261 122.803C102.229 122.931 102.238 123.065 102.288 123.187C102.337 123.308 102.424 123.411 102.535 123.48C102.856 123.753 103.236 123.947 103.645 124.045C104.529 124.234 105.418 124.404 106.307 124.563C108.041 124.865 109.789 125.111 111.541 125.299C115.101 125.683 118.683 125.819 122.262 125.706C123.452 125.67 124.601 125.631 125.693 125.102C126.489 124.709 127.169 124.115 127.666 123.378C128.132 122.67 128.439 121.868 128.564 121.028C128.69 120.189 128.63 119.332 128.391 118.518Z"
              fill="#F2F2F2"/>
        <path d="M34.0977 93.9785C33.483 91.9135 31.7464 90.5638 29.6458 90.2675C29.6219 90.2645 29.601 90.2705 29.5771 90.2675C29.5477 90.2588 29.5178 90.2518 29.4876 90.2466C26.5127 89.8821 23.5024 90.5393 20.9478 92.1111C18.4861 93.6523 15.6186 94.3496 12.7183 94.4633C12.7013 94.4629 12.6843 94.4639 12.6676 94.4663C11.5901 94.5384 10.5609 94.9416 9.72 95.6211C8.87911 96.3006 8.26736 97.2235 7.96796 98.2641C7.93586 98.3915 7.94517 98.5258 7.99456 98.6475C8.04394 98.7691 8.13081 98.8718 8.24247 98.9405C8.56288 99.2141 8.94321 99.4079 9.35247 99.5061C10.2357 99.6946 11.1249 99.8652 12.0141 100.024C13.7477 100.326 15.4963 100.571 17.2478 100.76C20.8078 101.144 24.3901 101.28 27.9688 101.167C29.1594 101.131 30.3082 101.092 31.4003 100.563C32.1959 100.17 32.8757 99.5755 33.3726 98.8387C33.8395 98.1306 34.1463 97.3287 34.2715 96.4891C34.3968 95.6495 34.3374 94.7927 34.0977 93.9785Z"
              fill="#F2F2F2"/>
        <path d="M58.8411 221.983C59.8496 223.094 60.8283 224.228 61.7772 225.386C47.669 222.855 34.1759 217.633 22.0291 210.003C21.7755 209.845 21.5248 209.686 21.2742 209.525C14.3817 205.122 7.98484 199.983 2.19531 194.199C3.20983 193.244 3.83644 192.675 3.83644 192.675C17.9949 177.425 19.5823 172.056 33.7408 156.805C38.4493 175.94 58.2473 189.234 68.6311 205.966C65.6032 208.085 62.291 209.763 58.7933 210.949C58.7695 210.976 58.7456 211.006 58.7217 211.033C57.4037 212.557 56.6881 214.513 56.7101 216.531C56.7321 218.548 57.4902 220.488 58.8411 221.983Z"
              fill="#F2F2F2"/>
        <path d="M180.876 168.073C172.397 183.666 160.394 197.049 145.828 207.149C145.518 207.365 145.207 207.58 144.894 207.793C134.577 214.798 123.169 220.032 111.138 223.28C110.56 222.834 109.911 222.489 109.219 222.259V222.253C109.995 220.799 110.77 219.345 111.546 217.89C108.867 220.631 104.194 221.101 101.025 218.952C101.546 217.772 102.29 216.704 103.215 215.807C102.44 216.163 101.234 215.649 100.9 214.751C100.479 213.628 100.957 212.386 101.458 211.297C106.987 199.302 125.102 179.882 125.385 179.58C125.192 179.7 116.92 184.91 112.122 184.524C111.877 183.052 105.513 181.253 104.803 180.505C107.694 173.984 121.104 161.851 121.104 161.851C135.262 146.6 136.849 141.231 151.008 125.98C155.036 142.351 170.105 154.444 180.876 168.073Z"
              fill="#F2F2F2"/>
        <g opacity="0.2">
            <path d="M0.5 59.7934C0.58809 59.6763 0.68041 59.5637 0.770194 59.4483L0.775075 59.4023L0.5 59.7934Z"
                  fill="black"/>
            <path d="M153.681 61.0266C153.186 62.207 152.322 63.1942 151.219 63.8397C150.117 64.4852 148.835 64.7541 147.567 64.6059C147.238 64.5662 146.912 64.4991 146.594 64.4054C143.106 63.3639 139.619 62.4062 136.133 61.5324C131.573 60.3832 127.014 59.3726 122.455 58.5008C118.644 57.7705 114.834 57.1371 111.023 56.6004C106.461 55.9569 101.901 55.4522 97.3423 55.0861C93.5319 54.7778 89.7205 54.5673 85.9081 54.4546C81.3487 54.3139 76.7904 54.3139 72.233 54.4546C68.4226 54.5683 64.6112 54.7788 60.7988 55.0861C56.2395 55.4512 51.6802 55.9559 47.1208 56.6004C43.3104 57.1391 39.499 57.7725 35.6866 58.5008C31.1273 59.3716 26.5679 60.3822 22.0086 61.5324C18.5204 62.4093 15.0343 63.3669 11.5501 64.4054C11.232 64.4991 10.9066 64.5662 10.5774 64.6059C9.75169 64.7028 8.9149 64.6233 8.12206 64.3726C7.32922 64.1219 6.59828 63.7057 5.97734 63.1513C5.3564 62.5969 4.85951 61.9169 4.51938 61.1561C4.17925 60.3953 4.00357 59.5709 4.00391 58.7372V55.9719C10.7325 49.8697 20.2511 47.0416 29.4294 46.0779C40.3444 44.9317 51.4355 45.9103 62.2908 44.2853C71.1409 42.9595 79.9344 39.9039 88.8203 40.9663C96.5635 41.8881 103.62 45.8684 111.256 47.4606C120.834 49.4567 130.947 47.6222 140.438 49.9954C144.159 50.9231 147.805 52.5542 150.464 55.3225C152.005 56.917 153.112 58.8808 153.681 61.0266Z"
                  fill="black"/>
        </g>
        <path d="M78.7172 123.433C81.8833 123.433 84.4499 120.859 84.4499 117.683C84.4499 114.508 81.8833 111.934 78.7172 111.934C75.551 111.934 72.9844 114.508 72.9844 117.683C72.9844 120.859 75.551 123.433 78.7172 123.433Z"
              fill="#0077C8"/>
        <path d="M77.9329 120.677C77.8339 120.677 77.7363 120.653 77.6477 120.609C77.5592 120.565 77.4822 120.5 77.4228 120.421L75.8588 118.329C75.8084 118.262 75.7716 118.185 75.7507 118.104C75.7297 118.023 75.725 117.938 75.7368 117.854C75.7486 117.771 75.7766 117.691 75.8193 117.619C75.862 117.546 75.9185 117.483 75.9856 117.433C76.0526 117.382 76.129 117.345 76.2102 117.325C76.2915 117.304 76.376 117.299 76.459 117.311C76.542 117.323 76.6219 117.351 76.694 117.394C76.766 117.437 76.829 117.494 76.8791 117.562L77.9023 118.93L80.5303 114.976C80.6242 114.835 80.77 114.737 80.9359 114.704C81.1017 114.671 81.274 114.705 81.4147 114.799C81.5554 114.893 81.6531 115.039 81.6863 115.206C81.7194 115.372 81.6854 115.545 81.5915 115.686L78.4636 120.392C78.407 120.477 78.3309 120.547 78.2416 120.597C78.1524 120.646 78.0526 120.673 77.9507 120.676L77.9329 120.677Z"
              fill="white"/>
        <path d="M149.203 151.25C148.932 155.724 148.661 160.199 148.392 164.675C147.914 172.582 147.437 180.49 146.959 188.398C146.583 194.65 146.206 200.901 145.828 207.151C145.518 207.366 145.208 207.582 144.895 207.794C145.077 204.81 145.257 201.827 145.435 198.843C145.912 190.933 146.389 183.025 146.867 175.12C147.347 167.162 147.828 159.205 148.308 151.25C148.341 150.672 149.236 150.672 149.203 151.25Z"
              fill="white"/>
        <path d="M119.829 173.292L135.604 159.951L140.03 156.208C140.471 155.835 139.835 155.203 139.397 155.573L123.622 168.914L119.196 172.657C118.755 173.03 119.391 173.662 119.829 173.292Z"
              fill="white"/>
        <path d="M121.84 198.382L133.343 188.202C133.776 187.819 133.141 187.186 132.71 187.567L121.207 197.747C120.774 198.13 121.409 198.763 121.84 198.382Z"
              fill="white"/>
        <path d="M11.1371 193.894L22.6402 183.714C23.0731 183.331 22.438 182.698 22.0073 183.079L10.5041 193.259C10.0713 193.642 10.7064 194.275 11.1371 193.894Z"
              fill="white"/>
        <path d="M159.416 164.541C160.926 164.477 162.427 164.803 163.775 165.489C165.123 166.174 166.273 167.196 167.113 168.456C167.428 168.937 168.203 168.488 167.886 168.003C166.966 166.609 165.703 165.475 164.22 164.712C162.736 163.949 161.082 163.581 159.416 163.644C158.842 163.671 158.839 164.569 159.416 164.541Z"
              fill="white"/>
        <path d="M34.0621 181.382C41.7166 185.036 47.8469 191.272 51.3814 199C51.6213 199.524 52.3931 199.069 52.1543 198.547C49.3438 192.459 44.9492 187.244 39.433 183.449C37.8703 182.374 36.2255 181.423 34.5139 180.607C33.9964 180.36 33.5416 181.133 34.0621 181.382Z"
              fill="white"/>
        <path d="M33.4834 175.139C32.8688 178.566 32.1188 181.964 31.2336 185.335C29.6694 191.288 27.6892 197.124 25.3076 202.798C24.2871 205.234 23.1941 207.636 22.0284 210.004C21.7747 209.846 21.5241 209.687 21.2734 209.525C23.9407 204.089 26.2278 198.473 28.1184 192.718C30.0339 186.893 31.5375 180.94 32.6181 174.903C32.7196 174.334 33.5849 174.576 33.4834 175.139Z"
              fill="white"/>
        <path d="M41.8732 134.397C44.2733 134.397 46.219 132.446 46.219 130.038C46.219 127.631 44.2733 125.68 41.8732 125.68C39.473 125.68 37.5273 127.631 37.5273 130.038C37.5273 132.446 39.473 134.397 41.8732 134.397Z"
              fill="#E6E6E6"/>
        <path d="M41.2823 132.309C41.2072 132.309 41.1332 132.291 41.0661 132.257C40.999 132.224 40.9406 132.175 40.8956 132.115L39.71 130.529C39.633 130.426 39.6 130.297 39.6181 130.17C39.6363 130.042 39.7041 129.927 39.8067 129.85C39.9092 129.773 40.0381 129.74 40.1651 129.758C40.292 129.776 40.4065 129.844 40.4834 129.947L41.2591 130.984L43.2513 127.987C43.2864 127.934 43.3316 127.888 43.3844 127.852C43.4371 127.817 43.4964 127.792 43.5588 127.779C43.6213 127.767 43.6856 127.766 43.748 127.779C43.8105 127.791 43.87 127.816 43.9229 127.851C43.9759 127.886 44.0214 127.932 44.0568 127.985C44.0921 128.038 44.1167 128.098 44.129 128.16C44.1414 128.223 44.1412 128.288 44.1287 128.35C44.1161 128.413 44.0913 128.472 44.0557 128.525L41.6845 132.093C41.6416 132.157 41.5839 132.21 41.5163 132.248C41.4486 132.285 41.373 132.306 41.2957 132.308L41.2823 132.309Z"
              fill="white"/>
        <path d="M50.2443 134.397C52.6444 134.397 54.5901 132.446 54.5901 130.038C54.5901 127.631 52.6444 125.68 50.2443 125.68C47.8441 125.68 45.8984 127.631 45.8984 130.038C45.8984 132.446 47.8441 134.397 50.2443 134.397Z"
              fill="#E6E6E6"/>
        <path d="M49.6494 132.309C49.5744 132.309 49.5004 132.291 49.4333 132.257C49.3661 132.224 49.3078 132.175 49.2627 132.115L48.0771 130.529C48.0002 130.426 47.9672 130.297 47.9853 130.17C48.0035 130.042 48.0713 129.927 48.1738 129.85C48.2764 129.773 48.4053 129.74 48.5322 129.758C48.6592 129.776 48.7737 129.844 48.8506 129.947L49.6263 130.984L51.6185 127.987C51.6535 127.934 51.6988 127.888 51.7515 127.852C51.8043 127.817 51.8636 127.792 51.926 127.779C51.9884 127.767 52.0527 127.766 52.1152 127.779C52.1777 127.791 52.2371 127.816 52.2901 127.851C52.3431 127.886 52.3886 127.932 52.424 127.985C52.4593 128.038 52.4839 128.098 52.4962 128.16C52.5086 128.223 52.5084 128.288 52.4959 128.35C52.4833 128.413 52.4585 128.472 52.4229 128.525L50.0517 132.093C50.0088 132.157 49.9511 132.21 49.8835 132.248C49.8158 132.285 49.7402 132.306 49.6629 132.308L49.6494 132.309Z"
              fill="white"/>
        <path d="M45.9435 127.366C48.3436 127.366 50.2893 125.414 50.2893 123.007C50.2893 120.6 48.3436 118.648 45.9435 118.648C43.5433 118.648 41.5977 120.6 41.5977 123.007C41.5977 125.414 43.5433 127.366 45.9435 127.366Z"
              fill="#E6E6E6"/>
        <path d="M45.3526 125.273C45.2775 125.273 45.2035 125.256 45.1364 125.222C45.0693 125.189 45.0109 125.14 44.9659 125.08L43.7803 123.494C43.7034 123.391 43.6703 123.262 43.6885 123.135C43.7066 123.007 43.7744 122.892 43.877 122.815C43.9795 122.738 44.1085 122.705 44.2354 122.723C44.3623 122.741 44.4768 122.809 44.5537 122.912L45.3294 123.949L47.3216 120.952C47.393 120.846 47.5035 120.772 47.6289 120.747C47.7542 120.723 47.8843 120.749 47.9907 120.82C48.097 120.891 48.171 121.001 48.1963 121.127C48.2217 121.253 48.1964 121.383 48.126 121.49L45.7548 125.058C45.7119 125.122 45.6542 125.175 45.5866 125.213C45.5189 125.25 45.4433 125.271 45.366 125.273L45.3526 125.273Z"
              fill="white"/>
        <path d="M58.5102 123.308L57.8684 123.372L54.7017 131.767H37.5107L34.344 123.372L33.7022 123.308C33.4974 123.288 33.2905 123.31 33.0949 123.375C32.8994 123.439 32.7195 123.544 32.5668 123.683C32.4142 123.821 32.2922 123.991 32.2087 124.179C32.1252 124.368 32.082 124.572 32.082 124.779V143.806C32.082 144.549 32.2279 145.284 32.5113 145.97C32.7948 146.657 33.2102 147.28 33.7339 147.806C34.2576 148.331 34.8793 148.747 35.5635 149.032C36.2478 149.316 36.9812 149.462 37.7218 149.462H54.4906C55.2312 149.462 55.9646 149.316 56.6489 149.032C57.3331 148.747 57.9548 148.331 58.4785 147.806C59.0022 147.28 59.4177 146.657 59.7011 145.97C59.9845 145.284 60.1304 144.549 60.1304 143.806V124.779C60.1304 124.572 60.0872 124.368 60.0037 124.179C59.9202 123.991 59.7982 123.821 59.6456 123.683C59.4929 123.544 59.313 123.439 59.1175 123.375C58.9219 123.31 58.715 123.288 58.5102 123.308Z"
              fill="#F2F2F2"/>
        <path d="M82.7391 104.303C82.5271 103.678 81.7087 103.559 81.0497 103.561C79.5804 103.566 78.1128 103.628 76.6468 103.749L76.7938 103.579C76.4044 103.414 75.9756 103.366 75.5594 103.44C75.1551 103.555 74.8228 104.021 75.0055 104.4C75.1427 104.686 75.5261 104.867 75.4985 105.182C75.4519 105.716 74.4217 105.539 74.2614 106.05C74.2394 106.151 74.2493 106.257 74.2897 106.353C74.3301 106.449 74.3991 106.529 74.4871 106.584C74.6655 106.69 74.8657 106.754 75.0724 106.77C77.253 107.088 79.4787 106.8 81.5076 105.938C81.8623 105.809 82.1858 105.606 82.4573 105.343C82.5913 105.21 82.6879 105.044 82.7374 104.861C82.7868 104.679 82.7875 104.486 82.7391 104.303Z"
              fill="#E6E6E6"/>
    </g>
    <defs>
        <clipPath id="clip0_971_12988">
            <rect width="186" height="224.866" fill="white" transform="translate(0.5 0.519531)"/>
        </clipPath>
    </defs>
</svg>
