<svg width="200" height="164" viewBox="0 0 200 164" fill="none" xmlns="http://www.w3.org/2000/svg">
    <g clip-path="url(#clip0_971_12595)">
        <path d="M111.012 26.8095H104.62C104.294 26.8091 103.982 26.6787 103.751 26.4469C103.521 26.2151 103.391 25.9008 103.391 25.5729V19.1428C103.391 18.815 103.521 18.5007 103.751 18.2688C103.982 18.037 104.294 17.9066 104.62 17.9062H111.012C111.338 17.9066 111.65 18.037 111.881 18.2688C112.111 18.5007 112.241 18.815 112.241 19.1428V25.5729C112.241 25.9008 112.111 26.2151 111.881 26.4469C111.65 26.6787 111.338 26.8091 111.012 26.8095ZM104.62 18.4009C104.424 18.4011 104.237 18.4793 104.099 18.6184C103.96 18.7575 103.883 18.9461 103.882 19.1428V25.5729C103.883 25.7696 103.96 25.9582 104.099 26.0973C104.237 26.2364 104.424 26.3146 104.62 26.3149H111.012C111.207 26.3146 111.395 26.2364 111.533 26.0973C111.672 25.9582 111.749 25.7696 111.749 25.5729V19.1428C111.749 18.9461 111.672 18.7575 111.533 18.6184C111.395 18.4793 111.207 18.4011 111.012 18.4009H104.62Z"
              fill="#E6E6E6"/>
        <path d="M107.074 23.5946H100.682C100.356 23.5943 100.044 23.4639 99.8136 23.232C99.5831 23.0002 99.4535 22.6859 99.4531 22.3581V15.928C99.4535 15.6001 99.5831 15.2858 99.8136 15.054C100.044 14.8222 100.356 14.6918 100.682 14.6914H107.074C107.4 14.6918 107.713 14.8222 107.943 15.054C108.174 15.2858 108.303 15.6001 108.304 15.928V22.3581C108.303 22.6859 108.174 23.0002 107.943 23.232C107.713 23.4639 107.4 23.5943 107.074 23.5946ZM100.682 15.186C100.487 15.1862 100.299 15.2645 100.161 15.4036C100.023 15.5427 99.945 15.7313 99.9448 15.928V22.3581C99.945 22.5548 100.023 22.7434 100.161 22.8825C100.299 23.0216 100.487 23.0998 100.682 23.1H107.074C107.27 23.0998 107.457 23.0216 107.596 22.8825C107.734 22.7434 107.812 22.5548 107.812 22.3581V15.928C107.812 15.7313 107.734 15.5427 107.596 15.4036C107.457 15.2645 107.27 15.1862 107.074 15.186H100.682Z"
              fill="#E6E6E6"/>
        <path d="M7.11898 0.851821H66.2741C69.1286 0.851817 71.8983 1.82879 74.1277 3.62214C76.3571 5.41549 77.9136 7.91849 78.5414 10.7197L108.431 144.087C108.757 145.542 108.763 147.05 108.448 148.508C108.133 149.965 107.505 151.335 106.608 152.522C105.711 153.709 104.567 154.685 103.255 155.38C101.944 156.075 100.497 156.474 99.0168 156.547L38.205 159.561C34.9487 159.722 31.7452 158.687 29.1924 156.647C26.6397 154.607 24.9119 151.702 24.3316 148.475L7.3762 54.1826L6.1148 54.5452L2.87054 36.6733L4.16898 36.3468L-0.563858 10.0265C-0.766576 8.8991 -0.719564 7.74065 -0.426176 6.63367C-0.132788 5.52669 0.399751 4.49845 1.13348 3.62226C1.86721 2.74606 2.78405 2.04348 3.81866 1.56461C4.85326 1.08573 5.98015 0.842358 7.11898 0.851829V0.851821Z"
              fill="#3F3D56"/>
        <path d="M58.4882 3.72656H65.3934C67.3765 3.72656 69.2999 4.4088 70.8443 5.66002C72.3888 6.91124 73.4614 8.65618 73.8841 10.6052L102.574 142.884C102.739 143.646 102.739 144.434 102.574 145.196C102.408 145.957 102.081 146.674 101.615 147.297C101.149 147.92 100.555 148.434 99.8735 148.804C99.1918 149.175 98.4386 149.393 97.6653 149.444L37.0502 153.441C35.3402 153.553 33.6487 153.029 32.2986 151.967C30.9486 150.905 30.0344 149.38 29.7306 147.684L5.24908 10.9605C5.09063 10.0756 5.12718 9.16643 5.35614 8.29726C5.5851 7.42809 6.00091 6.62005 6.5742 5.93019C7.1475 5.24032 7.86433 4.68543 8.67408 4.30468C9.48384 3.92392 10.3668 3.72658 11.2607 3.72658H17.8113C18.4453 3.72658 19.0616 3.93683 19.5649 4.32478C20.0681 4.71274 20.4301 5.25675 20.595 5.8726C20.7405 6.41629 21.0601 6.89656 21.5044 7.23906C21.9486 7.58155 22.4927 7.76717 23.0525 7.76717H54.1507C55.2467 7.76717 56.3023 7.351 57.1065 6.60188C57.9107 5.85275 58.4042 4.82587 58.4882 3.72657L58.4882 3.72656Z"
              fill="white"/>
        <path d="M9.96875 26.2188H75.7275L82.7329 57.9721L16.115 59.2086L9.96875 26.2188Z" fill="#0062B0"/>
        <path d="M72.4141 86.3516H87.8954L88.3871 89.3329H72.9058L72.4141 86.3516Z" fill="#0062B0"/>
        <path d="M85.0052 71.1443L19.3477 72.543L19.3542 72.8538L85.0118 71.4551L85.0052 71.1443Z" fill="#2F2E41"/>
        <path d="M87.0107 80.3092L20.1172 81.8633L20.1243 82.1741L87.0178 80.62L87.0107 80.3092Z" fill="#2F2E41"/>
        <path d="M78.8047 118.254H94.286L94.7777 121.235H79.2964L78.8047 118.254Z" fill="#0062B0"/>
        <path d="M91.3998 103.047L25.7422 104.445L25.7487 104.756L91.4063 103.357L91.3998 103.047Z" fill="#2F2E41"/>
        <path d="M93.4052 112.215L26.5117 113.77L26.5189 114.08L93.4124 112.526L93.4052 112.215Z" fill="#2F2E41"/>
        <path d="M135.733 160.409L132.804 160.409L131.41 149.043L135.733 149.043L135.733 160.409Z" fill="#A0616A"/>
        <path d="M136.48 163.268L127.035 163.268V163.147C127.035 162.167 127.423 161.226 128.112 160.532C128.801 159.839 129.736 159.449 130.711 159.449H130.712L136.481 159.449L136.48 163.268Z"
              fill="#2F2E41"/>
        <path d="M172.118 158.481L169.267 159.157L165.32 148.415L169.529 147.418L172.118 158.481Z" fill="#A0616A"/>
        <path d="M173.499 161.092L164.305 163.27L164.278 163.153C164.054 162.198 164.217 161.193 164.73 160.359C165.243 159.525 166.064 158.93 167.013 158.705L167.013 158.705L172.629 157.375L173.499 161.092Z"
              fill="#2F2E41"/>
        <path d="M135.138 112.469C135.143 111.877 135.318 97.8987 139.127 92.6134L139.183 92.5354L152.457 94.3775L152.16 97.3113C152.744 97.8826 157.336 102.71 158.662 114.142L172.752 152.207L166.202 152.806L146.813 111.253L136.552 156.421H130.059L135.138 112.469Z"
              fill="#2F2E41"/>
        <path d="M137.566 93.1299L138.864 86.2773C138.61 85.9484 137.485 84.3688 137.735 82.5172C137.898 81.3093 138.615 80.25 139.866 79.3681L143.229 71.4738L143.275 71.4471C143.501 71.3128 148.856 68.198 151.775 71.1368C151.848 71.1937 159.036 76.9333 156.15 84.676L152.586 95.4304L137.566 93.1299Z"
              fill="#CCCCCC"/>
        <path d="M133.052 102.402C133.402 102.362 133.739 102.245 134.039 102.059C134.339 101.874 134.595 101.625 134.789 101.329C134.983 101.033 135.11 100.698 135.162 100.348C135.213 99.9975 135.188 99.6399 135.087 99.3005L142.032 94.2667L137.874 92.6758L131.916 97.6999C131.361 97.9081 130.9 98.314 130.622 98.8409C130.345 99.3677 130.268 99.9788 130.408 100.558C130.548 101.138 130.895 101.646 131.382 101.985C131.869 102.325 132.464 102.473 133.052 102.402Z"
              fill="#A0616A"/>
        <path d="M134.332 94.2591L144.936 85.8552L141.783 75.0208C141.635 74.5078 141.593 73.9695 141.66 73.4395C141.727 72.9094 141.902 72.399 142.174 71.9399C142.425 71.5071 142.764 71.132 143.168 70.8386C143.573 70.5451 144.033 70.3398 144.521 70.2358C146.336 69.8494 147.984 70.8719 149.417 73.2752L149.428 73.2969C149.665 73.8802 155.189 87.6165 150.972 90.5541C146.846 93.4275 137.278 97.6104 137.182 97.6526L137.07 97.7013L134.332 94.2591Z"
              fill="#CCCCCC"/>
        <path d="M148.423 68.2788C151.971 68.2788 154.847 65.3858 154.847 61.8171C154.847 58.2485 151.971 55.3555 148.423 55.3555C144.876 55.3555 142 58.2485 142 61.8171C142 65.3858 144.876 68.2788 148.423 68.2788Z"
              fill="#A0616A"/>
        <path d="M158.491 59.511C161.63 59.511 164.174 56.9517 164.174 53.7946C164.174 50.6375 161.63 48.0781 158.491 48.0781C155.353 48.0781 152.809 50.6375 152.809 53.7946C152.809 56.9517 155.353 59.511 158.491 59.511Z"
              fill="#2F2E41"/>
        <path d="M163.393 58.5295C162.657 59.0642 161.805 59.414 160.908 59.5496C160.01 59.6852 159.093 59.6025 158.234 59.3086C157.375 59.0148 156.598 58.5182 155.969 57.8604C155.34 57.2026 154.876 56.4028 154.617 55.5279C154.715 56.3119 154.974 57.0671 155.377 57.7455C155.779 58.424 156.318 59.0112 156.957 59.4698C157.597 59.9285 158.324 60.2488 159.093 60.4105C159.862 60.5721 160.656 60.5716 161.425 60.4091C162.194 60.2465 162.921 59.9253 163.56 59.4659C164.199 59.0064 164.736 58.4187 165.138 57.7397C165.54 57.0607 165.798 56.3053 165.895 55.5211C165.992 54.7369 165.927 53.941 165.702 53.1836C165.83 54.2012 165.683 55.2345 165.276 56.1751C164.87 57.1157 164.219 57.9289 163.393 58.5295Z"
              fill="#2F2E41"/>
        <path d="M140.969 58.5338C141.961 56.7472 142.34 56.0009 143.62 54.9144C144.751 53.9536 146.142 53.6715 147.264 54.5819C148.592 54.0048 150.069 53.874 151.476 54.2088C152.884 54.5436 154.146 55.3261 155.076 56.4401C156.006 57.5541 156.554 58.9403 156.639 60.3926C156.723 61.8449 156.34 63.2859 155.546 64.5015C154.751 65.7172 153.588 66.6427 152.229 67.1405C150.871 67.6383 149.388 67.6819 148.003 67.2648C146.617 66.8477 145.403 65.9921 144.539 64.8252C143.675 63.6583 143.209 62.2423 143.209 60.7875C143.21 60.532 143.225 60.2768 143.255 60.023C142.279 59.8852 141.944 58.6716 140.969 58.5338Z"
              fill="#2F2E41"/>
        <path d="M199.754 163.577H106.086C106.02 163.577 105.958 163.551 105.912 163.504C105.866 163.458 105.84 163.395 105.84 163.329C105.84 163.264 105.866 163.201 105.912 163.154C105.958 163.108 106.02 163.082 106.086 163.082H199.754C199.819 163.082 199.882 163.108 199.928 163.154C199.974 163.201 200 163.264 200 163.329C200 163.395 199.974 163.458 199.928 163.504C199.882 163.551 199.819 163.577 199.754 163.577Z"
              fill="#3F3D56"/>
        <g clip-path="url(#clip1_971_12595)">
            <rect width="91.6364" height="22" rx="4"
                  transform="matrix(0.999913 -0.0131516 0.188065 0.982157 0.242188 31.5312)" fill="#173552"/>
            <path fill-rule="evenodd" clip-rule="evenodd"
                  d="M40.0946 47.0879C39.663 47.3605 39.1352 47.5009 38.511 47.5091C38.0082 47.5157 37.5337 47.4279 37.0874 47.2455C36.6411 47.0631 36.2386 46.7917 35.8799 46.4312C35.5212 46.0706 35.2118 45.6195 34.9516 45.0779C34.6915 44.5363 34.4938 43.9123 34.3586 43.2061C34.2383 42.5783 34.2131 41.9929 34.283 41.4497C34.3528 40.9065 34.5128 40.4338 34.7632 40.0316C35.0135 39.6293 35.351 39.3116 35.7756 39.0785C36.2003 38.8453 36.7102 38.7248 37.3055 38.717C37.8429 38.7099 38.3193 38.7921 38.7345 38.9637C39.1498 39.1352 39.5382 39.3788 39.8999 39.6943L38.9952 34.9693L40.5382 34.949L42.9096 47.3333L41.9907 47.3454C41.7711 47.3483 41.6125 47.2464 41.515 47.0398L41.1783 46.0075C40.8874 46.4552 40.5262 46.8154 40.0946 47.0879ZM30.3115 47.6203C30.6294 47.6161 30.9451 47.5852 31.2585 47.5277C31.5719 47.4702 31.8702 47.3862 32.1532 47.2757C32.4362 47.1653 32.6948 47.0256 32.929 46.8567C33.1632 46.6879 33.3541 46.4901 33.5019 46.2634L32.9638 45.7226C32.8762 45.6282 32.7689 45.5819 32.6417 45.5836C32.5435 45.5849 32.4348 45.6298 32.3156 45.7185C32.1964 45.8072 32.0454 45.9033 31.8624 46.0068C31.6795 46.1104 31.4561 46.2074 31.1925 46.298C30.9288 46.3886 30.6034 46.4364 30.2162 46.4415C29.8001 46.447 29.4118 46.386 29.0514 46.2587C28.691 46.1314 28.3639 45.9362 28.0702 45.6732C27.7765 45.4102 27.5222 45.0806 27.3073 44.6844C27.0924 44.2883 26.9277 43.8213 26.8131 43.2833L32.6559 43.2065C32.8003 43.2046 32.8911 43.1641 32.9281 43.0849C32.9651 43.0058 32.961 42.8485 32.9159 42.6131C32.8 42.0077 32.6057 41.4694 32.333 40.9982C32.0602 40.527 31.7312 40.1323 31.3458 39.8143C30.9605 39.4963 30.5289 39.2547 30.0512 39.0896C29.5735 38.9245 29.0717 38.8454 28.5457 38.8523C27.91 38.8607 27.3586 38.9761 26.8913 39.1986C26.4241 39.4211 26.0504 39.7238 25.7703 40.1068C25.4902 40.4898 25.3056 40.9403 25.2165 41.4584C25.1275 41.9766 25.1398 42.5327 25.2536 43.1268C25.3942 43.8611 25.6227 44.5099 25.9391 45.0733C26.2556 45.6367 26.6369 46.1079 27.0832 46.4869C27.5295 46.866 28.0274 47.1516 28.577 47.3438C29.1265 47.5361 29.7047 47.6282 30.3115 47.6203ZM31.4594 42.288L26.6829 42.3508C26.6453 41.6096 26.8003 41.0274 27.148 40.6042C27.4957 40.181 28.0423 39.9645 28.7879 39.9547C29.1404 39.95 29.4649 40.0033 29.7614 40.1146C30.0579 40.2259 30.3217 40.3854 30.5526 40.5931C30.7836 40.8008 30.9758 41.0483 31.1294 41.3357C31.2829 41.623 31.3929 41.9405 31.4594 42.288ZM38.7915 46.2951C38.4332 46.2998 38.1041 46.2451 37.8041 46.1311C37.5042 46.017 37.2344 45.8337 36.9949 45.5812C36.7553 45.3287 36.5486 45.0055 36.3747 44.6117C36.2008 44.2178 36.0607 43.7434 35.9545 43.1885C35.7538 42.1404 35.8188 41.3304 36.1496 40.7585C36.4805 40.1866 37.0562 39.8952 37.8768 39.8845C38.2872 39.8791 38.6756 39.9484 39.0421 40.0925C39.4086 40.2366 39.7689 40.4917 40.1229 40.8579L40.9118 44.9776C40.6723 45.391 40.3847 45.7122 40.0491 45.9414C39.7135 46.1706 39.2943 46.2885 38.7915 46.2951ZM49.8215 47.0062C49.3953 47.2619 48.876 47.3937 48.2634 47.4018C47.7837 47.4081 47.3456 47.3366 46.9491 47.1873C46.5526 47.038 46.2033 46.8248 45.9011 46.5478C45.5989 46.2709 45.3476 45.9342 45.1472 45.5379C44.9467 45.1416 44.8003 44.7024 44.708 44.2203L43.6681 38.7891L45.2111 38.7688L46.2511 44.2C46.3745 44.8446 46.6232 45.3415 46.9971 45.6905C47.371 46.0396 47.8672 46.2101 48.4855 46.202C48.9363 46.1961 49.3412 46.0868 49.7003 45.8741C50.0593 45.6615 50.371 45.368 50.6354 44.9937L49.4328 38.7132L50.9759 38.693L52.6067 47.2098L51.6878 47.2219C51.4682 47.2248 51.3096 47.1229 51.2121 46.9163L50.9153 46.0014C50.6122 46.4156 50.2476 46.7506 49.8215 47.0062Z"
                  fill="white"/>
            <path fill-rule="evenodd" clip-rule="evenodd"
                  d="M65.3598 47.0376C66.2729 47.0256 67.0775 46.8703 67.7735 46.5718C68.4695 46.2733 69.0358 45.857 69.4724 45.3231C69.909 44.7891 70.2038 44.1503 70.3569 43.4066C70.5099 42.6628 70.5001 41.8397 70.3273 40.9373C70.1545 40.0349 69.8499 39.2157 69.4135 38.4797C68.9771 37.7437 68.4394 37.1144 67.8005 36.5918C67.1616 36.0692 66.4389 35.6685 65.6323 35.3898C64.8258 35.111 63.9659 34.9776 63.0528 34.9896L58.4063 35.0507L60.7133 47.0987L65.3598 47.0376ZM57.3794 47.143L55.0725 35.095L53.3907 35.1171L55.6977 47.1651L57.3794 47.143ZM62.1453 45.7596L65.1014 45.7207C65.766 45.7119 66.3495 45.5975 66.852 45.3774C67.3544 45.1572 67.758 44.8443 68.0627 44.4385C68.3674 44.0327 68.568 43.537 68.6644 42.9513C68.7608 42.3657 68.7382 41.7029 68.5965 40.963C68.4549 40.2232 68.2242 39.5632 67.9045 38.983C67.5848 38.4028 67.1957 37.9134 66.737 37.5149C66.2783 37.1163 65.7569 36.8141 65.1729 36.6083C64.5888 36.4024 63.9645 36.3039 63.2999 36.3126L60.3438 36.3515L62.1453 45.7596Z"
                  fill="#5BA5FB"/>
        </g>
    </g>
    <defs>
        <clipPath id="clip0_971_12595">
            <rect width="200" height="163.121" fill="white" transform="translate(0 0.453125)"/>
        </clipPath>
        <clipPath id="clip1_971_12595">
            <rect width="57.3438" height="22.156" fill="white"
                  transform="matrix(0.999913 -0.0131516 0.188065 0.982157 17.2383 31.3086)"/>
        </clipPath>
    </defs>
</svg>
