<svg width="24" height="24" viewBox="0 0 24 24" fill="none" xmlns="http://www.w3.org/2000/svg">
    <path d="M20.25 24C19.836 24 19.5 23.664 19.5 23.25V22.5H4.5V23.25C4.5 23.664 4.164 24 3.75 24C3.336 24 3 23.664 3 23.25V22.5H2.25C1.009 22.5 0 21.491 0 20.25V5.25C0 4.009 1.009 3 2.25 3H21.75C22.991 3 24 4.009 24 5.25V20.25C24 21.491 22.991 22.5 21.75 22.5H21V23.25C21 23.664 20.664 24 20.25 24ZM2.25 4.5C1.836 4.5 1.5 4.836 1.5 5.25V20.25C1.5 20.664 1.836 21 2.25 21H21.75C22.164 21 22.5 20.664 22.5 20.25V5.25C22.5 4.836 22.164 4.5 21.75 4.5H2.25Z" fill="currentColor"/>
    <path d="M6.75 19.5C5.509 19.5 4.5 18.491 4.5 17.25V16.5H3.75C3.336 16.5 3 16.164 3 15.75C3 15.336 3.336 15 3.75 15H4.5V12H3.75C3.336 12 3 11.664 3 11.25C3 10.836 3.336 10.5 3.75 10.5H4.5V8.25C4.5 7.009 5.509 6 6.75 6H18.75C19.991 6 21 7.009 21 8.25V17.25C21 18.491 19.991 19.5 18.75 19.5H6.75ZM6 17.25C6 17.664 6.336 18 6.75 18H18.75C19.164 18 19.5 17.664 19.5 17.25V8.25C19.5 7.836 19.164 7.5 18.75 7.5H6.75C6.336 7.5 6 7.836 6 8.25V10.5H6.75C7.164 10.5 7.5 10.836 7.5 11.25C7.5 11.664 7.164 12 6.75 12H6V15H6.75C7.164 15 7.5 15.336 7.5 15.75C7.5 16.164 7.164 16.5 6.75 16.5H6V17.25Z" fill="currentColor"/>
    <path d="M13.875 15.75C14.4963 15.75 15 15.2463 15 14.625C15 14.0037 14.4963 13.5 13.875 13.5C13.2537 13.5 12.75 14.0037 12.75 14.625C12.75 15.2463 13.2537 15.75 13.875 15.75Z" fill="currentColor"/>
    <path d="M16.875 15.75C17.4963 15.75 18 15.2463 18 14.625C18 14.0037 17.4963 13.5 16.875 13.5C16.2537 13.5 15.75 14.0037 15.75 14.625C15.75 15.2463 16.2537 15.75 16.875 15.75Z" fill="currentColor"/>
    <path d="M13.875 12C14.4963 12 15 11.4963 15 10.875C15 10.2537 14.4963 9.75 13.875 9.75C13.2537 9.75 12.75 10.2537 12.75 10.875C12.75 11.4963 13.2537 12 13.875 12Z" fill="currentColor"/>
    <path d="M16.875 12C17.4963 12 18 11.4963 18 10.875C18 10.2537 17.4963 9.75 16.875 9.75C16.2537 9.75 15.75 10.2537 15.75 10.875C15.75 11.4963 16.2537 12 16.875 12Z" fill="currentColor"/>
</svg>
