<?xml version="1.0" encoding="UTF-8"?>
<svg width="22px" height="25px" viewBox="0 0 22 25" version="1.1" xmlns="http://www.w3.org/2000/svg" xmlns:xlink="http://www.w3.org/1999/xlink">
    <title>Not remembered</title>
    <g id="Page-1" stroke="none" stroke-width="1" fill="none" fill-rule="evenodd">
        <g id="3-Security" transform="translate(-598.000000, -468.000000)">
            <g id="army-shield-copy-3" transform="translate(599.000000, 469.000000)">
                <path d="M0,3.17393366 L0,10.7879337 C0,15.7144277 3.03401314,20.1321622 7.63203347,21.9009337 L8.67303347,22.3009337 C9.36627648,22.5675834 10.1337905,22.5675834 10.8270335,22.3009337 L11.8680335,21.9009337 C16.4660538,20.1321622 19.5000669,15.7144277 19.5000669,10.7879337 L19.5000669,3.17393366 C19.5039483,2.58867618 19.1641903,2.05555371 18.6320335,1.81193366 C15.8318713,0.589722849 12.8051774,-0.0274064802 9.75003347,0.000933659556 C6.69488957,-0.0274064802 3.66819564,0.589722849 0.868033473,1.81193366 C0.33587662,2.05555371 -0.00388131008,2.58867618 0,3.17393366 Z" id="Path" stroke="#5B5B5B" stroke-width="1.5" stroke-linecap="round" stroke-linejoin="round"></path>
                <g id="?" transform="translate(6.000000, 4.000000)" fill="#5B5B5B" fill-rule="nonzero">
                    <path d="M3.75,9.749 C3.336,9.749 3,9.413 3,8.999 L3,7.993 C2.999,7.041 3.602,6.188 4.5,5.871 C5.397,5.554 6,4.701 6,3.75 C6,3.149 5.766,2.584 5.341,2.159 C4.917,1.734 4.352,1.5 3.75,1.5 C3.149,1.5 2.584,1.734 2.159,2.159 C1.734,2.583 1.5,3.148 1.5,3.749 C1.5,4.162 1.164,4.499 0.75,4.499 C0.336,4.499 0,4.162 0,3.749 C0,2.747 0.391,1.806 1.099,1.098 C1.807,0.39 2.749,1.71773706e-12 3.75,1.71773706e-12 C5.818,1.71773706e-12 7.5,1.683 7.5,3.75 C7.5,5.336 6.495,6.756 5,7.285 C4.701,7.391 4.5,7.675 4.5,7.992 L4.5,8.999 C4.5,9.413 4.164,9.749 3.75,9.749 Z" id="Path"></path>
                    <circle id="Oval" cx="3.75" cy="12.374" r="1.125"></circle>
                </g>
            </g>
        </g>
    </g>
</svg>