<?xml version="1.0" encoding="UTF-8"?>
<svg width="139px" height="123px" viewBox="0 0 139 123" version="1.1" xmlns="http://www.w3.org/2000/svg" xmlns:xlink="http://www.w3.org/1999/xlink">

    <g id="Page-1" stroke="none" stroke-width="1" fill="none" fill-rule="evenodd">
        <g id="2-Home" transform="translate(-514.000000, -230.000000)" fill-rule="nonzero">
            <g id="undraw_Content_re_33px" transform="translate(514.000000, 230.000000)">
                <path d="M33.9643859,31 C33.8085921,31.006531 27.1694982,30.5247871 27,30.5188088 L27.5963992,24.2882755 L31.3778508,24.1691061 L38.6037362,10.1629265 C37.6015493,8.1630303 38.8347785,5.50939982 40.960758,5.10037854 C45.2447684,4.08134999 46.7164177,11.1348981 42.4193356,12.0734796 L36.4425607,29.1882677 C36.0585557,30.2740836 35.0707044,30.9962505 33.9643859,31 L33.9643859,31 Z" id="Path" fill="#FFB8B8"></path>
                <path d="M15.9276523,35 C9.72950966,35.0158727 9.18540294,25.2303073 15.3972918,24.5407335 C31.8234833,23.5039127 29.7448072,19.194089 30.9922337,31.9067356 C31.0720012,32.6918738 30.5282693,33.396272 29.7768603,33.4812375 L16.4656678,34.9698716 C16.2869682,34.9898798 16.1073753,35 15.9276523,35 Z" id="Path" fill="#0062B0"></path>
                <path d="M14.844275,5.02785394 C24.0019824,10.1943918 16.4839579,23.826286 7.15553537,18.9720824 C-2.00188167,13.8057192 5.51614286,0.173818523 14.844275,5.02785394 Z" id="Path" fill="#FFB8B8"></path>
                <polygon id="Path" fill="#FFB8B8" points="22.0006632 119 26.0657677 118.999683 28 104 22 104.000317"></polygon>
                <path d="M21.0002118,123 L33,122.999418 C32.9541631,116.425065 24.9281853,118.319465 21,118.077101 L21.0002118,123 Z" id="Path" fill="#2F2E41"></path>
                <polygon id="Path" fill="#FFB8B8" points="5.0006632 119 9.06576766 118.999683 11 104 5 104.000317"></polygon>
                <path d="M6.00021178,123 L18,122.999418 C17.9541631,116.425065 9.92818534,118.319465 6,118.077101 L6.00021178,123 Z" id="Path" fill="#2F2E41"></path>
                <path d="M9.92254089,113.95534 C8.97363678,113.695618 3.81733095,114.481089 3.20879615,113.450034 C1.08360964,92.2057154 1.55600888,71.414841 6.27350982,59.9903592 L22.4936532,59 C26.1207663,65.6039599 34.4583188,109.426724 29.4289797,112.091178 L22.9616746,112.321185 C22.2015604,112.345981 21.5280849,111.835975 21.3478331,111.099065 L15.9372607,80.3982835 C14.5898937,78.5198337 11.9413912,112.730304 11.5040242,112.602377 C11.3861455,113.382085 10.7131355,113.957847 9.92254089,113.95534 Z" id="Path" fill="#2F2E41"></path>
                <path d="M6.56100468,63 C-1.50627291,54.4213231 3.63955409,31.4220995 3.37911426,31.9112751 C3.40121666,31.3478801 5.22844711,22.6712136 9.95509199,21.2472033 C13.705086,19.989287 17.8556772,23.7520981 18.3676509,27.557903 L23.9851651,61.2760821 C24.0441029,61.6483231 23.9253848,62.0268697 23.6653743,62.2957724 C23.9415849,63.1699131 6.95593598,62.8248441 6.56100468,63 Z" id="Path" fill="#0062B0"></path>
                <path d="M8.12196752,10.0208937 C8.81606192,9.55898829 9.15816231,8.76680694 9.56217112,8.04514662 C11.6903123,6.76838575 14.1367702,9.85700511 16.3876866,8.70431896 C22.7524403,2.27229678 16.2101798,0.374732865 10.3481422,0.0355551824 C8.96335325,-0.14410019 7.78534709,0.372992207 6.738384,1.2270401 C-4.97126649,0.285650245 0.644515934,16.675873 8.03472395,18.8406652 C9.33953264,19.4422755 10.3183347,18.2246026 9.16765411,17.1177462 C7.57562499,15.3607753 5.60347883,11.8241791 8.12196752,10.0208937 Z" id="Path" fill="#2F2E41"></path>
                <path d="M133.590909,3 L46.4090909,3 C43.4234844,3.00419354 41.0042253,5.40526273 41,8.36842105 L41,117.631579 C41.0042236,120.594738 43.4234837,122.995808 46.4090909,123 L133.590909,123 C136.576516,122.995806 138.995775,120.594737 139,117.631579 L139,8.36842105 C138.995773,5.40526345 136.576515,3.00419528 133.590909,3 Z M138.363636,117.631579 C138.360432,120.246346 136.225485,122.36524 133.590909,122.368421 L46.4090909,122.368421 C43.774515,122.36524 41.6395685,120.246346 41.6363636,117.631579 L41.6363636,8.36842105 C41.6395685,5.75365403 43.774515,3.63475967 46.4090909,3.63157895 L133.590909,3.63157895 C136.225485,3.63475967 138.360432,5.75365403 138.363636,8.36842105 L138.363636,117.631579 Z" id="Shape" fill="#3F3D56"></path>
                <path d="M22.1448413,49.9877292 C19.3201207,50.3354273 18.0799725,43.1931797 17,41.3733844 L22.6255624,39 L24.4560505,42.6375717 L39.7917565,43.0517771 C39.882889,42.9175969 39.9824256,42.7904015 40.0896587,42.6710956 L40.0896587,42.6710956 C43.1310018,39.2110876 48.0838781,44.3953151 45.0540427,47.8478904 C44.3778895,48.6284884 43.4266488,49.0574396 42.4404883,49.0264429 C41.4543277,48.9954463 40.5274999,48.5074643 39.8940089,47.685702 C39.5152838,47.7150557 22.5152054,49.9985266 22.1448413,49.9877292 Z" id="Path" fill="#FFB8B8"></path>
                <path d="M17.9772905,45.954245 C16.9969653,46.851725 9.47105471,34.2529543 8.9212295,33.8968253 C5.1183671,28.2806254 14.0710227,22.7356092 17.9394129,28.3214293 L25.7630562,39.7456987 C26.203986,40.3911113 26.0118461,41.2538603 25.3335571,41.6742408 C24.9769931,41.8328622 18.22892,46.2954026 17.9772905,45.954245 Z" id="Path" fill="#0062B0"></path>
                <path d="M115.940523,79 L63.0597452,79 C57.6579419,78.9748708 57.6354835,71.0272308 63.0600128,71 L115.940523,71 C121.338523,71.0244246 121.367776,78.9726831 115.940523,79 Z" id="Path" fill="#CCCCCC"></path>
                <path d="M115.940523,94 L63.0597452,94 C57.6579419,93.9748708 57.6354835,86.0272308 63.0600128,86 L115.940523,86 C121.338523,86.0244246 121.367776,93.9726831 115.940523,94 Z" id="Path" fill="#CCCCCC"></path>
                <path d="M115.940523,109 L63.0597452,109 C57.6579419,108.974871 57.6354835,101.027231 63.0600128,101 L115.940523,101 C121.338523,101.024425 121.367776,108.972683 115.940523,109 Z" id="Path" fill="#CCCCCC"></path>
                <path d="M114.699482,60 L63.3005181,60 C60.374493,59.996727 58.0033052,57.6486784 58,54.7512068 L58,26.2487932 C58.0033035,23.3513208 60.3744922,21.0032712 63.3005181,21 L114.699482,21 C117.625507,21.003273 119.996695,23.3513216 120,26.2487932 L120,54.7512068 C119.996693,57.6486777 117.625506,59.9967253 114.699482,60 Z" id="Path" fill="#0062B0"></path>
            </g>
        </g>
    </g>
</svg>