<?xml version="1.0" encoding="UTF-8"?>
<svg width="173px" height="123px" viewBox="0 0 173 123" version="1.1" xmlns="http://www.w3.org/2000/svg" xmlns:xlink="http://www.w3.org/1999/xlink">
    <title>undraw_security_o890</title>
    <defs>
        <linearGradient x1="49.9994739%" y1="100%" x2="49.9994739%" y2="0%" id="linearGradient-1">
            <stop stop-color="#808080" stop-opacity="0.25" offset="0%"></stop>
            <stop stop-color="#808080" stop-opacity="0.12" offset="54%"></stop>
            <stop stop-color="#808080" stop-opacity="0.1" offset="100%"></stop>
        </linearGradient>
        <linearGradient x1="49.9995454%" y1="100.007969%" x2="49.9995454%" y2="0.00176883159%" id="linearGradient-2">
            <stop stop-color="#808080" stop-opacity="0.25" offset="0%"></stop>
            <stop stop-color="#808080" stop-opacity="0.12" offset="54%"></stop>
            <stop stop-color="#808080" stop-opacity="0.1" offset="100%"></stop>
        </linearGradient>
    </defs>
    <g id="Page-1" stroke="none" stroke-width="1" fill="none" fill-rule="evenodd">
        <g id="2-Home" transform="translate(-497.000000, -511.000000)">
            <g id="undraw_security_o890" transform="translate(498.000000, 511.000000)">
                <path d="M169.134786,82.8511169 C165.157784,91.089379 157.082537,96.5980873 148.713917,100.230979 C137.447489,105.123433 125.040497,107.063882 112.804141,106.243212 C110.659723,106.09992 108.521791,105.870954 106.390345,105.556314 C98.9877545,104.471857 91.7707506,102.361493 84.9456626,99.2855553 C82.9758712,98.3947428 81.0459945,97.4222642 79.1560326,96.3681194 C75.9993142,94.6111382 72.9747016,92.6248159 70.1063678,90.4250272 C69.3849093,89.8719018 68.6734294,89.3047479 67.9719282,88.7235653 C67.4854676,88.3207457 67.0034974,87.9089078 66.5140431,87.5090943 C65.4812497,86.6658787 64.4185203,85.8647486 63.2330532,85.2650284 C62.8753629,85.0839535 62.5086641,84.9214099 62.1344005,84.7780376 C58.3804212,83.34412 54.0516699,83.885221 50.1435199,85.0034963 C47.1708712,85.8542272 44.2730626,87.0190973 41.3034075,87.8502885 C39.9824873,88.2312566 38.6365412,88.5185472 37.2755133,88.7100378 C34.2368186,89.0963071 31.1509743,88.8241549 28.2258486,87.9119139 L27.9758827,87.8337549 C27.5567781,87.7014858 27.1411661,87.5566912 26.7290466,87.3993711 L26.4790807,87.3031753 C26.0799335,87.1488614 25.6892682,86.9830239 25.3070848,86.8056631 L25.0571188,86.6914307 C24.6579716,86.5050514 24.2673063,86.3081508 23.8851229,86.1007288 C23.7474171,86.028582 23.6112081,85.950423 23.4764959,85.8767731 C21.3020425,84.6572458 19.3254983,83.1118749 17.6150194,81.2939487 C17.5656249,81.2443477 17.5192241,81.1932438 17.4653392,81.1436428 C17.2273477,80.8851168 16.9938466,80.6220816 16.7678295,80.3530342 C16.6840086,80.2538324 16.6001877,80.1546305 16.5178636,80.0524226 C16.2494371,79.7237538 15.9904903,79.3875698 15.7410233,79.0438705 C15.7036033,78.9942696 15.66768,78.9431656 15.6317568,78.8935647 C14.6096755,77.4736865 13.7623227,75.9349098 13.1081487,74.3107402 C13.0871934,74.2611393 13.067735,74.2100353 13.0497734,74.1604344 C12.8501998,73.6443844 12.6680889,73.1198171 12.5034407,72.5867325 C12.4360846,72.3642799 12.3717221,72.135815 12.3148436,71.9133624 C12.2953852,71.8472278 12.2774236,71.7795902 12.2609587,71.7134557 C11.4347241,68.4473102 11.3404255,65.0519017 11.3404255,61.676033 C11.3404255,61.2822317 11.3404255,60.8889315 11.3404255,60.4961323 C11.3643744,55.0355218 11.4481953,49.4817218 12.2504811,44.0962642 C12.2504811,44.0586878 12.2609587,44.0211113 12.266946,43.9850379 C12.5354664,42.1720189 12.9007126,40.3747817 13.3611082,38.6010835 C13.8429572,36.7399907 14.4587646,34.9164943 15.2036714,33.1449822 C17.0492283,28.7861134 19.7329942,24.8195428 22.7131269,21.1430624 C30.2195888,11.8917392 40.0640554,4.12543745 51.586437,1.21852289 C64.0024094,-1.91234735 77.8014268,1.08775683 87.8165288,9.09454787 C90.8700048,11.5355144 93.6136429,14.4258953 97.0428162,16.2972028 C100.03642,17.9265179 103.540434,18.601391 106.746583,17.3192824 C109.395923,16.2596263 111.120239,15.733556 114.095881,15.8943832 C120.256137,16.2443362 126.329082,17.5216612 132.11139,19.6835929 C132.344891,19.7692672 132.578392,19.8579477 132.810396,19.9466281 C147.884689,25.7379114 160.842504,37.2438219 167.578112,52.0294054 C167.756731,52.4202006 167.929861,52.8140018 168.097503,53.2108092 C172.113422,62.6304749 173.56532,73.6704374 169.134786,82.8511169 Z" id="Path" fill="#0062B0" fill-rule="nonzero" opacity="0.1"></path>
                <ellipse id="Oval" fill="#0062B0" fill-rule="nonzero" opacity="0.1" cx="18.3191489" cy="109.478723" rx="13.0851064" ry="2.18085106"></ellipse>
                <ellipse id="Oval" fill="#0062B0" fill-rule="nonzero" opacity="0.1" cx="136.957447" cy="120.819149" rx="23.5531915" ry="2.18085106"></ellipse>
                <rect id="Rectangle" fill="url(#linearGradient-1)" fill-rule="nonzero" x="17.4468085" y="15.7021277" width="142.191489" height="81.1276596" rx="12.49"></rect>
                <rect id="Rectangle" fill="#FFFFFF" fill-rule="nonzero" x="17.4468085" y="17.4468085" width="142.191489" height="79.3829787" rx="12.49"></rect>
                <rect id="Rectangle" fill="#FFFFFF" fill-rule="nonzero" x="17.4468085" y="17.4468085" width="142.191489" height="79.3829787" rx="12.49"></rect>
                <rect id="Rectangle" fill="#FFFFFF" fill-rule="nonzero" opacity="0.04" x="17.4468085" y="17.4468085" width="142.191489" height="79.3829787" rx="12.49"></rect>
                <path d="M158.922372,16.5744681 L18.1687375,16.5744681 C17.7700271,16.5744681 17.4468085,16.8733693 17.4468085,17.2420826 L17.4468085,20.0638298 L159.638298,20.0638298 L159.638298,17.2420826 C159.638298,16.8755266 159.318736,16.5775164 158.922372,16.5744681 Z" id="Path" fill="#5A5773" fill-rule="nonzero"></path>
                <g id="6c975d28-8d47-4ade-9154-b3b78f637b65" transform="translate(20.063830, 17.446809)" fill="#FFFFFF" fill-rule="nonzero">
                    <ellipse id="Oval" cx="0.935718628" cy="0.849908815" rx="1" ry="1"></ellipse>
                    <ellipse id="Oval" cx="3.42811984" cy="0.849908815" rx="1" ry="1"></ellipse>
                    <ellipse id="Oval" cx="5.92052106" cy="0.849908815" rx="1" ry="1"></ellipse>
                </g>
                <rect id="Rectangle" fill="#0062B0" fill-rule="nonzero" opacity="0.2" x="28.787234" y="27.0425532" width="38.3829787" height="3.4893617"></rect>
                <rect id="Rectangle" fill="#5A5773" fill-rule="nonzero" opacity="0.1" x="29.6595745" y="40.1276596" width="118.638298" height="49.7234043"></rect>
                <path d="M98.6848224,43.4821912 L96.6535202,43.4821912 L96.6535202,39.5654893 C96.6535202,35.1458067 93.1036136,31.4716666 88.6512391,31.4047017 C86.4827625,31.3820861 84.3948975,32.2196324 82.8510897,33.7314295 C81.3072819,35.2432267 80.4352601,37.3041944 80.4285879,39.4568574 L80.4285879,43.4821912 L78.4017831,43.4821912 C76.5371726,43.4879102 75.027038,44.9869566 75.0212766,46.8378761 L75.0212766,62.9421874 C75.027038,64.7931069 76.5371726,66.2921533 78.4017831,66.2978723 L98.6848224,66.2978723 C100.549188,66.2921492 102.058891,64.7928662 102.06383,62.9421874 L102.06383,46.8378761 C102.058891,44.9871973 100.549188,43.4879143 98.6848224,43.4821912 Z M89.7276044,53.9510352 L89.7276044,59.7189442 C89.7316712,60.3527138 89.2400387,60.8810798 88.6032674,60.9272884 C88.279538,60.9423365 87.9637101,60.8252028 87.7292306,60.6031271 C87.4947511,60.3810514 87.3620543,60.0733871 87.3619994,59.7516826 L87.3619994,53.948059 C86.2326805,53.4013561 85.6329249,52.1532764 85.9155404,50.9380059 C86.1981559,49.7227355 87.2883453,48.8619084 88.5448019,48.8619084 C89.8012585,48.8619084 90.8914479,49.7227355 91.1740634,50.9380059 C91.4566788,52.1532764 90.8569233,53.4013561 89.7276044,53.948059 L89.7276044,53.9510352 Z M94.2909134,43.4821912 L82.794193,43.4821912 L82.794193,39.4568574 C82.794193,36.3066692 85.3668147,33.7529371 88.5403045,33.7529371 C91.7137943,33.7529371 94.2864161,36.3066692 94.2864161,39.4568574 L94.2909134,43.4821912 Z" id="Shape" fill="#000000" fill-rule="nonzero" opacity="0.1"></path>
                <path d="M98.6848224,43.4821912 L96.6535202,43.4821912 L96.6535202,39.5654893 C96.6535202,35.1458067 93.1036136,31.4716666 88.6512391,31.4047017 C86.4827625,31.3820861 84.3948975,32.2196324 82.8510897,33.7314295 C81.3072819,35.2432267 80.4352601,37.3041944 80.4285879,39.4568574 L80.4285879,43.4821912 L78.4017831,43.4821912 C76.5371726,43.4879102 75.027038,44.9869566 75.0212766,46.8378761 L75.0212766,62.9421874 C75.027038,64.7931069 76.5371726,66.2921533 78.4017831,66.2978723 L98.6848224,66.2978723 C100.549188,66.2921492 102.058891,64.7928662 102.06383,62.9421874 L102.06383,46.8378761 C102.058891,44.9871973 100.549188,43.4879143 98.6848224,43.4821912 L98.6848224,43.4821912 Z M89.7276044,53.9510352 L89.7276044,59.7189442 C89.7316712,60.3527138 89.2400387,60.8810798 88.6032674,60.9272884 C88.279538,60.9423365 87.9637101,60.8252028 87.7292306,60.6031271 C87.4947511,60.3810514 87.3620543,60.0733871 87.3619994,59.7516826 L87.3619994,53.948059 C86.2326805,53.4013561 85.6329249,52.1532764 85.9155404,50.9380059 C86.1981559,49.7227355 87.2883453,48.8619084 88.5448019,48.8619084 C89.8012585,48.8619084 90.8914479,49.7227355 91.1740634,50.9380059 C91.4566788,52.1532764 90.8569233,53.4013561 89.7276044,53.948059 L89.7276044,53.9510352 Z M94.2909134,43.4821912 L82.794193,43.4821912 L82.794193,39.4568574 C82.794193,36.3066692 85.3668147,33.7529371 88.5403045,33.7529371 C91.7137943,33.7529371 94.2864161,36.3066692 94.2864161,39.4568574 L94.2909134,43.4821912 Z" id="Shape" fill="#0062B0" fill-rule="nonzero"></path>
                <rect id="Rectangle" fill="#5A5773" fill-rule="nonzero" opacity="0.1" x="136.085106" y="35.7659574" width="12.212766" height="2.61702128"></rect>
                <path d="M151.775837,121.335148 C151.69756,120.93836 151.563664,120.554839 151.378182,120.196134 L149.597637,117.513989 L149.608024,117.513989 C149.608024,117.513989 149.327588,116.16693 149.608024,115.505374 C149.88846,114.843819 148.607951,113.21687 148.607951,113.21687 C148.607951,113.21687 148.452153,112.808262 148.858711,112.30536 C149.265269,111.802458 148.607951,110.329673 148.607951,110.329673 C148.607951,110.329673 148.296356,107.253887 148.265196,106.783913 C148.234037,106.313939 147.983277,103.709625 147.983277,103.709625 L147.389762,98.1881781 L146.333305,83.5546234 L146.314016,83.2807214 C146.444589,83.2163618 146.514327,83.1759501 146.514327,83.1759501 L146.303629,75.0846136 L146.486135,74.9184763 C148.079723,73.4636522 151.755064,70.0960038 151.717969,70.0226639 C151.680875,69.949324 151.272833,64.3994395 151.225352,63.0104717 C151.184542,62.023393 150.970531,61.0514346 150.593259,60.1397385 C150.501264,59.9556404 150.235666,58.7417903 150.125865,58.228411 C150.09619,58.0877181 150.076901,57.9994109 150.076901,57.9994109 C150.076901,57.9994109 148.999671,55.927933 149.093149,54.9864882 C149.186628,54.0450434 149.373585,53.3400823 147.076682,53.0108012 C147.076682,53.0108012 145.147759,52.720435 143.999307,51.9286635 C143.320103,51.4543979 142.577771,51.0794901 141.794399,50.8150944 C141.794399,50.8150944 141.150436,49.6177083 140.702332,50.0233229 C140.512582,49.5960646 140.370742,49.1487612 140.279453,48.6897341 L140.266098,48.6059171 C141.116712,48.0076074 141.728847,47.1238326 141.993227,46.1123606 C142.008065,46.0554847 142.019935,45.9971122 142.033289,45.9402363 C142.077811,45.9554571 142.1243,45.9640293 142.171281,45.9656808 C142.561518,45.9656808 142.801891,45.5271381 143.166903,45.387942 C143.315282,45.3295694 143.497787,45.320589 143.612039,45.2023472 C143.688141,45.11023 143.723529,44.9906969 143.709969,44.8715692 C143.713664,44.8307434 143.713664,44.789663 143.709969,44.7488372 C143.710679,44.7343776 143.710679,44.7198915 143.709969,44.7054319 L143.709969,44.7203993 C143.610555,44.1755886 143.192127,43.692144 143.238125,43.1383529 C143.282638,42.6174899 143.736677,42.1594898 143.699582,41.6520974 C143.699071,41.6119798 143.6956,41.5719563 143.689196,41.5323588 L143.689196,41.5503196 C143.633898,41.3522267 143.532108,41.1704858 143.392438,41.0204763 C143.232713,40.8009662 143.02306,40.6233624 142.781118,40.5026068 C142.574872,40.4113061 142.335982,40.3903518 142.143089,40.2810903 C141.576283,39.96977 141.577767,39.1585409 141.240947,38.6047498 C140.946709,38.1333927 140.415476,37.8680602 139.865476,37.9177496 C139.44408,37.9596581 139.062747,38.1856647 138.645803,38.2590046 C138.076028,38.3607824 137.495867,38.1736908 136.955769,37.9596581 C136.41567,37.7456253 135.868153,37.5106383 135.287992,37.5106383 C134.707831,37.5106383 134.080189,37.8099848 133.905102,38.3622791 C133.811623,38.6616257 133.857621,38.9834232 133.786399,39.2872599 C133.658793,39.8230902 133.192884,40.2062537 132.710653,40.4726721 C132.413896,40.6388094 132.060754,40.8288945 131.96876,41.1432083 C131.96876,41.1342279 131.96876,41.1267443 131.96876,41.1192606 C131.96211,41.1443379 131.957153,41.1698407 131.953922,41.195594 C131.950955,41.228954 131.950955,41.262515 131.953922,41.2958751 C131.953922,41.5114046 132.06669,41.7164569 132.142363,41.9215093 C132.283369,42.3116167 132.280208,42.7399291 132.13346,43.1278758 C132.02366,43.412255 131.836702,43.6622093 131.72987,43.9450918 C131.679526,44.0768658 131.6466,44.2147521 131.63194,44.3551965 L131.63194,44.3312488 C131.628253,44.3950552 131.628253,44.4590241 131.63194,44.5228306 C131.630103,44.7414133 131.681028,44.9571633 131.780319,45.1514582 C131.917837,45.4225039 132.158097,45.6259963 132.446539,45.7157264 C132.743297,45.7845761 132.92877,45.4912165 133.241849,45.5660532 C133.297881,45.5796621 133.352913,45.5971658 133.40655,45.6184388 C133.416936,45.6857918 133.427323,45.7531448 133.439193,45.819001 C133.628494,46.8263204 134.160664,47.7353014 134.943753,48.3888909 C134.943753,48.4248125 134.955624,48.460734 134.960075,48.4981523 L134.960075,48.4981523 C135.054842,49.0948803 135.096061,49.6990141 135.083229,50.3032119 C135.083229,50.3032119 134.615836,49.6132181 133.97484,50.9453102 C133.97484,50.9453102 132.302612,51.9181864 131.725418,52.0289446 C131.148225,52.1397028 129.099115,52.8596312 129.099115,52.8596312 C128.790027,53.0850811 128.418151,53.2061048 128.036723,53.2053764 C127.397211,53.2053764 126.866015,54.6167952 126.943172,55.3846191 C127.020329,56.1524429 126.897174,56.7182078 126.302176,56.7496392 C125.707177,56.7810706 126.032126,57.9979142 126.036578,58.0188684 L125.981678,58.2807967 C125.865942,58.8166269 125.613698,59.9661176 125.524671,60.1457255 C125.147398,61.05749 124.932904,62.0293591 124.891094,63.0164586 C124.845096,64.4054265 124.445958,69.9343567 124.39996,70.0286509 C124.368801,70.0900169 126.886788,72.4114492 128.656946,74.0339073 L128.913641,74.2673976 L128.099042,81.9426424 C128.14711,82.5411419 128.453012,83.0882529 128.935898,83.439375 C128.935898,83.529179 128.935898,83.6204797 128.926995,83.7147738 C128.891385,84.6128134 128.820163,85.6994412 128.677719,85.9838204 C128.428443,86.4867226 128.490762,89.1838347 128.490762,89.1838347 C128.490762,89.1838347 128.240002,94.6738499 127.928407,95.2710462 C127.616811,95.8682426 127.553008,97.1210077 127.646487,97.3664719 C127.739966,97.611936 127.333408,104.205043 127.333408,104.205043 L127.021813,107.155103 C127.021813,107.155103 127.115291,109.977941 126.833372,110.040804 C126.551452,110.103666 126.395654,112.049419 126.395654,112.049419 C126.395654,112.049419 125.397065,113.429406 125.833299,113.930812 C126.269532,114.432217 125.769496,114.653733 125.723499,114.777962 C125.677501,114.902191 124.770907,115.376655 125.426741,117.130826 C125.432764,117.148149 125.439698,117.165136 125.447514,117.181715 C124.833226,118.042336 122.886497,120.818775 123.0052,121.240854 C123.092813,121.50936 123.278505,121.734134 123.524526,121.869481 C123.983016,122.146377 124.769423,122.275096 126.020256,121.869481 C128.097558,121.194455 127.94918,120.708017 127.94918,120.708017 C127.971266,120.235749 128.355918,119.863525 128.824614,119.860866 C129.683727,119.798003 130.324723,118.998748 130.324723,118.998748 L130.223826,118.620075 L130.085833,118.096218 C130.102155,117.946545 130.207504,117.684617 130.679348,117.539434 C131.398985,117.319414 131.210544,115.939427 131.210544,115.939427 C131.210544,115.939427 131.148225,114.496577 131.459821,114.307988 C131.771416,114.1194 131.648262,111.735105 131.648262,111.735105 C131.648262,111.735105 131.9925,110.009372 132.491053,108.847908 C132.989605,107.686443 133.586088,100.786506 133.586088,100.786506 C133.586088,100.786506 133.991162,97.3979033 134.36656,96.4250271 C134.741958,95.4521509 135.086197,92.7236074 135.086197,92.7236074 C135.086197,92.7236074 137.399421,88.2049716 137.429097,87.200664 C137.429097,87.200664 137.725855,86.2592192 138.022612,87.2949582 C138.319369,88.3306972 139.153258,90.8092864 139.153258,90.8092864 L139.96489,93.8521437 L140.933803,98.4007141 L141.559961,102.229356 C141.559961,102.229356 141.464999,103.672206 141.70834,104.175109 C141.951681,104.678011 142.301855,105.836482 142.114898,106.056501 C141.92794,106.276521 142.488812,107.31226 142.646093,107.530783 C142.803375,107.749306 142.646093,112.393667 142.646093,112.393667 C142.646093,112.393667 143.364246,116.346538 144.395479,117.033538 C144.467397,117.08121 144.543964,117.121332 144.623982,117.153277 C144.609144,117.581342 144.594306,118.154591 144.613595,118.453938 C144.611312,118.520843 144.622414,118.587527 144.646239,118.65001 C144.739717,118.775735 145.802109,119.622886 146.02171,119.622886 C146.24131,119.622886 147.020299,120.172187 147.052942,120.438605 C147.085585,120.705023 149.336491,121.83356 149.655505,121.866488 C149.974519,121.899416 151.520626,122.179305 151.732807,121.740762 C151.785291,121.612486 151.800224,121.471722 151.775837,121.335148 Z M146.245762,64.8005639 L146.406011,64.93976 C146.406011,64.93976 146.570711,66.2344337 146.68793,66.6220875 C146.805149,67.0097412 146.66419,67.7640944 146.66419,67.7640944 C146.674968,68.0456296 146.730579,68.323582 146.82889,68.5872974 C146.968366,68.8701798 146.54697,69.4853369 146.54697,69.4853369 L146.171572,69.4853369 L146.054353,64.6389168 L146.245762,64.8005639 Z M135.083229,50.3301531 L135.083229,50.3017151 C135.080262,50.3106955 135.078778,50.3211727 135.078778,50.3301531 L135.083229,50.3301531 Z M129.318715,68.986925 C129.260957,68.861545 129.252473,68.7187379 129.294975,68.5872974 C129.328334,68.5162419 129.354675,68.442045 129.373615,68.3657809 C129.419724,68.1691624 129.448523,67.9688193 129.459675,67.7670879 C129.459896,67.7645983 129.459896,67.7620938 129.459675,67.7596042 C129.446321,67.6877611 129.326134,66.9932771 129.437418,66.6250809 C129.548702,66.2568847 129.717854,64.9427535 129.717854,64.9427535 L129.824687,64.8514528 L130.072479,64.6344266 C130.072479,64.6344266 130.072479,64.553603 130.090285,64.4203938 C130.142217,65.5579106 130.183763,66.815166 130.116993,66.8780287 C129.992355,67.0022575 129.538316,68.2250881 129.648116,68.2729835 C129.683727,68.2894476 129.634762,68.7788791 129.55167,69.4374415 C129.458341,69.2960624 129.380247,69.1450339 129.318715,68.986925 L129.318715,68.986925 Z" id="Shape" fill="url(#linearGradient-2)" fill-rule="nonzero"></path>
                <path d="M141.319149,51.1143501 L141.319149,53.0062426 L137.413646,54.9574468 C137.413646,54.9574468 133.53569,52.6260391 134.492171,51.6983426 C135.104319,51.1113085 134.98648,49.4992457 134.8212,48.3905724 L134.8212,48.3905724 C134.724787,47.7457473 134.61307,47.2727742 134.61307,47.2727742 C134.61307,47.2727742 141.579312,45.2957161 140.526418,46.7967595 C140.174433,47.298628 140.146886,47.9480156 140.264724,48.5913199 C140.503462,49.8672827 141.319149,51.1143501 141.319149,51.1143501 Z" id="Path" fill="#C37098" fill-rule="nonzero"></path>
                <path d="M130.851064,69.957395 L130.384199,75.893617 C130.384199,75.893617 129.684612,75.2387574 128.779264,74.3861213 C127.100539,72.8053752 124.716551,70.5448642 124.744932,70.4847987 C124.788922,70.3925031 125.170644,65.007125 125.211796,63.6534554 C125.250595,62.6925971 125.453314,61.7463437 125.810631,60.8582156 C125.895774,60.6824143 126.135592,59.5631464 126.236344,59.0401377 C126.270401,58.8775216 126.291686,58.7720408 126.291686,58.7720408 L127.074997,58.4468085 C127.074997,58.4468085 130.33879,62.2060251 130.33879,62.2748806 C130.33879,62.3437361 130.116001,65.2312715 130.116001,65.2312715 L129.884697,65.439303 L129.783945,65.5286686 C129.783945,65.5286686 129.627851,66.7900426 129.517166,67.1680153 C129.40648,67.5459879 129.52568,68.2023126 129.538451,68.2726331 L129.538451,68.2726331 C129.528012,68.4700209 129.500948,68.6660958 129.457566,68.8586372 C129.439048,68.9326844 129.413869,69.0047833 129.382357,69.0739937 C129.342364,69.2022401 129.350467,69.3413139 129.405061,69.4636865 C129.468122,69.6335391 129.550026,69.7952795 129.649136,69.9456749 L130.851064,69.957395 Z" id="Path" fill="#3F3D56" fill-rule="nonzero"></path>
                <path d="M151.786986,70.4834359 C151.821067,70.5552394 148.33773,73.8362242 146.828236,75.2532462 L146.143781,75.893617 L145.680851,69.9558992 L146.880778,69.9558992 C146.880778,69.9558992 147.281226,69.3594898 147.147743,69.0839984 C147.054693,68.827145 147.002426,68.5564769 146.99296,68.2824358 C146.99296,68.2824358 147.125023,67.5497461 147.01426,67.1702128 C146.903498,66.7906795 146.747295,65.5304531 146.747295,65.5304531 L146.595351,65.3956382 L146.415007,65.232981 C146.415007,65.232981 146.192062,62.344718 146.192062,62.2758452 C146.192062,62.2069723 149.458134,58.4468085 149.458134,58.4468085 L150.236312,58.7677266 C150.236312,58.7677266 150.253352,58.854184 150.281753,58.9919297 C150.386835,59.4916241 150.63818,60.6741854 150.724802,60.8544271 C151.082369,61.7427789 151.28523,62.6892708 151.324056,63.6503712 C151.360976,65.0043818 151.741545,70.3911169 151.786986,70.4834359 Z" id="Path" fill="#3F3D56" fill-rule="nonzero"></path>
                <path d="M151.737712,121.892169 C151.523868,122.320072 150.022601,122.038712 149.712746,122.015265 C149.402892,121.991818 147.214998,120.882494 147.184449,120.623114 C147.1539,120.363735 146.395993,119.828856 146.183604,119.828856 C145.971216,119.828856 144.939822,119.002358 144.848175,118.880728 C144.82495,118.820058 144.814545,118.755174 144.817626,118.690224 C144.785622,118.187584 144.848175,116.893617 144.848175,116.893617 L149.248692,117.138342 L151.387125,120.378389 C151.567359,120.727947 151.697633,121.101417 151.774079,121.487713 C151.800029,121.623291 151.787422,121.763495 151.737712,121.892169 L151.737712,121.892169 Z" id="Path" fill="#3F3D56" fill-rule="nonzero"></path>
                <path d="M151.737712,121.892169 C151.523868,122.320072 150.022601,122.038712 149.712746,122.015265 C149.402892,121.991818 147.214998,120.882494 147.184449,120.623114 C147.1539,120.363735 146.395993,119.828856 146.183604,119.828856 C145.971216,119.828856 144.939822,119.002358 144.848175,118.880728 C144.82495,118.820058 144.814545,118.755174 144.817626,118.690224 C144.785622,118.187584 144.848175,116.893617 144.848175,116.893617 L149.248692,117.138342 L151.387125,120.378389 C151.567359,120.727947 151.697633,121.101417 151.774079,121.487713 C151.800029,121.623291 151.787422,121.763495 151.737712,121.892169 L151.737712,121.892169 Z" id="Path" fill="#000000" fill-rule="nonzero" opacity="0.1"></path>
                <path d="M151.737651,121.888612 C151.523544,122.322979 150.020427,122.037368 149.710191,122.013567 C149.399955,121.989766 147.209366,120.863685 147.178779,120.600387 C147.148193,120.337089 146.389352,119.79413 146.176701,119.79413 C145.964051,119.79413 144.931387,118.955148 144.839627,118.83168 C144.816373,118.770094 144.805956,118.70423 144.80904,118.638298 L146.236418,119.560584 C146.236418,119.560584 147.148193,120.155607 147.391429,120.508158 C147.634666,120.86071 149.551431,121.594076 149.710191,121.608951 C149.828168,121.620852 151.086591,121.373917 151.774063,121.478046 C151.800045,121.615672 151.787422,121.757994 151.737651,121.888612 L151.737651,121.888612 Z" id="Path" fill="#000000" fill-rule="nonzero" opacity="0.1"></path>
                <path d="M130.851064,119.066777 C130.851064,119.066777 130.239431,119.849527 129.422014,119.909852 C128.97405,119.913318 128.607212,120.277429 128.587449,120.738213 C128.587449,120.738213 128.730354,121.214925 126.753979,121.875554 C125.560722,122.271343 124.810471,122.146279 124.373182,121.875554 C124.138503,121.742231 123.961392,121.522568 123.877302,121.260536 C123.742971,120.770582 126.380997,117.04075 126.380997,117.04075 L128.7818,116.893617 L130.49666,117.69108 L130.759605,118.701887 L130.851064,119.066777 Z" id="Path" fill="#3F3D56" fill-rule="nonzero"></path>
                <path d="M130.851064,119.066777 C130.851064,119.066777 130.239431,119.849527 129.422014,119.909852 C128.97405,119.913318 128.607212,120.277429 128.587449,120.738213 C128.587449,120.738213 128.730354,121.214925 126.753979,121.875554 C125.560722,122.271343 124.810471,122.146279 124.373182,121.875554 C124.138503,121.742231 123.961392,121.522568 123.877302,121.260536 C123.742971,120.770582 126.380997,117.04075 126.380997,117.04075 L128.7818,116.893617 L130.49666,117.69108 L130.759605,118.701887 L130.851064,119.066777 Z" id="Path" fill="#000000" fill-rule="nonzero" opacity="0.1"></path>
                <path d="M130.851064,119.015309 C130.851064,119.015309 130.192142,119.81122 129.311526,119.872559 C128.828927,119.876084 128.433727,120.246318 128.412436,120.714849 C128.412436,120.714849 128.56639,121.199577 126.43721,121.871315 C125.151696,122.273759 124.343439,122.146593 123.87234,121.871315 C125.083956,121.748637 127.761212,121.005088 128.029092,120.747763 C128.350855,120.435083 128.752674,119.576337 129.025172,119.561376 C129.214535,119.549407 130.176746,118.986883 130.754073,118.638298 L130.851064,119.015309 Z" id="Path"></path>
                <path d="M130.851064,119.015309 C130.851064,119.015309 130.192142,119.81122 129.311526,119.872559 C128.828927,119.876084 128.433727,120.246318 128.412436,120.714849 C128.412436,120.714849 128.56639,121.199577 126.43721,121.871315 C125.151696,122.273759 124.343439,122.146593 123.87234,121.871315 C125.083956,121.748637 127.761212,121.005088 128.029092,120.747763 C128.350855,120.435083 128.752674,119.576337 129.025172,119.561376 C129.214535,119.549407 130.176746,118.986883 130.754073,118.638298 L130.851064,119.015309 Z" id="Path" fill="#000000" fill-rule="nonzero" opacity="0.1"></path>
                <path d="M150.002421,114.935261 C149.721382,115.589405 150.002421,116.929056 150.002421,116.929056 C150.002421,116.929056 145.816736,117.147104 144.794233,116.461597 C143.77173,115.77609 143.048205,111.849732 143.048205,111.849732 C143.048205,111.849732 143.197694,107.23936 143.048205,107.021312 C142.898716,106.803264 142.330659,105.77575 142.51752,105.557702 C142.704381,105.339654 142.368031,104.186688 142.112405,103.687866 C141.85678,103.189044 141.962917,101.756797 141.962917,101.756797 L141.338054,97.9543975 L140.372356,93.4381152 L139.551663,90.4153125 C139.551663,90.4153125 138.710042,87.9540581 138.424518,86.9265442 C138.138995,85.8990302 137.837027,86.832455 137.837027,86.832455 C137.80713,87.8300993 135.499023,92.316512 135.499023,92.316512 C135.499023,92.316512 135.155199,95.0271775 134.781477,95.9919653 C134.407756,96.9567531 134.001146,100.323056 134.001146,100.323056 C134.001146,100.323056 133.403191,107.176634 132.909878,108.3296 C132.416566,109.482567 132.077226,111.195588 132.077226,111.195588 C132.077226,111.195588 132.202797,113.564246 131.890365,113.750931 C131.577934,113.937616 131.62876,115.371357 131.62876,115.371357 C131.62876,115.371357 131.815621,116.740877 131.098075,116.960419 C130.380529,117.17996 130.50012,117.645926 130.50012,117.645926 C130.50012,117.645926 126.508771,118.30007 125.85401,116.554192 C125.199249,114.808315 126.103656,114.343843 126.152987,114.21839 C126.202319,114.092938 126.700116,113.876384 126.263609,113.376068 C125.827102,112.875752 126.824192,111.507725 126.824192,111.507725 C126.824192,111.507725 126.981155,109.576656 127.260699,109.51393 C127.540243,109.451203 127.449055,106.647942 127.449055,106.647942 L127.759991,103.719229 C127.759991,103.719229 128.166601,97.1762946 128.072423,96.9268836 C127.978245,96.6774725 128.04103,95.433404 128.353462,94.8360121 C128.665893,94.2386203 128.914044,88.7904067 128.914044,88.7904067 C128.914044,88.7904067 128.851259,86.1125978 129.100905,85.6137756 C129.250394,85.331508 129.313179,84.2457483 129.349057,83.3601149 C129.375965,82.6835686 129.381944,82.1235138 129.381944,82.1235138 L132.874001,80.8152257 L137.358663,79.3829787 L141.131759,81.190089 L146.652378,82.2489661 L146.721143,83.2003126 L147.775039,97.7333625 L148.372994,103.215926 C148.372994,103.215926 148.62264,105.801139 148.654032,106.268598 C148.685425,106.736058 148.996362,109.790223 148.996362,109.790223 C148.996362,109.790223 149.651122,111.253833 149.246008,111.752656 C148.840893,112.251478 148.996362,112.648743 148.996362,112.648743 C148.996362,112.648743 150.28346,114.281116 150.002421,114.935261 Z" id="Path" fill="#3F3D56" fill-rule="nonzero"></path>
                <path d="M140.336917,47.5702002 C139.979983,47.9841411 139.952049,48.5197555 140.071544,49.0503524 C138.395151,50.0062791 136.134876,49.9379676 134.551482,48.8835217 L134.551482,48.8835217 C134.453713,48.3516704 134.340426,47.9615625 134.340426,47.9615625 C134.340426,47.9615625 141.404615,46.333395 140.336917,47.5702002 Z" id="Path" fill="#000000" fill-rule="nonzero" opacity="0.1"></path>
                <path d="M142.191489,45.3617273 C142.191489,47.770615 140.23865,49.7234043 137.829762,49.7234043 C135.420874,49.7234043 133.468085,47.770615 133.468085,45.3617273 C133.468085,42.9528396 135.420874,41 137.829762,41 C138.988251,40.9944748 140.100903,41.4522167 140.920088,42.2714016 C141.739273,43.0905864 142.197015,44.2032384 142.191489,45.3617273 L142.191489,45.3617273 Z" id="Path" fill="#C37098" fill-rule="nonzero"></path>
                <polygon id="Path" fill="#000000" fill-rule="nonzero" opacity="0.1" points="143.06383 53.2909551 141.553451 78.5106383 133.348634 76.8952213 131.723404 66.785219 133.332901 53.212766 134.544351 53.3588174 136.680907 53.6140385 138.79701 53.7364856 141.090898 53.4974924"></polygon>
                <polygon id="Path" fill="#0062B0" fill-rule="nonzero" points="143.06383 53.2894843 141.553451 78.5106383 133.348634 76.8951271 131.723404 66.7845352 133.332901 53.212766 134.544351 53.3573505 136.680907 53.6125865 138.79701 53.7350408 141.090898 53.4960337"></polygon>
                <path d="M136.957447,54.0851064 L139.574468,54.1774546 L138.838692,55.2607138 C138.838692,55.2607138 138.890252,57.4492198 139.240024,58.0766013 C139.589797,58.7039828 139.486677,68.3961475 139.486677,68.3961475 L138.789919,69.787234 L137.598464,68.2275754 L137.613792,55.4307518 L136.957447,54.0851064 Z" id="Path" fill="#3F3D56" fill-rule="nonzero"></path>
                <path d="M136.957447,54.0851064 L139.574468,54.1774546 L138.838692,55.2607138 C138.838692,55.2607138 138.890252,57.4492198 139.240024,58.0766013 C139.589797,58.7039828 139.486677,68.3961475 139.486677,68.3961475 L138.789919,69.787234 L137.598464,68.2275754 L137.613792,55.4307518 L136.957447,54.0851064 Z" id="Path" fill="#000000" fill-rule="nonzero" opacity="0.1"></path>
                <polygon id="Path" fill="#000000" fill-rule="nonzero" opacity="0.1" points="141.000384 50.5957447 138.702128 53.4323864 140.01523 54.9574468 142.191489 52.5930913"></polygon>
                <polygon id="Path" fill="#0062B0" fill-rule="nonzero" points="141.000384 50.5957447 138.702128 53.4323864 140.01523 54.9574468 142.191489 52.5930913"></polygon>
                <polygon id="Path" fill="#000000" fill-rule="nonzero" opacity="0.1" points="136.957447 53.2065812 134.565589 50.5957447 134.340426 51.9622739 135.43793 54.9574468"></polygon>
                <polygon id="Path" fill="#0062B0" fill-rule="nonzero" points="137.829787 53.2065812 135.438046 50.5957447 135.212766 51.9622739 136.310836 54.9574468"></polygon>
                <path d="M146.553191,84.245963 C145.275778,84.8793343 143.907492,85.2912162 142.502423,85.4653264 C139.920434,85.8072478 138.231113,82.3880341 138.231113,82.3880341 L137.245426,83.7229326 C136.931867,85.1405792 132.159462,85.4981134 130.219594,84.9610314 C129.817079,84.857563 129.43856,84.6712263 129.106383,84.4130205 C129.133388,83.7057585 129.139389,83.1202767 129.139389,83.1202767 L132.644054,81.7525912 L137.144907,80.2553191 L140.931625,82.1444737 L146.472176,83.2514246 L146.553191,84.245963 Z" id="Path" fill="#000000" fill-rule="nonzero" opacity="0.1"></path>
                <path d="M143.06383,53.2909596 L141.555443,78.5106383 L133.351329,76.8951271 L131.723404,66.7860106 L133.330882,53.212766 L134.541995,53.3603012 C134.511035,53.8547222 134.451705,54.3472199 134.364261,54.8356539 C134.167651,55.6987352 135.38191,61.8229242 135.38191,61.8229242 C135.38191,61.8229242 137.689317,68.6906909 138.727415,67.7007292 C139.765512,66.7107676 141.244014,61.4835931 141.244014,61.4835931 C142.245935,59.5449796 141.261316,54.1068297 141.18739,53.9976536 C141.135885,53.8368335 141.10422,53.6710014 141.093018,53.5034104 L143.06383,53.2909596 Z" id="Path" fill="#000000" fill-rule="nonzero" opacity="0.1"></path>
                <polygon id="Path" fill="#000000" fill-rule="nonzero" opacity="0.1" points="146.505629 72.7131778 146.553191 75.2355432 146.032165 75.893617 145.680851 69.787234 146.459147 69.787234"></polygon>
                <path d="M130.035556,67.8319368 L130.035556,67.8319368 C130.024524,67.9738235 129.995924,68.1147665 129.95008,68.2531696 C129.95008,68.2142056 129.95008,68.1920909 129.938084,68.1889316 C129.893096,68.180507 129.947081,68.0193854 130.035556,67.8319368 Z" id="Path" fill="#000000" fill-rule="nonzero" opacity="0.1"></path>
                <path d="M130.851064,69.4389749 L130.457913,75.893617 C130.457913,75.893617 129.868785,75.1815674 129.106383,74.2544693 L129.197202,73.1107296 C129.197202,73.1107296 129.518653,70.300762 129.635762,68.9148936 C129.688866,69.0995797 129.757838,69.2754452 129.8413,69.4389749 L130.851064,69.4389749 Z" id="Path" fill="#000000" fill-rule="nonzero" opacity="0.1"></path>
                <path d="M135.733173,50.080819 C135.733173,50.080819 135.259977,49.3832067 134.610848,50.7297961 C134.610848,50.7297961 132.918261,51.7131408 132.335865,51.8240901 C131.75347,51.9350393 129.681719,52.6645686 129.681719,52.6645686 C129.36883,52.8912234 128.992487,53.0130346 128.60641,53.0126149 C127.957281,53.0126149 127.418869,54.4397565 127.497735,55.2164013 C127.576601,55.993046 127.450719,56.5645106 126.850123,56.5964275 C126.249527,56.6283444 126.580158,57.8791832 126.580158,57.8791832 L130.582612,62.4767375 C130.582612,62.4767375 130.835893,66.7095273 130.710011,66.8371949 C130.584128,66.9648625 130.124582,68.2050623 130.235298,68.2476182 C130.346014,68.2901741 129.628636,72.9713203 129.628636,72.9713203 L128.664043,82.0554798 C128.664043,82.0554798 128.664043,83.5753325 130.626595,84.0996817 C132.589147,84.6240309 137.416661,84.2775045 137.727575,82.8974782 L138.724018,81.5964843 C138.724018,81.5964843 140.431772,84.9264816 143.041936,84.5936338 C145.6521,84.2607861 147.314354,83.3093583 147.314354,83.3093583 L147.029223,72.4226535 L146.839641,64.5756541 L150.914894,57.8655045 C150.914894,57.8655045 149.822902,55.7726673 149.918451,54.8257991 C150.014,53.8789309 150.202066,53.1615604 147.877033,52.8287127 C147.877033,52.8287127 145.915998,52.5353811 144.760306,51.7344188 C144.073495,51.2565351 143.322969,50.8779229 142.530823,50.6097278 C142.530823,50.6097278 141.878661,49.3938456 141.425181,49.8102853 C141.425181,49.8102853 141.880178,51.5292387 141.842261,51.7860938 C141.804345,52.0429489 141.913544,53.2041163 141.984827,53.3241847 C142.05611,53.444253 143.005536,59.0388308 142.039426,61.0359172 C142.039426,61.0359172 140.621354,66.4207553 139.612778,67.4405764 C138.604202,68.4603976 136.386852,61.3854833 136.386852,61.3854833 C136.386852,61.3854833 135.215994,55.075055 135.405576,54.187461 C135.595158,53.299867 135.733173,50.080819 135.733173,50.080819 Z" id="Path" fill="#3F3D56" fill-rule="nonzero"></path>
                <circle id="Oval" fill="#3F3D56" fill-rule="nonzero" cx="139.138298" cy="70.2234043" r="1"></circle>
                <circle id="Oval" fill="#3F3D56" fill-rule="nonzero" cx="139.138298" cy="73.712766" r="1"></circle>
                <circle id="Oval" fill="#000000" fill-rule="nonzero" opacity="0.1" cx="139.138298" cy="70.2234043" r="1"></circle>
                <circle id="Oval" fill="#000000" fill-rule="nonzero" opacity="0.1" cx="139.138298" cy="73.712766" r="1"></circle>
                <path d="M144.808511,114.93832 C144.808511,114.93832 147.176645,115.129435 147.411698,115.32055 C147.646752,115.511664 144.808511,114.93832 144.808511,114.93832 Z" id="Path" stroke="#0062B0" fill="#000000" fill-rule="nonzero" opacity="0.1"></path>
                <path d="M128.023441,112.531915 C128.023441,112.531915 128.642676,113.101632 128.379501,113.363702 C128.116326,113.625772 128.023441,112.531915 128.023441,112.531915 Z" id="Path" stroke="#0062B0" fill="#000000" fill-rule="nonzero" opacity="0.1"></path>
                <path d="M128.234043,115.306308 C128.234043,115.306308 129.430669,114.653128 129.909319,115.087221 C130.38797,115.521313 128.234043,115.306308 128.234043,115.306308 Z" id="Path" stroke="#0062B0" fill="#000000" fill-rule="nonzero" opacity="0.1"></path>
                <path d="M142.188512,45.177248 C142.189348,45.5338033 142.142319,45.8889812 142.048583,46.2340426 C141.860581,46.1518803 141.745499,45.9666065 141.759792,45.76911 C141.779144,45.5993954 141.896744,45.4439425 141.871438,45.275654 C141.834222,45.0160904 141.506727,44.9105536 141.334048,44.7051846 C141.121177,44.4570305 141.167324,44.0962086 141.185187,43.7753196 C141.20305,43.4544306 141.118199,43.0622329 140.804102,42.9524175 C140.710319,42.9196155 140.607605,42.9167632 140.5168,42.8796827 C140.26969,42.7798505 140.193771,42.4860588 140.028535,42.2835422 C139.698063,41.8756566 139.041584,41.8842136 138.539922,42.0781732 C138.321566,42.1784703 138.09798,42.2679616 137.870046,42.3462938 C137.639323,42.4242633 137.385069,42.4061622 137.168909,42.2963777 C137.070661,42.2364784 136.991764,42.1537604 136.890539,42.0938611 C136.554112,41.8999015 136.113483,42.0938611 135.821714,42.3434415 C135.529946,42.5930218 135.296234,42.9281726 134.928547,43.0807731 C134.763311,43.1520818 134.559371,43.194867 134.481963,43.3488937 C134.443648,43.4327476 134.427295,43.5242998 134.434327,43.6155881 C134.434327,44.1703696 134.502803,44.7337081 134.382226,45.2770802 C134.304818,45.6264927 134.048776,46.0229689 133.678112,45.9801837 C133.631922,45.9736359 133.586538,45.9626464 133.542648,45.9473817 C133.238355,44.38959 133.880093,42.8009424 135.199712,41.8452583 C136.519331,40.8895742 138.289693,40.7313489 139.771049,41.4366972 C141.252405,42.1420456 142.18978,43.5895607 142.191489,45.1743957 L142.188512,45.177248 Z" id="Path" fill="#000000" fill-rule="nonzero" opacity="0.1"></path>
                <path d="M133.366051,45.8119173 C133.479348,45.8383001 133.586603,45.8988255 133.702921,45.9143448 C134.079068,45.9609027 134.338896,45.5294659 134.417448,45.1492428 C134.539809,44.5579571 134.476363,43.9449443 134.471831,43.3412431 C134.463394,43.2419979 134.479502,43.1421715 134.51866,43.051032 C134.604766,42.8834235 134.811722,42.8368656 134.971849,42.759269 C135.337421,42.5916605 135.5761,42.2347163 135.878225,41.9569207 C136.180351,41.679125 136.619944,41.4742701 136.961346,41.6853327 C137.062558,41.74741 137.144132,41.8405258 137.243833,41.9057069 C137.46422,42.0234204 137.721973,42.0430561 137.95685,41.9600245 C138.190997,41.8886357 138.410038,41.7629293 138.635121,41.6682615 C139.139671,41.4571989 139.807369,41.4494392 140.145749,41.8901876 C140.313429,42.1121138 140.390471,42.4302596 140.641235,42.5388948 C140.733384,42.579245 140.837617,42.5839008 140.932787,42.6195952 C141.251529,42.7421978 141.333103,43.1658749 141.319507,43.5150594 C141.305912,43.8642439 141.260593,44.2568824 141.47057,44.5269184 C141.645803,44.7472926 141.978141,44.8621355 142.015907,45.1476908 C142.040077,45.3308187 141.922248,45.5015311 141.90261,45.684659 C141.893519,45.8221418 141.938413,45.9576368 142.027261,46.0608705 C142.116109,46.1641043 142.241506,46.2264733 142.375436,46.2340426 C142.768199,46.2340426 143.011411,45.7824306 143.378493,45.638101 C143.529556,45.5775757 143.712342,45.5682641 143.831681,45.4456616 C143.921471,45.3263865 143.955716,45.1726067 143.92534,45.0250883 C143.85132,44.4306987 143.387557,43.9139057 143.437408,43.3179642 C143.484237,42.7468536 143.999361,42.2486837 143.890596,41.6868847 C143.835193,41.4797324 143.731494,41.2895681 143.58847,41.1328453 C143.426543,40.9073754 143.215459,40.7240057 142.972134,40.5974291 C142.762157,40.5043132 142.518946,40.4825862 142.327096,40.3692952 C141.756079,40.0480455 141.757589,39.2100028 141.420719,38.6388921 C141.125971,38.1577249 140.594403,37.8858713 140.043027,37.9343155 C139.61854,37.9777695 139.23333,38.2090073 138.813376,38.2866038 C138.237826,38.3921351 137.654724,38.1981437 137.109387,37.9762176 C136.564051,37.7542915 136.012671,37.5106383 135.428058,37.5106383 C134.843445,37.5106383 134.210492,37.8210245 134.032238,38.3890313 C133.938579,38.6994175 133.985409,39.0315307 133.912899,39.3434688 C133.786006,39.8975082 133.308647,40.2916987 132.828268,40.5663905 C132.49744,40.7557261 132.100145,40.9729964 132.060869,41.3594272 C132.035188,41.6046323 132.166613,41.8250065 132.249697,42.062452 C132.391008,42.4641478 132.387793,42.9045237 132.240633,43.3039968 C132.130358,43.5973118 131.946061,43.8549323 131.834275,44.1466953 C131.673789,44.5472428 131.688088,44.9992435 131.873551,45.3882401 C132.015841,45.6716222 132.265597,45.8821683 132.563908,45.9702143 C132.861502,46.043155 133.048819,45.7405285 133.366051,45.8119173 Z" id="Path" fill="#3F3D56" fill-rule="nonzero"></path>
                <g id="Group" opacity="0.1" transform="translate(131.723404, 41.000000)" fill="#000000" fill-rule="nonzero">
                    <path d="M2.77021277,3.80974855 C2.69276596,4.19833656 2.43510638,4.63926499 2.06425532,4.59168279 C1.94957447,4.57582205 1.84531915,4.51396518 1.73212766,4.48700193 C1.42085106,4.41404255 1.23617021,4.72491296 0.942765957,4.64560928 C0.648265484,4.55567035 0.401543717,4.34054263 0.260638298,4.05083172 C0.182743412,3.88939364 0.135666212,3.71311546 0.12212766,3.53218569 C0.0924630185,3.81302186 0.140611536,4.09696432 0.260638298,4.34901354 C0.401543717,4.63872445 0.648265484,4.85385217 0.942765957,4.9437911 C1.2406383,5.01675048 1.42085106,4.70588008 1.73212766,4.78518375 C1.84110508,4.82558601 1.95196055,4.85999633 2.06425532,4.88827853 C2.43510638,4.93744681 2.69276596,4.49651838 2.77021277,4.10793037 C2.83127298,3.76461913 2.85525866,3.41499676 2.84170213,3.06588008 C2.84026241,3.31570016 2.81632298,3.56479716 2.77021277,3.80974855 Z" id="Path"></path>
                    <path d="M0.729787234,1.42112186 C0.748758649,1.1612189 0.71524104,0.900003146 0.631489362,0.655048356 C0.564116082,0.492172033 0.506899799,0.324742521 0.460212766,0.15384913 C0.453817657,0.180491189 0.448845149,0.207497718 0.445319149,0.234738878 C0.42,0.483752418 0.55106383,0.710560928 0.631489362,0.953230174 C0.683495374,1.1038928 0.716548315,1.26122272 0.729787234,1.42112186 L0.729787234,1.42112186 Z" id="Path"></path>
                    <path d="M12.1085106,0.585261122 C12.0385106,1.035706 11.6959574,1.45918762 11.6617021,1.9334236 C11.6534446,2.01460459 11.6534446,2.09649792 11.6617021,2.17767892 C11.7361702,1.62413926 12.196383,1.13404255 12.1085106,0.585261122 Z" id="Path"></path>
                    <path d="M12.1338298,3.93187621 C12.1211996,3.99819877 12.0918523,4.05960811 12.0489362,4.10951644 C11.9387234,4.23481625 11.7510638,4.24433269 11.6021277,4.30618956 C11.2402128,4.45369439 11.006383,4.92 10.6131915,4.91524178 C10.4071224,4.90281123 10.2295128,4.75654088 10.166383,4.54727273 C10.1573039,4.58164673 10.1503388,4.6166145 10.1455319,4.65195358 C10.1369838,4.79219694 10.1814332,4.93026027 10.2689871,5.03541502 C10.3565409,5.14056977 10.4799337,5.20408979 10.6117021,5.21183752 C11.0004255,5.21183752 11.2387234,4.75029014 11.6006383,4.60437137 C11.7495745,4.54251451 11.9312766,4.53299807 12.0474468,4.40769826 C12.135972,4.28579913 12.1697357,4.12863618 12.1397872,3.97787234 C12.1382979,3.95883946 12.1353191,3.94615087 12.1338298,3.93187621 Z" id="Path"></path>
                    <path d="M10.2661702,3.80023211 C10.2289362,3.51156673 9.9012766,3.39419729 9.72851064,3.16580271 C9.62258526,3.01577966 9.56511018,2.83327081 9.56468085,2.6455706 C9.55276596,2.94058027 9.55723404,3.24193424 9.72851064,3.46398453 C9.89978723,3.68603482 10.1604255,3.78119923 10.2438298,4.00959381 C10.2649041,3.94222908 10.2725138,3.87091482 10.2661702,3.80023211 L10.2661702,3.80023211 Z" id="Path"></path>
                    <path d="M9.57361702,2.13961315 C9.58553191,1.78274662 9.50510638,1.3465764 9.19085106,1.22444874 C9.09851064,1.18796905 8.99574468,1.18321083 8.90489362,1.14355899 C8.65765957,1.03253385 8.58021277,0.705802708 8.41638298,0.480580271 C8.08425532,0.028549323 7.42744681,0.0364796905 6.92702128,0.252185687 C6.70361702,0.34893617 6.4906383,0.477408124 6.25829787,0.550367505 C6.02745877,0.637078811 5.77307745,0.616948269 5.55680851,0.494854932 C5.45851064,0.428239845 5.37808511,0.336247582 5.27829787,0.269632495 C4.94021277,0.053926499 4.4993617,0.269632495 4.20893617,0.547195358 C3.91851064,0.824758221 3.68319149,1.19589942 3.31531915,1.36719536 C3.14851064,1.44649903 2.94595745,1.49408124 2.85957447,1.66537718 C2.82169099,1.7587499 2.80583988,1.86057683 2.81340426,1.96197292 C2.81340426,2.02382979 2.81340426,2.08568665 2.81340426,2.14754352 C2.81537789,2.08364613 2.83010132,2.02092812 2.85659574,1.96355899 C2.94297872,1.79226306 3.14553191,1.74468085 3.31234043,1.66537718 C3.67276596,1.49408124 3.90808511,1.12928433 4.20595745,0.845377176 C4.50382979,0.561470019 4.93723404,0.352108317 5.27531915,0.567814313 C5.37510638,0.631257253 5.45553191,0.726421663 5.55382979,0.791450677 C5.76988976,0.914313378 6.02457994,0.934468363 6.25531915,0.84696325 C6.48296156,0.760668086 6.70617848,0.661665736 6.92404255,0.550367505 C7.42297872,0.334661509 8.07978723,0.325145068 8.41340426,0.777176015 C8.57723404,1.00239845 8.65468085,1.32912959 8.90191489,1.44015474 C8.99276596,1.48139265 9.09553191,1.48615087 9.18787234,1.52263056 C9.44255319,1.62413926 9.54382979,1.92866538 9.56617021,2.23001934 L9.57361702,2.13961315 Z" id="Path"></path>
                </g>
                <g id="Group" opacity="0.1" transform="translate(134.340426, 43.617021)" fill="#000000" fill-rule="nonzero">
                    <path d="M0.00444399839,1.04157447 C0.021881192,0.59544235 0.370804697,0.213105495 0.860654356,0.10337234 C1.52121083,-0.0392572257 2.21421795,-0.011555791 2.85749097,0.183191489 C4.26327579,0.59406383 2.67973103,2.07268085 2.67973103,2.07268085 C2.67973103,2.07268085 1.62650341,2.9886383 0.644379767,2.3487766 C0.354297035,2.15510907 0.151206091,1.87697419 0.0711039743,1.56367021 C0.0230158386,1.39298066 0.000602885639,1.21743743 0.00444399839,1.04157447 L0.00444399839,1.04157447 Z" id="Path"></path>
                    <path d="M7.73255721,1.04157447 C7.71493691,0.59506704 7.36530115,0.212611419 6.87486552,0.10337234 C6.21477822,-0.0390012123 5.52232741,-0.0113014665 4.87951024,0.183191489 C3.47372541,0.59406383 5.05727017,2.07268085 5.05727017,2.07268085 C5.05727017,2.07268085 6.10901646,2.9886383 7.09262144,2.3487766 C7.38270417,2.15510907 7.58579511,1.87697419 7.66589723,1.56367021 C7.71398537,1.39298066 7.73639832,1.21743743 7.73255721,1.04157447 L7.73255721,1.04157447 Z" id="Path"></path>
                    <polygon id="Path" points="2.5923324 0.0628085106 2.5923324 0.124308511 5.15948214 0.124308511 5.15948214 0.0510319149"></polygon>
                    <path d="M3.41150943,0.71837234 L3.49298274,0.71837234 L3.49298274,0.510319149 C3.49298274,0.510319149 3.75369731,0.331053191 4.18624649,0.510319149 L4.18624649,0.69612766 L4.33437977,0.69612766 L4.33437977,0.57443617 L4.26179446,0.57443617 C4.26179446,0.57443617 4.29142112,0.321893617 3.80850662,0.362457447 C3.80850662,0.362457447 3.42039743,0.329744681 3.42928543,0.546957447 L3.34040546,0.546957447 L3.41150943,0.71837234 Z" id="Path"></path>
                </g>
                <path d="M133.468546,44.666596 C133.486258,44.2108025 133.84067,43.8201858 134.338226,43.7080763 C135.00928,43.5633314 135.712878,43.5916202 136.366476,43.789624 C137.794376,44.210731 136.185919,45.7200319 136.185919,45.7200319 C136.185919,45.7200319 135.116123,46.6558252 134.118549,46.0021068 C133.823319,45.8047276 133.616881,45.520361 133.536255,45.1999982 C133.487254,45.0256372 133.464486,44.846274 133.468546,44.666596 L133.468546,44.666596 Z" id="Path" fill="#0062B0" fill-rule="nonzero"></path>
                <path d="M141.318688,44.6666122 C141.30079,44.21044 140.945654,43.8197059 140.447503,43.7081023 C139.776958,43.5633211 139.07383,43.5916117 138.420758,43.7896492 C136.992858,44.2107519 138.601315,45.7200372 138.601315,45.7200372 C138.601315,45.7200372 139.669606,46.6558209 140.668685,46.0021092 C140.963915,45.8047321 141.170353,45.5203684 141.250979,45.2000089 C141.29998,45.0256497 141.322748,44.8462883 141.318688,44.6666122 Z" id="Path" fill="#0062B0" fill-rule="nonzero"></path>
                <polygon id="Path" fill="#0062B0" fill-rule="nonzero" points="136.085106 43.5877713 136.085106 43.6597713 138.702128 43.6597713 138.702128 43.5742713"></polygon>
                <path d="M137.01985,43.8276377 L137.091353,43.8276377 L137.091353,43.5842497 C137.091353,43.5842497 137.320164,43.3760687 137.699781,43.5842497 L137.699781,43.8031458 L137.829787,43.8031458 L137.829787,43.6592561 L137.766084,43.6592561 C137.766084,43.6592561 137.792085,43.3653536 137.368266,43.4112758 C137.368266,43.4112758 137.02765,43.374538 137.03545,43.6271105 L136.957447,43.6271105 L137.01985,43.8276377 Z" id="Path" fill="#0062B0" fill-rule="nonzero"></path>
                <rect id="Rectangle" fill="#535461" fill-rule="nonzero" x="17.4468085" y="68.9148936" width="1" height="19.1914894"></rect>
                <path d="M23.5506361,87.6431989 L23.4976935,88.4985197 L23.4241621,89.7057694 L23.3932789,90.2091613 L23.3197475,91.4178959 L23.2873937,91.9212878 L23.2138623,93.1285375 L22.3711926,106.859703 C22.2965837,108.086287 21.2896589,109.042553 20.0726014,109.042553 L15.6930719,109.042553 C14.4762917,109.042553 13.4698134,108.086053 13.3959513,106.859703 L12.5488697,93.1285375 L12.4753383,91.9212878 L12.4444551,91.4178959 L12.3723944,90.2061914 L12.3415112,89.7027995 L12.2679798,88.4955498 L12.2150372,87.640229 C12.1947397,87.3084342 12.3111738,86.982925 12.5367608,86.740802 C12.7623479,86.4986789 13.0770208,86.3617021 13.4062457,86.3617021 L22.3608982,86.3617021 C22.690551,86.3614002 23.0055888,86.499048 23.2310427,86.7418899 C23.4564966,86.9847319 23.5722061,87.311053 23.5506361,87.6431989 L23.5506361,87.6431989 Z" id="Path" fill="#3F3D56" fill-rule="nonzero"></path>
                <polygon id="Path" fill="#9D9CB5" fill-rule="nonzero" points="23.5531915 88.9787234 23.4789449 89.8510638 12.2870126 89.8510638 12.212766 88.9787234"></polygon>
                <polygon id="Path" fill="#9D9CB5" fill-rule="nonzero" points="23.5531915 90.7234043 23.4775382 91.5957447 12.2899323 91.5957447 12.212766 90.7234043"></polygon>
                <polygon id="Path" fill="#9D9CB5" fill-rule="nonzero" points="23.5531915 91.5957447 23.4760562 92.4680851 12.2914439 92.4680851 12.212766 91.5957447"></polygon>
                <path d="M11.1571656,76.2239529 C16.2130429,79.8368132 18.3191489,85.4893617 18.3191489,85.4893617 C18.3191489,85.4893617 12.2255024,85.2825243 7.16198331,81.6696641 C2.09846417,78.0568039 0,72.4042553 0,72.4042553 C0,72.4042553 6.09976,72.6110927 11.1571656,76.2239529 Z" id="Path" fill="#0062B0" fill-rule="nonzero"></path>
                <path d="M0,72.4042553 C0,72.4042553 6.32707105,75.8763071 8.3560762,78.7445238 C10.3850813,81.6127404 18.3191489,85.4893617 18.3191489,85.4893617" id="Path" stroke="#535461" stroke-width="2"></path>
                <path d="M14.565316,68.335121 C17.2140417,70.2584495 18.3191489,73.2765957 18.3191489,73.2765957 C18.3191489,73.2765957 15.1259629,73.167114 12.4757657,71.239347 C9.82556846,69.3115801 8.72340426,66.2978723 8.72340426,66.2978723 C8.72340426,66.2978723 11.9165903,66.3999567 14.565316,68.335121 Z" id="Path" fill="#0062B0" fill-rule="nonzero"></path>
                <path d="M8.72340426,66.2978723 C8.72340426,66.2978723 12.0372544,68.1472266 13.0996878,69.678492 C14.1621211,71.2097574 18.3191489,73.2765957 18.3191489,73.2765957" id="Path" stroke="#535461" stroke-width="2"></path>
                <path d="M22.1134222,73.3492908 C18.9807999,76.7214503 18.3191489,81.1276596 18.3191489,81.1276596 C18.3191489,81.1276596 22.7341931,80.0669055 25.8653013,76.694746 C28.9964094,73.3225865 29.6595745,68.9148936 29.6595745,68.9148936 C29.6595745,68.9148936 25.2445303,69.9756477 22.1134222,73.3492908 Z" id="Path" fill="#0062B0" fill-rule="nonzero"></path>
                <path d="M29.6595745,68.9148936 C29.6595745,68.9148936 25.5806551,72.3699379 24.5435133,74.7513976 C23.5063716,77.1328573 18.3191489,81.1276596 18.3191489,81.1276596" id="Path" stroke="#535461" stroke-width="2"></path>
            </g>
        </g>
    </g>
</svg>