<svg width="166" height="141" viewBox="0 0 166 141" fill="none" xmlns="http://www.w3.org/2000/svg">
<g clip-path="url(#clip0_259_7802)">
<path d="M97.4832 36.1976H92.5617C92.3107 36.1973 92.0702 36.0974 91.8928 35.9197C91.7153 35.7421 91.6155 35.5012 91.6152 35.25V30.3226C91.6155 30.0714 91.7153 29.8305 91.8928 29.6529C92.0702 29.4752 92.3107 29.3753 92.5617 29.375H97.4832C97.7341 29.3753 97.9746 29.4752 98.1521 29.6529C98.3295 29.8305 98.4293 30.0714 98.4296 30.3226V35.25C98.4293 35.5012 98.3295 35.7421 98.1521 35.9197C97.9746 36.0974 97.7341 36.1973 97.4832 36.1976ZM92.5617 29.754C92.4111 29.7542 92.2668 29.8142 92.1603 29.9207C92.0539 30.0273 91.994 30.1718 91.9938 30.3226V35.25C91.994 35.4007 92.0539 35.5453 92.1603 35.6518C92.2668 35.7584 92.4111 35.8184 92.5617 35.8186H97.4832C97.6337 35.8184 97.778 35.7584 97.8845 35.6518C97.991 35.5453 98.0508 35.4007 98.051 35.25V30.3226C98.0508 30.1718 97.991 30.0273 97.8845 29.9207C97.778 29.8142 97.6337 29.7542 97.4832 29.754H92.5617Z" fill="#E6E6E6"/>
<path d="M40.1287 6.82258H35.2072C34.9563 6.82229 34.7157 6.72237 34.5383 6.54472C34.3608 6.36708 34.261 6.12623 34.2607 5.875V0.947581C34.261 0.696355 34.3608 0.455501 34.5383 0.277857C34.7157 0.100214 34.9563 0.000287411 35.2072 0H40.1287C40.3796 0.000287411 40.6201 0.100214 40.7976 0.277857C40.975 0.455501 41.0748 0.696355 41.0751 0.947581V5.875C41.0748 6.12623 40.975 6.36708 40.7976 6.54472C40.6201 6.72237 40.3796 6.82229 40.1287 6.82258ZM35.2072 0.379032C35.0566 0.379197 34.9123 0.43915 34.8058 0.545738C34.6994 0.652326 34.6395 0.796843 34.6393 0.947581V5.875C34.6395 6.02574 34.6994 6.17025 34.8058 6.27684C34.9123 6.38343 35.0566 6.44338 35.2072 6.44355H40.1287C40.2792 6.44338 40.4236 6.38343 40.53 6.27684C40.6365 6.17025 40.6964 6.02574 40.6965 5.875V0.947581C40.6964 0.796843 40.6365 0.652326 40.53 0.545738C40.4236 0.43915 40.2792 0.379197 40.1287 0.379032H35.2072Z" fill="#E6E6E6"/>
<path d="M94.4548 33.7327H89.5334C89.2824 33.7324 89.0419 33.6325 88.8644 33.4549C88.687 33.2772 88.5872 33.0364 88.5869 32.7852V27.8577C88.5872 27.6065 88.687 27.3657 88.8644 27.188C89.0419 27.0104 89.2824 26.9104 89.5334 26.9102H94.4548C94.7058 26.9104 94.9463 27.0104 95.1237 27.188C95.3012 27.3657 95.401 27.6065 95.4013 27.8577V32.7852C95.401 33.0364 95.3012 33.2772 95.1237 33.4549C94.9463 33.6325 94.7058 33.7324 94.4548 33.7327ZM89.5334 27.2892C89.3828 27.2894 89.2385 27.3493 89.132 27.4559C89.0255 27.5625 88.9657 27.707 88.9655 27.8577V32.7852C88.9657 32.9359 89.0255 33.0804 89.132 33.187C89.2385 33.2936 89.3828 33.3535 89.5334 33.3537H94.4548C94.6054 33.3535 94.7497 33.2936 94.8562 33.187C94.9626 33.0804 95.0225 32.9359 95.0227 32.7852V27.8577C95.0225 27.707 94.9626 27.5625 94.8562 27.4559C94.7497 27.3493 94.6054 27.2894 94.4548 27.2892H89.5334Z" fill="#E6E6E6"/>
<path d="M8.89624 74.8577H3.97476C3.72384 74.8575 3.48327 74.7575 3.30584 74.5799C3.12841 74.4022 3.02861 74.1614 3.02832 73.9102V68.9827C3.02861 68.7315 3.12841 68.4907 3.30584 68.313C3.48327 68.1354 3.72384 68.0354 3.97476 68.0352H8.89624C9.14716 68.0354 9.38772 68.1354 9.56515 68.313C9.74258 68.4907 9.84239 68.7315 9.84267 68.9827V73.9102C9.84239 74.1614 9.74258 74.4022 9.56515 74.5799C9.38772 74.7575 9.14716 74.8575 8.89624 74.8577ZM3.97476 68.4142C3.8242 68.4144 3.67986 68.4743 3.5734 68.5809C3.46694 68.6875 3.40706 68.832 3.4069 68.9827V73.9102C3.40706 74.0609 3.46694 74.2054 3.5734 74.312C3.67986 74.4186 3.8242 74.4786 3.97476 74.4787H8.89624C9.04679 74.4786 9.19113 74.4186 9.29759 74.312C9.40405 74.2054 9.46393 74.0609 9.4641 73.9102V68.9827C9.46393 68.832 9.40405 68.6875 9.29759 68.5809C9.19113 68.4743 9.04679 68.4144 8.89624 68.4142H3.97476Z" fill="#E6E6E6"/>
<path d="M5.86792 72.3968H0.946438C0.695515 72.3965 0.454952 72.2966 0.277522 72.1189C0.100093 71.9413 0.000287064 71.7004 0 71.4492V66.5218C0.000287064 66.2706 0.100093 66.0297 0.277522 65.8521C0.454952 65.6744 0.695515 65.5745 0.946438 65.5742H5.86792C6.11884 65.5745 6.3594 65.6744 6.53683 65.8521C6.71426 66.0297 6.81407 66.2706 6.81435 66.5218V71.4492C6.81407 71.7004 6.71426 71.9413 6.53683 72.1189C6.3594 72.2966 6.11884 72.3965 5.86792 72.3968ZM0.946438 65.9533C0.795882 65.9534 0.651539 66.0134 0.54508 66.12C0.438621 66.2265 0.37874 66.3711 0.378575 66.5218V71.4492C0.37874 71.6 0.438621 71.7445 0.54508 71.8511C0.651539 71.9576 0.795882 72.0176 0.946438 72.0178H5.86792C6.01847 72.0176 6.16281 71.9576 6.26927 71.8511C6.37573 71.7445 6.43561 71.6 6.43578 71.4492V66.5218C6.43561 66.3711 6.37573 66.2265 6.26927 66.12C6.16281 66.0134 6.01847 65.9534 5.86792 65.9533H0.946438Z" fill="#E6E6E6"/>
<path d="M17.4958 16.3049H63.0414C65.2392 16.3049 67.3716 17.0535 69.0881 18.4278C70.8046 19.802 72.003 21.7201 72.4864 23.8667L95.4997 126.067C95.7507 127.181 95.7551 128.338 95.5126 129.454C95.2701 130.571 94.7866 131.621 94.096 132.531C93.4053 133.44 92.5243 134.188 91.5146 134.721C90.5049 135.253 89.3911 135.559 88.2511 135.615L41.43 137.924C38.9229 138.048 36.4564 137.254 34.4909 135.691C32.5255 134.128 31.1952 131.902 30.7484 129.429L17.6939 57.1725L16.7227 57.4503L14.2248 43.755L15.2245 43.5048L11.5805 23.3354C11.4245 22.4716 11.4607 21.5838 11.6866 20.7355C11.9124 19.8873 12.3225 19.0993 12.8874 18.4279C13.4523 17.7564 14.1582 17.2181 14.9548 16.8511C15.7514 16.4841 16.619 16.2976 17.4958 16.3049V16.3049Z" fill="#3F3D56"/>
<path d="M57.0456 18.5078H62.3621C63.8889 18.5078 65.3698 19.0306 66.559 19.9894C67.7481 20.9482 68.5739 22.2854 68.8994 23.7789L90.989 125.145C91.1161 125.729 91.116 126.333 90.9886 126.916C90.8612 127.5 90.6095 128.049 90.2507 128.526C89.8918 129.004 89.4344 129.398 88.9095 129.682C88.3846 129.966 87.8047 130.133 87.2094 130.172L40.5397 133.234C39.2231 133.321 37.9208 132.919 36.8813 132.105C35.8419 131.291 35.138 130.123 34.9041 128.823L16.055 24.0512C15.933 23.3731 15.9611 22.6764 16.1374 22.0104C16.3137 21.3443 16.6338 20.7251 17.0752 20.1965C17.5166 19.6678 18.0685 19.2426 18.692 18.9508C19.3154 18.659 19.9953 18.5078 20.6835 18.5078H25.727C26.2152 18.5078 26.6897 18.6689 27.0772 18.9662C27.4646 19.2635 27.7434 19.6804 27.8703 20.1523C27.9823 20.569 28.2284 20.937 28.5705 21.1995C28.9125 21.4619 29.3314 21.6041 29.7624 21.6041H53.706C54.5498 21.6041 55.3626 21.2852 55.9818 20.7112C56.6009 20.1371 56.9809 19.3502 57.0456 18.5078L57.0456 18.5078Z" fill="white"/>
<path d="M19.6855 35.7422H70.3154L75.7092 60.0749L24.4177 61.0225L19.6855 35.7422Z" fill="#0062B0"/>
<path d="M67.7646 81.8242H79.6843L80.0629 84.1088H68.1432L67.7646 81.8242Z" fill="#0062B0"/>
<path d="M77.4632 70.1704L26.9111 71.2422L26.9162 71.4804L77.4682 70.4086L77.4632 70.1704Z" fill="#2F2E41"/>
<path d="M79.0095 77.1958L27.5059 78.3867L27.5114 78.6249L79.015 77.434L79.0095 77.1958Z" fill="#2F2E41"/>
<path d="M72.6865 106.273H84.6062L84.9847 108.558H73.0651L72.6865 106.273Z" fill="#0062B0"/>
<path d="M82.385 94.6157L31.833 95.6875L31.838 95.9257L82.3901 94.8539L82.385 94.6157Z" fill="#2F2E41"/>
<path d="M83.9304 101.645L32.4268 102.836L32.4323 103.074L83.9358 101.883L83.9304 101.645Z" fill="#2F2E41"/>
<path d="M116.518 138.577L114.262 138.577L113.189 129.867L116.518 129.867L116.518 138.577Z" fill="#A0616A"/>
<path d="M117.092 140.762L109.82 140.762V140.67C109.82 139.918 110.119 139.197 110.649 138.666C111.18 138.135 111.9 137.836 112.651 137.836H112.651L117.093 137.836L117.092 140.762Z" fill="#2F2E41"/>
<path d="M144.536 137.095L142.34 137.613L139.302 129.381L142.542 128.617L144.536 137.095Z" fill="#A0616A"/>
<path d="M145.597 139.094L138.518 140.763L138.497 140.673C138.325 139.942 138.45 139.172 138.845 138.533C139.24 137.894 139.873 137.438 140.604 137.265L140.604 137.265L144.927 136.246L145.597 139.094Z" fill="#2F2E41"/>
<path d="M116.057 101.838C116.061 101.384 116.195 90.6724 119.128 86.6223L119.171 86.5625L129.391 87.9741L129.163 90.2223C129.612 90.6601 133.148 94.3594 134.169 103.12L145.017 132.289L139.974 132.748L125.046 100.906L117.146 135.518H112.146L116.057 101.838Z" fill="#2F2E41"/>
<path d="M117.931 87.0164L118.93 81.7652C118.734 81.5132 117.868 80.3027 118.06 78.8838C118.186 77.9582 118.738 77.1465 119.701 76.4706L122.291 70.4212L122.326 70.4007C122.5 70.2979 126.623 67.9109 128.871 70.1629C128.927 70.2066 134.461 74.6048 132.238 80.5381L129.495 88.7793L117.931 87.0164Z" fill="#CCCCCC"/>
<path d="M114.455 94.1249C114.724 94.0941 114.983 94.0045 115.214 93.8625C115.446 93.7204 115.643 93.5294 115.792 93.3028C115.941 93.0762 116.039 92.8196 116.079 92.5511C116.118 92.2825 116.099 92.0085 116.021 91.7484L121.369 87.891L118.167 86.6719L113.58 90.5219C113.152 90.6814 112.798 90.9925 112.584 91.3962C112.37 91.7999 112.311 92.2682 112.419 92.7123C112.527 93.1565 112.794 93.5456 113.169 93.8059C113.544 94.0663 114.001 94.1798 114.455 94.1249Z" fill="#A0616A"/>
<path d="M115.438 87.8842L123.602 81.4442L121.175 73.1418C121.061 72.7487 121.029 72.3362 121.08 71.93C121.132 71.5238 121.267 71.1327 121.476 70.7809C121.67 70.4493 121.931 70.1618 122.242 69.9369C122.553 69.712 122.908 69.5547 123.283 69.475C124.681 69.1789 125.949 69.9624 127.053 71.8041L127.062 71.8208C127.244 72.2677 131.497 82.794 128.25 85.045C125.073 87.2469 117.707 90.4523 117.633 90.4846L117.546 90.522L115.438 87.8842Z" fill="#CCCCCC"/>
<path d="M126.288 67.9735C129.02 67.9735 131.234 65.7566 131.234 63.0219C131.234 60.2872 129.02 58.0703 126.288 58.0703C123.557 58.0703 121.343 60.2872 121.343 63.0219C121.343 65.7566 123.557 67.9735 126.288 67.9735Z" fill="#A0616A"/>
<path d="M134.042 61.2572C136.459 61.2572 138.418 59.2959 138.418 56.8766C138.418 54.4573 136.459 52.4961 134.042 52.4961C131.626 52.4961 129.667 54.4573 129.667 56.8766C129.667 59.2959 131.626 61.2572 134.042 61.2572Z" fill="#2F2E41"/>
<path d="M137.816 60.5067C137.25 60.9165 136.594 61.1846 135.903 61.2885C135.212 61.3923 134.506 61.329 133.844 61.1038C133.183 60.8786 132.585 60.4981 132.1 59.994C131.616 59.4899 131.259 58.877 131.06 58.2066C131.135 58.8074 131.334 59.3861 131.644 59.906C131.954 60.4259 132.369 60.8758 132.861 61.2273C133.354 61.5788 133.914 61.8243 134.506 61.9481C135.098 62.072 135.709 62.0716 136.301 61.9471C136.893 61.8225 137.453 61.5764 137.945 61.2243C138.437 60.8722 138.851 60.4218 139.16 59.9015C139.47 59.3812 139.668 58.8023 139.743 58.2014C139.818 57.6005 139.767 56.9906 139.595 56.4102C139.693 57.1899 139.579 57.9817 139.266 58.7025C138.953 59.4233 138.452 60.0465 137.816 60.5067Z" fill="#2F2E41"/>
<path d="M120.549 60.508C121.313 59.1389 121.605 58.567 122.59 57.7345C123.461 56.9982 124.532 56.782 125.396 57.4796C126.418 57.0374 127.555 56.9372 128.639 57.1937C129.723 57.4503 130.695 58.0499 131.411 58.9036C132.127 59.7573 132.549 60.8195 132.614 61.9324C132.679 63.0453 132.384 64.1495 131.772 65.0811C131.161 66.0127 130.265 66.7219 129.219 67.1033C128.173 67.4848 127.031 67.5182 125.965 67.1986C124.898 66.879 123.963 66.2233 123.298 65.3291C122.633 64.4349 122.274 63.3498 122.274 62.235C122.275 62.0392 122.286 61.8437 122.309 61.6492C121.558 61.5436 121.3 60.6136 120.549 60.508Z" fill="#2F2E41"/>
<path d="M165.811 141H93.6922C93.642 141 93.5939 140.98 93.5584 140.945C93.5229 140.909 93.5029 140.861 93.5029 140.811C93.5029 140.76 93.5229 140.712 93.5584 140.677C93.5939 140.641 93.642 140.621 93.6922 140.621H165.811C165.861 140.621 165.909 140.641 165.945 140.677C165.98 140.712 166 140.76 166 140.811C166 140.861 165.98 140.909 165.945 140.945C165.909 140.98 165.861 141 165.811 141Z" fill="#3F3D56"/>
<g clip-path="url(#clip1_259_7802)">
<rect width="91.6364" height="17" rx="4" transform="matrix(0.999914 -0.0130896 0.188924 0.981992 1.28711 39.957)" fill="#173552"/>
<path fill-rule="evenodd" clip-rule="evenodd" d="M42.8854 51.7343C42.5531 51.9432 42.1467 52.0508 41.6661 52.0571C41.279 52.0621 40.9136 51.9948 40.57 51.855C40.2264 51.7153 39.9165 51.5073 39.6403 51.231C39.3641 50.9547 39.1259 50.6091 38.9256 50.194C38.7253 49.7789 38.5731 49.3008 38.469 48.7596C38.3764 48.2786 38.357 47.8299 38.4108 47.4137C38.4645 46.9975 38.5878 46.6352 38.7805 46.327C38.9732 46.0187 39.2331 45.7753 39.56 45.5966C39.887 45.4179 40.2796 45.3256 40.7379 45.3196C41.1517 45.3142 41.5185 45.3772 41.8382 45.5086C42.1579 45.6401 42.457 45.8267 42.7355 46.0685L42.0389 42.4477L43.2269 42.4321L45.0527 51.9223L44.3452 51.9316C44.1761 51.9338 44.0541 51.8557 43.979 51.6974L43.7197 50.9063C43.4958 51.2494 43.2177 51.5254 42.8854 51.7343ZM35.3521 52.1399C35.5968 52.1367 35.8399 52.1131 36.0812 52.069C36.3225 52.025 36.5521 51.9606 36.77 51.8759C36.9879 51.7913 37.187 51.6842 37.3673 51.5549C37.5476 51.4255 37.6947 51.2739 37.8085 51.1002L37.3942 50.6858C37.3267 50.6135 37.2441 50.5779 37.1462 50.5792C37.0705 50.5802 36.9868 50.6147 36.8951 50.6826C36.8033 50.7506 36.687 50.8242 36.5462 50.9036C36.4053 50.9829 36.2334 51.0573 36.0304 51.1267C35.8274 51.1961 35.5768 51.2327 35.2787 51.2366C34.9583 51.2408 34.6594 51.1942 34.3819 51.0966C34.1044 50.999 33.8526 50.8495 33.6264 50.6479C33.4003 50.4463 33.2045 50.1938 33.039 49.8902C32.8736 49.5866 32.7467 49.2288 32.6585 48.8165L37.1571 48.7576C37.2683 48.7562 37.3382 48.7251 37.3666 48.6645C37.3951 48.6038 37.392 48.4833 37.3573 48.3029C37.2681 47.839 37.1184 47.4265 36.9084 47.0654C36.6985 46.7043 36.4451 46.4019 36.1484 46.1582C35.8517 45.9145 35.5195 45.7294 35.1516 45.6029C34.7838 45.4763 34.3975 45.4157 33.9925 45.421C33.5031 45.4274 33.0785 45.5159 32.7187 45.6864C32.359 45.8569 32.0713 46.0889 31.8556 46.3823C31.64 46.6758 31.4979 47.0211 31.4293 47.4181C31.3607 47.8152 31.3702 48.2413 31.4578 48.6966C31.566 49.2593 31.742 49.7565 31.9856 50.1882C32.2293 50.6199 32.5229 50.981 32.8665 51.2715C33.2101 51.5619 33.5935 51.7808 34.0166 51.9281C34.4397 52.0755 34.8849 52.1461 35.3521 52.1399ZM36.2388 48.0533L32.5612 48.1015C32.5322 47.5334 32.6516 47.0873 32.9193 46.763C33.187 46.4387 33.6078 46.2728 34.1818 46.2653C34.4533 46.2617 34.7031 46.3026 34.9314 46.3879C35.1597 46.4732 35.3628 46.5954 35.5406 46.7545C35.7184 46.9137 35.8664 47.1033 35.9846 47.3236C36.1028 47.5438 36.1876 47.787 36.2388 48.0533ZM41.8814 51.1239C41.6055 51.1275 41.3521 51.0856 41.1212 50.9982C40.8902 50.9108 40.6825 50.7704 40.4981 50.5769C40.3137 50.3833 40.1545 50.1357 40.0206 49.8339C39.8867 49.532 39.7788 49.1685 39.697 48.7433C39.5425 47.9401 39.5926 47.3194 39.8473 46.8812C40.102 46.4429 40.5453 46.2197 41.1771 46.2114C41.4931 46.2073 41.7921 46.2604 42.0743 46.3708C42.3565 46.4812 42.6339 46.6767 42.9065 46.9574L43.5138 50.1143C43.3294 50.4311 43.108 50.6773 42.8496 50.8529C42.5912 51.0285 42.2685 51.1188 41.8814 51.1239ZM50.3703 51.6686C50.0422 51.8646 49.6423 51.9656 49.1707 51.9718C48.8013 51.9766 48.464 51.9218 48.1588 51.8074C47.8535 51.693 47.5845 51.5296 47.3519 51.3174C47.1192 51.1051 46.9257 50.8472 46.7714 50.5435C46.6171 50.2397 46.5044 49.9032 46.4333 49.5338L45.6326 45.3718L46.8206 45.3563L47.6213 49.5183C47.7164 50.0122 47.9078 50.3929 48.1957 50.6604C48.4836 50.928 48.8656 51.0586 49.3417 51.0524C49.6888 51.0478 50.0005 50.9641 50.277 50.8011C50.5534 50.6382 50.7934 50.4133 50.997 50.1264L50.0711 45.3137L51.2591 45.2982L52.5147 51.8247L51.8072 51.8339C51.6382 51.8361 51.5161 51.7581 51.441 51.5997L51.2125 50.8987C50.9791 51.2161 50.6984 51.4727 50.3703 51.6686Z" fill="white"/>
<path fill-rule="evenodd" clip-rule="evenodd" d="M56.1921 51.778L54.4159 42.5455L53.1211 42.5625L54.8973 51.7949L56.1921 51.778ZM62.3328 51.6976C63.0358 51.6884 63.6553 51.5694 64.1912 51.3406C64.7271 51.1119 65.1631 50.7929 65.4992 50.3837C65.8353 49.9746 66.0623 49.485 66.1802 48.9151C66.298 48.3452 66.2905 47.7144 66.1574 47.0229C66.0244 46.3314 65.7898 45.7036 65.4538 45.1397C65.1178 44.5757 64.7039 44.0934 64.212 43.693C63.7201 43.2925 63.1636 42.9854 62.5426 42.7718C61.9216 42.5582 61.2596 42.456 60.5565 42.4652L56.9791 42.512L58.7553 51.7444L62.3328 51.6976ZM59.862 50.7157L62.1379 50.6859C62.6496 50.6792 63.0989 50.5915 63.4858 50.4228C63.8727 50.2542 64.1834 50.0143 64.418 49.7034C64.6526 49.3924 64.807 49.0126 64.8812 48.5638C64.9555 48.115 64.9381 47.6071 64.829 47.0401C64.7199 46.4732 64.5423 45.9674 64.2962 45.5228C64.0501 45.0782 63.7504 44.7032 63.3972 44.3978C63.0441 44.0924 62.6426 43.8608 62.193 43.7031C61.7433 43.5453 61.2626 43.4698 60.7509 43.4765L58.475 43.5063L59.862 50.7157Z" fill="#5BA5FB"/>
</g>
</g>
<defs>
<clipPath id="clip0_259_7802">
<rect width="166" height="141" fill="white"/>
</clipPath>
<clipPath id="clip1_259_7802">
<rect width="44.1509" height="16.9811" fill="white" transform="matrix(0.999914 -0.0130896 0.188924 0.981992 25.2852 39.6445)"/>
</clipPath>
</defs>
</svg>
