<svg width="30" height="44" viewBox="0 0 30 44" fill="none" xmlns="http://www.w3.org/2000/svg">
    <g clip-path="url(#clip0_63_2876)">
        <path d="M30.5242 7.12672H28.7872C28.6986 7.12662 28.6137 7.09135 28.5511 7.02865C28.4885 6.96595 28.4532 6.88095 28.4531 6.79228V5.05319C28.4532 4.96452 28.4885 4.87952 28.5511 4.81682C28.6137 4.75412 28.6986 4.71885 28.7872 4.71875H30.5242C30.6127 4.71885 30.6976 4.75412 30.7602 4.81682C30.8229 4.87952 30.8581 4.96452 30.8582 5.05319V6.79228C30.8581 6.88095 30.8229 6.96595 30.7602 7.02865C30.6976 7.09135 30.6127 7.12662 30.5242 7.12672ZM28.7872 4.85253C28.734 4.85258 28.6831 4.87374 28.6455 4.91136C28.6079 4.94898 28.5868 4.99999 28.5867 5.05319V6.79228C28.5868 6.84548 28.6079 6.89649 28.6455 6.93411C28.6831 6.97173 28.734 6.99289 28.7872 6.99294H30.5242C30.5773 6.99289 30.6282 6.97173 30.6658 6.93411C30.7034 6.89649 30.7245 6.84548 30.7246 6.79228V5.05319C30.7245 4.99999 30.7034 4.94898 30.6658 4.91136C30.6282 4.87374 30.5773 4.85258 30.5242 4.85253H28.7872Z" fill="#E6E6E6"/>
        <path d="M29.4538 6.25953H27.7168C27.6283 6.25943 27.5434 6.22416 27.4808 6.16146C27.4181 6.09877 27.3829 6.01376 27.3828 5.92509V4.186C27.3829 4.09733 27.4181 4.01233 27.4808 3.94963C27.5434 3.88693 27.6283 3.85166 27.7168 3.85156H29.4538C29.5424 3.85166 29.6273 3.88693 29.6899 3.94963C29.7526 4.01233 29.7878 4.09733 29.7879 4.186V5.92509C29.7878 6.01376 29.7526 6.09877 29.6899 6.16146C29.6273 6.22416 29.5424 6.25943 29.4538 6.25953ZM27.7168 3.98534C27.6637 3.9854 27.6128 4.00656 27.5752 4.04418C27.5376 4.0818 27.5165 4.1328 27.5164 4.186V5.92509C27.5165 5.97829 27.5376 6.0293 27.5752 6.06692C27.6128 6.10454 27.6637 6.1257 27.7168 6.12576H29.4538C29.507 6.1257 29.5579 6.10454 29.5955 6.06692C29.6331 6.0293 29.6542 5.97829 29.6543 5.92509V4.186C29.6542 4.1328 29.6331 4.0818 29.5955 4.04418C29.5579 4.00656 29.507 3.9854 29.4538 3.98534H27.7168Z" fill="#E6E6E6"/>
        <path d="M2.29322 0.109445H18.3681C19.1438 0.109444 19.8964 0.373675 20.5023 0.858705C21.1081 1.34374 21.5311 2.0207 21.7017 2.77832L29.824 38.8489C29.9126 39.2423 29.9141 39.6504 29.8286 40.0445C29.743 40.4386 29.5723 40.8092 29.3286 41.1303C29.0848 41.4514 28.7739 41.7152 28.4175 41.9032C28.0611 42.0913 27.668 42.199 27.2657 42.2188L10.7406 43.034C9.8557 43.0777 8.9852 42.7975 8.2915 42.2458C7.59779 41.694 7.12829 40.9084 6.9706 40.0356L2.36312 14.5333L2.02034 14.6314L1.13874 9.79774L1.49158 9.70942L0.205474 2.59082C0.150387 2.28592 0.163162 1.9726 0.242888 1.67321C0.322613 1.37381 0.467326 1.09571 0.66671 0.858738C0.866095 0.621761 1.11524 0.431742 1.39638 0.302226C1.67753 0.172709 1.98375 0.106886 2.29322 0.109447V0.109445Z" fill="#3F3D56"/>
        <path d="M16.2514 0.886719H18.1278C18.6667 0.886719 19.1894 1.07124 19.609 1.40964C20.0287 1.74805 20.3202 2.21999 20.4351 2.74711L28.2314 38.5233C28.2763 38.7293 28.2762 38.9426 28.2313 39.1485C28.1863 39.3545 28.0975 39.5483 27.9708 39.7168C27.8442 39.8852 27.6827 40.0243 27.4975 40.1245C27.3122 40.2248 27.1076 40.2838 26.8974 40.2976L10.4258 41.3784C9.96109 41.4089 9.50146 41.267 9.13459 40.9799C8.76772 40.6927 8.5193 40.2803 8.43675 39.8214L1.7841 2.84321C1.74104 2.60387 1.75097 2.35799 1.81319 2.12291C1.87541 1.88783 1.9884 1.66929 2.14419 1.48271C2.29998 1.29613 2.49477 1.14605 2.71482 1.04308C2.93486 0.940096 3.1748 0.886723 3.41769 0.886723H5.19778C5.37006 0.886723 5.53755 0.943587 5.67429 1.04851C5.81104 1.15344 5.90943 1.30057 5.95422 1.46714C5.99376 1.61418 6.08061 1.74408 6.20134 1.83671C6.32206 1.92934 6.46992 1.97954 6.62202 1.97954H15.0727C15.3705 1.97954 15.6574 1.86699 15.8759 1.66438C16.0944 1.46177 16.2285 1.18404 16.2514 0.886722L16.2514 0.886719Z" fill="white"/>
        <path d="M3.06641 6.96875H20.9358L22.8395 15.5568L4.73659 15.8912L3.06641 6.96875Z" fill="#0062B0"/>
        <path d="M20.0352 23.2305H24.2421L24.3757 24.0368H20.1688L20.0352 23.2305Z" fill="#0062B0"/>
        <path d="M23.4571 19.1178L5.61523 19.4961L5.61701 19.5802L23.4589 19.2019L23.4571 19.1178Z" fill="#2F2E41"/>
        <path d="M24.002 21.5992L5.82422 22.0195L5.82616 22.1036L24.0039 21.6833L24.002 21.5992Z" fill="#2F2E41"/>
        <path d="M21.7715 31.8594H25.9784L26.112 32.6657H21.9051L21.7715 31.8594Z" fill="#0062B0"/>
        <path d="M25.1935 27.7467L7.35156 28.125L7.35334 28.2091L25.1952 27.8308L25.1935 27.7467Z" fill="#2F2E41"/>
        <path d="M25.7402 30.2281L7.5625 30.6484L7.56444 30.7325L25.7422 30.3122L25.7402 30.2281Z" fill="#2F2E41"/>
        <g clip-path="url(#clip1_63_2876)">
            <rect width="91.6364" height="6" rx="3" transform="matrix(0.999914 -0.0130896 0.188924 0.981992 -32.9531 8.83984)" fill="#173552"/>
            <path fill-rule="evenodd" clip-rule="evenodd" d="M11.2531 12.61C11.1358 12.6838 10.9924 12.7217 10.8227 12.724C10.6861 12.7257 10.5572 12.702 10.4359 12.6527C10.3146 12.6033 10.2052 12.5299 10.1078 12.4324C10.0103 12.3349 9.9262 12.2129 9.85551 12.0664C9.78481 11.9199 9.73109 11.7512 9.69435 11.5602C9.66168 11.3904 9.65483 11.232 9.6738 11.0851C9.69277 10.9382 9.73627 10.8104 9.80429 10.7016C9.87231 10.5928 9.96402 10.5069 10.0794 10.4438C10.1948 10.3807 10.3334 10.3481 10.4951 10.346C10.6412 10.3441 10.7706 10.3664 10.8835 10.4128C10.9963 10.4592 11.1019 10.525 11.2002 10.6104L10.9543 9.33242L11.3736 9.32693L12.018 12.6764L11.7683 12.6797C11.7086 12.6804 11.6655 12.6529 11.6391 12.597L11.5476 12.3178C11.4685 12.4389 11.3704 12.5363 11.2531 12.61ZM8.59477 12.7522C8.68115 12.751 8.76692 12.7427 8.8521 12.7271C8.93727 12.7116 9.01831 12.6889 9.09522 12.659C9.17213 12.6291 9.2424 12.5913 9.30604 12.5457C9.36967 12.5 9.42157 12.4465 9.46173 12.3852L9.31551 12.2389C9.29171 12.2134 9.26253 12.2009 9.22798 12.2013C9.20128 12.2017 9.17174 12.2138 9.13936 12.2378C9.10697 12.2618 9.06592 12.2878 9.0162 12.3158C8.96649 12.3438 8.90581 12.3701 8.83416 12.3945C8.76251 12.419 8.67408 12.432 8.56886 12.4334C8.45579 12.4348 8.35028 12.4184 8.25234 12.3839C8.1544 12.3495 8.06553 12.2967 7.98571 12.2256C7.9059 12.1544 7.8368 12.0653 7.7784 11.9581C7.72 11.851 7.67523 11.7247 7.64409 11.5792L9.23182 11.5584C9.27108 11.5579 9.29574 11.5469 9.30579 11.5255C9.31584 11.5041 9.31474 11.4616 9.30249 11.3979C9.27099 11.2342 9.21819 11.0886 9.14407 10.9612C9.06996 10.8337 8.98054 10.727 8.87583 10.641C8.77111 10.5549 8.65385 10.4896 8.52403 10.445C8.39421 10.4003 8.25784 10.3789 8.11493 10.3808C7.94218 10.383 7.79232 10.4143 7.66535 10.4744C7.53838 10.5346 7.43684 10.6165 7.36072 10.7201C7.28461 10.8236 7.23445 10.9455 7.21025 11.0856C7.18604 11.2258 7.18939 11.3762 7.22031 11.5369C7.25851 11.7355 7.32061 11.9109 7.4066 12.0633C7.4926 12.2157 7.59623 12.3431 7.7175 12.4456C7.83877 12.5482 7.97408 12.6254 8.12342 12.6774C8.27276 12.7294 8.42987 12.7543 8.59477 12.7522ZM8.9069 11.311L7.60892 11.328C7.59869 11.1275 7.64082 10.9701 7.7353 10.8556C7.82979 10.7411 7.97832 10.6826 8.18091 10.6799C8.27671 10.6787 8.3649 10.6931 8.44547 10.7232C8.52605 10.7533 8.59772 10.7964 8.66048 10.8526C8.72324 10.9088 8.77548 10.9757 8.8172 11.0534C8.85891 11.1312 8.88881 11.217 8.9069 11.311ZM10.8991 12.3945C10.8017 12.3958 10.7123 12.381 10.6308 12.3501C10.5493 12.3193 10.476 12.2697 10.4109 12.2014C10.3458 12.1331 10.2896 12.0457 10.2423 11.9392C10.1951 11.8327 10.157 11.7044 10.1281 11.5543C10.0736 11.2708 10.0913 11.0517 10.1812 10.897C10.2711 10.7424 10.4275 10.6636 10.6505 10.6607C10.762 10.6592 10.8676 10.678 10.9672 10.7169C11.0668 10.7559 11.1647 10.8249 11.2609 10.9239L11.4752 12.0382C11.4102 12.15 11.332 12.2368 11.2408 12.2988C11.1496 12.3608 11.0357 12.3927 10.8991 12.3945ZM13.8953 12.5861C13.7795 12.6552 13.6383 12.6909 13.4719 12.6931C13.3415 12.6948 13.2225 12.6754 13.1147 12.635C13.007 12.5947 12.912 12.537 12.8299 12.4621C12.7478 12.3872 12.6795 12.2961 12.6251 12.1889C12.5706 12.0818 12.5308 11.963 12.5057 11.8326L12.2231 10.3637L12.6424 10.3582L12.925 11.8271C12.9586 12.0015 13.0262 12.1358 13.1278 12.2302C13.2294 12.3247 13.3642 12.3708 13.5322 12.3686C13.6547 12.367 13.7648 12.3374 13.8623 12.2799C13.9599 12.2224 14.0446 12.143 14.1164 12.0418L13.7896 10.3432L14.209 10.3377L14.6521 12.6411L14.4024 12.6444C14.3427 12.6452 14.2997 12.6176 14.2732 12.5617L14.1925 12.3143C14.1101 12.4263 14.0111 12.5169 13.8953 12.5861Z" fill="white"/>
            <path fill-rule="evenodd" clip-rule="evenodd" d="M18.1169 12.5952C18.3651 12.592 18.5837 12.55 18.7728 12.4693C18.962 12.3885 19.1159 12.2759 19.2345 12.1315C19.3531 11.9871 19.4332 11.8143 19.4748 11.6132C19.5164 11.412 19.5138 11.1894 19.4668 10.9454C19.4198 10.7013 19.3371 10.4797 19.2185 10.2807C19.0999 10.0816 18.9538 9.91142 18.7802 9.77007C18.6066 9.62873 18.4102 9.52036 18.191 9.44496C17.9718 9.36956 17.7382 9.33349 17.49 9.33673L16.2274 9.35326L16.8543 12.6118L18.1169 12.5952ZM15.9492 12.6239L15.3223 9.36537L14.8653 9.37135L15.4922 12.6299L15.9492 12.6239ZM17.245 12.2493L18.0482 12.2388C18.2288 12.2364 18.3874 12.2055 18.5239 12.146C18.6605 12.0864 18.7702 12.0018 18.853 11.892C18.9358 11.7823 18.9903 11.6482 19.0165 11.4898C19.0427 11.3314 19.0365 11.1522 18.998 10.9521C18.9595 10.752 18.8968 10.5734 18.81 10.4165C18.7231 10.2596 18.6173 10.1273 18.4927 10.0195C18.368 9.91168 18.2264 9.82995 18.0677 9.77427C17.909 9.7186 17.7393 9.69194 17.5587 9.69431L16.7554 9.70482L17.245 12.2493Z" fill="#5BA5FB"/>
        </g>
    </g>
    <defs>
        <clipPath id="clip0_63_2876">
            <rect width="30" height="43.0588" fill="white"/>
        </clipPath>
        <clipPath id="clip1_63_2876">
            <rect width="15.5827" height="5.99334" fill="white" transform="matrix(0.999914 -0.0130896 0.188924 0.981992 5.04102 8.34375)"/>
        </clipPath>
    </defs>
</svg>
