<svg id="Regular" xmlns="http://www.w3.org/2000/svg" viewBox="0 0 24 24"><defs><style>.cls-1{fill:none;stroke:currentColor;stroke-linecap:round;stroke-linejoin:round;stroke-width:1.5px;}</style></defs><title>video-game-magic-wand</title><path class="cls-1" d="M6.656,6.044,10.724,7.3l2.961-2.45a.454.454,0,0,1,.76.344l-.119,4.338,3.691,2.039a.477.477,0,0,1-.108.859l-4.036,1.444-1.444,4.036a.476.476,0,0,1-.858.108l-2.04-3.691-4.338.119a.454.454,0,0,1-.344-.76L7.3,10.724,6.044,6.656A.5.5,0,0,1,6.656,6.044Z"/><line class="cls-1" x1="13.873" y1="13.873" x2="23.25" y2="23.25"/><line class="cls-1" x1="18" y1="2.25" x2="21" y2="2.25"/><line class="cls-1" x1="19.5" y1="0.75" x2="19.5" y2="3.75"/><line class="cls-1" x1="2.25" y1="20.25" x2="5.25" y2="20.25"/><line class="cls-1" x1="3.75" y1="18.75" x2="3.75" y2="21.75"/><line class="cls-1" x1="9" y1="3" x2="9" y2="0.75"/><line class="cls-1" x1="0.75" y1="9.75" x2="3" y2="9.75"/></svg>