<svg width="100" height="100" viewBox="0 0 100 100" fill="none" xmlns="http://www.w3.org/2000/svg">
    <rect width="100" height="100" rx="8" fill="white"/>
    <path fill-rule="evenodd" clip-rule="evenodd"
          d="M44.9994 56.3314C44.0538 56.7648 43.0143 56.9535 41.9766 56.8803C40.9389 56.8071 39.9363 56.4743 39.0608 55.9124C38.1853 55.3506 37.4651 54.5777 36.9663 53.6648C36.4675 52.7519 36.2061 51.7283 36.2062 50.688V43.4476H38.9647V50.688C38.9647 52.7922 40.5113 54.4755 42.4134 54.4755C42.9136 54.4706 43.4062 54.3523 43.8541 54.1296C44.302 53.9069 44.6936 53.5856 44.9994 53.1899V56.3314Z"
          fill="#89CC53"/>
    <path fill-rule="evenodd" clip-rule="evenodd"
          d="M22.7585 37.5854V44.4829C23.7862 43.7122 25.0086 43.2436 26.2881 43.1298C27.5677 43.0161 28.8535 43.2617 30.0011 43.839V47.0857C29.6054 46.5977 29.1062 46.2037 28.5396 45.9322C27.973 45.6607 27.3532 45.5186 26.7249 45.516C24.3451 45.516 22.4135 47.5255 22.4135 50C22.4135 52.4745 24.3451 54.4818 26.7249 54.4818C27.3532 54.4793 27.973 54.3371 28.5396 54.0656C29.1062 53.7942 29.6054 53.4002 30.0011 52.9121V56.1588C28.8129 56.7568 27.4772 56.9985 26.1549 56.8547C24.8326 56.711 23.58 56.188 22.5481 55.3487L22.4135 56.5502H20V50.3429H20.0105C20.0105 50.2293 20 50.1136 20 50V37.5854H22.7585Z"
          fill="#238647"/>
    <path fill-rule="evenodd" clip-rule="evenodd"
          d="M24.9995 43.3677C26.0266 43.0719 27.1083 43.0189 28.1594 43.2128C29.2104 43.4067 30.2021 43.8422 31.056 44.4849C31.91 45.1276 32.6028 45.96 33.08 46.9164C33.5572 47.8728 33.8056 48.927 33.8056 49.9957C33.8056 51.0645 33.5572 52.1187 33.08 53.0751C32.6028 54.0315 31.91 54.8639 31.056 55.5066C30.2021 56.1493 29.2104 56.5848 28.1594 56.7787C27.1083 56.9726 26.0266 56.9196 24.9995 56.6238V54.0989C25.5409 54.3467 26.1295 54.4745 26.7249 54.4734C29.1047 54.4734 31.0342 52.4639 31.0342 49.9915C31.0342 47.5192 29.1047 45.5076 26.7249 45.5076C26.1296 45.5075 25.5412 45.6352 24.9995 45.8821V43.3677Z"
          fill="#2F9B47"/>
    <path fill-rule="evenodd" clip-rule="evenodd"
          d="M30.001 43.839C31.1412 44.4142 32.0994 45.2947 32.7688 46.3822C33.4382 47.4698 33.7927 48.7218 33.7927 49.9989C33.7927 51.276 33.4382 52.528 32.7688 53.6156C32.0994 54.7031 31.1412 55.5836 30.001 56.1588V52.9121C30.6685 52.0879 31.0327 51.0595 31.0327 49.9989C31.0327 48.9383 30.6685 47.9099 30.001 47.0857V43.839Z"
          fill="#62B64F"/>
    <path fill-rule="evenodd" clip-rule="evenodd"
          d="M40 53.3961C40.3049 53.7346 40.677 54.006 41.0925 54.193C41.508 54.3799 41.9579 54.4783 42.4135 54.4818C44.3178 54.4818 45.8622 52.7817 45.8622 50.6943V43.4476H48.6208V50.688C48.6212 51.7131 48.3678 52.7224 47.8832 53.6257C47.3985 54.529 46.6977 55.2982 45.8433 55.8646C44.9888 56.431 44.0075 56.777 42.9867 56.8717C41.966 56.9663 40.9377 56.8067 39.9937 56.4071L40 53.3961Z"
          fill="#3DB8AD"/>
    <path fill-rule="evenodd" clip-rule="evenodd"
          d="M44.9995 53.1962C45.5641 52.4827 45.8684 51.5979 45.8622 50.688V43.4476H48.6207V50.688C48.6205 51.8766 48.2792 53.0402 47.6373 54.0405C46.9954 55.0409 46.0799 55.836 44.9995 56.3314V53.1962Z"
          fill="#3394D7"/>
    <path fill-rule="evenodd" clip-rule="evenodd"
          d="M60 46.6018C59.6951 46.2632 59.323 45.9918 58.9075 45.8049C58.492 45.618 58.0421 45.5196 57.5865 45.5161C55.6928 45.5161 54.1378 47.2162 54.1378 49.3035V56.5502H51.3793V49.3098C51.3788 48.2847 51.6322 47.2755 52.1169 46.3722C52.6015 45.4689 53.3024 44.6997 54.1568 44.1333C55.0112 43.5669 55.9926 43.2209 57.0133 43.1262C58.034 43.0315 59.0623 43.1911 60.0063 43.5908L60 46.6018Z"
          fill="#2872BC"/>
    <path fill-rule="evenodd" clip-rule="evenodd"
          d="M55.0005 43.6664C55.9462 43.2331 56.9857 43.0443 58.0234 43.1175C59.0611 43.1907 60.0637 43.5235 60.9392 44.0854C61.8147 44.6473 62.5349 45.4202 63.0337 46.333C63.5325 47.2459 63.7939 48.2695 63.7938 49.3098V56.5502H61.0353V49.3098C61.0353 47.2056 59.4887 45.5223 57.5866 45.5223C57.0864 45.5273 56.5938 45.6455 56.1459 45.8682C55.698 46.0909 55.3064 46.4122 55.0005 46.8079V43.6664Z"
          fill="#1D5C84"/>
    <path fill-rule="evenodd" clip-rule="evenodd"
          d="M59.9999 43.5907C61.1229 44.067 62.0809 44.8632 62.7544 45.8802C63.4279 46.8972 63.7872 48.09 63.7874 49.3098V56.5502H61.0352V49.3098C61.0429 48.309 60.6733 47.3421 59.9999 46.6017V43.5907Z"
          fill="#993233"/>
    <path fill-rule="evenodd" clip-rule="evenodd"
          d="M75.0005 56.6301C73.9734 56.9259 72.8917 56.9789 71.8406 56.785C70.7896 56.5911 69.7979 56.1556 68.944 55.5129C68.0901 54.8702 67.3972 54.0378 66.92 53.0814C66.4428 52.125 66.1945 51.0708 66.1945 50.002C66.1945 48.9332 66.4428 47.8791 66.92 46.9227C67.3972 45.9663 68.0901 45.1339 68.944 44.4912C69.7979 43.8484 70.7896 43.4129 71.8406 43.2191C72.8917 43.0252 73.9734 43.0782 75.0005 43.3739V45.8989C74.4588 45.652 73.8704 45.5243 73.2751 45.5244C70.8974 45.5244 68.9658 47.5339 68.9658 50.0083C68.9658 52.4828 70.8974 54.4902 73.2751 54.4902C73.8705 54.4913 74.4591 54.3635 75.0005 54.1157V56.6301Z"
          fill="#E13030"/>
    <path fill-rule="evenodd" clip-rule="evenodd"
          d="M69.999 43.839C71.1871 43.2411 72.5228 42.9994 73.8451 43.1431C75.1674 43.2868 76.42 43.8099 77.4519 44.6491L77.5865 43.4476H80V62.4145H77.2415V55.515C76.2138 56.2857 74.9914 56.7543 73.7119 56.868C72.4324 56.9818 71.1465 56.7362 69.999 56.1589V52.9121C70.3953 53.4005 70.8952 53.7947 71.4625 54.0661C72.0298 54.3376 72.6504 54.4796 73.2793 54.4818C75.6591 54.4818 77.5908 52.4724 77.5908 50C77.5908 47.5276 75.6591 45.516 73.2793 45.516C72.6511 45.5189 72.0314 45.6612 71.4648 45.9326C70.8983 46.2041 70.399 46.5979 70.0032 47.0857L69.999 43.839Z"
          fill="#F28825"/>
    <path fill-rule="evenodd" clip-rule="evenodd"
          d="M75.0005 43.3677C75.896 43.6243 76.73 44.0602 77.4518 44.6491L77.5865 43.4476H80V62.4145H77.2414V55.515C76.5691 56.0209 75.8095 56.3989 75.0005 56.6302V54.1052C75.7724 53.7328 76.4236 53.1503 76.8793 52.4245C77.3351 51.6987 77.5768 50.8591 77.5768 50.0021C77.5768 49.1451 77.3351 48.3054 76.8793 47.5796C76.4236 46.8538 75.7724 46.2713 75.0005 45.899V43.3677Z"
          fill="#F5C836"/>
</svg>
