<svg width="100" height="100" viewBox="0 0 100 100" fill="none" xmlns="http://www.w3.org/2000/svg">
    <rect width="100" height="100" rx="8" fill="white"/>
    <path fill-rule="evenodd" clip-rule="evenodd"
          d="M57.4867 25.7L55.34 29.8333H54.4L56.5333 25.8333H54.14V25.0667H57.4733L57.4867 25.7ZM53.0667 28.4133C53.0639 28.6239 53.0176 28.8316 52.9306 29.0234C52.8437 29.2152 52.718 29.387 52.5614 29.5279C52.4049 29.6688 52.2209 29.7757 52.021 29.8421C51.8212 29.9084 51.6097 29.9327 51.4 29.9133C51.053 29.9235 50.7083 29.8537 50.3927 29.7092C50.0771 29.5646 49.799 29.3494 49.58 29.08L50.1667 28.5333C50.3112 28.7278 50.4992 28.8857 50.7157 28.9945C50.9321 29.1033 51.1711 29.16 51.4133 29.16C51.5155 29.1701 51.6187 29.1592 51.7164 29.1279C51.8142 29.0967 51.9046 29.0458 51.982 28.9784C52.0595 28.911 52.1223 28.8284 52.1666 28.7358C52.211 28.6433 52.236 28.5426 52.24 28.44C52.24 27.9667 51.8067 27.7 51.14 27.7H50.7533L50.62 27.18L51.9067 25.8H49.8467V25.0667H52.9933V25.6933L51.66 27.0267C52.38 27.1267 53.06 27.4867 53.06 28.36L53.0667 28.4133ZM48.7533 25.7L46.6067 29.8333H45.6667L47.8 25.8333H45.4133V25.0667H48.7467L48.7533 25.7ZM43.9533 29.8333H43.1333V25.8867L42.2667 26.1267L42.0933 25.46L43.3733 25.0467H43.9533V29.8333ZM60.9733 20H39.0267C39.0267 20 36.4667 20 36.4667 22.2267V77.7733C36.4667 77.7733 36.4667 80 39.0267 80H48.5867V69.8333C48.5933 69.7713 48.5933 69.7087 48.5867 69.6467C48.5333 69.3667 48.5467 68.98 48.36 68.8667C48.04 68.6267 47.6933 68.42 47.38 68.2C46.1196 67.3694 44.9857 66.3612 44.0133 65.2067C42.92 63.8114 42.1832 62.1708 41.8667 60.4267C41.6376 59.2225 41.7674 57.9776 42.24 56.8467C42.4303 56.4518 42.6848 56.0913 42.9933 55.78C43.1422 55.6173 43.2359 55.4118 43.2611 55.1927C43.2862 54.9736 43.2415 54.7522 43.1333 54.56C42.814 53.9319 42.5529 53.2758 42.3533 52.6C42.1717 51.9499 42.1152 51.2712 42.1867 50.6C42.2588 49.9409 42.531 49.3198 42.9667 48.82C43.34 48.4267 43.8133 48.3667 44.1 47.74C43.7309 46.6546 43.5286 45.5194 43.5 44.3733C43.4699 43.8698 43.5126 43.3646 43.6267 42.8733C43.8867 42 44.5 41.8 44.96 41.54C45.2 41.4133 45.46 41.34 45.7067 41.22C45.9533 41.1 46.0133 40.9933 46.0133 40.46C46.0133 38.04 46.3333 35.7467 47.6133 34.5533C47.9038 34.2765 48.2473 34.0611 48.623 33.9202C48.9988 33.7793 49.3991 33.7157 49.8 33.7333C50.636 33.6958 51.4537 33.9851 52.08 34.54C53.4133 35.7333 53.7533 38.0267 53.7533 40.4467C53.7533 40.98 53.7533 41.0733 54.08 41.2067C54.4067 41.34 54.6067 41.4 54.86 41.5333C55.3667 41.7867 56.0067 41.9867 56.28 42.8667C56.3996 43.3571 56.4446 43.8628 56.4133 44.3667C56.3835 45.5116 56.1766 46.645 55.8 47.7267C56.1 48.36 56.6 48.3933 56.9867 48.8133C57.4424 49.301 57.7277 49.9232 57.8 50.5867C57.8739 51.2587 57.8127 51.9387 57.62 52.5867C57.4243 53.2776 57.1608 53.9475 56.8333 54.5867C56.7162 54.7749 56.6645 54.9964 56.6862 55.217C56.7079 55.4376 56.8018 55.6449 56.9533 55.8067C57.2761 56.1133 57.5424 56.4744 57.74 56.8733C58.2389 57.9971 58.3763 59.2481 58.1333 60.4533C57.794 62.2081 57.0192 63.8495 55.88 65.2267C54.8552 66.3895 53.6673 67.3978 52.3533 68.22C52.0133 68.4467 51.6867 68.66 51.3333 68.8867C51.1333 69.0267 51.1533 69.3867 51.0933 69.6667C51.09 69.7288 51.09 69.7912 51.0933 69.8533V80H60.9733C60.9733 80 63.5333 80 63.5333 77.7733V22.2267C63.5333 22.2267 63.5333 20 60.9733 20Z"
          fill="#00585A"/>
</svg>
