<svg width="100" height="100" viewBox="0 0 100 100" fill="none" xmlns="http://www.w3.org/2000/svg">
    <rect width="100" height="100" rx="8" fill="white"/>
    <path d="M68.7061 58.2021C69.6484 59.1523 70.4194 60.1802 70.9723 61.2939C72.7168 64.8295 72.0704 68.7312 68.6049 72.1344C64.6331 76.0361 57.8656 78.4347 50.0078 78.4347C42.1499 78.4347 35.3824 76.0361 31.4107 72.1344C27.9451 68.7312 27.3065 64.8295 29.0432 61.2939C29.5883 60.188 30.3515 59.16 31.3016 58.2021C30.188 59.2769 29.3158 60.227 28.5214 61.8157C26.8237 65.2111 27.3688 70.0707 30.9512 73.5907C35.0242 77.5936 41.4023 80 50.0779 80C58.7768 80 65.1549 77.5157 69.0566 73.5907C72.8881 69.7436 73.0361 64.7283 71.463 61.7066C70.801 60.4528 69.9288 59.2924 68.7061 58.2021Z" fill="url(#paint0_linear_15_1007)"/>
    <path d="M62.3276 54.1137C58.644 52.5873 54.3607 51.8008 50.0074 51.8008C45.654 51.8008 41.363 52.5873 37.6872 54.1137C33.6609 55.7881 30.5381 58.2646 29.0428 61.294C27.3061 64.8297 27.9447 68.7313 31.4103 72.1346C35.382 76.0362 42.1496 78.4348 50.0074 78.4348C57.8652 78.4348 64.6327 76.0362 68.6045 72.1346C72.07 68.7313 72.7086 64.8297 70.972 61.294C69.4767 58.2646 66.3538 55.7803 62.3276 54.1137Z" fill="#F47920"/>
    <path d="M50.7394 55.8115C50.0152 54.324 50.1631 52.9767 50.3111 51.8008C50.2099 51.8008 50.1086 51.8008 50.0074 51.8008C45.654 51.8008 41.363 52.5873 37.6872 54.1137C33.6609 55.7881 30.5381 58.2646 29.0428 61.294C27.3061 64.8297 27.9447 68.7313 31.4103 72.1346C31.6595 72.376 31.9087 72.6096 32.1735 72.8354C46.7988 71.9788 54.4464 63.4201 50.7394 55.8115Z" fill="url(#paint1_linear_15_1007)"/>
    <path d="M40.5773 56.0683C43.2952 56.7614 45.8808 57.5792 48.513 58.5526C49.0348 56.9873 49.5877 55.4375 50.2185 53.9111C50.8493 55.4375 51.4023 56.9873 51.924 58.5526C54.5563 57.5792 57.0951 56.7926 59.813 56.0995C57.8972 57.2988 56.2073 58.537 54.4395 59.9311C58.0374 60.3905 61.4017 60.9824 64.9373 61.7534C61.4095 61.6755 58.0841 61.8001 54.5641 62.0259C57.0484 64.1286 59.1744 66.169 61.4874 68.4586C58.3178 66.6519 55.3506 65.1333 52.0486 63.5757C51.41 66.3326 50.8026 69.105 50.2185 71.8696C49.6344 69.0972 49.0971 66.465 48.4585 63.7081C45.1565 65.2656 42.1582 66.7531 38.8874 68.482C41.2003 66.1924 43.3887 64.1987 45.873 62.096C42.3451 61.8702 38.973 61.8235 35.3595 61.769C38.8718 61.0058 42.423 60.3983 45.9898 59.9466C44.2298 58.5604 42.4931 57.2676 40.5773 56.0683ZM50.2263 60.8889V54.7911C49.6111 56.4889 49.0659 58.2022 48.5519 59.9311C49.1049 60.2503 49.6656 60.5696 50.2263 60.8889ZM42.166 56.7381C44.3466 57.696 46.4648 58.7785 48.5442 59.9388C48.0302 59.9934 47.5084 60.0479 46.9944 60.1024C45.4291 58.9186 43.8248 57.7894 42.166 56.7381ZM50.2263 60.8889C54.4239 60.8967 58.6137 61.107 62.7879 61.5197C59.1199 60.8578 55.5609 60.3516 51.8851 59.9233C51.3322 60.2426 50.7792 60.5619 50.2263 60.8889ZM58.2788 56.7381C56.0983 57.696 53.9722 58.7785 51.8929 59.9311C51.8072 59.6429 51.7216 59.3625 51.6359 59.0744C53.8165 58.21 56.0282 57.4156 58.2788 56.7381ZM50.0005 60.8967C50.0861 63.8405 50.1952 66.9634 50.2263 69.8137C50.7714 67.1814 51.34 64.5492 51.9474 61.9247C51.3789 61.5743 50.5845 61.2316 50.0005 60.8967ZM59.4703 66.9634C57.025 65.1956 54.5173 63.5056 51.9474 61.9247C52.477 61.8858 52.9987 61.8468 53.5283 61.8079C55.5687 63.4511 57.5468 65.18 59.4703 66.9634ZM50.2263 60.8889C45.9976 60.9512 42.7034 61.1381 38.5836 61.4964C42.1426 61.5042 44.8995 61.6444 48.513 61.9247C49.0815 61.5743 49.65 61.2316 50.2263 60.8889ZM40.9823 66.9634C43.4354 65.1956 45.9431 63.5134 48.513 61.9247C48.5909 62.2518 48.661 62.5789 48.7389 62.906C46.1066 64.1754 43.5211 65.5304 40.9823 66.9634Z" fill="white"/>
    <path d="M50.2185 54.0124C50.8493 55.5388 51.4022 57.0886 51.924 58.6539C54.4239 57.7349 56.9627 56.9406 59.5404 56.2786C59.6339 56.2241 59.7195 56.1618 59.813 56.1073C57.1418 56.7848 54.5096 57.6025 51.924 58.5604C51.4022 56.9951 50.8493 55.4453 50.2185 53.9189C49.5877 55.4453 49.0348 56.9951 48.513 58.5604C45.8807 57.587 43.2952 56.7693 40.5773 56.0761C40.6708 56.1307 40.7564 56.193 40.8499 56.2475C43.4743 56.925 45.9742 57.7194 48.513 58.6617C49.0348 57.0886 49.5877 55.5388 50.2185 54.0124Z" fill="#C9252C"/>
    <path d="M45.8725 62.104C43.4271 64.1833 41.1687 66.2315 38.8947 68.4899L39.2607 68.2875C41.4958 66.0835 43.4739 64.2924 45.8803 62.2598L45.8725 62.104Z" fill="#CB4D2C"/>
    <path d="M50.1327 60.9432L50.047 60.9977C49.533 61.3014 49.0191 61.6129 48.5128 61.9322L48.5362 62.0335C49.0969 61.6908 49.6576 61.3559 50.2261 61.0211V60.8887L50.1327 60.9432Z" fill="#C4161C"/>
    <path d="M48.5435 59.939L48.3877 59.9546C47.9205 60.0013 47.461 60.0481 46.9937 60.1026C45.4284 58.9188 43.8241 57.7896 42.1653 56.7383V56.8629C43.8241 57.9142 45.4284 59.0434 46.9937 60.2272C47.5077 60.1727 48.0295 60.1104 48.5435 60.0636C49.0497 60.344 49.5247 60.6088 50.0232 60.8969H50.2256C49.6649 60.5698 49.1042 60.2505 48.5435 59.939ZM40.9816 67.1038C43.5204 65.6708 46.1059 64.3157 48.7382 63.0541V62.914C46.1059 64.1834 43.5204 65.5306 40.9816 66.9636V67.1038Z" fill="#CB4D2C"/>
    <path d="M51.9469 61.9169C51.3473 64.5102 50.7632 67.197 50.2258 69.8058V69.9071C50.771 67.2748 51.3395 64.6582 51.9469 62.0337C53.6992 63.1162 56.2457 64.7828 59.4777 67.1113V66.9555C57.0245 65.1955 54.5169 63.5056 51.9469 61.9169ZM54.6804 62.1271L54.5714 62.0337V62.1972C56.97 64.2298 58.8858 66.0444 61.1209 68.2561C61.1987 68.3028 61.4168 68.4274 61.5025 68.4741C59.1428 66.13 57.0401 64.1364 54.6804 62.1271Z" fill="#A71C20"/>
    <path d="M45.8876 59.9702C42.3597 60.4219 38.8475 61.0215 35.3664 61.7769C35.5377 61.7769 35.748 61.7847 35.9193 61.7847C39.2524 61.076 42.6167 60.5075 45.9966 60.0792V59.9546L45.8876 59.9702ZM48.5121 61.9249C45.2023 61.6367 41.9081 61.4732 38.5905 61.5044V61.6056C41.8613 61.5822 45.1166 61.738 48.3797 62.0183L48.5121 61.9249Z" fill="#CB4D2C"/>
    <path d="M54.4389 59.9313C58.0368 60.3907 61.4011 60.9826 64.9368 61.7536C64.7576 61.7458 64.524 61.7458 64.3449 61.7458C60.9728 61.0293 57.8499 60.492 54.4389 60.0636V59.9313ZM50.2257 60.8891C54.4233 60.8969 58.6131 61.1072 62.7874 61.5199V61.629C58.6754 61.2162 54.5479 61.006 50.4126 60.9904C50.3815 60.9748 50.3426 60.9514 50.3114 60.9281L50.2257 60.8891H50.3971H50.2257ZM51.8845 59.9313C51.939 59.939 51.9858 59.9468 52.0325 59.9468C54.0651 58.8254 56.1366 57.774 58.2627 56.8395V56.7383C56.0899 57.6962 53.9716 58.7709 51.8845 59.9313Z" fill="#A71C20"/>
    <path d="M51.8851 59.9309C51.7994 59.6427 51.7137 59.3624 51.6281 59.0742V59.1755C51.706 59.4325 51.7838 59.6894 51.8539 59.9387C51.8695 59.9387 51.8773 59.9387 51.8851 59.9309Z" fill="#C4161C"/>
    <path d="M50.6387 77.6247C50.5141 77.7182 50.3428 77.8116 50.226 77.9051C50.1013 77.8116 49.93 77.7182 49.8054 77.6247C49.8054 76.4799 49.8054 75.3429 49.8054 74.1981C49.93 74.1124 50.1091 74.0268 50.226 73.9489C50.3506 74.0346 50.5141 74.1202 50.6309 74.1981L50.6387 77.6247ZM30.3127 69.3386L30.1102 69.728C30.2348 69.7747 30.4763 69.8526 30.5853 69.8993C31.7846 69.2607 32.9683 68.6221 34.1443 68.0069C34.191 67.8277 34.2144 67.7265 34.2689 67.5863C34.1443 67.5552 34.0275 67.524 33.9029 67.4929C32.6958 68.0925 31.4965 68.7078 30.3127 69.3386ZM29.4327 62.314C29.3237 62.3997 29.2146 62.4854 29.1056 62.5788C29.1679 62.6567 29.2302 62.7501 29.2847 62.828C30.3984 62.6723 31.5198 62.5321 32.6413 62.4153C32.7425 62.314 32.8749 62.1894 32.9683 62.096C32.906 62.0259 32.8359 61.9636 32.7736 61.8935C31.66 62.0103 30.5464 62.1505 29.4327 62.314ZM33.7237 56.6446L33.3811 56.7925C33.3889 56.8626 33.4044 56.9794 33.4122 57.0495C34.2377 57.1663 35.0554 57.3065 35.8809 57.4623C35.99 57.4 36.1302 57.3143 36.2314 57.2598L36.1847 57.0417C35.3747 56.8938 34.5492 56.7536 33.7237 56.6446ZM58.9093 53.1557C59.0105 53.1557 59.1195 53.1557 59.2208 53.1557L59.3454 53.2803C58.9171 53.5528 58.4887 53.841 58.076 54.1291C57.967 54.1291 57.8579 54.1291 57.7489 54.1291L57.6243 53.9889C58.0448 53.7086 58.4732 53.4204 58.9093 53.1557ZM49.93 51.9641L50.1637 51.894L50.4051 51.9641L50.4129 52.9687C50.3272 52.9999 50.2493 53.0233 50.1637 53.0544C50.0858 53.0233 50.0001 52.9999 49.9222 52.9687L49.93 51.9641ZM40.9118 53.3036C40.9508 53.2647 41.0442 53.1868 41.0832 53.1479L41.4025 53.1401C41.8386 53.4127 42.2669 53.693 42.6874 53.9889L42.5628 54.1291C42.4538 54.1291 42.298 54.1603 42.189 54.1525C41.7685 53.8566 41.3401 53.5762 40.9118 53.3036ZM38.2874 75.5298C38.116 75.5688 37.898 75.5688 37.7344 75.6077C37.6955 75.4909 37.6098 75.3663 37.5787 75.2495C38.412 74.2526 39.2608 73.2558 40.1175 72.2745C40.281 72.2356 40.4991 72.2044 40.6626 72.1655C40.7016 72.2668 40.7794 72.4459 40.8262 72.5393C39.9695 73.5361 39.1206 74.5252 38.2874 75.5298ZM69.8588 69.3386C69.9289 69.4632 69.9912 69.5956 70.0613 69.728C69.9367 69.7747 69.6953 69.8526 69.5863 69.8993C68.3869 69.2607 67.2032 68.6221 66.0273 68.0069C65.9805 67.8277 65.9572 67.7265 65.9027 67.5863C66.0273 67.5552 66.1441 67.524 66.2687 67.4929C67.468 68.0925 68.6673 68.7078 69.8588 69.3386ZM70.7388 62.314C70.8479 62.3997 70.9569 62.4854 71.0659 62.5788C71.0036 62.6567 70.9413 62.7501 70.8868 62.828C69.7732 62.6723 68.6517 62.5321 67.5303 62.4153C67.429 62.314 67.2967 62.1894 67.2032 62.096C67.2655 62.0259 67.3356 61.9636 67.3979 61.8935C68.5115 62.0103 69.6252 62.1505 70.7388 62.314ZM66.44 56.6446L66.7827 56.7925C66.7749 56.8626 66.7593 56.9794 66.7515 57.0495C65.926 57.1663 65.1083 57.3065 64.2828 57.4623C64.1738 57.4 64.0336 57.3143 63.9324 57.2598C63.9479 57.1897 63.9635 57.1196 63.9791 57.0417C64.7968 56.8938 65.6145 56.7536 66.44 56.6446ZM61.8764 75.5298C62.0166 75.5532 62.258 75.5843 62.4293 75.6077C62.4838 75.4909 62.5384 75.3741 62.5851 75.2495C61.7518 74.2526 60.9029 73.2558 60.0463 72.2745C59.8827 72.2356 59.6647 72.2044 59.5011 72.1655C59.4622 72.2668 59.3843 72.4459 59.3376 72.5393C60.1942 73.5361 61.0431 74.5252 61.8764 75.5298Z" fill="white"/>
    <path d="M30.297 69.5411C30.2659 69.6034 30.2192 69.6968 30.188 69.7513C30.1646 69.7436 30.1413 69.7358 30.1101 69.7202C30.1802 69.5878 30.2425 69.4632 30.3126 69.3308C31.5041 68.7 32.6956 68.0848 33.9027 67.4851C34.0274 67.5163 34.1442 67.5474 34.2688 67.5786C34.2454 67.6487 34.222 67.7187 34.1987 67.781C34.1052 67.7499 33.9728 67.7343 33.8716 67.7032C32.6723 68.3106 31.4886 68.9103 30.297 69.5411ZM29.4637 62.4698C29.4014 62.5165 29.2379 62.6334 29.1756 62.6879C29.1444 62.6489 29.1367 62.6334 29.0977 62.5788C29.2067 62.4932 29.3158 62.3997 29.4248 62.3141C30.5384 62.1505 31.6521 62.0181 32.7657 61.9013C32.828 61.9714 32.8981 62.0337 32.9604 62.1038C32.9371 62.1272 32.9137 62.1505 32.8903 62.1739C32.8592 62.1427 32.7969 62.0882 32.7735 62.0649C31.6755 62.1739 30.5696 62.3063 29.4637 62.4698ZM33.4043 56.9639L33.381 56.7926L33.7236 56.6446C34.5491 56.7614 35.3668 56.8938 36.1923 57.0496L36.2391 57.2676C36.2235 57.2754 34.5569 56.9405 33.7392 56.8315L33.4043 56.9639Z" fill="#CC612C"/>
    <path d="M59.2207 53.327L59.2362 53.3426C59.2752 53.3192 59.3063 53.2959 59.3453 53.2725C59.3063 53.2336 59.2596 53.1868 59.2207 53.1479H58.9092C58.473 53.4205 58.0447 53.7008 57.6242 53.9968L57.7176 54.1058C58.107 53.8332 58.5042 53.5762 58.9092 53.327C59.0104 53.327 59.1194 53.327 59.2207 53.327Z" fill="#A71C20"/>
    <path d="M49.9299 52.1355L50.1635 52.0654L50.405 52.1355V51.9641C50.3271 51.9408 50.2414 51.9174 50.1635 51.894L49.9299 51.9641V52.1355Z" fill="#B7161C"/>
    <path d="M41.4097 53.2959C41.8147 53.5451 42.1963 53.8255 42.5856 54.098L42.6869 53.989C42.2664 53.6931 41.838 53.4127 41.4019 53.1401C41.2929 53.1401 41.1916 53.1401 41.0826 53.1479C41.0437 53.1869 40.9502 53.2647 40.9113 53.3037L41.0203 53.3738C41.0281 53.366 41.0904 53.3115 41.0982 53.3037C41.1994 53.2959 41.3007 53.2959 41.4097 53.2959Z" fill="#CB4D2C"/>
    <path d="M40.6311 72.3134C40.6778 72.3758 40.7323 72.5159 40.779 72.5938L40.8258 72.5471C40.8102 72.5004 40.7089 72.2745 40.6622 72.1733C40.4987 72.2122 40.2806 72.2434 40.1171 72.2823C39.2604 73.2635 38.4116 74.2526 37.5783 75.2572C37.5939 75.3039 37.625 75.3584 37.6406 75.3974C38.1779 74.7588 39.3383 73.3726 40.1794 72.4069C40.3118 72.368 40.4909 72.3446 40.6311 72.3134ZM69.8662 69.541C69.8974 69.6033 69.9441 69.6968 69.983 69.7513C70.0064 69.7435 70.0298 69.7357 70.0609 69.7201C69.9908 69.5877 69.9285 69.4631 69.8584 69.3307C68.6669 68.6999 67.4754 68.0847 66.2683 67.4851C66.1437 67.5162 66.0269 67.5474 65.9023 67.5785C65.9256 67.6486 65.949 67.7187 65.9646 67.781C66.058 67.7498 66.1904 67.7343 66.2916 67.7031C67.491 68.3106 68.6747 68.9102 69.8662 69.541ZM70.6995 62.4698C70.7618 62.5165 70.9254 62.6333 70.9877 62.6878C71.0188 62.6489 71.0266 62.6333 71.0655 62.5788C70.9565 62.4931 70.8475 62.3997 70.7384 62.314C69.6248 62.1505 68.5112 62.0181 67.3975 61.9013C67.3352 61.9713 67.2651 62.0336 67.2028 62.1037C67.2262 62.1271 67.2495 62.1427 67.2729 62.1738C67.3041 62.1427 67.3664 62.0882 67.3897 62.0648C68.4956 62.1738 69.5859 62.3062 70.6995 62.4698ZM66.7589 56.9638L66.7823 56.7925C66.6732 56.7458 66.5564 56.6913 66.4396 56.6445C65.6141 56.7613 64.7964 56.8937 63.9709 57.0495L63.9242 57.2675C63.9398 57.2753 65.6063 56.9405 66.424 56.8314L66.7589 56.9638ZM59.5319 72.3134C59.4852 72.3758 59.4307 72.5159 59.3839 72.5938C59.3684 72.5782 59.3528 72.5627 59.3372 72.5471C59.3528 72.5004 59.454 72.2745 59.5007 72.1733C59.6643 72.2122 59.8823 72.2434 60.0459 72.2823C60.9025 73.2635 61.7514 74.2604 62.5847 75.2572C62.5691 75.3039 62.5458 75.3507 62.5302 75.3974C61.9928 74.7588 60.8247 73.3726 59.9836 72.4069C59.8512 72.368 59.6721 72.3446 59.5319 72.3134ZM50.5604 74.3227L50.6383 77.6247L50.6305 74.1981C50.5059 74.1124 50.3424 74.0268 50.2256 73.9489C50.101 74.0345 49.9218 74.1202 49.805 74.1981V77.6247L49.8829 74.3227C49.9841 74.2526 50.1321 74.1903 50.2256 74.1202C50.319 74.1903 50.4592 74.2526 50.5604 74.3227Z" fill="#A71C20"/>
    <path d="M33.6376 61.9481C35.125 55.2974 44.3535 53.3193 50.1476 53.3193C55.9416 53.3193 65.1623 55.2974 66.6576 61.9481C68.511 70.2343 56.1519 73.3182 50.1554 73.3182C44.1588 73.3182 31.7841 70.2343 33.6376 61.9481ZM34.2372 61.9014C35.639 55.4688 44.5638 53.5685 50.1398 53.5685C55.708 53.5685 64.6405 55.4765 66.0423 61.9092C67.779 69.8683 55.9027 72.8042 50.1398 72.8042C44.3769 72.7965 32.5084 69.8605 34.2372 61.9014Z" fill="#CB4D2C"/>
    <path d="M33.6929 62.1507C35.1803 55.5 44.0272 53.4907 50.1951 53.4907C56.3474 53.4907 65.2098 55.5 66.7051 62.1585C68.5586 70.4368 56.1994 73.5286 50.2029 73.5286C44.1985 73.5208 31.8316 70.4368 33.6929 62.1507ZM34.2925 62.104C35.6943 55.6713 44.6191 53.7711 50.1951 53.7711C55.7711 53.7711 64.6958 55.6791 66.0976 62.1117C67.8343 70.063 55.9658 73.0068 50.1951 73.0068C44.4322 73.0068 32.5559 70.063 34.2925 62.104Z" fill="white"/>
    <path opacity="0.45" d="M69.8976 63.5291L67.1953 63.1163L66.837 63.0307C66.3853 62.9372 65.5131 62.4466 65.1393 61.8625C64.7577 61.2784 63.8543 60.2738 63.3481 59.6508C62.655 58.7864 61.0819 57.992 60.8561 57.6338C60.6224 57.2755 60.2486 56.6525 60.1396 56.4033C60.0383 56.1541 59.7891 55.9516 59.3842 55.975C58.9792 55.9983 58.9403 56.1385 58.5898 56.1619C58.2394 56.1853 57.7487 56.1074 57.7487 56.1074C57.5385 56.0606 57.3905 56.0373 57.2425 56.0373C57.0245 56.3955 56.6974 56.6136 55.8875 56.6136C55.833 56.6136 55.7862 56.6058 55.7473 56.598C55.833 56.7771 56.5806 56.8861 56.7052 56.8784C56.8298 56.8706 57.5385 57.0731 57.702 57.0964C58.0291 57.1587 57.9668 57.0419 58.4886 57.3456C59.353 57.844 60.6458 59.2225 60.9028 60.414C61.043 61.076 62.1722 62.1507 62.3124 62.7581C60.8015 62.6491 58.7845 61.6445 58.7845 61.6445L58.5353 61.5198C58.5353 61.5198 57.6397 61.0682 56.2613 61.0059C53.6602 60.7722 52.6711 60.4218 52.4141 60.3361C51.8768 60.157 51.9547 60.0635 51.5186 60.0402C51.4329 60.0324 51.355 60.0324 51.2849 60.0324C51.2304 60.1414 51.1525 60.2427 51.0591 60.3283C50.5762 60.7878 50.2414 61.1383 49.8364 61.7613C49.7274 61.9326 49.5405 62.0338 49.3224 62.0961C49.8208 61.9793 50.7943 61.7223 50.7943 61.7223C51.7133 61.5977 53.1073 62.0105 53.1073 62.0105C53.6212 62.1117 54.4779 62.4466 54.4779 62.4466C54.4779 62.4466 58.1849 63.5836 59.096 64.2456C59.6957 64.6817 62.7718 65.8343 63.5895 66.1146C64.4073 66.395 66.4009 67.4775 66.4009 67.4775C66.9149 67.9136 69.8898 69.2141 70.7075 69.4867C71.7589 67.6644 72.1249 65.8031 71.829 63.9185L69.8976 63.5291Z" fill="#4F264A"/>
    <path opacity="0.45" d="M68.5348 60.445C68.27 60.445 67.9741 60.5151 67.9741 60.5151L67.2342 60.9512C67.1408 61.1069 67.4757 61.3016 67.4757 61.3016C67.4757 61.3016 68.4102 61.3639 68.4024 61.6053C69.0877 61.9714 70.5518 62.0103 71.2917 62.0492C71.1904 61.7922 71.0814 61.543 70.9568 61.3016C70.84 61.0602 70.7076 60.8266 70.5674 60.5929C70.5362 60.5696 69.9755 60.4138 68.5348 60.445ZM63.0289 69.5255C63.0289 69.5255 62.8498 69.2996 61.9074 69.2996C61.3078 69.2996 62.1644 70.717 62.1644 70.717C62.7018 71.083 64.6487 71.6359 65.0615 71.6904C65.4664 71.745 66.8293 72.1499 66.8293 72.1499C66.8293 72.1499 67.538 72.2434 68.2622 72.4614C68.7918 71.9786 69.2902 71.449 69.7341 70.8883C68.0909 70.8572 65.7546 70.826 63.9868 69.8993C63.8154 69.3619 63.0289 69.5255 63.0289 69.5255Z" fill="#4F264A"/>
    <path d="M58.045 43.7014C58.045 43.7014 57.4999 43.2029 57.4921 43.1796C57.4532 43.0083 57.6478 42.7746 57.6946 42.4787C57.6401 42.4553 57.5778 42.432 57.531 42.4086C57.3986 41.9024 57.2896 40.999 57.531 40.5084C57.6478 40.2748 57.788 39.9555 57.7101 39.6829C57.2585 38.1409 56.3707 36.7936 55.7399 35.3296C55.5685 34.9324 55.5997 34.6442 55.5763 34.2393C55.0857 33.7019 54.525 32.3001 54.2524 31.4279C53.6839 32.8608 53.3101 34.5118 53.3101 34.8934C53.3101 36.5055 54.9455 37.2921 54.377 39.971C54.268 40.4928 54.0733 41.2093 53.8786 41.9413C54.2212 43.8104 54.2212 45.1655 54.7197 47.3382C55.4206 48.0313 56.0046 48.9191 56.3161 50.0484C56.5108 50.7493 57.0949 52.3847 57.8503 52.6339C58.3176 52.7896 56.2694 53.1635 55.6853 52.4314C55.1246 51.7305 54.1589 51.1698 53.7073 50.43C53.3412 49.8381 52.7805 48.5765 52.4223 47.9768L51.9862 50.2742C52.5858 52.7273 52.2276 53.2725 51.698 55.2661C51.4722 56.1306 49.7277 52.1043 49.7277 51.785C49.7277 50.9128 49.6732 50.5857 49.4707 49.8147C49.1047 49.1061 49.1436 48.1014 49.1982 47.3304C49.2838 46.0533 49.2682 43.6391 49.3228 43.0005C48.8866 41.9258 47.7574 39.9788 47.6484 38.8808C47.4771 37.1752 47.7652 35.4464 47.5238 33.7409C47.2279 34.5897 46.9163 35.6722 46.2544 36.3264C45.2654 37.3076 44.3464 38.3901 43.4586 39.4571C43.1393 39.9009 43.4197 40.1112 42.9212 40.8199C42.4306 41.513 42.6954 41.2015 42.5864 41.8635C42.5708 41.9569 42.5319 42.0426 42.4696 42.1049C42.2048 42.3229 41.9244 42.5176 41.5506 42.3541C40.8186 41.9881 40.7718 41.4429 40.7173 40.7498C40.6239 39.4181 41.6051 39.3558 42.1658 38.5459C43.2639 36.965 43.8168 34.3094 44.985 33.11C45.0551 32.8764 45.3354 32.0198 45.8572 30.7504C45.8728 29.1772 46.2622 27.7755 47.882 27.1291C48.544 26.8643 49.4162 26.7942 49.4474 25.883C49.4552 25.774 49.4318 25.4936 49.3617 25.3924C49.0969 25.1743 48.91 25.1743 48.7776 25.0186C48.5128 24.6837 48.2948 22.5187 48.3259 22.3786C48.6997 20.564 49.5798 19.9488 50.6934 20.0033C52.0095 20.0656 53.0531 20.7042 52.9986 22.472C52.9518 23.8972 51.48 25.7195 53.6839 26.4126C54.525 26.6774 54.6807 26.4905 55.405 27.2225C56.2149 28.0324 56.4096 29.481 56.5498 30.8205L57.3753 32.7362C58.8861 35.2828 58.341 36.0927 58.9017 38.6861C59.0418 39.3558 59.2911 39.9477 59.3456 41.4196C59.3611 42.1205 58.8082 43.678 58.045 43.7014Z" fill="#FBB257"/>
    <path d="M42.2592 41.7858C42.3293 41.1082 42.2281 41.1627 42.6642 40.5319C43.0691 39.9479 42.8745 39.6519 43.2249 39.1457C44.0971 38.0554 44.9226 36.9496 45.9039 35.9605C46.558 35.2908 47.4536 33.0557 47.6639 32.2614C47.7028 32.1446 47.7651 32.09 47.7963 32.1913C47.9365 33.6943 48.1467 34.9481 48.0922 36.42C47.9832 39.5195 48.0611 39.1925 49.3538 42.0895C49.4629 40.9291 49.7432 39.2392 50.4208 38.6629C49.6264 41.6767 49.5797 45.9834 49.494 47.3073C49.4551 47.977 49.2682 49.0439 49.5875 49.6592C49.6965 50.0797 49.7043 50.7105 49.7121 51.1933C49.7121 51.4893 49.7354 56.489 49.7354 56.489L49.2682 58.8097C49.1046 59.4795 48.2402 60.6087 47.6016 60.9592C47.3991 61.0682 46.9241 61.3252 46.9241 61.551C46.9241 61.9171 49.2838 62.6024 49.8289 61.7691C50.2339 61.1461 50.5687 60.7956 51.0516 60.3361C51.7992 59.6197 50.9737 58.8876 51.0671 57.9219C51.2385 56.2398 51.9627 54.7835 52.1964 53.1948C52.3365 52.2369 52.3132 51.3958 51.8771 50.3055L52.1886 47.2683C52.539 47.7901 52.8661 48.6234 53.1932 49.3165C53.7851 50.547 53.7929 50.6638 54.813 51.6762C55.1557 52.0188 55.5139 52.416 55.7709 52.8288C56.2538 53.592 56.5809 54.3474 56.5419 55.2585C56.1915 55.8971 56.0357 55.8582 55.584 56.2476C55.5996 56.271 55.4594 56.6214 55.8878 56.6214C57.4219 56.6214 57.235 55.8193 57.8191 54.7757C58.1929 54.106 59.2754 53.078 58.0917 52.7275C57.7179 52.6185 57.3752 52.3927 57.1572 52.0344C56.3394 50.6638 56.3083 50.7027 55.88 49.4411C55.623 48.6779 55.0934 48.0627 54.4782 47.5565C54.0966 46.6998 53.9486 46.0846 53.824 45.1734C53.6605 43.9352 53.5436 43.0474 53.3334 41.778C53.933 39.3949 54.2445 38.8965 53.2243 36.6069C52.9829 36.0696 52.8583 35.4855 52.8583 34.9014C52.8583 34.1382 53.2789 32.4327 53.6838 31.5449C53.824 31.1867 54.0265 30.844 54.3068 30.735C54.556 31.6617 55.4049 33.5541 55.9033 34.0214C55.9345 34.3952 55.9189 34.769 56.0669 35.1195C56.6899 36.6147 57.5855 37.9776 58.0372 39.5507C58.1929 40.0958 57.9826 40.3528 57.8347 40.7889C57.788 40.9992 57.7724 41.6067 57.8658 42.0583L58.0761 42.1752C58.0372 42.3153 57.9437 42.6969 57.8658 42.8683C57.897 43.0785 58.154 43.2031 58.154 43.2031C58.4966 43.1253 58.9873 41.887 58.9717 41.3886C58.9172 39.87 58.5979 39.1925 58.5122 38.7408C58.006 36.163 58.3019 35.4621 56.8612 32.9701L56.0435 30.9452C55.9423 29.9095 55.5295 27.542 54.1978 27.1137C53.972 27.0436 53.7461 27.028 53.4113 26.919C51.6746 26.3583 51.6746 25.0188 52.1496 23.5625C52.5702 22.2619 52.6247 20.7355 50.7167 20.572C49.533 20.4707 49.1747 21.4053 48.9255 22.4722C48.9333 22.589 48.9956 24.3335 49.2526 24.7073C49.7588 25.0811 50.0392 24.9721 50.008 25.9144C49.9847 26.7009 49.4784 27.1682 48.7931 27.4096C47.6795 27.799 47.1188 28.0326 46.7372 29.1774C46.6204 29.5357 46.5191 30.0574 46.5191 30.8284V30.8829C46.1998 31.6695 45.8026 32.5729 45.5612 33.414C44.1906 34.7846 43.513 37.9075 42.1346 39.2236C41.2157 40.0958 40.9353 40.1581 41.2702 41.5054C41.3013 41.6456 41.7452 41.996 41.8387 42.0428C41.901 42.0739 42.267 41.8636 42.2592 41.7858Z" fill="url(#paint2_linear_15_1007)"/>
    <defs>
        <linearGradient id="paint0_linear_15_1007" x1="27.5898" y1="69.0973" x2="72.3979" y2="69.0973" gradientUnits="userSpaceOnUse">
            <stop stop-color="#CC612C"/>
            <stop offset="1" stop-color="#743237"/>
        </linearGradient>
        <linearGradient id="paint1_linear_15_1007" x1="23.8937" y1="65.1994" x2="51.5867" y2="60.3163" gradientUnits="userSpaceOnUse">
            <stop stop-color="#FFDD7F"/>
            <stop offset="1" stop-color="#F47920"/>
        </linearGradient>
        <linearGradient id="paint2_linear_15_1007" x1="42.7916" y1="34.6836" x2="58.8268" y2="50.719" gradientUnits="userSpaceOnUse">
            <stop stop-color="#2A3795"/>
            <stop offset="1" stop-color="#222A7E"/>
        </linearGradient>
    </defs>
</svg>
