<svg width="100" height="100" viewBox="0 0 100 100" fill="none" xmlns="http://www.w3.org/2000/svg">
    <rect width="100" height="100" rx="8" fill="white"/>
    <path d="M50.0288 31.7778C53.1853 31.7778 56.3418 32.5895 59.133 34.0714L55.7503 39.7993C54.0402 38.9358 52.0843 38.4445 50.0288 38.4445C47.8821 38.4445 45.8814 38.9407 44.1565 39.8158L40.8889 34.0251C43.6577 32.5726 46.8118 31.7778 50.0288 31.7778Z"
          fill="#01A2E9"/>
    <path d="M56.8889 50C56.8889 53.8046 53.8046 56.8889 50 56.8889C46.1954 56.8889 43.1111 53.8046 43.1111 50C43.1111 46.1954 46.1954 43.1111 50 43.1111C53.8046 43.1111 56.8889 46.1954 56.8889 50Z"
          fill="#01A2E9"/>
    <path fill-rule="evenodd" clip-rule="evenodd"
          d="M80 50C80 66.5685 66.5685 80 50 80C33.4315 80 20 66.5685 20 50C20 33.4315 33.4315 20 50 20C66.5685 20 80 33.4315 80 50ZM73.3333 50C73.3333 61.7164 64.6979 71.4158 53.4444 73.0809V67.8511C62.1666 66.2273 68.5556 58.5293 68.5556 49.2777C68.5556 47.4008 68.2552 45.6346 67.7086 44C66.8533 42.6667 65.5094 42.2593 64.9444 42.2222C63.2222 42.0556 62.1296 43.1667 61.8889 43.6111C61.2778 44.3333 61.1667 45.4815 61.2222 46C61.7556 47.2444 61.8889 48.7037 61.8889 49.2777C61.8889 56.184 56.596 61.5 50 61.5C43.404 61.5 38.1111 56.184 38.1111 49.2777C38.1111 48.5185 38.2222 46.8 38.6667 46C38.7778 45.3518 38.6222 43.8 37.1111 42.7778C36.5185 42.3704 34.9444 41.8 33.3889 42.7778C33.0772 42.9444 32.3994 43.4778 32.1813 44.2778C31.7038 45.8341 31.4444 47.5067 31.4444 49.2777C31.4444 58.5293 37.8334 66.2273 46.5556 67.8511V73.0809C35.3021 71.4158 26.6667 61.7164 26.6667 50C26.6667 37.1134 37.1134 26.6667 50 26.6667C62.8866 26.6667 73.3333 37.1134 73.3333 50Z"
          fill="#01A2E9"/>
</svg>
