<?xml version="1.0" encoding="UTF-8"?>
<svg width="163px" height="50px" viewBox="0 0 163 50" version="1.1" xmlns="http://www.w3.org/2000/svg" xmlns:xlink="http://www.w3.org/1999/xlink">
    <!-- Generator: Sketch 60 (88103) - https://sketch.com -->
    <title>basis / logo SURFconext black</title>
    <desc>Created with Sketch.</desc>
    <defs>
        <path d="M900,0 L1500,0 L1500,932 C1500,936.418278 1496.41828,940 1492,940 L908,940 C903.581722,940 900,936.418278 900,932 L900,0 L900,0 Z" id="path-1"></path>
        <filter x="-0.8%" y="-0.3%" width="101.5%" height="101.1%" filterUnits="objectBoundingBox" id="filter-2">
            <feMorphology radius="1" operator="dilate" in="SourceAlpha" result="shadowSpreadOuter1"></feMorphology>
            <feOffset dx="0" dy="3" in="shadowSpreadOuter1" result="shadowOffsetOuter1"></feOffset>
            <feColorMatrix values="0 0 0 0 0   0 0 0 0 0.384313725   0 0 0 0 0.690196078  0 0 0 1 0" type="matrix" in="shadowOffsetOuter1"></feColorMatrix>
        </filter>
        <polygon id="path-3" points="0 0.422380952 97.6684732 0.422380952 97.6684732 50 0 50"></polygon>
    </defs>
    <g id="Page-1" stroke="none" stroke-width="1" fill="none" fill-rule="evenodd">
        <g id="gast_IDP_smaller" transform="translate(-1119.000000, -30.000000)">
            <rect fill="#53A6F0" x="0" y="0" width="2400" height="1224"></rect>
            <g id="card">
                <g id="Rectangle-6-Copy-30">
                    <use fill="black" fill-opacity="1" filter="url(#filter-2)" xlink:href="#path-1"></use>
                    <use fill="#FFFFFF" fill-rule="evenodd" xlink:href="#path-1"></use>
                </g>
                <rect id="Rectangle-6-Copy-32" fill="#0062B0" x="900" y="0" width="600" height="110"></rect>
            </g>
            <g id="header" transform="translate(1119.000000, 30.000000)">
                <g id="basis-/-logo-SURFconext-white">
                    <g id="basis-/-logo-SURFconext-black">
                        <path d="M92.7259745,11.2321734 C92.9027403,11.4549914 93,11.7600685 93,12.0236167 C93,12.7535653 92.3925125,13.3221905 91.6676959,13.3221905 C91.2948668,13.3221905 90.9212659,13.1600685 90.6472404,12.8549914 C89.9023543,12.0443811 88.9421073,11.5564176 87.960247,11.5564176 C85.587418,11.5564176 83.8629873,13.4443811 83.8629873,16.0007986 C83.8629873,18.5572162 85.587418,20.4435824 87.960247,20.4435824 C88.9421073,20.4435824 89.9216519,19.9979464 90.6472404,19.165773 C90.9212659,18.8614946 91.3149363,18.6993725 91.7070629,18.6993725 C92.412582,18.6993725 92.9807024,19.2671991 92.9807024,19.9572162 C92.9807024,20.2407302 92.9027403,20.5250428 92.706677,20.7478608 C91.7263605,21.9857387 90.2157468,23 87.960247,23 C84.0389811,23 81,20.1600685 81,16.0007986 C81,11.8415288 84.0389811,9 87.960247,9 C90.2157468,9 91.7263605,9.99429549 92.7259745,11.2321734" id="Fill-1" fill="#FFFFFF"></path>
                        <path d="M101.990908,11.5564176 C99.5201333,11.5564176 97.9325126,13.4643468 97.9325126,16 C97.9325126,18.516486 99.5201333,20.4435824 101.990908,20.4435824 C104.461682,20.4435824 106.067487,18.516486 106.067487,16 C106.067487,13.4643468 104.461682,11.5564176 101.990908,11.5564176 M101.990908,23 C97.9530694,23 95,20.0786081 95,16 C95,11.9221905 97.9530694,9 101.990908,9 C106.047721,9 109,11.9221905 109,16 C109,20.0786081 106.047721,23 101.990908,23" id="Fill-3" fill="#FFFFFF"></path>
                        <path d="M121.231013,23 C120.688291,23 120.146361,22.7321894 119.804589,22.2582459 L113.85443,13.9074257 L113.85443,21.5570692 C113.85443,22.3410237 113.211234,23 112.408228,23 C111.644778,23 111,22.3410237 111,21.5570692 L111,10.8771086 C111,9.90730972 111.80538,9 112.870253,9 C113.47231,9 114.075158,9.28891079 114.438291,9.80424323 L120.146361,17.7630862 L120.146361,10.4437424 C120.146361,9.66059939 120.788766,9 121.592563,9 C122.357595,9 123,9.66059939 123,10.4437424 L123,21.2267695 C123,22.1543679 122.25712,23 121.231013,23" id="Fill-5" fill="#FFFFFF"></path>
                        <path d="M134.724578,23 L127.67394,23 C126.75422,23 126,22.2440248 126,21.3211567 L126,10.6788433 C126,9.75514901 126.75422,9 127.67394,9 L134.724578,9 C135.414574,9 136,9.58742992 136,10.3219239 C136,11.0357628 135.414574,11.6231927 134.724578,11.6231927 L128.97077,11.6231927 L128.97077,14.5826497 L134.576369,14.5826497 C135.268012,14.5826497 135.853438,15.1700797 135.853438,15.9053998 C135.853438,16.6184125 135.268012,17.2066686 134.576369,17.2066686 L128.97077,17.2066686 L128.97077,20.3759811 L134.724578,20.3759811 C135.414574,20.3759811 136,20.963411 136,21.6565949 C136,22.4125701 135.414574,23 134.724578,23" id="Fill-7" fill="#FFFFFF"></path>
                        <path d="M147.629103,23 C147.192198,23 146.756075,22.7732497 146.498153,22.3807036 L143.5,17.8375711 L140.481526,22.4018344 C140.223604,22.7935679 139.805457,23 139.369334,23 C138.654967,23 138,22.4424707 138,21.5956113 C138,21.3070939 138.07894,21.0388947 138.237601,20.7902009 L141.613258,15.8146987 L138.475984,11.148032 C138.317323,10.9212818 138.257922,10.6734007 138.257922,10.4052014 C138.257922,9.70300708 138.793307,9 139.627256,9 C140.085264,9 140.521387,9.22837571 140.799631,9.64123999 L143.5,13.8113317 L146.160509,9.66155811 C146.418431,9.24869383 146.855336,9 147.33132,9 C148.106651,9 148.742078,9.64123999 148.742078,10.3848833 C148.742078,10.6530825 148.662356,10.9415999 148.503695,11.1683502 L145.386742,15.7943806 L148.761617,20.7698827 C148.920279,21.0185766 149,21.2867758 149,21.5752932 C149,22.2149077 148.484155,23 147.629103,23" id="Fill-9" fill="#FFFFFF"></path>
                        <path d="M160.8168,11.5073684 L157.992,11.5073684 L157.992,21.0742105 C157.992,21.8565789 157.34,22.4984211 156.528,22.4984211 C155.7352,22.4984211 155.084,21.8565789 155.084,21.0742105 L155.084,11.5073684 L152.2592,11.5073684 C151.568,11.5073684 151,10.9452632 151,10.2236842 C151,9.56131579 151.568,9 152.2592,9 L160.8168,9 C161.4872,9 162.056,9.56131579 162.056,10.2639474 C162.056,10.9452632 161.4872,11.5073684 160.8168,11.5073684" id="Fill-11" fill="#FFFFFF"></path>
                        <g id="conext">
                            <mask id="mask-4" fill="white">
                                <use xlink:href="#path-3"></use>
                            </mask>
                            <g id="Clip-15"></g>
                            <path d="M59.1449122,17.4120635 C60.1280992,17.4120635 60.6101317,16.9128571 60.6101317,15.9509524 C60.6101317,14.972381 60.1280992,14.4739683 59.1449122,14.4739683 L55.478278,14.4739683 L55.478278,11.6231746 L61.3439366,11.6231746 C62.3271236,11.6231746 62.8099528,11.1247619 62.8099528,10.1461905 C62.8099528,9.18428571 62.3271236,8.68507937 61.3439366,8.68507937 L53.942148,8.68507937 C52.9406358,8.68507937 52.4052211,9.20174603 52.4052211,10.217619 L52.4052211,20.7239683 C52.4052211,21.7390476 52.9406358,22.2557143 53.942148,22.2557143 C54.9619854,22.2557143 55.478278,21.7390476 55.478278,20.7239683 L55.478278,17.4120635 L59.1449122,17.4120635 Z M43.7517415,11.6231746 C44.9317252,11.6231746 45.8607333,12.1580952 45.8607333,13.422381 C45.8607333,14.6692063 44.9317252,15.2025397 43.7517415,15.2025397 L41.1407984,15.2025397 L41.1407984,11.6231746 L43.7517415,11.6231746 Z M45.5037902,21.2763492 C45.7906195,21.917619 46.2009447,22.2557143 46.7730098,22.2557143 C47.5418715,22.2557143 48.5601154,21.685873 48.5601154,20.7953968 C48.5601154,20.5279365 48.5067333,20.2612698 48.3641154,19.9755556 L46.9339528,17.1271429 C48.2565545,16.4326984 49.0429447,15.1319048 49.0429447,13.422381 C49.0429447,10.6263492 46.9881317,8.68507937 44.0202455,8.68507937 L39.5863431,8.68507937 C38.5856276,8.68507937 38.0478228,9.20174603 38.0478228,10.217619 L38.0478228,20.7239683 C38.0478228,21.7390476 38.5856276,22.2557143 39.5863431,22.2557143 C40.604587,22.2557143 41.1407984,21.7390476 41.1407984,20.7239683 L41.1407984,17.9993651 L43.9668634,17.9993651 L45.5037902,21.2763492 Z M31.3272537,15.9692063 C31.3272537,18.0533333 30.0572374,19.2993651 28.2876602,19.2993651 C26.5356114,19.2993651 25.2663919,18.0533333 25.2663919,15.9692063 L25.2663919,10.0914286 C25.2663919,9.07714286 24.7293837,8.56126984 23.7103431,8.56126984 C22.7104244,8.56126984 22.1726195,9.07714286 22.1726195,10.0914286 L22.1726195,15.9692063 C22.1726195,19.8334921 24.7652374,22.3263492 28.2876602,22.3263492 C31.8276114,22.3263492 34.4202293,19.8334921 34.4202293,15.9692063 L34.4202293,10.0914286 C34.4202293,9.07714286 33.8832211,8.56126984 32.8649772,8.56126984 C31.863465,8.56126984 31.3272537,9.07714286 31.3272537,10.0914286 L31.3272537,15.9692063 Z M13.8242943,19.4422222 C12.6259854,19.4422222 11.8212699,19.1747619 11.1424407,18.9438095 C10.6596114,18.7826984 10.2301642,18.6580952 9.76566016,18.6580952 C8.87170894,18.6580952 8.35382276,19.2104762 8.35382276,20.1009524 C8.35382276,21.5430159 11.3033837,22.3263492 13.8242943,22.3263492 C16.8280341,22.3263492 19.1696764,20.7239683 19.1696764,18.2311111 C19.1696764,15.8977778 17.6144244,14.8819048 15.9157577,14.3660317 L13.3948472,13.6001587 C12.3407496,13.2795238 11.8571236,12.9953968 11.8571236,12.3898413 C11.8571236,11.7128571 12.9303431,11.3747619 13.7884407,11.3747619 C14.843335,11.3747619 15.6114,11.6414286 16.2376439,11.8731746 C16.6670911,12.0152381 17.0423593,12.1580952 17.470213,12.1580952 C18.2932537,12.1580952 18.7402293,11.6065079 18.7402293,10.7152381 C18.7402293,9.2731746 16.0591724,8.48984127 13.7884407,8.48984127 C10.8572049,8.48984127 8.6932374,10.1271429 8.6932374,12.5319048 C8.6932374,14.5263492 10.1234,15.6668254 11.7503593,16.1469841 L14.0035626,16.8239683 C15.1293675,17.1628571 16.0041967,17.4477778 16.0041967,18.1422222 C16.0041967,18.9795238 14.843335,19.4422222 13.8242943,19.4422222 L13.8242943,19.4422222 Z M90.2013512,30.3763492 C94.3237252,30.3763492 97.6684732,33.7057143 97.6684732,37.8136508 L97.6684732,42.5644444 C97.6684732,46.6715873 94.3237252,50.0001587 90.2013512,50.0001587 L79.0564407,50.0001587 C74.9332699,50.0001587 71.5909122,46.6715873 71.5909122,42.5644444 L71.5909122,39.6303175 C71.5909122,34.52 67.4310911,30.3763492 62.3000341,30.3763492 L9.29079837,30.3763492 C4.15974146,30.3763492 -7.96747968e-05,26.2334921 -7.96747968e-05,21.1215873 L-7.96747968e-05,9.67714286 C-7.96747968e-05,4.5652381 4.15974146,0.422380952 9.29079837,0.422380952 L62.3000341,0.422380952 C67.4310911,0.422380952 71.5909122,4.5652381 71.5909122,9.67714286 L71.5909122,21.1215873 C71.5909122,26.2334921 75.7507333,30.3763492 80.882587,30.3763492 L90.2013512,30.3763492 Z" id="Fill-14" fill="#FFFFFF" mask="url(#mask-4)"></path>
                        </g>
                    </g>
                </g>
            </g>
        </g>
    </g>
</svg>