<svg width="32" height="32" viewBox="0 0 32 32" fill="none" xmlns="http://www.w3.org/2000/svg">
    <path d="M8.87472 8.05886L14.2987 9.73352L18.2467 6.46686C18.3341 6.38705 18.443 6.33463 18.5599 6.31608C18.6768 6.29752 18.7966 6.31365 18.9044 6.36246C19.0123 6.41126 19.1034 6.49061 19.1666 6.59069C19.2298 6.69077 19.2623 6.80718 19.2601 6.92552L19.1014 12.7095L24.0227 15.4282C24.1257 15.4925 24.208 15.5849 24.2601 15.6946C24.3122 15.8042 24.3318 15.9264 24.3167 16.0469C24.3016 16.1673 24.2523 16.2809 24.1747 16.3742C24.0971 16.4675 23.9944 16.5367 23.8787 16.5735L18.4974 18.4989L16.5721 23.8802C16.5355 23.9959 16.4665 24.0987 16.3733 24.1764C16.2801 24.2541 16.1666 24.3034 16.0462 24.3186C15.9258 24.3337 15.8036 24.314 15.694 24.2619C15.5845 24.2097 15.4922 24.1272 15.4281 24.0242L12.7081 19.1029L6.92406 19.2615C6.80571 19.2638 6.6893 19.2313 6.58923 19.1681C6.48915 19.1049 6.4098 19.0137 6.36099 18.9059C6.31218 18.7981 6.29606 18.6783 6.31461 18.5614C6.33317 18.4445 6.38559 18.3356 6.46539 18.2482L9.73339 14.2989L8.05872 8.87486C8.02859 8.7619 8.02868 8.64301 8.059 8.5301C8.08931 8.4172 8.14879 8.31425 8.23145 8.23158C8.31412 8.14892 8.41706 8.08944 8.52997 8.05913C8.64288 8.02881 8.76177 8.02872 8.87472 8.05886V8.05886Z"
          stroke="#212121" stroke-width="1.5" stroke-linecap="round" stroke-linejoin="round"/>
    <path d="M18.4976 18.4961L31.0002 30.9988" stroke="#212121" stroke-width="1.5" stroke-linecap="round"
          stroke-linejoin="round"/>
    <path d="M24 3H28" stroke="#212121" stroke-width="1.5" stroke-linecap="round" stroke-linejoin="round"/>
    <path d="M26 1V5" stroke="#212121" stroke-width="1.5" stroke-linecap="round" stroke-linejoin="round"/>
    <path d="M3 27H7" stroke="#212121" stroke-width="1.5" stroke-linecap="round" stroke-linejoin="round"/>
    <path d="M5 25V29" stroke="#212121" stroke-width="1.5" stroke-linecap="round" stroke-linejoin="round"/>
    <path d="M12 4V1" stroke="#212121" stroke-width="1.5" stroke-linecap="round" stroke-linejoin="round"/>
    <path d="M1 13H4" stroke="#212121" stroke-width="1.5" stroke-linecap="round" stroke-linejoin="round"/>
</svg>
