<?xml version="1.0" encoding="utf-8"?>
<!-- Generator: Adobe Illustrator 22.0.1, SVG Export Plug-In . SVG Version: 6.00 Build 0)  -->
<svg width="166" xmlns="http://www.w3.org/2000/svg" xmlns:xlink="http://www.w3.org/1999/xlink" x="0px" y="0px"
	 viewBox="0 0 134 49" style="enable-background:new 0 0 134 49;" xml:space="preserve">
<style type="text/css">
	.st0{fill:#173552;}
	.st1{fill:#33AFDB;}
	.st2{fill:none;stroke:#FFFFFF;stroke-width:1.5;}
	.st3{fill:#FFFFFF;}
	.st4{enable-background:new    ;}
</style>
<title>eduID Logo</title>
<desc>Created with Sketch.</desc>
<g id="Registreren">
	<g id="Registreren-variant-2" transform="translate(-294.000000, -358.000000)">
		<g id="account-aanmaken" transform="translate(293.000000, 352.000000)">
			<g id="eduID-Logo" transform="translate(1.000000, 0.000000)">
				<g id="Logo" transform="translate(0.000000, 8.000000)">
					<path id="Rectangle" class="st0" d="M4,3h111c2.2,0,4,1.8,4,4v36c0,2.2-1.8,4-4,4H4c-2.2,0-4-1.8-4-4V7C0,4.8,1.8,3,4,3z"/>
					<g id="Shield" transform="translate(106.000000, 0.000000)">
						<g id="Shape">
							<g>
								<path id="path-1" class="st1" d="M13,0h0.1l0.5,0.2c0.3,0.2,0.5,0.3,0.6,0.3c0.1,0,0.5,0.2,1.1,0.5s0.9,0.4,0.9,0.4
									c0,0,0.2,0.1,0.5,0.2s0.5,0.2,0.7,0.3c0.2,0.1,0.4,0.1,0.7,0.2s0.5,0.2,0.6,0.2c0.1,0,0.2,0.1,0.3,0.1
									c0.1,0,0.3,0.1,0.5,0.1c0.2,0.1,0.4,0.1,0.7,0.2c0.3,0.1,0.6,0.1,0.9,0.2C21.4,3,21.6,3,21.7,3s0.3,0.1,0.8,0.1
									c0.4,0.1,0.7,0.1,0.8,0.1c0.1,0,0.4,0.1,0.8,0.1c0.4,0.1,0.6,0.1,0.7,0.1c0,0,0.2,0,0.6,0.1C25.8,3.7,26,3.7,26,3.7l0,0
									l0,1.2c0,0.8-0.1,1.8-0.1,3.1s-0.1,2.1-0.2,2.6c0,0.5-0.1,0.9-0.1,1.3c-0.1,0.4-0.1,0.7-0.2,1c-0.1,0.3-0.1,0.6-0.2,1
									c-0.1,0.3-0.2,0.6-0.2,0.9s-0.1,0.5-0.2,0.8c-0.1,0.3-0.1,0.5-0.2,0.5c0,0.1,0,0.1-0.1,0.2c0,0.1-0.1,0.2-0.1,0.3
									c0,0.1-0.1,0.3-0.2,0.6s-0.2,0.4-0.2,0.6c-0.1,0.1-0.1,0.3-0.2,0.5c-0.1,0.2-0.2,0.5-0.4,0.7c-0.1,0.3-0.2,0.5-0.3,0.5
									c0,0-0.1,0.2-0.3,0.5c-0.2,0.3-0.3,0.5-0.3,0.5s-0.1,0.2-0.3,0.4c-0.1,0.2-0.2,0.4-0.3,0.4c0,0.1-0.1,0.2-0.2,0.3
									c-0.1,0.1-0.2,0.2-0.2,0.3s-0.1,0.2-0.2,0.3c-0.1,0.1-0.1,0.2-0.2,0.3c-0.1,0.1-0.1,0.2-0.2,0.2c0,0.1-0.1,0.1-0.2,0.2
									c-0.1,0.1-0.1,0.2-0.2,0.3c-0.1,0.1-0.1,0.2-0.2,0.3s-0.1,0.2-0.2,0.2c-0.1,0.1-0.2,0.2-0.4,0.4c-0.2,0.2-0.4,0.4-0.6,0.6
									c-0.2,0.2-0.5,0.4-0.6,0.6c-0.2,0.2-0.3,0.3-0.4,0.3s-0.2,0.2-0.4,0.3c-0.2,0.2-0.4,0.3-0.4,0.3c0,0-0.2,0.1-0.4,0.3
									c-0.2,0.2-0.3,0.3-0.4,0.3c-0.1,0-0.1,0.1-0.2,0.2s-0.2,0.1-0.3,0.3c-0.1,0.1-0.2,0.2-0.3,0.2c-0.1,0.1-0.1,0.1-0.2,0.1
									c-0.1,0-0.2,0.1-0.4,0.2s-0.3,0.2-0.3,0.2c-0.1,0-0.1,0.1-0.2,0.1c-0.1,0-0.1,0.1-0.2,0.1c-0.1,0-0.1,0.1-0.2,0.1
									s-0.1,0.1-0.2,0.1s-0.3,0.1-0.4,0.2c-0.2,0.1-0.3,0.1-0.3,0.1L13,29l-0.1,0c-0.1,0-0.1,0-0.2-0.1c-0.1,0-0.2-0.1-0.4-0.2
									c-0.2-0.1-0.3-0.1-0.3-0.2s-0.1-0.1-0.2-0.1c-0.1-0.1-0.2-0.1-0.3-0.2c-0.1,0-0.2-0.1-0.4-0.2c-0.2-0.1-0.3-0.2-0.4-0.2
									c-0.1,0-0.1-0.1-0.2-0.1c-0.1-0.1-0.2-0.1-0.2-0.2c-0.1-0.1-0.2-0.2-0.4-0.3c-0.2-0.1-0.3-0.2-0.4-0.3
									c-0.1-0.1-0.3-0.2-0.5-0.4s-0.4-0.3-0.4-0.3S8.3,26,8.1,25.9c-0.2-0.2-0.3-0.3-0.3-0.3c0,0-0.1-0.1-0.3-0.3
									c-0.2-0.2-0.3-0.3-0.4-0.4c-0.1-0.1-0.2-0.2-0.5-0.5c-0.2-0.2-0.4-0.4-0.4-0.5S6,23.9,5.9,23.8c-0.1-0.1-0.2-0.2-0.2-0.3
									c-0.1-0.1-0.1-0.1-0.2-0.2s-0.1-0.1-0.2-0.2c-0.1-0.1-0.1-0.1-0.2-0.2c0-0.1-0.1-0.1-0.1-0.2c0,0-0.1-0.1-0.1-0.2
									c-0.1-0.1-0.1-0.1-0.2-0.2c0-0.1-0.1-0.1-0.2-0.2s-0.1-0.2-0.2-0.2c0-0.1-0.1-0.1-0.2-0.3c-0.1-0.1-0.1-0.2-0.2-0.2
									c0,0-0.1-0.2-0.2-0.3c-0.1-0.2-0.2-0.3-0.2-0.4c0-0.1-0.1-0.2-0.3-0.5S3.1,19.7,3,19.6s-0.1-0.2-0.2-0.4S2.7,19,2.6,18.7
									s-0.2-0.3-0.2-0.3c0,0-0.1-0.1-0.2-0.4c-0.1-0.2-0.2-0.4-0.2-0.6c-0.1-0.1-0.1-0.3-0.2-0.6c-0.1-0.3-0.2-0.6-0.3-0.9
									c-0.1-0.3-0.2-0.7-0.3-1.2c-0.1-0.5-0.2-0.8-0.3-1c-0.1-0.2-0.1-0.5-0.2-1c-0.1-0.4-0.1-0.7-0.2-0.8c0-0.1-0.1-0.5-0.1-1.2
									S0.2,9.5,0.2,9.2c0-0.3,0-0.7-0.1-1.1c0-0.4-0.1-1-0.1-1.9S0,4.7,0,4.3V3.8l0.1,0c0,0,0.1,0,0.3-0.1c0.2,0,0.4-0.1,0.7-0.1
									c0.3,0,0.7-0.1,1.4-0.2s1-0.2,1.3-0.2c0.3,0,0.6-0.1,1-0.2c0.4-0.1,0.8-0.2,1.1-0.3s0.6-0.2,0.8-0.2
									c0.2-0.1,0.4-0.1,0.5-0.2s0.3-0.1,0.4-0.1c0.1,0,0.3-0.1,0.7-0.2c0.3-0.1,0.7-0.2,1-0.4s0.5-0.2,0.5-0.2
									c0,0,0.2-0.1,0.4-0.2S10.7,1,11,0.9s0.4-0.2,0.7-0.3s0.5-0.2,0.8-0.4L12.9,0H13z"/>
							</g>
							<path class="st2" d="M9.9,2.1C9.9,2.1,9.9,2.1,9.9,2.1C9.9,2.1,9.9,2.1,9.9,2.1L9.9,2.1z M3.2,18.3c0,0,0-0.1-0.1-0.1
								C3.1,18.2,3.2,18.2,3.2,18.3L3.2,18.3z M16.1,2.1C16.1,2.1,16.1,2.1,16.1,2.1C16.1,2.1,16.1,2.1,16.1,2.1L16.1,2.1z
								 M16.5,0.7c0.1,0,0.2,0.1,0.6,0.2c0.3,0.1,0.5,0.2,0.7,0.3c0.2,0.1,0.4,0.1,0.7,0.2c0.4,0.1,0.4,0.1,0.6,0.2
								c0.1,0,0.2,0.1,0.3,0.1c0.1,0,0.3,0.1,0.5,0.1c0.2,0.1,0.4,0.1,0.7,0.2c0.3,0.1,0.6,0.1,0.8,0.2c0.3,0.1,0.5,0.1,0.5,0.1
								c0.1,0,0.3,0.1,0.8,0.1c0.4,0.1,0.7,0.1,0.8,0.1c0.1,0,0.4,0.1,0.8,0.1c0.3,0,0.3,0,0.5,0.1c0.2,0,0.2,0,0.1,0
								c0.2,0,0.2,0,0.3,0c0.2,0,0.2,0,0.5,0.1c0.2,0,0.4,0.1,0.5,0.1C26,3,26,3,26.1,3c0,0,0,0,0,0c0,0,0,0,0.4,0.2l0.3,0.2l0,1.5
								c0,0.8-0.1,1.8-0.1,3.1c-0.1,1.3-0.1,2.1-0.2,2.6c0,0.5-0.1,1-0.1,1.3c-0.1,0.4-0.1,0.7-0.2,1.1c-0.1,0.3-0.1,0.7-0.2,1
								c-0.1,0.3-0.2,0.6-0.2,0.9c-0.1,0.3-0.1,0.5-0.2,0.8c-0.1,0.3-0.1,0.4-0.2,0.5c0,0.1-0.1,0.2-0.1,0.3c0,0.1-0.1,0.2-0.1,0.3
								c-0.1,0.1-0.1,0.3-0.2,0.6c-0.1,0.3-0.2,0.5-0.3,0.6c-0.1,0.2-0.1,0.3-0.2,0.5c-0.1,0.2-0.2,0.5-0.4,0.8
								c-0.2,0.3-0.2,0.5-0.3,0.6c-0.1,0.1-0.1,0.1-0.3,0.5C23.1,20.8,23,21,23,21c0,0-0.1,0.2-0.3,0.4c-0.2,0.2-0.2,0.4-0.3,0.5
								c0,0.1-0.1,0.2-0.2,0.3c-0.1,0.1-0.2,0.3-0.2,0.3c-0.1,0.1-0.1,0.1-0.2,0.2c-0.1,0.1-0.2,0.2-0.2,0.3
								c-0.1,0.1-0.1,0.1-0.1,0.2c-0.1,0.1-0.1,0.2-0.2,0.3c-0.1,0.1-0.1,0.2-0.2,0.2c-0.1,0.1-0.2,0.2-0.2,0.3
								c-0.1,0.1-0.1,0.2-0.2,0.2c-0.1,0.1-0.2,0.2-0.4,0.4c-0.2,0.2-0.4,0.4-0.7,0.7c-0.3,0.2-0.5,0.5-0.7,0.6
								c-0.2,0.2-0.3,0.3-0.4,0.4c0,0-0.2,0.1-0.4,0.3c-0.2,0.2-0.4,0.3-0.4,0.3c-0.1,0.1-0.1,0.1-0.4,0.3c-0.2,0.2-0.3,0.3-0.4,0.3
								c-0.1,0-0.1,0.1-0.2,0.1c-0.1,0.1-0.2,0.1-0.3,0.3c-0.1,0.1-0.3,0.2-0.3,0.3c-0.1,0.1-0.2,0.1-0.3,0.2
								c-0.1,0-0.2,0.1-0.4,0.2c-0.2,0.1-0.3,0.2-0.3,0.2c-0.1,0-0.1,0.1-0.2,0.1c-0.1,0-0.1,0.1-0.2,0.1c-0.1,0.1-0.1,0.1-0.2,0.1
								c-0.1,0-0.2,0.1-0.3,0.2c-0.1,0.1-0.3,0.1-0.4,0.2c-0.2,0.1-0.3,0.1-0.4,0.2L13,29.8l-0.3-0.1c-0.1,0-0.2-0.1-0.4-0.1
								c-0.1,0-0.2-0.1-0.4-0.2c-0.3-0.1-0.4-0.2-0.5-0.2c0,0-0.1,0-0.2-0.1c-0.1-0.1-0.2-0.1-0.3-0.1c-0.1,0-0.2-0.1-0.4-0.2
								c-0.2-0.1-0.3-0.2-0.4-0.2c-0.1,0-0.2-0.1-0.3-0.2c-0.1-0.1-0.2-0.1-0.3-0.2c-0.1-0.1-0.2-0.2-0.4-0.3
								c-0.2-0.2-0.2-0.2-0.4-0.3c-0.1-0.1-0.3-0.2-0.5-0.4c-0.2-0.2-0.3-0.3-0.4-0.3c-0.1-0.1-0.2-0.2-0.4-0.3
								c-0.2-0.2-0.3-0.3-0.4-0.3c-0.1-0.1-0.1-0.1-0.3-0.3c-0.2-0.2-0.3-0.3-0.4-0.4c-0.1-0.1-0.2-0.2-0.5-0.5
								c-0.3-0.3-0.4-0.4-0.5-0.5c-0.1-0.1-0.1-0.1-0.2-0.2c-0.1-0.1-0.2-0.2-0.2-0.3C5.1,23.9,5,23.8,5,23.8
								c-0.1-0.1-0.1-0.1-0.2-0.2c-0.1-0.1-0.1-0.1-0.2-0.2c-0.1-0.1-0.1-0.1-0.1-0.2c0,0-0.1-0.1-0.1-0.2c-0.1-0.1-0.1-0.2-0.2-0.2
								c0-0.1-0.1-0.1-0.2-0.2c-0.1-0.1-0.1-0.2-0.2-0.3c0-0.1-0.1-0.1-0.2-0.3c-0.1-0.1-0.2-0.2-0.2-0.3c0,0-0.1-0.1-0.2-0.3
								C3.1,21.2,3.1,21.1,3,21c0-0.1-0.1-0.2-0.3-0.5c-0.2-0.3-0.3-0.4-0.3-0.6c-0.1-0.1-0.2-0.3-0.2-0.4c-0.1-0.1-0.1-0.3-0.3-0.5
								c-0.1-0.1-0.1-0.2-0.1-0.3c0,0,0,0,0-0.1c0,0,0,0-0.1-0.3c0,0.1-0.2-0.2,0,0c0,0,0,0-0.1-0.1c-0.1-0.2-0.2-0.4-0.2-0.6
								c-0.1-0.2-0.1-0.4-0.3-0.7c-0.1-0.3-0.2-0.6-0.3-0.9c-0.1-0.3-0.2-0.7-0.4-1.2c-0.1-0.5-0.2-0.8-0.3-1.1
								c-0.1-0.2-0.1-0.6-0.2-1c-0.1-0.4-0.2-0.7-0.2-0.9c0-0.1-0.1-0.6-0.1-1.3c-0.1-0.7-0.1-1.2-0.1-1.6c0-0.3,0-0.7-0.1-1.1
								c0-0.4-0.1-1-0.1-1.9c0-0.9-0.1-1.5-0.1-1.9v-1l0.5-0.2C-0.1,3,0,3,0.3,2.9c0.2,0,0.4-0.1,0.7-0.1c0.3,0,0.7-0.1,1.3-0.2
								c0.6-0.1,1-0.2,1.3-0.2c0.2,0,0.6-0.1,1-0.2C5,2.1,5.4,2,5.7,2C6,1.9,6.3,1.8,6.5,1.7C6.7,1.7,6.9,1.6,7,1.6
								c0.1,0,0.2-0.1,0.3-0.1c0.1,0,0.3-0.1,0.7-0.2C8.4,1.1,8.7,1,9,0.9c0.5-0.2,0.5-0.2,0.7-0.2c-0.1,0,0,0-0.1,0
								c0.1,0,0.2-0.1,0.3-0.1c0.3-0.1,0.5-0.2,0.7-0.3c0.2-0.1,0.4-0.2,0.6-0.3c0.2-0.1,0.5-0.2,0.8-0.4l0.6-0.3h0.6l0.6,0.3
								c0.3,0.2,0.5,0.3,0.6,0.3c0.1,0,0.5,0.2,1.1,0.5c0.3,0.1,0.5,0.2,0.7,0.3C16.4,0.7,16.4,0.7,16.5,0.7z M1.6,18.4
								c0,0,0,0.1,0.1,0.2C1.7,18.6,1.7,18.6,1.6,18.4L1.6,18.4z"/>
						</g>
						<path id="_x2E_nl" class="st3" d="M6.4,18.1c-0.3,0-0.5-0.1-0.7-0.3s-0.3-0.4-0.3-0.7c0-0.3,0.1-0.5,0.3-0.7S6.1,16,6.4,16
							c0.3,0,0.5,0.1,0.7,0.3s0.3,0.4,0.3,0.7c0,0.3-0.1,0.5-0.3,0.7S6.6,18.1,6.4,18.1z M9.7,18V9.6H11v1.3h0.1
							c0.2-0.5,0.5-0.8,0.9-1.1s0.9-0.4,1.6-0.4c0.9,0,1.7,0.3,2.2,0.8c0.5,0.5,0.8,1.3,0.8,2.3V18h-1.3v-5.1c0-0.8-0.2-1.3-0.5-1.7
							s-0.8-0.5-1.5-0.5s-1.2,0.2-1.6,0.6S11,12.3,11,13v5H9.7z M18.8,18V6.2h1.3V18H18.8z"/>
					</g>
				</g>
				<g class="st4">
					<path class="st3" d="M26.4,42.6C26,43,25.5,43.4,25,43.8c-0.5,0.3-1.1,0.6-1.7,0.8c-0.6,0.2-1.2,0.4-1.8,0.5s-1.3,0.2-1.9,0.2
						c-1.2,0-2.3-0.2-3.3-0.6s-1.9-1-2.6-1.8C13,42.1,12.4,41.1,12,40c-0.4-1.1-0.6-2.5-0.6-3.9c0-1.2,0.2-2.3,0.6-3.4
						c0.4-1,0.9-1.9,1.6-2.7c0.7-0.8,1.5-1.4,2.5-1.8c1-0.4,2.1-0.7,3.4-0.7c1,0,2,0.2,2.9,0.5c0.9,0.3,1.6,0.8,2.3,1.5
						c0.6,0.7,1.1,1.5,1.5,2.4c0.4,1,0.5,2,0.5,3.3c0,0.5-0.1,0.8-0.2,1c-0.1,0.2-0.3,0.2-0.6,0.2H14.4c0,1.1,0.2,2,0.5,2.8
						c0.3,0.8,0.6,1.5,1.1,2c0.5,0.5,1,0.9,1.7,1.2c0.7,0.3,1.4,0.4,2.2,0.4c0.8,0,1.4-0.1,2-0.3c0.5-0.2,1-0.4,1.4-0.6
						c0.4-0.2,0.7-0.4,1-0.6c0.3-0.2,0.5-0.3,0.7-0.3c0.2,0,0.4,0.1,0.6,0.3L26.4,42.6z M23.9,34.5c0-0.7-0.1-1.3-0.3-1.9
						c-0.2-0.6-0.5-1.1-0.9-1.5c-0.4-0.4-0.8-0.8-1.4-1c-0.5-0.2-1.2-0.3-1.9-0.3c-1.5,0-2.6,0.4-3.4,1.3c-0.8,0.8-1.4,2-1.6,3.5
						H23.9z"/>
					<path class="st3" d="M44.6,20v25h-1.8c-0.4,0-0.7-0.2-0.8-0.6l-0.3-2.1c-0.7,0.9-1.6,1.6-2.5,2.1c-0.9,0.5-2,0.8-3.3,0.8
						c-1,0-1.9-0.2-2.7-0.6c-0.8-0.4-1.5-0.9-2.1-1.7c-0.6-0.7-1-1.7-1.3-2.8s-0.5-2.4-0.5-3.8c0-1.3,0.2-2.5,0.5-3.5s0.8-2,1.5-2.8
						s1.4-1.4,2.3-1.9s2-0.7,3.1-0.7c1.1,0,2,0.2,2.7,0.5c0.8,0.4,1.4,0.9,2,1.5V20H44.6z M41.6,31.9c-0.6-0.8-1.2-1.3-1.8-1.6
						s-1.4-0.5-2.2-0.5c-1.6,0-2.8,0.6-3.7,1.7s-1.3,2.8-1.3,4.9c0,1.1,0.1,2.1,0.3,2.9c0.2,0.8,0.5,1.5,0.8,2
						c0.4,0.5,0.8,0.9,1.4,1.1c0.5,0.2,1.2,0.4,1.9,0.4c1,0,1.9-0.2,2.6-0.7s1.4-1.1,2-1.9V31.9z"/>
					<path class="st3" d="M63.5,27.8V45h-1.8c-0.4,0-0.7-0.2-0.8-0.6l-0.2-1.9c-0.7,0.8-1.6,1.5-2.5,2c-0.9,0.5-2,0.8-3.2,0.8
						c-0.9,0-1.8-0.2-2.5-0.5s-1.3-0.8-1.8-1.3c-0.5-0.6-0.9-1.3-1.1-2.1c-0.2-0.8-0.4-1.7-0.4-2.7v-11h3v11c0,1.3,0.3,2.3,0.9,3
						s1.5,1.1,2.7,1.1c0.9,0,1.7-0.2,2.5-0.6c0.8-0.4,1.5-1,2.2-1.8V27.8H63.5z"/>
				</g>
				<g class="st4">
					<path class="st1" d="M72.4,45h-3.3V20.6h3.3V45z"/>
					<path class="st1" d="M99.7,32.8c0,1.8-0.3,3.5-0.9,5c-0.6,1.5-1.4,2.8-2.4,3.8c-1.1,1.1-2.3,1.9-3.8,2.5
						c-1.5,0.6-3.1,0.9-4.9,0.9h-9.1V20.6h9.1c1.8,0,3.4,0.3,4.9,0.9s2.7,1.4,3.8,2.5c1.1,1.1,1.9,2.4,2.4,3.9
						C99.4,29.3,99.7,31,99.7,32.8z M96.3,32.8c0-1.5-0.2-2.8-0.6-4s-1-2.2-1.7-3c-0.7-0.8-1.7-1.4-2.7-1.9
						c-1.1-0.4-2.3-0.6-3.6-0.6h-5.8v19h5.8c1.3,0,2.5-0.2,3.6-0.6c1.1-0.4,2-1.1,2.7-1.9c0.7-0.8,1.3-1.8,1.7-3
						C96.1,35.7,96.3,34.3,96.3,32.8z"/>
				</g>
			</g>
		</g>
	</g>
</g>
</svg>
