<svg width="20" height="22" viewBox="0 0 20 22" fill="none" xmlns="http://www.w3.org/2000/svg">
    <path d="M8.33333 19.125C8.43918 19.4856 8.65897 19.8022 8.95979 20.0274C9.26062 20.2526 9.6263 20.3743 10.0021 20.3743C10.3779 20.3743 10.7435 20.2526 11.0444 20.0274C11.3452 19.8022 11.565 19.4856 11.6708 19.125M10 3.5V1.625M10 3.5C11.6576 3.5 13.2473 4.15848 14.4194 5.33058C15.5915 6.50269 16.25 8.0924 16.25 9.75C16.25 15.6217 17.5 16.625 17.5 16.625H2.5C2.5 16.625 3.75 15.0283 3.75 9.75C3.75 8.0924 4.40848 6.50269 5.58058 5.33058C6.75268 4.15848 8.3424 3.5 10 3.5Z"
          stroke="#FFC100" stroke-width="1.5" stroke-linecap="round" stroke-linejoin="round"/>
</svg>
