<svg width="24" height="24" viewBox="0 0 24 24" fill="none" xmlns="http://www.w3.org/2000/svg">
    <g clip-path="url(#clip0_2645_3333)">
        <path d="M13.3128 2.27496C13.1832 2.04027 12.993 1.84461 12.7621 1.70836C12.5312 1.57211 12.268 1.50024 11.9998 1.50024C11.7317 1.50024 11.4685 1.57211 11.2376 1.70836C11.0067 1.84461 10.8165 2.04027 10.6868 2.27496L0.936845 20.275C0.810764 20.5033 0.746416 20.7606 0.750154 21.0215C0.753892 21.2823 0.825586 21.5376 0.95816 21.7623C1.09073 21.987 1.2796 22.1732 1.50612 22.3025C1.73265 22.4319 1.98899 22.4999 2.24985 22.5H21.7498C22.0107 22.4999 22.267 22.4319 22.4936 22.3025C22.7201 22.1732 22.909 21.987 23.0415 21.7623C23.1741 21.5376 23.2458 21.2823 23.2495 21.0215C23.2533 20.7606 23.1889 20.5033 23.0628 20.275L13.3128 2.27496Z"
              fill="#FFC100" stroke="white" stroke-width="1.5" stroke-linecap="round" stroke-linejoin="round"/>
        <path fill-rule="evenodd" clip-rule="evenodd"
              d="M12 17.25C12.2984 17.25 12.5845 17.3685 12.7955 17.5795C13.0065 17.7905 13.125 18.0766 13.125 18.375C13.125 18.6734 13.0065 18.9595 12.7955 19.1705C12.5845 19.3815 12.2984 19.5 12 19.5C11.7016 19.5 11.4155 19.3815 11.2045 19.1705C10.9935 18.9595 10.875 18.6734 10.875 18.375C10.875 18.0766 10.9935 17.7905 11.2045 17.5795C11.4155 17.3685 11.7016 17.25 12 17.25Z"
              fill="white"/>
        <path d="M12 15V8.25" stroke="white" stroke-width="1.5" stroke-linecap="round" stroke-linejoin="round"/>
    </g>
    <defs>
        <clipPath id="clip0_2645_3333">
            <rect width="24" height="24" fill="white"/>
        </clipPath>
    </defs>
</svg>
