<svg height='300px' width='300px'  fill="#000000" xmlns="http://www.w3.org/2000/svg" xmlns:xlink="http://www.w3.org/1999/xlink" version="1.1" x="0px" y="0px" viewBox="0 0 100 100" enable-background="new 0 0 100 100" xml:space="preserve"><path d="M66.55,46.015c5.367,0,9.733-4.367,9.733-9.734s-4.366-9.734-9.733-9.734s-9.733,4.367-9.733,9.734  S61.183,46.015,66.55,46.015z M66.55,29.548c3.713,0,6.733,3.021,6.733,6.734s-3.021,6.734-6.733,6.734s-6.733-3.021-6.733-6.734  S62.837,29.548,66.55,29.548z M23.698,30.048c0-4.222,3.422-7.644,7.645-7.644c4.223,0,7.645,3.422,7.645,7.644  c0,4.222-3.422,7.645-7.645,7.645C27.121,37.692,23.698,34.27,23.698,30.048z M96.021,64.201H83.41v21.783h-3V61.749  c0-6.025-4.902-10.928-10.928-10.928h-3.865c-6.025,0-10.928,4.902-10.928,10.928v24.235h-3V64.201H6.021v-3h12.918v-9.557  c0-6.373,5.166-11.539,11.538-11.539h1.731c6.372,0,11.539,5.166,11.539,11.539v9.557h7.97c0.291-7.425,6.405-13.38,13.9-13.38  h3.865c7.495,0,13.609,5.955,13.9,13.38h12.639V64.201z"></path></svg>