<svg width="34" height="30" viewBox="0 0 34 30" class="multi-role" fill="none" xmlns="http://www.w3.org/2000/svg">
    <path d="M3.20117 21.3789C1.44309 21.3789 0.0136719 19.9495 0.0136719 18.1914V3.31641C0.0136719 1.55832 1.44309 0.128906 3.20117 0.128906H22.3262C24.0843 0.128906 25.5137 1.55832 25.5137 3.31641V18.1914C25.5137 19.9495 24.0843 21.3789 22.3262 21.3789H3.20117ZM2.13867 18.1914C2.13867 18.7779 2.61467 19.2539 3.20117 19.2539H22.3262C22.9127 19.2539 23.3887 18.7779 23.3887 18.1914V8.62891H2.13867V18.1914ZM23.3887 6.50391V3.31641C23.3887 2.72991 22.9127 2.25391 22.3262 2.25391H3.20117C2.61467 2.25391 2.13867 2.72991 2.13867 3.31641V6.50391H23.3887Z"
          fill="#008939"/>
    <path d="M7.45117 25.6289C6.86467 25.6289 6.38867 25.1529 6.38867 24.5664C6.38867 23.9799 6.86467 23.5039 7.45117 23.5039H26.5762C27.1627 23.5039 27.6387 23.0279 27.6387 22.4414V7.56641C27.6387 6.97991 28.1147 6.50391 28.7012 6.50391C29.2877 6.50391 29.7637 6.97991 29.7637 7.56641V22.4414C29.7637 24.1995 28.3343 25.6289 26.5762 25.6289H7.45117Z"
          fill="#008939"/>
    <path d="M11.7012 29.8789C11.1147 29.8789 10.6387 29.4029 10.6387 28.8164C10.6387 28.2299 11.1147 27.7539 11.7012 27.7539H30.8262C31.4127 27.7539 31.8887 27.2779 31.8887 26.6914V11.8164C31.8887 11.2299 32.3647 10.7539 32.9512 10.7539C33.5377 10.7539 34.0137 11.2299 34.0137 11.8164V26.6914C34.0137 28.4495 32.5843 29.8789 30.8262 29.8789H11.7012Z"
          fill="#008939"/>
</svg>
