<?xml version="1.0" encoding="UTF-8"?>
<svg version="1.1" viewBox="0 0 96 96" xmlns="http://www.w3.org/2000/svg">
    <g transform="translate(0 -956.36)">
        <g transform="matrix(1.1631 0 0 1.1631 -132.6 -162.64)" fill="none">
            <path d="m10.785 961.32c16.864 7.2864 43.678 16.164 52 28.094l-49.696 20.014c-3.9465-14.573-7.0879-29.517-2.3033-48.108z"/>
            <path d="m16.972 996.97c-1.4905 3.4184-3.7957 8.3092-3.8074 11.955 0.01651 17.106 18.11 25.19 36.478 36.483 13.506-10.329 36.338-19.566 36.441-36.509v-0.06c-0.01947-4.6793-1.2861-9.2939-3.7048-13.498-3.3342-14.522-16.593-16.737-35.938-16.746-19.345-8e-3 -26.901 0.97198-29.468 18.374z"/>
            <path d="m87.85 962.04c-16.864 7.2864-43.426 16.164-51.747 28.094l49.444 20.014c3.9465-14.573 7.0879-29.517 2.3033-48.108z"/>
            <path d="m16.909 993.31c-1.4934 2.7499-3.803 15.776-3.8147 18.708 0.0037 6.8574 4.4346 11.396 11.218 15.62s15.918-7.8676 25.33-2.2709c6.766-4.1544 15.868 7.9103 23.291 3.3103 7.4234-4.6001 13.168-9.8653 13.219-16.68v-0.048c-0.0195-3.7642-1.2886-16.568-3.7119-19.949-3.3406-11.682-14.099-13.464-33.482-13.471-19.383-7e-3 -29.478 0.7819-32.05 14.781z"/>
        </g>
        <path d="m10.277 971.19c-4.4801 0.0526-7.4438 0.70916-7.8398 2.0859 0.13279 14.253 8.75 17.802 8.1934 28.213-0.47036 1.5748-0.79054 3.1154-0.82789 9.0563s4.6417 23.56 11.806 28.022c2.7438 1.7085 5.8576-1.002 9.207-4.6523 5.4374 3.4641 11.479 6.8636 17.549 10.596 4.2866-3.2782 9.4625-6.4552 14.609-9.7774 3.4338 3.9313 6.8545 6.8779 9.9922 4.9336 7.841-4.859 13.909-23.247 13.894-29.614-0.01457-6.3668-0.298-8.5512-0.81987-10.691-0.01857-0.13059-0.03359-0.25794-0.05273-0.38867 0.80219-8.5732 8.0191-12.656 8.1406-25.697-0.96238-3.3453-17.081-2.436-33.289 1.0488-3.888-0.33809-8.2711-0.45327-13.195-0.45508-4.0362-2e-3 -7.6769 0.035-10.965 0.19922-0.61127 0.0241-1.2347 0.0442-1.8164 0.0781-9.2448-1.9361-18.374-3.03-24.586-2.957z"/>
        <g transform="translate(-4.9521e-8 -4.2324)">
            <g transform="matrix(1.1011 0 0 1.1011 -6.3058 -100.48)" fill="none">
                <path d="m10.785 961.32c16.864 7.2864 43.678 16.164 52 28.094l-49.696 20.014c-3.9465-14.573-7.0879-29.517-2.3033-48.108z"/>
                <path d="m16.972 996.97c-1.4905 3.4184-3.7957 8.3092-3.8074 11.955 0.01651 17.106 18.11 25.19 36.478 36.483 13.506-10.329 36.338-19.566 36.441-36.509v-0.06c-0.01947-4.6793-1.2861-9.2939-3.7048-13.498-3.3342-14.522-16.593-16.737-35.938-16.746-19.345-8e-3 -26.901 0.97198-29.468 18.374z"/>
                <path d="m87.85 962.04c-16.864 7.2864-43.426 16.164-51.747 28.094l49.444 20.014c3.9465-14.573 7.0879-29.517 2.3033-48.108z"/>
                <path d="m16.909 993.31c-1.4934 2.7499-3.803 15.776-3.8147 18.708 0.0037 6.8574 4.4346 11.396 11.218 15.62s15.918-7.8676 25.33-2.2709c6.766-4.1544 15.868 7.9103 23.291 3.3103 7.4234-4.6001 13.168-9.8653 13.219-16.68v-0.048c-0.0195-3.7642-1.2886-16.568-3.7119-19.949-3.3406-11.682-14.099-13.464-33.482-13.471-19.383-7e-3 -29.478 0.7819-32.05 14.781z"/>
            </g>
            <path d="m12.313 993.29c-1.6444 3.028-4.1877 7.3604-4.2005 10.589 0.018224 15.152 19.981 22.314 40.244 32.317 14.901-9.1491 40.09-17.332 40.204-32.34v-0.053c-0.02147-4.1449-1.4189-8.2326-4.0874-11.956-3.6785-12.864-18.306-14.826-39.649-14.833-21.343-8e-3 -29.678 0.86098-32.511 16.276z"
                  fill="none"/>
            <g transform="matrix(1.1011 0 0 1.1011 -6.8957 -100.48)" fill="none">
                <path d="m45.744 1011.4c2.4723-0.8389 4.9445-0.7334 7.4168 0-0.41403 2.7971-1.0775 4.9278-3.7084 9.0744-2.1981-4.1506-3.1496-6.3021-3.7084-9.0744z"/>
                <path d="m45.744 1011.1c2.4723-0.4545 4.9445-0.3973 7.4168 0-0.41403 1.5154-1.0775 2.6697-3.7084 4.9162-2.1981-2.2487-3.1496-3.4142-3.7084-4.9162z"/>
            </g>
            <g transform="translate(-1.3179 1.0398)">
                <path d="m6.1604 977.96c1.7141-5.9585 54.219 2.34 62.518 14.311l-55.589 17.157c3.8983-13.852-6.7843-16.013-6.9283-31.467z"
                      fill="#c17d11" stroke="#8f5902"/>
                <path d="m16.972 996.97c-1.4905 3.4184-3.7957 8.3092-3.8074 11.955 0.01651 17.106 18.11 25.19 36.478 36.483 13.506-10.329 36.338-19.566 36.441-36.509v-0.06c-0.01947-4.6793-1.2861-9.2939-3.7048-13.498-3.3342-14.522-16.593-16.737-35.938-16.746-19.345-8e-3 -26.901 0.97198-29.468 18.374z"
                      fill="#e9b96e" stroke="#8f5902" stroke-width="1.3443"/>
                <path d="m16.909 993.31c-1.4934 2.7499-3.803 15.776-3.8147 18.708 0.0037 6.8574 4.4346 23.539 11.218 27.763s15.918-20.01 25.33-14.414c6.766-4.1544 15.868 20.053 23.291 15.453 7.4234-4.6001 13.168-22.008 13.219-28.823v-0.048c-0.0195-3.7642-1.2886-16.568-3.7119-19.949-3.3406-11.682-14.099-13.464-33.482-13.471-19.383-7e-3 -29.478 0.7819-32.05 14.781z"
                      fill="#633d01" stroke="#8f5902" stroke-width="1.2069"/>
                <path d="m9.3611 980.01c1.5395-5.3513 48.694 2.1015 56.147 12.852l-49.924 15.408c3.5011-12.44-6.093-14.381-6.2223-28.26z"
                      fill="#8f5902" stroke="#8f5902" stroke-width=".89809"/>
                <path d="m92.968 977.96c-1.7141-5.9585-54.219 2.34-62.518 14.311l55.589 17.157c-3.8983-13.852 6.7843-16.013 6.9283-31.467z"
                      fill="#c17d11" stroke="#8f5902"/>
                <path d="m89.768 980.01c-1.5395-5.3513-48.694 2.1015-56.147 12.852l49.924 15.408c-3.5011-12.44 6.093-14.381 6.2223-28.26z"
                      fill="#8f5902" stroke="#8f5902" stroke-width=".89809"/>
                <path d="m12.62 981.1c1.4147-4.9175 44.747 1.9312 51.596 11.811l-45.878 14.159c3.2173-11.432-5.5991-13.215-5.718-25.97z"
                      fill="#633d01"/>
                <path d="m86.509 981.1c-1.4147-4.9175-44.747 1.9312-51.596 11.811l45.878 14.159c-3.2173-11.432 5.5991-13.215 5.718-25.97z"
                      fill="#633d01"/>
            </g>
            <path d="m15.591 994.35c-1.4934 2.7499-3.803 6.6844-3.8147 9.6169 0.0083 6.8804 4.5446 11.946 11.379 16.428 6.8346 4.4815 15.967 8.3785 25.169 12.921 6.766-4.1544 15.868-8.0893 23.291-12.689 7.4234-4.6001 13.168-9.8653 13.219-16.68v-0.048c-0.0195-3.7641-1.2886-7.4764-3.7119-10.858-3.3406-11.682-16.625-13.464-36.007-13.471-19.383-7e-3 -26.952 0.7819-29.525 14.781z"
                  fill="#c17d11" stroke="#8f5902" stroke-width="1.2069"/>
            <g transform="translate(-1.8536 1.0398)">
                <path d="m45.744 1011.4c2.4723-0.8389 4.9445-0.7334 7.4168 0-0.41403 2.7971-1.0775 4.9278-3.7084 9.0744-2.1981-4.1506-3.1496-6.3021-3.7084-9.0744z"
                      fill="#c00"/>
                <path class="upper-tongue"
                      d="m45.744 1011.1c2.4723-0.4545 4.9445-0.3973 7.4168 0-0.41403 1.5154-1.0775 2.6697-3.7084 4.9162-2.1981-2.2487-3.1496-3.4142-3.7084-4.9162z"
                />
            </g>
            <g transform="translate(-1.3179 1.0398)">
                <path d="m49.534 1011.1c-9.4821 0-16.497 8.9528-21.929 4.4693s-9.2825-7.1249 21.676-6.9612c30.958 0.1636 26.644 2.3017 21.81 7.2159-5.5357 5.6275-12.444-2.7584-21.557-4.724z"
                      fill="#8f5902" stroke="#8f5902" stroke-width="1.3546"/>
                <path d="m31.062 995.48c12.69-10.367 24.881-8.4685 36.618 0v1.5152c-9.7579 10.839-20.253 21.37-36.618 0z"
                      fill="#8f5902"/>
                <path d="m26.098 983.61c-6.0059 0.15903-11.861 6.0417-11.874 13.215-9e-6 8.6956 6.932 15.743 15.826 16.499 8.8941 0.7559 10.001-4.514 19.484-4.514 7.7352 0 11.092 8.1806 19.493 6.0857 8.4018-2.095 15.546-9.2419 15.546-18.071-0.01632-8.8291-8.8842-15.706-15.988-12.358-6.1285 2.8879-12.244 8.9571-14.75 15.612-4.0713 8.2489-5.7695 8.0454-8.8817-0.016-2.5093-6.6487-8.6212-12.711-14.745-15.596-1.332-0.62767-2.7255-0.89391-4.1114-0.85721z"
                      fill="#e9b96e" stroke="#8f5902" stroke-width="1.3546"/>
                <path d="m30.185 1003c4.8283 0 8.7449 1.1975 8.7494-3.6309 0.0044-4.8283-4.3655-9.834-8.7332-11.892-3.8914-1.8338-8.7485 1.9332-8.7574 6.7696-7e-6 4.8364 3.9129 8.7512 8.7413 8.7534z"
                      fill="#c17d11"/>
                <path d="m68.613 1003c-4.8283 0-8.7449 1.1975-8.7494-3.6309-0.0044-4.8283 4.3655-9.834 8.7332-11.892 3.8914-1.8338 8.7485 1.9332 8.7574 6.7696 7e-6 4.8364-3.9129 8.7512-8.7413 8.7534z"
                      fill="#c17d11"/>
                <path d="m30.186 999.49c3.4118 2e-3 6.1793 0.84619 6.1825-2.5656 0.0031-3.4118-3.0848-6.9489-6.1711-8.4033-2.7497-1.2958-6.1819 1.3661-6.1882 4.7836-5e-6 3.4175 2.765 6.1838 6.1768 6.1854z"
                      fill="#8f5902"/>
                <path d="m34.536 994.02a4.6582 4.6582 0 0 1-4.6561 4.6582 4.6582 4.6582 0 0 1-4.6604-4.6539 4.6582 4.6582 0 0 1 4.6518-4.6625 4.6582 4.6582 0 0 1 4.6647 4.6496"
                      fill="#fce94f"/>
                <path d="m32.947 994.01a2.9933 2.9933 0 0 1-2.9919 2.9933 2.9933 2.9933 0 0 1-2.9947-2.9905 2.9933 2.9933 0 0 1 2.9891-2.9961 2.9933 2.9933 0 0 1 2.9974 2.9878"/>
                <path d="m32.947 992.99a1.796 1.796 0 0 1-1.7951 1.796 1.796 1.796 0 0 1-1.7968-1.7943 1.796 1.796 0 0 1 1.7935-1.7976 1.796 1.796 0 0 1 1.7985 1.7926"
                      fill="#fff"/>
                <path d="m68.653 999.49c-3.4118 2e-3 -6.1793 0.84619-6.1825-2.5656-0.0031-3.4118 3.0848-6.9489 6.1711-8.4033 2.7497-1.2958 6.1819 1.3661 6.1882 4.7836 6e-6 3.4175-2.765 6.1838-6.1768 6.1854z"
                      fill="#8f5902"/>
                <path d="m73.853 994.02a4.6582 4.6582 0 0 1-4.6561 4.6582 4.6582 4.6582 0 0 1-4.6604-4.6539 4.6582 4.6582 0 0 1 4.6518-4.6625 4.6582 4.6582 0 0 1 4.6647 4.6496"
                      fill="#fce94f"/>
                <path d="m72.263 994.01a2.9933 2.9933 0 0 1-2.9919 2.9933 2.9933 2.9933 0 0 1-2.9947-2.9905 2.9933 2.9933 0 0 1 2.9891-2.9961 2.9933 2.9933 0 0 1 2.9974 2.9878"/>
                <path class="right-eye"
                      d="m72.263 992.99a1.796 1.796 0 0 1-1.7951 1.796 1.796 1.796 0 0 1-1.7968-1.7943 1.796 1.796 0 0 1 1.7935-1.7976 1.796 1.796 0 0 1 1.7985 1.7926"/>
            </g>
        </g>
    </g>
</svg>
